<svg width="108" height="72" viewBox="0 0 108 72" fill="none" xmlns="http://www.w3.org/2000/svg">
<path d="M55.0651 23.0458C55.0257 20.221 53.0024 30.3904 52.6345 31.8619C52.2666 33.3334 52.2666 41.3217 52.2666 43.621C52.2666 45.9203 52.7265 55.2882 51.7148 57.2196C56.3133 57.5874 55.8535 57.2458 55.8535 56.786C55.8535 56.3261 55.4593 43.621 55.236 42.4385C55.0257 41.2429 55.0914 25.4371 55.0651 23.0458Z" fill="#1C211E" stroke="white"/>
<path d="M67.0608 56.3262H43.1484V70.1218H67.0608V56.3262Z" fill="white" stroke="#1C211E"/>
<path d="M65.1568 58.4941H45.0546V67.954H65.1568V58.4941Z" fill="white" stroke="#1C211E"/>
<path d="M51.2661 66.2457V66.3493H46.6953V66.2457H46.9573H50.9383H51.2661ZM46.9573 60.1479H46.6953V60.123H63.4325V66.3493H60.5697V66.1267V64.7216H60.9631H62.2901H62.7901V64.2216V60.6479V60.1479H62.2901H60.9631H60.5697H60.4631H60.0697H58.8347H58.3347V60.6479V66.1267V66.3493H58.3099V65.1019V64.6019H58.2967V64.2216V60.6479V60.1479H57.7967H56.5354H56.0354V60.6479V64.2216V64.7216H56.0485V65.1019V66.3493H53.5668V66.2457H53.9996H55.3792H55.8792V65.7457V60.6479V60.1479H55.3792H53.9996H53.4996V60.6479V62.6311H53.3303V62.2376V60.6479V60.1479H52.8303H49.7296H49.2296V60.6479V63.849L48.8106 63.8568V60.6479V60.1479H48.3106H46.9573Z" fill="white" stroke="#1C211E"/>
<path d="M37.4477 56.4956V52.0285H35.7003V56.4825H28.1718V53.7365H32.639V52.0285H28.2112V44.5H30.9572V48.9672H32.639V44.5H40.1806V47.246H35.7003V48.9672H40.1937V56.4956H37.4477Z" fill="#1C211E"/>
<path d="M39.8524 44.8288V46.9179H36.0422H35.3853V47.5748V48.639V49.296H36.0422H39.8656V56.1675H37.7765V52.3573V51.7003H37.1196H36.0422H35.3853V52.3573V56.1544H28.5006V54.0653H32.3108H32.9678V53.4084V52.3704V51.7135H32.3108H28.54V44.8419H30.6291V48.6522V49.3091H31.286H32.3108H32.9678V48.6522V44.8419H39.8524M40.5094 44.1719H32.3108V48.639H31.286V44.1719H27.8831V52.3573H32.3108V53.3952H27.8437V56.7981H36.0291V52.3441H37.1065V56.8113H40.5225V48.6259H36.0291V47.5617H40.4962V44.1719H40.5094Z" fill="white"/>
<path d="M79.2915 56.4956V52.0285H77.5572V56.4825H70.0156V53.7365H74.4827V52.0285H70.055V44.5H72.801V48.9672H74.4827V44.5H82.0243V47.246H77.5572V48.9672H82.0375V56.4956H79.2915Z" fill="#1C211E"/>
<path d="M81.6962 44.8288V46.9179H77.886H77.229V47.5748V48.639V49.296H77.886H81.7225V56.1675H79.6334V52.3573V51.7003H78.9765H77.8991H77.2422V52.3573V56.1544H70.3444V54.0653H74.1546H74.8115V53.4084V52.3704V51.7135H74.1546H70.3838V44.8419H72.4728V48.6522V49.3091H73.1298H74.1546H74.8115V48.6522V44.8419H81.6962M82.3531 44.1719H74.1546V48.639H73.1298V44.1719H69.7269V52.3573H74.1546V53.3952H69.6874V56.7981H77.8728V52.3441H78.9502V56.8113H82.3531V48.6259H77.8597V47.5617H82.3269V44.1719H82.3531Z" fill="white"/>
<g clip-path="url(#clip0_426_6088)">
<path d="M51.7109 6.96969C51.7109 10.1098 54.0758 12.6719 54.0758 12.6719C54.0758 12.6719 56.4408 10.1098 56.4408 6.96969C56.4408 3.82954 54.0758 1.2675 54.0758 1.2675C54.0758 1.2675 51.7109 3.82954 51.7109 6.96969Z" fill="#1C211E" stroke="white"/>
<path d="M54.297 6.44414C54.0737 7.14049 53.5481 10.885 54.0737 12.6719L54.297 6.44414Z" fill="#1C211E"/>
<path d="M54.2979 6.44343C54.2979 6.44343 54.2979 6.46971 54.2847 6.50912C54.2847 6.56168 54.2584 6.62737 54.2584 6.7062C54.219 6.87701 54.1927 7.12664 54.1665 7.41569C54.127 7.70474 54.1008 8.04635 54.0876 8.41423C54.0745 8.59818 54.0745 8.78212 54.0614 8.9792C54.0482 9.17628 54.0482 9.36022 54.0482 9.5573C54.0482 9.75438 54.0482 9.95146 54.0482 10.1354C54.0614 10.3325 54.0614 10.5164 54.0745 10.7004C54.0876 10.8843 54.1008 11.0551 54.1139 11.2128C54.127 11.2916 54.127 11.3704 54.1402 11.4493C54.1533 11.5281 54.1665 11.5938 54.1796 11.6726C54.1927 11.7383 54.2059 11.804 54.2059 11.8697C54.219 11.9354 54.2322 11.988 54.2453 12.0405C54.2716 12.1456 54.2847 12.2507 54.311 12.3296C54.3504 12.4872 54.3767 12.5661 54.3767 12.5661L53.746 12.75C53.746 12.75 53.7197 12.6449 53.6935 12.4609C53.6803 12.3821 53.6803 12.277 53.6541 12.1456C53.6409 12.0799 53.6409 12.0142 53.6278 11.9485C53.6278 11.8828 53.6146 11.804 53.6146 11.7252C53.6146 11.6464 53.6015 11.5675 53.6015 11.4887C53.6015 11.4099 53.6015 11.3179 53.6015 11.2391C53.6015 11.0682 53.6015 10.8843 53.6146 10.7004C53.6146 10.5164 53.6409 10.3193 53.6541 10.1223C53.6672 9.92518 53.6935 9.7281 53.7066 9.53102C53.7329 9.33394 53.746 9.13686 53.7723 8.93978C53.7986 8.7427 53.8249 8.55876 53.8511 8.37482C53.9168 8.02007 53.9825 7.67847 54.0482 7.38942C54.1008 7.10037 54.1533 6.86387 54.2059 6.69307C54.2322 6.61423 54.2453 6.54854 54.2584 6.49599C54.2716 6.46971 54.2847 6.44343 54.2847 6.44343H54.2979Z" fill="white"/>
</g>
<g clip-path="url(#clip1_426_6088)">
<path d="M37.1101 39.132C39.1188 40.763 42.2486 40.2578 42.2486 40.2578C42.2486 40.2578 42.1006 37.0912 40.0918 35.4602C38.0831 33.8292 34.9532 34.3344 34.9532 34.3344C34.9532 34.3344 35.1013 37.501 37.1101 39.132Z" fill="#1C211E" stroke="white"/>
<path d="M38.4048 36.85C38.7095 37.3851 40.7736 39.738 42.2479 40.2581L38.4048 36.85Z" fill="#1C211E"/>
<path d="M38.4046 36.8498C38.4046 36.8498 38.4214 36.8635 38.4383 36.8941C38.472 36.9214 38.4974 36.9759 38.5479 37.0169C38.6323 37.1362 38.7754 37.2863 38.9437 37.4568C39.1038 37.6375 39.3058 37.8354 39.5328 38.0366C39.6422 38.1424 39.7599 38.2379 39.8776 38.3505C39.9954 38.463 40.1131 38.5586 40.2392 38.6609C40.3653 38.7633 40.4913 38.8657 40.609 38.9612C40.7433 39.0534 40.861 39.1489 40.987 39.2343C41.1129 39.3196 41.2305 39.3981 41.3396 39.4698C41.3983 39.5005 41.4487 39.5415 41.5074 39.5722C41.5662 39.603 41.6165 39.6269 41.6752 39.6576C41.7255 39.6816 41.7758 39.7055 41.8178 39.7396C41.8681 39.7635 41.91 39.7806 41.9519 39.7977C42.0357 39.8319 42.1113 39.8763 42.1782 39.8969C42.304 39.9482 42.3709 39.9687 42.3709 39.9687L42.091 40.5538C42.091 40.5538 42.0072 40.5196 41.873 40.4445C41.8143 40.4137 41.7471 40.3591 41.6464 40.3113C41.5961 40.2874 41.5541 40.2533 41.5038 40.2293C41.4618 40.1952 41.4031 40.1645 41.3526 40.1235C41.3022 40.0826 41.2435 40.0518 41.1931 40.0109C41.1426 39.9699 41.0838 39.9222 41.0334 39.8812C40.9241 39.7925 40.8065 39.697 40.6971 39.5912C40.5794 39.4957 40.4699 39.3729 40.3521 39.2604C40.2343 39.1478 40.1248 39.025 40.007 38.9125C39.8975 38.7897 39.7797 38.6772 39.6702 38.5544C39.5607 38.4316 39.4596 38.3157 39.3585 38.1998C39.173 37.9645 38.9959 37.7361 38.8524 37.5349C38.7006 37.344 38.5825 37.1804 38.5063 37.0509C38.4725 36.9895 38.4387 36.9452 38.4134 36.9077C38.4049 36.8839 38.3963 36.86 38.3963 36.86L38.4046 36.8498Z" fill="white"/>
</g>
<g clip-path="url(#clip2_426_6088)">
<path d="M31.7663 30.548C33.7751 32.179 36.9049 31.6738 36.9049 31.6738C36.9049 31.6738 36.7568 28.5072 34.7481 26.8762C32.7393 25.2452 29.6095 25.7504 29.6095 25.7504C29.6095 25.7504 29.7576 28.9171 31.7663 30.548Z" fill="#1C211E" stroke="white"/>
<path d="M33.0611 28.266C33.3657 28.8011 35.4298 31.154 36.9042 31.6741L33.0611 28.266Z" fill="#1C211E"/>
<path d="M33.0609 28.2658C33.0609 28.2658 33.0777 28.2795 33.0946 28.3101C33.1282 28.3374 33.1537 28.392 33.2041 28.4329C33.2885 28.5522 33.4316 28.7023 33.6 28.8728C33.76 29.0535 33.962 29.2514 34.1891 29.4527C34.2984 29.5584 34.4161 29.6539 34.5339 29.7665C34.6517 29.8791 34.7694 29.9746 34.8954 30.077C35.0215 30.1793 35.1476 30.2817 35.2652 30.3772C35.3996 30.4694 35.5173 30.5649 35.6432 30.6503C35.7692 30.7356 35.8867 30.8141 35.9958 30.8858C36.0546 30.9166 36.105 30.9575 36.1637 30.9883C36.2224 31.019 36.2727 31.0429 36.3314 31.0737C36.3817 31.0976 36.432 31.1215 36.4741 31.1556C36.5244 31.1795 36.5663 31.1966 36.6082 31.2137C36.692 31.2479 36.7675 31.2923 36.8345 31.3129C36.9602 31.3642 37.0272 31.3847 37.0272 31.3847L36.7473 31.9698C36.7473 31.9698 36.6635 31.9356 36.5293 31.8605C36.4705 31.8298 36.4033 31.7752 36.3027 31.7273C36.2524 31.7034 36.2104 31.6693 36.1601 31.6454C36.118 31.6112 36.0593 31.5805 36.0089 31.5395C35.9585 31.4986 35.8998 31.4679 35.8493 31.4269C35.7989 31.386 35.7401 31.3382 35.6896 31.2972C35.5804 31.2085 35.4627 31.113 35.3533 31.0073C35.2357 30.9117 35.1261 30.7889 35.0084 30.6764C34.8906 30.5638 34.7811 30.4411 34.6633 30.3285C34.5538 30.2057 34.436 30.0932 34.3265 29.9704C34.217 29.8476 34.1159 29.7317 34.0148 29.6158C33.8292 29.3805 33.6521 29.1521 33.5086 28.951C33.3569 28.76 33.2387 28.5964 33.1626 28.4669C33.1287 28.4055 33.095 28.3612 33.0696 28.3237C33.0611 28.2999 33.0526 28.276 33.0526 28.276L33.0609 28.2658Z" fill="white"/>
</g>
<g clip-path="url(#clip3_426_6088)">
<path d="M42.0278 32.8484C43.4086 35.0368 46.5351 35.5603 46.5351 35.5603C46.5351 35.5603 47.4087 32.5129 46.0279 30.3245C44.6472 28.1362 41.5206 27.6126 41.5206 27.6126C41.5206 27.6126 40.6471 30.66 42.0278 32.8484Z" fill="#1C211E" stroke="white"/>
<path d="M43.9854 31.1017C44.1027 31.7062 45.3047 34.5962 46.5349 35.561L43.9854 31.1017Z" fill="#1C211E"/>
<path d="M43.9838 31.1025C43.9838 31.1025 43.9954 31.1208 44.0016 31.1553C44.0247 31.1919 44.0314 31.2517 44.066 31.3067C44.1078 31.4467 44.1953 31.6347 44.3002 31.8502C44.394 32.0727 44.5219 32.3248 44.6726 32.5881C44.7424 32.7233 44.8232 32.8515 44.8988 32.9959C44.9743 33.1402 45.0552 33.2684 45.1419 33.4058C45.2285 33.5431 45.3152 33.6805 45.3961 33.8087C45.4938 33.939 45.5747 34.0672 45.6667 34.1884C45.7587 34.3095 45.8449 34.4216 45.9253 34.5244C45.9711 34.5724 46.0058 34.6273 46.0515 34.6752C46.0973 34.7231 46.1373 34.7619 46.1831 34.8098C46.2231 34.8486 46.2631 34.8874 46.292 34.9332C46.332 34.9719 46.3662 35.0016 46.4004 35.0312C46.4688 35.0904 46.5262 35.1566 46.5831 35.1976C46.6857 35.2864 46.7426 35.3273 46.7426 35.3273L46.2901 35.792C46.2901 35.792 46.2217 35.7328 46.1186 35.6186C46.0728 35.5707 46.0266 35.4974 45.9466 35.4199C45.9066 35.3811 45.8777 35.3354 45.8377 35.2966C45.8088 35.2508 45.7631 35.2029 45.7284 35.1479C45.6937 35.093 45.648 35.0451 45.6133 34.9901C45.5786 34.9352 45.5382 34.8711 45.5035 34.8162C45.4284 34.6971 45.3476 34.5689 45.2778 34.4337C45.1969 34.3056 45.1325 34.1542 45.0569 34.0098C44.9814 33.8655 44.917 33.7141 44.8414 33.5697C44.777 33.4184 44.7014 33.274 44.637 33.1227C44.5726 32.9713 44.5139 32.8291 44.4553 32.6869C44.3548 32.4046 44.2602 32.1315 44.1886 31.895C44.106 31.6655 44.0465 31.4726 44.0158 31.3256C44.0034 31.2566 43.9856 31.2038 43.9736 31.1602C43.9731 31.1349 43.9727 31.1095 43.9727 31.1095L43.9838 31.1025Z" fill="white"/>
</g>
<g clip-path="url(#clip4_426_6088)">
<path d="M28.8402 18.7722C30.1371 21.0112 33.2419 21.6526 33.2419 21.6526C33.2419 21.6526 34.2304 18.6405 32.9335 16.4016C31.6366 14.1627 28.5319 13.5212 28.5319 13.5212C28.5319 13.5212 27.5434 16.5333 28.8402 18.7722Z" fill="#1C211E" stroke="white"/>
<path d="M30.8598 17.1C30.9541 17.7084 32.0458 20.6417 33.2385 21.6523L30.8598 17.1Z" fill="#1C211E"/>
<path d="M30.8612 17.0997C30.8612 17.0997 30.8721 17.1185 30.877 17.1531C30.8987 17.1906 30.9031 17.2506 30.9356 17.3068C30.9721 17.4484 31.0524 17.6395 31.1491 17.8588C31.2343 18.0846 31.3527 18.3414 31.4932 18.6103C31.5578 18.748 31.6338 18.8791 31.7038 19.0263C31.7739 19.1734 31.8498 19.3045 31.9312 19.445C32.0126 19.5855 32.094 19.7261 32.17 19.8572C32.2627 19.9911 32.3387 20.1223 32.426 20.2469C32.5134 20.3714 32.5953 20.4866 32.6718 20.5925C32.7157 20.6421 32.7483 20.6983 32.7922 20.7479C32.8361 20.7975 32.8746 20.8378 32.9186 20.8874C32.9571 20.9277 32.9956 20.9679 33.0227 21.0147C33.0612 21.055 33.0943 21.0859 33.1273 21.1168C33.1935 21.1785 33.2483 21.2469 33.3036 21.2899C33.4028 21.3826 33.4581 21.4256 33.4581 21.4256L32.9883 21.8729C32.9883 21.8729 32.9221 21.8111 32.8234 21.6931C32.7795 21.6435 32.7361 21.5686 32.6591 21.488C32.6206 21.4478 32.5935 21.401 32.555 21.3607C32.5278 21.3139 32.4839 21.2642 32.4513 21.208C32.4188 21.1518 32.3749 21.1022 32.3423 21.046C32.3097 20.9898 32.2718 20.9242 32.2392 20.868C32.1687 20.7462 32.0927 20.6151 32.0281 20.4773C31.9521 20.3462 31.8935 20.1925 31.8234 20.0454C31.7534 19.8983 31.6948 19.7446 31.6247 19.5975C31.5661 19.4438 31.4961 19.2967 31.4374 19.143C31.3788 18.9893 31.3255 18.845 31.2723 18.7007C31.1826 18.4148 31.0984 18.1383 31.0359 17.8993C30.962 17.6669 30.9098 17.4719 30.8847 17.3238C30.8749 17.2544 30.8592 17.201 30.8488 17.1569C30.8493 17.1316 30.8499 17.1063 30.8499 17.1063L30.8612 17.0997Z" fill="white"/>
</g>
<g clip-path="url(#clip5_426_6088)">
<path d="M34.1156 14.2088C34.7596 16.715 37.5756 18.1711 37.5756 18.1711C37.5756 18.1711 39.3406 15.5377 38.6965 13.0316C38.0525 10.5254 35.2365 9.06929 35.2365 9.06929C35.2365 9.06929 33.4715 11.7027 34.1156 14.2088Z" fill="#1C211E" stroke="white"/>
<path d="M36.5134 13.1443C36.4399 13.7557 36.6989 16.875 37.5743 18.1703L36.5134 13.1443Z" fill="#1C211E"/>
<path d="M36.5137 13.145C36.5137 13.145 36.5191 13.1659 36.5144 13.2007C36.5252 13.2426 36.5132 13.3016 36.5294 13.3645C36.5263 13.5106 36.552 13.7164 36.5859 13.9536C36.607 14.1941 36.6516 14.4733 36.7143 14.7702C36.7393 14.9203 36.777 15.0671 36.8047 15.2276C36.8324 15.3882 36.8702 15.535 36.9106 15.6923C36.951 15.8496 36.9914 16.0069 37.0291 16.1537C37.0823 16.3077 37.12 16.4545 37.1705 16.598C37.2209 16.7416 37.2687 16.8746 37.3137 16.9972C37.3426 17.0568 37.3588 17.1197 37.3877 17.1794C37.4166 17.239 37.4428 17.2882 37.4717 17.3478C37.4979 17.397 37.5241 17.4461 37.5375 17.4986C37.5637 17.5477 37.5872 17.5864 37.6108 17.6251C37.6578 17.7024 37.692 17.783 37.7337 17.8394C37.8042 17.9554 37.8458 18.0118 37.8458 18.0118L37.2727 18.3156C37.2727 18.3156 37.2257 18.2382 37.1625 18.098C37.1336 18.0383 37.1121 17.9544 37.0597 17.8561C37.0335 17.807 37.02 17.7545 36.9938 17.7054C36.9803 17.6529 36.9515 17.5933 36.9353 17.5304C36.9191 17.4675 36.8902 17.4078 36.8741 17.3449C36.8579 17.282 36.839 17.2086 36.8229 17.1457C36.7878 17.0094 36.7501 16.8626 36.7251 16.7125C36.6874 16.5657 36.6724 16.4018 36.6447 16.2413C36.617 16.0807 36.602 15.9169 36.5743 15.7563C36.5594 15.5925 36.5317 15.4319 36.5167 15.2681C36.5017 15.1043 36.4894 14.9509 36.4772 14.7976C36.468 14.4981 36.4616 14.2091 36.4659 13.9621C36.4576 13.7183 36.4599 13.5165 36.4758 13.3671C36.4851 13.2976 36.4843 13.2419 36.4863 13.1967C36.4936 13.1725 36.501 13.1482 36.501 13.1482L36.5137 13.145Z" fill="white"/>
</g>
<g clip-path="url(#clip6_426_6088)">
<path d="M44.1183 26.2783C45.8149 28.2321 48.9849 28.2755 48.9849 28.2755C48.9849 28.2755 49.3865 25.1307 47.6898 23.1769C45.9932 21.2231 42.8232 21.1797 42.8232 21.1797C42.8232 21.1797 42.4216 24.3245 44.1183 26.2783Z" fill="#1C211E" stroke="white"/>
<path d="M45.7909 24.2542C45.9984 24.834 47.6248 27.5084 48.987 28.2756L45.7909 24.2542Z" fill="#1C211E"/>
<path d="M45.7902 24.2542C45.7902 24.2542 45.8044 24.2706 45.8158 24.3037C45.8442 24.3364 45.8598 24.3945 45.9024 24.4436C45.9649 24.5757 46.08 24.7482 46.2163 24.9453C46.3427 25.151 46.5074 25.3808 46.6963 25.6183C46.7857 25.7414 46.8851 25.8558 46.9817 25.987C47.0782 26.1183 47.1776 26.2327 47.2841 26.3554C47.3906 26.478 47.4971 26.6006 47.5965 26.7151C47.7129 26.8291 47.8122 26.9435 47.9216 27.0493C48.0309 27.1552 48.1331 27.2528 48.2282 27.3423C48.2807 27.3828 48.3233 27.4318 48.3758 27.4722C48.4283 27.5127 48.4737 27.5449 48.5262 27.5854C48.5716 27.6176 48.6171 27.6499 48.6526 27.6908C48.698 27.723 48.7363 27.7471 48.7746 27.7712C48.8512 27.8194 48.918 27.8761 48.9804 27.908C49.0953 27.9802 49.1578 28.012 49.1578 28.012L48.7809 28.54C48.7809 28.54 48.7043 28.4918 48.5851 28.3946C48.5326 28.3542 48.4758 28.2888 48.385 28.2243C48.3395 28.192 48.304 28.1511 48.2586 28.1189C48.2231 28.078 48.1706 28.0376 48.128 27.9885C48.0854 27.9395 48.0329 27.899 47.9903 27.85C47.9477 27.8009 47.898 27.7437 47.8554 27.6947C47.7632 27.5884 47.6638 27.4739 47.5743 27.3509C47.4749 27.2364 47.3883 27.0966 47.2917 26.9653C47.1952 26.8341 47.1085 26.6942 47.012 26.563C46.9253 26.4231 46.8288 26.2919 46.7421 26.1521C46.6555 26.0122 46.5759 25.8805 46.4964 25.7488C46.3543 25.485 46.2194 25.2294 46.1128 25.0065C45.9963 24.7922 45.9082 24.6106 45.8556 24.4698C45.8329 24.4036 45.8073 24.3541 45.7888 24.3128C45.7845 24.2878 45.7803 24.2628 45.7803 24.2628L45.7902 24.2542Z" fill="white"/>
</g>
<g clip-path="url(#clip7_426_6088)">
<path d="M44.2915 18.0943C45.7508 20.2311 48.8943 20.641 48.8943 20.641C48.8943 20.641 49.6567 17.5639 48.1975 15.4271C46.7383 13.2902 43.5947 12.8803 43.5947 12.8803C43.5947 12.8803 42.8323 15.9574 44.2915 18.0943Z" fill="#1C211E" stroke="white"/>
<path d="M46.188 16.2781C46.3271 16.8779 47.6332 19.7225 48.8976 20.6421L46.188 16.2781Z" fill="#1C211E"/>
<path d="M46.1873 16.2786C46.1873 16.2786 46.1995 16.2965 46.207 16.3307C46.2314 16.3665 46.2402 16.426 46.2769 16.4796C46.3237 16.6181 46.418 16.8028 46.5306 17.0143C46.6324 17.2332 46.7694 17.4805 46.9295 17.7383C47.0042 17.8709 47.0896 17.996 47.1704 18.1375C47.2511 18.2791 47.3366 18.4042 47.4282 18.5384C47.5197 18.6725 47.6113 18.8066 47.6968 18.9318C47.7992 19.0585 47.8847 19.1836 47.981 19.3014C48.0774 19.4192 48.1676 19.528 48.2517 19.6279C48.2992 19.6741 48.3358 19.7277 48.3833 19.774C48.4308 19.8202 48.4722 19.8575 48.5196 19.9037C48.561 19.941 48.6024 19.9783 48.6329 20.023C48.6743 20.0603 48.7096 20.0887 48.7449 20.117C48.8154 20.1738 48.8751 20.2379 48.9334 20.2767C49.0392 20.3618 49.0976 20.4006 49.0976 20.4006L48.6623 20.8814C48.6623 20.8814 48.5917 20.8247 48.4845 20.7143C48.4371 20.6681 48.3882 20.5966 48.3055 20.522C48.2641 20.4847 48.2335 20.44 48.1922 20.4027C48.1616 20.358 48.1142 20.3117 48.0775 20.2581C48.0409 20.2044 47.9934 20.1582 47.9568 20.1046C47.9201 20.0509 47.8774 19.9883 47.8408 19.9347C47.7614 19.8185 47.6759 19.6933 47.6013 19.5607C47.5158 19.4355 47.4459 19.2866 47.3652 19.1451C47.2845 19.0036 47.2146 18.8546 47.1338 18.7131C47.064 18.5642 46.9832 18.4227 46.9133 18.2737C46.8435 18.1248 46.7797 17.9848 46.7159 17.8448C46.6053 17.5664 46.5008 17.2969 46.4207 17.0631C46.3298 16.8368 46.2633 16.6462 46.2273 16.5003C46.2124 16.4319 46.1927 16.3798 46.1792 16.3366C46.1778 16.3113 46.1764 16.286 46.1764 16.286L46.1873 16.2786Z" fill="white"/>
</g>
<g clip-path="url(#clip8_426_6088)">
<path d="M45.9135 11.4863C46.9915 13.8386 50.021 14.7726 50.021 14.7726C50.021 14.7726 51.2915 11.8681 50.2134 9.51581C49.1354 7.16353 46.1059 6.22955 46.1059 6.22955C46.1059 6.22955 44.8355 9.13402 45.9135 11.4863Z" fill="#1C211E" stroke="white"/>
<path d="M48.0869 10.0128C48.1229 10.6275 48.9307 13.6515 50.0219 14.7711L48.0869 10.0128Z" fill="#1C211E"/>
<path d="M48.0851 10.013C48.0851 10.013 48.0942 10.0327 48.0957 10.0677C48.1138 10.107 48.1124 10.1672 48.1395 10.2263C48.1623 10.3706 48.2241 10.5686 48.2995 10.7961C48.3629 11.029 48.4563 11.2958 48.5706 11.5769C48.6218 11.7202 48.6849 11.858 48.7407 12.0111C48.7964 12.1642 48.8595 12.302 48.9272 12.4496C48.9948 12.5972 49.0625 12.7449 49.1256 12.8826C49.2052 13.0248 49.2684 13.1626 49.3435 13.2949C49.4186 13.4272 49.4892 13.5497 49.5552 13.6623C49.5942 13.7159 49.6213 13.775 49.6603 13.8286C49.6993 13.8821 49.7338 13.9259 49.7728 13.9794C49.8073 14.0232 49.8418 14.0669 49.8644 14.1161C49.8989 14.1599 49.9288 14.1938 49.9588 14.2277C50.0188 14.2955 50.0668 14.3687 50.1178 14.4168C50.2077 14.5185 50.2587 14.5666 50.2587 14.5666L49.7485 14.9671C49.7485 14.9671 49.6885 14.8993 49.6015 14.7725C49.5625 14.7189 49.5264 14.6402 49.4574 14.5527C49.4229 14.509 49.4004 14.4598 49.3659 14.416C49.3433 14.3668 49.3043 14.3132 49.2773 14.2542C49.2502 14.1951 49.2112 14.1415 49.1841 14.0825C49.1571 14.0234 49.1255 13.9545 49.0984 13.8955C49.0398 13.7675 48.9766 13.6298 48.9254 13.4865C48.8623 13.3487 48.8185 13.1901 48.7628 13.037C48.7071 12.8839 48.6633 12.7253 48.6076 12.5722C48.5638 12.4136 48.5081 12.2605 48.4644 12.102C48.4206 11.9434 48.3813 11.7946 48.3421 11.6459C48.28 11.3528 48.2225 11.0695 48.1829 10.8256C48.1315 10.5872 48.0981 10.3882 48.0872 10.2383C48.084 10.1683 48.0734 10.1136 48.0673 10.0688C48.0703 10.0436 48.0732 10.0185 48.0732 10.0185L48.0851 10.013Z" fill="white"/>
</g>
<g clip-path="url(#clip9_426_6088)">
<path d="M74.2492 29.9249C71.4789 30.66 68.6121 28.9738 68.6121 28.9738C68.6121 28.9738 70.2657 26.088 73.0359 25.3529C75.8062 24.6178 78.673 26.304 78.673 26.304C78.673 26.304 77.0194 29.1898 74.2492 29.9249Z" fill="#1C211E" stroke="white"/>
<path d="M74.0506 27.2991C73.4936 27.678 70.325 29.0626 68.6138 28.9729L74.0506 27.2991Z" fill="#1C211E"/>
<path d="M74.049 27.2998C74.049 27.2998 74.0259 27.3059 73.9945 27.3278C73.9481 27.3401 73.8969 27.3809 73.8273 27.3994C73.6868 27.4775 73.4733 27.5613 73.225 27.6544C72.9801 27.7601 72.6855 27.8655 72.3643 27.9643C72.2054 28.0201 72.0431 28.0631 71.8727 28.122C71.7022 28.1808 71.5399 28.2239 71.366 28.27C71.1922 28.3161 71.0183 28.3623 70.856 28.4053C70.6788 28.4388 70.5165 28.4818 70.3509 28.5122C70.1852 28.5426 70.0312 28.5699 69.8887 28.5941C69.8158 28.5998 69.7462 28.6183 69.6733 28.624C69.6004 28.6298 69.5391 28.6325 69.4662 28.6382C69.4049 28.6409 69.3435 28.6436 69.2856 28.6589C69.2242 28.6616 69.1745 28.6612 69.1248 28.6608C69.0253 28.66 68.9292 28.6719 68.8529 28.665C68.7037 28.6638 68.6274 28.6569 68.6274 28.6569L68.6269 29.3095C68.6269 29.3095 68.7264 29.3103 68.8954 29.2927C68.9683 29.2869 69.0611 29.2623 69.1837 29.2569C69.245 29.2543 69.303 29.2389 69.3643 29.2362C69.4223 29.2208 69.4952 29.2151 69.5647 29.1966C69.6343 29.1782 69.7072 29.1724 69.7767 29.1539C69.8463 29.1355 69.9274 29.114 69.997 29.0955C70.1476 29.0555 70.3099 29.0125 70.4688 28.9567C70.6311 28.9136 70.7982 28.8421 70.9687 28.7833C71.1392 28.7244 71.3063 28.6529 71.4768 28.5941C71.6439 28.5225 71.8144 28.4637 71.9816 28.3921C72.1487 28.3206 72.3042 28.2522 72.4598 28.1837C72.7559 28.0371 73.0404 27.8937 73.2785 27.7625C73.52 27.644 73.7152 27.5379 73.8524 27.4471C73.9152 27.4032 73.9698 27.3752 74.0128 27.3502C74.0326 27.3313 74.0524 27.3125 74.0524 27.3125L74.049 27.2998Z" fill="white"/>
</g>
<g clip-path="url(#clip10_426_6088)">
<path d="M66.9093 37.1535C64.9006 38.7845 61.7708 38.2793 61.7708 38.2793C61.7708 38.2793 61.9189 35.1127 63.9276 33.4817C65.9364 31.8507 69.0662 32.3559 69.0662 32.3559C69.0662 32.3559 68.9181 35.5225 66.9093 37.1535Z" fill="#1C211E" stroke="white"/>
<path d="M65.6146 34.8715C65.3099 35.4066 63.2459 37.7595 61.7715 38.2796L65.6146 34.8715Z" fill="#1C211E"/>
<path d="M65.6148 34.8713C65.6148 34.8713 65.598 34.8849 65.5811 34.9156C65.5474 34.9429 65.522 34.9974 65.4716 35.0384C65.3871 35.1577 65.244 35.3077 65.0757 35.4783C64.9156 35.659 64.7137 35.8568 64.4866 36.0581C64.3772 36.1639 64.2596 36.2594 64.1418 36.372C64.024 36.4845 63.9063 36.5801 63.7802 36.6824C63.6542 36.7848 63.5281 36.8872 63.4104 36.9827C63.2761 37.0749 63.1584 37.1704 63.0324 37.2557C62.9065 37.3411 62.789 37.4196 62.6798 37.4913C62.6211 37.522 62.5707 37.563 62.512 37.5937C62.4532 37.6245 62.4029 37.6484 62.3442 37.6791C62.2939 37.7031 62.2436 37.727 62.2016 37.7611C62.1513 37.785 62.1094 37.8021 62.0675 37.8192C61.9837 37.8534 61.9082 37.8978 61.8412 37.9183C61.7155 37.9696 61.6485 37.9902 61.6485 37.9902L61.9284 38.5753C61.9284 38.5753 62.0122 38.5411 62.1464 38.466C62.2051 38.4352 62.2723 38.3806 62.373 38.3328C62.4233 38.3089 62.4653 38.2747 62.5156 38.2508C62.5576 38.2167 62.6163 38.186 62.6668 38.145C62.7172 38.1041 62.7759 38.0733 62.8263 38.0324C62.8768 37.9914 62.9356 37.9437 62.986 37.9027C63.0953 37.814 63.213 37.7185 63.3223 37.6127C63.44 37.5172 63.5495 37.3944 63.6673 37.2819C63.7851 37.1693 63.8946 37.0465 64.0124 36.934C64.1219 36.8112 64.2397 36.6986 64.3492 36.5759C64.4587 36.4531 64.5598 36.3372 64.6609 36.2212C64.8464 35.986 65.0235 35.7576 65.167 35.5564C65.3188 35.3655 65.437 35.2019 65.5131 35.0723C65.547 35.011 65.5807 34.9667 65.606 34.9292C65.6146 34.9053 65.6231 34.8815 65.6231 34.8815L65.6148 34.8713Z" fill="white"/>
</g>
<g clip-path="url(#clip11_426_6088)">
<path d="M69.0465 24.562C67.457 26.6037 64.2939 26.8167 64.2939 26.8167C64.2939 26.8167 63.7246 23.6981 65.3142 21.6564C66.9037 19.6147 70.0668 19.4016 70.0668 19.4016C70.0668 19.4016 70.6361 22.5202 69.0465 24.562Z" fill="#1C211E" stroke="white"/>
<path d="M67.2704 22.6297C67.0942 23.2197 65.6134 25.9772 64.2942 26.8162L67.2704 22.6297Z" fill="#1C211E"/>
<path d="M67.2717 22.6299C67.2717 22.6299 67.2584 22.647 67.2489 22.6807C67.2223 22.7149 67.2097 22.7737 67.1698 22.825C67.1145 22.9602 67.0088 23.1387 66.8833 23.3428C66.768 23.5549 66.6159 23.7932 66.44 24.0405C66.3573 24.1681 66.2641 24.2877 66.1748 24.4239C66.0854 24.5602 65.9922 24.6798 65.8925 24.8079C65.7927 24.936 65.693 25.0642 65.5999 25.1838C65.4897 25.3038 65.3966 25.4234 65.2931 25.535C65.1897 25.6465 65.0928 25.7495 65.0026 25.8439C64.9524 25.8871 64.9125 25.9384 64.8622 25.9816C64.8119 26.0247 64.7683 26.0594 64.718 26.1026C64.6744 26.1372 64.6308 26.1719 64.5975 26.2146C64.5539 26.2492 64.5169 26.2753 64.48 26.3014C64.406 26.3536 64.3425 26.4139 64.2818 26.449C64.1709 26.5273 64.1103 26.5624 64.1103 26.5624L64.5148 27.0694C64.5148 27.0694 64.5887 27.0172 64.7026 26.9138C64.7529 26.8706 64.8061 26.8022 64.8933 26.733C64.9369 26.6983 64.9702 26.6556 65.0138 26.621C65.0471 26.5782 65.0973 26.5351 65.1372 26.4838C65.1771 26.4325 65.2274 26.3894 65.2673 26.3381C65.3072 26.2868 65.3538 26.227 65.3937 26.1758C65.4801 26.0647 65.5733 25.9451 65.656 25.8175C65.7491 25.6979 65.8281 25.5536 65.9175 25.4174C66.0069 25.2812 66.086 25.1369 66.1753 25.0007C66.2544 24.8564 66.3438 24.7202 66.4228 24.5759C66.5018 24.4316 66.5742 24.2958 66.6466 24.1601C66.7743 23.8891 66.8954 23.6266 66.9899 23.3983C67.0947 23.1781 67.173 22.9921 67.2179 22.8487C67.2371 22.7813 67.26 22.7305 67.2762 22.6883C67.2792 22.6631 67.2821 22.638 67.2821 22.638L67.2717 22.6299Z" fill="white"/>
</g>
<g clip-path="url(#clip12_426_6088)">
<path d="M62.5349 31.9329C60.67 33.7263 57.5092 33.4848 57.5092 33.4848C57.5092 33.4848 57.3917 30.3169 59.2566 28.5236C61.1215 26.7303 64.2823 26.9717 64.2823 26.9717C64.2823 26.9717 64.3998 30.1396 62.5349 31.9329Z" fill="#1C211E" stroke="white"/>
<path d="M61.0512 29.7678C60.7924 30.3265 58.9328 32.8438 57.5073 33.4855L61.0512 29.7678Z" fill="#1C211E"/>
<path d="M61.0518 29.7675C61.0518 29.7675 61.0362 29.7825 61.0219 29.8145C60.9907 29.8445 60.9699 29.9009 60.9231 29.946C60.849 30.0719 60.7189 30.2334 60.5655 30.4174C60.4211 30.6109 60.2365 30.825 60.0271 31.0445C59.9269 31.1591 59.8177 31.2641 59.7098 31.3861C59.6018 31.5081 59.4926 31.6132 59.3755 31.7257C59.2585 31.8383 59.1414 31.9509 59.0322 32.0559C58.906 32.159 58.7968 32.264 58.6784 32.3596C58.5601 32.4552 58.4496 32.5433 58.3468 32.6238C58.2909 32.6594 58.2441 32.7044 58.1881 32.74C58.1322 32.7755 58.0841 32.8036 58.0282 32.8391C57.98 32.8672 57.9319 32.8952 57.8929 32.9327C57.8448 32.9608 57.8045 32.9813 57.7642 33.0019C57.6835 33.0429 57.612 33.0935 57.547 33.1196C57.426 33.1812 57.361 33.2073 57.361 33.2073L57.6888 33.7669C57.6888 33.7669 57.7695 33.7258 57.8969 33.6397C57.9528 33.6042 58.0153 33.5441 58.1115 33.4881C58.1596 33.46 58.1987 33.4225 58.2468 33.3944C58.2858 33.3569 58.3417 33.3214 58.3885 33.2764C58.4354 33.2313 58.4913 33.1958 58.5381 33.1508C58.5849 33.1057 58.6395 33.0532 58.6864 33.0082C58.7878 32.9106 58.897 32.8056 58.9972 32.6911C59.1064 32.586 59.2052 32.4545 59.3132 32.3325C59.4211 32.2105 59.52 32.079 59.6279 31.957C59.7267 31.8255 59.8347 31.7035 59.9335 31.572C60.0323 31.4405 60.1234 31.3165 60.2144 31.1925C60.3796 30.9425 60.5369 30.7001 60.663 30.4877C60.7983 30.2847 60.9023 30.1118 60.9673 29.9763C60.9959 29.9124 61.0258 29.8654 61.0479 29.8259C61.0544 29.8014 61.0609 29.777 61.0609 29.777L61.0518 29.7675Z" fill="white"/>
</g>
<g clip-path="url(#clip13_426_6088)">
<path d="M77.6052 22.0304C75.3531 23.3043 72.3511 22.2853 72.3511 22.2853C72.3511 22.2853 73.024 19.1874 75.2762 17.9134C77.5283 16.6395 80.5303 17.6585 80.5303 17.6585C80.5303 17.6585 79.8573 20.7564 77.6052 22.0304Z" fill="#1C211E" stroke="white"/>
<path d="M76.7061 19.5666C76.3167 20.0435 73.8899 22.0201 72.3496 22.2876L76.7061 19.5666Z" fill="#1C211E"/>
<path d="M76.7075 19.5658C76.7075 19.5658 76.6886 19.5765 76.6668 19.6039C76.6291 19.6252 76.595 19.6747 76.5384 19.7067C76.4353 19.8103 76.2692 19.9345 76.0749 20.0746C75.887 20.2262 75.6549 20.3876 75.3975 20.5483C75.2721 20.6344 75.1401 20.709 75.0053 20.8004C74.8704 20.8918 74.7385 20.9664 74.5971 21.0464C74.4558 21.1263 74.3144 21.2063 74.1825 21.2809C74.0347 21.3494 73.9028 21.424 73.7644 21.4872C73.626 21.5504 73.497 21.6083 73.3775 21.6608C73.3145 21.6814 73.2579 21.7133 73.1949 21.7339C73.1319 21.7544 73.0783 21.7697 73.0153 21.7902C72.9617 21.8054 72.9081 21.8206 72.861 21.8473C72.8074 21.8625 72.7633 21.8724 72.7191 21.8823C72.6308 21.902 72.5489 21.9332 72.4795 21.9424C72.347 21.972 72.2775 21.9811 72.2775 21.9811L72.4561 22.6047C72.4561 22.6047 72.5444 22.5849 72.6893 22.5331C72.7523 22.5126 72.8277 22.47 72.9349 22.4395C72.9885 22.4243 73.0356 22.3977 73.0892 22.3824C73.1363 22.3558 73.1993 22.3352 73.2558 22.3033C73.3124 22.2713 73.3754 22.2507 73.4319 22.2188C73.4884 22.1868 73.5544 22.1495 73.6109 22.1175C73.7334 22.0482 73.8654 21.9736 73.9908 21.8875C74.1227 21.8129 74.2511 21.71 74.386 21.6187C74.5209 21.5273 74.6493 21.4244 74.7842 21.333C74.9126 21.2302 75.0475 21.1388 75.1759 21.036C75.3043 20.9332 75.4233 20.8357 75.5422 20.7382C75.7643 20.5371 75.977 20.3413 76.1519 20.1669C76.3334 20.0038 76.4771 19.8622 76.5737 19.7471C76.6173 19.6923 76.658 19.6542 76.6892 19.6214C76.7016 19.5993 76.7139 19.5772 76.7139 19.5772L76.7075 19.5658Z" fill="white"/>
</g>
<g clip-path="url(#clip14_426_6088)">
<path d="M73.7754 14.1351C72.9891 16.6001 70.0945 17.8926 70.0945 17.8926C70.0945 17.8926 68.4829 15.1627 69.2692 12.6977C70.0555 10.2327 72.9502 8.94018 72.9502 8.94018C72.9502 8.94018 74.5617 11.6701 73.7754 14.1351Z" fill="#1C211E" stroke="white"/>
<path d="M71.4437 12.9356C71.4821 13.5501 71.0452 16.6493 70.0971 17.8922L71.4437 12.9356Z" fill="#1C211E"/>
<path d="M71.443 12.9354C71.443 12.9354 71.4365 12.956 71.4391 12.9909C71.4259 13.0322 71.4345 13.0918 71.4148 13.1536C71.4096 13.2997 71.3721 13.5036 71.3248 13.7385C71.2899 13.9774 71.2294 14.2536 71.1498 14.5463C71.1163 14.6947 71.0702 14.8391 71.0334 14.9978C70.9966 15.1565 70.9505 15.3009 70.9011 15.4556C70.8518 15.6103 70.8025 15.765 70.7564 15.9094C70.6945 16.0602 70.6485 16.2045 70.5899 16.345C70.5313 16.4854 70.476 16.6154 70.424 16.7352C70.3918 16.7931 70.372 16.855 70.3398 16.9129C70.3075 16.9708 70.2786 17.0183 70.2463 17.0762C70.2173 17.1238 70.1884 17.1714 70.1719 17.223C70.1429 17.2705 70.1173 17.3078 70.0916 17.3451C70.0402 17.4196 70.0014 17.4981 69.9566 17.552C69.8796 17.6638 69.8348 17.7177 69.8348 17.7177L70.3896 18.0537C70.3896 18.0537 70.4409 17.9792 70.512 17.8428C70.5443 17.7849 70.5706 17.7024 70.6286 17.6072C70.6575 17.5597 70.674 17.5081 70.7029 17.4605C70.7194 17.409 70.7516 17.3511 70.7714 17.2892C70.7911 17.2273 70.8234 17.1694 70.8431 17.1075C70.8629 17.0456 70.8859 16.9734 70.9056 16.9116C70.9484 16.7775 70.9945 16.6331 71.028 16.4847C71.0741 16.3403 71.0984 16.1776 71.1352 16.0189C71.172 15.8602 71.1963 15.6975 71.2332 15.5388C71.2575 15.3761 71.2943 15.2174 71.3186 15.0547C71.343 14.892 71.364 14.7397 71.385 14.5873C71.4112 14.2888 71.4342 14.0007 71.444 13.7538C71.4663 13.511 71.4754 13.3093 71.4681 13.1593C71.4629 13.0894 71.4668 13.0339 71.4674 12.9886C71.4615 12.964 71.4556 12.9394 71.4556 12.9394L71.443 12.9354Z" fill="white"/>
</g>
<g clip-path="url(#clip15_426_6088)">
<path d="M62.4207 23.4443C60.7241 25.3981 57.554 25.4415 57.554 25.4415C57.554 25.4415 57.1525 22.2967 58.8491 20.3429C60.5457 18.3891 63.7158 18.3457 63.7158 18.3457C63.7158 18.3457 64.1173 21.4905 62.4207 23.4443Z" fill="#1C211E" stroke="white"/>
<path d="M60.7481 21.4203C60.5405 22 58.9142 24.6744 57.5519 25.4416L60.7481 21.4203Z" fill="#1C211E"/>
<path d="M60.7488 21.4202C60.7488 21.4202 60.7346 21.4366 60.7232 21.4697C60.6948 21.5024 60.6791 21.5605 60.6365 21.6096C60.574 21.7417 60.459 21.9143 60.3226 22.1113C60.1962 22.317 60.0315 22.5468 59.8427 22.7843C59.7532 22.9074 59.6538 23.0218 59.5573 23.1531C59.4607 23.2843 59.3613 23.3987 59.2548 23.5214C59.1483 23.644 59.0419 23.7666 58.9425 23.8811C58.8261 23.9951 58.7267 24.1095 58.6174 24.2154C58.5081 24.3212 58.4059 24.4188 58.3108 24.5083C58.2583 24.5488 58.2157 24.5978 58.1631 24.6383C58.1106 24.6787 58.0652 24.7109 58.0127 24.7514C57.9673 24.7836 57.9219 24.8159 57.8864 24.8568C57.841 24.889 57.8026 24.9131 57.7643 24.9372C57.6877 24.9854 57.621 25.0422 57.5586 25.074C57.4436 25.1462 57.3812 25.178 57.3812 25.178L57.758 25.706C57.758 25.706 57.8346 25.6578 57.9539 25.5606C58.0064 25.5202 58.0632 25.4548 58.154 25.3903C58.1994 25.358 58.2349 25.3171 58.2803 25.2849C58.3158 25.244 58.3683 25.2036 58.4109 25.1545C58.4535 25.1055 58.506 25.065 58.5486 25.016C58.5912 24.9669 58.6409 24.9097 58.6835 24.8607C58.7758 24.7544 58.8752 24.6399 58.9646 24.5169C59.064 24.4024 59.1506 24.2626 59.2472 24.1313C59.3438 24.0001 59.4304 23.8603 59.527 23.729C59.6136 23.5892 59.7102 23.4579 59.7968 23.3181C59.8835 23.1782 59.963 23.0465 60.0425 22.9149C60.1846 22.6511 60.3196 22.3954 60.4261 22.1725C60.5426 21.9582 60.6307 21.7766 60.6833 21.6359C60.7061 21.5696 60.7316 21.5201 60.7501 21.4788C60.7544 21.4538 60.7587 21.4289 60.7587 21.4289L60.7488 21.4202Z" fill="white"/>
</g>
<g clip-path="url(#clip16_426_6088)">
<path d="M62.5984 16.7202C60.9803 18.7393 57.8147 18.9077 57.8147 18.9077C57.8147 18.9077 57.2896 15.7812 58.9077 13.7621C60.5258 11.743 63.6914 11.5747 63.6914 11.5747C63.6914 11.5747 64.2166 14.7011 62.5984 16.7202Z" fill="#1C211E" stroke="white"/>
<path d="M60.847 14.7633C60.6625 15.3508 59.143 18.0872 57.8121 18.9074L60.847 14.7633Z" fill="#1C211E"/>
<path d="M60.847 14.7633C60.847 14.7633 60.8334 14.7802 60.8234 14.8137C60.7963 14.8475 60.7829 14.9062 60.7423 14.9569C60.6851 15.0914 60.5769 15.2683 60.4485 15.4706C60.3303 15.6811 60.1748 15.9172 59.9955 16.162C59.9109 16.2885 59.8161 16.4067 59.7248 16.5417C59.6335 16.6766 59.5387 16.7949 59.4372 16.9216C59.3356 17.0483 59.2341 17.1751 59.1393 17.2933C59.0275 17.4118 58.9327 17.5301 58.8277 17.6402C58.7226 17.7502 58.6244 17.8518 58.5329 17.945C58.482 17.9875 58.4414 18.0382 58.3905 18.0806C58.3396 18.1231 58.2955 18.1571 58.2446 18.1996C58.2005 18.2336 58.1564 18.2677 58.1226 18.3099C58.0785 18.3439 58.0411 18.3695 58.0038 18.3951C57.9291 18.4462 57.8647 18.5056 57.8036 18.5399C57.6916 18.6166 57.6305 18.6508 57.6305 18.6508L58.0278 19.1635C58.0278 19.1635 58.1025 19.1124 58.2177 19.0105C58.2686 18.9681 58.3228 18.9005 58.411 18.8324C58.4551 18.7984 58.4889 18.7562 58.5331 18.7221C58.5669 18.6799 58.6178 18.6374 58.6584 18.5867C58.699 18.536 58.7499 18.4936 58.7905 18.4429C58.8311 18.3922 58.8785 18.3331 58.9192 18.2824C59.0072 18.1725 59.102 18.0543 59.1865 17.9278C59.2813 17.8095 59.3623 17.6663 59.4536 17.5314C59.5449 17.3965 59.626 17.2533 59.7173 17.1184C59.7983 16.9752 59.8896 16.8403 59.9707 16.6971C60.0517 16.554 60.126 16.4193 60.2003 16.2845C60.3318 16.0154 60.4566 15.7546 60.5543 15.5277C60.6622 15.3089 60.7431 15.124 60.7901 14.9813C60.8102 14.9142 60.8338 14.8637 60.8507 14.8217C60.8539 14.7966 60.8572 14.7715 60.8572 14.7715L60.847 14.7633Z" fill="white"/>
</g>
<g clip-path="url(#clip17_426_6088)">
<path d="M62.5575 9.79303C61.0738 11.9129 57.9256 12.2865 57.9256 12.2865C57.9256 12.2865 57.1986 9.2008 58.6823 7.08089C60.166 4.96098 63.3142 4.58741 63.3142 4.58741C63.3142 4.58741 64.0412 7.67312 62.5575 9.79303Z" fill="#1C211E" stroke="white"/>
<path d="M60.6876 7.95397C60.5416 8.55215 59.2029 11.3814 57.928 12.2864L60.6876 7.95397Z" fill="#1C211E"/>
<path d="M60.6866 7.95448C60.6866 7.95448 60.6742 7.97222 60.6663 8.00636C60.6415 8.04184 60.632 8.10126 60.5948 8.15448C60.5463 8.29239 60.4499 8.47598 60.3349 8.68619C60.2306 8.90393 60.0907 9.14961 59.9276 9.4055C59.8515 9.53722 59.7646 9.6614 59.6822 9.80198C59.5999 9.94256 59.513 10.0667 59.4198 10.1998C59.3267 10.3328 59.2336 10.4659 59.1467 10.5901C59.0428 10.7156 58.9559 10.8398 58.8582 10.9564C58.7605 11.0731 58.6691 11.1808 58.5838 11.2797C58.5358 11.3254 58.4985 11.3786 58.4505 11.4243C58.4025 11.47 58.3607 11.5068 58.3127 11.5525C58.2709 11.5893 58.2291 11.6261 58.1981 11.6705C58.1562 11.7073 58.1207 11.7353 58.0851 11.7632C58.0139 11.8191 57.9534 11.8825 57.8947 11.9207C57.7879 12.0045 57.7291 12.0427 57.7291 12.0427L58.1589 12.5285C58.1589 12.5285 58.2301 12.4726 58.3385 12.3635C58.3865 12.3178 58.4362 12.2468 58.5198 12.1732C58.5616 12.1364 58.5926 12.092 58.6344 12.0552C58.6655 12.0108 58.7135 11.9652 58.7507 11.9119C58.788 11.8587 58.836 11.813 58.8733 11.7598C58.9105 11.7066 58.954 11.6445 58.9912 11.5913C59.0719 11.476 59.1588 11.3518 59.235 11.2201C59.3219 11.0959 59.3935 10.9478 59.4758 10.8072C59.5582 10.6666 59.6298 10.5185 59.7121 10.3779C59.7837 10.2298 59.8661 10.0892 59.9377 9.94111C60.0093 9.79299 60.0746 9.65375 60.14 9.5145C60.2538 9.23734 60.3614 8.96906 60.4442 8.73625C60.5377 8.51098 60.6064 8.32118 60.644 8.17574C60.6597 8.10745 60.68 8.05557 60.6941 8.01256C60.6957 7.98728 60.6974 7.96201 60.6974 7.96201L60.6866 7.95448Z" fill="white"/>
</g>
<path d="M57.7057 12.3498C56.1816 13.6899 55.2225 15.7921 54.6707 17.7104C54.3816 18.7089 54.2371 19.7468 54.1845 20.7848C54.1451 21.5863 54.0926 22.9133 54.7626 23.4914C54.8546 23.5702 55.0254 23.5571 55.1042 23.4782C55.1831 23.3994 55.2093 23.3206 55.1962 23.2417C55.1174 22.9133 54.9334 22.6242 54.8546 22.2958C54.7232 21.7571 54.7495 21.1658 54.7758 20.614C54.8152 19.6286 54.986 18.6432 55.2488 17.6841C55.7875 15.7527 56.8517 14.2286 57.9553 12.5994C58.0867 12.4286 57.8634 12.2184 57.7057 12.3498Z" fill="white"/>
<path d="M54.8823 19.4317C54.8035 18.5908 54.7247 17.75 54.6458 16.9091C54.567 16.0682 54.5013 15.2142 54.4356 14.3733C54.3962 13.8872 54.8035 12.6784 54.3042 12.4157L54.0283 12.3105C53.6342 12.5865 53.8312 13.5587 53.8575 13.966C53.9101 14.82 53.9758 15.6609 54.0414 16.5018C54.1071 17.3427 54.186 18.1835 54.2648 19.0244C54.3436 19.839 54.2911 21.6653 54.5144 22.4536C54.5933 22.7164 55.0006 22.7295 55.0137 22.4273C55.04 21.7573 54.948 20.1149 54.8823 19.4317Z" fill="white"/>
<path d="M55.1323 22.5469C54.9878 22.1659 54.7513 21.8112 54.5936 21.417C54.4097 20.9571 54.2783 20.4842 54.1075 20.0374C53.7921 19.1834 53.4111 18.3688 52.9513 17.5936C52.5177 16.871 52.0053 16.1878 51.3878 15.5966C51.0593 15.2812 50.4549 14.6112 49.9425 14.7951C49.8111 14.8477 49.8505 15.0316 49.9556 15.071C50.2578 15.2024 50.5732 15.5834 50.8228 15.8068C51.125 16.0827 51.3878 16.398 51.6505 16.7133C52.1629 17.3309 52.5571 18.0404 52.9119 18.763C53.2535 19.4462 53.5162 20.1688 53.7659 20.8915C53.9892 21.5615 54.1732 22.4155 54.7644 22.8623C54.9878 23.0199 55.2111 22.7703 55.1323 22.5469Z" fill="white"/>
<path d="M53.8444 27.0391C53.5422 25.5938 52.8722 24.2931 51.8868 23.2026C51.4269 22.6771 50.8094 22.3092 50.3758 21.7705C50.1656 21.4946 49.8109 21.6785 49.6138 21.3106C49.4693 21.0347 49.2065 20.9953 49.0225 20.7588C48.878 20.5749 48.6152 20.7719 48.6941 20.969C48.7992 21.2055 49.0225 21.2975 49.1408 21.534C49.2196 21.7048 49.2985 21.8625 49.4561 21.9807C49.6663 22.1252 49.8897 22.1252 50.0868 22.3486C50.3496 22.6508 50.7043 22.8873 50.9933 23.1632C52.1364 24.2274 52.8985 25.6464 53.2138 27.1705C53.3189 27.5384 53.9233 27.4333 53.8444 27.0391Z" fill="white"/>
<path d="M52.8845 31.2576C52.1881 30.6664 51.4918 30.062 50.7823 29.4839C50.1779 28.9715 49.5735 28.354 48.8509 28.0124C48.7327 27.9598 48.5881 28.1175 48.667 28.2226C49.0611 28.8401 49.7049 29.3131 50.2567 29.7993C51.0057 30.4562 51.7677 31.1131 52.5297 31.7701C52.8319 32.0197 53.1867 31.5073 52.8845 31.2576Z" fill="white"/>
<path d="M52.5306 40.3227C52.281 39.7972 52.2021 39.7184 51.716 39.4293C51.0459 39.022 50.4153 38.5753 49.7846 38.1286C49.2196 37.7213 48.6678 37.2746 48.1423 36.8279C47.6167 36.3811 46.3554 34.6863 46.3554 35.6322C46.4999 36.2235 47.0123 36.5914 47.4459 36.9724C47.9058 37.406 48.3919 37.8001 48.8912 38.1943C49.443 38.6279 50.008 39.0352 50.5861 39.4293C51.2036 39.8498 51.8868 40.1257 52.2153 40.822C52.3729 41.1768 52.7014 40.6775 52.5306 40.3227Z" fill="white"/>
<path d="M52.2554 44.6983C50.5605 44.1727 48.9051 43.6209 47.3021 42.8589C45.6598 42.0837 43.8861 41.0063 42.3883 40.0078C42.3226 39.9684 42.5853 39.9946 42.5197 40.0341C42.5459 40.0209 42.4277 40.0735 42.4145 40.0998C42.4145 40.126 42.4014 40.1392 42.4014 40.1654C42.362 40.2706 42.0335 40.3231 42.1255 40.3888C44.8058 42.7012 48.6291 44.4224 52.0715 45.2633C52.4131 45.3552 52.6233 44.8165 52.2554 44.6983Z" fill="white"/>
<path d="M61.7772 37.9175C58.7947 38.8109 57.1392 40.9 55.1027 43.081C54.8531 43.3438 55.221 43.7905 55.4706 43.5146C56.4823 42.424 57.0866 41.5306 58.1509 40.4927C59.202 39.4547 60.5815 38.9423 61.9348 38.3905C62.1845 38.2854 62.0399 37.8386 61.7772 37.9175Z" fill="white"/>
<path d="M69.1218 28.8136C68.9116 28.4589 68.5043 28.4852 68.1364 28.4326C67.4795 28.3275 66.8094 28.2487 66.1393 28.1961C65.8372 28.1699 63.5642 28.0385 64.208 28.9188C64.2737 28.9976 64.3788 29.037 64.4707 29.0107C64.6284 28.9844 65.1277 28.7611 65.1802 28.6428C65.4824 28.6428 65.9029 28.7348 66.0999 28.7348C66.5204 28.7611 66.9408 28.8005 67.3481 28.8268C67.8605 28.8662 68.3992 29.51 69.1218 28.8268C69.1218 28.8268 69.135 28.8268 69.1218 28.8136Z" fill="white"/>
<path d="M72.3571 21.5601C71.8972 21.8755 71.4242 22.1776 70.9381 22.4536C70.5308 22.6901 70.0841 22.8871 69.7162 23.1762C69.5323 23.3207 69.6768 23.6623 69.9133 23.5966C70.8987 23.2944 71.8447 22.5193 72.6724 21.9149C72.922 21.7309 72.6198 21.3893 72.3571 21.5601Z" fill="white"/>
<path d="M57.1527 33.2801C56.1936 33.6742 55.4053 34.5545 54.8797 35.4217C54.814 35.5268 54.814 35.6582 54.8928 35.7501C54.9454 35.8158 54.9848 35.829 55.0768 35.8421C55.1688 35.8553 55.2739 35.8027 55.3133 35.7239C55.8388 34.8173 56.5352 34.2261 57.3629 33.6085C57.56 33.464 57.3498 33.2012 57.1527 33.2801Z" fill="white"/>
<path d="M57.5494 25.0684C57.0764 25.0815 56.2618 25.5808 55.9464 25.9355C55.5391 26.4085 55.1713 26.9866 54.8822 27.5384C54.7377 27.8143 55.0793 28.0771 55.2895 27.8143C55.8676 27.0917 56.7479 25.7384 57.7859 25.5808C58.0355 25.5414 57.8121 25.0684 57.5494 25.0684Z" fill="white"/>
<path d="M57.64 18.6965C55.1831 18.9724 54.9072 21.3111 54.6181 22.3884C54.5393 22.7038 55.0123 22.8746 55.0911 22.5592C55.2225 22.0731 55.6167 20.26 55.9846 19.9184C56.405 19.5242 57.4955 19.314 58.0211 19.1695C58.2181 19.1038 57.8634 18.6702 57.64 18.6965Z" fill="white"/>
<path d="M69.3219 18.0913C68.7175 18.3673 67.8241 19.287 67.4168 19.7994C67.1934 20.0753 68.0211 19.9702 68.2313 19.6943C68.6255 19.2081 69.0591 18.8271 69.5189 18.4067C69.6897 18.2621 69.5189 17.9994 69.3219 18.0913Z" fill="white"/>
<path d="M69.94 17.7905C69.7823 17.7774 69.6772 17.8562 69.5327 17.9482C69.3882 18.0401 69.2436 18.1321 69.1123 18.2241C68.9283 18.3686 69.1254 18.6182 69.3225 18.5394C69.467 18.4869 69.5984 18.4212 69.7429 18.3555C69.8743 18.2898 70.0188 18.2372 70.0977 18.1058C70.1634 17.9876 70.1108 17.8036 69.94 17.7905Z" fill="white"/>
<path d="M42.3198 27.4604C41.8862 26.8823 41.2161 26.4618 40.7563 25.8837C40.2176 25.2137 39.8103 24.4516 39.5081 23.6501C39.2453 22.9538 39.1665 22.2574 38.6803 21.6662C38.3387 21.2458 38.1942 20.7071 37.9971 20.2078C37.8 19.6823 37.7212 18.9334 37.8 18.3684C37.8395 18.1056 37.2482 18.0268 37.1694 18.2764C36.9198 19.091 37.3796 20.1815 37.6555 20.9436C37.8526 21.4954 38.1285 21.8501 38.4307 22.3494C38.6803 22.7436 38.7329 23.2823 38.8774 23.729C39.1796 24.5961 39.6 25.3845 40.1387 26.1334C40.5986 26.7509 41.2818 27.6049 42.0176 27.8808C42.2803 27.9728 42.4643 27.6574 42.3198 27.4604Z" fill="white"/>
<path d="M41.2415 28.3536C41.097 27.5915 40.1773 27.6047 39.6255 27.2893C38.824 26.8295 38.3116 25.9098 37.6284 25.2923C36.9189 24.6616 36.1306 24.1623 35.2503 23.8076C34.7248 23.5842 34.3437 23.3215 33.9759 22.8879C33.6999 22.5726 33.7131 21.7974 33.3452 21.574C33.227 21.5083 33.0561 21.5872 33.0956 21.7448C33.2664 22.3886 33.6605 23.4134 34.1467 23.8601C34.4488 24.1361 34.8693 24.2806 35.2372 24.4514C35.7233 24.6747 36.1832 24.9638 36.6167 25.2791C37.3919 25.8309 37.9306 26.593 38.5875 27.2762C38.8503 27.5521 39.1525 27.8018 39.4941 27.9726C39.8488 28.1434 40.8868 28.6164 41.0576 29.0105C41.2021 29.2996 41.2941 28.682 41.2415 28.3536Z" fill="white"/>
<path d="M44.2933 34.4633C42.8481 34.345 41.4422 34.0691 40.0889 33.5961C39.432 33.3728 38.8013 33.0837 38.1838 32.7815C37.8554 32.6239 37.5532 32.2297 37.2904 31.9801C37.1065 31.7961 37.0802 31.8093 36.87 31.6647C36.8043 31.6253 36.7254 31.6385 36.686 31.7042C36.6466 31.7567 36.6072 31.8224 36.5546 31.875C36.5546 31.8881 36.5546 31.8881 36.5678 31.8881C36.594 31.8881 36.6072 31.8881 36.6335 31.8881C36.5283 32.8604 38.6437 33.6093 39.2612 33.8852C40.8378 34.5684 42.5459 34.9626 44.267 35.0939C44.6481 35.1071 44.6875 34.4896 44.2933 34.4633Z" fill="white"/>
<path d="M46.6575 52.7772C47.9419 52.7772 48.9831 49.9537 48.9831 46.4706C48.9831 42.9876 47.9419 40.1641 46.6575 40.1641C45.3732 40.1641 44.332 42.9876 44.332 46.4706C44.332 49.9537 45.3732 52.7772 46.6575 52.7772Z" stroke="white"/>
<path d="M59.1497 50.4784C60.4341 50.4784 61.4753 47.6548 61.4753 44.1718C61.4753 40.6888 60.4341 37.8652 59.1497 37.8652C57.8653 37.8652 56.8242 40.6888 56.8242 44.1718C56.8242 47.6548 57.8653 50.4784 59.1497 50.4784Z" stroke="white"/>
<path d="M45.0917 43.3448C44.9735 43.2003 44.7633 43.082 44.5662 43.082C44.356 43.082 44.172 43.1214 44.0144 43.266C43.8567 43.3974 43.7647 43.5944 43.7516 43.7915C43.7385 43.9886 43.8041 44.1857 43.9355 44.3433C44.0538 44.4879 44.264 44.6061 44.4611 44.6061C44.6713 44.6061 44.8552 44.5667 45.0129 44.4222C45.1706 44.2908 45.2625 44.0937 45.2757 43.8966C45.2757 43.6996 45.2231 43.5025 45.0917 43.3448Z" fill="white"/>
<path d="M45.2361 45.4863C45.1573 45.171 44.9733 44.9345 44.658 44.8031C44.5266 44.7505 44.3427 44.7374 44.1982 44.7768C44.1193 44.79 44.0536 44.8162 43.9879 44.8425C43.804 44.9476 43.7909 44.9739 43.6595 45.1184C43.5675 45.2367 43.5281 45.3812 43.5149 45.5257C43.5018 45.6703 43.5281 45.8016 43.5938 45.933C43.6595 46.0644 43.7514 46.1695 43.8697 46.2484C43.8828 46.2615 43.896 46.2746 43.9222 46.2746C44.1062 46.406 44.3558 46.4717 44.5792 46.4323C45.0128 46.3797 45.3412 45.933 45.2361 45.4863Z" fill="white"/>
<path d="M44.3584 47.418C43.7803 47.418 43.7146 48.3114 44.2927 48.3114C44.8708 48.3114 44.9365 47.418 44.3584 47.418Z" fill="white"/>
<path d="M44.6339 49.2832C44.4763 49.2832 44.3317 49.3226 44.2003 49.4277C44.0821 49.5328 44.0033 49.6774 43.9901 49.8482C43.9638 50.1635 44.2135 50.492 44.5419 50.492C44.6996 50.492 44.8441 50.4525 44.9755 50.3474C45.0938 50.2423 45.1726 50.0978 45.1857 49.927C45.212 49.6117 44.9624 49.2832 44.6339 49.2832Z" fill="white"/>
<path d="M44.8833 47.6797C44.7519 47.522 44.5154 47.3906 44.3052 47.3906C44.0818 47.3906 43.8847 47.4432 43.7008 47.5877C43.53 47.7322 43.4249 47.9424 43.4117 48.1658C43.3986 48.376 43.4643 48.5994 43.6088 48.7702C43.7402 48.9279 43.9767 49.0592 44.1869 49.0592C44.4103 49.0592 44.6074 49.0067 44.7913 48.8622C44.9621 48.7176 45.0672 48.5074 45.0804 48.2841C45.0935 48.0607 45.0278 47.8373 44.8833 47.6797Z" fill="white"/>
<path d="M45.8561 51.3066C45.1992 51.3066 45.1203 52.3183 45.7904 52.3183C46.4342 52.3183 46.513 51.3066 45.8561 51.3066Z" fill="white"/>
<path d="M47.4299 51.7137C47.4167 51.7137 47.4036 51.7006 47.3904 51.7006C46.9175 51.5166 46.3919 51.8845 46.3525 52.3706C46.3394 52.6466 46.4576 52.9093 46.681 53.067C46.7992 53.1458 46.9306 53.1984 47.0751 53.1984C47.2065 53.2115 47.3379 53.1852 47.4693 53.1195C47.4824 53.1195 47.4956 53.1064 47.5087 53.1064C47.7583 53.0144 47.916 52.7254 47.9423 52.4757C47.9554 52.1341 47.7452 51.832 47.4299 51.7137Z" fill="white"/>
<path d="M48.6397 50.7019C48.5346 50.5836 48.3637 50.4785 48.1929 50.4785C48.0221 50.4785 47.8645 50.5179 47.7331 50.623C47.6017 50.7281 47.5229 50.899 47.5097 51.0698C47.4966 51.2406 47.5492 51.3982 47.6543 51.5296C47.7594 51.6479 47.9302 51.753 48.101 51.753C48.2718 51.753 48.4294 51.7135 48.5608 51.6084C48.6922 51.5033 48.771 51.3325 48.7842 51.1617C48.7973 50.9909 48.7448 50.8333 48.6397 50.7019Z" fill="white"/>
<path d="M49.1915 48.9538C49.0864 48.8356 48.9156 48.7305 48.7579 48.7305C48.5871 48.7305 48.4426 48.7699 48.3112 48.875C48.1798 48.9801 48.101 49.1378 48.0879 49.3086C48.0747 49.4662 48.1273 49.637 48.2324 49.7553C48.3375 49.8735 48.5083 49.9786 48.666 49.9786C48.8368 49.9786 48.9813 49.9392 49.1127 49.8341C49.2441 49.729 49.3229 49.5713 49.336 49.4005C49.3492 49.2429 49.2966 49.0721 49.1915 48.9538Z" fill="white"/>
<path d="M49.0221 46.3262C48.0498 46.3262 47.9447 47.8371 48.917 47.8371C49.8893 47.8371 50.0075 46.3262 49.0221 46.3262Z" fill="white"/>
<path d="M49.0857 44.9473C48.928 44.9473 48.7835 45.0524 48.7704 45.2232C48.7572 45.3808 48.8886 45.5385 49.0463 45.5385C49.204 45.5385 49.3485 45.4334 49.3616 45.2626C49.3616 45.1049 49.2434 44.9473 49.0857 44.9473Z" fill="white"/>
<path d="M49.2583 42.4518C49.2189 42.3862 49.1794 42.3336 49.14 42.281C49.0481 42.1759 48.943 42.0971 48.8116 42.0577C48.6276 41.992 48.4174 42.0051 48.2335 42.084C48.1152 42.1365 48.0101 42.2285 47.9313 42.3336C47.8262 42.4913 47.7473 42.7278 47.813 42.9117C47.8656 43.0825 47.8787 43.1219 47.9838 43.2796C48.0232 43.3453 48.0758 43.3847 48.1415 43.4241C48.3123 43.5292 48.5094 43.5818 48.7065 43.5424C48.9035 43.5029 49.0612 43.3978 49.1794 43.2402C49.2583 43.1351 49.324 42.9643 49.324 42.8329C49.3371 42.7015 49.3108 42.5701 49.2583 42.4518Z" fill="white"/>
<path d="M47.2611 39.6003C47.156 39.4821 46.9852 39.377 46.8275 39.377H46.7618C46.591 39.377 46.4465 39.4164 46.3151 39.5215C46.1837 39.6266 46.1049 39.7843 46.0918 39.9551C46.0786 40.1127 46.1312 40.2835 46.2363 40.4018C46.3414 40.52 46.5122 40.6251 46.6699 40.6251H46.7356C46.9064 40.6251 47.0509 40.5857 47.1823 40.4806C47.3137 40.3755 47.3925 40.2178 47.4056 40.047C47.4188 39.8894 47.3662 39.7317 47.2611 39.6003Z" fill="white"/>
<path d="M45.6702 41.5969C45.6571 41.5312 45.6439 41.4524 45.6045 41.3867C45.5257 41.2159 45.3811 41.0845 45.1972 41.0188C44.895 40.9137 44.5534 41.0188 44.3826 41.2816C44.1987 41.5443 44.2118 41.8991 44.422 42.1487C44.5009 42.2407 44.606 42.3195 44.7242 42.3589C44.8819 42.4115 45.1052 42.4246 45.2629 42.3327C45.3811 42.267 45.46 42.2144 45.5388 42.0962C45.6571 41.9516 45.7096 41.7677 45.6702 41.5969Z" fill="white"/>
<path d="M49.3378 44.7637L49.3247 44.7505C49.167 44.6191 48.9043 44.606 48.7203 44.698C48.7072 44.7111 48.6809 44.7111 48.6678 44.7242C48.4838 44.8162 48.3656 44.987 48.3393 45.1972C48.3262 45.3023 48.3524 45.3943 48.3918 45.4863C48.4575 45.6308 48.5758 45.7096 48.7203 45.7753C48.7335 45.7885 48.7597 45.7885 48.7729 45.8016C48.9568 45.8936 49.2064 45.8148 49.3641 45.6965L49.3772 45.6834C49.4955 45.5783 49.5743 45.4337 49.5875 45.2761C49.6006 45.0659 49.5086 44.8951 49.3378 44.7637Z" fill="white"/>
<path d="M57.6816 43.0421C57.5633 42.8975 57.3531 42.7793 57.156 42.7793C56.9458 42.7793 56.7619 42.8187 56.6042 42.9632C56.4465 43.0946 56.3546 43.2917 56.3414 43.4888C56.3283 43.6859 56.394 43.8829 56.5254 44.0406C56.6436 44.1851 56.8538 44.3034 57.0509 44.3034C57.2611 44.3034 57.4451 44.264 57.6027 44.1194C57.7604 43.9881 57.8524 43.791 57.8655 43.5939C57.8787 43.3968 57.813 43.1997 57.6816 43.0421Z" fill="white"/>
<path d="M56.943 46.3262C56.8773 46.3262 56.8642 46.4313 56.9298 46.4313C57.0087 46.4313 57.0087 46.3262 56.943 46.3262Z" fill="white"/>
<path d="M57.9413 46.1957C57.7048 46.0249 57.3763 45.9986 57.1135 46.13C56.8508 46.2614 56.6668 46.5241 56.6537 46.8132C56.6406 47.0497 56.7194 47.273 56.8771 47.4307C56.9033 47.457 56.9296 47.4833 56.9559 47.5095C56.9559 47.5095 56.9559 47.5095 56.969 47.5227C56.9822 47.5358 56.9953 47.5489 57.0084 47.5621C57.2449 47.7329 57.5471 47.746 57.8099 47.6278C58.0727 47.5095 58.2698 47.2205 58.2829 46.9314C58.296 46.6424 58.1778 46.3665 57.9413 46.1957Z" fill="white"/>
<path d="M57.5606 48.6523C57.5474 48.6523 57.5474 48.6655 57.5606 48.6523V48.6523Z" fill="white"/>
<path d="M58.3513 48.3629C58.2331 48.2315 58.0491 48.1133 57.8652 48.1133C57.6813 48.1133 57.5105 48.1527 57.3528 48.2841C57.2083 48.4023 57.1163 48.5863 57.1032 48.7702C57.09 48.9542 57.1557 49.1381 57.274 49.2826C57.3922 49.414 57.5762 49.5323 57.7601 49.5323C57.944 49.5323 58.1148 49.4928 58.2725 49.3615C58.417 49.2432 58.509 49.0593 58.5221 48.8753C58.5221 48.6914 58.4696 48.5074 58.3513 48.3629Z" fill="white"/>
<path d="M58.6008 50.1895C58.5614 50.1895 58.5351 50.1895 58.4957 50.1895C58.4431 50.2026 58.3906 50.2551 58.3906 50.3077C58.3906 50.3865 58.4431 50.4259 58.5088 50.4391C58.5482 50.4391 58.5745 50.4522 58.6139 50.4391C58.6665 50.4259 58.719 50.3734 58.719 50.3208C58.719 50.2551 58.6665 50.2026 58.6008 50.1895Z" fill="white"/>
<path d="M59.5584 49.8091C59.427 49.6515 59.2167 49.5332 59.0065 49.5332C58.7963 49.5332 58.5992 49.5726 58.4416 49.7171C58.2839 49.8485 58.1788 50.0588 58.1657 50.269C58.1525 50.4792 58.2182 50.6763 58.3496 50.8339C58.481 50.9916 58.6912 51.1098 58.9014 51.1098C59.1116 51.1098 59.3087 51.0704 59.4664 50.9259C59.624 50.7945 59.7292 50.5843 59.7423 50.3741C59.7554 50.1639 59.6897 49.9668 59.5584 49.8091Z" fill="white"/>
<path d="M60.1379 49.0468C60.1247 49.0468 60.1247 49.0468 60.1116 49.0337C59.9933 48.9811 59.8357 49.0206 59.7437 49.0994C59.6123 49.2176 59.586 49.3884 59.6517 49.5461C59.6517 49.5592 59.6517 49.5592 59.6649 49.5724C59.7569 49.8089 60.0853 49.8614 60.2693 49.7038C60.4926 49.5067 60.4138 49.1519 60.1379 49.0468Z" fill="white"/>
<path d="M61.0945 46.8652C60.9368 46.8652 60.8055 46.8915 60.6872 46.9966C60.569 47.0886 60.5033 47.2331 60.4901 47.3908C60.4638 47.6798 60.7135 47.9952 61.0157 47.9952C61.1733 47.9952 61.3047 47.9689 61.423 47.8638C61.5412 47.7718 61.6069 47.6273 61.62 47.4696C61.6463 47.1806 61.4098 46.8652 61.0945 46.8652Z" fill="white"/>
<path d="M61.2785 45.5264C61.2654 45.5264 61.2522 45.5395 61.2391 45.5395C61.1077 45.5526 60.9895 45.6972 61.0683 45.8417C61.1077 45.9205 61.1603 45.9468 61.2259 45.9862C61.3311 46.0388 61.4493 45.9731 61.515 45.8942C61.6464 45.7366 61.4624 45.4738 61.2785 45.5264Z" fill="white"/>
<path d="M61.3319 44.2637C61.2005 44.2637 61.1873 44.4608 61.3187 44.4608C61.437 44.4608 61.4501 44.2637 61.3319 44.2637Z" fill="white"/>
<path d="M61.1487 42.043C61.0962 42.043 61.0962 42.1218 61.1487 42.1218C61.2013 42.1218 61.2013 42.043 61.1487 42.043Z" fill="white"/>
<path d="M61.7771 43.9098C61.6589 43.7784 61.4749 43.6602 61.291 43.6602C61.107 43.6602 60.9362 43.6996 60.7786 43.831C60.6341 43.9492 60.5421 44.1331 60.5289 44.3171C60.5158 44.501 60.5815 44.685 60.6997 44.8295C60.818 44.9609 61.0019 45.0791 61.1859 45.0791C61.3698 45.0791 61.5406 45.0397 61.6983 44.9083C61.8428 44.7901 61.9348 44.6061 61.9479 44.4222C61.9479 44.2383 61.8954 44.0543 61.7771 43.9098Z" fill="white"/>
<path d="M61.6205 42.1498C61.4891 41.9922 61.2526 41.8477 61.0292 41.8477C60.8059 41.8477 60.5957 41.9002 60.4249 42.0447C60.2541 42.1893 60.149 42.3995 60.1227 42.636C60.1095 42.8593 60.1752 43.0696 60.3198 43.2404C60.4511 43.398 60.6876 43.5425 60.911 43.5425C61.1344 43.5425 61.3446 43.49 61.5154 43.3455C61.6862 43.2009 61.7913 42.9907 61.8176 42.7542C61.8307 42.544 61.765 42.3206 61.6205 42.1498Z" fill="white"/>
<path d="M61.2014 40.2697C61.0963 40.1383 60.9124 40.0332 60.7284 40.0332C60.5445 40.0332 60.3868 40.0726 60.2423 40.1909C60.0978 40.3091 60.019 40.4799 60.0058 40.6639C59.9927 40.8347 60.0452 41.0186 60.1635 41.15C60.2686 41.2814 60.4525 41.3865 60.6365 41.3865C60.8204 41.3865 60.9781 41.3471 61.1226 41.2288C61.2671 41.1106 61.346 40.9398 61.3591 40.7558C61.3722 40.5719 61.3197 40.4011 61.2014 40.2697Z" fill="white"/>
<path d="M60.057 38.2207C59.1373 38.2207 59.0322 39.6528 59.9519 39.6528C60.8716 39.6528 60.9899 38.2207 60.057 38.2207Z" fill="white"/>
<path d="M59.2439 37.5905C58.9811 37.4066 58.6658 37.446 58.4293 37.6299C58.2847 37.735 58.1796 37.9453 58.1796 38.1161C58.1796 38.2869 58.219 38.4314 58.3242 38.5628C58.3636 38.6022 58.403 38.6416 58.4424 38.6679C58.5475 38.7467 58.6789 38.8124 58.8103 38.8124C59.1125 38.8387 59.3884 38.6548 59.4935 38.3657C59.5855 38.0898 59.4804 37.7613 59.2439 37.5905Z" fill="white"/>
<path d="M58.0091 39.0214C57.8646 38.9163 57.6413 38.89 57.4704 38.982C57.4573 38.9951 57.4442 38.9951 57.431 39.0083C57.2734 39.1003 57.1551 39.2316 57.142 39.4287C57.1288 39.5995 57.2077 39.7966 57.3522 39.8754C57.3653 39.8886 57.3785 39.8886 57.3916 39.9017C57.5624 39.9937 57.7464 40.0331 57.9303 39.9411C58.1011 39.8623 58.2194 39.6915 58.2325 39.4944C58.2456 39.3105 58.1668 39.1265 58.0091 39.0214Z" fill="white"/>
<path d="M57.601 40.3349C57.4696 40.1773 57.2725 40.1247 57.0754 40.151C57.0623 40.151 57.0491 40.151 57.0229 40.151C56.7864 40.1773 56.6024 40.4138 56.5762 40.6503C56.563 40.7948 56.6156 40.9393 56.7075 41.0444C56.8127 41.1627 56.9309 41.2152 57.0886 41.2415C57.1017 41.2415 57.128 41.2415 57.1411 41.2546C57.4433 41.294 57.7061 41.0313 57.7324 40.7422C57.7455 40.5846 57.6929 40.44 57.601 40.3349Z" fill="white"/>
<path d="M57.3524 41.5835C57.2867 41.5572 57.221 41.531 57.1421 41.531C56.9713 41.5178 56.8399 41.5835 56.7086 41.6886C56.6035 41.7675 56.5378 41.9251 56.5246 42.0565C56.5115 42.2405 56.6035 42.4244 56.748 42.5295C56.8399 42.5952 56.9451 42.6478 57.0633 42.6478C57.1816 42.6609 57.2998 42.6215 57.4049 42.5689C57.5757 42.4901 57.694 42.3193 57.7071 42.1353C57.7202 41.8726 57.5757 41.6886 57.3524 41.5835Z" fill="white"/>
<path d="M57.1661 44.5801C56.3121 44.5801 56.207 45.9071 57.0742 45.9071C57.9282 45.9071 58.0333 44.5801 57.1661 44.5801Z" fill="white"/>
<path d="M60.2299 48.6007C60.0065 48.5876 59.7963 48.6927 59.6649 48.8635C59.5335 49.0606 59.5335 49.2839 59.6123 49.4941C59.6123 49.4941 59.6123 49.5073 59.6255 49.5073C59.7043 49.7044 59.9408 49.8489 60.1379 49.862C60.4138 49.8883 60.6634 49.7044 60.7685 49.4547C60.7685 49.4547 60.7685 49.4416 60.7817 49.4416C60.9262 49.0474 60.624 48.627 60.2299 48.6007Z" fill="white"/>
<path d="M61.4653 46.8137C61.2683 46.5772 60.9267 46.4983 60.6507 46.6429C60.5456 46.6954 60.4537 46.7742 60.388 46.8662C60.2829 47.0239 60.2566 47.1947 60.2829 47.3918V47.4049C60.3091 47.6283 60.5062 47.8385 60.7164 47.9042H60.7296C61.0186 47.9961 61.3471 47.9042 61.5179 47.6545C61.6756 47.3918 61.6624 47.0501 61.4653 46.8137Z" fill="white"/>
<path d="M61.8327 45.5131C61.7144 45.3817 61.5436 45.2898 61.3728 45.2766C60.9392 45.2504 60.5845 45.6445 60.6633 46.0781C60.7027 46.2752 60.7947 46.4328 60.9524 46.5511C61.0443 46.6168 61.1626 46.6562 61.2808 46.6693C61.4648 46.6825 61.6093 46.6168 61.7407 46.5117C61.8327 46.446 61.9115 46.3277 61.9509 46.2226C61.9772 46.1569 61.9772 46.0781 61.9903 45.9993C62.0297 45.8285 61.9378 45.6314 61.8327 45.5131Z" fill="white"/>
<path d="M48.0344 41.0328C48.0212 41.0328 48.0081 41.0459 47.995 41.0459C47.903 41.0853 47.8504 41.1773 47.8373 41.2824C47.8242 41.4138 47.903 41.5189 48.0212 41.5583C48.0344 41.5583 48.0475 41.5715 48.0607 41.5715C48.2446 41.6503 48.4417 41.4926 48.4548 41.3087C48.468 41.0853 48.2315 40.954 48.0344 41.0328Z" fill="white"/>
<path d="M48.2604 40.6914C48.1291 40.6914 48.0108 40.7177 47.9057 40.8097C47.8006 40.9016 47.7349 41.0199 47.7349 41.1513C47.7218 41.414 47.932 41.6899 48.1948 41.6899C48.3261 41.6899 48.4444 41.6637 48.5495 41.5717C48.6546 41.4797 48.7203 41.3615 48.7203 41.2301C48.7466 40.9673 48.5364 40.6914 48.2604 40.6914Z" fill="white"/>
<path d="M45.6585 50.7418C45.5403 50.6104 45.3563 50.4922 45.1724 50.4922C44.9884 50.4922 44.8176 50.5316 44.6731 50.663C44.5286 50.7812 44.4366 50.9652 44.4235 51.1491C44.4103 51.3331 44.476 51.517 44.5943 51.6484C44.7125 51.7798 44.8965 51.898 45.0804 51.898C45.2643 51.898 45.4352 51.8586 45.5797 51.7272C45.7242 51.609 45.8162 51.425 45.8293 51.2411C45.8293 51.0703 45.7768 50.8864 45.6585 50.7418Z" fill="white"/>
<path d="M45.4995 52.1602C45.263 52.1602 45.0528 52.3178 45.0397 52.5543C45.0265 52.7777 45.2105 53.0142 45.4338 53.0142C45.6703 53.0142 45.8805 52.8565 45.8937 52.62C45.92 52.3967 45.736 52.1602 45.4995 52.1602Z" fill="white"/>
<defs>
<clipPath id="clip0_426_6088">
<rect width="5.38686" height="12.3635" fill="white" transform="matrix(1 0 0 -1 51.3828 13.1445)"/>
</clipPath>
<clipPath id="clip1_426_6088">
<rect width="5.38698" height="10.1876" fill="white" transform="matrix(0.630386 -0.776282 -0.776326 -0.630332 40.8515 42.5938)"/>
</clipPath>
<clipPath id="clip2_426_6088">
<rect width="5.38698" height="10.1876" fill="white" transform="matrix(0.630386 -0.776282 -0.776326 -0.630332 35.5078 34.0098)"/>
</clipPath>
<clipPath id="clip3_426_6088">
<rect width="5.38669" height="10.1877" fill="white" transform="matrix(0.845726 -0.533617 -0.533605 -0.845734 44.4648 37.3281)"/>
</clipPath>
<clipPath id="clip4_426_6088">
<rect width="5.38718" height="10.1872" fill="white" transform="matrix(0.865349 -0.50117 -0.501228 -0.865315 31.1054 23.3398)"/>
</clipPath>
<clipPath id="clip5_426_6088">
<rect width="5.38671" height="10.1879" fill="white" transform="matrix(0.968527 -0.248907 -0.248898 -0.96853 35.0624 19.2188)"/>
</clipPath>
<clipPath id="clip6_426_6088">
<rect width="5.38718" height="10.1881" fill="white" transform="matrix(0.755055 -0.655661 -0.655665 -0.755052 47.207 30.3359)"/>
</clipPath>
<clipPath id="clip7_426_6088">
<rect width="5.38667" height="10.1879" fill="white" transform="matrix(0.825829 -0.56392 -0.563935 -0.825819 46.8906 22.4824)"/>
</clipPath>
<clipPath id="clip8_426_6088">
<rect width="5.38691" height="10.1877" fill="white" transform="matrix(0.909092 -0.416596 -0.416617 -0.909082 47.7343 16.248)"/>
</clipPath>
<clipPath id="clip9_426_6088">
<rect width="5.38715" height="11.2846" fill="white" transform="matrix(-0.256486 -0.966548 0.966549 -0.256483 68.8867 31.6875)"/>
</clipPath>
<clipPath id="clip10_426_6088">
<rect width="5.38698" height="10.1876" fill="white" transform="matrix(-0.630386 -0.776282 0.776326 -0.630332 63.1679 40.6152)"/>
</clipPath>
<clipPath id="clip11_426_6088">
<rect width="5.38698" height="10.1877" fill="white" transform="matrix(-0.789083 -0.614287 0.61431 -0.789065 66.1796 28.7793)"/>
</clipPath>
<clipPath id="clip12_426_6088">
<rect width="5.3867" height="10.1868" fill="white" transform="matrix(-0.693121 -0.720822 0.720807 -0.693135 59.0937 35.6973)"/>
</clipPath>
<clipPath id="clip13_426_6088">
<rect width="5.38701" height="10.1875" fill="white" transform="matrix(-0.492387 -0.870377 0.870393 -0.492357 73.3398 24.8223)"/>
</clipPath>
<clipPath id="clip14_426_6088">
<rect width="5.38684" height="10.1871" fill="white" transform="matrix(-0.952704 -0.303901 0.303895 -0.952706 72.5429 19.082)"/>
</clipPath>
<clipPath id="clip15_426_6088">
<rect width="5.38718" height="10.1881" fill="white" transform="matrix(-0.755055 -0.655661 0.655665 -0.755052 59.332 27.502)"/>
</clipPath>
<clipPath id="clip16_426_6088">
<rect width="5.38684" height="10.1876" fill="white" transform="matrix(-0.780303 -0.625402 0.625361 -0.780336 59.6718 20.8965)"/>
</clipPath>
<clipPath id="clip17_426_6088">
<rect width="5.38697" height="10.1878" fill="white" transform="matrix(-0.819284 -0.573389 0.573405 -0.819272 59.9101 14.1504)"/>
</clipPath>
</defs>
</svg>
