<svg width="48" height="48" viewBox="0 0 48 48" fill="none" xmlns="http://www.w3.org/2000/svg">
<rect width="48" height="48" rx="24" fill="#85BC31"/>
<mask id="mask0_725_20685" style="mask-type:alpha" maskUnits="userSpaceOnUse" x="8" y="8" width="32" height="32">
<rect x="8" y="8" width="32" height="32" fill="#D9D9D9"/>
</mask>
<g mask="url(#mask0_725_20685)">
<path d="M15.9999 37.3332C15.2666 37.3332 14.6388 37.0721 14.1166 36.5498C13.5944 36.0276 13.3333 35.3998 13.3333 34.6665V13.3332C13.3333 12.5998 13.5944 11.9721 14.1166 11.4498C14.6388 10.9276 15.2666 10.6665 15.9999 10.6665H31.9999C32.7333 10.6665 33.361 10.9276 33.8833 11.4498C34.4055 11.9721 34.6666 12.5998 34.6666 13.3332V34.6665C34.6666 35.3998 34.4055 36.0276 33.8833 36.5498C33.361 37.0721 32.7333 37.3332 31.9999 37.3332H15.9999ZM15.9999 34.6665H31.9999V13.3332H15.9999V34.6665ZM18.6666 31.9998H29.3333V29.3332H18.6666V31.9998ZM23.9999 26.6665C25.4666 26.6665 26.7221 26.1443 27.7666 25.0998C28.811 24.0554 29.3333 22.7998 29.3333 21.3332C29.3333 19.8665 28.811 18.6109 27.7666 17.5665C26.7221 16.5221 25.4666 15.9998 23.9999 15.9998C22.5333 15.9998 21.2777 16.5221 20.2333 17.5665C19.1888 18.6109 18.6666 19.8665 18.6666 21.3332C18.6666 22.7998 19.1888 24.0554 20.2333 25.0998C21.2777 26.1443 22.5333 26.6665 23.9999 26.6665ZM23.9999 22.6665C23.6221 22.6665 23.3055 22.5387 23.0499 22.2832C22.7944 22.0276 22.6666 21.7109 22.6666 21.3332C22.6666 20.9554 22.7944 20.6387 23.0499 20.3832C23.3055 20.1276 23.6221 19.9998 23.9999 19.9998C24.3777 19.9998 24.6944 20.1276 24.9499 20.3832C25.2055 20.6387 25.3333 20.9554 25.3333 21.3332C25.3333 21.7109 25.2055 22.0276 24.9499 22.2832C24.6944 22.5387 24.3777 22.6665 23.9999 22.6665Z" fill="white"/>
</g>
</svg>
