<svg width="32" height="32" viewBox="0 0 32 32" fill="none" xmlns="http://www.w3.org/2000/svg">
<rect width="32" height="32" rx="16" fill="#85BC31"/>
<mask id="mask0_1801_504" style="mask-type:alpha" maskUnits="userSpaceOnUse" x="6" y="6" width="20" height="20">
<rect x="6" y="6" width="20" height="20" fill="#D9D9D9"/>
</mask>
<g mask="url(#mask0_1801_504)">
<path d="M11 24.3337C10.5417 24.3337 10.1493 24.1705 9.82296 23.8441C9.49657 23.5177 9.33337 23.1253 9.33337 22.667V9.33366C9.33337 8.87533 9.49657 8.48296 9.82296 8.15658C10.1493 7.83019 10.5417 7.66699 11 7.66699H17.6667L22.6667 12.667V22.667C22.6667 23.1253 22.5035 23.5177 22.1771 23.8441C21.8507 24.1705 21.4584 24.3337 21 24.3337H11ZM16.8334 13.5003V9.33366H11V22.667H21V13.5003H16.8334Z" fill="white"/>
</g>
</svg>
