<svg width="64" height="64" viewBox="0 0 64 64" fill="none" xmlns="http://www.w3.org/2000/svg">
<rect x="0.333374" y="0.333374" width="63.3333" height="63.3333" rx="31.6667" fill="#85BC31"/>
<mask id="mask0_426_7066" style="mask-type:alpha" maskUnits="userSpaceOnUse" x="11" y="11" width="42" height="42">
<rect x="11" y="11.0001" width="42" height="42" fill="#D9D9D9"/>
</mask>
<g mask="url(#mask0_426_7066)">
<path d="M27.1875 49.5001L26.4875 43.9001C26.1083 43.7542 25.751 43.5792 25.4156 43.3751C25.0802 43.1709 24.7521 42.9521 24.4312 42.7188L19.225 44.9063L14.4125 36.5938L18.9187 33.1813C18.8896 32.9771 18.875 32.7803 18.875 32.5907V31.4094C18.875 31.2199 18.8896 31.023 18.9187 30.8188L14.4125 27.4063L19.225 19.0938L24.4312 21.2813C24.7521 21.048 25.0875 20.8292 25.4375 20.6251C25.7875 20.4209 26.1375 20.2459 26.4875 20.1001L27.1875 14.5001H36.8125L37.5125 20.1001C37.8916 20.2459 38.2489 20.4209 38.5843 20.6251C38.9198 20.8292 39.2479 21.048 39.5687 21.2813L44.775 19.0938L49.5875 27.4063L45.0812 30.8188C45.1104 31.023 45.125 31.2199 45.125 31.4094V32.5907C45.125 32.7803 45.0958 32.9771 45.0375 33.1813L49.5437 36.5938L44.7312 44.9063L39.5687 42.7188C39.2479 42.9521 38.9125 43.1709 38.5625 43.3751C38.2125 43.5792 37.8625 43.7542 37.5125 43.9001L36.8125 49.5001H27.1875ZM32.0875 38.1251C33.7791 38.1251 35.2229 37.5271 36.4187 36.3313C37.6146 35.1355 38.2125 33.6917 38.2125 32.0001C38.2125 30.3084 37.6146 28.8646 36.4187 27.6688C35.2229 26.473 33.7791 25.8751 32.0875 25.8751C30.3666 25.8751 28.9156 26.473 27.7344 27.6688C26.5531 28.8646 25.9625 30.3084 25.9625 32.0001C25.9625 33.6917 26.5531 35.1355 27.7344 36.3313C28.9156 37.5271 30.3666 38.1251 32.0875 38.1251Z" fill="white"/>
</g>
</svg>
