<svg width="64" height="64" viewBox="0 0 64 64" fill="none" xmlns="http://www.w3.org/2000/svg">
<rect width="64" height="64" rx="32" fill="#85BC31"/>
<mask id="mask0_1598_19314" style="mask-type:alpha" maskUnits="userSpaceOnUse" x="16" y="16" width="32" height="32">
<rect x="16" y="16" width="32" height="32" fill="#D9D9D9"/>
</mask>
<g mask="url(#mask0_1598_19314)">
<path d="M30.6666 37.333V26.4663L27.2 29.933L25.3333 27.9997L32 21.333L38.6666 27.9997L36.8 29.933L33.3333 26.4663V37.333H30.6666ZM24 42.6663C23.2666 42.6663 22.6389 42.4052 22.1166 41.883C21.5944 41.3608 21.3333 40.733 21.3333 39.9997V35.9997H24V39.9997H40V35.9997H42.6666V39.9997C42.6666 40.733 42.4055 41.3608 41.8833 41.883C41.3611 42.4052 40.7333 42.6663 40 42.6663H24Z" fill="white"/>
</g>
</svg>
