<svg width="48" height="48" viewBox="0 0 48 48" fill="none" xmlns="http://www.w3.org/2000/svg">
<rect width="48" height="48" rx="24" fill="#85BC31"/>
<mask id="mask0_725_20689" style="mask-type:alpha" maskUnits="userSpaceOnUse" x="8" y="8" width="32" height="32">
<rect x="8" y="8" width="32" height="32" fill="#D9D9D9"/>
</mask>
<g mask="url(#mask0_725_20689)">
<path d="M18.6666 31.9998H29.3333V29.3332H18.6666V31.9998ZM18.6666 26.6665H29.3333V23.9998H18.6666V26.6665ZM15.9999 37.3332C15.2666 37.3332 14.6388 37.0721 14.1166 36.5498C13.5944 36.0276 13.3333 35.3998 13.3333 34.6665V13.3332C13.3333 12.5998 13.5944 11.9721 14.1166 11.4498C14.6388 10.9276 15.2666 10.6665 15.9999 10.6665H26.6666L34.6666 18.6665V34.6665C34.6666 35.3998 34.4055 36.0276 33.8833 36.5498C33.361 37.0721 32.7333 37.3332 31.9999 37.3332H15.9999ZM25.3333 19.9998V13.3332H15.9999V34.6665H31.9999V19.9998H25.3333Z" fill="white"/>
</g>
</svg>
