<svg width="64" height="64" viewBox="0 0 64 64" fill="none" xmlns="http://www.w3.org/2000/svg">
<rect x="0.333374" width="63.3333" height="63.3333" rx="31.6667" fill="#85BC31"/>
<mask id="mask0_426_7042" style="mask-type:alpha" maskUnits="userSpaceOnUse" x="11" y="10" width="42" height="43">
<rect x="11" y="10.6667" width="42" height="42" fill="#D9D9D9"/>
</mask>
<g mask="url(#mask0_426_7042)">
<path d="M32 33.4167C33.6917 33.4167 35.1354 32.8187 36.3313 31.6229C37.5271 30.4271 38.125 28.9833 38.125 27.2917C38.125 25.6 37.5271 24.1562 36.3313 22.9604C35.1354 21.7646 33.6917 21.1667 32 21.1667C30.3083 21.1667 28.8646 21.7646 27.6687 22.9604C26.4729 24.1562 25.875 25.6 25.875 27.2917C25.875 28.9833 26.4729 30.4271 27.6687 31.6229C28.8646 32.8187 30.3083 33.4167 32 33.4167ZM19.75 47.4167C18.7875 47.4167 17.9635 47.0739 17.2781 46.3885C16.5927 45.7031 16.25 44.8792 16.25 43.9167V19.4167C16.25 18.4542 16.5927 17.6302 17.2781 16.9448C17.9635 16.2594 18.7875 15.9167 19.75 15.9167H44.25C45.2125 15.9167 46.0365 16.2594 46.7219 16.9448C47.4073 17.6302 47.75 18.4542 47.75 19.4167V43.9167C47.75 44.8792 47.4073 45.7031 46.7219 46.3885C46.0365 47.0739 45.2125 47.4167 44.25 47.4167H19.75ZM19.75 43.9167H44.25V41.9042C42.675 40.3583 40.8448 39.1406 38.7594 38.251C36.674 37.3614 34.4208 36.9167 32 36.9167C29.5792 36.9167 27.326 37.3614 25.2406 38.251C23.1552 39.1406 21.325 40.3583 19.75 41.9042V43.9167Z" fill="white"/>
</g>
</svg>
