<svg width="64" height="64" viewBox="0 0 64 64" fill="none" xmlns="http://www.w3.org/2000/svg">
<rect x="0.333374" width="63.3333" height="63.3333" rx="31.6667" fill="#85BC31"/>
<mask id="mask0_426_7050" style="mask-type:alpha" maskUnits="userSpaceOnUse" x="11" y="10" width="42" height="43">
<rect x="11" y="10.6667" width="42" height="42" fill="#D9D9D9"/>
</mask>
<g mask="url(#mask0_426_7050)">
<path d="M36.375 50.9167C35.6458 50.9167 35.026 50.6614 34.5156 50.151C34.0052 49.6406 33.75 49.0208 33.75 48.2917V36.0417C33.75 35.3125 34.0052 34.6927 34.5156 34.1823C35.026 33.6719 35.6458 33.4167 36.375 33.4167H48.625C49.3541 33.4167 49.9739 33.6719 50.4844 34.1823C50.9948 34.6927 51.25 35.3125 51.25 36.0417V48.2917C51.25 49.0208 50.9948 49.6406 50.4844 50.151C49.9739 50.6614 49.3541 50.9167 48.625 50.9167H36.375ZM27.1875 49.1667L26.4875 43.5667C26.1083 43.4208 25.751 43.2458 25.4156 43.0417C25.0802 42.8375 24.7521 42.6187 24.4312 42.3854L19.225 44.5729L14.4125 36.2604L18.9187 32.8479C18.8896 32.6437 18.875 32.4469 18.875 32.2573V31.076C18.875 30.8864 18.8896 30.6896 18.9187 30.4854L14.4125 27.0729L19.225 18.7604L24.4312 20.9479C24.7521 20.7146 25.0875 20.4958 25.4375 20.2917C25.7875 20.0875 26.1375 19.9125 26.4875 19.7667L27.1875 14.1667H36.8125L37.5125 19.7667C37.8916 19.9125 38.2489 20.0875 38.5844 20.2917C38.9198 20.4958 39.2479 20.7146 39.5687 20.9479L44.775 18.7604L49.5875 27.0729L45.8687 29.9167H37.95C37.5416 28.6625 36.8125 27.6198 35.7625 26.7885C34.7125 25.9573 33.4875 25.5417 32.0875 25.5417C30.3958 25.5417 28.9521 26.1396 27.7562 27.3354C26.5604 28.5312 25.9625 29.975 25.9625 31.6667C25.9625 33.0667 26.3562 34.2917 27.1437 35.3417C27.9312 36.3917 28.9666 37.1208 30.25 37.5292V49.1667H27.1875ZM37.25 47.4167H47.75V45.9729C47.0208 45.3021 46.2041 44.7917 45.3 44.4417C44.3958 44.0917 43.4625 43.9167 42.5 43.9167C41.5375 43.9167 40.6041 44.0917 39.7 44.4417C38.7958 44.7917 37.9791 45.3021 37.25 45.9729V47.4167ZM42.5 42.1667C43.2291 42.1667 43.8489 41.9114 44.3594 41.401C44.8698 40.8906 45.125 40.2708 45.125 39.5417C45.125 38.8125 44.8698 38.1927 44.3594 37.6823C43.8489 37.1719 43.2291 36.9167 42.5 36.9167C41.7708 36.9167 41.151 37.1719 40.6406 37.6823C40.1302 38.1927 39.875 38.8125 39.875 39.5417C39.875 40.2708 40.1302 40.8906 40.6406 41.401C41.151 41.9114 41.7708 42.1667 42.5 42.1667Z" fill="white"/>
</g>
</svg>
