<svg width="48" height="48" viewBox="0 0 48 48" fill="none" xmlns="http://www.w3.org/2000/svg">
<rect width="48" height="48" rx="24" fill="#85BC31"/>
<mask id="mask0_725_20662" style="mask-type:alpha" maskUnits="userSpaceOnUse" x="8" y="8" width="32" height="32">
<rect x="8" y="8" width="32" height="32" fill="#D9D9D9"/>
</mask>
<g mask="url(#mask0_725_20662)">
<path d="M19.4667 38L16.9334 33.7333L12.1334 32.6667L12.6 27.7333L9.33337 24L12.6 20.2667L12.1334 15.3333L16.9334 14.2667L19.4667 10L24 11.9333L28.5334 10L31.0667 14.2667L35.8667 15.3333L35.4 20.2667L38.6667 24L35.4 27.7333L35.8667 32.6667L31.0667 33.7333L28.5334 38L24 36.0667L19.4667 38ZM20.6 34.6L24 33.1333L27.4667 34.6L29.3334 31.4L33 30.5333L32.6667 26.8L35.1334 24L32.6667 21.1333L33 17.4L29.3334 16.6L27.4 13.4L24 14.8667L20.5334 13.4L18.6667 16.6L15 17.4L15.3334 21.1333L12.8667 24L15.3334 26.8L15 30.6L18.6667 31.4L20.6 34.6ZM22.6 28.7333L30.1334 21.2L28.2667 19.2667L22.6 24.9333L19.7334 22.1333L17.8667 24L22.6 28.7333Z" fill="white"/>
</g>
</svg>
