<svg width="140" height="140" viewBox="0 0 140 140" fill="none" xmlns="http://www.w3.org/2000/svg">
<rect width="140" height="140" rx="12" fill="#D0F19E"/>
<circle opacity="0.6" cx="68.5" cy="71.5" r="53.5" fill="#ECF9D8"/>
<g clip-path="url(#clip0_2295_5384)">
<path d="M92.572 39.0879C95.6745 35.764 97.713 31.8012 97.713 27.4029C97.713 25.6702 96.3109 24.2682 94.5782 24.2682C91.2295 24.2682 87.59 25.0408 84.0707 26.3624C84.7102 28.5329 85.1739 30.9107 85.1739 33.6725C85.1739 35.08 85.0136 36.3569 84.8287 37.6085C87.3729 37.9382 89.9764 38.4189 92.572 39.0879Z" fill="#1A5C4B"/>
<path d="M44.4214 24.2682C42.6887 24.2682 41.2866 25.6702 41.2866 27.4029C41.2866 31.8012 43.3251 35.7642 46.4276 39.0879C49.0232 38.4189 51.6276 37.9385 54.1711 37.6085C53.9864 36.3569 53.8257 35.0795 53.8257 33.6725C53.8257 30.9103 54.2894 28.5321 54.9285 26.3622C51.4096 25.0408 47.7697 24.2682 44.4214 24.2682Z" fill="#1A5C4B"/>
<path d="M78.6105 37.0139C78.7827 35.9687 78.9043 34.8709 78.9043 33.6724C78.9043 23.1321 71.404 18.6167 71.0857 18.427C70.106 17.8575 68.8938 17.8575 67.9141 18.427C67.5958 18.6167 60.0955 23.1323 60.0955 33.6724C60.0955 34.8709 60.2171 35.9687 60.3893 37.0139C63.9308 36.8076 67.0894 36.8072 69.4999 36.8072C71.9104 36.8072 75.069 36.8078 78.6105 37.0139Z" fill="#1A5C4B"/>
<path d="M28.7474 68.3645C28.7474 95.788 55.2495 125 69.4999 125C83.7503 125 110.252 95.788 110.252 68.3645C110.252 43.286 82.728 43.077 69.4999 43.077C56.2718 43.077 28.7474 43.286 28.7474 68.3645ZM47.5562 71.4993C47.5562 73.232 46.1541 74.6341 44.4214 74.6341C42.6887 74.6341 41.2866 73.232 41.2866 71.4993V65.2296C41.2866 63.4969 42.6887 62.0948 44.4214 62.0948C46.1541 62.0948 47.5562 63.4969 47.5562 65.2296V71.4993ZM91.4436 65.2296C91.4436 63.4969 92.8456 62.0948 94.5784 62.0948C96.3111 62.0948 97.7132 63.4969 97.7132 65.2296V71.4993C97.7132 73.232 96.3111 74.6341 94.5784 74.6341C92.8456 74.6341 91.4436 73.232 91.4436 71.4993V65.2296ZM60.0955 90.3081C60.0955 92.0408 58.6934 93.4429 56.9607 93.4429C55.2279 93.4429 53.8259 92.0408 53.8259 90.3081V84.0385C53.8259 82.3058 55.2279 80.9037 56.9607 80.9037C58.6934 80.9037 60.0955 82.3058 60.0955 84.0385V90.3081ZM72.6347 109.117C72.6347 110.85 71.2326 112.252 69.4999 112.252C67.7672 112.252 66.3651 110.85 66.3651 109.117V102.847C66.3651 101.115 67.7672 99.7125 69.4999 99.7125C71.2326 99.7125 72.6347 101.115 72.6347 102.847V109.117ZM78.9043 84.0385C78.9043 82.3058 80.3064 80.9037 82.0391 80.9037C83.7718 80.9037 85.1739 82.3058 85.1739 84.0385V90.3081C85.1739 92.0408 83.7718 93.4429 82.0391 93.4429C80.3064 93.4429 78.9043 92.0408 78.9043 90.3081V84.0385ZM72.6347 65.2296V71.4993C72.6347 73.232 71.2326 74.6341 69.4999 74.6341C67.7672 74.6341 66.3651 73.232 66.3651 71.4993V65.2296C66.3651 63.4969 67.7672 62.0948 69.4999 62.0948C71.2326 62.0948 72.6347 63.4969 72.6347 65.2296Z" fill="#1A5C4B"/>
</g>
<defs>
<clipPath id="clip0_2295_5384">
<rect width="107" height="107" fill="white" transform="translate(16 18)"/>
</clipPath>
</defs>
</svg>
