<svg width="36" height="36" viewBox="0 0 36 36" fill="none" xmlns="http://www.w3.org/2000/svg">
<rect width="36" height="36" rx="18" fill="#006633"/>
<path d="M25.668 10.4365H24.262C23.2995 10.4365 22.5164 11.2196 22.5164 12.1822V12.7657H21.1973V11.6165L20.9311 11.3502H19.1764V10.2853H19.9179C21.272 10.2853 22.3737 9.1836 22.3737 7.8295V7.04109L22.2957 6.85282L21.7039 6.26106L21.5157 6.18305H15.1212L14.9329 6.26106L14.3411 6.85282L14.2631 7.04109V7.8295C14.2631 9.1836 15.3648 10.2853 16.7189 10.2853H17.4603V11.3502H15.7057L15.4394 11.6165V12.7657H13.4403C12.3146 12.7657 11.3988 13.6815 11.3988 14.8072V15.9521V25.9346V27.4246H10.7653C10.0964 27.4246 9.5522 26.8804 9.5522 26.2115V23.5049H10.3056L10.5719 23.2386V18.3388L10.3056 18.0725H10.144V9.35934L12.1124 7.4785C12.4544 7.15164 12.4668 6.60745 12.14 6.2654C11.9816 6.09966 11.7682 6.00552 11.5391 6.00032C11.3106 5.99403 11.0925 6.07944 10.9268 6.23773L8.69321 8.37203L8.63231 8.45986L8.44935 8.88773L8.4279 8.99244V18.0725H8.26629L8 18.3388V23.2386L8.26629 23.5049H9.01962V26.2115C9.01962 27.1741 9.80271 27.9572 10.7653 27.9572H11.3988V28.5502C11.3988 29.3496 12.0491 30 12.8486 30H14.7848L14.9937 29.8988L16.0973 28.5026H20.5394L21.643 29.8988L21.8519 30H23.7883C24.5877 30 25.2381 29.3496 25.2381 28.5502V27.9572H25.6681C26.6306 27.9572 27.4137 27.1741 27.4137 26.2115V12.1822C27.4137 11.2196 26.6306 10.4365 25.668 10.4365ZM8.9605 9.047L9.10059 8.71945L11.2947 6.62283C11.4244 6.49887 11.6308 6.5035 11.7549 6.63329C11.8789 6.76309 11.8742 6.9695 11.7445 7.09346L9.69378 9.05295L9.61142 9.2455V18.0725H8.96049L8.9605 9.047ZM8.53258 22.9723V18.6051H10.0393V22.9723H8.53258ZM16.7189 9.75272C15.6584 9.75272 14.7957 8.88999 14.7957 7.82952V7.15142L15.2315 6.71563H21.4053L21.8411 7.15142V7.82952C21.8411 8.88999 20.9784 9.75272 19.9179 9.75272H16.7189ZM18.6438 10.2853V11.3502H17.9929V10.2853H18.6438ZM15.972 11.8828H20.6648V12.7657H15.972V11.8828ZM24.7055 28.5502C24.7055 29.056 24.294 29.4674 23.7882 29.4674H21.9809L20.8773 28.0712L20.6684 27.97H15.9683L15.7594 28.0712L14.6558 29.4674H12.8486C12.3428 29.4674 11.9314 29.056 11.9314 28.5502V26.2009H24.7055V28.5502ZM24.7055 25.6683H11.9314V16.2184H24.7055V25.6683ZM24.7055 15.6858H11.9314V14.8072C11.9314 13.9752 12.6083 13.2983 13.4403 13.2983H23.1965C24.0285 13.2983 24.7055 13.9752 24.7055 14.8072V15.6858ZM26.8811 26.2115C26.8811 26.8804 26.3369 27.4246 25.668 27.4246H25.238V25.9346V15.9521V14.8073C25.238 13.6815 24.3222 12.7657 23.1965 12.7657H23.0489V12.1822C23.0489 11.5133 23.5931 10.9691 24.262 10.9691H25.668C26.3369 10.9691 26.8811 11.5133 26.8811 12.1822V26.2115Z" fill="white"/>
<path d="M21.1894 7.82952V7.63287L20.9231 7.36658H15.7121L15.4458 7.63287V7.82952C15.4458 8.53108 16.0165 9.1018 16.7181 9.1018H19.9171C20.6186 9.1018 21.1894 8.53107 21.1894 7.82952ZM15.9816 7.89915H20.6535C20.6183 8.27448 20.3015 8.56921 19.9171 8.56921H16.7181C16.3337 8.56922 16.0168 8.27449 15.9816 7.89915Z" fill="white"/>
<path d="M18.3184 24.746C20.4151 24.746 22.121 23.0401 22.121 20.9433C22.121 18.8466 20.4152 17.1407 18.3184 17.1407C16.2217 17.1407 14.5158 18.8466 14.5158 20.9433C14.5158 23.0401 16.2217 24.746 18.3184 24.746ZM21.5884 20.9433C21.5884 22.7465 20.1215 24.2134 18.3184 24.2134C17.5125 24.2134 16.7743 23.9198 16.2037 23.4346L17.0824 22.5559C17.3496 22.9542 17.8038 23.2168 18.3184 23.2168C18.8576 23.2168 19.3306 22.9285 19.5915 22.4979L20.2398 22.9514L20.545 22.515L19.7839 21.9825C19.7981 21.9002 19.8059 21.8156 19.8059 21.7293V21.6262H20.8243V21.0936H19.8059V20.7219L20.5451 20.2047L20.2397 19.7683L19.7902 20.0828C19.7807 20.0169 19.7666 19.9525 19.7486 19.8897L20.8097 18.8286C21.2948 19.3992 21.5884 20.1374 21.5884 20.9433ZM18.3184 19.3425C18.6504 19.3425 18.9431 19.5131 19.1143 19.7709L18.5728 20.3124H17.3634V20.2975C17.3635 19.7709 17.7918 19.3425 18.3184 19.3425ZM19.2734 20.845V21.7293C19.2734 22.2558 18.845 22.6842 18.3184 22.6842C17.9498 22.6842 17.63 22.474 17.4709 22.1674L18.7933 20.845H19.2734ZM18.0402 20.845L17.3634 21.5217V20.845H18.0402ZM18.3184 17.6733C19.1243 17.6733 19.8625 17.9669 20.4331 18.4521L19.4956 19.3896C19.3482 19.199 19.1556 19.0451 18.934 18.9439L19.2339 18.4916L19.012 18.3444L18.7901 18.1972L18.3827 18.8116C18.3614 18.8107 18.34 18.81 18.3184 18.81C18.2968 18.81 18.2754 18.8107 18.2541 18.8116L17.8468 18.1973L17.6248 18.3444L17.4029 18.4915L17.7028 18.9439C17.2514 19.15 16.9203 19.5751 16.8466 20.0828L16.3971 19.7683L16.0917 20.2047L16.8309 20.7219V21.0936H15.8125V21.3599V21.6262H16.8309V21.7293C16.8309 21.8156 16.8387 21.9001 16.8529 21.9825L16.0918 22.5149L16.2064 22.6788L15.8271 23.0581C15.342 22.4875 15.0484 21.7492 15.0484 20.9433C15.0484 19.1402 16.5153 17.6733 18.3184 17.6733Z" fill="white"/>
</svg>
