<svg width="300" height="300" viewBox="0 0 300 300" fill="none" xmlns="http://www.w3.org/2000/svg">
<rect width="300" height="300" rx="150" fill="#006633"/>
<path d="M100.296 143.539H102.693L101.897 142.945C100.55 141.941 100.274 140.04 101.281 138.696C102.288 137.353 104.194 137.081 105.541 138.083L112.859 143.537H118.569L115.714 138.606L107.319 135.014C105.774 134.353 105.059 132.568 105.722 131.03C106.385 129.489 108.173 128.777 109.717 129.437L110.632 129.828L109.433 127.757C108.592 126.307 109.091 124.449 110.548 123.612C112.005 122.773 113.866 123.271 114.705 124.723L115.903 126.792L116.021 125.807C116.219 124.142 117.738 122.955 119.404 123.153C121.073 123.35 122.265 124.861 122.067 126.526L120.989 135.574L123.844 140.505L126.699 135.574L125.622 126.526C125.424 124.861 126.616 123.352 128.285 123.153C129.95 122.955 131.467 124.144 131.667 125.807L131.786 126.792L132.984 124.723C133.823 123.271 135.686 122.775 137.141 123.612C138.595 124.451 139.094 126.307 138.255 127.757L137.057 129.828L137.971 129.437C139.514 128.777 141.306 129.491 141.967 131.03C142.629 132.57 141.913 134.355 140.37 135.014L131.975 138.606L129.12 143.537H134.83L142.147 138.083C143.492 137.078 145.4 137.353 146.407 138.696C147.414 140.04 147.139 141.941 145.792 142.945L144.996 143.539H147.393C149.073 143.539 150.435 144.897 150.435 146.573C150.435 148.249 149.073 149.607 147.393 149.607H144.996L145.792 150.202C147.139 151.206 147.414 153.107 146.407 154.45C145.809 155.246 144.895 155.669 143.968 155.669C143.333 155.669 142.694 155.472 142.147 155.064L134.83 149.609H129.12L131.975 154.54L140.37 158.132C141.915 158.793 142.629 160.576 141.967 162.117C141.304 163.658 139.516 164.37 137.971 163.709L137.057 163.319L138.255 165.389C139.097 166.84 138.597 168.696 137.141 169.535C136.661 169.812 136.138 169.942 135.622 169.942C134.57 169.942 133.548 169.397 132.984 168.425L131.786 166.357L131.667 167.342C131.482 168.885 130.17 170.018 128.649 170.018C128.528 170.018 128.408 170.011 128.285 169.996C126.616 169.799 125.424 168.288 125.624 166.623L126.704 157.577L123.849 152.646L120.994 157.577L122.072 166.625C122.269 168.29 121.077 169.799 119.408 169.998C119.285 170.013 119.165 170.02 119.044 170.02C117.523 170.02 116.211 168.885 116.026 167.342L115.907 166.357L114.709 168.425C114.145 169.4 113.123 169.942 112.071 169.942C111.555 169.942 111.032 169.812 110.552 169.535C109.098 168.696 108.599 166.84 109.438 165.389L110.636 163.319L109.722 163.709C108.177 164.37 106.389 163.655 105.726 162.117C105.064 160.576 105.78 158.793 107.323 158.132L115.718 154.54L118.573 149.609H112.863L105.546 155.064C104.999 155.472 104.36 155.669 103.725 155.669C102.798 155.669 101.884 155.248 101.286 154.45C100.279 153.107 100.554 151.206 101.901 150.202L102.697 149.607H100.3C98.6199 149.607 97.258 148.249 97.258 146.573C97.258 144.897 98.6156 143.539 100.296 143.539ZM246.531 86.671C245.974 87.5507 245.001 88.085 243.958 88.085H237.895V124.498C239.523 126.182 240.526 128.472 240.526 130.989V235.634C240.526 240.799 236.313 245 231.134 245H175.397C170.218 245 166.006 240.799 166.006 235.634V130.989C166.006 125.824 170.218 121.623 175.397 121.623H215.57V113.98H84.4327V232.881C84.4327 234.557 83.0708 235.915 81.3905 235.915H65.1486C63.4683 235.915 62.1064 234.557 62.1064 232.881V88.085H56.0434C54.9999 88.085 54.0274 87.5507 53.4701 86.671C52.9129 85.7912 52.8462 84.6862 53.2959 83.7463L66.1964 56.7295C66.6999 55.6716 67.7692 55 68.9439 55H231.057C232.232 55 233.301 55.6738 233.804 56.7295L246.705 83.7463C247.153 84.6862 247.088 85.7891 246.531 86.671ZM218.978 102.367H81.0226V107.912H218.978V102.367ZM234.439 130.989C234.439 129.171 232.957 127.693 231.134 127.693H175.397C173.575 127.693 172.092 129.171 172.092 130.989V235.634C172.092 237.451 173.575 238.93 175.397 238.93H231.134C232.957 238.93 234.439 237.451 234.439 235.634V130.989ZM231.808 88.085H68.193V229.849H78.3461V113.827C76.3882 113.314 74.938 111.54 74.938 109.429V100.85C74.938 98.3394 76.9863 96.2967 79.5036 96.2967H220.502C223.019 96.2967 225.067 98.3394 225.067 100.85V109.429C225.067 111.54 223.617 113.314 221.659 113.827V121.625H231.139C231.365 121.625 231.588 121.636 231.812 121.651V88.085H231.808ZM239.138 82.0147L229.136 61.0681H70.8652L60.8628 82.0147H239.138ZM155.995 185.834V229.714C155.995 233.134 153.204 235.917 149.775 235.917H97.897C94.4674 235.917 91.6769 233.134 91.6769 229.714V185.834C91.6769 182.413 94.4674 179.63 97.897 179.63H149.775C153.204 179.63 155.995 182.413 155.995 185.834ZM117.463 191.649L121.015 188.743C122.65 187.406 125.021 187.406 126.656 188.743L130.209 191.646V185.698H117.465L117.463 191.649ZM149.908 185.834C149.908 185.767 149.839 185.701 149.772 185.701H136.291V195.103C136.291 196.837 135.316 198.373 133.746 199.114C133.13 199.403 132.481 199.545 131.835 199.545C130.83 199.545 129.841 199.202 129.023 198.532L123.831 194.288L118.64 198.532C117.295 199.631 115.486 199.854 113.917 199.111C112.349 198.371 111.372 196.835 111.372 195.101V185.698H97.8927C97.826 185.698 97.7571 185.767 97.7571 185.832V229.712C97.7571 229.778 97.826 229.847 97.8927 229.847H149.77C149.837 229.847 149.906 229.778 149.906 229.712L149.908 185.834ZM121.28 216.53V222.33C121.28 224.581 119.444 226.412 117.19 226.412H105.303C103.046 226.412 101.212 224.581 101.212 222.33V216.53C101.212 214.28 103.048 212.449 105.303 212.449H117.19C119.444 212.449 121.28 214.28 121.28 216.53ZM115.193 218.52H107.295V220.341H115.193V218.52ZM225.911 211.872C225.911 224.324 215.753 234.454 203.268 234.454C190.783 234.454 180.625 224.324 180.625 211.872C180.625 204.478 184.309 197.528 190.346 193.329V145.056C190.346 137.95 196.144 132.167 203.27 132.167C210.396 132.167 216.194 137.95 216.194 145.056V193.329C222.227 197.526 225.911 204.478 225.911 211.872ZM219.824 211.872C219.824 206.029 216.676 200.562 211.612 197.607C210.678 197.062 210.105 196.067 210.105 194.987V145.056C210.105 141.297 207.037 138.237 203.268 138.237C199.498 138.237 196.43 141.297 196.43 145.056V194.987C196.43 196.065 195.856 197.062 194.924 197.607C189.857 200.562 186.712 206.027 186.712 211.872C186.712 220.976 194.139 228.386 203.27 228.386C212.397 228.383 219.824 220.976 219.824 211.872ZM214.31 211.872C214.31 217.945 209.355 222.886 203.266 222.886C197.177 222.886 192.222 217.945 192.222 211.872C192.222 206.853 195.608 202.609 200.221 201.287V190.127C200.221 188.451 201.583 187.093 203.264 187.093C204.944 187.093 206.306 188.451 206.306 190.127V201.287C210.923 202.609 214.31 206.851 214.31 211.872ZM208.223 211.872C208.223 209.147 205.998 206.928 203.266 206.928C200.533 206.928 198.309 209.147 198.309 211.872C198.309 214.597 200.533 216.816 203.266 216.816C205.998 216.816 208.223 214.597 208.223 211.872Z" fill="white"/>
</svg>
