<svg width="140" height="140" viewBox="0 0 140 140" fill="none" xmlns="http://www.w3.org/2000/svg">
<g id="Makhana Seed Distribution Special Scheme">
<rect width="140" height="140" rx="70" fill="#D0F19E"/>
<circle id="Ellipse 5190" opacity="0.6" cx="70" cy="70" r="50" fill="#ECF9D8"/>
<g id="Group 1597881810">
<g id="Group 1597881799">
<g id="Group 1597881798">
<g id="Group 1597881801">
<g id="Group 1597881800">
<g id="Group 1597881713">
<path id="Vector 789" d="M25.5765 72.0516C27.7871 74.8518 30.6732 76.4115 31.84 76.8414C32.0856 76.9028 32.6137 77.0624 32.7611 77.2098C32.9453 77.394 35.3402 77.9467 37.5508 77.7625C39.7615 77.5782 42.709 75.736 43.4459 76.1045C44.1828 76.4729 46.025 76.2887 47.683 75.736C49.341 75.1834 51.9201 73.7096 54.3149 68.7356C56.7098 63.7617 55.0518 59.5246 53.7623 56.0244C52.4727 52.5242 48.4199 51.0504 46.2092 48.8398C43.9986 46.6291 36.4455 46.4449 31.2873 48.1029C27.1608 49.4293 25.7607 53.0769 25.5765 54.7348C24.9624 55.3489 23.4764 57.2771 22.4447 60.0773C21.1552 63.5775 22.8132 68.5514 25.5765 72.0516Z" fill="#1A5C4B"/>
<path id="Vector 790" d="M31.5793 61.3692L31.8727 64.808C32.0683 64.8898 32.5181 65.0536 32.7527 65.0536C33.0461 65.0536 33.0461 63.0886 33.3394 62.5973C33.6328 62.1061 33.0461 62.1061 33.0461 61.8604C33.0461 61.6639 32.8505 60.9598 32.7527 60.6323L31.5793 61.3692Z" fill="white"/>
<path id="Vector 791" d="M38.9778 60.0794C38.9778 60.5216 39.3462 61.1233 39.5304 61.369L40.82 60.8163C40.8814 60.6321 40.9673 60.19 40.82 59.8952C40.6357 59.5268 40.82 59.1583 40.82 58.9741V58.2372C40.82 58.053 40.6357 57.8688 40.6357 57.5003C40.6357 57.1319 40.4515 56.5792 40.0831 56.5792C39.7146 56.5792 39.5304 57.1319 38.9778 57.5003C38.4251 57.8688 38.6093 58.053 38.6093 58.2372C38.6093 58.4214 38.9778 59.5268 38.9778 60.0794Z" fill="white"/>
<path id="Vector 792" d="M48.6501 64.8325C48.9937 66.0705 48.2206 67.4116 47.7911 67.9274C47.9343 68.0748 48.3065 68.3696 48.6501 68.3696C49.0796 68.3696 49.7239 67.9274 50.1534 67.2642C50.5829 66.6011 51.2272 65.2747 51.2272 64.6115C51.2272 63.9483 51.2272 63.064 51.4419 62.1797C51.6567 61.2955 50.7977 60.6323 50.1534 60.6323C49.5092 60.6323 49.2944 61.0744 49.0796 61.7376C48.8649 62.4008 48.6501 62.6219 48.4354 62.8429C48.2206 63.064 48.2206 63.2851 48.6501 64.8325Z" fill="white"/>
<path id="Vector 793" d="M34.5135 51.2305C33.4819 51.9674 34.9434 53.3797 35.8031 53.9938C35.8031 53.7482 35.9136 53.1464 36.3557 52.7043C36.9084 52.1516 36.9084 52.1516 36.9084 51.4147C36.9084 50.6778 35.8031 50.3094 34.5135 51.2305Z" fill="white"/>
<path id="Vector 794" d="M37.2224 70.0435C36.6698 71.29 38.2202 72.6405 39.0645 73.1599C39.2947 72.9373 39.9395 72.403 40.6763 72.0469C41.5973 71.6017 43.2092 70.4887 42.9789 68.9305C42.7486 67.3723 39.9855 66.7045 39.7553 67.8175C39.525 68.9305 37.9132 68.4853 37.2224 70.0435Z" fill="white"/>
<path id="Vector 796" d="M30.2898 68.399C30.1056 69.6885 29.9214 71.8992 29.7372 72.2676L31.0267 73.5572L31.3952 70.9781L31.9478 69.3201C31.4566 68.5832 30.4372 67.3673 30.2898 68.399Z" fill="white"/>
<path id="Vector 797" d="M26.974 57.7139C26.7898 59.0035 26.6056 61.2141 26.4214 61.5826L27.7109 62.8721L28.0794 60.293L28.632 58.635C28.1408 57.8982 27.1214 56.6823 26.974 57.7139Z" fill="white"/>
<path id="Vector 795" d="M44.1064 52.8951L44.7408 55.8426C45.1033 55.7198 45.9008 55.4005 46.1908 55.1058C46.5533 54.7373 46.1001 54.461 45.2845 54.2768C44.6321 54.1294 44.6502 53.7855 44.7408 53.632L44.1064 52.8951Z" fill="white"/>
</g>
<g id="Group 1597881797">
<path id="Vector 789_2" d="M54.2657 72.0516C56.4763 74.8518 59.3625 76.4115 60.5292 76.8414C60.7748 76.9028 61.3029 77.0624 61.4503 77.2098C61.6345 77.394 64.0294 77.9467 66.24 77.7625C68.4507 77.5782 71.3982 75.736 72.1351 76.1045C72.872 76.4729 74.7142 76.2887 76.3722 75.736C78.0302 75.1834 80.6093 73.7096 83.0041 68.7356C85.399 63.7617 83.741 59.5246 82.4515 56.0244C81.1619 52.5242 77.1091 51.0504 74.8984 48.8398C72.6878 46.6291 65.1347 46.4449 59.9765 48.1029C55.85 49.4293 54.4499 53.0769 54.2657 54.7348C53.6516 55.3489 52.1656 57.2771 51.1339 60.0773C49.8444 63.5775 51.5024 68.5514 54.2657 72.0516Z" fill="#1A5C4B"/>
<path id="Vector 790_2" d="M60.2686 61.3692L60.5619 64.808C60.7575 64.8898 61.2073 65.0536 61.4419 65.0536C61.7353 65.0536 61.7353 63.0886 62.0286 62.5973C62.322 62.1061 61.7353 62.1061 61.7353 61.8604C61.7353 61.6639 61.5397 60.9598 61.4419 60.6323L60.2686 61.3692Z" fill="white"/>
<path id="Vector 791_2" d="M67.667 60.0794C67.667 60.5216 68.0354 61.1233 68.2196 61.369L69.5092 60.8163C69.5706 60.6321 69.6565 60.19 69.5092 59.8952C69.3249 59.5268 69.5092 59.1583 69.5092 58.9741V58.2372C69.5092 58.053 69.3249 57.8688 69.3249 57.5003C69.3249 57.1319 69.1407 56.5792 68.7723 56.5792C68.4038 56.5792 68.2196 57.1319 67.667 57.5003C67.1143 57.8688 67.2985 58.053 67.2985 58.2372C67.2985 58.4214 67.667 59.5268 67.667 60.0794Z" fill="white"/>
<path id="Vector 792_2" d="M77.3394 64.8325C77.683 66.0705 76.9099 67.4116 76.4803 67.9274C76.6235 68.0748 76.9958 68.3696 77.3394 68.3696C77.7689 68.3696 78.4131 67.9274 78.8426 67.2642C79.2721 66.6011 79.9164 65.2747 79.9164 64.6115C79.9164 63.9483 79.9164 63.064 80.1311 62.1797C80.3459 61.2955 79.4869 60.6323 78.8426 60.6323C78.1984 60.6323 77.9836 61.0744 77.7689 61.7376C77.5541 62.4008 77.3394 62.6219 77.1246 62.8429C76.9099 63.064 76.9099 63.2851 77.3394 64.8325Z" fill="white"/>
<path id="Vector 793_2" d="M63.2027 51.2305C62.1711 51.9674 63.6326 53.3797 64.4923 53.9938C64.4923 53.7482 64.6028 53.1464 65.0449 52.7043C65.5976 52.1516 65.5976 52.1516 65.5976 51.4147C65.5976 50.6778 64.4923 50.3094 63.2027 51.2305Z" fill="white"/>
<path id="Vector 794_2" d="M65.9116 70.0435C65.359 71.29 66.9094 72.6405 67.7537 73.1599C67.9839 72.9373 68.6287 72.403 69.3655 72.0469C70.2865 71.6017 71.8984 70.4887 71.6681 68.9305C71.4378 67.3723 68.6747 66.7045 68.4445 67.8175C68.2142 68.9305 66.6024 68.4853 65.9116 70.0435Z" fill="white"/>
<path id="Vector 796_2" d="M58.9791 68.399C58.7948 69.6885 58.6106 71.8992 58.4264 72.2676L59.7159 73.5572L60.0844 70.9781L60.637 69.3201C60.1458 68.5832 59.1264 67.3673 58.9791 68.399Z" fill="white"/>
<path id="Vector 797_2" d="M55.6633 57.7139C55.479 59.0035 55.2948 61.2141 55.1106 61.5826L56.4001 62.8721L56.7686 60.293L57.3212 58.635C56.83 57.8982 55.8106 56.6823 55.6633 57.7139Z" fill="white"/>
<path id="Vector 795_2" d="M72.7957 52.8951L73.43 55.8426C73.7925 55.7198 74.59 55.4005 74.88 55.1058C75.2425 54.7373 74.7894 54.461 73.9737 54.2768C73.3213 54.1294 73.3394 53.7855 73.43 53.632L72.7957 52.8951Z" fill="white"/>
</g>
<g id="Group 1597881796">
<g id="Group 1597881711" filter="url(#filter0_d_4640_6064)">
<path id="Vector 789_3" d="M33.1125 97.5578C36.5178 101.819 40.9635 104.193 42.7607 104.847C43.1391 104.94 43.9526 105.183 44.1796 105.407C44.4634 105.688 48.1524 106.529 51.5576 106.248C54.9629 105.968 59.5032 103.165 60.6383 103.725C61.7734 104.286 64.6111 104.006 67.1651 103.165C69.719 102.324 73.6918 100.081 77.3808 92.5115C81.0698 84.9422 78.5159 78.4942 76.5295 73.1676C74.5431 67.8411 68.3001 65.5983 64.8949 62.2342C61.4896 58.87 49.855 58.5897 41.9094 61.1128C35.553 63.1313 33.3963 68.6821 33.1125 71.2052C32.1666 72.1397 29.8775 75.074 28.2884 79.3353C26.302 84.6618 28.856 92.2312 33.1125 97.5578Z" fill="#ECF9D8"/>
<path id="Vector 798" d="M34.5937 96.9219C37.8241 101.014 42.0415 103.293 43.7464 103.921C44.1053 104.011 44.877 104.244 45.0923 104.459C45.3615 104.729 48.8611 105.536 52.0914 105.267C55.3217 104.998 59.6289 102.306 60.7056 102.844C61.7824 103.383 64.4744 103.113 66.8971 102.306C69.3199 101.498 73.0886 99.3447 76.5882 92.0764C80.0877 84.8082 77.6649 78.6167 75.7806 73.502C73.8962 68.3872 67.9739 66.2337 64.7436 63.0033C61.5132 59.773 50.4762 59.5038 42.9388 61.9266C36.9088 63.8648 34.8629 69.1948 34.5937 71.6176C33.6964 72.5149 31.5249 75.3325 30.0174 79.4243C28.133 84.539 30.5558 91.8072 34.5937 96.9219Z" fill="#1A5C4B"/>
<path id="Vector 790_3" d="M45.2433 78.8386L45.6646 82.9546C45.9455 83.0526 46.5916 83.2486 46.9286 83.2486C47.35 83.2486 47.35 80.8966 47.7713 80.3086C48.1926 79.7206 47.35 79.7206 47.35 79.4266C47.35 79.1914 47.0691 78.3486 46.9286 77.9566L45.2433 78.8386Z" fill="white"/>
<path id="Vector 791_3" d="M55.3989 86.2326C55.3989 86.7211 55.8188 87.386 56.0288 87.6574L57.4986 87.0468C57.5685 86.8432 57.6665 86.3547 57.4986 86.0291C57.2886 85.622 57.4986 85.2149 57.4986 85.0114V84.1972C57.4986 83.9937 57.2886 83.7902 57.2886 83.3831C57.2886 82.976 57.0786 82.3654 56.6587 82.3654C56.2387 82.3654 56.0288 82.976 55.3989 83.3831C54.7689 83.7902 54.9789 83.9937 54.9789 84.1972C54.9789 84.4008 55.3989 85.622 55.3989 86.2326Z" fill="white"/>
<path id="Vector 792_3" d="M67.4393 87.557C67.8506 88.8271 66.9252 90.203 66.4111 90.7322C66.5825 90.8834 67.028 91.1858 67.4393 91.1858C67.9534 91.1858 68.7245 90.7322 69.2386 90.0518C69.7527 89.3714 70.5238 88.0106 70.5238 87.3302C70.5238 86.6498 70.5238 85.7426 70.7809 84.8354C71.0379 83.9282 70.0097 83.2478 69.2386 83.2478C68.4675 83.2478 68.2104 83.7014 67.9534 84.3818C67.6963 85.0622 67.4393 85.289 67.1823 85.5158C66.9252 85.7426 66.9252 85.9694 67.4393 87.557Z" fill="white"/>
<path id="Vector 793_3" d="M47.4627 68.1003C46.1391 69.0822 48.0142 70.9641 49.1173 71.7823C49.1173 71.455 49.2591 70.6531 49.8263 70.064C50.5354 69.3277 50.5354 69.3276 50.5354 68.3458C50.5354 67.3639 49.1173 66.873 47.4627 68.1003Z" fill="white"/>
<path id="Vector 794_3" d="M54.1679 96.7927C53.6718 97.7252 55.0636 98.7354 55.8215 99.124C56.0282 98.9575 56.607 98.5578 57.2684 98.2914C58.0953 97.9583 59.5422 97.1257 59.3355 95.9601C59.1288 94.7944 56.6483 94.2948 56.4416 95.1274C56.2349 95.9601 54.788 95.627 54.1679 96.7927Z" fill="white"/>
<path id="Vector 796_3" d="M40.9669 93.2824C40.6977 95.1668 40.4285 98.3971 40.1593 98.9355L42.0437 100.82L42.5821 97.0512L43.3896 94.6284C42.6718 93.5516 41.1822 91.7749 40.9669 93.2824Z" fill="white"/>
<path id="Vector 797_3" d="M36.1213 77.6688C35.8521 79.5531 35.5829 82.7835 35.3137 83.3219L37.1981 85.2062L37.7365 81.4375L38.5441 79.0148C37.8262 77.938 36.3367 76.1613 36.1213 77.6688Z" fill="white"/>
<path id="Vector 795_3" d="M61.1566 70.6264L62.0836 74.9335C62.6133 74.754 63.7786 74.2874 64.2024 73.8567C64.7321 73.3183 64.0699 72.9145 62.8781 72.6453C61.9247 72.43 61.9512 71.9275 62.0836 71.7032L61.1566 70.6264Z" fill="white"/>
</g>
</g>
</g>
</g>
</g>
</g>
<g id="Group 1597881809">
<g id="Page-1">
<g id="091---Seed">
<path id="Shape" d="M105.102 48.7595C102.888 47.3632 97.1662 44.5774 87.885 45.5914C87.3253 45.6525 86.822 45.2482 86.761 44.6885C86.6999 44.1287 87.1042 43.6254 87.6639 43.5644C93.309 42.7946 99.0568 43.6312 104.248 45.9783C102.299 43.3669 98.9709 39.8721 94.7301 39.1737C90.4255 38.4638 86.0806 40.7865 83.405 42.6489C82.6972 43.1415 82.1072 43.6019 81.6649 43.9656C81.5757 44.0259 81.5153 44.1202 81.4978 44.2263C81.4803 44.3325 81.5073 44.4412 81.5724 44.5268C83.0183 46.8539 86.9673 52.3595 92.4082 53.2547C97.5565 54.1026 102.766 50.6103 105.102 48.7595Z" fill="#1A5C4B"/>
<path id="Shape_2" d="M114.123 49.4475C112.207 48.233 109.924 47.7329 107.675 48.035C107.686 48.2865 107.657 48.5381 107.588 48.7802L107.574 48.8291C107.507 49.0532 107.406 49.2662 107.277 49.4611C108.415 50.0727 109.501 50.7773 110.524 51.5677C111.388 52.1184 112.026 52.9595 112.325 53.9394C112.385 54.3958 112.25 54.8564 111.952 55.2075C110.919 56.4606 108.039 56.6533 107.916 56.6606L107.437 56.686C106.878 56.6968 106.321 56.7524 105.77 56.8524C101.783 57.5475 98.8766 60.8002 98.2328 65.1979C99.0163 66.1699 99.6116 67.2793 99.9884 68.4695C100.295 68.2982 100.661 68.1133 101.048 67.9279C101.333 66.9186 101.73 65.9446 102.233 65.0243C102.841 63.8623 103.823 62.9387 105.019 62.4018C105.951 62.071 106.942 61.939 107.928 62.0142C108.204 62.0169 108.479 62.0207 108.75 62.0107C109.661 61.9941 110.566 61.8691 111.448 61.6382C116.006 60.3358 117.581 56.7097 117.11 53.8916C116.785 52.0554 115.701 50.4415 114.123 49.4475Z" fill="#1A5C4B"/>
</g>
</g>
<path id="Shape_3" d="M98.9084 71.0112C98.5847 70.8707 98.3567 70.5728 98.3056 70.2236C98.0327 68.5141 97.2191 66.937 95.9844 65.7237C90.4326 67.74 81.3894 72.0722 78.7954 79.5029C75.6802 88.4241 82.5424 99.5763 85.6355 103.958C86.3896 105.034 87.7472 105.508 89.0075 105.135C94.1596 103.637 106.471 99.1894 109.593 90.246C112.185 82.8091 107.811 73.8273 104.705 68.7847C102.987 69.1993 101.357 69.9207 99.8954 70.9142C99.6054 71.1151 99.232 71.1518 98.9084 71.0112ZM88.9912 101.606C89.3177 102.064 89.2113 102.7 88.7534 103.027L88.7433 103.034C88.2852 103.353 87.6557 103.244 87.3313 102.79C85.0455 99.5877 77.8114 88.4919 80.7176 80.1695C81.7139 77.3186 83.9376 74.6766 87.3327 72.3134C87.7947 71.9918 88.4301 72.1056 88.7517 72.5677C89.0733 73.0298 88.9595 73.6651 88.4974 73.9867C85.4629 76.0989 83.4927 78.4055 82.6418 80.841C79.9944 88.4305 87.4669 99.4709 88.9912 101.606ZM107.665 89.5761C106.672 92.4269 104.447 95.0701 101.052 97.4333C100.59 97.7549 99.9546 97.6411 99.633 97.179C99.3114 96.7169 99.4252 96.0816 99.8873 95.76C102.923 93.6472 104.892 91.3411 105.742 88.9063C105.862 88.5621 106.156 88.3079 106.514 88.2394C106.872 88.1709 107.239 88.2986 107.477 88.5743C107.715 88.8499 107.788 89.2318 107.669 89.576L107.665 89.5761Z" fill="#1A5C4B"/>
</g>
</g>
</g>
<defs>
<filter id="filter0_d_4640_6064" x="23.6034" y="59.4344" width="59.6532" height="54.8705" filterUnits="userSpaceOnUse" color-interpolation-filters="sRGB">
<feFlood flood-opacity="0" result="BackgroundImageFix"/>
<feColorMatrix in="SourceAlpha" type="matrix" values="0 0 0 0 0 0 0 0 0 0 0 0 0 0 0 0 0 0 127 0" result="hardAlpha"/>
<feOffset dy="4"/>
<feGaussianBlur stdDeviation="2"/>
<feComposite in2="hardAlpha" operator="out"/>
<feColorMatrix type="matrix" values="0 0 0 0 0.2 0 0 0 0 0.193333 0 0 0 0 0.193333 0 0 0 0.25 0"/>
<feBlend mode="normal" in2="BackgroundImageFix" result="effect1_dropShadow_4640_6064"/>
<feBlend mode="normal" in="SourceGraphic" in2="effect1_dropShadow_4640_6064" result="shape"/>
</filter>
</defs>
</svg>
