<svg width="140" height="140" viewBox="0 0 140 140" fill="none" xmlns="http://www.w3.org/2000/svg">
<rect width="140" height="140" rx="12" fill="#D0F19E"/>
<circle opacity="0.6" cx="70" cy="70" r="45" fill="white"/>
<path d="M25.9254 85.5047C29.5879 90.1439 34.3695 92.728 36.3025 93.4402C36.7095 93.5419 37.5844 93.8064 37.8286 94.0506C38.1338 94.3558 42.1016 95.2714 45.7641 94.9662C49.4266 94.661 54.31 91.6089 55.5308 92.2193C56.7517 92.8297 59.8038 92.5245 62.5507 91.6089C65.2976 90.6933 69.5705 88.2516 73.5383 80.0109C77.506 71.7702 74.7591 64.7503 72.6227 58.9513C70.4862 53.1523 63.7715 50.7106 60.109 47.0481C56.4465 43.3856 43.9328 43.0803 35.3869 45.8272C28.5502 48.0248 26.2306 54.0679 25.9254 56.8148C24.908 57.8322 22.446 61.0268 20.7368 65.666C18.6003 71.465 21.3472 79.7057 25.9254 85.5047Z" fill="#1A5C4B"/>
<path d="M35.871 67.8064L36.357 73.5037C36.681 73.6394 37.4262 73.9107 37.815 73.9107C38.301 73.9107 38.301 70.6551 38.787 69.8412C39.273 69.0273 38.301 69.0273 38.301 68.6203C38.301 68.2948 37.977 67.1282 37.815 66.5856L35.871 67.8064Z" fill="white"/>
<path d="M48.1282 65.67C48.1282 66.4025 48.7387 67.3995 49.0439 67.8064L51.1804 66.8908C51.2821 66.5856 51.4245 65.8531 51.1804 65.3647C50.8751 64.7543 51.1804 64.1439 51.1804 63.8387V62.6178C51.1804 62.3126 50.8751 62.0074 50.8751 61.397C50.8751 60.7866 50.5699 59.8709 49.9595 59.8709C49.3491 59.8709 49.0439 60.7866 48.1282 61.397C47.2126 62.0074 47.5178 62.3126 47.5178 62.6178C47.5178 62.9231 48.1282 64.7543 48.1282 65.67Z" fill="white"/>
<path d="M64.1527 73.5444C64.722 75.5954 63.4411 77.8174 62.7296 78.672C62.9667 78.9161 63.5835 79.4045 64.1527 79.4045C64.8643 79.4045 65.9317 78.672 66.6433 77.5732C67.3549 76.4744 68.4223 74.2769 68.4223 73.1782C68.4223 72.0794 68.4223 70.6144 68.778 69.1494C69.1338 67.6844 67.7107 66.5856 66.6433 66.5856C65.5759 66.5856 65.2201 67.3181 64.8643 68.4169C64.5085 69.5156 64.1527 69.8819 63.7969 70.2481C63.4411 70.6144 63.4411 70.9806 64.1527 73.5444Z" fill="white"/>
<path d="M40.7318 51.0095C39.0226 52.2303 41.4439 54.5703 42.8683 55.5877C42.8683 55.1807 43.0514 54.1837 43.7839 53.4512C44.6995 52.5355 44.6995 52.5355 44.6995 51.3147C44.6995 50.0939 42.8683 49.4834 40.7318 51.0095Z" fill="white"/>
<path d="M45.22 82.1768C44.3044 84.2421 46.8731 86.4794 48.2719 87.3399C48.6534 86.9711 49.7216 86.086 50.9423 85.496C52.4683 84.7584 55.1387 82.9144 54.7572 80.3328C54.3757 77.7513 49.7979 76.6449 49.4164 78.4889C49.0349 80.3328 46.3645 79.5952 45.22 82.1768Z" fill="white"/>
<path d="M33.7345 79.4533C33.4293 81.5897 33.1241 85.2523 32.8188 85.8627L34.9553 87.9992L35.5657 83.7262L36.4814 80.9793C35.6675 79.7585 33.9786 77.7441 33.7345 79.4533Z" fill="white"/>
<path d="M28.2407 61.751C27.9355 63.8875 27.6303 67.55 27.3251 68.1605L29.4615 70.2969L30.072 66.024L30.9876 63.2771C30.1737 62.0562 28.4849 60.0418 28.2407 61.751Z" fill="white"/>
<path d="M56.6253 53.7667L57.6763 58.6501C58.2769 58.4466 59.5981 57.9176 60.0785 57.4293C60.6791 56.8188 59.9284 56.361 58.5771 56.0558C57.4961 55.8116 57.5261 55.2419 57.6763 54.9876L56.6253 53.7667Z" fill="white"/>
<path d="M74.3696 86.5047C78.0321 91.1439 82.8137 93.728 84.7467 94.4402C85.1537 94.5419 86.0286 94.8064 86.2728 95.0506C86.578 95.3558 90.5457 96.2714 94.2083 95.9662C97.8708 95.661 102.754 92.6089 103.975 93.2193C105.196 93.8297 108.248 93.5245 110.995 92.6089C113.742 91.6933 118.015 89.2516 121.982 81.0109C125.95 72.7702 123.203 65.7503 121.067 59.9513C118.93 54.1523 112.216 51.7106 108.553 48.0481C104.891 44.3856 92.377 44.0803 83.8311 46.8272C76.9944 49.0248 74.6748 55.0679 74.3696 57.8148C73.3522 58.8322 70.8902 62.0268 69.181 66.666C67.0445 72.465 69.7914 80.7057 74.3696 86.5047Z" fill="#1A5C4B"/>
<path d="M84.3152 68.8064L84.8012 74.5037C85.1252 74.6394 85.8704 74.9107 86.2592 74.9107C86.7452 74.9107 86.7452 71.6551 87.2312 70.8412C87.7172 70.0273 86.7452 70.0273 86.7452 69.6203C86.7452 69.2948 86.4212 68.1282 86.2592 67.5856L84.3152 68.8064Z" fill="white"/>
<path d="M96.5724 66.67C96.5724 67.4025 97.1829 68.3995 97.4881 68.8064L99.6245 67.8908C99.7263 67.5856 99.8687 66.8531 99.6245 66.3647C99.3193 65.7543 99.6245 65.1439 99.6245 64.8387V63.6178C99.6245 63.3126 99.3193 63.0074 99.3193 62.397C99.3193 61.7866 99.0141 60.8709 98.4037 60.8709C97.7933 60.8709 97.4881 61.7866 96.5724 62.397C95.6568 63.0074 95.962 63.3126 95.962 63.6178C95.962 63.9231 96.5724 65.7543 96.5724 66.67Z" fill="white"/>
<path d="M112.597 74.5444C113.166 76.5954 111.885 78.8174 111.174 79.672C111.411 79.9161 112.028 80.4045 112.597 80.4045C113.308 80.4045 114.376 79.672 115.087 78.5732C115.799 77.4744 116.866 75.2769 116.866 74.1782C116.866 73.0794 116.866 71.6144 117.222 70.1494C117.578 68.6844 116.155 67.5856 115.087 67.5856C114.02 67.5856 113.664 68.3181 113.308 69.4169C112.953 70.5156 112.597 70.8819 112.241 71.2481C111.885 71.6144 111.885 71.9806 112.597 74.5444Z" fill="white"/>
<path d="M89.176 52.0095C87.4668 53.2303 89.8881 55.5703 91.3124 56.5877C91.3124 56.1807 91.4956 55.1837 92.2281 54.4512C93.1437 53.5355 93.1437 53.5355 93.1437 52.3147C93.1437 51.0939 91.3124 50.4834 89.176 52.0095Z" fill="white"/>
<path d="M93.6642 83.1769C92.7486 85.2421 95.3173 87.4795 96.7161 88.34C97.0976 87.9712 98.1658 87.0861 99.3865 86.496C100.912 85.7584 103.583 83.9145 103.201 81.3329C102.82 78.7513 98.242 77.6449 97.8606 79.4889C97.4791 81.3329 94.8087 80.5953 93.6642 83.1769Z" fill="white"/>
<path d="M82.1787 80.4533C81.8735 82.5897 81.5683 86.2523 81.2631 86.8627L83.3995 88.9992L84.01 84.7262L84.9256 81.9793C84.1117 80.7585 82.4229 78.7441 82.1787 80.4533Z" fill="white"/>
<path d="M76.6849 62.751C76.3797 64.8875 76.0745 68.55 75.7693 69.1605L77.9057 71.2969L78.5162 67.024L79.4318 64.2771C78.6179 63.0562 76.9291 61.0418 76.6849 62.751Z" fill="white"/>
<path d="M105.069 54.7667L106.12 59.6501C106.721 59.4466 108.042 58.9176 108.523 58.4293C109.123 57.8188 108.373 57.361 107.021 57.0558C105.94 56.8116 105.97 56.2419 106.12 55.9876L105.069 54.7667Z" fill="white"/>
<g filter="url(#filter0_d_167_6992)">
<path d="M48.2927 100.855C52.1823 105.31 57.2604 107.792 59.3132 108.476C59.7454 108.573 60.6746 108.827 60.9339 109.062C61.258 109.355 65.4717 110.234 69.3613 109.941C73.2509 109.648 78.437 106.717 79.7336 107.303C81.0301 107.889 84.2714 107.596 87.1886 106.717C90.1058 105.838 94.6437 103.493 98.8574 95.5799C103.071 87.6667 100.154 80.9258 97.885 75.3572C95.6161 69.7886 88.4852 67.444 84.5956 63.927C80.706 60.41 67.4165 60.1169 58.3408 62.7546C51.0803 64.8648 48.6169 70.6679 48.2927 73.3056C47.2123 74.2826 44.5976 77.3502 42.7825 81.805C40.5135 87.3736 43.4307 95.2869 48.2927 100.855Z" fill="#ECF9D8"/>
<path d="M49.9254 103.505C53.5879 108.144 58.3695 110.728 60.3025 111.44C60.7095 111.542 61.5844 111.806 61.8286 112.051C62.1338 112.356 66.1016 113.271 69.7641 112.966C73.4266 112.661 78.31 109.609 79.5308 110.219C80.7517 110.83 83.8038 110.525 86.5507 109.609C89.2976 108.693 93.5705 106.252 97.5383 98.0109C101.506 89.7702 98.7591 82.7503 96.6227 76.9513C94.4862 71.1523 87.7715 68.7106 84.109 65.0481C80.4465 61.3856 67.9328 61.0803 59.3869 63.8272C52.5502 66.0248 50.2306 72.0679 49.9254 74.8148C48.908 75.8322 46.446 79.0268 44.7368 83.666C42.6003 89.465 45.3472 97.7057 49.9254 103.505Z" fill="#1A5C4B"/>
<path d="M59.2878 87.7295L59.7738 93.4268C60.0978 93.5625 60.8431 93.8338 61.2319 93.8338C61.7179 93.8338 61.7179 90.5782 62.2039 89.7643C62.6899 88.9504 61.7179 88.9504 61.7179 88.5434C61.7179 88.2179 61.3939 87.0513 61.2319 86.5087L59.2878 87.7295Z" fill="white"/>
<path d="M71.5451 85.593C71.5451 86.3256 72.1555 87.3226 72.4608 87.7295L74.5972 86.8139C74.699 86.5087 74.8414 85.7762 74.5972 85.2878C74.292 84.6774 74.5972 84.067 74.5972 83.7618V82.5409C74.5972 82.2357 74.292 81.9305 74.292 81.3201C74.292 80.7097 73.9868 79.794 73.3764 79.794C72.766 79.794 72.4608 80.7097 71.5451 81.3201C70.6295 81.9305 70.9347 82.2357 70.9347 82.5409C70.9347 82.8461 71.5451 84.6774 71.5451 85.593Z" fill="white"/>
<path d="M87.5696 93.4675C88.1389 95.5185 86.858 97.7405 86.1464 98.5951C86.3836 98.8392 87.0003 99.3276 87.5696 99.3276C88.2812 99.3276 89.3486 98.5951 90.0602 97.4963C90.7717 96.3975 91.8391 94.2 91.8391 93.1013C91.8391 92.0025 91.8391 90.5375 92.1949 89.0725C92.5507 87.6075 91.1275 86.5087 90.0602 86.5087C88.9928 86.5087 88.637 87.2412 88.2812 88.34C87.9254 89.4387 87.5696 89.805 87.2138 90.1712C86.858 90.5375 86.858 90.9037 87.5696 93.4675Z" fill="white"/>
<path d="M64.1487 70.9326C62.4395 72.1534 64.8608 74.4934 66.2851 75.5107C66.2851 75.1038 66.4683 74.1068 67.2008 73.3743C68.1164 72.4586 68.1164 72.4586 68.1164 71.2378C68.1164 70.0169 66.2851 69.4065 64.1487 70.9326Z" fill="white"/>
<path d="M68.6369 102.1C67.7213 104.165 70.29 106.403 71.6888 107.263C72.0703 106.894 73.1384 106.009 74.3592 105.419C75.8851 104.682 78.5556 102.838 78.1741 100.256C77.7926 97.6744 73.2147 96.568 72.8332 98.412C72.4518 100.256 69.7813 99.5184 68.6369 102.1Z" fill="white"/>
<path d="M57.1514 99.3764C56.8462 101.513 56.541 105.175 56.2357 105.786L58.3722 107.922L58.9826 103.649L59.8983 100.902C59.0844 99.6816 57.3956 97.6672 57.1514 99.3764Z" fill="white"/>
<path d="M51.6576 81.6741C51.3524 83.8106 51.0472 87.4731 50.7419 88.0836L52.8784 90.22L53.4888 85.9471L54.4045 83.2002C53.5906 81.9793 51.9017 79.9649 51.6576 81.6741Z" fill="white"/>
<path d="M80.0422 73.6898L81.0932 78.5732C81.6938 78.3697 83.015 77.8407 83.4954 77.3524C84.096 76.7419 83.3453 76.2841 81.994 75.9789C80.913 75.7347 80.943 75.165 81.0932 74.9107L80.0422 73.6898Z" fill="white"/>
</g>
<defs>
<filter id="filter0_d_167_6992" x="38" y="61" width="67" height="60.0276" filterUnits="userSpaceOnUse" color-interpolation-filters="sRGB">
<feFlood flood-opacity="0" result="BackgroundImageFix"/>
<feColorMatrix in="SourceAlpha" type="matrix" values="0 0 0 0 0 0 0 0 0 0 0 0 0 0 0 0 0 0 127 0" result="hardAlpha"/>
<feOffset dy="4"/>
<feGaussianBlur stdDeviation="2"/>
<feComposite in2="hardAlpha" operator="out"/>
<feColorMatrix type="matrix" values="0 0 0 0 0.2 0 0 0 0 0.193333 0 0 0 0 0.193333 0 0 0 0.25 0"/>
<feBlend mode="normal" in2="BackgroundImageFix" result="effect1_dropShadow_167_6992"/>
<feBlend mode="normal" in="SourceGraphic" in2="effect1_dropShadow_167_6992" result="shape"/>
</filter>
</defs>
</svg>
