<svg width="140" height="140" viewBox="0 0 140 140" fill="none" xmlns="http://www.w3.org/2000/svg">
<rect width="140" height="140" rx="70" fill="#D0F19E"/>
<circle opacity="0.6" cx="70" cy="70" r="50" fill="#ECF9D8"/>
<circle cx="74.5" cy="90.5001" r="17.5" fill="#E1F5C1"/>
<ellipse cx="68.509" cy="75" rx="22.5" ry="26" fill="#1A5C4B"/>
<path d="M108.654 103.208H99.7049V64.3899L70.5163 41.4486L41.3274 64.3899V103.208H32.3716C31.0619 103.208 30 104.27 30 105.58C30 106.889 31.0619 107.951 32.3716 107.951H108.654C109.964 107.951 111.025 106.889 111.025 105.58C111.025 104.27 109.964 103.208 108.654 103.208ZM61.0575 63.9559L68.6575 56.2435C69.148 55.7458 69.8174 55.4656 70.5161 55.4656C71.2148 55.4656 71.8844 55.7458 72.3747 56.2435L79.9747 63.9559C85.7415 69.808 85.7415 79.3301 79.9747 85.1822L73.1254 92.1327V95.918C73.1254 97.3591 71.9571 98.5274 70.5159 98.5274C69.0748 98.5274 67.9065 97.3591 67.9065 95.918V92.1327L61.0572 85.1822C55.2905 79.3303 55.2905 69.808 61.0575 63.9559Z" fill="#1A5C4B"/>
<path d="M33.2895 61.8253C34.3594 62.3548 35.5647 62.2413 36.516 61.5222L68.9042 36.0782C69.8507 35.3351 71.1824 35.3348 72.1285 36.0785L104.778 61.7338C105.677 62.4133 106.817 62.5204 107.829 62.0196C108.845 61.5165 109.452 60.5391 109.452 59.4047C109.452 58.4985 109.022 57.6302 108.3 57.0819C108.267 57.0571 108.235 57.0313 108.204 57.0049L73.6015 28.0265C71.7706 26.6656 69.234 26.6571 67.3937 28.0055L32.9053 56.5163C32.8734 56.5427 32.8408 56.5684 32.8076 56.5933C32.0348 57.1725 31.5732 58.0952 31.5732 59.0611C31.5732 60.2602 32.2148 61.2936 33.2895 61.8253Z" fill="#1A5C4B"/>
<path d="M82.6911 61.3227C82.4778 61.1094 82.188 60.9945 81.8926 61C81.8489 61 77.2494 61.0984 72.1959 61.7165C69.2098 62.083 66.6393 62.5534 64.561 63.1222C61.8046 63.8716 59.9232 64.7795 58.8075 65.8954C57.6754 67.0276 56.7347 68.4935 56.0785 70.1453C55.4331 71.7917 55.0776 73.5366 55.0174 75.3033C54.9573 77.163 55.2198 78.9516 55.805 80.6199C56.2425 81.8943 56.8824 83.0867 57.7028 84.1533C57.8997 83.2453 58.3481 81.9873 59.349 80.4831C60.4701 78.8039 62.0781 77.1247 64.1235 75.4893C66.6393 73.4873 69.8387 71.5347 73.6397 69.6914C74.1921 69.4343 74.8429 69.6749 75.1 70.2274C75.3516 70.7634 75.1273 71.4034 74.5968 71.6714C59.3982 79.0446 59.7537 85.3621 59.7646 85.4223C59.7974 85.6629 59.7482 85.9091 59.6224 86.1169C60.7491 87.0304 62.0288 87.736 63.3961 88.2064C64.9384 88.7424 66.5573 89.0104 68.187 88.9995C68.3621 88.9995 68.5371 88.994 68.7121 88.9885C70.4786 88.9284 72.2232 88.5728 73.8694 87.9274C75.5211 87.271 76.9868 86.3302 78.1189 85.198C79.2346 84.0822 80.1425 82.2006 80.8918 79.4439C81.4606 77.3654 81.9309 74.7946 82.2973 71.8081C82.9153 66.7541 83.0083 62.1596 83.0083 62.1103C83.0193 61.8259 82.9044 61.536 82.6911 61.3227Z" fill="#E1F5C1"/>
<g clip-path="url(#clip0_4393_31068)">
<path d="M52.6003 31.9649L52.0522 31.8391C50.658 31.5192 50.1896 29.7706 51.2358 28.7961L51.6477 28.4132C52.0466 28.0421 51.671 27.386 51.1489 27.5422L50.4732 27.7441C49.1142 28.1523 47.848 26.8846 48.2548 25.5257L48.4566 24.8499C48.6129 24.3274 47.9571 23.9522 47.5857 24.3512L47.1548 24.8161C46.1848 25.8574 44.444 25.3995 44.1152 24.0138L43.969 23.3963C43.8428 22.866 43.0873 22.8686 42.967 23.4L42.8412 23.9482C42.5214 25.342 40.7728 25.8107 39.7983 24.7646L39.4153 24.3526C39.0442 23.9537 38.3881 24.3289 38.5443 24.8514L38.7462 25.5272C39.1544 26.8861 37.8868 28.1523 36.5278 27.7456L35.8521 27.5437C35.3296 27.3875 34.9544 28.0432 35.3533 28.4146L35.8179 28.8466C36.8607 29.8166 36.4013 31.5556 35.0156 31.8862L34.3981 32.0324C33.8678 32.1586 33.8704 32.9141 34.4018 33.0362L34.9499 33.162C36.3438 33.4819 36.8125 35.2305 35.7663 36.205L35.3544 36.588C34.9555 36.9591 35.3307 37.6152 35.8532 37.4589L36.5289 37.2571C37.8879 36.8489 39.1541 38.1165 38.7473 39.4755L38.5455 40.1512C38.3892 40.6733 39.045 41.0489 39.4164 40.65L39.8484 40.1854C40.8184 39.1426 42.5574 39.602 42.888 40.9877L43.0342 41.6052C43.1604 42.1355 43.9159 42.1329 44.038 41.6015L44.1638 41.0533C44.4837 39.6591 46.2323 39.1908 47.2068 40.2369L47.5898 40.6489C47.9609 41.0478 48.6169 40.6722 48.4607 40.1501L48.2588 39.4743C47.8506 38.1154 49.1183 36.8492 50.4772 37.2559L51.153 37.4578C51.6751 37.6141 52.0507 36.9583 51.6517 36.5869L51.1871 36.1549C50.1444 35.1849 50.6038 33.4441 51.9894 33.1153L52.6069 32.9691C53.1343 32.8425 53.1317 32.087 52.6003 31.9649ZM49.4586 35.0175C48.8342 36.5003 47.6812 37.6982 46.2233 38.3786C44.7654 39.0591 43.1067 39.1736 41.5692 38.6998C40.0317 38.226 38.725 37.1979 37.9029 35.8149C37.0808 34.4319 36.802 32.7928 37.1204 31.2158C37.4389 29.6388 38.332 28.2363 39.6264 27.2808C40.9207 26.3252 42.5239 25.8847 44.1248 26.0447C45.7257 26.2047 47.21 26.9539 48.2896 28.1468C49.3692 29.3397 49.967 30.8911 49.967 32.5C49.9681 33.3648 49.7952 34.2209 49.4586 35.0175Z" fill="#1A5C4B"/>
<path d="M43.5 26.7013C42.3531 26.7013 41.232 27.0414 40.2784 27.6785C39.3248 28.3157 38.5816 29.2214 38.1427 30.2809C37.7038 31.3405 37.589 32.5064 37.8127 33.6313C38.0365 34.7561 38.5887 35.7893 39.3997 36.6003C40.2107 37.4113 41.2439 37.9635 42.3687 38.1873C43.4936 38.411 44.6595 38.2962 45.7191 37.8573C46.7787 37.4184 47.6843 36.6752 48.3215 35.7216C48.9586 34.768 49.2987 33.6469 49.2987 32.5C49.2987 30.9621 48.6878 29.4872 47.6003 28.3997C46.5128 27.3122 45.0379 26.7013 43.5 26.7013ZM45.2742 36.6648C45.1491 36.7225 45.0061 36.7281 44.8769 36.6804C44.7476 36.6326 44.6426 36.5355 44.5849 36.4104C44.5272 36.2853 44.5216 36.1423 44.5693 36.0131C44.617 35.8838 44.7141 35.7788 44.8393 35.7211C45.7044 35.3239 46.3884 34.6158 46.7556 33.7376C46.8105 33.613 46.9121 33.5149 47.0386 33.4644C47.1651 33.414 47.3063 33.4152 47.4319 33.4678C47.5575 33.5205 47.6574 33.6203 47.7101 33.7458C47.7628 33.8714 47.7641 34.0126 47.7138 34.1391C47.2465 35.2574 46.3756 36.159 45.2742 36.6648Z" fill="#1A5C4B"/>
</g>
<defs>
<clipPath id="clip0_4393_31068">
<rect width="19" height="19" fill="white" transform="translate(34 23)"/>
</clipPath>
</defs>
</svg>
