<svg width="140" height="140" viewBox="0 0 140 140" fill="none" xmlns="http://www.w3.org/2000/svg">
<rect width="140" height="140" rx="12" fill="#D0F19E"/>
<circle opacity="0.6" cx="70" cy="70" r="45" fill="white"/>
<path d="M49.5884 106.588C49.1754 107.055 48.5838 107.344 47.9195 107.404L41.2064 108L38 85.5628L45.4345 85.0085C46.7765 84.9054 47.9667 85.7596 48.0982 86.9448L50.0976 105.045C50.1583 105.601 49.9779 106.15 49.5884 106.588ZM102.794 92.3808C102.473 93.2085 101.829 93.8472 100.931 94.2001L74.1023 106.601C70.5503 107.988 66.4705 107.952 62.9083 106.501L60.5532 105.542C58.0615 104.525 55.3288 104.112 52.6331 104.354L51.7244 104.433L49.8413 87.3977L53.1018 87.1088C55.8986 86.8605 58.7139 87.3665 61.2427 88.5767C64.0598 89.9244 67.2022 90.4928 70.316 90.2117L77.4758 89.5746C78.8142 89.4512 80.055 90.4257 80.2018 91.739C80.2742 92.3948 80.0703 93.0289 79.6336 93.5239C79.2222 93.9893 78.6473 94.275 78.0135 94.3328L65.0156 95.4884C64.552 95.529 64.2115 95.91 64.257 96.3395C64.2991 96.7439 64.6667 97.0454 65.0949 97.0454C65.1219 97.0454 65.1488 97.0454 65.1774 97.0422L78.1737 95.8866C79.0891 95.8054 79.9219 95.4306 80.581 94.845L98.3009 88.3191C99.8738 87.6335 101.754 88.2597 102.591 89.7355C103.053 90.5537 103.128 91.5172 102.794 92.3808Z" fill="#1A5C4B"/>
<path d="M43.9859 103C43.4848 103 43 103.481 43 103.984C43 104.485 43.4848 104.966 43.9859 104.966C44.4869 104.966 44.9717 104.485 44.9717 103.984C44.9717 103.481 44.4869 103 43.9859 103Z" fill="white"/>
<path d="M82.1122 53.3017V90.6594C82.1122 90.7896 82.1383 91.5503 82.1122 91.6545C81.6598 90.716 80.4721 89.3954 79.5089 89.1091V53.3017C79.5089 52.5988 80.0841 52 80.8106 52C81.5394 52 82.1122 52.5988 82.1122 53.3017Z" fill="#1A5C4B"/>
<path d="M93.9825 71.6123C92.4124 71.31 90.8019 71 89.2144 71C88.7316 71 88.251 71.0287 87.7737 71.0953C86.2504 71.3068 84.9238 71.8888 83.9366 72.778C83.1785 73.4617 82.6044 74.3509 82.2777 75.3486C82.0727 75.9739 81.9834 76.4895 82.0025 76.9144C85.509 75.3571 89.4329 74.8203 93.72 75.3579C93.9428 75.3858 94.1014 75.5915 94.0737 75.8184C94.0467 76.0452 93.8429 76.2115 93.6217 76.178C89.4441 75.6566 85.6296 76.1849 82.2327 77.7144C82.2628 77.7626 82.2897 77.8125 82.3261 77.8571C82.6591 78.2635 83.1706 78.5311 83.6273 78.739C85.6145 79.6435 87.9466 80.0762 90.3706 79.989C92.8842 79.899 95.1442 79.2528 96.9037 78.1202C99.1374 76.6837 100.734 74.3945 102 72.2076C99.2572 72.6274 96.4707 72.0914 93.9825 71.6123Z" fill="#1A5C4B"/>
<path d="M60.0747 65.7962C60.8872 66.5001 61.7162 67.3331 62.6074 68.3429C63.5349 69.3925 64.4144 70.5027 65.2656 71.5758C65.8444 72.305 66.4221 73.0347 67.0174 73.7492C68.5778 75.6225 70.507 77.6661 72.9856 78.6248C74.438 79.1855 76.4939 79.3916 77.9111 78.2884C78.2818 77.9989 78.561 77.6398 78.7984 77.2674C75.0916 72.2613 70.6278 70.1687 70.5692 70.1416C70.2674 70.0042 70.1336 69.6479 70.271 69.3455C70.4083 69.0438 70.7653 68.9105 71.067 69.0473C71.3126 69.159 75.6293 71.1804 79.3927 76.0397C79.4466 75.8827 79.5033 75.7226 79.542 75.5803C79.9247 74.1695 79.8637 72.642 79.3717 71.28C78.7952 69.6808 77.5729 68.1562 75.8375 66.8711C73.3284 65.0112 70.1665 63.8735 66.6945 63.5794C65.0061 63.4379 61.0258 63.2565 58 64.3291C58.1855 64.4565 58.3781 64.5827 58.5742 64.7118C59.079 65.0435 59.6015 65.3864 60.0747 65.7962Z" fill="#1A5C4B"/>
<path d="M80.5 29C77.6322 29 74.8287 29.8504 72.4442 31.4437C70.0597 33.037 68.2012 35.3016 67.1038 37.9511C66.0063 40.6006 65.7191 43.5161 66.2786 46.3288C66.8381 49.1415 68.2191 51.7252 70.247 53.753C72.2748 55.7809 74.8585 57.1619 77.6712 57.7214C80.4839 58.2809 83.3994 57.9937 86.0489 56.8962C88.6984 55.7988 90.963 53.9403 92.5563 51.5558C94.1496 49.1713 95 46.3678 95 43.5C95 39.6544 93.4723 35.9662 90.753 33.247C88.0338 30.5277 84.3456 29 80.5 29ZM83.2937 39.6333H84.3667C84.623 39.6333 84.8689 39.7352 85.0502 39.9165C85.2315 40.0977 85.3333 40.3436 85.3333 40.6C85.3333 40.8564 85.2315 41.1022 85.0502 41.2835C84.8689 41.4648 84.623 41.5667 84.3667 41.5667H83.2937C83.101 42.5121 82.6298 43.3782 81.9407 44.0535C81.2516 44.7288 80.3761 45.1825 79.427 45.356L84.9467 49.4933C85.0482 49.5695 85.1338 49.6649 85.1985 49.7742C85.2631 49.8834 85.3057 50.0043 85.3236 50.13C85.3416 50.2556 85.3346 50.3836 85.3031 50.5066C85.2716 50.6295 85.2162 50.7451 85.14 50.8467C85.0638 50.9482 84.9684 51.0338 84.8592 51.0985C84.7499 51.1631 84.629 51.2057 84.5034 51.2236C84.3777 51.2416 84.2497 51.2346 84.1268 51.2031C84.0038 51.1716 83.8882 51.1162 83.7867 51.04L76.0533 45.24C75.891 45.1183 75.7711 44.9486 75.7106 44.7549C75.6501 44.5612 75.6521 44.3535 75.7163 44.161C75.7804 43.9685 75.9035 43.8011 76.0681 43.6825C76.2327 43.5638 76.4305 43.5 76.6333 43.5H78.5667C79.165 43.4983 79.7481 43.3116 80.2362 42.9655C80.7242 42.6194 81.0932 42.1308 81.2927 41.5667H76.6333C76.377 41.5667 76.1311 41.4648 75.9498 41.2835C75.7685 41.1022 75.6667 40.8564 75.6667 40.6C75.6667 40.3436 75.7685 40.0977 75.9498 39.9165C76.1311 39.7352 76.377 39.6333 76.6333 39.6333H81.2927C81.0932 39.0692 80.7242 38.5806 80.2362 38.2345C79.7481 37.8884 79.165 37.7017 78.5667 37.7H76.6333C76.377 37.7 76.1311 37.5982 75.9498 37.4169C75.7685 37.2356 75.6667 36.9897 75.6667 36.7333C75.6667 36.477 75.7685 36.2311 75.9498 36.0498C76.1311 35.8685 76.377 35.7667 76.6333 35.7667H84.3667C84.623 35.7667 84.8689 35.8685 85.0502 36.0498C85.2315 36.2311 85.3333 36.477 85.3333 36.7333C85.3333 36.9897 85.2315 37.2356 85.0502 37.4169C84.8689 37.5982 84.623 37.7 84.3667 37.7H82.4333C82.8594 38.273 83.1532 38.9332 83.2937 39.6333Z" fill="#1A5C4B"/>
</svg>
