<svg width="140" height="140" viewBox="0 0 140 140" fill="none" xmlns="http://www.w3.org/2000/svg">
<rect width="140" height="140" rx="12" fill="#D0F19E"/>
<circle opacity="0.6" cx="70" cy="70" r="45" fill="white"/>
<path fill-rule="evenodd" clip-rule="evenodd" d="M68.9604 73.705C68.96 73.7053 68.957 73.7076 68.9527 73.714L63.8722 81.2537C62.2997 83.5874 63.9969 86.668 67.0952 87.1034C70.1934 87.5388 72.674 85.0455 71.8056 82.3686L69.0002 73.7207C68.9978 73.7133 68.9956 73.7103 68.9953 73.7099L68.9944 73.709C68.9933 73.7081 68.988 73.7049 68.9784 73.7036C68.9687 73.7022 68.9628 73.7038 68.9615 73.7043L68.9604 73.705ZM67.8658 73.12C68.4346 72.276 69.8946 72.4812 70.2087 73.4493L73.0141 82.0972C74.1337 85.5485 70.9355 88.7632 66.9408 88.2018C62.9461 87.6404 60.7578 83.6686 62.7854 80.6597L67.8658 73.12Z" fill="#D0F19E"/>
<path d="M61.5447 85.0943H74.7993V71.9986H61.5447V85.0943Z" fill="#1A5C4B"/>
<mask id="mask0_167_7027" style="mask-type:luminance" maskUnits="userSpaceOnUse" x="25" y="25" width="90" height="90">
<path d="M25 25H115V115H25V25Z" fill="white"/>
</mask>
<g mask="url(#mask0_167_7027)">
<path d="M86.3231 92.7496C87.3657 93.7797 87.3657 95.4496 86.3231 96.4797C85.8018 96.9947 85.1185 97.2514 84.4354 97.2514C83.7521 97.2514 83.0689 96.9947 82.5477 96.4797L76.3634 90.3678H59.9809L53.7948 96.4797C53.2754 96.9947 52.5921 97.2514 51.9088 97.2514C51.2258 97.2514 50.5425 96.9947 50.0211 96.4797C48.9786 95.4496 48.9786 93.7797 50.0211 92.7496L56.2074 86.6395V70.4535L50.0211 64.3416C48.9786 63.3133 48.9786 61.6434 50.0211 60.6133C51.0639 59.5832 52.754 59.5832 53.7948 60.6133L59.9809 66.7252H76.3634L82.5477 60.6133C83.5902 59.5832 85.2804 59.5832 86.3231 60.6133C87.3657 61.6434 87.3657 63.3133 86.3231 64.3416L80.137 70.4535V86.6395L86.3231 92.7496ZM48.4521 30.2734H65.1346C71.4468 30.2734 76.7304 34.7262 77.9623 40.6322H70.9547C62.4912 40.6322 54.4318 37.0182 48.8434 30.7147L48.4521 30.2734ZM103.198 51.3742C100.38 48.7867 97.1901 45.809 95.0106 43.7682C92.8527 41.7467 90.0272 40.6322 87.0561 40.6322H83.3791C82.0854 31.8034 74.3965 25 65.1346 25H40.7234C35.0781 25 30.4862 29.7725 30.4862 35.6365V104.363C30.4862 110.228 35.0781 115 40.7234 115H96.6814C102.326 115 106.92 110.228 106.92 104.363V59.8223C106.92 56.6248 105.564 53.5451 103.198 51.3742Z" fill="#1A5C4B"/>
<path d="M108.696 42.2988L104.35 38.262C103.24 37.2312 101.506 37.2592 100.431 38.3255L98.5423 40.2102L107.004 48.0699L108.762 46.314C109.888 45.1974 109.858 43.3783 108.696 42.2988Z" fill="#1A5C4B"/>
</g>
</svg>
