<svg width="140" height="140" viewBox="0 0 140 140" fill="none" xmlns="http://www.w3.org/2000/svg">
<rect width="140" height="140" rx="70" fill="#D0F19E"/>
<circle opacity="0.6" cx="70" cy="70" r="50" fill="#ECF9D8"/>
<path d="M108.051 101.001H101.398V80.4557H105.122C105.966 80.4557 106.651 79.7714 106.651 78.9272V73.737C106.651 72.8928 105.966 72.2085 105.122 72.2085H49.4161C48.5749 72.2085 47.8941 72.8886 47.8893 73.7286V58.5024C47.8893 55.5242 50.3111 53.0861 53.3057 53.0861H73.7275C75.3464 53.0861 76.7206 52.0743 77.2659 50.6498C77.3077 50.6706 85.3154 54.6616 86.2621 68.9423H102.069C99.7293 46.6388 77.5238 42.3351 77.5238 42.3351C77.5238 40.2569 75.8221 38.5551 73.7275 38.5551H61.8802V34.4151H68.0984C68.9983 34.4151 69.7347 33.6787 69.7347 32.7787V27.3624C69.7347 26.4624 68.9983 25.726 68.0984 25.726H52.3729C51.473 25.726 50.7366 26.4624 50.7366 27.3624V32.7787C50.7366 33.6787 51.473 34.4151 52.3729 34.4151H58.6075V38.5551H38.7584C35.7802 38.5551 33.342 40.9769 33.342 43.9715V101.001H31.9494C31.0457 101.001 30.313 101.734 30.313 102.638C30.313 103.541 31.0457 104.274 31.9494 104.274H108.051C108.954 104.274 109.687 103.541 109.687 102.638C109.687 101.734 108.954 101.001 108.051 101.001ZM86.6712 54.5751C86.9983 53.7406 87.9475 53.3315 88.7984 53.6588C91.5311 54.7551 92.1529 56.5224 92.6602 57.946C92.9711 58.7806 93.2002 59.4514 93.8711 60.0733C94.5257 60.6951 94.5421 61.7424 93.9202 62.3969C93.6093 62.7242 93.1675 62.9042 92.742 62.9042C92.3329 62.9042 91.9238 62.7569 91.6129 62.446C90.3856 61.2842 89.9439 60.0406 89.5838 59.0424C89.1584 57.8478 88.9456 57.2424 87.5711 56.7024C86.7366 56.3588 86.3275 55.4097 86.6712 54.5751ZM43.1766 58.5024V77.6642C43.1766 78.5642 42.4566 79.3005 41.5402 79.3005C40.6402 79.3005 39.9039 78.5642 39.9039 77.6642V58.5024C39.9039 51.1224 45.9093 45.1169 53.3057 45.1169H60.0802C60.9802 45.1169 61.7166 45.8533 61.7166 46.7532C61.7166 47.6533 60.9802 48.3896 60.0802 48.3896H53.3057C47.7256 48.3896 43.1766 52.9224 43.1766 58.5024ZM53.142 101.001H47.8893V78.9356C47.8941 79.7756 48.5749 80.4557 49.4161 80.4557H53.142V101.001ZM56.4147 90.1824L66.1511 80.4624H76.8693L56.4147 100.917V90.1824ZM98.1257 89.9205L87.0475 100.999H76.3129L96.8493 80.4624H98.1257V89.9205Z" fill="#1A5C4B"/>
</svg>
