<svg width="140" height="140" viewBox="0 0 140 140" fill="none" xmlns="http://www.w3.org/2000/svg">
<rect width="140" height="140" rx="12" fill="#D0F19E"/>
<circle opacity="0.6" cx="70" cy="70" r="45" fill="white"/>
<path d="M91.6903 62.2335C93.1963 61.7295 94.1593 60.2565 93.9778 58.728C91.4488 37.248 64.2748 36.999 64.0003 36.999C62.8813 36.999 36.5473 37.284 34.0228 58.728C33.8428 60.2565 34.8043 61.7295 36.3103 62.2335C40.7638 63.723 49.1833 65.499 64.0003 65.499C78.8173 65.499 87.2368 63.723 91.6903 62.2335ZM52.5418 45.168C45.3523 47.7915 41.1718 52.278 40.1143 58.503C39.9898 59.2335 39.3538 59.751 38.6368 59.751C38.5528 59.751 38.4688 59.7435 38.3833 59.73C37.5673 59.5905 37.0183 58.8165 37.1563 57.999C38.3908 50.739 43.3558 45.3285 51.5143 42.3495C52.2928 42.0675 53.1523 42.465 53.4373 43.245C53.7208 44.0235 53.3203 44.8845 52.5418 45.168ZM57.9988 43.6515C57.2893 43.6515 56.6578 43.146 56.5258 42.4245C56.3743 41.61 56.9143 40.8285 57.7288 40.677C61.3588 40.0065 63.9748 39.999 64.0018 39.999C64.8313 39.999 65.5018 40.6695 65.5018 41.499C65.5018 42.3285 64.8313 42.999 64.0018 42.999C63.9808 42.999 61.5793 43.017 58.2748 43.6275C58.1818 43.6455 58.0918 43.653 58.0003 43.653L57.9988 43.6515Z" fill="#1A5C4B"/>
<path d="M73.4608 114.501C76.2988 106.368 77.2348 98.763 77.4973 93.414C74.0908 92.9865 71.6983 92.391 70.0873 91.851C68.0683 91.176 66.7843 89.175 67.0303 87.093C67.7893 80.64 71.5558 76.863 75.6898 74.646C75.5098 72.219 75.4093 69.9465 75.3988 68.0985C72.0748 68.3475 68.3038 68.499 64.0003 68.499C59.6968 68.499 55.9168 68.346 52.5898 68.097C52.5703 76.041 51.0193 93.072 45.0058 110.889C44.2228 113.219 44.3428 115.046 45.3718 116.481C48.6193 121.001 60.1963 121.001 64.0003 121.001C67.0528 121.001 70.7548 120.908 74.1718 120.336C72.9358 118.782 72.6598 116.774 73.4608 114.501Z" fill="#1A5C4B"/>
<path d="M95.5123 93.7185C93.3433 93.8925 90.8563 93.999 88.0003 93.999C85.1443 93.999 82.6573 93.8925 80.4883 93.7185C80.2033 99.2685 79.2178 107.106 76.2928 115.493C75.5623 117.567 76.1368 118.788 78.2758 119.711C81.2578 120.998 86.1568 120.998 88.0003 120.998C94.4518 120.998 98.3503 120.112 99.5908 118.368C99.7768 118.105 100.344 117.308 99.7093 115.493C96.7843 107.104 95.7988 99.267 95.5138 93.717L95.5123 93.7185Z" fill="#1A5C4B"/>
<path d="M87.9988 74.499C87.3298 74.499 71.5138 74.6835 70.0108 87.447C69.9298 88.125 70.3633 88.7805 71.0413 89.007C73.2613 89.751 78.4198 90.999 88.0018 90.999C97.5838 90.999 102.741 89.751 104.962 89.007C105.639 88.7805 106.072 88.125 105.993 87.4485C104.49 74.6835 88.6738 74.5005 88.0018 74.499H87.9988Z" fill="#1A5C4B"/>
</svg>
