<svg width="36" height="36" viewBox="0 0 36 36" fill="none" xmlns="http://www.w3.org/2000/svg">
<rect width="36" height="36" rx="18" fill="#006633"/>
<path d="M17.0988 6.04396C16.911 6.06672 16.837 6.10656 16.8256 6.18625C16.8029 6.2887 16.8313 6.29439 17.2753 6.26024C17.5371 6.23747 17.9014 6.2204 18.0835 6.2204C18.3681 6.2204 18.4079 6.20901 18.4079 6.10656C18.4079 5.99842 18.3738 5.99273 17.8843 6.00411C17.594 6.00411 17.2411 6.02688 17.0988 6.04396Z" fill="white" stroke="white" stroke-width="0.3"/>
<path d="M19.6146 6.20333C19.626 6.27163 19.6943 6.31147 19.8024 6.32285C19.8992 6.33424 20.2293 6.39115 20.5423 6.45376C20.9123 6.52206 21.1286 6.53914 21.1627 6.50499C21.2652 6.40254 21.1001 6.31716 20.5594 6.21471C19.8536 6.07811 19.5861 6.07242 19.6146 6.20333Z" fill="white" stroke="white" stroke-width="0.3"/>
<path d="M14.8335 6.47084C14.1562 6.67005 14.0139 6.74404 14.1221 6.85218C14.1676 6.89772 14.3497 6.86926 14.8051 6.73835C15.5905 6.50499 15.6873 6.45946 15.6588 6.37408C15.6247 6.26025 15.5051 6.27163 14.8335 6.47084Z" fill="white" stroke="white" stroke-width="0.3"/>
<path d="M22.3068 6.78959C22.2498 6.88635 22.2954 6.91481 23.0296 7.22785C23.428 7.3986 23.7183 7.49536 23.7638 7.4669C23.8891 7.39291 23.7297 7.26769 23.1719 7.02864C22.5401 6.74975 22.3637 6.69852 22.3068 6.78959Z" fill="white" stroke="white" stroke-width="0.3"/>
<path d="M11.0884 7.46689C10.0411 7.75148 9.06785 8.49709 8.68081 9.31101C8.10026 10.5233 8.14579 11.9463 8.80034 13.0334C8.90279 13.2098 9.17599 13.5513 9.40366 13.7904L9.81346 14.2343L9.54595 14.4335C8.81172 14.9743 8.40761 15.6402 8.24255 16.5964C8.16856 17.0005 8.1401 17.0745 7.88397 17.3534C7.12128 18.2128 6.68871 19.9204 7.16113 20.2334C7.37741 20.3757 7.80429 20.1936 8.38484 19.7041C8.61251 19.5106 8.80034 19.3683 8.81172 19.374C9.13615 19.8862 9.63133 20.37 10.4965 21.0189C10.764 21.2124 11.1624 21.5539 11.3844 21.7645C11.612 21.9808 11.834 22.1572 11.8796 22.1572C12.13 22.1572 12.352 21.5197 12.3064 20.8993C12.2666 20.3245 12.0674 19.9887 11.225 19.1007C10.8266 18.6739 10.4965 18.3039 10.4965 18.2811C10.4965 18.1104 11.3616 18.3494 12.0731 18.7137C12.7162 19.0438 13.2569 19.1634 13.9343 19.1235C15.1011 19.0552 16.0174 18.486 16.7346 17.3762C17.1672 16.7102 17.2355 16.4484 17.2355 15.5548C17.2355 14.8718 17.2184 14.7352 17.0818 14.3311C16.8883 13.7562 16.672 13.3806 16.2963 12.9708C15.5052 12.1056 14.105 11.4568 12.9894 11.434C12.5398 11.4283 12.4829 11.4397 12.352 11.5649C12.1755 11.7357 12.1698 11.8666 12.3235 12.2764C12.5227 12.8171 13.052 13.2952 13.9456 13.7505C14.3498 13.9554 14.8563 14.4392 15.0328 14.7807C15.232 15.1735 15.2775 15.754 15.1352 16.0671C15.0271 16.3061 14.936 16.363 14.936 16.1923C14.936 16.1411 14.8734 15.9646 14.7994 15.7996C14.4351 15.0141 13.5984 14.0636 13.035 13.7904C12.7162 13.6367 11.9592 13.4716 11.8568 13.5399C11.834 13.5513 11.76 13.4773 11.6974 13.3692C11.6291 13.2611 11.3787 12.9594 11.1453 12.6976C10.4111 11.8837 10.172 11.1551 10.4054 10.4437C10.5762 9.94279 11.1909 9.48745 11.7828 9.42484C12.2723 9.37362 12.5398 9.51022 13.2 10.1477C14.2245 11.138 14.9872 11.5308 16.0459 11.6048C17.0476 11.6788 17.9128 11.3316 18.6925 10.5461C19.4609 9.77204 19.8081 9.0435 19.5804 8.6963C19.5008 8.57109 19.4438 8.55401 19.1706 8.55401C18.7551 8.55401 18.3055 8.71338 17.4233 9.16871C16.7232 9.53868 16.6777 9.55006 16.2849 9.55006C15.6759 9.55006 15.2775 9.33377 14.5547 8.62231C13.6724 7.74579 13.035 7.43274 12.0389 7.38152C11.612 7.36444 11.4014 7.38152 11.0884 7.46689ZM12.517 7.67179C13.2057 7.81978 13.6554 8.0816 14.3441 8.75891C15.5621 9.94279 16.3191 10.0908 17.5485 9.37931C18.1404 9.03211 18.6584 8.8329 19.0397 8.79875C19.4211 8.75891 19.4666 8.82152 19.3471 9.21994C19.2503 9.55006 18.6299 10.3412 18.2201 10.6713C17.1159 11.5365 15.7101 11.5991 14.4124 10.8307C14.1847 10.6941 13.7351 10.3241 13.3708 9.97694C12.6195 9.25978 12.4146 9.15733 11.8226 9.19148C11.3559 9.21425 11.0144 9.36792 10.616 9.7265C10.2574 10.0509 10.098 10.438 10.098 11.0071C10.098 11.7015 10.32 12.1398 11.1681 13.1074C11.3673 13.335 11.5153 13.5286 11.5039 13.5399C11.4925 13.5513 11.3275 13.6026 11.1453 13.6538C10.9632 13.6993 10.6331 13.8188 10.4225 13.9156L10.0354 14.092L9.9216 13.9782L9.80208 13.8587L10.2062 13.6765C10.5818 13.5001 10.7014 13.3749 10.542 13.3237C10.5079 13.3123 10.2802 13.3863 10.0468 13.4887L9.61425 13.6765L9.3752 13.4147C9.10769 13.1131 8.74342 12.4699 8.8231 12.4414C8.85156 12.4301 9.03939 12.3618 9.24429 12.2935C9.47765 12.2081 9.61994 12.1284 9.63133 12.0658C9.65979 11.9349 9.51749 11.9406 9.09631 12.0829C8.91417 12.1455 8.73773 12.191 8.69789 12.1739C8.60113 12.1398 8.50437 11.5535 8.50437 11.0299V10.5632L8.72065 10.5233C8.83449 10.5063 9.05077 10.4892 9.19876 10.4892C9.46627 10.4892 9.56303 10.4323 9.5118 10.3014C9.49473 10.2501 9.35813 10.2388 9.04508 10.2615L8.60682 10.29L8.64097 10.0908C8.6922 9.74927 9.102 8.99796 9.38658 8.72476L9.6484 8.46863L9.97852 8.8329C10.1777 9.05488 10.3314 9.1801 10.3712 9.15733C10.4851 9.08903 10.4509 9.00935 10.1493 8.65646C9.98421 8.47433 9.86469 8.30927 9.87607 8.29788C9.9956 8.17836 10.6558 7.84255 10.9461 7.75717C11.4754 7.59211 11.4641 7.58642 11.4641 8.03607C11.4641 8.30927 11.4868 8.44587 11.5494 8.49709C11.6917 8.61662 11.7316 8.51417 11.7031 8.04176L11.6747 7.58642H11.8966C12.0218 7.58642 12.3007 7.62626 12.517 7.67179ZM13.6952 11.7698C14.1221 11.878 14.6514 12.0829 14.6514 12.1341C14.6514 12.1569 14.5262 12.2878 14.3668 12.4187C14.105 12.6407 13.9912 12.8797 14.1449 12.8797C14.1847 12.8797 14.3725 12.7374 14.566 12.5667C14.7653 12.3959 14.9417 12.2536 14.9645 12.2536C15.0385 12.2536 15.6361 12.6634 15.8751 12.8854L16.1313 13.1188L15.7613 13.3977C15.5166 13.5855 15.4084 13.705 15.4255 13.7619C15.4767 13.8985 15.5621 13.8644 15.9207 13.5798L16.2622 13.3123L16.376 13.4546C16.5354 13.6538 16.7858 14.1717 16.8939 14.5246C16.9452 14.6954 16.985 14.8377 16.985 14.8433C16.985 14.849 16.8029 14.9287 16.5866 15.0141C16.1426 15.1905 16.0174 15.293 16.1199 15.3954C16.1654 15.441 16.2849 15.4125 16.5695 15.2873C16.7801 15.1905 16.9736 15.1222 17.0021 15.1393C17.059 15.1735 17.0533 15.6914 16.9793 16.124C16.9167 16.511 16.6663 17.1485 16.5752 17.1485C16.5468 17.1485 16.3646 17.0574 16.1825 16.9493C15.8011 16.7273 15.6759 16.7045 15.6759 16.8468C15.6759 16.9094 15.8125 17.0233 16.0288 17.1485C16.2223 17.2566 16.3874 17.3762 16.3988 17.4046C16.4557 17.5811 15.2832 18.6056 15.1694 18.4804C15.1466 18.4519 15.0612 18.2811 14.9929 18.1047C14.9189 17.9283 14.8279 17.7632 14.7823 17.7518C14.6343 17.6949 14.64 17.8884 14.788 18.2356C14.8677 18.4234 14.936 18.5999 14.936 18.6226C14.936 18.7422 14.2644 18.8845 13.7123 18.8845C13.0634 18.8845 12.8016 18.8105 12.0275 18.4234C11.4584 18.1445 11.0315 18.0079 10.6501 17.9909C10.5022 17.9909 10.3542 17.951 10.32 17.9055C10.2859 17.8656 10.2403 17.6721 10.229 17.4729C10.1948 17.0517 10.3314 16.4826 10.4794 16.4256C10.616 16.3744 11.3901 16.4939 11.8113 16.6362C12.0105 16.7045 12.4089 16.8753 12.6878 17.0176C13.348 17.3534 13.8261 17.4046 14.3782 17.2054C14.7254 17.0745 14.936 16.9493 14.936 16.8582C14.936 16.8354 15.0441 16.659 15.1807 16.4655C15.4084 16.1354 15.4198 16.0898 15.4369 15.6516C15.4539 15.2759 15.4312 15.1166 15.3287 14.8433C15.1466 14.3539 14.5717 13.7961 13.8603 13.4204C13.1602 13.0505 12.7788 12.7033 12.5796 12.2536C12.4943 12.0601 12.4373 11.8666 12.4544 11.8211C12.5341 11.6161 13.035 11.5934 13.6952 11.7698ZM12.8471 13.9725C13.7692 14.4051 14.936 16.1183 14.714 16.7102C14.5888 17.0347 14.1505 16.8411 13.2569 16.0671C12.6878 15.5776 12.3349 15.4125 11.834 15.4125C11.4982 15.4125 11.373 15.441 11.0656 15.5947C10.5135 15.8679 10.2574 16.1411 10.098 16.6305C9.9956 16.955 9.97283 17.12 9.9956 17.4558C10.0354 18.0876 10.2062 18.3779 11.0372 19.2601C11.7999 20.057 12.0332 20.4326 12.0788 20.8993C12.1072 21.1953 11.9991 21.7929 11.9137 21.8498C11.8796 21.8669 11.686 21.7189 11.4754 21.5197C11.2648 21.3205 10.7811 20.9164 10.3997 20.6261C9.54026 19.9773 9.19876 19.6016 8.87433 18.9414C8.54421 18.2755 8.44176 17.8713 8.44176 17.2054C8.44176 16.0215 8.90848 15.145 9.87607 14.5018C10.6615 13.9782 11.2478 13.7847 12.0048 13.8075C12.4203 13.8188 12.5796 13.8473 12.8471 13.9725ZM12.4829 15.8109C12.6252 15.8849 12.9098 16.0898 13.1147 16.2663C13.3196 16.4484 13.6212 16.6818 13.7806 16.7899C13.9456 16.9037 14.0652 17.0119 14.0481 17.0403C14.031 17.0688 13.883 17.0916 13.718 17.0916C13.4789 17.0916 13.3139 17.0403 12.9041 16.8411C12.1869 16.4939 11.6348 16.3004 11.0998 16.2207L10.6445 16.1468L10.8607 15.9817C11.3616 15.6003 11.9479 15.5377 12.4829 15.8109ZM8.21978 17.638C8.21978 17.9055 8.36208 18.4462 8.53283 18.8332L8.66943 19.1406L8.345 19.4309C7.99212 19.7439 7.50832 20.0513 7.36034 20.0513C7.05298 20.0513 7.20097 19.004 7.61646 18.1844C7.79291 17.8429 8.08887 17.4331 8.16287 17.4331C8.19702 17.4331 8.21978 17.5241 8.21978 17.638Z" fill="white" stroke="white" stroke-width="0.3"/>
<path d="M24.7827 8.07022C24.7827 8.12144 24.9022 8.24097 25.0502 8.34342C25.1925 8.44018 25.4657 8.64508 25.6535 8.79306C25.921 9.00935 26.0121 9.04919 26.0747 8.99796C26.1771 8.91259 26.0348 8.75891 25.4258 8.32065C24.9591 7.97915 24.7827 7.91085 24.7827 8.07022Z" fill="white" stroke="white" stroke-width="0.3"/>
<path d="M26.917 9.8062C26.9 9.84035 26.9398 9.93711 27.0138 10.0225C27.5887 10.7283 27.8789 11.0584 27.9245 11.0584C28.0668 11.0584 28.0212 10.8649 27.822 10.6144C27.1675 9.8062 27.0081 9.66391 26.917 9.8062Z" fill="white" stroke="white" stroke-width="0.3"/>
<path d="M23.5305 10.2103C23.4052 10.3697 23.2345 10.5973 23.1491 10.7226L22.9897 10.9445H22.2441H21.4928L20.7074 12.3618L19.9162 13.779L19.5292 13.8075C19.1991 13.8302 19.1137 13.8587 18.9714 13.9953L18.8063 14.1547V15.0881V16.0215L18.9714 16.1809C19.0966 16.3118 19.2048 16.3517 19.4836 16.3858L19.8308 16.4256V17.4103V18.4007H19.5519C19.3584 18.4007 19.2218 18.4405 19.0852 18.5316L18.8917 18.6625L18.8746 19.7268L18.8633 20.7969L19.0112 20.9335L19.1649 21.0758H24.7371H30.315L30.48 20.9107L30.6451 20.7457V19.8008C30.6451 19.2203 30.6223 18.8048 30.5825 18.7194C30.4971 18.5316 30.2068 18.4007 29.8824 18.4007H29.6206L29.632 17.3875L29.649 16.3801L30.0361 16.3517C30.6394 16.3061 30.6508 16.2834 30.6337 15.0539L30.6166 14.0579L30.4686 13.9498C30.3548 13.8644 30.1841 13.8245 29.7572 13.7961L29.1994 13.7619L28.6644 13.022L28.135 12.2821L27.6968 12.1056L27.2585 11.9235L26.8715 11.2803C26.6609 10.9218 26.4503 10.6258 26.4105 10.6144C26.3649 10.603 26.1202 10.6998 25.8697 10.825C25.6193 10.9559 25.386 11.0584 25.3575 11.0584C25.3233 11.0584 25.2437 10.9104 25.1811 10.7226C25.0786 10.4437 25.0274 10.3811 24.8794 10.3355C24.7769 10.3014 24.4867 10.1989 24.2248 10.1022L23.7581 9.92571L23.5305 10.2103ZM25.0103 10.9559C25.09 11.1665 25.1697 11.3543 25.1924 11.3714C25.2152 11.3942 25.477 11.2917 25.7787 11.1437C26.0803 10.9958 26.3422 10.8876 26.3592 10.9104C26.382 10.9275 26.5528 11.2063 26.7406 11.5251L27.0878 12.1056L27.4805 12.265C27.6968 12.3504 27.9074 12.4528 27.9529 12.4927C28.0554 12.5781 28.8807 13.7221 28.8807 13.779C28.8807 13.8018 26.9341 13.8188 24.555 13.8188C21.7091 13.8188 20.2293 13.8018 20.2293 13.7619C20.2293 13.7278 20.548 13.1415 20.935 12.4528L21.6351 11.2007L22.3523 11.2177L23.0637 11.2291L23.4451 10.7169L23.8207 10.2103L24.3444 10.3924L24.8623 10.5803L25.0103 10.9559ZM30.3093 14.1319C30.4117 14.1888 30.4174 14.2628 30.4174 15.0995C30.4174 15.9362 30.4117 16.0102 30.3093 16.0671C30.2353 16.1069 28.3855 16.124 24.72 16.124C19.6999 16.124 19.2332 16.1183 19.1365 16.0272C19.0454 15.9475 19.034 15.8394 19.034 15.1109C19.034 14.4222 19.0511 14.2685 19.1308 14.1774C19.2161 14.0807 19.4666 14.075 24.7086 14.075C28.3855 14.075 30.2353 14.092 30.3093 14.1319ZM29.3929 17.4046V18.4007H24.7542H20.1154V17.4046V16.4086H24.7542H29.3929V17.4046ZM30.2979 18.7649C30.4117 18.8674 30.4174 18.93 30.4174 19.7724C30.4174 20.6375 30.4117 20.6717 30.2922 20.757C30.1784 20.8367 29.558 20.8481 24.72 20.8481C19.4893 20.8481 19.2731 20.8424 19.182 20.74C19.1023 20.6489 19.0909 20.5123 19.1023 19.7041C19.1194 18.7763 19.1194 18.7763 19.2617 18.7023C19.3755 18.6454 20.5252 18.634 24.7883 18.6454C29.9962 18.6568 30.1841 18.6625 30.2979 18.7649Z" fill="white" stroke="white" stroke-width="0.3"/>
<path d="M24.2818 10.8421C24.1964 10.9275 24.1907 11.3088 24.2761 11.4625C24.3786 11.6617 24.4753 11.4966 24.4696 11.1381C24.4639 10.8079 24.407 10.7169 24.2818 10.8421Z" fill="white" stroke="white" stroke-width="0.3"/>
<path d="M23.5134 11.7243C23.4622 11.7755 23.4622 12.0544 23.5191 12.1056C23.5418 12.1284 23.5589 12.2195 23.5589 12.2991C23.5589 12.413 23.5874 12.4528 23.6671 12.4528C23.8492 12.4528 23.9175 12.2764 23.8094 12.0886C23.7411 11.9747 23.7297 11.9064 23.7695 11.8666C23.8037 11.8324 23.8094 11.7812 23.7923 11.747C23.7467 11.6787 23.5703 11.6617 23.5134 11.7243Z" fill="white" stroke="white" stroke-width="0.3"/>
<path d="M21.6237 11.878C21.5042 12.0544 21.5327 12.3902 21.6636 12.413C21.7376 12.4244 21.7603 12.3845 21.7774 12.2138C21.7945 12.0146 21.8116 11.9975 21.9937 11.969C22.2897 11.9292 22.2612 11.7755 21.9538 11.7528C21.7546 11.7357 21.7034 11.7584 21.6237 11.878Z" fill="white" stroke="white" stroke-width="0.3"/>
<path d="M25.6364 12.0829C25.5909 12.1682 25.5966 12.2365 25.6706 12.3731L25.7616 12.5553L25.5852 12.5211C25.4486 12.4927 25.3974 12.5041 25.3689 12.5724C25.3234 12.6919 25.4486 12.7659 25.7047 12.7659C25.8869 12.7659 25.9267 12.7431 25.9552 12.6179C25.9779 12.5382 25.9665 12.413 25.9324 12.339C25.8926 12.2536 25.8926 12.191 25.9324 12.1512C25.9665 12.117 25.9722 12.0658 25.9552 12.0316C25.8926 11.9292 25.7047 11.9576 25.6364 12.0829Z" fill="white" stroke="white" stroke-width="0.3"/>
<path d="M24.2533 12.1227C24.2306 12.1398 24.2135 12.2309 24.2135 12.3219C24.2135 12.4415 24.242 12.4813 24.3273 12.4813C24.3899 12.4813 24.4412 12.4415 24.4412 12.3959C24.4412 12.2536 24.6062 12.2992 24.6461 12.4585C24.6973 12.6577 24.8737 12.6179 24.8567 12.4016C24.851 12.3162 24.8168 12.2081 24.777 12.1626C24.7087 12.0829 24.3216 12.0487 24.2533 12.1227Z" fill="white" stroke="white" stroke-width="0.3"/>
<path d="M22.8304 12.2878C22.8076 12.3105 22.7906 12.3788 22.7906 12.4358C22.7906 12.5211 22.745 12.5382 22.4832 12.5382C22.0962 12.5382 21.971 12.635 22.0563 12.874C22.1531 13.1472 22.3922 13.1529 22.3068 12.8797C22.2726 12.7773 22.2954 12.7716 22.5629 12.783C22.802 12.7943 22.8703 12.7716 22.9386 12.6805C23.0752 12.4984 22.9727 12.1455 22.8304 12.2878Z" fill="white" stroke="white" stroke-width="0.3"/>
<path d="M26.5243 12.7602C26.4617 12.8285 26.4332 12.9366 26.4446 13.0618C26.4674 13.3066 26.6211 13.318 26.6609 13.0789C26.7008 12.8512 26.9 12.8171 27.0366 13.0163C27.1561 13.1984 27.287 13.2098 27.287 13.0334C27.287 12.7089 26.7406 12.5154 26.5243 12.7602Z" fill="white" stroke="white" stroke-width="0.3"/>
<path d="M24.3501 13.1359C24.3273 13.1928 24.2362 13.2212 24.0996 13.2212C23.872 13.2212 23.7581 13.3009 23.8549 13.3977C23.8834 13.4261 24.0313 13.4546 24.1793 13.4603C24.4696 13.4774 24.555 13.4091 24.555 13.1757C24.555 13.0334 24.4013 12.9993 24.3501 13.1359Z" fill="white" stroke="white" stroke-width="0.3"/>
<path d="M20.087 14.9344C20.0073 15.0596 20.1667 15.1052 20.6903 15.0881C21.1229 15.0767 21.2253 15.054 21.2253 14.9857C21.2253 14.9174 21.1172 14.8946 20.6732 14.8832C20.3147 14.8718 20.1098 14.8889 20.087 14.9344Z" fill="white" stroke="white" stroke-width="0.3"/>
<path d="M28.5392 14.9857C28.5392 15.0938 28.5733 15.0995 29.114 15.0995C29.6263 15.0995 29.6832 15.0881 29.6661 14.997C29.6491 14.9174 29.5694 14.9003 29.0913 14.8832C28.5676 14.8661 28.5392 14.8718 28.5392 14.9857Z" fill="white" stroke="white" stroke-width="0.3"/>
<path d="M20.0415 19.8008C20.0187 19.8236 20.0016 19.8748 20.0016 19.9204C20.0016 19.9773 20.1325 19.9944 20.5765 19.9944C21.0887 19.9944 21.1457 19.983 21.1286 19.8919C21.1115 19.8122 21.0318 19.7951 20.5936 19.7781C20.3147 19.7724 20.0642 19.7781 20.0415 19.8008Z" fill="white" stroke="white" stroke-width="0.3"/>
<path d="M28.4936 19.835C28.3514 19.9773 28.5335 20.0513 29.0173 20.0513C29.5068 20.0513 29.6718 19.983 29.558 19.8407C29.4726 19.7439 28.5904 19.7382 28.4936 19.835Z" fill="white" stroke="white" stroke-width="0.3"/>
<path d="M7.27495 12.7773C6.97329 13.3977 6.92206 13.5912 7.07005 13.5912C7.14973 13.5912 7.82704 12.2536 7.7872 12.1853C7.69613 12.043 7.56523 12.1967 7.27495 12.7773Z" fill="white" stroke="white" stroke-width="0.3"/>
<path d="M6.49518 14.7409C6.47811 14.7637 6.39842 15.0995 6.31305 15.4865C6.19352 16.0101 6.17075 16.2037 6.22198 16.2549C6.26182 16.2947 6.30166 16.2947 6.33581 16.2606C6.38135 16.215 6.67163 15.0653 6.70008 14.8149C6.71147 14.7295 6.54072 14.6669 6.49518 14.7409Z" fill="white" stroke="white" stroke-width="0.3"/>
<path d="M6.03984 17.4729C6.01708 17.49 6 17.8372 6 18.2299C6 18.7706 6.01708 18.9698 6.07399 19.0211C6.11953 19.0552 6.17075 19.0666 6.18783 19.0438C6.21059 19.0267 6.22767 18.6511 6.22767 18.2185C6.22767 17.6038 6.21059 17.4331 6.15368 17.4331C6.10814 17.4331 6.05692 17.4501 6.03984 17.4729Z" fill="white" stroke="white" stroke-width="0.3"/>
<path d="M6.17075 20.3188C6.17075 20.4838 6.46671 21.6677 6.52932 21.7474C6.56347 21.7929 6.60901 21.7986 6.65454 21.7588C6.70577 21.7189 6.683 21.5311 6.5464 20.9619C6.40411 20.3586 6.35288 20.222 6.2732 20.222C6.21628 20.222 6.17075 20.2619 6.17075 20.3188Z" fill="white" stroke="white" stroke-width="0.3"/>
<path d="M29.6434 22.0263C29.5694 22.2255 29.2962 22.9256 29.1994 23.1419C29.1197 23.3297 29.114 23.3581 29.188 23.3866C29.2336 23.4037 29.2962 23.4037 29.3303 23.3866C29.3872 23.3468 29.8255 22.2653 29.8597 22.0718C29.8824 21.9238 29.6889 21.884 29.6434 22.0263Z" fill="white" stroke="white" stroke-width="0.3"/>
<path d="M22.1133 23.4094C21.7661 24.0013 21.4815 24.5192 21.4815 24.5591C21.4815 24.6502 22.9556 25.5267 23.0524 25.4925C23.0922 25.4755 23.2573 25.2307 23.4223 24.9518C23.5874 24.6672 23.7411 24.4339 23.7639 24.4339C23.8037 24.4339 24.1167 24.9575 24.0883 24.9746C23.8378 25.1169 23.7582 25.1966 23.7582 25.3161C23.7582 25.3901 23.7809 25.4641 23.8037 25.4811C23.8322 25.4982 24.2306 25.5494 24.6973 25.6007C25.3803 25.669 25.5624 25.6747 25.6193 25.6177C25.7673 25.4641 26.4333 24.1208 26.4048 24.0298C26.3593 23.8818 26.217 23.8533 26.0348 23.9501C25.9438 23.9956 25.847 24.0355 25.8243 24.0355C25.8015 24.0355 25.5624 23.6484 25.2949 23.1817L24.8111 22.3279H23.7752H22.745L22.1133 23.4094ZM25.09 23.3809C25.6763 24.394 25.6933 24.4225 25.8926 24.3314C25.9779 24.2916 26.0348 24.2802 26.0235 24.303C26.0121 24.3314 25.8812 24.5875 25.7332 24.8835L25.46 25.4128L25.2209 25.3787C25.09 25.3616 24.7884 25.3332 24.555 25.3104C24.2135 25.2762 24.1509 25.2592 24.2533 25.2136C24.3216 25.1852 24.3899 25.1226 24.407 25.077C24.4355 25.0087 24.0257 24.246 23.2687 22.937L23.0808 22.6125H23.8663H24.6461L25.09 23.3809ZM23.2459 23.4834L23.5931 24.0924L23.3028 24.6046C23.1435 24.8835 22.9898 25.1283 22.967 25.1396C22.9442 25.1567 22.6767 25.0201 22.3751 24.8437C21.9823 24.6103 21.8344 24.4965 21.8571 24.4339C21.9425 24.1891 22.8133 22.7833 22.8475 22.8231C22.8703 22.8459 23.0524 23.1419 23.2459 23.4834Z" fill="white" stroke="white" stroke-width="0.3"/>
<path d="M6.98469 22.9313C6.96192 22.9882 7.07576 23.2842 7.27496 23.6769C7.51971 24.1721 7.62216 24.3258 7.69615 24.3087C7.74738 24.2973 7.79291 24.2631 7.79291 24.2347C7.78722 24.1209 7.12698 22.8402 7.07576 22.8402C7.0473 22.8402 7.00745 22.8801 6.98469 22.9313Z" fill="white" stroke="white" stroke-width="0.3"/>
<path d="M9.33534 22.9882C9.22151 23.0963 9.22151 23.1476 9.32396 23.3411C9.43779 23.5631 9.62562 23.7167 10.024 23.9159C10.2232 24.0127 10.4225 24.155 10.468 24.229C10.6558 24.5136 10.542 24.9348 10.2403 25.0714C10.1322 25.1226 10.0127 25.0998 9.61992 24.9746C9.23289 24.8494 9.06783 24.8209 8.82309 24.8494C8.16285 24.9177 7.72459 25.2763 7.53107 25.9137C7.38308 26.4146 7.42292 26.6707 7.66198 26.6992C7.86688 26.722 8.04901 26.5911 8.3336 26.2268C8.45882 26.0617 8.64095 25.891 8.73771 25.8568C8.91984 25.7771 9.01091 25.7942 9.71099 26.0048C9.99558 26.0902 10.081 26.0959 10.3542 26.0333C10.7469 25.9479 11.0941 25.6861 11.3217 25.3218C11.5551 24.9348 11.5893 24.3656 11.4071 23.9273C11.2307 23.5175 10.8323 23.176 10.3598 23.0223C9.9102 22.8744 9.46056 22.8573 9.33534 22.9882ZM10.2232 23.2386C11.151 23.5232 11.5551 24.4225 11.0998 25.1966C10.781 25.743 10.2062 25.9251 9.53455 25.6918C9.1532 25.5609 8.78893 25.5381 8.60111 25.6348C8.53281 25.669 8.30514 25.8796 8.09455 26.1073C7.7132 26.5114 7.7132 26.5114 7.70751 26.3349C7.70182 25.8967 8.04332 25.3616 8.43036 25.1966C8.69787 25.0827 9.24996 25.0998 9.59716 25.2307C10.0696 25.4129 10.2972 25.3844 10.5591 25.1283C11.0599 24.6217 10.8835 24.0582 10.0923 23.6655C9.75083 23.4891 9.52886 23.2955 9.52886 23.1703C9.52886 23.0906 9.84759 23.1191 10.2232 23.2386Z" fill="white" stroke="white" stroke-width="0.3"/>
<path d="M28.3058 24.7868C28.1692 24.986 27.9814 25.2592 27.8733 25.3958C27.7708 25.5324 27.6854 25.669 27.6854 25.6974C27.6854 25.7999 27.8619 25.8113 27.9416 25.7088C28.2489 25.3104 28.7099 24.5989 28.7099 24.525C28.7099 24.3314 28.5335 24.451 28.3058 24.7868Z" fill="white" stroke="white" stroke-width="0.3"/>
<path d="M17.1558 24.7185C17.1558 24.8323 17.1785 24.8323 18.5673 24.8209C19.7739 24.8039 19.9732 24.7925 19.9732 24.7185C19.9732 24.6445 19.7739 24.6331 18.5673 24.616C17.1785 24.6046 17.1558 24.6046 17.1558 24.7185Z" fill="white" stroke="white" stroke-width="0.3"/>
<path d="M14.8335 24.912C14.5603 25.0031 14.3497 25.1283 14.1392 25.3218L13.9912 25.4584L13.718 25.3161C13.3309 25.1169 12.8984 25.1226 12.4942 25.3218C12.1755 25.4812 11.8966 25.8056 11.834 26.0788C11.7828 26.3065 11.4697 26.5911 11.0884 26.7447C10.7867 26.8643 10.7526 26.8699 10.5989 26.7903C10.3655 26.6707 9.93867 26.6309 9.66547 26.7049C9.1589 26.8415 8.68649 27.4391 8.63527 28.014C8.57835 28.6002 8.81171 29.01 9.32966 29.2491L9.61424 29.3857H13.1829C15.5678 29.3857 16.8029 29.3629 16.911 29.3231C17.1273 29.2434 17.3834 28.9986 17.4745 28.7767C17.6225 28.4352 17.5769 28.1107 17.281 27.4277C17.0875 26.9895 16.9907 26.6878 16.9736 26.4488C16.9167 25.8284 16.6037 25.2876 16.154 25.0258C15.8353 24.838 15.2206 24.7868 14.8335 24.912ZM15.767 25.1454C16.2906 25.299 16.6663 25.8454 16.7346 26.5512C16.763 26.796 16.8541 27.0919 17.0305 27.479C17.1671 27.792 17.298 28.1392 17.3094 28.253C17.3664 28.6628 17.0419 29.0726 16.6094 29.1409L16.3988 29.1751L16.5354 28.993C16.6435 28.845 16.6663 28.7482 16.6606 28.4238C16.6492 27.7465 16.4272 27.1887 16.0573 26.9155C15.932 26.8244 15.8125 26.796 15.5165 26.796C15.1978 26.796 15.0783 26.8301 14.7823 26.9895C14.3554 27.2171 13.8944 27.6668 13.7009 28.0424C13.5871 28.2644 13.5643 28.3839 13.5814 28.6002C13.5984 28.7482 13.6497 28.919 13.7066 28.9759C13.8489 29.1352 13.8204 29.158 13.4846 29.158H13.1659L13.2 28.9645C13.2911 28.4807 12.6195 27.9115 11.9535 27.9058C11.3274 27.9058 10.8493 28.3669 10.912 28.9133L10.9404 29.1694L10.2745 29.1466C9.69962 29.1296 9.58009 29.1125 9.36381 28.9873C9.0223 28.7994 8.87432 28.5376 8.87432 28.1278C8.87432 27.7351 9.0963 27.3424 9.46057 27.0862C9.76223 26.8699 10.172 26.8586 10.5363 27.0464C10.8209 27.1887 10.912 27.1944 11.0087 27.0862C11.0429 27.0407 11.1681 26.9724 11.2819 26.9326C11.5665 26.8415 12.0218 26.3975 12.0901 26.1357C12.1243 26.0105 12.2381 25.8454 12.3747 25.7259C12.7674 25.3673 13.2968 25.3218 13.7123 25.6064C13.8261 25.6804 13.9456 25.743 13.9741 25.743C14.0082 25.743 14.1392 25.6576 14.2644 25.5495C14.5945 25.2649 15.01 25.0827 15.3686 25.0657C15.4312 25.06 15.6133 25.0998 15.767 25.1454ZM15.9434 27.1375C16.1711 27.2911 16.376 27.8091 16.4045 28.3156C16.4272 28.7311 16.4215 28.7596 16.2792 28.8962C16.0857 29.0726 15.693 29.158 15.1181 29.158C14.2871 29.1523 13.9286 29.0043 13.8318 28.6344C13.7123 28.1677 14.418 27.3651 15.2092 27.0692C15.4539 26.9838 15.7442 27.0065 15.9434 27.1375ZM12.4829 28.3043C12.7674 28.4465 12.9553 28.6856 12.9325 28.8677C12.9041 29.0897 12.591 29.1751 11.9023 29.1409C11.4356 29.1239 11.3218 29.1011 11.225 29.0043C11.1225 28.9019 11.1169 28.862 11.1738 28.6913C11.3445 28.1733 11.908 28.0083 12.4829 28.3043Z" fill="white" stroke="white" stroke-width="0.3"/>
<path d="M20.9123 25.1567C20.6789 25.1681 20.457 25.208 20.4171 25.2421C20.2862 25.3446 20.3374 25.5039 20.5366 25.6405L20.7302 25.7771L20.2521 26.6195C19.9675 27.1147 19.7853 27.5017 19.8024 27.5586C19.8195 27.6099 20.0471 28.0083 20.3033 28.4465L20.7757 29.2434H22.0848H23.3882V28.3042V27.3651L22.7621 27.3537C22.4206 27.348 22.1132 27.3423 22.0905 27.3423C22.0563 27.3367 22.2612 26.9269 22.3694 26.7789C22.3751 26.7675 22.4604 26.8016 22.5515 26.8586C22.7336 26.961 22.8873 26.9382 22.9442 26.7959C22.9727 26.7106 22.4035 25.3673 22.2612 25.1852C22.21 25.1169 21.9368 25.1112 20.9123 25.1567ZM22.3523 25.9365C22.5003 26.2609 22.6198 26.5455 22.6198 26.5626C22.6198 26.5853 22.5686 26.574 22.5117 26.5398C22.4491 26.5114 22.3637 26.4829 22.3238 26.4829C22.284 26.4829 21.9425 27.0179 21.5668 27.6725C21.1912 28.327 20.8668 28.8506 20.8497 28.8393C20.8269 28.8279 20.6391 28.5205 20.4285 28.162L20.0471 27.5074L20.5366 26.6309C20.8041 26.1528 21.0261 25.7316 21.0261 25.6918C21.0261 25.6576 20.9635 25.595 20.8838 25.5608C20.6334 25.447 20.7302 25.4072 21.2709 25.3844C21.5555 25.3787 21.8571 25.3616 21.9368 25.3559C22.0677 25.3446 22.1075 25.4015 22.3523 25.9365ZM23.189 28.3042V28.9873H22.7735C22.5401 28.9873 22.0791 29.0043 21.749 29.0271C21.2709 29.0556 21.14 29.0442 21.14 28.9873C21.14 28.9474 21.3107 28.623 21.5156 28.2701L21.8913 27.6212H22.5401H23.189V28.3042Z" fill="white" stroke="white" stroke-width="0.3"/>
<path d="M25.6819 25.8739C25.2778 26.0959 24.9534 26.3178 24.9534 26.3577C24.9534 26.426 25.2721 27.0122 25.5112 27.3765C25.5909 27.5074 25.5909 27.5074 25.2437 27.5074H24.8965V27.3139C24.8965 27.0976 24.7826 26.9667 24.629 27.0179C24.4696 27.0748 23.5703 28.401 23.6045 28.5319C23.6557 28.7311 24.4696 29.9548 24.5721 29.989C24.7314 30.0402 24.8396 29.9093 24.8396 29.6646V29.4426L25.847 29.4312L26.8601 29.4141L27.3553 28.5604C27.6285 28.088 27.8505 27.6895 27.8562 27.6668C27.8562 27.6497 27.5716 27.1431 27.2244 26.5455C26.8089 25.8284 26.5585 25.4584 26.4959 25.4584C26.4446 25.4584 26.0804 25.6462 25.6819 25.8739ZM26.9626 26.5967C27.2358 27.0635 27.4578 27.4619 27.4578 27.479C27.4578 27.496 27.0992 27.5017 26.6609 27.496L25.8584 27.479L25.551 26.9553L25.2437 26.426L25.8242 26.0845C26.143 25.8967 26.4162 25.743 26.4332 25.743C26.4503 25.743 26.6894 26.1243 26.9626 26.5967ZM24.629 27.5074C24.5607 27.7749 24.646 27.792 26.0974 27.792C26.8487 27.792 27.4578 27.8091 27.4578 27.8318C27.4578 27.8603 27.2927 28.1563 27.0935 28.5035C26.7918 29.0214 26.7008 29.1352 26.5698 29.1637C26.4788 29.1865 26.0007 29.2035 25.5112 29.2092L24.6119 29.2149V29.4255C24.6119 29.6873 24.5834 29.6589 24.1566 28.9986L23.8492 28.5205L23.9517 28.3441C24.0598 28.1449 24.6005 27.3936 24.6347 27.3936C24.646 27.3936 24.646 27.4448 24.629 27.5074Z" fill="white" stroke="white" stroke-width="0.3"/>
<path d="M17.1387 25.595C17.1216 25.6405 17.1216 25.6918 17.1387 25.7088C17.1842 25.7544 19.9162 25.7544 19.9617 25.7088C19.9788 25.6918 19.9788 25.6405 19.9617 25.595C19.9162 25.4755 17.1842 25.4755 17.1387 25.595Z" fill="white" stroke="white" stroke-width="0.3"/>
</svg>
