<svg width="36" height="36" viewBox="0 0 36 36" fill="none" xmlns="http://www.w3.org/2000/svg">
<rect width="36" height="36" rx="18" fill="#006633"/>
<path d="M16.6875 21.25C16.9982 21.25 17.25 20.9982 17.25 20.6875C17.25 20.3768 16.9982 20.125 16.6875 20.125C16.3768 20.125 16.125 20.3768 16.125 20.6875C16.125 20.9982 16.3768 21.25 16.6875 21.25Z" fill="white"/>
<path d="M21.1875 16.375C21.4982 16.375 21.75 16.1232 21.75 15.8125C21.75 15.5018 21.4982 15.25 21.1875 15.25C20.8768 15.25 20.625 15.5018 20.625 15.8125C20.625 16.1232 20.8768 16.375 21.1875 16.375Z" fill="white"/>
<path d="M28.3125 13.75C27.9716 13.75 27.6476 13.8501 27.375 14.0346V9.625C27.375 9.22488 27.2186 8.84838 26.9351 8.56488C26.6516 8.28138 26.2751 8.125 25.875 8.125C25.5941 8.125 25.3342 8.2075 25.1096 8.34213C25.0736 8.00238 24.9307 7.6855 24.6851 7.43987C24.4016 7.15637 24.0251 7 23.625 7C22.8521 7 22.2214 7.58988 22.1411 8.34175C21.9113 8.20375 21.6499 8.125 21.375 8.125C20.5477 8.125 19.875 8.79775 19.875 9.625V10.204C19.4764 9.84588 18.9517 9.625 18.375 9.625H17.625C17.0685 9.625 16.5424 9.82863 16.125 10.1991V9.625C16.125 8.79775 15.4523 8.125 14.625 8.125C14.3501 8.125 14.0891 8.20338 13.8589 8.34175C13.7786 7.58988 13.1479 7 12.375 7C11.9749 7 11.5984 7.15637 11.3149 7.43987C11.0693 7.6855 10.9264 8.00238 10.8904 8.34213C10.6654 8.2075 10.4055 8.125 10.125 8.125C9.72487 8.125 9.34838 8.28138 9.06488 8.56488C8.78138 8.84838 8.625 9.22488 8.625 9.625V14.035C8.35087 13.8498 8.02763 13.75 7.6875 13.75C6.75713 13.75 6 14.5071 6 15.4375V20.5C6 22.0364 6.65812 23.5038 7.806 24.5268L9.375 25.9184V29.1246C9.375 29.3316 9.543 29.4996 9.75 29.4996C9.957 29.4996 10.125 29.3316 10.125 29.1246V25.7496C10.125 25.6424 10.0789 25.5404 9.999 25.4691L8.30475 23.9661C7.31662 23.0856 6.75 21.8223 6.75 20.4996V15.4371C6.75 14.9204 7.17075 14.4996 7.6875 14.4996C7.938 14.4996 8.17237 14.5971 8.3505 14.7779C8.5275 14.9523 8.625 15.1863 8.625 15.4371V18.6246C8.625 18.8316 8.793 18.9996 9 18.9996C9.04538 18.9996 13.5247 19.0401 13.8754 22.0221C13.881 22.612 14.1135 23.1685 14.5339 23.5938C14.9618 24.0168 15.5265 24.2496 16.125 24.2496H17.625V29.1246C17.625 29.3316 17.793 29.4996 18 29.4996C18.207 29.4996 18.375 29.3316 18.375 29.1246V24.2496H19.875C21.1009 24.2496 22.101 23.2641 22.1246 22.0435C22.3148 21.229 22.7696 20.56 23.4772 20.0549C23.646 19.9345 23.685 19.7001 23.5646 19.5318C23.4439 19.363 23.2095 19.3244 23.0415 19.4444C22.1677 20.0684 21.6101 20.9009 21.384 21.9183C21.2456 22.756 20.7023 23.4996 19.875 23.4996H16.125C15.7256 23.4996 15.3476 23.3436 15.0641 23.0635C14.6059 22.4905 14.6242 21.9719 14.6227 21.9584C14.2785 18.859 10.6541 18.3501 9.41138 18.2665C9.57938 17.4036 10.3391 16.7496 11.25 16.7496C11.457 16.7496 11.625 16.5816 11.625 16.3746C11.625 15.8718 11.82 15.4015 12.1762 15.0486C12.5269 14.6946 12.9971 14.4996 13.5 14.4996C13.707 14.4996 13.875 14.3316 13.875 14.1246C13.875 13.6218 14.07 13.1515 14.4262 12.7986C14.7769 12.4446 15.2471 12.2496 15.75 12.2496C15.957 12.2496 16.125 12.0816 16.125 11.8746C16.125 11.4753 16.281 11.0973 16.5611 10.8138C16.8476 10.5306 17.2253 10.3746 17.625 10.3746H18.375C19.2023 10.3746 19.875 11.0474 19.875 11.8746C19.875 12.0816 20.043 12.2496 20.25 12.2496C20.7529 12.2496 21.2231 12.4446 21.576 12.8009C21.93 13.1515 22.125 13.6218 22.125 14.1246C22.125 14.3316 22.293 14.4996 22.5 14.4996C23.0029 14.4996 23.4731 14.6946 23.826 15.0509C24.18 15.4015 24.375 15.8718 24.375 16.3746C24.375 16.5816 24.543 16.7496 24.75 16.7496C25.2529 16.7496 25.7231 16.9446 26.076 17.3009C26.3449 17.5675 26.5208 17.9031 26.5905 18.2695C26.1364 18.3051 25.3601 18.4053 24.5344 18.6899C24.3386 18.7574 24.2344 18.9708 24.3019 19.1665C24.42 19.4763 24.738 19.4129 24.7785 19.399C25.9189 19.006 26.9899 18.9996 27.0004 18.9996C27.207 18.9996 27.375 18.8316 27.375 18.6246V15.4371C27.375 15.1866 27.4725 14.9523 27.6532 14.7741C27.8276 14.5971 28.0616 14.4996 28.3125 14.4996C28.8293 14.4996 29.25 14.9204 29.25 15.4371V20.4996C29.25 21.8223 28.6834 23.0856 27.696 23.9654L26.001 25.4691C25.9207 25.5404 25.875 25.6424 25.875 25.7496V29.1246C25.875 29.3316 26.043 29.4996 26.25 29.4996C26.457 29.4996 26.625 29.3316 26.625 29.1246V25.9184L28.1947 24.526C29.3423 23.5034 30 22.036 30 20.4996V15.4371C30 14.5068 29.2429 13.75 28.3125 13.75ZM9.375 16.7995V9.625C9.375 9.42513 9.453 9.23688 9.59512 9.09513C9.73725 8.95338 9.92513 8.875 10.125 8.875C10.5386 8.875 10.875 9.21138 10.875 9.625V16.0285C10.2892 16.1129 9.7695 16.3941 9.375 16.7995ZM11.625 14.5428V8.5C11.625 8.30013 11.703 8.11188 11.8451 7.97013C11.9872 7.82838 12.1751 7.75 12.375 7.75C12.7886 7.75 13.125 8.08638 13.125 8.5V13.7781C12.1875 13.8764 11.6325 14.5353 11.625 14.5428ZM13.875 12.2928V9.625C13.875 9.42513 13.953 9.23688 14.0951 9.09513C14.2373 8.95338 14.4251 8.875 14.625 8.875C15.0386 8.875 15.375 9.21138 15.375 9.625V11.5285C14.4161 11.6526 13.8825 12.2849 13.875 12.2928ZM20.625 11.5285V9.625C20.625 9.21138 20.9614 8.875 21.375 8.875C21.5749 8.875 21.7631 8.953 21.9049 9.09513C22.0466 9.23725 22.125 9.42513 22.125 9.625V12.2924C22.1182 12.2856 21.5426 11.632 20.625 11.5285ZM22.875 13.7781V8.5C22.875 8.08638 23.2114 7.75 23.625 7.75C23.8249 7.75 24.0131 7.828 24.1549 7.97013C24.2966 8.11225 24.375 8.30013 24.375 8.5V14.5424C24.3682 14.5356 23.8125 13.8621 22.875 13.7781ZM25.125 16.0281V9.625C25.125 9.21138 25.4614 8.875 25.875 8.875C26.0749 8.875 26.2631 8.953 26.4049 9.09513C26.5466 9.23725 26.625 9.42513 26.625 9.625V16.7916C26.6186 16.7849 25.9999 16.0825 25.125 16.0281Z" fill="white"/>
<path d="M20.0625 18.625C20.3726 18.625 20.625 18.8774 20.625 19.1875C20.625 19.3945 20.793 19.5625 21 19.5625C21.207 19.5625 21.375 19.3945 21.375 19.1875C21.375 18.4638 20.7862 17.875 20.0625 17.875C19.3388 17.875 18.75 18.4638 18.75 19.1875C18.75 19.9112 19.3388 20.5 20.0625 20.5C20.2695 20.5 20.4375 20.332 20.4375 20.125C20.4375 19.918 20.2695 19.75 20.0625 19.75C19.7524 19.75 19.5 19.4976 19.5 19.1875C19.5 18.8774 19.7524 18.625 20.0625 18.625Z" fill="white"/>
<path d="M17.625 14.125C17.625 13.9184 17.7934 13.75 18 13.75C18.2066 13.75 18.375 13.9184 18.375 14.125C18.375 14.3316 18.543 14.5 18.75 14.5C18.957 14.5 19.125 14.332 19.125 14.125C19.125 13.5048 18.6202 13 18 13C17.3798 13 16.875 13.5048 16.875 14.125C16.875 14.332 17.043 14.5 17.25 14.5C17.457 14.5 17.625 14.332 17.625 14.125Z" fill="white"/>
<path d="M15.1875 17.5C14.9805 17.5 14.8125 17.668 14.8125 17.875C14.8125 18.082 14.9805 18.25 15.1875 18.25C15.9112 18.25 16.5 17.6612 16.5 16.9375C16.5 16.2138 15.9112 15.625 15.1875 15.625C14.4638 15.625 13.875 16.2138 13.875 16.9375C13.875 17.1445 14.043 17.3125 14.25 17.3125C14.457 17.3125 14.625 17.1445 14.625 16.9375C14.625 16.6274 14.8774 16.375 15.1875 16.375C15.4976 16.375 15.75 16.6274 15.75 16.9375C15.75 17.2476 15.4976 17.5 15.1875 17.5Z" fill="white"/>
<path d="M15.375 27.625C15.168 27.625 15 27.793 15 28V29.125C15 29.332 15.168 29.5 15.375 29.5C15.582 29.5 15.75 29.332 15.75 29.125V28C15.75 27.793 15.582 27.625 15.375 27.625Z" fill="white"/>
<path d="M20.625 27.625C20.418 27.625 20.25 27.793 20.25 28V29.125C20.25 29.332 20.418 29.5 20.625 29.5C20.832 29.5 21 29.332 21 29.125V28C21 27.793 20.832 27.625 20.625 27.625Z" fill="white"/>
</svg>
