<svg width="36" height="36" viewBox="0 0 36 36" fill="none" xmlns="http://www.w3.org/2000/svg">
<rect width="36" height="36" rx="18" fill="#006633"/>
<path fill-rule="evenodd" clip-rule="evenodd" d="M13.0567 27.3426H14.3483L14.676 27.8126H13.6294C13.4824 27.8126 13.3631 27.93 13.3631 28.0747V29.138C13.3631 29.2826 13.4825 29.4 13.6294 29.4C13.7764 29.4 13.8956 29.2826 13.8956 29.138V28.3367H14.397V29.138C14.397 29.2826 14.5163 29.4 14.6632 29.4C14.8101 29.4 14.9294 29.2826 14.9294 29.138V28.3367H15.4338V29.138C15.4338 29.2826 15.5531 29.4 15.7 29.4C15.8469 29.4 15.9662 29.2826 15.9662 29.138V28.3367H16.4676V29.1282C16.4676 29.2729 16.5869 29.3902 16.7338 29.3902C16.8808 29.3902 17 29.2729 17 29.1282V28.0747C17 27.93 16.8809 27.8126 16.7338 27.8126H15.3218L14.708 26.9324C14.6583 26.8611 14.5763 26.8187 14.4885 26.8187H13.0044C12.9729 26.6824 12.9281 26.5511 12.8713 26.4263C12.8709 26.4184 12.8701 26.4106 12.869 26.4028L12.411 23.2259C12.3924 23.0967 12.2799 23.0007 12.1474 23.0007H9.41201C9.27293 23.0007 9.15734 23.1061 9.14662 23.2425L9.00695 25.0252L7.47553 25.1615V23.8615C7.47553 23.4735 7.22006 23.1301 6.84419 23.013C6.63718 22.9484 6.49751 23.1395 6.49751 23.2628C6.49751 23.3804 6.57653 23.48 6.68505 23.513C6.83878 23.5617 6.94307 23.7025 6.94307 23.8615V25.2089L5.38708 25.3473C5.24908 25.3595 5.14371 25.4739 5.14489 25.6103L5.16091 27.5092C5.05839 27.6918 5 27.9016 5 28.1248C5 28.8286 5.58052 29.4 6.29561 29.4C6.91938 29.4 7.44083 28.9651 7.5638 28.3869H9.0785C9.45566 28.9943 10.1357 29.4 10.9112 29.4C12.0771 29.4 13.0271 28.4832 13.0567 27.3426ZM6.29561 27.3737C6.7168 27.3737 7.05876 27.7103 7.05876 28.1248C7.05876 28.5394 6.7168 28.8759 6.29561 28.8759C5.87442 28.8759 5.53246 28.5394 5.53246 28.1248C5.53246 27.7103 5.87442 27.3737 6.29561 27.3737ZM10.9112 25.6992C11.8019 25.6992 12.5251 26.4109 12.5251 27.2876C12.5251 28.1642 11.8019 28.8759 10.9112 28.8759C10.0206 28.8759 9.2974 28.1642 9.2974 27.2876C9.2974 26.4109 10.0206 25.6992 10.9112 25.6992ZM6.29561 27.8452C6.45239 27.8452 6.57968 27.9705 6.57968 28.1248C6.57968 28.2791 6.45239 28.4044 6.29561 28.4044C6.13883 28.4044 6.01154 28.2791 6.01154 28.1248C6.01154 27.9705 6.13883 27.8452 6.29561 27.8452ZM10.9112 26.3922C10.4091 26.3922 10.0016 26.7934 10.0016 27.2876C10.0016 27.7818 10.4091 28.183 10.9112 28.183C11.4133 28.183 11.8209 27.7818 11.8209 27.2876C11.8209 26.7934 11.4133 26.3922 10.9112 26.3922ZM8.96547 25.5551L5.67931 25.8475L5.68904 26.9979C5.87 26.9033 6.07651 26.8496 6.29561 26.8496C6.91938 26.8496 7.44083 27.2846 7.5638 27.8628H8.84565C8.79306 27.6799 8.76495 27.487 8.76495 27.2876C8.76495 27.0418 8.8077 26.8058 8.88624 26.5863C8.88595 26.577 8.88614 26.5676 8.88693 26.558L8.96547 25.5551ZM10.9112 26.9163C11.1194 26.9163 11.2884 27.0827 11.2884 27.2876C11.2884 27.4925 11.1194 27.6589 10.9112 27.6589C10.703 27.6589 10.5339 27.4925 10.5339 27.2876C10.5339 27.0827 10.703 26.9163 10.9112 26.9163ZM9.4876 25.7073C9.86662 25.3762 10.3653 25.1752 10.9112 25.1752C11.4025 25.1752 11.8554 25.3379 12.2171 25.6116L11.9162 23.5247H9.65854L9.4876 25.7073Z" fill="white"/>
<path d="M25.7193 23.7017L25.4609 23.4434L24.3452 24.5592L24.6035 24.8175L25.7193 23.7017Z" fill="white"/>
<path d="M24.9083 25.3364L26.2383 24.0065L25.98 23.7482L24.65 25.0781L24.9083 25.3364Z" fill="white"/>
<path d="M29.4174 29.1377C29.698 29.1377 29.9264 28.9093 29.9264 28.6286C29.9264 28.348 29.698 28.1196 29.4174 28.1196C29.1366 28.1196 28.9082 28.348 28.9082 28.6286C28.9082 28.9093 29.1366 29.1377 29.4174 29.1377ZM29.4174 28.485C29.4966 28.485 29.561 28.5494 29.561 28.6286C29.561 28.7078 29.4966 28.7723 29.4174 28.7723C29.3382 28.7723 29.2736 28.7078 29.2736 28.6286C29.2736 28.5494 29.3382 28.485 29.4174 28.485Z" fill="white"/>
<path d="M25.9197 27.5938C25.5159 27.5938 25.1875 27.9225 25.1875 28.3266C25.1875 28.7305 25.5159 29.059 25.9197 29.059C26.3239 29.059 26.6527 28.7305 26.6527 28.3266C26.6527 27.9225 26.3239 27.5938 25.9197 27.5938ZM25.9197 28.6936C25.7174 28.6936 25.5529 28.5289 25.5529 28.3266C25.5529 28.124 25.7174 27.9591 25.9197 27.9591C26.1223 27.9591 26.2874 28.124 26.2874 28.3266C26.2874 28.5289 26.1223 28.6936 25.9197 28.6936Z" fill="white"/>
<path d="M28.9215 24.3195L27.6465 24.3089L27.6434 24.6743L28.9185 24.6849L28.9215 24.3195Z" fill="white"/>
<path d="M28.9215 25.0882L27.6465 25.0776L27.6435 25.443L28.9185 25.4535L28.9215 25.0882Z" fill="white"/>
<path d="M28.9198 25.8569L27.6445 25.8464L27.6415 26.2117L28.9167 26.2223L28.9198 25.8569Z" fill="white"/>
<path d="M28.9178 26.6256L27.6426 26.6151L27.6396 26.9805L28.9148 26.991L28.9178 26.6256Z" fill="white"/>
<path d="M20 29.7946H20.4908H23.6489H23.7311V29.4292H23.6489V28.6719L24.5808 27.6127L24.5973 27.6695L24.603 27.6824C24.5055 27.8802 24.4533 28.1025 24.4533 28.3271C24.4533 28.7663 24.6483 29.16 24.9551 29.4292H24.534V29.7946H25.969V29.7921C26.7698 29.766 27.4167 29.0949 27.3878 28.2798H28.3058C28.2704 28.3922 28.2508 28.5094 28.2508 28.6287C28.2508 28.9387 28.3733 29.2201 28.5714 29.4292H27.0652V29.7946H29.5543V29.7857C30.1324 29.7174 30.5828 29.225 30.5828 28.6287C30.5828 28.498 30.5586 28.3704 30.5165 28.2488C31.3666 28.0979 32 27.3653 32 26.4743V26.4717V24.1006H31.147V23.8777H31.4136V21.4567H30.8215V20.9631L31.5567 20.2649L31.3051 20L30.4561 20.8063V21.4567H29.864V23.8777H30.1303V24.1006C30.111 24.1006 29.534 24.1006 29.5546 24.1006L29.2258 22.9497C27.0137 22.9497 25.3059 22.9497 23.2229 22.9497L24.0944 25.9456H24.0953L24.2355 26.4272L23.6489 27.0947V26.6416L20 29.7946ZM23.2835 27.5104V29.0873V29.4292H20.9816L23.2835 27.4402V27.5104ZM24.4757 25.9456H25.7735V26.8658C25.4288 26.9011 25.0993 27.0681 24.8706 27.3016L24.8666 27.2878C24.8569 27.2545 24.4497 25.8565 24.4757 25.9456ZM25.9209 29.4292C25.3131 29.4292 24.8187 28.9348 24.8187 28.3271C24.8187 27.7337 25.2932 27.2236 25.9209 27.2236C26.5207 27.2236 26.9882 27.6954 27.0207 28.2433C27.0739 28.8749 26.5655 29.4292 25.9209 29.4292ZM31.6346 24.466V26.1063H30.3879V24.466C30.4077 24.466 31.664 24.466 31.6346 24.466ZM30.4957 24.1006V23.8777H30.7817V24.1006H30.4957ZM30.2293 21.822H31.0482V23.5123H30.2293V21.822ZM29.5994 24.466H30.0226V26.4717H31.6346V26.4743C31.6346 27.2261 31.0702 27.8383 30.3328 27.9073C30.157 27.6838 29.9029 27.5287 29.5994 27.4786V24.466ZM30.2174 28.6287C30.2174 29.0701 29.8583 29.4292 29.4169 29.4292C28.9753 29.4292 28.6162 29.0701 28.6162 28.6287C28.6162 28.4751 28.6605 28.3256 28.7443 28.1958C28.892 27.9656 29.1436 27.8281 29.4169 27.8281C29.8644 27.8281 30.2174 28.1918 30.2174 28.6287ZM26.7635 23.3151H28.9504L29.234 24.308V27.4787C29.2152 27.4859 28.7981 27.5234 28.496 27.9145H27.3308C27.1812 27.401 26.7484 26.9641 26.1389 26.8743V25.9456H26.7635V23.3151ZM23.7096 23.3151H26.3981V25.5802H24.3693L23.7096 23.3151ZM24.3563 26.8432L24.4596 27.1972L23.6489 28.1187V27.6481L24.3563 26.8432Z" fill="white"/>
<path d="M7.28474 7C7.25968 6.99982 7.23483 7.00484 7.21163 7.01477C7.18842 7.02471 7.1673 7.03936 7.1495 7.05789C7.13169 7.07641 7.11754 7.09845 7.10786 7.12274C7.09818 7.14703 7.09316 7.17309 7.09308 7.19942V7.79887C7.04267 7.79913 6.99441 7.8204 6.95891 7.85801C6.9234 7.89562 6.90355 7.9465 6.90369 7.99947V8.59892H5.1909C5.16581 8.59884 5.14095 8.60398 5.11776 8.61403C5.09456 8.62409 5.07349 8.63886 5.05575 8.6575C5.03801 8.67615 5.02395 8.69829 5.01438 8.72267C5.00481 8.74704 4.99993 8.77316 5 8.79953V9.7994C4.99993 9.82576 5.00481 9.85188 5.01438 9.87626C5.02395 9.90063 5.03801 9.92278 5.05575 9.94142C5.07349 9.96006 5.09456 9.97484 5.11776 9.98489C5.14095 9.99495 5.16581 10.0001 5.1909 10H7.16944L7.66918 10.9923C7.66516 11.5848 7.59254 11.9382 7.51457 12.2913C7.43435 12.6546 7.349 13.0261 7.349 13.607C7.349 14.0994 7.49705 14.4332 7.68052 14.6386C7.86399 14.844 8.07501 14.9192 8.16514 14.9473L8.80739 15.1487V15.2162V16.0922C8.24223 16.2888 7.83248 16.8491 7.83248 17.5075C7.83248 18.3289 8.46957 19 9.25118 19C10.0034 19 10.6203 18.3778 10.6657 17.5989H12.422C12.447 17.599 12.4718 17.594 12.495 17.584C12.5181 17.5741 12.5392 17.5594 12.557 17.5409C12.5747 17.5224 12.5889 17.5003 12.5985 17.4761C12.6082 17.4518 12.6132 17.4258 12.6133 17.3995V15.8896L13.212 15.1459C13.2219 15.1361 13.2308 15.1252 13.2385 15.1134L13.6528 14.5989H16.0385C16.0635 14.5991 16.0883 14.594 16.1115 14.584C16.1346 14.5741 16.1557 14.5594 16.1735 14.5409C16.1912 14.5224 16.2054 14.5004 16.215 14.4761C16.2247 14.4518 16.2297 14.4258 16.2298 14.3995V13.5983C16.2297 13.572 16.2247 13.5459 16.215 13.5217C16.2054 13.4974 16.1912 13.4754 16.1735 13.4569C16.1557 13.4383 16.1346 13.4237 16.1115 13.4137C16.0883 13.4038 16.0635 13.3987 16.0385 13.3988H15.651C15.8952 13.1485 16.0484 12.8015 16.0532 12.4176C16.0537 12.4116 16.054 12.4055 16.054 12.3994V10.4664C16.054 10.44 16.0491 10.4138 16.0395 10.3894C16.0299 10.365 16.0159 10.3429 15.9981 10.3242C15.9803 10.3056 15.9592 10.2908 15.9359 10.2808C15.9127 10.2707 15.8878 10.2656 15.8627 10.2658H15.2405V9.66632C15.2406 9.61334 15.2208 9.56246 15.1852 9.52485C15.1497 9.48724 15.1015 9.46597 15.0511 9.46571H13.9087C13.8836 9.46558 13.8587 9.47068 13.8354 9.48071C13.8122 9.49074 13.7911 9.5055 13.7733 9.52415C13.7555 9.5428 13.7414 9.56496 13.7318 9.58936C13.7223 9.61376 13.7174 9.63992 13.7174 9.66632V10.2658H11.8614C11.811 10.266 11.7627 10.2873 11.7272 10.3249C11.6917 10.3625 11.6719 10.4134 11.672 10.4664V11.7534L11.4902 11.8011C11.0445 11.8152 10.6724 12.1543 10.5856 12.6H9.87642L8.04568 8.75424V7.99947C8.04576 7.97311 8.04087 7.94699 8.0313 7.92261C8.02174 7.89824 8.00768 7.87609 7.98994 7.85745C7.97219 7.83881 7.95112 7.82403 7.92793 7.81398C7.90473 7.80392 7.87988 7.79879 7.85479 7.79887H7.47412V7.39884H7.6654C7.71562 7.39858 7.7637 7.37748 7.79918 7.34012C7.83465 7.30277 7.85464 7.25219 7.85479 7.19942C7.85464 7.14665 7.83465 7.09608 7.79918 7.05872C7.7637 7.02137 7.71562 7.00026 7.6654 7H7.28474ZM7.28474 8.19889H7.6654V8.59892H7.28474V8.19889ZM5.38066 8.99934H5.76133V9.59998H5.38066V8.99934ZM6.14237 8.99934H6.52303V9.59998H6.14237V8.99934ZM6.90369 8.99934H7.7376L9.50294 12.71L9.07843 12.9337L7.45295 9.70644C7.43677 9.6743 7.41256 9.64741 7.38292 9.62865C7.35328 9.60989 7.31933 9.59998 7.28474 9.59998H6.90369V8.99934ZM14.0981 9.86573H14.8598V10.2658H14.0981V9.86573ZM12.0527 10.6662H15.6733V11.4225C15.4308 11.162 15.0932 10.9995 14.7207 10.9995C14.6348 10.9995 14.5511 11.0088 14.4697 11.0253C14.4596 11.0262 14.4497 11.0279 14.4398 11.0305L12.0527 11.6545L12.0527 10.6662ZM14.7207 11.3995C15.2485 11.3995 15.6733 11.8447 15.6733 12.3994C15.6733 12.9148 15.3065 13.3347 14.8311 13.3917H14.6107C14.1354 13.3348 13.7696 12.9148 13.7696 12.3994C13.7696 11.8447 14.1929 11.3995 14.7207 11.3995ZM13.5893 11.6649C13.463 11.8787 13.389 12.1301 13.389 12.3994C13.389 12.7867 13.5402 13.1378 13.7836 13.3917H12.2799C12.3977 13.2252 12.47 13.0217 12.47 12.7994C12.47 12.4972 12.3379 12.2287 12.1347 12.045L13.5893 11.6649ZM8.00977 11.6676L8.80739 13.2507V14.7308L8.27325 14.5648C8.2055 14.5436 8.07579 14.4968 7.95874 14.3657C7.84169 14.2347 7.73004 14.0184 7.73004 13.607C7.73004 13.0663 7.80487 12.748 7.88578 12.3815C7.9319 12.1726 7.97753 11.9431 8.00977 11.6676ZM11.5189 12.1999C11.8365 12.2 12.089 12.4657 12.089 12.7994C12.089 13.1331 11.8365 13.3988 11.5189 13.3988C11.2013 13.3988 10.947 13.1331 10.947 12.7994C10.947 12.4657 11.2013 12.2 11.5189 12.1999ZM9.80346 13H10.586C10.6753 13.4545 11.061 13.7989 11.5189 13.7989C11.5442 13.7989 11.5689 13.797 11.5938 13.7949C11.6055 13.7972 11.6174 13.7984 11.6293 13.7985H14.7131C14.7157 13.7985 14.7181 13.7989 14.7207 13.7989C14.7231 13.7989 14.7255 13.7986 14.7279 13.7985H14.7532C14.7555 13.7986 14.7577 13.7988 14.76 13.7989H15.8491V14.1989H13.5643C13.5368 14.1991 13.5096 14.2055 13.4847 14.2178C13.4598 14.2301 13.4377 14.2479 13.4199 14.27L12.9928 14.7995H9.18805V13.3234L9.80346 13ZM15.4363 14.6867C15.4119 14.6869 15.3878 14.692 15.3652 14.7018C15.3596 14.7044 15.354 14.7073 15.3486 14.7105C15.1857 14.8003 15.0403 14.9146 14.912 15.0454C14.6308 15.0514 14.3655 15.1276 14.1329 15.2603C14.1408 15.2254 14.1491 15.1904 14.1594 15.1559C14.1669 15.1307 14.1697 15.1042 14.1675 15.078C14.1653 15.0517 14.1582 15.0261 14.1466 15.0028C14.1349 14.9794 14.119 14.9587 14.0998 14.9418C14.0805 14.9249 14.0582 14.9122 14.0342 14.9044C13.9861 14.8888 13.934 14.894 13.8894 14.9187C13.8448 14.9434 13.8114 14.9857 13.7965 15.0363C13.7415 15.2214 13.7146 15.4117 13.7118 15.6004C13.5261 15.804 13.3849 16.0524 13.3062 16.3293C13.2883 16.2988 13.2704 16.268 13.2544 16.236C13.2428 16.2127 13.227 16.192 13.2078 16.1751C13.1886 16.1582 13.1664 16.1455 13.1425 16.1377C13.1187 16.1298 13.0936 16.127 13.0686 16.1293C13.0437 16.1317 13.0195 16.1392 12.9973 16.1514C12.9528 16.1761 12.9193 16.2183 12.9044 16.2689C12.8894 16.3195 12.8942 16.3742 12.9176 16.4211C13.0031 16.5924 13.1116 16.747 13.2362 16.8823C13.2423 17.1773 13.3148 17.4558 13.4411 17.6998C13.4077 17.6914 13.374 17.6825 13.3409 17.6716C13.2928 17.656 13.2408 17.6611 13.1962 17.6857C13.1516 17.7104 13.1182 17.7526 13.1032 17.8031C13.0889 17.8507 13.092 17.9021 13.1119 17.9474C13.1318 17.9927 13.1671 18.0285 13.2109 18.0478C13.2167 18.05 13.2227 18.0518 13.2287 18.0533C13.4049 18.1111 13.5853 18.1392 13.7647 18.1419C13.9587 18.3371 14.1957 18.4852 14.4595 18.5678C14.4301 18.5869 14.4004 18.6056 14.3695 18.6226C14.3473 18.6348 14.3276 18.6514 14.3115 18.6716C14.2954 18.6918 14.2833 18.7151 14.2758 18.7403C14.2683 18.7654 14.2656 18.7919 14.2679 18.8181C14.2702 18.8443 14.2773 18.8698 14.289 18.8931C14.3126 18.9399 14.3528 18.9749 14.4009 18.9905C14.4491 19.0062 14.5011 19.0011 14.5457 18.9765C14.7092 18.8864 14.8567 18.7723 14.9857 18.6409C15.2659 18.6342 15.5305 18.558 15.7625 18.4256C15.7545 18.461 15.7461 18.4961 15.7357 18.5312C15.7207 18.5818 15.7255 18.6366 15.749 18.6836C15.7724 18.7305 15.8126 18.7657 15.8608 18.7815C15.906 18.7964 15.9549 18.7931 15.9979 18.7722C16.0409 18.7512 16.0749 18.7142 16.0933 18.6683C16.0955 18.6622 16.0974 18.6559 16.099 18.6496C16.154 18.4643 16.1804 18.2746 16.1829 18.0859C16.3686 17.8824 16.5096 17.634 16.5885 17.3574C16.6065 17.3882 16.6242 17.4192 16.6403 17.4515C16.652 17.4748 16.6679 17.4955 16.6871 17.5123C16.7064 17.5291 16.7286 17.5418 16.7525 17.5496C16.7764 17.5573 16.8015 17.5601 16.8265 17.5576C16.8514 17.5552 16.8756 17.5476 16.8977 17.5353C16.9398 17.5123 16.9721 17.4735 16.9884 17.4267C17.0047 17.3799 17.0038 17.3284 16.9858 17.2823C16.9832 17.2763 16.9803 17.2705 16.9771 17.2648C16.8918 17.0938 16.7832 16.9412 16.6588 16.8064C16.6531 16.5106 16.5807 16.2319 16.454 15.9873C16.4873 15.9956 16.5204 16.0043 16.5534 16.0151C16.5773 16.023 16.6024 16.0258 16.6274 16.0235C16.6523 16.0212 16.6766 16.0137 16.6988 16.0015C16.721 15.9892 16.7407 15.9725 16.7567 15.9523C16.7728 15.9321 16.7849 15.9087 16.7923 15.8836C16.8071 15.833 16.8023 15.7783 16.7788 15.7315C16.7554 15.6846 16.7152 15.6495 16.6672 15.6337C16.4908 15.5759 16.3094 15.5476 16.1296 15.5447C15.9357 15.35 15.6989 15.202 15.4356 15.1193C15.4652 15.1001 15.4952 15.0812 15.5263 15.0641C15.5709 15.0393 15.6043 14.9971 15.6192 14.9465C15.6341 14.896 15.6294 14.8413 15.606 14.7944C15.5899 14.7618 15.5655 14.7345 15.5356 14.7155C15.5056 14.6965 15.4713 14.6865 15.4363 14.6867ZM9.18805 15.1999H12.67L12.2776 15.6874C12.2485 15.7236 12.2325 15.7695 12.2326 15.8169V16.3988H10.1962C9.94487 16.1619 9.61407 16.0163 9.25118 16.0163C9.22989 16.0163 9.20912 16.0185 9.18805 16.0194L9.18805 15.1999ZM15.0715 15.4502C15.2594 15.4683 15.4355 15.5264 15.5924 15.6175C15.5336 15.6347 15.4752 15.6544 15.4182 15.6774C15.3714 15.6966 15.3337 15.7344 15.3133 15.7826C15.2929 15.8308 15.2914 15.8855 15.3093 15.9349C15.3242 15.9757 15.3514 16.0103 15.3868 16.0334C15.4116 16.0494 15.4397 16.0592 15.4687 16.062C15.4977 16.0648 15.527 16.0606 15.5542 16.0497C15.6891 15.9953 15.8309 15.9629 15.975 15.9503C16.0897 16.096 16.176 16.2672 16.2271 16.4541C16.1746 16.4228 16.1213 16.3937 16.0661 16.3679C16.0432 16.357 16.0185 16.3511 15.9934 16.3503C15.9684 16.3495 15.9434 16.354 15.92 16.3634C15.8965 16.3728 15.8751 16.387 15.8569 16.4052C15.8387 16.4233 15.8241 16.4451 15.8139 16.4692C15.8037 16.4932 15.7981 16.5191 15.7974 16.5454C15.7968 16.5718 15.801 16.598 15.81 16.6226C15.819 16.6471 15.8325 16.6696 15.8498 16.6887C15.8671 16.7078 15.8878 16.7231 15.9107 16.7337C16.0416 16.795 16.164 16.8765 16.274 16.9737C16.2568 17.1707 16.2013 17.3553 16.1148 17.5199C16.0987 17.4584 16.0803 17.3975 16.0585 17.3379C16.0496 17.3133 16.0361 17.2908 16.0189 17.2717C16.0016 17.2526 15.981 17.2372 15.9581 17.2265C15.9352 17.2158 15.9105 17.21 15.8854 17.2093C15.8604 17.2087 15.8354 17.2132 15.812 17.2227C15.7886 17.2321 15.7671 17.2462 15.7489 17.2643C15.7307 17.2824 15.716 17.3041 15.7058 17.3282C15.6956 17.3523 15.69 17.3782 15.6893 17.4046C15.6887 17.4309 15.693 17.4571 15.702 17.4817C15.7535 17.6225 15.7853 17.7709 15.7977 17.9215C15.6588 18.0422 15.4962 18.1334 15.318 18.1872C15.3475 18.132 15.3747 18.0759 15.3992 18.018C15.4197 17.9696 15.421 17.9146 15.403 17.8652C15.3849 17.8157 15.3489 17.7758 15.3029 17.7542C15.2649 17.7367 15.2226 17.7327 15.1823 17.7427C15.1539 17.7498 15.1274 17.7637 15.1049 17.7832C15.0824 17.8028 15.0645 17.8275 15.0526 17.8555C14.9942 17.9933 14.9165 18.1211 14.8239 18.2365C14.6365 18.2186 14.4603 18.1605 14.3038 18.07C14.3622 18.0531 14.4198 18.0337 14.4765 18.0109C14.4999 18.0015 14.5213 17.9874 14.5395 17.9693C14.5577 17.9512 14.5724 17.9296 14.5826 17.9055C14.5928 17.8815 14.5984 17.8556 14.5991 17.8293C14.5998 17.803 14.5955 17.7768 14.5865 17.7522C14.5776 17.7276 14.5642 17.7051 14.5469 17.6859C14.5297 17.6667 14.5091 17.6513 14.4861 17.6406C14.4632 17.6299 14.4385 17.624 14.4135 17.6233C14.3884 17.6226 14.3634 17.6272 14.34 17.6367C14.2058 17.6908 14.0641 17.7238 13.9204 17.7368C13.8054 17.5908 13.7191 17.4197 13.6679 17.2323C13.7207 17.2634 13.7743 17.2921 13.8297 17.3181C13.8758 17.3394 13.928 17.3408 13.9749 17.3218C14.0219 17.3028 14.0598 17.265 14.0803 17.2168C14.0973 17.177 14.1014 17.1325 14.0921 17.09C14.0853 17.0602 14.072 17.0323 14.0533 17.0087C14.0347 16.9851 14.011 16.9663 13.9843 16.9538C13.8528 16.8922 13.7312 16.8101 13.6211 16.7123C13.6384 16.5148 13.6942 16.3292 13.781 16.1645C13.7975 16.2266 13.816 16.288 13.838 16.3484C13.8562 16.3976 13.8921 16.4373 13.938 16.4588C13.9839 16.4803 14.036 16.4819 14.083 16.4632C14.1218 16.4477 14.1547 16.4192 14.1767 16.3821C14.1921 16.3559 14.2015 16.3263 14.2042 16.2957C14.2069 16.265 14.2028 16.2341 14.1922 16.2054C14.1404 16.0636 14.1097 15.9144 14.0977 15.7628C14.2363 15.6426 14.399 15.5527 14.5767 15.4991C14.547 15.5542 14.5196 15.61 14.495 15.6679C14.4847 15.6919 14.4791 15.7179 14.4783 15.7442C14.4776 15.7706 14.4818 15.7968 14.4908 15.8214C14.4998 15.8461 14.5133 15.8686 14.5305 15.8877C14.5478 15.9068 14.5685 15.9222 14.5914 15.9329C14.6143 15.9436 14.639 15.9495 14.664 15.9502C14.6891 15.9509 14.714 15.9464 14.7374 15.937C14.7608 15.9275 14.7822 15.9133 14.8003 15.8952C14.8185 15.877 14.8331 15.8553 14.8432 15.8312C14.9014 15.6937 14.9792 15.5658 15.0715 15.4502ZM14.9468 16.2439C14.6337 16.2439 14.3767 16.514 14.3767 16.843C14.3767 17.172 14.6337 17.4444 14.9468 17.4444C15.2598 17.4444 15.5187 17.172 15.5187 16.843C15.5187 16.514 15.2598 16.2439 14.9468 16.2439ZM9.25118 16.4163C9.82707 16.4163 10.2896 16.9024 10.2896 17.5075C10.2896 18.1127 9.82707 18.6 9.25118 18.6C8.67529 18.6 8.21315 18.1127 8.21315 17.5075C8.21315 16.9024 8.67529 16.4163 9.25118 16.4163ZM14.9468 16.6439C15.0541 16.6439 15.138 16.7301 15.138 16.843C15.138 16.9558 15.0541 17.044 14.9468 17.044C14.8394 17.044 14.7574 16.9558 14.7574 16.843C14.7574 16.7301 14.8394 16.6439 14.9468 16.6439ZM9.25118 16.7989C8.88107 16.7989 8.57718 17.1186 8.57718 17.5075C8.57718 17.8965 8.88107 18.2162 9.25118 18.2162C9.62129 18.2162 9.92556 17.8965 9.92556 17.5075C9.92556 17.1186 9.62129 16.7989 9.25118 16.7989ZM10.499 16.7989H12.2326V17.1989H10.6389C10.6103 17.0571 10.5631 16.9228 10.499 16.7989ZM9.25118 17.1989C9.41557 17.1989 9.5449 17.3348 9.5449 17.5075C9.5449 17.6803 9.41557 17.8162 9.25118 17.8162C9.08679 17.8162 8.95784 17.6803 8.95784 17.5075C8.95784 17.3348 9.08679 17.1989 9.25118 17.1989Z" fill="white"/>
<path d="M22.7383 13.0875C22.1508 13.0875 21.6758 13.5625 21.6758 14.15C21.6758 14.7375 22.1508 15.2125 22.7383 15.2125C23.3258 15.2125 23.8008 14.7375 23.8008 14.15C23.8008 13.5625 23.3258 13.0875 22.7383 13.0875ZM22.7383 14.7C22.4258 14.7 22.1758 14.45 22.1758 14.1375C22.1758 13.825 22.4258 13.575 22.7383 13.575C23.0508 13.575 23.3008 13.825 23.3008 14.1375C23.3008 14.45 23.0508 14.7 22.7383 14.7Z" fill="white"/>
<path d="M29.1613 12.225C28.3738 12.225 27.7363 12.8625 27.7363 13.65C27.7363 14.4375 28.3738 15.075 29.1613 15.075C29.9488 15.075 30.5863 14.4375 30.5863 13.65C30.5738 12.8625 29.9363 12.225 29.1613 12.225ZM29.1613 14.575C28.6488 14.575 28.2363 14.1625 28.2363 13.65C28.2363 13.1375 28.6488 12.725 29.1613 12.725C29.6738 12.725 30.0863 13.1375 30.0863 13.65C30.0738 14.1625 29.6613 14.575 29.1613 14.575Z" fill="white"/>
<path d="M31.75 10.275C31.6875 10.275 28.9625 10.275 29.0125 10.275C28.875 10.275 28.7625 10.3875 28.7625 10.525C28.7625 10.6625 28.875 10.775 29.0125 10.775H29.275V11.1C29.2375 11.1 29.2 11.1 29.15 11.1C28.7125 11.1 28.2875 11.2125 27.925 11.4125V11.025C27.925 10.6125 27.5875 10.275 27.175 10.275H27.125L28.2125 9.3L28.5625 9.7C28.65 9.8 28.8125 9.8125 28.9125 9.725C29.0125 9.6375 29.025 9.475 28.9375 9.375L27.875 8.1625C27.7875 8.0625 27.625 8.05 27.525 8.1375C27.425 8.225 27.4125 8.3875 27.5 8.4875L27.8875 8.925L26.925 9.8V9.4875C26.925 9.35 26.8125 9.2375 26.675 9.2375H25.2375C25.1 9.2375 24.9875 9.35 24.9875 9.4875V10.275H23.55V9.5625C23.55 9.175 23.2875 8.85 22.9375 8.75V7.25C22.9375 7.1125 22.825 7 22.6875 7C22.55 7 22.4375 7.1125 22.4375 7.25V8.75C22.0875 8.8625 21.825 9.175 21.825 9.5625V10.275H20.75C20.3375 10.275 20 10.6125 20 11.025V13.325C20 13.7125 20.3 14.0375 20.6875 14.0625C20.6875 14.0875 20.6875 14.1125 20.6875 14.1375C20.6875 15.275 21.6125 16.1875 22.7375 16.1875C23.8625 16.1875 24.7875 15.2625 24.7875 14.1375C24.7875 14.1125 24.7875 14.0875 24.7875 14.0625H26.65C26.85 15.2625 27.9 16.1875 29.1625 16.1875C30.5625 16.1875 31.7125 15.05 31.7125 13.6375C31.7125 13.125 31.5625 12.625 31.2625 12.2V10.775H31.75C31.8875 10.775 32 10.6625 32 10.525C32 10.3875 31.8875 10.275 31.75 10.275ZM22.3375 9.5625C22.3375 9.3625 22.5 9.2 22.7 9.2C22.9 9.2 23.0625 9.3625 23.0625 9.5625V10.275H22.35L22.3375 9.5625ZM22.7375 15.7C21.875 15.7 21.1875 15 21.1875 14.15C21.1875 13.2875 21.8875 12.6 22.7375 12.6C23.5875 12.6 24.2875 13.3 24.2875 14.15C24.2875 15 23.6 15.7 22.7375 15.7ZM22.7375 12.0875C21.8 12.0875 21.0125 12.7125 20.7625 13.575H20.75C20.6125 13.575 20.5 13.4625 20.5 13.325V11.025C20.5 10.8875 20.6125 10.775 20.75 10.775C22.1875 10.775 23.4875 10.775 25.2375 10.775C25.375 10.775 25.4875 10.6625 25.4875 10.525V9.7375H26.425V10.525C26.425 10.6625 26.5375 10.775 26.675 10.775H27.1875C27.325 10.775 27.4375 10.8875 27.4375 11.025V11.775C26.95 12.225 26.6375 12.8625 26.6125 13.575H24.7125C24.4625 12.7125 23.675 12.0875 22.7375 12.0875ZM29.1625 15.7C28.0375 15.7 27.1125 14.7875 27.1125 13.65C27.1125 12.525 28.025 11.6 29.1625 11.6C29.275 11.6 29.375 11.6125 29.4875 11.625C30.0125 11.7125 30.4875 12 30.8 12.4375C31.0625 12.7875 31.2 13.2125 31.2 13.65C31.2 14.775 30.2875 15.7 29.1625 15.7ZM30.7625 11.675C30.475 11.4375 30.1375 11.275 29.775 11.1875V10.7875H30.7625V11.675Z" fill="white"/>
</svg>
