<svg width="36" height="36" viewBox="0 0 36 36" fill="none" xmlns="http://www.w3.org/2000/svg">
<rect width="36" height="36" rx="18" fill="#006633"/>
<path d="M9.02559 12.5348C8.53277 12.5348 8.13184 12.9357 8.13184 13.4288C8.13184 13.9219 8.53277 14.323 9.02559 14.323C9.51865 14.323 9.91984 13.9219 9.91984 13.4288C9.91984 12.9357 9.51865 12.5348 9.02559 12.5348ZM9.02559 13.8275C8.80593 13.8275 8.62713 13.6485 8.62713 13.4285C8.62713 13.2086 8.80593 13.0298 9.02559 13.0298C9.24574 13.0298 9.42454 13.2086 9.42454 13.4285C9.42454 13.6487 9.24574 13.8275 9.02559 13.8275Z" stroke="white" stroke-width="0.4"/>
<path d="M9.02559 18.4694C8.53277 18.4694 8.13184 18.8703 8.13184 19.3634C8.13184 19.8564 8.53277 20.2576 9.02559 20.2576C9.51865 20.2576 9.91984 19.8564 9.91984 19.3634C9.91984 18.8705 9.51865 18.4694 9.02559 18.4694ZM9.02559 19.7623C8.80593 19.7623 8.62713 19.5833 8.62713 19.3634C8.62713 19.1434 8.80593 18.9647 9.02559 18.9647C9.24574 18.9647 9.42454 19.1434 9.42454 19.3634C9.42454 19.5835 9.24574 19.7623 9.02559 19.7623Z" stroke="white" stroke-width="0.4"/>
<path d="M9.02559 24.1677C8.53277 24.1677 8.13184 24.5687 8.13184 25.0617C8.13184 25.5548 8.53277 25.956 9.02559 25.956C9.51865 25.956 9.91984 25.5548 9.91984 25.0617C9.91984 24.5687 9.51865 24.1677 9.02559 24.1677ZM9.02559 25.4604C8.80593 25.4604 8.62713 25.2814 8.62713 25.0615C8.62713 24.8416 8.80593 24.6628 9.02559 24.6628C9.24574 24.6628 9.42454 24.8416 9.42454 25.0615C9.42454 25.2816 9.24574 25.4604 9.02559 25.4604Z" stroke="white" stroke-width="0.4"/>
<path d="M29.7816 17.8535L27.6509 14.1628C27.3332 13.6123 26.5863 13.1812 25.9506 13.1812H21.6901C21.0544 13.1812 20.3075 13.6123 19.9897 14.1626L19.8932 14.3297V10.862C19.8946 10.8513 19.8996 10.8414 19.8996 10.8303C19.8996 10.7319 19.8424 10.647 19.7592 10.6071L13.0876 6.04328C13.0034 5.98557 12.8922 5.98557 12.808 6.04328L6.10896 10.626C6.0998 10.6321 6.09386 10.6408 6.08593 10.648C6.08024 10.6532 6.07479 10.6579 6.06959 10.6636C6.05151 10.6829 6.03739 10.7042 6.0265 10.7277C6.02501 10.731 6.02303 10.7334 6.02155 10.7369C6.00867 10.7681 6.00198 10.8013 6.00248 10.8355V16.5234C6.00248 16.5251 6.00347 16.5266 6.00347 16.5283V22.1987C6.00322 22.2046 6 22.2096 6 22.2155V27.9084C6 28.0451 6.11094 28.156 6.24765 28.156H6.25111H7.02525V29.7524C7.02525 29.8891 7.1362 30 7.2729 30H8.59508C8.73178 30 8.84272 29.8891 8.84272 29.7524V28.156H17.0529V29.7524C17.0529 29.8891 17.1639 30 17.3006 30H18.623C18.7597 30 18.8706 29.8891 18.8706 29.7524V28.156H19.6465C19.7832 28.156 19.8941 28.0451 19.8941 27.9084V23.3428L19.9895 23.508C20.3075 24.0585 21.0544 24.4896 21.6901 24.4896H25.9508C26.5865 24.4896 27.3334 24.0585 27.6511 23.508L29.7819 19.8173C30.0994 19.2666 30.0994 18.404 29.7816 17.8535ZM8.34743 29.5045H7.52054V28.1563H8.34743V29.5045ZM18.3753 29.5045H17.5482V28.1563H18.3753V29.5045ZM17.8563 19.8168L19.0995 21.9676H6.49876V16.7708H10.3766C10.3459 17.5667 10.7367 18.1135 10.9923 18.3822C11.1307 18.5271 11.3174 18.6071 11.5188 18.6071H14.3771C14.5784 18.6071 14.7654 18.5271 14.9033 18.382C15.1589 18.1135 15.55 17.5667 15.519 16.7705H18.4818L17.856 17.8537C17.5378 18.4043 17.538 19.2666 17.8563 19.8168ZM15.0244 22.4632C15.0542 23.0919 14.7451 23.5226 14.5445 23.7336C14.5009 23.7794 14.4415 23.8047 14.3771 23.8047H11.519C11.4544 23.8047 11.395 23.7794 11.3514 23.7338C11.1508 23.5226 10.842 23.0917 10.8714 22.4632H15.0244ZM10.9923 12.6893C11.1302 12.8345 11.3172 12.9144 11.5188 12.9144H14.3773C14.5787 12.9144 14.7657 12.8345 14.9036 12.6893C15.1592 12.4206 15.55 11.8738 15.5192 11.0779H19.3981V15.1861L18.7681 16.2747H6.49777V11.0779H10.3766C10.3459 11.8733 10.7367 12.4204 10.9923 12.6893ZM10.8712 11.0779H15.0244C15.0544 11.7064 14.7454 12.1371 14.5445 12.3481C14.5009 12.3939 14.4415 12.4192 14.3771 12.4192H11.5188C11.4544 12.4192 11.395 12.3939 11.3514 12.3481C11.1505 12.1368 10.8415 11.7059 10.8712 11.0779ZM15.0244 16.7708C15.0542 17.3996 14.7454 17.8297 14.5445 18.0407C14.5009 18.0865 14.4415 18.1118 14.3771 18.1118H11.519C11.4546 18.1118 11.395 18.0863 11.3511 18.0407C11.1505 17.8297 10.8417 17.3991 10.8714 16.7708H15.0244ZM12.9477 6.54748L18.8464 10.5824H15.2471H10.6486H7.04927L12.9477 6.54748ZM19.3989 27.6605H6.49876V22.4629H10.3766C10.3459 23.2588 10.7367 23.8059 10.9923 24.0751C11.1305 24.22 11.3174 24.2999 11.5188 24.2999H14.3771C14.5784 24.2999 14.7654 24.22 14.9033 24.0748C15.1589 23.8061 15.55 23.2591 15.519 22.4629H19.3855L19.3986 22.4857L19.3989 27.6605ZM29.3527 19.5694L27.222 23.2601C26.9924 23.658 26.4102 23.9941 25.9508 23.9941H21.6901C21.2307 23.9941 20.6482 23.658 20.4184 23.2601L19.8617 22.297C19.8615 22.2965 19.8615 22.296 19.861 22.2953L19.7436 22.0917C19.7428 22.0905 19.7416 22.0895 19.7409 22.0882L18.2849 19.5689C18.0549 19.1712 18.0549 18.4993 18.2847 18.1014L20.4184 14.4105C20.648 14.0128 21.2304 13.6765 21.6898 13.6765H25.9506C26.4099 13.6765 26.9922 14.0125 27.2217 14.4105L29.3525 18.1011C29.5823 18.4991 29.5823 19.1715 29.3527 19.5694Z" stroke="white" stroke-width="0.4"/>
<path d="M11.4942 14.1408H14.4041C14.5408 14.1408 14.6517 14.0299 14.6517 13.8932C14.6517 13.7565 14.5408 13.6455 14.4041 13.6455H11.4942C11.3575 13.6455 11.2466 13.7565 11.2466 13.8932C11.2466 14.0299 11.3575 14.1408 11.4942 14.1408Z" stroke="white" stroke-width="0.4"/>
<path d="M14.345 19.4033H11.4351C11.2984 19.4033 11.1875 19.5142 11.1875 19.6509C11.1875 19.7876 11.2984 19.8986 11.4351 19.8986H14.345C14.4817 19.8986 14.5926 19.7876 14.5926 19.6509C14.5926 19.5142 14.4817 19.4033 14.345 19.4033Z" stroke="white" stroke-width="0.4"/>
<path d="M14.345 25.0617H11.4351C11.2984 25.0617 11.1875 25.1727 11.1875 25.3094C11.1875 25.4461 11.2984 25.557 11.4351 25.557H14.345C14.4817 25.557 14.5926 25.4461 14.5926 25.3094C14.5926 25.1727 14.4817 25.0617 14.345 25.0617Z" stroke="white" stroke-width="0.4"/>
<path d="M24.4619 17.1972C24.4876 17.1771 24.5151 17.1601 24.5394 17.1373C24.7469 16.9389 24.8611 16.6719 24.8611 16.3849C24.8611 16.1318 24.7667 15.9025 24.6159 15.7217L25.1038 14.9095C25.1741 14.7923 25.1362 14.6403 25.0188 14.5697C24.9017 14.4991 24.7494 14.5372 24.679 14.6546L24.2174 15.4233C24.0946 15.3721 23.9604 15.3433 23.8192 15.3433C23.6778 15.3433 23.5433 15.3723 23.4205 15.4233L22.9589 14.6546C22.8886 14.5372 22.7363 14.4994 22.6191 14.5697C22.5017 14.6403 22.4639 14.7923 22.5342 14.9095L23.0223 15.7222C22.872 15.9028 22.7776 16.1318 22.7776 16.3849C22.7776 16.6719 22.8918 16.9389 23.102 17.1398C23.1251 17.161 23.1516 17.1776 23.1761 17.1967C20.372 17.6289 19.7185 19.0857 19.6902 19.1519C19.6466 19.2544 19.6766 19.3733 19.7638 19.4426C20.3767 19.931 20.9852 20.1053 21.5416 20.1053C21.7813 20.1053 22.0104 20.0714 22.2269 20.0179C22.2467 20.3453 22.3239 20.6836 22.4646 21.0268L22.4648 21.027C22.7925 21.8262 23.3581 22.422 23.5716 22.6286V23.2982C23.5716 23.4349 23.6825 23.5458 23.8192 23.5458C23.9559 23.5458 24.0669 23.4349 24.0669 23.2982V22.6281C24.2793 22.4218 24.8425 21.8262 25.1699 21.0275L25.1701 21.0268C25.311 20.6836 25.3883 20.3453 25.4081 20.0174C25.6251 20.0711 25.8546 20.1051 26.0948 20.1051C26.6513 20.1051 27.26 19.9305 27.8727 19.4424C27.9599 19.373 27.9898 19.2539 27.9462 19.1516C27.9187 19.0862 27.2652 17.6293 24.4619 17.1972ZM24.366 16.3849C24.366 16.535 24.3061 16.6752 24.1999 16.7767C24.1256 16.8455 23.9993 16.9278 23.8197 16.9278V17.1244C23.8192 17.1244 23.8187 17.1244 23.8182 17.1244H23.8177L23.8101 16.9278C23.6352 16.9248 23.5116 16.8438 23.4418 16.7789C23.3333 16.6752 23.2734 16.5352 23.2734 16.3849C23.2734 16.0835 23.5186 15.8384 23.8197 15.8384C24.1209 15.8384 24.366 16.0838 24.366 16.3849ZM23.8192 22.1746C23.6342 21.9817 23.3281 21.6283 23.0857 21.1808H24.55C24.3083 21.6283 24.0035 21.9817 23.8192 22.1746ZM24.922 19.8599C24.922 20.1239 24.8712 20.401 24.7712 20.6855H22.8648C22.7647 20.4007 22.714 20.1236 22.714 19.8599C22.714 19.8599 22.7137 19.8594 22.7137 19.8589C23.2172 19.6501 23.607 19.3584 23.8187 19.1794C24.0302 19.3584 24.4195 19.6496 24.9222 19.8584C24.9222 19.8589 24.922 19.8594 24.922 19.8599ZM23.9973 18.6744C23.9953 18.6724 23.9926 18.6719 23.9908 18.67L23.9906 18.6695C23.9889 18.6677 23.9861 18.6672 23.9844 18.6655C23.9616 18.6449 23.9371 18.6283 23.9101 18.6177C23.8997 18.6135 23.8886 18.6135 23.8777 18.6108C23.8581 18.6061 23.839 18.6004 23.8192 18.6004C23.7992 18.6004 23.7801 18.6061 23.7605 18.6108C23.7499 18.6135 23.7387 18.6132 23.7283 18.6175C23.7013 18.6279 23.6766 18.6447 23.6538 18.6652C23.6518 18.667 23.6493 18.6675 23.6476 18.6692L23.6474 18.6697C23.6454 18.6717 23.6426 18.6722 23.6409 18.6742C23.5711 18.7457 21.9616 20.3619 20.2469 19.1841C20.5231 18.7953 21.4379 17.8346 23.8195 17.6175C26.2028 17.8346 27.1169 18.7965 27.3922 19.1838C25.6761 20.3626 24.0669 18.746 23.9973 18.6744Z" stroke="white" stroke-width="0.4"/>
</svg>
