<svg width="36" height="36" viewBox="0 0 36 36" fill="none" xmlns="http://www.w3.org/2000/svg">
<rect width="36" height="36" rx="18" fill="#006633"/>
<path d="M29.6922 16.2261L26.5122 13.8104V11.3478C26.5122 11.1861 26.3817 11.0557 26.22 11.0557H25.8809V7.14522C25.8809 6.51391 25.367 6 24.7357 6H12.9078C12.2765 6 11.7626 6.51391 11.7626 7.14522V15.2009H11.4235C11.2617 15.2009 11.1313 15.3313 11.1313 15.493V17.4574L6.39913 20.113C6.1487 20.2539 6 20.507 6 20.7939V29.7078C6 29.8696 6.13043 30 6.29217 30H29.7078C29.8696 30 30 29.8696 30 29.7078V16.847C30 16.5991 29.8904 16.3774 29.6922 16.2261ZM29.4157 16.847V17.3243H20.053V16.8887C20.053 16.8235 20.0765 16.7739 20.1313 16.7322L24.5113 13.4217C24.673 13.2991 24.8817 13.2991 25.0409 13.4217L29.3374 16.6878C29.3896 16.7322 29.4157 16.7817 29.4157 16.847ZM20.053 17.9113H29.413V18.913H20.053V17.9113ZM25.9278 13.3643L25.3957 12.96C25.0252 12.6783 24.5296 12.6783 24.1591 12.9574L23.5435 13.4217V11.6374H25.9304V13.3643H25.9278ZM12.347 7.14522C12.347 6.83478 12.5974 6.58435 12.9078 6.58435H24.733C25.0435 6.58435 25.2939 6.83478 25.2939 7.14522V11.0557H24.1722V8.00087C24.1722 7.83913 24.0417 7.7087 23.88 7.7087H13.7609C13.5991 7.7087 13.4687 7.83913 13.4687 8.00087V15.2009H12.347V7.14522ZM11.7157 15.7852H14.1026V17.0557L13.4713 16.7035C13.153 16.5261 12.7878 16.5261 12.4696 16.7035L11.7157 17.1261V15.7852ZM6.68609 20.6243L12.7565 17.2174C12.8974 17.1391 13.0461 17.1391 13.1843 17.2174L19.4661 20.7235V20.9139H6.58435V20.7965C6.58435 20.7183 6.61826 20.6609 6.68609 20.6243ZM19.4687 21.4983V22.5H6.58435V21.4983H19.4687ZM6.58435 29.4157V23.0843H19.4661V29.4157H6.58435ZM19.4687 16.8913V20.053L14.687 17.3843V15.4957C14.687 15.3339 14.5565 15.2035 14.3948 15.2035H14.0557V8.29304H23.5904V11.0557H23.2513C23.0896 11.0557 22.9591 11.1861 22.9591 11.3478V13.8652L19.7817 16.2678C19.5783 16.4191 19.4687 16.6409 19.4687 16.8913ZM25.5339 24.3704C25.5339 24.9104 25.3487 25.4296 25.0174 25.8443L25.0278 24.373C25.0278 24.2113 24.9 24.0783 24.7383 24.0783H24.7357C24.5739 24.0783 24.4435 24.2087 24.4435 24.3678L24.433 25.8183C24.1148 25.4087 23.9348 24.9 23.9348 24.3704C23.9348 23.6922 24.227 23.0478 24.7357 22.5991C25.2417 23.0478 25.5339 23.6922 25.5339 24.3704ZM24.9939 29.4157L25.0017 28.1348L25.7765 27.6887C25.8 27.6991 25.8235 27.7122 25.8496 27.72C26.1104 27.8061 26.3791 27.8504 26.6452 27.8504C27.0809 27.8504 27.5113 27.7383 27.8948 27.5165C28.5157 27.1591 28.9539 26.5487 29.0948 25.847C29.1496 25.5835 28.9957 25.3174 28.74 25.2313C28.0591 25.0017 27.313 25.0774 26.6922 25.4348C26.0713 25.7922 25.633 26.4026 25.4922 27.1043C25.487 27.1304 25.4843 27.1565 25.4817 27.1826L25.0043 27.4591L25.0096 26.6687C25.033 26.653 25.0565 26.6374 25.08 26.6191C25.74 26.0583 26.1183 25.2391 26.1183 24.3757C26.1183 23.5122 25.74 22.693 25.08 22.1322C24.8791 21.96 24.587 21.96 24.3835 22.1322C23.7235 22.693 23.3452 23.5122 23.3452 24.3757C23.3452 25.2391 23.7235 26.0583 24.3835 26.6191C24.3965 26.6296 24.4096 26.64 24.4226 26.6504L24.4174 27.4383L23.9817 27.1852C23.9791 27.1591 23.9765 27.133 23.9713 27.107C23.8278 26.4026 23.3922 25.7948 22.7713 25.4374C22.1504 25.08 21.4043 25.0043 20.7235 25.2339C20.4678 25.32 20.3139 25.5835 20.3687 25.8496C20.5122 26.5539 20.9478 27.1617 21.5687 27.5191C21.9522 27.7409 22.3852 27.853 22.8183 27.853C23.087 27.853 23.3557 27.8087 23.6165 27.7226C23.6426 27.7148 23.6661 27.7043 23.687 27.6913L24.4122 28.1087L24.4043 29.4183H20.053V19.4974H29.413V29.413H24.9939V29.4157ZM27.5478 26.327C27.467 26.1861 27.287 26.1391 27.1487 26.22L26.2278 26.7522C26.3948 26.4157 26.6557 26.1313 26.987 25.9409C27.4487 25.6748 28.0043 25.6122 28.513 25.7713C28.3957 26.293 28.0643 26.7417 27.6026 27.0078C27.2713 27.1983 26.893 27.2843 26.52 27.2583L27.4409 26.7261C27.5817 26.6452 27.6287 26.4678 27.5478 26.327ZM22.0278 26.7261L22.9487 27.2583C22.573 27.2817 22.1974 27.1983 21.8661 27.0078C21.4043 26.7417 21.073 26.2904 20.9557 25.7713C21.4643 25.6122 22.02 25.6748 22.4817 25.9409C22.813 26.1313 23.0765 26.4157 23.2409 26.7522L22.32 26.22C22.1791 26.1391 22.0017 26.1861 21.9209 26.327C21.84 26.4678 21.887 26.6452 22.0278 26.7261ZM14.2878 25.6357L13.3148 25.4426L13.7765 24.0809C13.8287 23.927 13.7687 23.7626 13.6278 23.6791C13.4896 23.5957 13.3148 23.6191 13.2026 23.7391L11.3843 25.6826C11.207 25.873 11.147 26.1365 11.2278 26.3843C11.3087 26.6322 11.5096 26.8122 11.7652 26.8617L12.7383 27.0548L12.2765 28.4165C12.2243 28.5704 12.2843 28.7374 12.4252 28.8183C12.48 28.8522 12.5426 28.8678 12.6026 28.8678C12.6939 28.8678 12.7852 28.8313 12.8504 28.7583L14.6687 26.8148C14.8461 26.6243 14.9061 26.3609 14.8252 26.113C14.7443 25.8652 14.5435 25.6852 14.2878 25.6357ZM14.2409 26.4157L13.1974 27.5322L13.4035 26.9243C13.4296 26.8435 13.4217 26.7574 13.38 26.6843C13.3383 26.6113 13.2652 26.5591 13.1843 26.5435L11.8826 26.2878C11.8357 26.2774 11.8043 26.2513 11.7887 26.2043C11.773 26.1574 11.7835 26.1183 11.8148 26.0817L12.8583 24.9652L12.6522 25.573C12.6261 25.6539 12.6339 25.74 12.6757 25.813C12.7174 25.8861 12.7904 25.9383 12.8713 25.9539L14.173 26.2096C14.22 26.22 14.2513 26.2461 14.267 26.293C14.2826 26.34 14.2748 26.3791 14.2409 26.4157Z" fill="white"/>
</svg>
