<svg width="36" height="36" viewBox="0 0 36 36" fill="none" xmlns="http://www.w3.org/2000/svg">
<rect width="36" height="36" rx="18" fill="#006633"/>
<path fill-rule="evenodd" clip-rule="evenodd" d="M29.1866 12.6913L26.3481 15.5054C26.2412 15.6114 26.0665 15.6114 25.9599 15.5054L21.2484 10.835C21.1419 10.73 21.1419 10.5552 21.2484 10.4502L24.0866 7.63651C24.193 7.53111 24.3687 7.53095 24.4751 7.63651L29.1866 12.3063C29.2936 12.4126 29.2936 12.5856 29.1866 12.6913ZM21.2235 14.348L23.7549 14.348L22.8331 13.4348L21.2234 13.4348L21.2235 14.348ZM20.6722 8.707L21.3207 9.35002L22.9765 7.7088L22.3276 7.06604C21.8714 6.61354 21.1287 6.61359 20.6722 7.06609C20.2157 7.51833 20.2157 8.25481 20.6722 8.707ZM27.4328 7.6355C27.0257 7.42227 26.483 7.62632 26.0246 8.14406L27.9289 10.0321C28.2213 8.98865 28.0241 7.94521 27.4328 7.6355ZM29.7056 11.7924L28.5101 10.6074C29.0883 9.09187 28.7727 7.51467 27.7759 6.99268C27.0672 6.62139 26.1916 6.87907 25.5057 7.62966L24.9935 7.12264C24.6003 6.73246 23.9605 6.73267 23.5677 7.12269L23.4954 7.1944L22.8466 6.55164C22.1042 5.81611 20.896 5.81611 20.1536 6.55169C19.4112 7.28792 19.4112 8.48549 20.1536 9.22166L20.8018 9.8641L20.7295 9.93608C20.336 10.3264 20.3367 10.9605 20.7296 11.3493L22.0994 12.7074L20.8566 12.7075C20.6542 12.7075 20.4897 12.8705 20.4897 13.0711L20.4898 14.7117C20.4898 14.913 20.6542 15.0754 20.8566 15.0754L24.4884 15.0753L25.4407 16.0191C25.8343 16.409 26.4727 16.4094 26.8668 16.0191L29.7057 13.2057C30.0981 12.8157 30.0981 12.1818 29.7056 11.7924ZM17.3108 14.0549C17.8974 13.3941 18.6524 13.0114 19.4375 12.9774C19.6397 12.9697 19.8112 13.1244 19.8202 13.3251C19.8288 13.5257 19.6718 13.6955 19.4694 13.7044C19.1315 13.7188 18.4735 13.846 17.8622 14.5353C17.7284 14.6854 17.4963 14.7008 17.3442 14.5678C17.1921 14.4355 17.1773 14.2057 17.3108 14.0549ZM19.6363 14.6235C19.8298 14.5644 20.0354 14.6725 20.095 14.864C20.1547 15.0561 20.0456 15.2595 19.8521 15.3189C19.1829 15.523 18.8263 16.0168 18.6591 16.9705C18.624 17.1711 18.4333 17.2997 18.235 17.2668C18.0354 17.2325 17.9015 17.0438 17.9362 16.8458C18.0715 16.0732 18.3947 15.0022 19.6363 14.6235ZM25.9268 29.2724L7.02792 29.2729C6.64884 27.3705 8.11841 25.594 10.0745 25.594C10.6478 25.594 11.2073 25.7499 11.6935 26.0449C11.9312 26.1888 12.2371 26.0283 12.2516 25.7538C12.3381 24.12 13.7009 22.84 15.3533 22.8399C17.0238 22.8399 18.3873 24.1348 18.4562 25.7886C18.4689 26.0901 18.8281 26.2466 19.0608 26.0502C19.4042 25.7601 19.8508 25.6001 20.3178 25.6001C21.3996 25.6001 22.2637 26.4522 22.1659 27.4545C22.1336 27.7858 22.5361 27.9835 22.7828 27.7538C23.1346 27.4263 23.6041 27.2458 24.1048 27.2458C25.2627 27.2458 26.15 28.2177 25.9268 29.2724ZM15.353 14.2814C15.8147 15.0039 15.8145 16.1155 15.3531 16.8377C14.8913 16.1158 14.8911 15.0035 15.353 14.2814ZM9.00587 8.75351C9.46828 9.47594 9.46822 10.5872 9.00592 11.3095C8.544 10.5869 8.54389 9.47632 9.00587 8.75351ZM7.44179 17.9046C7.09931 17.5651 6.86503 17.1565 6.77507 16.7579C7.61662 16.9443 8.41038 17.7315 8.59842 18.5654C8.19659 18.4763 7.78428 18.2441 7.44179 17.9046ZM7.44169 14.0389C7.0992 13.6998 6.86492 13.2914 6.77497 12.8925C7.61689 13.079 8.41016 13.8661 8.59832 14.7004C8.19649 14.6106 7.78417 14.3784 7.44169 14.0389ZM10.0816 13.5533C10.4238 13.2138 10.8357 12.9816 11.2382 12.8924C11.05 13.7271 10.2564 14.5124 9.41492 14.7003C9.50483 14.3014 9.73911 13.8927 10.0816 13.5533ZM10.0817 17.4187C10.4239 17.0795 10.8359 16.847 11.2383 16.7578C11.0501 17.592 10.2567 18.3788 9.41503 18.5654C9.50493 18.1665 9.73921 17.7581 10.0817 17.4187ZM13.7883 19.868C13.4458 19.5288 13.2115 19.1199 13.1209 18.7212C13.9637 18.9084 14.7556 19.6942 14.9452 20.5287C14.5424 20.4396 14.1308 20.2074 13.7883 19.868ZM16.4281 19.382C16.77 19.0428 17.1823 18.8106 17.585 18.7211C17.3954 19.5556 16.6032 20.3421 15.7611 20.5287C15.8514 20.1298 16.0857 19.7215 16.4281 19.382ZM21.6999 19.0155C22.1618 19.7381 22.1619 20.8486 21.7 21.5714C21.2375 20.849 21.2376 19.7377 21.6999 19.0155ZM24.1047 26.5185C23.6612 26.5185 23.234 26.623 22.856 26.8181C22.7454 26.3068 22.4622 25.8528 22.0669 25.5127L22.0669 22.2895C22.5157 21.7984 22.7799 21.0658 22.7799 20.2935C22.7799 19.4571 22.4705 18.6674 21.9524 18.1799C21.8106 18.0473 21.589 18.0473 21.4477 18.1799C20.929 18.6674 20.6197 19.4572 20.6197 20.2936C20.6197 21.0659 20.8844 21.7984 21.3334 22.2895L21.3335 25.0676C20.623 24.7824 19.8061 24.8105 19.1152 25.1501C18.7814 23.5215 17.4099 22.2878 15.7201 22.13V21.2728C17.1213 21.0757 18.3939 19.6837 18.3587 18.3078C18.3541 18.1141 18.1967 17.9591 18.0023 17.9536C17.1904 17.9317 16.3136 18.3778 15.72 19.0722L15.72 17.5554C16.1687 17.0639 16.433 16.3321 16.433 15.5591C16.433 14.7233 16.1238 13.9333 15.6052 13.4464C15.4639 13.3135 15.2417 13.3135 15.1005 13.4464C14.5818 13.9333 14.2728 14.7234 14.2728 15.5592C14.2728 16.3321 14.5371 17.064 14.9862 17.5554L14.9863 19.0722C14.389 18.377 13.5215 17.9309 12.7037 17.9537C12.5093 17.9592 12.3523 18.1143 12.3473 18.3079C12.3109 19.6817 13.5838 21.0757 14.9864 21.2728V22.13C13.2945 22.2894 11.9135 23.5363 11.5869 25.1735C10.89 24.8775 10.118 24.7929 9.37318 24.9315L9.37302 19.3095C10.7748 19.1138 12.0508 17.7142 12.0128 16.3441C12.0073 16.1508 11.8508 15.9958 11.6555 15.9903C10.8456 15.9685 9.96375 16.4152 9.37297 17.1095L9.37292 15.4444C10.7772 15.2469 12.0508 13.8487 12.0127 12.4787C12.0071 12.2857 11.8507 12.1301 11.6554 12.1252C10.844 12.1035 9.96531 12.5482 9.37286 13.2444L9.37281 12.0275C9.82157 11.5364 10.0865 10.8035 10.0865 10.0312C10.0865 9.19514 9.77673 8.40535 9.25808 7.91795C9.1168 7.78529 8.89521 7.78529 8.75334 7.91795C8.23534 8.40535 7.92598 9.19519 7.92598 10.0312C7.92598 10.8036 8.1906 11.5364 8.63909 12.0275L8.63915 13.2428C8.04499 12.5473 7.16989 12.1035 6.35778 12.1253C6.16273 12.1302 6.00604 12.2858 6.0008 12.4788C5.9636 13.8506 7.23668 15.2463 8.6392 15.4443L8.63925 17.1079C8.04676 16.4142 7.1677 15.9682 6.35789 15.9903C6.16283 15.9958 6.00615 16.1509 6.0009 16.3442C5.96371 17.7161 7.23839 19.1123 8.63931 19.3094L8.63947 25.1435C6.83003 25.8691 5.82939 27.8473 6.38759 29.7381C6.43366 29.8934 6.57676 30 6.74029 30L26.2008 29.9995C26.3535 29.9995 26.4904 29.9058 26.5442 29.7642C27.1444 28.1861 25.8919 26.5185 24.1047 26.5185Z" fill="white"/>
</svg>
