<svg width="36" height="36" viewBox="0 0 36 36" fill="none" xmlns="http://www.w3.org/2000/svg">
<rect width="36" height="36" rx="18" fill="#006633"/>
<mask id="path-2-inside-1_55_2" fill="white">
<path fill-rule="evenodd" clip-rule="evenodd" d="M17.0865 25.3975C17.0865 25.3892 17.0865 25.381 17.0865 25.3727C17.1094 24.5318 16.0549 24.527 15.4428 24.5337C15.1046 24.5374 13.7794 24.4366 13.6927 24.4155C13.5503 24.3808 13.4361 24.3507 13.3241 24.3208C12.6574 24.144 12.0573 23.9856 11.3625 24.3382C10.7787 24.6744 10.2126 25.0407 9.66656 25.4354C9.34412 25.6578 9.02808 25.8757 8.75498 26.0552L10.7355 29.2425L12.756 27.9869C12.9179 27.8864 13.031 27.9736 13.1065 27.9744L18.5069 28.0192C18.6013 28.0192 19.3278 27.7314 19.586 27.6418L23.9151 26.1373C24.2533 26.0197 24.2506 25.2492 23.7084 25.0863C23.6191 25.0594 23.5248 25.0534 23.4327 25.0688C23.3407 25.0841 23.2535 25.1204 23.1777 25.1748C23.152 25.193 23.1237 25.2071 23.0937 25.2167L18.2202 26.8012C17.9758 26.8202 17.7303 26.8235 17.4855 26.811L15.9991 26.7993C15.5073 26.8164 12.8302 26.7726 12.8219 26.7726C12.7375 26.7713 12.6571 26.7365 12.5984 26.6758C12.5397 26.6152 12.5075 26.5338 12.5088 26.4494C12.5101 26.365 12.545 26.2846 12.6056 26.2259C12.6662 26.1672 12.7477 26.1349 12.832 26.1363L15.9754 26.1629C16.1663 26.1227 16.3523 26.0623 16.5304 25.9827C16.7656 25.876 17.075 25.6837 17.0862 25.3978L17.0865 25.3975ZM17.6788 24.9708L21.6297 23.7472C22.229 23.5605 22.9019 23.5575 23.2796 24.1512C24.0257 23.1931 24.5518 22.0823 24.8204 20.898C25.089 19.7136 25.0935 18.4846 24.8336 17.2983C24.8245 17.2575 24.8234 17.2153 24.8305 17.1741C24.8377 17.1329 24.8529 17.0935 24.8752 17.0581C24.8976 17.0228 24.9267 16.9922 24.9609 16.9681C24.9951 16.944 25.0337 16.9269 25.0745 16.9177C25.1153 16.9085 25.1575 16.9075 25.1987 16.9146C25.2399 16.9218 25.2793 16.937 25.3146 16.9593C25.35 16.9817 25.3806 17.0108 25.4047 17.045C25.4287 17.0792 25.4459 17.1178 25.455 17.1586C25.733 18.4197 25.7331 19.7263 25.4553 20.9876C25.1776 22.2488 24.6286 23.4344 23.8466 24.4622C24.9963 24.7609 25.0889 26.4035 24.1255 26.7385L19.7964 28.2437C19.4388 28.368 18.7395 28.6582 18.5027 28.6561L13.1022 28.6113C13.06 28.6109 13.0178 28.6075 12.9761 28.6011L10.8016 29.9522C10.7298 29.9966 10.6433 30.0108 10.561 29.9917C10.4787 29.9725 10.4073 29.9217 10.3624 29.8501L8.04768 26.1248C8.00331 26.0529 7.98917 25.9664 8.00836 25.8841C8.02755 25.8018 8.0785 25.7304 8.1501 25.6855C8.88646 25.2279 9.97807 24.419 10.72 23.9699C10.2297 23.3641 9.80382 22.7089 9.4492 22.0149C9.41577 21.9397 9.41277 21.8544 9.44085 21.7769C9.46893 21.6995 9.5259 21.6359 9.59981 21.5996C9.67373 21.5632 9.75884 21.5569 9.83732 21.5819C9.91579 21.607 9.98153 21.6614 10.0207 21.7338C10.3749 22.4229 10.8023 23.0717 11.2956 23.669C12.1026 23.3388 12.7603 23.513 13.4865 23.7053C13.6113 23.7384 13.7383 23.772 13.8426 23.7976C13.8855 23.808 15.1598 23.901 15.4383 23.8981C15.9557 23.8645 16.4744 23.9434 16.9585 24.1293C16.9326 23.0499 16.967 21.9698 17.0617 20.8942L16.3549 20.3718C16.2026 20.4155 16.0421 20.4763 15.8748 20.5393C15.0875 20.8374 14.1898 21.1778 12.8368 20.4179C12.812 20.4051 12.7888 20.3891 12.768 20.3704C12.4092 20.0403 12.0673 19.6921 11.7439 19.3271C11.5531 19.1087 11.3512 18.9004 11.1388 18.703C11.1251 18.693 11.1123 18.682 11.1004 18.67C10.799 18.3616 10.1749 18.0437 9.9378 17.6474C9.89466 17.5779 9.87979 17.4945 9.89626 17.4143C9.91273 17.3341 9.95928 17.2633 10.0263 17.2164C10.8589 16.6029 11.8176 16.1824 12.8328 15.9853C13.6761 15.8275 14.548 15.9836 15.2841 16.4243C16.5544 17.2036 16.9078 18.6865 16.816 19.9243L17.1379 20.1643L17.1849 19.8077C17.4735 17.748 18.0949 15.6034 19.3948 14.5174C19.4262 14.4861 19.4638 14.4616 19.5052 14.4455C19.5465 14.4295 19.5908 14.4222 19.6351 14.4242C19.6795 14.4262 19.7229 14.4373 19.7627 14.457C19.8025 14.4767 19.8378 14.5044 19.8663 14.5384C19.8948 14.5725 19.9159 14.612 19.9282 14.6547C19.9406 14.6973 19.944 14.742 19.9382 14.786C19.9323 14.83 19.9174 14.8723 19.8943 14.9102C19.8713 14.9481 19.8406 14.9809 19.8042 15.0063C18.751 15.8864 18.1877 17.5791 17.8927 19.3167C18.0246 19.255 18.1603 19.2021 18.2992 19.1583C18.7259 18.2334 19.5361 17.3463 20.7232 17.2516C21.4394 17.2018 22.149 17.4158 22.7182 17.8533C23.3943 18.3806 23.9445 19.0517 24.329 19.8181C24.366 19.8867 24.3765 19.9665 24.3585 20.0424C24.3406 20.1182 24.2955 20.1848 24.2317 20.2296C23.9236 20.4467 23.2958 20.4523 22.9697 20.5622C22.9614 20.5649 22.9531 20.5673 22.9446 20.5694C22.7111 20.6342 22.4814 20.7122 22.2568 20.803C21.8558 20.9684 21.4423 21.1013 21.0201 21.2004C19.7319 21.2482 19.1902 20.6572 18.7155 20.1392C18.6117 20.0209 18.501 19.9087 18.384 19.8034C18.1748 19.8832 17.9728 19.9803 17.7799 20.0939C17.5951 21.6542 17.5426 23.2274 17.6228 24.7966C17.6457 24.8539 17.6644 24.9127 17.6788 24.9727V24.9708ZM21.817 24.356C22.2021 24.2368 22.6704 24.1813 22.8086 24.639L18.0231 26.1957C17.9917 26.2059 17.8543 26.1816 17.6903 26.1787L17.3769 26.1744C17.5296 26.0267 17.6388 25.8399 17.6927 25.6343L21.817 24.3568V24.356ZM18.9657 10.6025C18.9657 10.6108 18.9657 10.619 18.9657 10.6273C18.9427 11.4679 19.9962 11.473 20.6091 11.4663C20.9478 11.4626 22.2728 11.5634 22.3594 11.5845C23.1659 11.7802 23.8756 12.0816 24.7019 11.6557C25.3009 11.3469 26.5763 10.4185 27.2972 9.9448L25.3164 6.75745L23.2958 8.01308C23.1339 8.11363 23.0209 8.02642 22.9454 8.02562L17.5449 7.98081C17.4505 7.98081 16.724 8.26858 16.4659 8.35819L12.1362 9.86213C11.798 9.97974 11.8007 10.7502 12.3429 10.9132C12.4323 10.9401 12.5266 10.946 12.6186 10.9306C12.7107 10.9152 12.7979 10.8789 12.8737 10.8244C12.8997 10.8063 12.9284 10.7923 12.9587 10.7828L17.8316 9.19884C18.0762 9.17982 18.3217 9.17653 18.5667 9.18897L20.0527 9.20151C20.5445 9.18444 23.2217 9.22818 23.23 9.22818C23.3143 9.22952 23.3947 9.26433 23.4535 9.32495C23.5122 9.38557 23.5444 9.46703 23.5431 9.55142C23.5417 9.6358 23.5069 9.7162 23.4463 9.77492C23.3857 9.83364 23.3042 9.86587 23.2198 9.86453L20.0765 9.83786C19.8856 9.87809 19.6995 9.93852 19.5215 10.0181C19.2862 10.1248 18.9769 10.3169 18.9657 10.603V10.6025ZM18.3728 11.0284C18.616 12.0275 19.7839 12.1115 20.6131 12.1027C20.676 12.1027 20.7627 12.1043 20.8638 12.1088C21.7732 12.5934 22.5788 13.2516 23.235 14.0461C23.2613 14.0791 23.2939 14.1065 23.3309 14.1267C23.3679 14.1469 23.4085 14.1596 23.4505 14.164C23.4924 14.1684 23.5348 14.1644 23.5752 14.1523C23.6155 14.1402 23.6531 14.1201 23.6857 14.0934C23.7182 14.0666 23.7452 14.0336 23.7649 13.9963C23.7846 13.9591 23.7967 13.9183 23.8005 13.8763C23.8043 13.8343 23.7997 13.792 23.787 13.7518C23.7743 13.7116 23.7538 13.6743 23.7266 13.6421C23.2809 13.1014 22.7703 12.6177 22.2064 12.2019L22.5651 12.2944C23.3612 12.5051 24.0749 12.6945 24.9921 12.2211C25.7121 11.8501 27.1027 10.8092 27.9004 10.3134C27.972 10.2685 28.023 10.1972 28.0422 10.1149C28.0614 10.0326 28.0472 9.94604 28.0028 9.87413L25.6897 6.1499C25.6448 6.07835 25.5734 6.02745 25.4912 6.00832C25.4089 5.98918 25.3224 6.00336 25.2505 6.04776L23.0761 7.39887C23.0343 7.39247 22.9922 7.38908 22.9499 7.38873L17.5495 7.34393C17.3126 7.34179 16.6133 7.63197 16.2557 7.75625L11.9266 9.26071C11.3286 9.46874 11.1481 10.1731 11.3444 10.7385C11.4338 11.0007 11.6085 11.2253 11.8405 11.3765C12.0726 11.5277 12.3486 11.5968 12.6246 11.5728C10.0293 13.1034 8.7107 16.0291 8.7107 19.0329C8.70788 19.0766 8.71404 19.1204 8.72882 19.1616C8.74359 19.2028 8.76665 19.2405 8.79659 19.2725C8.82652 19.3044 8.86269 19.3298 8.90285 19.3472C8.94301 19.3646 8.98631 19.3736 9.03008 19.3736C9.07385 19.3736 9.11715 19.3646 9.15731 19.3472C9.19747 19.3298 9.23363 19.3044 9.26357 19.2725C9.2935 19.2405 9.31657 19.2028 9.33134 19.1616C9.34611 19.1204 9.35228 19.0766 9.34945 19.0329C9.34945 16.2376 10.5635 13.5077 12.9883 12.1003C13.3865 12.443 13.9426 12.4006 14.4224 12.252L18.3728 11.0284ZM14.2346 11.6418C13.8423 11.7632 13.378 11.8101 13.243 11.3589L18.029 9.80425C18.0605 9.79412 18.1978 9.81839 18.3618 9.82132L18.6752 9.82559C18.5225 9.97333 18.4133 10.1601 18.3594 10.3657L14.2352 11.6432L14.2346 11.6418ZM15.7378 19.9096C14.6947 19.1401 13.5497 18.5194 12.3357 18.0653C12.2961 18.0504 12.2598 18.0276 12.2291 17.9984C12.1983 17.9693 12.1737 17.9343 12.1566 17.8955C12.1396 17.8567 12.1304 17.8148 12.1297 17.7725C12.129 17.7301 12.1368 17.688 12.1526 17.6486C12.1683 17.6093 12.1918 17.5735 12.2216 17.5433C12.2513 17.5132 12.2868 17.4892 12.326 17.473C12.3651 17.4567 12.4071 17.4484 12.4495 17.4485C12.4919 17.4487 12.5338 17.4572 12.5728 17.4738C13.8671 17.9591 15.0858 18.6259 16.1925 19.4541C16.1698 18.5206 15.8543 17.5199 14.9539 16.9676C14.3465 16.607 13.6281 16.4809 12.9342 16.6132C12.1329 16.7663 11.3712 17.0808 10.6952 17.5375C10.9886 17.7802 11.2606 17.9403 11.558 18.2214C11.7901 18.4341 12.0101 18.6596 12.217 18.8969C12.4859 19.1922 12.7936 19.5301 13.1702 19.8738C14.2522 20.4721 14.9977 20.1896 15.6519 19.9419L15.7378 19.9096ZM23.3206 19.8402C23.4105 19.8253 23.5012 19.8101 23.5828 19.7941C22.951 18.7473 21.9981 17.7917 20.7747 17.8896C20.43 17.9311 20.0999 18.0533 19.8111 18.2461C19.5223 18.439 19.2831 18.6971 19.1126 18.9996C20.1817 18.884 21.2607 18.8945 22.3274 19.0308C22.3707 19.034 22.4129 19.046 22.4514 19.0661C22.4899 19.0861 22.524 19.1137 22.5514 19.1474C22.5789 19.181 22.5993 19.2198 22.6113 19.2615C22.6233 19.3032 22.6267 19.347 22.6212 19.39C22.6158 19.4331 22.6016 19.4746 22.5797 19.512C22.5577 19.5495 22.5283 19.582 22.4934 19.6078C22.4584 19.6335 22.4186 19.6518 22.3763 19.6617C22.334 19.6715 22.2902 19.6727 22.2474 19.665C21.2106 19.5306 20.1613 19.5233 19.1227 19.6434L19.1841 19.7101C19.5631 20.1237 19.9951 20.5953 20.9803 20.5649C21.3924 20.451 21.7343 20.3216 22.0333 20.2086C22.4462 20.0349 22.8783 19.9112 23.3206 19.8402ZM9.62736 20.7737C9.5367 20.4937 9.46733 20.2072 9.41986 19.9168C9.40509 19.8348 9.35879 19.7619 9.29088 19.7136C9.22296 19.6654 9.13885 19.6457 9.05658 19.6587C8.97431 19.6718 8.90043 19.7166 8.85078 19.7834C8.80112 19.8503 8.77966 19.934 8.79098 20.0165C8.84372 20.3391 8.92056 20.6573 9.02088 20.9684C9.04669 21.0488 9.1034 21.1157 9.17853 21.1543C9.25365 21.1929 9.34104 21.2001 9.42146 21.1743C9.50189 21.1485 9.56876 21.0918 9.60737 21.0166C9.64599 20.9415 9.65318 20.8541 9.62736 20.7737ZM23.8911 14.9676C24.1373 15.3726 24.3458 15.7993 24.5139 16.2424C24.5483 16.3153 24.6089 16.3725 24.6837 16.4026C24.7585 16.4327 24.8419 16.4335 24.9172 16.4048C24.9925 16.3761 25.0542 16.32 25.09 16.2478C25.1258 16.1756 25.133 16.0925 25.1102 16.0152C24.9268 15.5369 24.7007 15.0761 24.4349 14.6382C24.3908 14.5671 24.3203 14.5163 24.2389 14.4968C24.1575 14.4773 24.0717 14.4907 24.0002 14.534C23.9286 14.5774 23.877 14.6472 23.8565 14.7284C23.8361 14.8096 23.8485 14.8955 23.8911 14.9676Z"/>
</mask>
<path fill-rule="evenodd" clip-rule="evenodd" d="M17.0865 25.3975C17.0865 25.3892 17.0865 25.381 17.0865 25.3727C17.1094 24.5318 16.0549 24.527 15.4428 24.5337C15.1046 24.5374 13.7794 24.4366 13.6927 24.4155C13.5503 24.3808 13.4361 24.3507 13.3241 24.3208C12.6574 24.144 12.0573 23.9856 11.3625 24.3382C10.7787 24.6744 10.2126 25.0407 9.66656 25.4354C9.34412 25.6578 9.02808 25.8757 8.75498 26.0552L10.7355 29.2425L12.756 27.9869C12.9179 27.8864 13.031 27.9736 13.1065 27.9744L18.5069 28.0192C18.6013 28.0192 19.3278 27.7314 19.586 27.6418L23.9151 26.1373C24.2533 26.0197 24.2506 25.2492 23.7084 25.0863C23.6191 25.0594 23.5248 25.0534 23.4327 25.0688C23.3407 25.0841 23.2535 25.1204 23.1777 25.1748C23.152 25.193 23.1237 25.2071 23.0937 25.2167L18.2202 26.8012C17.9758 26.8202 17.7303 26.8235 17.4855 26.811L15.9991 26.7993C15.5073 26.8164 12.8302 26.7726 12.8219 26.7726C12.7375 26.7713 12.6571 26.7365 12.5984 26.6758C12.5397 26.6152 12.5075 26.5338 12.5088 26.4494C12.5101 26.365 12.545 26.2846 12.6056 26.2259C12.6662 26.1672 12.7477 26.1349 12.832 26.1363L15.9754 26.1629C16.1663 26.1227 16.3523 26.0623 16.5304 25.9827C16.7656 25.876 17.075 25.6837 17.0862 25.3978L17.0865 25.3975ZM17.6788 24.9708L21.6297 23.7472C22.229 23.5605 22.9019 23.5575 23.2796 24.1512C24.0257 23.1931 24.5518 22.0823 24.8204 20.898C25.089 19.7136 25.0935 18.4846 24.8336 17.2983C24.8245 17.2575 24.8234 17.2153 24.8305 17.1741C24.8377 17.1329 24.8529 17.0935 24.8752 17.0581C24.8976 17.0228 24.9267 16.9922 24.9609 16.9681C24.9951 16.944 25.0337 16.9269 25.0745 16.9177C25.1153 16.9085 25.1575 16.9075 25.1987 16.9146C25.2399 16.9218 25.2793 16.937 25.3146 16.9593C25.35 16.9817 25.3806 17.0108 25.4047 17.045C25.4287 17.0792 25.4459 17.1178 25.455 17.1586C25.733 18.4197 25.7331 19.7263 25.4553 20.9876C25.1776 22.2488 24.6286 23.4344 23.8466 24.4622C24.9963 24.7609 25.0889 26.4035 24.1255 26.7385L19.7964 28.2437C19.4388 28.368 18.7395 28.6582 18.5027 28.6561L13.1022 28.6113C13.06 28.6109 13.0178 28.6075 12.9761 28.6011L10.8016 29.9522C10.7298 29.9966 10.6433 30.0108 10.561 29.9917C10.4787 29.9725 10.4073 29.9217 10.3624 29.8501L8.04768 26.1248C8.00331 26.0529 7.98917 25.9664 8.00836 25.8841C8.02755 25.8018 8.0785 25.7304 8.1501 25.6855C8.88646 25.2279 9.97807 24.419 10.72 23.9699C10.2297 23.3641 9.80382 22.7089 9.4492 22.0149C9.41577 21.9397 9.41277 21.8544 9.44085 21.7769C9.46893 21.6995 9.5259 21.6359 9.59981 21.5996C9.67373 21.5632 9.75884 21.5569 9.83732 21.5819C9.91579 21.607 9.98153 21.6614 10.0207 21.7338C10.3749 22.4229 10.8023 23.0717 11.2956 23.669C12.1026 23.3388 12.7603 23.513 13.4865 23.7053C13.6113 23.7384 13.7383 23.772 13.8426 23.7976C13.8855 23.808 15.1598 23.901 15.4383 23.8981C15.9557 23.8645 16.4744 23.9434 16.9585 24.1293C16.9326 23.0499 16.967 21.9698 17.0617 20.8942L16.3549 20.3718C16.2026 20.4155 16.0421 20.4763 15.8748 20.5393C15.0875 20.8374 14.1898 21.1778 12.8368 20.4179C12.812 20.4051 12.7888 20.3891 12.768 20.3704C12.4092 20.0403 12.0673 19.6921 11.7439 19.3271C11.5531 19.1087 11.3512 18.9004 11.1388 18.703C11.1251 18.693 11.1123 18.682 11.1004 18.67C10.799 18.3616 10.1749 18.0437 9.9378 17.6474C9.89466 17.5779 9.87979 17.4945 9.89626 17.4143C9.91273 17.3341 9.95928 17.2633 10.0263 17.2164C10.8589 16.6029 11.8176 16.1824 12.8328 15.9853C13.6761 15.8275 14.548 15.9836 15.2841 16.4243C16.5544 17.2036 16.9078 18.6865 16.816 19.9243L17.1379 20.1643L17.1849 19.8077C17.4735 17.748 18.0949 15.6034 19.3948 14.5174C19.4262 14.4861 19.4638 14.4616 19.5052 14.4455C19.5465 14.4295 19.5908 14.4222 19.6351 14.4242C19.6795 14.4262 19.7229 14.4373 19.7627 14.457C19.8025 14.4767 19.8378 14.5044 19.8663 14.5384C19.8948 14.5725 19.9159 14.612 19.9282 14.6547C19.9406 14.6973 19.944 14.742 19.9382 14.786C19.9323 14.83 19.9174 14.8723 19.8943 14.9102C19.8713 14.9481 19.8406 14.9809 19.8042 15.0063C18.751 15.8864 18.1877 17.5791 17.8927 19.3167C18.0246 19.255 18.1603 19.2021 18.2992 19.1583C18.7259 18.2334 19.5361 17.3463 20.7232 17.2516C21.4394 17.2018 22.149 17.4158 22.7182 17.8533C23.3943 18.3806 23.9445 19.0517 24.329 19.8181C24.366 19.8867 24.3765 19.9665 24.3585 20.0424C24.3406 20.1182 24.2955 20.1848 24.2317 20.2296C23.9236 20.4467 23.2958 20.4523 22.9697 20.5622C22.9614 20.5649 22.9531 20.5673 22.9446 20.5694C22.7111 20.6342 22.4814 20.7122 22.2568 20.803C21.8558 20.9684 21.4423 21.1013 21.0201 21.2004C19.7319 21.2482 19.1902 20.6572 18.7155 20.1392C18.6117 20.0209 18.501 19.9087 18.384 19.8034C18.1748 19.8832 17.9728 19.9803 17.7799 20.0939C17.5951 21.6542 17.5426 23.2274 17.6228 24.7966C17.6457 24.8539 17.6644 24.9127 17.6788 24.9727V24.9708ZM21.817 24.356C22.2021 24.2368 22.6704 24.1813 22.8086 24.639L18.0231 26.1957C17.9917 26.2059 17.8543 26.1816 17.6903 26.1787L17.3769 26.1744C17.5296 26.0267 17.6388 25.8399 17.6927 25.6343L21.817 24.3568V24.356ZM18.9657 10.6025C18.9657 10.6108 18.9657 10.619 18.9657 10.6273C18.9427 11.4679 19.9962 11.473 20.6091 11.4663C20.9478 11.4626 22.2728 11.5634 22.3594 11.5845C23.1659 11.7802 23.8756 12.0816 24.7019 11.6557C25.3009 11.3469 26.5763 10.4185 27.2972 9.9448L25.3164 6.75745L23.2958 8.01308C23.1339 8.11363 23.0209 8.02642 22.9454 8.02562L17.5449 7.98081C17.4505 7.98081 16.724 8.26858 16.4659 8.35819L12.1362 9.86213C11.798 9.97974 11.8007 10.7502 12.3429 10.9132C12.4323 10.9401 12.5266 10.946 12.6186 10.9306C12.7107 10.9152 12.7979 10.8789 12.8737 10.8244C12.8997 10.8063 12.9284 10.7923 12.9587 10.7828L17.8316 9.19884C18.0762 9.17982 18.3217 9.17653 18.5667 9.18897L20.0527 9.20151C20.5445 9.18444 23.2217 9.22818 23.23 9.22818C23.3143 9.22952 23.3947 9.26433 23.4535 9.32495C23.5122 9.38557 23.5444 9.46703 23.5431 9.55142C23.5417 9.6358 23.5069 9.7162 23.4463 9.77492C23.3857 9.83364 23.3042 9.86587 23.2198 9.86453L20.0765 9.83786C19.8856 9.87809 19.6995 9.93852 19.5215 10.0181C19.2862 10.1248 18.9769 10.3169 18.9657 10.603V10.6025ZM18.3728 11.0284C18.616 12.0275 19.7839 12.1115 20.6131 12.1027C20.676 12.1027 20.7627 12.1043 20.8638 12.1088C21.7732 12.5934 22.5788 13.2516 23.235 14.0461C23.2613 14.0791 23.2939 14.1065 23.3309 14.1267C23.3679 14.1469 23.4085 14.1596 23.4505 14.164C23.4924 14.1684 23.5348 14.1644 23.5752 14.1523C23.6155 14.1402 23.6531 14.1201 23.6857 14.0934C23.7182 14.0666 23.7452 14.0336 23.7649 13.9963C23.7846 13.9591 23.7967 13.9183 23.8005 13.8763C23.8043 13.8343 23.7997 13.792 23.787 13.7518C23.7743 13.7116 23.7538 13.6743 23.7266 13.6421C23.2809 13.1014 22.7703 12.6177 22.2064 12.2019L22.5651 12.2944C23.3612 12.5051 24.0749 12.6945 24.9921 12.2211C25.7121 11.8501 27.1027 10.8092 27.9004 10.3134C27.972 10.2685 28.023 10.1972 28.0422 10.1149C28.0614 10.0326 28.0472 9.94604 28.0028 9.87413L25.6897 6.1499C25.6448 6.07835 25.5734 6.02745 25.4912 6.00832C25.4089 5.98918 25.3224 6.00336 25.2505 6.04776L23.0761 7.39887C23.0343 7.39247 22.9922 7.38908 22.9499 7.38873L17.5495 7.34393C17.3126 7.34179 16.6133 7.63197 16.2557 7.75625L11.9266 9.26071C11.3286 9.46874 11.1481 10.1731 11.3444 10.7385C11.4338 11.0007 11.6085 11.2253 11.8405 11.3765C12.0726 11.5277 12.3486 11.5968 12.6246 11.5728C10.0293 13.1034 8.7107 16.0291 8.7107 19.0329C8.70788 19.0766 8.71404 19.1204 8.72882 19.1616C8.74359 19.2028 8.76665 19.2405 8.79659 19.2725C8.82652 19.3044 8.86269 19.3298 8.90285 19.3472C8.94301 19.3646 8.98631 19.3736 9.03008 19.3736C9.07385 19.3736 9.11715 19.3646 9.15731 19.3472C9.19747 19.3298 9.23363 19.3044 9.26357 19.2725C9.2935 19.2405 9.31657 19.2028 9.33134 19.1616C9.34611 19.1204 9.35228 19.0766 9.34945 19.0329C9.34945 16.2376 10.5635 13.5077 12.9883 12.1003C13.3865 12.443 13.9426 12.4006 14.4224 12.252L18.3728 11.0284ZM14.2346 11.6418C13.8423 11.7632 13.378 11.8101 13.243 11.3589L18.029 9.80425C18.0605 9.79412 18.1978 9.81839 18.3618 9.82132L18.6752 9.82559C18.5225 9.97333 18.4133 10.1601 18.3594 10.3657L14.2352 11.6432L14.2346 11.6418ZM15.7378 19.9096C14.6947 19.1401 13.5497 18.5194 12.3357 18.0653C12.2961 18.0504 12.2598 18.0276 12.2291 17.9984C12.1983 17.9693 12.1737 17.9343 12.1566 17.8955C12.1396 17.8567 12.1304 17.8148 12.1297 17.7725C12.129 17.7301 12.1368 17.688 12.1526 17.6486C12.1683 17.6093 12.1918 17.5735 12.2216 17.5433C12.2513 17.5132 12.2868 17.4892 12.326 17.473C12.3651 17.4567 12.4071 17.4484 12.4495 17.4485C12.4919 17.4487 12.5338 17.4572 12.5728 17.4738C13.8671 17.9591 15.0858 18.6259 16.1925 19.4541C16.1698 18.5206 15.8543 17.5199 14.9539 16.9676C14.3465 16.607 13.6281 16.4809 12.9342 16.6132C12.1329 16.7663 11.3712 17.0808 10.6952 17.5375C10.9886 17.7802 11.2606 17.9403 11.558 18.2214C11.7901 18.4341 12.0101 18.6596 12.217 18.8969C12.4859 19.1922 12.7936 19.5301 13.1702 19.8738C14.2522 20.4721 14.9977 20.1896 15.6519 19.9419L15.7378 19.9096ZM23.3206 19.8402C23.4105 19.8253 23.5012 19.8101 23.5828 19.7941C22.951 18.7473 21.9981 17.7917 20.7747 17.8896C20.43 17.9311 20.0999 18.0533 19.8111 18.2461C19.5223 18.439 19.2831 18.6971 19.1126 18.9996C20.1817 18.884 21.2607 18.8945 22.3274 19.0308C22.3707 19.034 22.4129 19.046 22.4514 19.0661C22.4899 19.0861 22.524 19.1137 22.5514 19.1474C22.5789 19.181 22.5993 19.2198 22.6113 19.2615C22.6233 19.3032 22.6267 19.347 22.6212 19.39C22.6158 19.4331 22.6016 19.4746 22.5797 19.512C22.5577 19.5495 22.5283 19.582 22.4934 19.6078C22.4584 19.6335 22.4186 19.6518 22.3763 19.6617C22.334 19.6715 22.2902 19.6727 22.2474 19.665C21.2106 19.5306 20.1613 19.5233 19.1227 19.6434L19.1841 19.7101C19.5631 20.1237 19.9951 20.5953 20.9803 20.5649C21.3924 20.451 21.7343 20.3216 22.0333 20.2086C22.4462 20.0349 22.8783 19.9112 23.3206 19.8402ZM9.62736 20.7737C9.5367 20.4937 9.46733 20.2072 9.41986 19.9168C9.40509 19.8348 9.35879 19.7619 9.29088 19.7136C9.22296 19.6654 9.13885 19.6457 9.05658 19.6587C8.97431 19.6718 8.90043 19.7166 8.85078 19.7834C8.80112 19.8503 8.77966 19.934 8.79098 20.0165C8.84372 20.3391 8.92056 20.6573 9.02088 20.9684C9.04669 21.0488 9.1034 21.1157 9.17853 21.1543C9.25365 21.1929 9.34104 21.2001 9.42146 21.1743C9.50189 21.1485 9.56876 21.0918 9.60737 21.0166C9.64599 20.9415 9.65318 20.8541 9.62736 20.7737ZM23.8911 14.9676C24.1373 15.3726 24.3458 15.7993 24.5139 16.2424C24.5483 16.3153 24.6089 16.3725 24.6837 16.4026C24.7585 16.4327 24.8419 16.4335 24.9172 16.4048C24.9925 16.3761 25.0542 16.32 25.09 16.2478C25.1258 16.1756 25.133 16.0925 25.1102 16.0152C24.9268 15.5369 24.7007 15.0761 24.4349 14.6382C24.3908 14.5671 24.3203 14.5163 24.2389 14.4968C24.1575 14.4773 24.0717 14.4907 24.0002 14.534C23.9286 14.5774 23.877 14.6472 23.8565 14.7284C23.8361 14.8096 23.8485 14.8955 23.8911 14.9676Z" stroke="white" stroke-width="2" mask="url(#path-2-inside-1_55_2)"/>
</svg>
