<svg width="140" height="140" viewBox="0 0 140 140" fill="none" xmlns="http://www.w3.org/2000/svg">
<rect width="140" height="140" rx="12" fill="#D0F19E"/>
<circle opacity="0.6" cx="70" cy="70" r="45" fill="white"/>
<path fill-rule="evenodd" clip-rule="evenodd" d="M94.3093 52.9117L87.969 41.9384C87.742 41.5444 87.3519 41.3196 86.8957 41.3196H74.9209C74.4669 41.3196 74.0768 41.5444 73.8477 41.9384L67.8665 52.2929C67.6394 52.6869 67.6394 53.1366 67.8665 53.5305L73.8477 63.8851C74.0747 64.2791 74.4648 64.5039 74.9209 64.5039H86.8957C87.3498 64.5039 87.7399 64.2791 87.969 63.8851L94.3093 52.9117ZM59.2331 38.1864C59.3962 40.0036 59.035 41.9239 58.0877 43.6937C56.9793 42.2931 55.7864 41.072 54.5419 40.1191C53.7988 39.5519 52.8494 39.3497 51.9393 39.5663C51.0229 39.7849 50.2757 40.3831 49.865 41.2309C48.7629 43.508 47.7743 45.9028 46.9198 48.3202C46.5236 48.1697 46.1335 47.9861 45.7558 47.7675C45.3781 47.5488 45.0231 47.3034 44.6949 47.0352C46.3626 45.088 47.9435 43.0357 49.3656 40.9421C49.8939 40.1624 50.0405 39.2156 49.7701 38.3143C49.5018 37.4191 48.8537 36.6971 47.9889 36.3382C46.5401 35.7359 44.8848 35.3151 43.1181 35.0553C44.1769 33.3515 45.6588 32.0768 47.3161 31.3095C47.4874 33.9765 48.9445 36.5115 51.4295 37.945C53.9124 39.3786 56.8411 39.3724 59.2373 38.1864H59.2331ZM47.6546 39.7829C47.8362 39.5168 47.8816 39.2115 47.7908 38.9042C47.6979 38.5948 47.4936 38.3658 47.1943 38.2421C41.4319 35.8473 31.5334 36.5899 25.6553 39.3105C20.6875 41.6083 14.504 47.9036 20.4171 52.7282C24.32 55.9109 28.5035 57.1299 34.8253 53.4253C38.4929 51.276 44.1088 45.0055 47.6546 39.7829ZM51.7205 42.1281C48.9672 47.8087 46.3419 55.8057 46.313 60.0527C46.2656 67.3772 49.413 70.3887 54.1208 72.175C61.2578 74.8812 63.621 66.3809 63.1277 60.9314C62.5457 54.4855 58.2404 45.546 53.2849 41.7548C53.029 41.5588 52.7277 41.4949 52.414 41.5691C52.1002 41.6434 51.8608 41.8352 51.7205 42.1261V42.1281ZM58.6573 25.4267C58.1434 25.1297 57.6047 24.9152 57.0557 24.7791C57.3116 23.6302 57.4932 22.1925 57.3735 20.7837C57.2332 19.1232 56.6863 17.4752 55.3901 16.2726C54.9732 15.8869 54.321 15.9137 53.9371 16.3324C53.5512 16.7491 53.578 17.4009 53.997 17.7846C54.8494 18.5766 55.2168 19.7482 55.32 20.9569C55.4335 22.2894 55.2333 23.6343 54.9877 24.6223C53.0538 24.8017 51.2355 25.8846 50.1891 27.6936C48.4781 30.6577 49.4935 34.4468 52.4573 36.1567C55.4231 37.8667 59.2146 36.8518 60.9255 33.8898C61.9699 32.0809 61.9988 29.9646 61.1877 28.201C61.9224 27.4935 62.9874 26.6478 64.1989 26.0806C65.2969 25.5649 66.496 25.2968 67.6085 25.6392C68.1513 25.8083 68.7271 25.5051 68.8964 24.9647C69.0656 24.4243 68.7622 23.8467 68.2215 23.6776C66.5332 23.1578 64.8305 23.5085 63.3217 24.216C62.0421 24.8162 60.8863 25.6949 60.0195 26.489C59.6273 26.0827 59.1712 25.7238 58.6573 25.4267ZM43.4731 68.0001C41.0769 69.3697 38.6497 70.0174 36.4682 69.7946C36.1276 69.7596 35.8222 69.8524 35.5559 70.069L31.7191 73.2145C31.5169 73.3816 31.2444 73.4022 31.0174 73.2723C30.7904 73.1403 30.6727 72.8948 30.7161 72.6349L31.523 67.7423C31.5788 67.404 31.5045 67.0946 31.3043 66.8162C30.0205 65.0423 29.3683 62.6166 29.3559 59.8567C31.232 61.8431 33.49 63.5386 35.8531 64.902C38.2142 66.2654 40.8148 67.371 43.4731 68.0022V68.0001ZM30.0473 57.5424C31.49 57.2619 32.9637 56.7277 34.4889 55.9562C35.8469 57.1258 37.4073 58.2375 39.1286 59.2317C40.8499 60.2239 42.5939 61.018 44.2863 61.61C44.3812 63.3158 44.6557 64.8587 45.1325 66.2489C42.2636 65.7477 39.401 64.5679 36.8851 63.1157C34.3712 61.6657 31.9152 59.7763 30.0473 57.5445V57.5424ZM36.4042 54.8733C37.6198 54.0916 38.8355 53.0809 39.9789 52.0124C40.7446 52.5528 41.5537 53.0726 42.404 53.5615C43.2523 54.0503 44.1067 54.4917 44.9591 54.8857C44.6062 56.408 44.3379 57.9653 44.2677 59.4091C42.92 58.8935 41.5371 58.2375 40.1605 57.4455C38.7859 56.6513 37.5249 55.783 36.4042 54.8733ZM41.4773 50.5459C42.1047 49.9044 42.7198 49.2505 43.3224 48.5843C43.7517 48.937 44.2161 49.2608 44.7197 49.5517C45.2212 49.8425 45.7351 50.0818 46.2552 50.2777C45.9807 51.1317 45.7207 51.9918 45.4792 52.856C44.8002 52.5301 44.115 52.1712 43.4339 51.7773C42.7528 51.3833 42.0985 50.9728 41.4773 50.5459ZM66.0894 101.758L72.0707 91.4031C72.2977 91.0091 72.2977 90.5595 72.0707 90.1655L66.0894 79.8109C65.8624 79.417 65.4723 79.1921 65.0162 79.1921H53.0414C52.5873 79.1921 52.1973 79.417 51.9682 79.8109L45.9869 90.1655C45.7599 90.5595 45.7599 91.0091 45.9869 91.4031L51.9682 101.758C52.1952 102.152 52.5853 102.376 53.0414 102.376H65.0162C65.4703 102.376 65.8603 102.152 66.0894 101.758ZM93.9481 102.789C94.1752 103.183 94.1752 103.633 93.9481 104.027L87.9669 114.381C87.7399 114.775 87.3498 115 86.8937 115H74.9209C74.4669 115 74.0768 114.775 73.8477 114.381L67.8665 104.027C67.6394 103.633 67.6394 103.183 67.8665 102.789L73.8477 92.4344C74.0747 92.0405 74.4648 91.8157 74.9209 91.8157H86.8937C87.3477 91.8157 87.7378 92.0405 87.9669 92.4344L93.9481 102.789ZM89.7481 91.4031L95.7293 101.758C95.9563 102.152 96.3464 102.376 96.8025 102.376H108.775C109.229 102.376 109.619 102.152 109.849 101.758L115.83 91.4031C116.057 91.0091 116.057 90.5595 115.83 90.1655L109.489 79.1921H96.8025C96.3485 79.1921 95.9584 79.417 95.7293 79.8109L89.7481 90.1655C89.521 90.5595 89.521 91.0091 89.7481 91.4031ZM93.9481 77.542C94.1752 77.936 94.1752 78.3856 93.9481 78.7796L87.9669 89.1342C87.7399 89.5282 87.3498 89.753 86.8937 89.753H74.9209C74.4669 89.753 74.0768 89.5282 73.8477 89.1342L67.8665 78.7796C67.6394 78.3856 67.6394 77.936 67.8665 77.542L73.8477 67.1874C74.0747 66.7935 74.4648 66.5686 74.9209 66.5686H86.8937C87.3477 66.5686 87.7378 66.7935 87.9669 67.1874L93.9481 77.542ZM89.746 66.154C89.519 65.7601 89.519 65.3104 89.746 64.9164L96.0843 53.9451H108.773C109.227 53.9451 109.617 54.17 109.846 54.5639L115.828 64.9185C116.055 65.3125 116.055 65.7621 115.828 66.1561L109.487 77.1295H96.8005C96.3464 77.1295 95.9563 76.9047 95.7272 76.5107L89.7439 66.154H89.746Z" fill="#1A5C4B"/>
</svg>
