<svg width="36" height="36" viewBox="0 0 36 36" fill="none" xmlns="http://www.w3.org/2000/svg">
<rect width="36" height="36" rx="18" fill="#006633"/>
<path d="M27.9512 9.51219H29.7073C29.8712 9.51219 30 9.38341 30 9.21951C30 9.05561 29.8712 8.92683 29.7073 8.92683H28.2439V8.04878C28.2439 7.88488 28.1151 7.7561 27.9512 7.7561H27.0732V6.29268C27.0732 6.12878 26.9444 6 26.7805 6H25.0244C24.8605 6 24.7317 6.12878 24.7317 6.29268V7.17073H23.5083C23.3854 6.83122 23.0634 6.58537 22.6829 6.58537C22.4546 6.58537 22.2556 6.67317 22.0976 6.81366C21.9395 6.67317 21.7405 6.58537 21.5122 6.58537C21.2839 6.58537 21.0849 6.67317 20.9268 6.81366C20.7688 6.67317 20.5698 6.58537 20.3415 6.58537C20.1132 6.58537 19.9141 6.67317 19.7561 6.81366C19.598 6.67317 19.399 6.58537 19.1707 6.58537C18.9424 6.58537 18.7434 6.67317 18.5854 6.81366C18.4273 6.67317 18.2283 6.58537 18 6.58537C17.6195 6.58537 17.2976 6.83122 17.1746 7.17073H11.2683V6.29268C11.2683 6.12878 11.1395 6 10.9756 6H9.21951C9.05561 6 8.92683 6.12878 8.92683 6.29268V20.0488H8.63415H6.29268C6.12878 20.0488 6 20.1776 6 20.3415V22.6829V25.0244V27.3659V29.7073C6 29.8712 6.12878 30 6.29268 30H10.9756H15.6585H20.3415H25.0244H29.7073C29.8712 30 30 29.8712 30 29.7073V27.3659V25.0244V22.6829V20.3415C30 20.1776 29.8712 20.0488 29.7073 20.0488H27.3659H27.0732V8.34146H27.6585V9.21951C27.6585 9.38341 27.7873 9.51219 27.9512 9.51219ZM25.3171 18.878H25.6098C25.7737 18.878 25.9024 18.7493 25.9024 18.5854C25.9024 18.4215 25.7737 18.2927 25.6098 18.2927H25.3171V15.3659H25.6098C25.7737 15.3659 25.9024 15.2371 25.9024 15.0732C25.9024 14.9093 25.7737 14.7805 25.6098 14.7805H25.3171V11.8537H25.6098C25.7737 11.8537 25.9024 11.7249 25.9024 11.561C25.9024 11.3971 25.7737 11.2683 25.6098 11.2683H25.3171V8.63415V7.46341V6.58537H26.4878V9.51219H26.1951C26.0312 9.51219 25.9024 9.64098 25.9024 9.80488C25.9024 9.96878 26.0312 10.0976 26.1951 10.0976H26.4878V13.0244H26.1951C26.0312 13.0244 25.9024 13.1532 25.9024 13.3171C25.9024 13.481 26.0312 13.6098 26.1951 13.6098H26.4878V16.5366H26.1951C26.0312 16.5366 25.9024 16.6654 25.9024 16.8293C25.9024 16.9932 26.0312 17.122 26.1951 17.122H26.4878V20.0488H25.3171V18.878ZM25.0244 20.6341H26.7805H27.0732V22.3902H25.0244H22.9756V20.6341H25.0244ZM13.6098 22.3902V20.6341H17.7073V22.3902H15.6585H13.6098ZM15.3659 22.9756V24.7317H13.3171H11.2683V22.9756H13.3171H15.3659ZM15.9512 22.9756H18H20.0488V24.7317H18H15.9512V22.9756ZM18.2927 22.3902V20.6341H22.3902V22.3902H20.3415H18.2927ZM20.6341 22.9756H22.6829H24.7317V24.7317H22.6829H20.6341V22.9756ZM23.561 7.7561H24.7317V8.34146H23.561V7.7561ZM22.3902 7.46341C22.3902 7.29951 22.519 7.17073 22.6829 7.17073C22.8468 7.17073 22.9756 7.29951 22.9756 7.46341V8.63415C22.9756 8.79805 22.8468 8.92683 22.6829 8.92683C22.519 8.92683 22.3902 8.79805 22.3902 8.63415V7.46341ZM21.2195 7.46341C21.2195 7.29951 21.3483 7.17073 21.5122 7.17073C21.6761 7.17073 21.8049 7.29951 21.8049 7.46341V8.63415C21.8049 8.79805 21.6761 8.92683 21.5122 8.92683C21.3483 8.92683 21.2195 8.79805 21.2195 8.63415V7.46341ZM20.0488 7.46341C20.0488 7.29951 20.1776 7.17073 20.3415 7.17073C20.5054 7.17073 20.6341 7.29951 20.6341 7.46341V8.63415C20.6341 8.79805 20.5054 8.92683 20.3415 8.92683C20.1776 8.92683 20.0488 8.79805 20.0488 8.63415V7.46341ZM18.878 7.46341C18.878 7.29951 19.0068 7.17073 19.1707 7.17073C19.3346 7.17073 19.4634 7.29951 19.4634 7.46341V8.63415C19.4634 8.79805 19.3346 8.92683 19.1707 8.92683C19.0068 8.92683 18.878 8.79805 18.878 8.63415V7.46341ZM17.7073 7.46341C17.7073 7.29951 17.8361 7.17073 18 7.17073C18.1639 7.17073 18.2927 7.29951 18.2927 7.46341V8.63415C18.2927 8.79805 18.1639 8.92683 18 8.92683C17.8361 8.92683 17.7073 8.79805 17.7073 8.63415V7.46341ZM17.4146 11.2683C18.1229 11.2683 18.7141 11.7717 18.8488 12.439H15.9805C16.1151 11.7717 16.7063 11.2683 17.4146 11.2683ZM19.4107 13.0244L18.9249 15.9512H15.9102L15.4244 13.0244H19.4107ZM11.2683 7.7561H17.122V8.34146H11.2683V7.7561ZM11.2683 8.92683H17.122V10.7122C16.2263 10.841 15.5239 11.5434 15.3951 12.439H15.0732C14.9854 12.439 14.9034 12.4741 14.8507 12.5444C14.7922 12.6088 14.7688 12.6966 14.7863 12.7844L15.3717 16.2966C15.3951 16.4371 15.518 16.5424 15.6585 16.5424H19.1707C19.3112 16.5424 19.4341 16.4371 19.4576 16.2966L20.0429 12.7844C20.0546 12.6966 20.0312 12.6146 19.9785 12.5444C19.9259 12.48 19.8439 12.439 19.7561 12.439H19.4341C19.3054 11.5434 18.6029 10.841 17.7073 10.7122V9.45951C17.801 9.48878 17.8946 9.51219 18 9.51219C18.2283 9.51219 18.4273 9.42439 18.5854 9.2839C18.7434 9.42439 18.9424 9.51219 19.1707 9.51219C19.399 9.51219 19.598 9.42439 19.7561 9.2839C19.9141 9.42439 20.1132 9.51219 20.3415 9.51219C20.5698 9.51219 20.7688 9.42439 20.9268 9.2839C21.0849 9.42439 21.2839 9.51219 21.5122 9.51219C21.7405 9.51219 21.9395 9.42439 22.0976 9.2839C22.2556 9.42439 22.4546 9.51219 22.6829 9.51219C23.0634 9.51219 23.3854 9.26634 23.5083 8.92683H24.7317V20.0488H22.6829H18H13.3171H11.2683V8.92683ZM9.51219 18.878H9.80488C9.96878 18.878 10.0976 18.7493 10.0976 18.5854C10.0976 18.4215 9.96878 18.2927 9.80488 18.2927H9.51219V15.3659H9.80488C9.96878 15.3659 10.0976 15.2371 10.0976 15.0732C10.0976 14.9093 9.96878 14.7805 9.80488 14.7805H9.51219V11.8537H9.80488C9.96878 11.8537 10.0976 11.7249 10.0976 11.561C10.0976 11.3971 9.96878 11.2683 9.80488 11.2683H9.51219V6.58537H10.6829V7.46341V8.63415V9.51219H10.3902C10.2263 9.51219 10.0976 9.64098 10.0976 9.80488C10.0976 9.96878 10.2263 10.0976 10.3902 10.0976H10.6829V13.0244H10.3902C10.2263 13.0244 10.0976 13.1532 10.0976 13.3171C10.0976 13.481 10.2263 13.6098 10.3902 13.6098H10.6829V16.5366H10.3902C10.2263 16.5366 10.0976 16.6654 10.0976 16.8293C10.0976 16.9932 10.2263 17.122 10.3902 17.122H10.6829V20.0488H10.3902H9.51219V18.878ZM8.92683 20.6341H9.21951H10.3902H10.9756H13.0244V22.3902H10.9756H8.92683V20.6341ZM6.58537 20.6341H8.34146V22.3902H6.58537V20.6341ZM6.58537 22.9756H8.63415H10.6829V24.7317H8.63415H6.58537V22.9756ZM6.58537 25.3171H8.34146V27.0732H6.58537V25.3171ZM10.6829 29.4146H6.58537V27.6585H8.63415H10.6829V29.4146ZM8.92683 27.0732V25.3171H10.9756H13.0244V27.0732H10.9756H8.92683ZM15.3659 29.4146H11.2683V27.6585H13.3171H15.3659V29.4146ZM13.6098 27.0732V25.3171H15.6585H17.7073V27.0732H15.6585H13.6098ZM20.0488 29.4146H15.9512V27.6585H18H20.0488V29.4146ZM18.2927 27.0732V25.3171H20.3415H22.3902V27.0732H20.3415H18.2927ZM24.7317 29.4146H20.6341V27.6585H22.6829H24.7317V29.4146ZM22.9756 27.0732V25.3171H25.0244H27.0732V27.0732H25.0244H22.9756ZM29.4146 29.4146H25.3171V27.6585H27.3659H29.4146V29.4146ZM29.4146 27.0732H27.6585V25.3171H29.4146V27.0732ZM27.6585 20.6341H29.4146V22.3902H27.6585V20.6341ZM27.3659 22.9756H29.4146V24.7317H27.3659H25.3171V22.9756H27.3659Z" fill="white"/>
</svg>
