<svg width="36" height="36" viewBox="0 0 36 36" fill="none" xmlns="http://www.w3.org/2000/svg">
<rect width="36" height="36" rx="18" fill="#006633"/>
<path d="M29.957 6.20658C29.8743 6.04132 29.709 6 29.5024 6C16.9389 8.6029 9.37593 12.1561 7.02027 16.5768C6.11107 18.2708 5.98709 20.13 6.68965 21.9066C7.10293 22.9395 7.84682 23.9311 8.79735 24.7574C7.84682 25.9142 6.93762 27.1124 6.06974 28.3519C5.94576 28.5584 5.98709 28.8063 6.19372 28.9303C6.40036 29.0542 6.64832 29.0129 6.77231 28.8063C7.59886 27.6082 8.46673 26.41 9.33461 25.2119L9.41726 25.2945C10.4504 26.1621 11.4836 26.7405 12.5995 27.0711C13.3434 27.2776 14.0046 27.4016 14.6658 27.4016C19.8318 27.4016 22.5594 20.9563 24.6258 16.1224C25.0804 15.0482 25.4936 14.0566 25.9069 13.189C27.8493 9.14 29.8743 6.70237 29.8743 6.66105C29.9983 6.53711 30.0397 6.33053 29.957 6.20658ZM25.2043 12.8171C24.7911 13.6847 24.3365 14.7176 23.8819 15.7918C21.5675 21.2455 18.6746 28.0213 12.8888 26.2448C11.8969 25.9555 10.9464 25.3771 9.99585 24.5921L9.87186 24.5095C10.1612 24.1376 10.4504 23.7245 10.7397 23.3526L10.9051 23.27C11.6076 22.9395 12.3515 22.6503 13.1367 22.3611C13.8806 22.1132 14.6245 21.824 15.4097 21.6587C16.195 21.4521 16.9389 21.2869 17.7654 21.2042C18.5506 21.1216 19.3358 21.1216 20.1624 21.2869C19.4185 20.915 18.592 20.7911 17.7654 20.7497C16.9389 20.7084 16.1123 20.8324 15.2858 20.9563C14.4592 21.1216 13.674 21.3282 12.8888 21.5761C12.5581 21.7 12.1862 21.824 11.8556 21.9479C12.7235 20.8324 13.6327 19.7582 14.5832 18.684L14.9138 18.5187C15.5337 18.2295 16.1536 17.9403 16.8149 17.6511C17.4348 17.3618 18.096 17.0726 18.7159 16.8247C19.3358 16.5768 19.9971 16.329 20.6583 16.0811C21.3196 15.8745 21.9808 15.6679 22.6834 15.6266C21.9808 15.4613 21.2369 15.544 20.5343 15.6679C19.8318 15.7918 19.1292 15.9571 18.468 16.1637C17.6001 16.4529 16.7735 16.7834 15.947 17.114C16.7322 16.2876 17.5174 15.42 18.344 14.635V14.759L19.0466 14.3045C19.5012 14.0153 19.9971 13.7674 20.493 13.5195C20.9889 13.2716 21.4849 13.0237 21.9808 12.7758C22.4767 12.5279 22.9727 12.3213 23.5099 12.1147C24.0058 11.9082 24.5431 11.7429 25.1217 11.7016C24.5844 11.5363 23.9645 11.5776 23.3859 11.6603C22.8074 11.7429 22.2701 11.9082 21.7328 12.1147C21.3196 12.28 20.9476 12.4453 20.5757 12.6105C22.3527 11.0818 24.2538 9.63579 26.3615 8.64421C24.1712 9.59448 22.2701 10.9579 20.4104 12.4453C20.0797 12.7758 19.8731 12.9411 19.6665 13.1476C19.5425 13.2303 19.3772 13.2716 19.2532 13.3542C19.2532 13.2716 19.2532 13.2303 19.2945 13.1476C19.3358 12.8171 19.4185 12.4866 19.5012 12.1561C19.5838 11.8255 19.7078 11.495 19.8731 11.2058C20.0384 10.9166 20.2037 10.5861 20.4517 10.3382C20.1211 10.5034 19.8318 10.7513 19.5838 11.0405C19.3358 11.3297 19.1705 11.6603 19.0052 11.9908C18.8399 12.3213 18.7159 12.6518 18.6333 13.0237C18.5506 13.3955 18.468 13.7261 18.3853 14.0979L18.344 14.3045C17.2695 15.2961 16.195 16.329 15.1618 17.4032C15.1204 17.4445 15.0791 17.4858 15.0378 17.5271C15.0378 17.2792 15.0378 16.99 15.0378 16.7421C15.0791 16.2463 15.0791 15.7505 15.1618 15.2547C15.2031 14.759 15.2858 14.2632 15.4097 13.7674C15.5337 13.2716 15.699 12.8171 15.9057 12.3213C15.5751 12.7345 15.2858 13.189 15.0791 13.6434C14.8725 14.1392 14.7072 14.635 14.5832 15.1308C14.4592 15.6266 14.3766 16.1637 14.3352 16.7008C14.2939 17.2379 14.2526 17.7337 14.2526 18.2708V18.3534C13.0954 19.5929 12.0209 20.8324 10.9051 22.1132C10.8224 21.7826 10.7397 21.4521 10.6984 21.1216C10.5744 20.5432 10.4918 19.9647 10.4091 19.3863C10.3265 18.8079 10.2851 18.2295 10.2438 17.6511C10.2438 17.0726 10.2438 16.4942 10.3678 15.9158C10.0785 16.4529 9.95452 17.0726 9.87186 17.6511C9.78921 18.2708 9.78921 18.8492 9.78921 19.469C9.83054 20.0887 9.87186 20.6671 9.95452 21.2455C10.0372 21.7826 10.1198 22.3611 10.2438 22.8982C9.91319 23.27 9.6239 23.6832 9.29328 24.055C8.4254 23.3113 7.80549 22.4437 7.43355 21.5347C6.85496 20.0061 6.93762 18.4774 7.72284 16.9487C9.25195 14.1392 14.0873 10.1729 28.5932 7.0329C27.808 8.10711 26.5268 10.0903 25.2043 12.8171Z" fill="white"/>
</svg>
