<svg width="140" height="140" viewBox="0 0 140 140" fill="none" xmlns="http://www.w3.org/2000/svg">
<g id="Seed spice scheme">
<rect width="140" height="140" rx="70" fill="#D0F19E"/>
<circle id="Ellipse 5190" opacity="0.6" cx="70" cy="70" r="50" fill="#ECF9D8"/>
<g id="Page-1">
<g id="009---Dried-Fruit-and-Spice">
<path id="Shape" d="M89.871 46.8617V43.5685C89.871 42.6591 89.1337 41.9219 88.2244 41.9219C87.315 41.9219 86.5778 42.6591 86.5778 43.5685V46.8617C86.5778 47.7711 87.315 48.5083 88.2244 48.5083C89.1337 48.5083 89.871 47.7711 89.871 46.8617Z" fill="#1A5C4B"/>
<path id="Shape_2" d="M88.2244 38.6289C89.1337 38.6289 89.871 37.8917 89.871 36.9823V33.6891C89.871 32.7797 89.1337 32.0425 88.2244 32.0425C87.315 32.0425 86.5778 32.7797 86.5778 33.6891V36.9823C86.5778 37.8917 87.315 38.6289 88.2244 38.6289Z" fill="#1A5C4B"/>
<path id="Shape_3" d="M81.6379 41.9221H84.9311C85.8405 41.9221 86.5777 41.1849 86.5777 40.2755C86.5777 39.3661 85.8405 38.6289 84.9311 38.6289H81.6379C80.7285 38.6289 79.9913 39.3661 79.9913 40.2755C79.9913 41.1849 80.7285 41.9221 81.6379 41.9221Z" fill="#1A5C4B"/>
<path id="Shape_4" d="M91.5174 41.9221H94.8106C95.72 41.9221 96.4572 41.1849 96.4572 40.2755C96.4572 39.3661 95.72 38.6289 94.8106 38.6289H91.5174C90.6081 38.6289 89.8708 39.3661 89.8708 40.2755C89.8708 41.1849 90.6081 41.9221 91.5174 41.9221Z" fill="#1A5C4B"/>
<path id="Shape_5" d="M68.9476 95.0961L66.4777 97.566C66.0497 97.9794 65.878 98.5916 66.0287 99.1673C66.1794 99.743 66.629 100.193 67.2047 100.343C67.7804 100.494 68.3926 100.322 68.806 99.8943L71.2759 97.4244C71.8999 96.7783 71.891 95.7513 71.2558 95.1161C70.6207 94.481 69.5937 94.4721 68.9476 95.0961Z" fill="#1A5C4B"/>
<path id="Shape_6" d="M61.5379 102.505L59.068 104.975C58.64 105.389 58.4683 106.001 58.619 106.577C58.7697 107.152 59.2193 107.602 59.795 107.753C60.3707 107.903 60.9829 107.732 61.3963 107.304L63.8662 104.834C64.4902 104.188 64.4813 103.161 63.8462 102.525C63.211 101.89 62.184 101.881 61.5379 102.505Z" fill="#1A5C4B"/>
<path id="Shape_7" d="M61.3963 95.0961C60.7503 94.4721 59.7233 94.481 59.0881 95.1161C58.453 95.7513 58.444 96.7783 59.0681 97.4244L61.538 99.8943C62.184 100.518 63.211 100.509 63.8462 99.8742C64.4813 99.2391 64.4903 98.2121 63.8662 97.566L61.3963 95.0961Z" fill="#1A5C4B"/>
<path id="Shape_8" d="M68.806 102.505C68.1599 101.881 67.1329 101.89 66.4978 102.525C65.8626 103.161 65.8537 104.188 66.4777 104.834L68.9476 107.304C69.5937 107.928 70.6207 107.919 71.2559 107.283C71.891 106.648 71.8999 105.621 71.2759 104.975L68.806 102.505Z" fill="#1A5C4B"/>
<path id="Shape_9" d="M32.3207 55.0953H42.3534C42.5062 54.5058 42.7418 53.9408 43.0532 53.4174L35.9531 46.3173C33.8984 48.8182 32.634 51.8738 32.3207 55.0953Z" fill="#1A5C4B"/>
<path id="Shape_10" d="M35.9531 67.1662L43.0532 60.066C42.7418 59.5426 42.5062 58.9777 42.3534 58.3882H32.3207C32.634 61.6097 33.8984 64.6652 35.9531 67.1662Z" fill="#1A5C4B"/>
<path id="Shape_11" d="M47.0594 50.389V40.3563C43.8379 40.6697 40.7824 41.9341 38.2814 43.9887L45.3815 51.0888C45.9049 50.7775 46.4698 50.5419 47.0594 50.389Z" fill="#1A5C4B"/>
<path id="Shape_12" d="M47.0594 71.2446V63.0939C46.4699 62.9411 45.9049 62.7055 45.3815 62.3941L38.3011 69.4745C39.9212 70.7986 41.7811 71.7982 43.7794 72.4186L47.0594 71.2446Z" fill="#1A5C4B"/>
<path id="Shape_13" d="M114.884 68.1264C115.268 67.6732 115.573 67.1596 115.788 66.6065C116.511 64.7843 116.31 62.7251 115.248 61.0773C112.881 57.8619 109.284 55.7746 105.318 55.3142C103.097 55.1238 100.861 55.4408 98.7806 56.2412C101.818 59.0994 103.515 63.1029 103.455 67.2734C107.229 66.0402 111.336 66.3467 114.884 68.1264Z" fill="#1A5C4B"/>
<path id="Shape_14" d="M87.7896 67.7373C87.7896 68.0304 87.7896 68.312 87.811 68.5771C91.5265 70.4371 94.2457 73.8255 95.2569 77.8556C98.0473 75.9317 99.8196 72.8505 100.08 69.4712C100.151 68.8961 100.186 68.3169 100.182 67.7373C100.462 63.2086 98.0289 58.9453 93.9874 56.8829C89.9439 58.9437 87.5092 63.2077 87.7896 67.7373Z" fill="#1A5C4B"/>
<path id="Shape_15" d="M33.4438 76.1206L39.2283 74.0492C29.9518 68.95 26.3514 57.4395 31.0687 47.9631C35.786 38.4867 47.1403 34.4206 56.8009 38.7482C66.4615 43.0758 70.9865 54.2552 67.0558 64.084L72.8354 62.0142C73.2113 60.2819 73.4023 58.5145 73.4051 56.7418C73.4239 45.1916 65.4354 35.1707 54.1715 32.6149C42.9076 30.0591 31.3765 35.6509 26.4086 46.0782C21.4406 56.5055 24.3627 68.9833 33.4438 76.1206Z" fill="#1A5C4B"/>
<path id="Shape_16" d="M68.4651 72.5966C68.4608 72.2336 68.5766 71.8793 68.7944 71.5889C72.6471 67.049 78.8906 65.3381 84.5195 67.2798C84.5371 65.0675 84.9979 62.8811 85.8746 60.8498L60.9089 69.7826C60.8694 69.7991 60.8315 69.8106 60.792 69.8254L34.6111 79.2012C35.7987 79.6337 36.96 80.1357 38.0887 80.7045C40.7014 81.8768 42.8843 83.8335 44.3342 86.3029C45.3748 88.2807 45.6755 90.5648 45.1822 92.7444C45.0884 93.1435 44.969 93.5362 44.8249 93.9201L74.6053 83.3078C71.0296 80.863 68.7679 76.9176 68.4651 72.5966Z" fill="#1A5C4B"/>
<path id="Shape_17" d="M51.031 59.0718C52.3122 57.7865 52.3122 55.707 51.031 54.4218C49.7457 53.1405 47.6662 53.1405 46.381 54.4218C45.0997 55.707 45.0997 57.7865 46.381 59.0718C47.6662 60.353 49.7457 60.353 51.031 59.0718Z" fill="#1A5C4B"/>
<path id="Shape_18" d="M80.9644 82.6461C83.8515 79.7073 87.8697 78.1628 91.9818 78.411C91.0524 75.158 88.7068 72.4967 85.5963 71.166C85.0924 70.9487 84.5441 70.7313 83.9678 70.5403C79.7633 68.8786 74.9724 69.8985 71.8093 73.1288C72.4879 77.6159 75.768 81.2707 80.1559 82.4287C80.4276 82.5259 80.6911 82.5753 80.9644 82.6461Z" fill="#1A5C4B"/>
<path id="Shape_19" d="M91.5059 81.6693C88.1249 81.5593 84.8785 82.9988 82.6901 85.5784C82.2988 86.0038 81.9358 86.4542 81.6033 86.9269C78.7246 90.4547 78.2112 95.3535 80.2959 99.4015C84.7528 100.13 89.2129 98.1195 91.6179 94.2971C91.8007 94.0468 91.9374 93.8031 92.0954 93.5512C90.1924 89.8615 89.9774 85.5292 91.5059 81.6693Z" fill="#1A5C4B"/>
<path id="Shape_20" d="M105.825 86.2438C105.062 86.364 104.292 86.4289 103.52 86.4381C100.204 86.4409 96.9927 85.2788 94.4467 83.1548C93.2879 86.3638 93.6432 89.9249 95.4133 92.8417C95.6965 93.3432 96.0082 93.8281 96.3469 94.294C98.7512 98.12 103.215 100.132 107.674 99.3985C109.758 95.355 109.246 90.4606 106.371 86.9354C106.194 86.6785 106.008 86.4727 105.825 86.2438Z" fill="#1A5C4B"/>
<path id="Shape_21" d="M104.007 70.5336C103.72 70.6291 103.468 70.741 103.198 70.8448C102.6 74.9411 100.249 78.5744 96.757 80.7984C99.4066 82.8826 102.863 83.6424 106.143 82.8616C106.185 82.852 106.229 82.8448 106.273 82.8402C106.796 82.7362 107.313 82.6004 107.82 82.4335C112.209 81.2706 115.485 77.61 116.157 73.1204C112.996 69.8933 108.209 68.8742 104.007 70.5336Z" fill="#1A5C4B"/>
<path id="Shape_22" d="M36.6216 83.6521C34.3453 82.3378 31.7906 81.5801 29.1658 81.4408C27.3216 81.4878 25.624 82.4569 24.6459 84.021C23.6836 85.4331 23.8072 87.3192 24.9456 88.5936C25.6903 89.2622 26.7253 89.5032 27.6888 89.2325C28.9536 88.9298 29.9954 88.0369 30.488 86.8334C30.8196 86.0015 31.7552 85.5871 32.594 85.9006C33.4329 86.2141 33.8674 87.1406 33.5721 87.986C33.5573 88.0255 33.5408 88.0667 33.5243 88.1078C34.1269 87.8373 34.7747 87.6821 35.4344 87.6501H35.5184C36.4278 87.6273 37.1834 88.3461 37.2061 89.2555C37.2289 90.1649 36.5101 90.9205 35.6007 90.9433C34.6895 90.9703 33.934 91.6574 33.8207 92.5619C33.7071 93.7836 34.296 94.9642 35.3405 95.6081C36.5258 96.4044 38.056 96.4743 39.3088 95.7892C40.6748 94.9522 41.6378 93.5917 41.973 92.0251C42.2948 90.6225 42.1056 89.1512 41.4395 87.8757C40.2883 86.0209 38.6112 84.5506 36.6216 83.6521Z" fill="#1A5C4B"/>
<path id="Shape_23" d="M59.1305 43.9887C56.6296 41.9341 53.574 40.6697 50.3525 40.3563V50.389C50.9421 50.5419 51.507 50.7775 52.0304 51.0888L59.1305 43.9887Z" fill="#1A5C4B"/>
<path id="Shape_24" d="M61.4589 46.3173L54.3588 53.4174C54.6701 53.9408 54.9057 54.5058 55.0586 55.0953H65.0913C64.778 51.8738 63.5136 48.8182 61.4589 46.3173Z" fill="#1A5C4B"/>
<path id="Shape_25" d="M52.0304 62.3941C51.507 62.7055 50.9421 62.9411 50.3525 63.0939V70.064L57.2353 67.5941L52.0304 62.3941Z" fill="#1A5C4B"/>
<path id="Shape_26" d="M62.4979 65.7155C63.9348 63.516 64.8204 61.0026 65.0798 58.3882H55.0586C54.9057 58.9777 54.6701 59.5426 54.3588 60.066L60.6652 66.3725L62.4979 65.7155Z" fill="#1A5C4B"/>
</g>
</g>
</g>
</svg>
