<svg width="280" height="280" viewBox="0 0 280 280" fill="none" xmlns="http://www.w3.org/2000/svg">
<rect width="280" height="280" rx="140" fill="#006633"/>
<path d="M218.353 94.1053C217.681 93.8547 217.176 93.6994 216.888 93.6177C213.688 91.8341 209.244 92.8441 206.664 94.5588C206.402 93.1668 205.832 91.851 204.995 90.7082C204.158 89.5654 203.076 88.6246 201.828 87.9547C200.315 87.1762 198.627 86.7992 196.927 86.8598C195.227 86.9204 193.571 87.4165 192.117 88.3006C188.185 90.6465 180.319 96.5359 171.831 109.607C166.667 117.479 160.442 124.601 153.333 130.772C142.6 140.176 129.225 155.368 126.466 174.353C122.901 198.888 132.878 222.294 137.331 231.22C138.068 232.701 139.238 233.923 140.684 234.726C142.13 235.53 143.785 235.876 145.432 235.72C193.068 245.708 234.066 204.014 228.021 156.648C226.906 146.873 228.006 136.973 231.238 127.681C237.246 114.891 231.812 99.0388 218.353 94.1053ZM141.015 229.382C125.865 198.126 121.979 162.082 156.048 133.87C163.442 127.449 169.914 120.039 175.284 111.849C183.472 99.56 192.175 91.3518 197.342 90.9641C202.565 91.0094 203.125 96.7371 202.801 98.2847C202.747 98.714 202.83 99.1493 203.037 99.5293C203.243 99.9092 203.564 100.215 203.954 100.403C204.343 100.591 204.782 100.653 205.208 100.579C205.634 100.505 206.027 100.299 206.33 99.9906C206.365 99.9541 209.888 96.3435 213.494 96.8176C215.542 97.0924 217.386 98.7159 218.978 101.645C222.902 108.865 220.354 118.492 217.524 125.296C213.753 134.251 211.768 143.856 211.682 153.572C211.302 217.225 160.741 229.388 145.255 231.599C144.405 231.722 143.538 231.575 142.777 231.177C142.015 230.778 141.399 230.151 141.015 229.382ZM228.562 122.843C224.412 133.581 222.538 145.356 223.93 157.107C224.682 163.886 224.515 170.735 223.435 177.469C218.573 209.651 190.095 233.842 157.861 233.104C179.767 226.902 215.475 208.376 215.802 153.598C215.886 144.416 217.764 135.339 221.331 126.878C225.301 117.329 226.141 108.954 223.821 102.427C226.429 105.054 228.255 108.356 229.092 111.961C229.929 115.567 229.746 119.335 228.562 122.843Z" fill="white"/>
<path d="M46.4782 178.492C47.563 193.33 55.8941 215.243 88.6812 234.575C90.489 235.627 92.5448 236.178 94.6364 236.17C96.728 236.162 98.7796 235.596 100.579 234.531C109.904 229.014 117.815 222.968 124.096 216.562C124.286 216.369 124.435 216.141 124.536 215.89C124.637 215.639 124.688 215.371 124.685 215.1C124.682 214.83 124.626 214.563 124.52 214.314C124.414 214.065 124.26 213.84 124.067 213.651C123.874 213.461 123.645 213.312 123.395 213.211C123.144 213.11 122.875 213.059 122.605 213.062C122.335 213.065 122.068 213.121 121.819 213.227C121.57 213.333 121.345 213.487 121.155 213.68C116.233 218.618 110.82 223.042 105 226.882C121.206 198.755 125.11 173.783 116.93 150.745C116.747 150.23 116.368 149.809 115.874 149.574C115.381 149.34 114.815 149.31 114.3 149.493C113.785 149.676 113.364 150.055 113.129 150.549C112.894 151.042 112.865 151.608 113.048 152.123C121.433 175.738 116.31 201.706 97.3894 231.508C96.378 231.906 95.293 232.084 94.2074 232.028C93.1218 231.972 92.0607 231.685 91.0953 231.185C81.9065 216.647 75.9165 202.713 73.2988 189.765C73.2478 189.497 73.1443 189.243 72.9942 189.016C72.8441 188.788 72.6504 188.593 72.4244 188.442C72.1985 188.29 71.9446 188.184 71.6776 188.131C71.4106 188.078 71.1357 188.079 70.8688 188.133C70.602 188.186 70.3485 188.293 70.123 188.445C69.8975 188.598 69.7045 188.794 69.5552 189.021C69.4058 189.249 69.3031 189.504 69.2529 189.771C69.2028 190.039 69.2062 190.314 69.263 190.58C71.55 201.894 76.293 213.888 83.3747 226.326C53.5477 206.988 42.9712 176.496 55.7277 152.432C67.2941 131.394 66.8571 120.737 66.7171 114.264C66.5371 94.2535 66.6641 75.1971 85.653 70.5671C78.9194 77.5823 80.5641 91.0123 81.0747 101.439C81.8024 114.733 82.4906 127.288 78.0918 136.484C75.0918 142.725 71.9571 148.441 69.5624 158.117C68.9741 160.725 72.8712 161.728 73.5653 159.081C75.4688 151.18 78.52 144.969 80.7483 140.434C86.7965 129.427 85.9547 115.512 85.1865 101.214C84.363 87.4153 82.9124 73.0182 94.3441 69.6982C107.115 73.2865 103.811 91.5035 103.29 105.169C103.262 105.714 103.452 106.248 103.819 106.654C104.185 107.059 104.697 107.302 105.242 107.33C105.787 107.357 106.322 107.167 106.727 106.801C107.132 106.435 107.375 105.923 107.403 105.378C107.718 99.1965 108.154 92.8635 108.156 86.6971C108.156 78.5494 105.718 73.5159 102.892 70.4088C122.539 74.7841 122.68 94.1335 122.455 114.598C122.32 119.789 122.094 128.476 128.968 143.565C129.2 144.053 129.614 144.43 130.122 144.616C130.629 144.801 131.189 144.779 131.681 144.555C132.173 144.332 132.557 143.924 132.75 143.419C132.944 142.915 132.931 142.355 132.715 141.859C126.139 127.315 126.464 119.65 126.58 114.37C127.137 89.3418 124.802 69.9865 101.389 65.9971C102.138 62.6411 103.566 59.474 105.586 56.6912C106.593 55.2942 107.021 53.5619 106.78 51.8566C106.54 50.1514 105.649 48.6053 104.294 47.5418L98.8747 43.2353C98.4762 42.9187 97.9746 42.761 97.4667 42.7925C96.9587 42.824 96.4805 43.0425 96.1241 43.4059C89.4653 50.1941 87.5753 60.0859 87.0647 66.1259C63.9965 70.4288 62.0588 90.2747 62.61 114.706C62.7653 120.696 63.0265 130.722 52.15 150.393C51.8682 150.87 45.2647 162.294 46.4782 178.492ZM97.8312 47.6629L101.736 50.7659C102.258 51.1713 102.603 51.7628 102.699 52.4169C102.796 53.0709 102.635 53.7368 102.252 54.2753C99.8175 57.6326 98.1241 61.4686 97.2835 65.5294C95.2737 65.4244 93.2594 65.4385 91.2512 65.5718C91.7694 60.5294 93.3212 53.1529 97.83 47.6629H97.8312Z" fill="white"/>
<path d="M148.966 214.579C150.025 217.659 158.232 213.995 179.189 198.194C197.441 184.096 194.49 156.116 194.185 153.612C194.202 146.729 195.644 142.541 197.038 138.494C199.789 131.459 200.882 122.796 197.541 117.268C198.567 115.924 199.37 114.423 199.918 112.823C200.085 112.307 200.042 111.745 199.797 111.261C199.552 110.776 199.126 110.408 198.611 110.236C198.096 110.065 197.534 110.103 197.047 110.344C196.561 110.584 196.189 111.007 196.012 111.52C195.483 113.041 194.646 114.438 193.555 115.624C191.429 117.496 188.849 119.741 185.892 122.302C179.915 121.607 174.967 127.745 176.902 133.434C174.889 133.839 173.085 134.945 171.81 136.554C170.535 138.164 169.871 140.173 169.936 142.225C159.451 142.586 157.461 157.049 167.358 160.248C167.455 161.887 168.053 163.457 169.071 164.746C167.863 165.406 166.822 166.331 166.024 167.452C165.226 168.573 164.693 169.86 164.465 171.216C163.206 170.745 161.855 170.57 160.518 170.705C160.398 169.014 159.777 167.397 158.733 166.061C157.69 164.725 156.272 163.73 154.66 163.205C155.702 161.604 156.831 160.063 158.044 158.588C159.727 156.47 156.619 153.911 154.864 155.972C153.025 158.201 151.366 160.574 149.905 163.067C144.921 164.208 141.976 170.287 144.356 174.954C137.978 177.862 137.345 187.023 143.286 190.766C139.795 194.721 140.869 201.438 145.267 204.142C146.149 207.736 147.388 211.232 148.966 214.579ZM149.956 205.625C151.675 205.693 153.376 205.26 154.852 204.377C155.116 205.928 155.788 207.381 156.798 208.587C155.212 209.503 153.576 210.331 151.898 211.066C151.158 209.287 150.51 207.471 149.956 205.625ZM168.219 201.208C165.196 203.351 162.616 205.058 160.43 206.422C157.156 203.553 159.308 197.957 163.671 198.01C164.666 198.009 165.638 198.316 166.452 198.889C167.266 199.461 167.883 200.271 168.219 201.208ZM176.936 156.108C178.344 161.631 185.056 164.902 190.348 162.382C190.263 165.03 190.017 167.671 189.612 170.29C188.432 169.798 187.162 169.56 185.884 169.591C184.605 169.623 183.348 169.924 182.194 170.474C181.805 168.948 181.025 167.549 179.931 166.415C181.824 164.774 179.656 161.799 177.504 163.114C176.928 163.473 176.269 163.678 175.591 163.709C174.913 163.739 174.238 163.595 173.631 163.29C173.025 162.985 172.507 162.529 172.128 161.965C171.749 161.402 171.521 160.751 171.466 160.074C171.412 159.397 171.532 158.718 171.816 158.101C172.1 157.484 172.538 156.951 173.087 156.552C173.637 156.154 174.28 155.903 174.954 155.825C175.629 155.747 176.312 155.843 176.938 156.105L176.936 156.108ZM192.125 135.968C192.585 135.968 193.043 136.033 193.485 136.16C192.328 139.234 191.421 142.397 190.771 145.617C189.907 145.369 189.128 144.889 188.516 144.229C187.905 143.57 187.486 142.756 187.304 141.876C187.298 141.494 187.267 141.113 187.212 140.735C187.253 139.458 187.788 138.247 188.705 137.358C189.622 136.469 190.848 135.97 192.125 135.968ZM185.588 147.118C186.837 148.432 188.453 149.341 190.225 149.725C189.958 152.991 190.072 153.221 190.33 157.474C185.253 162.289 177.732 155.684 181.815 150.027C183.318 149.426 184.625 148.419 185.588 147.118ZM181.471 176.859C181.581 176.646 181.687 176.432 181.78 176.212C182.117 175.628 182.57 175.12 183.109 174.716C183.648 174.312 184.264 174.022 184.919 173.862C185.574 173.703 186.254 173.678 186.919 173.788C187.583 173.899 188.219 174.143 188.786 174.506C188.065 177.641 187.007 180.688 185.631 183.596C184.868 183.52 184.134 183.27 183.484 182.864C182.834 182.458 182.287 181.908 181.884 181.256C181.482 180.605 181.235 179.869 181.163 179.106C181.091 178.343 181.197 177.574 181.471 176.859ZM194.471 120.294C195.73 122.661 195.869 128.335 194.685 132.219C194.324 132.114 193.957 132.031 193.586 131.972C193.787 130.463 193.581 128.927 192.991 127.524C192.401 126.121 191.448 124.9 190.23 123.987C191.765 122.662 193.184 121.424 194.471 120.294ZM185.082 126.376C185.793 126.381 186.493 126.555 187.123 126.883C187.754 127.211 188.298 127.684 188.71 128.263C189.122 128.842 189.391 129.51 189.495 130.213C189.598 130.917 189.533 131.634 189.305 132.308C187.436 132.926 185.818 134.135 184.697 135.754C183.862 134.935 182.871 134.293 181.782 133.866C179.171 131.1 181.264 126.306 185.082 126.376ZM178.615 137.376C179.665 137.378 180.683 137.74 181.499 138.403C182.314 139.065 182.877 139.988 183.093 141.016C183.1 141.387 183.129 141.757 183.181 142.124C182.786 148.046 174.217 147.889 174.04 141.951C174.042 140.739 174.524 139.576 175.382 138.719C176.24 137.862 177.402 137.38 178.615 137.378V137.376ZM164.984 151.435C164.987 150.672 165.161 149.919 165.492 149.232C165.824 148.545 166.305 147.94 166.9 147.463C167.496 146.985 168.191 146.647 168.934 146.473C169.677 146.299 170.449 146.293 171.195 146.456C171.828 147.499 172.674 148.398 173.677 149.093C174.68 149.788 175.819 150.265 177.018 150.491C176.882 150.915 176.774 151.347 176.697 151.785C174.995 151.514 173.251 151.794 171.719 152.584C170.187 153.373 168.947 154.631 168.179 156.174C167.233 155.796 166.422 155.142 165.853 154.297C165.283 153.452 164.98 152.456 164.984 151.436V151.435ZM173.406 167.755C174.211 167.761 175.002 167.961 175.712 168.34C176.422 168.718 177.03 169.262 177.483 169.927C177.937 170.591 178.223 171.355 178.317 172.154C178.41 172.953 178.309 173.763 178.022 174.514C177.912 174.726 177.806 174.941 177.713 175.161C175.255 179.524 168.455 177.789 168.448 172.712C168.45 171.398 168.973 170.138 169.903 169.209C170.832 168.28 172.092 167.758 173.406 167.756V167.755ZM166.108 179.471C166.079 184.529 159.154 185.936 157.124 181.379C157.035 180.946 156.914 180.52 156.762 180.105C156.142 173.501 165.818 172.844 166.108 179.471ZM152.036 166.9C152.698 166.902 153.35 167.053 153.945 167.343C154.54 167.632 155.062 168.052 155.472 168.571C155.882 169.091 156.17 169.696 156.313 170.342C156.457 170.988 156.453 171.658 156.301 172.302C155.069 173.183 154.084 174.365 153.439 175.735C152.033 174.743 150.372 174.174 148.652 174.096C146.269 171.388 148.412 166.792 152.036 166.9ZM148.222 178.194C149.186 178.195 150.129 178.477 150.935 179.005C151.742 179.533 152.377 180.285 152.764 181.168C152.852 181.605 152.974 182.036 153.128 182.455C153.227 183.158 153.174 183.874 152.973 184.555C152.772 185.236 152.428 185.866 151.963 186.402C151.498 186.939 150.924 187.369 150.278 187.665C149.633 187.961 148.932 188.115 148.222 188.116C141.656 187.882 141.656 178.424 148.222 178.192V178.194ZM148.222 192.234C149.984 192.232 151.707 191.717 153.182 190.753C154.656 189.789 155.819 188.417 156.529 186.805C161.599 190.348 169.027 187.169 170.061 181.146C171.22 181.607 172.461 181.823 173.707 181.781C174.953 181.739 176.177 181.44 177.302 180.902C177.694 182.427 178.474 183.824 179.567 184.957C180.66 186.09 182.028 186.92 183.538 187.366C180.942 191.778 176.259 195.425 172.111 198.389C169.435 195.525 171.329 190.545 175.234 190.179C175.505 190.151 175.768 190.07 176.007 189.94C176.247 189.809 176.458 189.633 176.629 189.42C176.799 189.208 176.926 188.963 177.001 188.702C177.077 188.44 177.1 188.165 177.068 187.895C177.037 187.624 176.952 187.362 176.819 187.124C176.685 186.887 176.506 186.678 176.292 186.51C176.077 186.342 175.831 186.218 175.568 186.146C175.305 186.074 175.031 186.055 174.761 186.089C172.664 186.333 170.718 187.301 169.259 188.826C167.8 190.351 166.918 192.337 166.766 194.442C165.535 193.994 164.221 193.82 162.916 193.933C161.61 194.046 160.345 194.443 159.209 195.096C159.126 193.622 158.056 192.232 156.454 192.677C155.928 192.825 155.483 193.176 155.216 193.652C154.949 194.129 154.882 194.692 155.031 195.217C155.238 195.955 155.272 196.73 155.129 197.483C154.987 198.236 154.672 198.945 154.21 199.556C153.748 200.167 153.15 200.663 152.465 201.004C151.779 201.346 151.023 201.524 150.257 201.525C145.152 201.511 143.419 194.653 147.898 192.217C148.005 192.219 148.112 192.232 148.222 192.232V192.234Z" fill="white"/>
<path d="M68.3429 172.037C66.4153 174.005 69.2923 176.919 71.2841 175.021C73.2135 173.054 70.3365 170.137 68.3429 172.037Z" fill="white"/>
</svg>
