<svg width="36" height="36" viewBox="0 0 36 36" fill="none" xmlns="http://www.w3.org/2000/svg">
<rect width="36" height="36" rx="18" fill="#006633"/>
<path d="M27.5229 9.70886L27.7985 9.43318L27.433 9.29767C27.2221 9.2195 27.0758 9.02362 27.0758 8.79365C27.0758 8.49343 27.3193 8.25 27.6195 8.25H29.2068C29.507 8.25 29.7504 8.49343 29.7504 8.79365V10.381C29.7504 10.6812 29.507 10.9246 29.2068 10.9246C28.9768 10.9246 28.7809 10.7783 28.7028 10.5675L28.5673 10.2019L28.2916 10.4776L24.8292 13.9399C24.6169 14.1523 24.2729 14.1523 24.0605 13.9399L23.0344 12.9137L22.8576 12.737L22.6808 12.9137L20.0673 15.5272C19.9611 15.6335 19.8224 15.6865 19.683 15.6865C19.5436 15.6865 19.4049 15.6335 19.2986 15.5272C19.0862 15.3148 19.0862 14.9709 19.2986 14.7585L22.4732 11.5839C22.6856 11.3715 23.0296 11.3715 23.2419 11.5839L24.2681 12.6101L24.4449 12.7868L24.6217 12.6101L27.5229 9.70886Z" stroke="white" stroke-width="0.5"/>
<path d="M25.2385 18.5675H25.4885V18.3175V15.9365C25.4885 15.6363 25.732 15.3929 26.0322 15.3929H29.2068C29.507 15.3929 29.7504 15.6363 29.7504 15.9365V27.0476C29.7504 27.3479 29.507 27.5913 29.2068 27.5913H8.57186C8.27164 27.5913 8.02821 27.3479 8.02821 27.0476C8.02821 26.7474 8.27164 26.504 8.57186 26.504H15.7147H15.9647V26.254V23.873C15.9647 23.5728 16.2082 23.3294 16.5084 23.3294H18.8893H19.1393V23.0794V21.4921C19.1393 21.1919 19.3828 20.9484 19.683 20.9484H22.0639H22.3139V20.6984V19.1111C22.3139 18.8109 22.5574 18.5675 22.8576 18.5675H25.2385ZM22.3139 22.2857V22.0357H22.0639H20.4766H20.2266V22.2857V26.254V26.504H20.4766H22.0639H22.3139V26.254V22.2857ZM17.302 24.4167H17.052V24.6667V26.254V26.504H17.302H18.8893H19.1393V26.254V24.6667V24.4167H18.8893H17.302ZM25.2385 26.504H25.4885V26.254V19.9048V19.6548H25.2385H23.6512H23.4012V19.9048V26.254V26.504H23.6512H25.2385ZM28.4131 26.504H28.6631V26.254V16.7302V16.4802H28.4131H26.8258H26.5758V16.7302V26.254V26.504H26.8258H28.4131Z" stroke="white" stroke-width="0.5"/>
<path d="M18.202 8.28574C16.2011 8.28574 14.0299 9.38641 13.003 10.4221C12.4676 10.962 12.1264 11.6511 12.0427 12.3628C11.9667 13.0072 12.1138 13.597 12.4554 14.0568C12.1319 14.5055 11.8975 15.1626 11.749 15.8221C11.5279 15.4253 11.2291 15.0517 10.865 14.7204C11.2099 13.9323 10.9018 12.861 10.1067 12.2746C9.44081 11.7836 8.22966 11.545 6.40404 11.545H6V11.871C6 13.1799 7.12388 14.6759 7.9061 15.2528C8.29705 15.5411 8.80372 15.681 9.25285 15.681C9.71281 15.681 10.1529 15.5318 10.4776 15.2473C11.1429 15.8703 11.5336 16.6498 11.5476 17.4117H9.87879C9.70036 17.4117 9.55556 17.5577 9.55556 17.7376C9.55556 17.9175 9.70036 18.0635 9.87879 18.0635H13.9192C14.0976 18.0635 14.2424 17.9175 14.2424 17.7376C14.2424 17.5577 14.0976 17.4117 13.9192 17.4117H12.1967C12.2054 16.5716 12.4764 15.2048 12.9248 14.5146C13.3036 14.7819 13.7594 14.9152 14.2384 14.9152C15.0067 14.9152 15.7905 14.5782 16.4375 13.9258C17.5473 12.8069 18.4444 10.3733 18.4444 8.61167V8.28574H18.202ZM10.3242 14.3169L8.8118 13.2018C8.6678 13.0957 8.46545 13.1271 8.36008 13.2725C8.25471 13.4179 8.28606 13.6217 8.43022 13.728L9.94246 14.8431C9.51079 15.1234 8.82554 15.0938 8.32792 14.7268C7.72848 14.2847 6.91669 13.1736 6.75556 12.2003C8.57309 12.2354 9.37293 12.5416 9.72461 12.8009C10.2225 13.1677 10.4582 13.8173 10.3242 14.3169ZM16.0207 13.4651C15.2336 14.2586 14.0937 14.4752 13.3621 14.0246L15.9451 11.4199C16.0713 11.2926 16.0713 11.0863 15.9451 10.959C15.8188 10.8317 15.6141 10.8317 15.488 10.959L12.9038 13.5648C12.7122 13.2536 12.6342 12.8652 12.6843 12.4396C12.7501 11.8809 13.0327 11.3135 13.4597 10.8829C14.3484 9.98677 16.1899 9.06178 17.8672 8.94901C17.7556 10.6414 16.8441 12.6348 16.0207 13.4651Z" fill="white"/>
<path fill-rule="evenodd" clip-rule="evenodd" d="M13.6974 18.9524H10.747C10.5831 18.9524 10.4494 19.0963 10.4448 19.2761C10.4444 19.2795 10.4444 19.2824 10.4444 19.2857C10.4444 19.4697 10.58 19.6191 10.747 19.6191H11.6552C11.8961 19.6191 12.1268 19.7242 12.2968 19.9115C12.3934 20.0179 12.4661 20.146 12.5108 20.2854H10.7471C10.5801 20.2854 10.4445 20.4347 10.4445 20.6187C10.4445 20.8027 10.5801 20.9521 10.7471 20.9521H12.5112C12.4661 21.0914 12.3938 21.2195 12.2968 21.3263C12.1268 21.5136 11.8961 21.6192 11.6553 21.6192H10.7471C10.58 21.6192 10.4445 21.7681 10.4445 21.9525C10.4445 22.1365 10.58 22.2859 10.7471 22.2859H11.1678L13.2778 24.2092C13.4061 24.3264 13.5974 24.3068 13.7038 24.165C13.8102 24.0231 13.7924 23.8129 13.6637 23.6956L12.0526 22.2271C12.3048 22.1516 12.537 22.0047 12.7248 21.7973C12.9365 21.5645 13.0786 21.27 13.1373 20.9521H13.6974C13.8644 20.9521 14 20.8027 14 20.6187C14 20.4347 13.8644 20.2854 13.6974 20.2854H13.1373C13.0926 20.0442 12.9998 19.8165 12.8657 19.6191H13.6974C13.8644 19.6191 14 19.4698 14 19.2858C14 19.1014 13.8644 18.9524 13.6974 18.9524Z" fill="white"/>
</svg>
