<svg width="140" height="140" viewBox="0 0 140 140" fill="none" xmlns="http://www.w3.org/2000/svg">
<rect width="140" height="140" rx="12" fill="#D0F19E"/>
<circle opacity="0.6" cx="70" cy="70" r="45" fill="white"/>
<path d="M111.095 51.9524V112.905" stroke="#1A5C4B" stroke-width="3" stroke-linecap="round" stroke-linejoin="round"/>
<path d="M41.381 117.095C41.381 116.472 41.6857 113.686 42.9048 113.386C44.4286 113.012 44.0476 107.772 46.7143 106.65C48.8476 105.751 51.9206 106.275 53.1905 106.65C54.3333 105.402 56.9238 102.832 58.1429 102.533C59.3619 102.233 63.2222 103.656 65 104.404C65.8889 104.279 67.819 103.88 68.4286 103.281C69.0381 102.683 69.1905 100.287 69.1905 99.1645V83.0716C68.9365 81.325 68.1238 77.1583 66.9048 74.4637C65.6857 71.7691 63.8571 68.6004 63.0952 67.3529C60.8095 68.6004 55.4762 70.4966 52.4286 68.1014C48.619 65.1073 42.1429 54.6282 41.381 49.3886C40.9161 46.192 40.7171 45.1139 40.6489 44.8929C40.6389 44.8945 40.6289 44.896 40.619 44.8976C40.619 44.8384 40.6276 44.8241 40.6489 44.8929C43.8413 44.3947 51.4543 43.7795 56.619 45.2718C63.0952 47.1431 70.3333 50.5114 69.9524 56.4995C69.6476 61.2899 67.4127 63.9068 66.5238 64.9048L66.1429 65.2857C67.5397 67.4065 70.7905 72.8918 71.0952 75.5865C71.4 78.2811 73.381 79.828 73.381 80.4518C74.3968 80.0775 74.5238 79.4787 74.5238 78.5805C74.5238 77.4577 70.7143 72.9667 71.4762 68.8499C72.2381 64.7331 80.619 57.9965 88.2381 57.248C94.3333 56.6492 99.1587 56.4995 100.81 56.4995C100.81 58.4955 100.581 63.1612 99.6667 65.8559C98.5238 69.2241 94.3333 81.5745 86.7143 81.9488C80.619 82.2482 78.3333 81.0755 77.9524 80.4518L72.619 84.9428V102.907C73.127 103.032 74.219 103.431 74.5238 104.03C74.9048 104.778 76.8095 103.281 78.3333 102.907C79.8571 102.533 85.5714 103.281 86.7143 104.778C87.6286 105.976 88.1111 106.525 88.2381 106.65C89 105.901 91.0571 104.778 93.1905 106.275C95.3238 107.772 96.619 111.39 97 113.012C97.381 112.887 98.2952 112.862 98.9048 113.76C99.5143 114.659 99.6667 116.721 99.6667 117.095H116.429V119H25V117.095H41.381Z" fill="#1A5C4B"/>
<path d="M58.0027 61.9054C58.838 62.2161 61.8191 64.6234 63.0953 66.0476C64.5196 65.5135 64.8679 63.7296 63.7007 62.754C62.5617 61.8022 61.4351 60.9074 61.1351 60.7401C60.5782 60.4293 59.6613 59.7093 59.6613 58.5665C59.6613 57.0427 59.3547 50.9119 57.6546 53.2332C57.3756 53.6141 57.7706 57.5032 57.6546 58.4095C56.8425 58.0211 51.1488 56.2808 49.7566 56.2808C48.0163 56.2808 47.625 56.3379 47.9731 57.5032C48.3211 58.6685 56.9585 61.5169 58.0027 61.9054Z" fill="#ECF9D8"/>
<path d="M79.8937 71.2864C79.6616 72.1469 78.6605 74.1688 77.3606 75.5714L77.9025 79.6416C78.8372 78.506 81.0862 74.8808 81.344 74.2975C81.6019 73.7142 82.2339 72.7346 83.3718 72.6287C84.8891 72.4876 90.9651 71.6146 88.4964 70.1367C88.0912 69.8942 84.2554 70.6477 83.3423 70.6161C83.6538 69.7715 84.8593 63.9411 84.7304 62.5548C84.5692 60.8221 84.4761 60.4378 83.3481 60.8922C82.22 61.3467 80.1837 70.2108 79.8937 71.2864Z" fill="#ECF9D8"/>
<path d="M29.1905 51.5714V112.524" stroke="#1A5C4B" stroke-width="3" stroke-linecap="round" stroke-linejoin="round"/>
<path d="M25 118.238H115.667" stroke="#1A5C4B" stroke-width="3" stroke-linecap="round" stroke-linejoin="round"/>
<path d="M25 48.9048L59.6062 28.7917C65.7742 25.2069 73.3847 25.179 79.5788 28.7185L114.905 48.9048" stroke="#1A5C4B" stroke-width="3" stroke-linecap="round" stroke-linejoin="round"/>
</svg>
