<svg width="17" height="18" viewBox="0 0 17 18" fill="none" xmlns="http://www.w3.org/2000/svg">
<path d="M11.5374 11.25H10.9749C11.0874 11.5875 11.0874 12.0375 11.0874 12.375C11.0874 14.85 9.0624 16.875 6.5874 16.875C4.1124 16.875 2.0874 14.85 2.0874 12.375C2.0874 10.0125 3.8874 8.1 6.2499 7.875L6.0249 6.75C3.0999 7.2 0.962402 9.45 0.962402 12.375C0.962402 15.525 3.4374 18 6.5874 18C9.2874 18 11.5374 16.0875 12.0999 13.6125L11.5374 11.25Z" fill="#1C211E"/>
<path d="M14.5749 14.625L13.3374 9H8.7249L8.4999 7.875H12.2124V6.75H8.2749L7.5999 3.9375C8.6124 3.825 9.3999 3.0375 9.3999 2.025C9.3999 0.9 8.4999 0 7.3749 0C6.2499 0 5.4624 0.9 5.4624 2.025C5.4624 2.7 5.7999 3.375 6.3624 3.7125L7.8249 10.125H12.4374L13.7874 15.75H16.7124V14.625H14.5749Z" fill="#1C211E"/>
</svg>
