<svg width="97" height="96" viewBox="0 0 97 96" fill="none" xmlns="http://www.w3.org/2000/svg">
<rect x="0.666687" width="96" height="96" rx="48" fill="#D0F19E"/>
<mask id="mask0_1563_35778" style="mask-type:alpha" maskUnits="userSpaceOnUse" x="16" y="16" width="65" height="64">
<rect x="16.6667" y="16" width="64" height="64" fill="#D9D9D9"/>
</mask>
<g mask="url(#mask0_1563_35778)">
<path d="M63.3334 72H66V65.3333H72.6667V62.6667H66V56H63.3334V62.6667H56.6667V65.3333H63.3334V72ZM64.6667 77.3333C60.9778 77.3333 57.8334 76.0333 55.2334 73.4333C52.6334 70.8333 51.3334 67.6889 51.3334 64C51.3334 60.3111 52.6334 57.1667 55.2334 54.5667C57.8334 51.9667 60.9778 50.6667 64.6667 50.6667C68.3556 50.6667 71.5 51.9667 74.1 54.5667C76.7 57.1667 78 60.3111 78 64C78 67.6889 76.7 70.8333 74.1 73.4333C71.5 76.0333 68.3556 77.3333 64.6667 77.3333ZM35.3334 40H62V34.6667H35.3334V40ZM47.8 72H30C28.5334 72 27.2778 71.4778 26.2334 70.4333C25.1889 69.3889 24.6667 68.1333 24.6667 66.6667V29.3333C24.6667 27.8667 25.1889 26.6111 26.2334 25.5667C27.2778 24.5222 28.5334 24 30 24H67.3334C68.8 24 70.0556 24.5222 71.1 25.5667C72.1445 26.6111 72.6667 27.8667 72.6667 29.3333V47.2C71.3778 46.5778 70.0778 46.1111 68.7667 45.8C67.4556 45.4889 66.0889 45.3333 64.6667 45.3333C64.1778 45.3333 63.7222 45.3444 63.3 45.3667C62.8778 45.3889 62.4445 45.4444 62 45.5333V45.3333H35.3334V50.6667H51.6667C50.8667 51.4222 50.1445 52.2444 49.5 53.1333C48.8556 54.0222 48.2889 54.9778 47.8 56H35.3334V61.3333H46.2C46.1111 61.7778 46.0556 62.2111 46.0334 62.6333C46.0111 63.0556 46 63.5111 46 64C46 65.4667 46.1334 66.8333 46.4 68.1C46.6667 69.3667 47.1334 70.6667 47.8 72Z" fill="#1A5C4B"/>
</g>
</svg>
