<svg width="240" height="150" viewBox="0 0 240 150" fill="none" xmlns="http://www.w3.org/2000/svg">
<rect width="240" height="150" fill="url(#paint0_linear_19_61566)"/>
<path d="M170 135H167.5V132.5C167.5 131.12 166.38 130 165 130H157.5V105H160C164.135 105 167.5 101.635 167.5 97.5C167.5 93.3649 164.135 90 160 90H157.37C156.235 72.9 143.625 58.9001 127.16 55.6999C126.545 53.2748 124.835 51.3049 122.5 50.4698V45H135C136.01 45 136.925 44.3899 137.31 43.455C137.7 42.5201 137.485 41.445 136.77 40.7299L133.54 37.5L136.77 34.2701C137.485 33.555 137.7 32.4802 137.31 31.545C136.925 30.6101 136.01 30 135 30H120C118.62 30 117.5 31.1201 117.5 32.5001V50.46C115.145 51.3 113.34 53.265 112.735 55.7201C96.3198 58.9549 83.7599 72.9349 82.6248 90H79.9998C75.8648 90 72.4998 93.3649 72.4998 97.5C72.4998 101.635 75.8648 105 79.9998 105H82.4999V130H74.9999C73.6199 130 72.4998 131.12 72.4998 132.5V135H70C65.8649 135 62.5 138.365 62.5 142.5V147.5C62.5 148.88 63.6201 150 65.0001 150H175C176.38 150 177.5 148.88 177.5 147.5V142.5C177.5 138.365 174.135 135 170 135ZM92.5 130H87.5001V105H92.5V130ZM102.5 130H97.4999V105H102.5V130ZM112.5 130H107.5V105H112.5V130ZM122.5 130H117.5V105H122.5V130ZM132.5 130H127.5V105H132.5V130ZM142.5 130H137.5V105H142.5V130ZM152.5 130H147.5V105H152.5V130Z" fill="url(#paint1_linear_19_61566)"/>
<defs>
<linearGradient id="paint0_linear_19_61566" x1="120" y1="0" x2="120" y2="150" gradientUnits="userSpaceOnUse">
<stop stop-color="white"/>
<stop offset="1" stop-color="#DBEFBC" stop-opacity="0.5"/>
</linearGradient>
<linearGradient id="paint1_linear_19_61566" x1="122.5" y1="28.5" x2="120" y2="150" gradientUnits="userSpaceOnUse">
<stop stop-color="#1A5C4B"/>
<stop offset="1" stop-color="#85BC31"/>
</linearGradient>
</defs>
</svg>
