<svg width="96" height="96" viewBox="0 0 96 96" fill="none" xmlns="http://www.w3.org/2000/svg">
<rect width="96" height="96" rx="48" fill="#D0F19E"/>
<mask id="mask0_1563_35782" style="mask-type:alpha" maskUnits="userSpaceOnUse" x="16" y="16" width="64" height="64">
<rect x="16" y="16" width="64" height="64" fill="#D9D9D9"/>
</mask>
<g mask="url(#mask0_1563_35782)">
<path d="M21.3333 77.3333V72H74.6667V77.3333H21.3333ZM26.6667 69.3333V53.3333C25.2 50.9333 24.0667 48.3889 23.2667 45.7C22.4667 43.0111 22.0667 40.2667 22.0667 37.4667C22.0667 34.7556 22.4111 32.0889 23.1 29.4667C23.7889 26.8444 24.6 24.2667 25.5333 21.7333C25.8889 20.8 26.4667 20.0556 27.2667 19.5C28.0667 18.9444 28.9556 18.6667 29.9333 18.6667C31.3111 18.6667 32.4889 19.1333 33.4667 20.0667C34.4444 21 34.8444 22.1111 34.6667 23.4L33.9333 29.4667C33.6667 31.6 33.8555 33.6222 34.5 35.5333C35.1444 37.4445 36.1111 39.1222 37.4 40.5667C38.6889 42.0111 40.2444 43.1667 42.0667 44.0333C43.8889 44.9 45.8667 45.3333 48 45.3333C50.6667 45.3333 53.3444 45.6111 56.0333 46.1667C58.7222 46.7222 61.0667 47.5111 63.0667 48.5333C65.0667 49.5556 66.6111 50.8556 67.7 52.4333C68.7889 54.0111 69.3333 55.9556 69.3333 58.2667V69.3333H42.6667V66.8667C42.6667 65.3556 43.1778 64.0556 44.2 62.9667C45.2222 61.8778 46.4889 61.3333 48 61.3333H58.6667V56H48C45.0222 56 42.5 57.0667 40.4333 59.2C38.3667 61.3333 37.3333 63.8889 37.3333 66.8667V69.3333H26.6667ZM48 42.6667C45.0667 42.6667 42.5555 41.6222 40.4667 39.5333C38.3778 37.4445 37.3333 34.9333 37.3333 32C37.3333 29.0667 38.3778 26.5556 40.4667 24.4667C42.5555 22.3778 45.0667 21.3333 48 21.3333C50.9333 21.3333 53.4444 22.3778 55.5333 24.4667C57.6222 26.5556 58.6667 29.0667 58.6667 32C58.6667 34.9333 57.6222 37.4445 55.5333 39.5333C53.4444 41.6222 50.9333 42.6667 48 42.6667Z" fill="#1A5C4B"/>
</g>
</svg>
