<svg width="97" height="96" viewBox="0 0 97 96" fill="none" xmlns="http://www.w3.org/2000/svg">
<rect x="0.333282" width="96" height="96" rx="48" fill="#D0F19E"/>
<mask id="mask0_1563_35786" style="mask-type:alpha" maskUnits="userSpaceOnUse" x="16" y="16" width="65" height="64">
<rect x="16.3333" y="16" width="64" height="64" fill="#D9D9D9"/>
</mask>
<g mask="url(#mask0_1563_35786)">
<path d="M45.6666 72V66.6667H66.9999V47.7333C66.9999 42.5333 65.1888 38.1222 61.5666 34.5C57.9444 30.8778 53.5333 29.0667 48.3333 29.0667C43.1333 29.0667 38.7222 30.8778 35.0999 34.5C31.4777 38.1222 29.6666 42.5333 29.6666 47.7333V64H26.9999C25.5333 64 24.2777 63.4778 23.2333 62.4333C22.1888 61.3889 21.6666 60.1333 21.6666 58.6667V53.3333C21.6666 52.4 21.8999 51.5222 22.3666 50.7C22.8333 49.8778 23.4888 49.2222 24.3333 48.7333L24.5333 45.2C24.8888 42.1778 25.7666 39.3778 27.1666 36.8C28.5666 34.2222 30.3222 31.9778 32.4333 30.0667C34.5444 28.1556 36.9666 26.6667 39.6999 25.6C42.4333 24.5333 45.3111 24 48.3333 24C51.3555 24 54.2222 24.5333 56.9333 25.6C59.6444 26.6667 62.0666 28.1444 64.1999 30.0333C66.3333 31.9222 68.0888 34.1556 69.4666 36.7333C70.8444 39.3111 71.7333 42.1111 72.1333 45.1333L72.3333 48.6C73.1777 49 73.8333 49.6 74.2999 50.4C74.7666 51.2 74.9999 52.0444 74.9999 52.9333V59.0667C74.9999 59.9556 74.7666 60.8 74.2999 61.6C73.8333 62.4 73.1777 63 72.3333 63.4V66.6667C72.3333 68.1333 71.8111 69.3889 70.7666 70.4333C69.7222 71.4778 68.4666 72 66.9999 72H45.6666ZM40.3333 53.3333C39.5777 53.3333 38.9444 53.0778 38.4333 52.5667C37.9222 52.0556 37.6666 51.4222 37.6666 50.6667C37.6666 49.9111 37.9222 49.2778 38.4333 48.7667C38.9444 48.2556 39.5777 48 40.3333 48C41.0888 48 41.7222 48.2556 42.2333 48.7667C42.7444 49.2778 42.9999 49.9111 42.9999 50.6667C42.9999 51.4222 42.7444 52.0556 42.2333 52.5667C41.7222 53.0778 41.0888 53.3333 40.3333 53.3333ZM56.3333 53.3333C55.5777 53.3333 54.9444 53.0778 54.4333 52.5667C53.9222 52.0556 53.6666 51.4222 53.6666 50.6667C53.6666 49.9111 53.9222 49.2778 54.4333 48.7667C54.9444 48.2556 55.5777 48 56.3333 48C57.0888 48 57.7222 48.2556 58.2333 48.7667C58.7444 49.2778 58.9999 49.9111 58.9999 50.6667C58.9999 51.4222 58.7444 52.0556 58.2333 52.5667C57.7222 53.0778 57.0888 53.3333 56.3333 53.3333ZM32.3999 49.2C32.0888 44.4889 33.5111 40.4444 36.6666 37.0667C39.8222 33.6889 43.7555 32 48.4666 32C52.4222 32 55.8999 33.2556 58.8999 35.7667C61.8999 38.2778 63.7111 41.4889 64.3333 45.4C60.2888 45.3556 56.5666 44.2667 53.1666 42.1333C49.7666 40 47.1555 37.1111 45.3333 33.4667C44.6222 37.0222 43.1222 40.1889 40.8333 42.9667C38.5444 45.7444 35.7333 47.8222 32.3999 49.2Z" fill="#1A5C4B"/>
</g>
</svg>
