<svg width="24" height="28" viewBox="0 0 24 28" fill="none" xmlns="http://www.w3.org/2000/svg">
<path d="M19.4494 22.9032L18.5533 20.2145C18.2401 19.2757 17.4411 18.5828 16.4672 18.4055L13.8802 17.9348V17.7343C14.3304 17.473 14.7222 17.1235 15.0342 16.7097H15.8157C16.456 16.7097 16.977 16.1886 16.977 15.5484V10.9032C16.977 8.12852 14.7195 5.87097 11.9447 5.87097C9.17004 5.87097 6.91249 8.12852 6.91249 10.9032V13.6129C6.91249 14.3592 7.4432 14.9836 8.14694 15.1292C8.3641 16.2417 9.05933 17.1831 10.0093 17.7343V17.9348L7.42191 18.4055C6.44836 18.5828 5.649 19.2757 5.33623 20.2145L5.18139 20.6794L3.86294 19.3609C3.71197 19.2099 3.71197 18.9641 3.86294 18.8132L5.39197 17.2845L2.52204 14.4146L0.794037 16.1426C0.282295 16.6543 0.000488281 17.3348 0.000488281 18.0587C0.000488281 18.7826 0.282295 19.4627 0.794037 19.9745L6.02565 25.2061C6.53739 25.7178 7.21791 26 7.94178 26C8.66565 26 9.34578 25.7178 9.84552 25.2177L11.7311 23.4901L11.1431 22.9032H19.4494ZM16.2028 15.5484C16.2028 15.7621 16.029 15.9355 15.8157 15.9355H15.4902C15.6024 15.6796 15.6876 15.4098 15.7426 15.1292C15.9082 15.0947 16.0607 15.0289 16.2028 14.9461V15.5484ZM15.8157 14.2795V12.9463C16.046 13.0806 16.2028 13.3276 16.2028 13.6129C16.2028 13.8982 16.046 14.1452 15.8157 14.2795ZM8.07378 14.2795C7.84346 14.1452 7.68668 13.8982 7.68668 13.6129C7.68668 13.3276 7.84346 13.0806 8.07378 12.9463V14.2795ZM8.07378 11.6774V12.1195C7.93597 12.1555 7.80668 12.2097 7.68668 12.2797V10.9032C7.68668 8.55548 9.597 6.64516 11.9447 6.64516C14.2925 6.64516 16.2028 8.55548 16.2028 10.9032V12.2797C16.0828 12.2097 15.9535 12.1551 15.8157 12.1195V11.6774H15.4286C14.284 11.6774 13.2078 11.2315 12.398 10.4221L11.9447 9.96877L11.4915 10.4221C10.6816 11.2315 9.60552 11.6774 8.46087 11.6774H8.07378ZM8.84797 14.3871V12.4369C10.0104 12.3494 11.0943 11.8698 11.9447 11.0612C12.7952 11.8698 13.8791 12.3498 15.0415 12.4369V14.3871C15.0415 14.9515 14.8875 15.4795 14.6227 15.9355H11.9447V16.7097H13.9863C13.4405 17.1901 12.7271 17.4839 11.9447 17.4839C10.2373 17.4839 8.84797 16.0946 8.84797 14.3871ZM13.106 18.0796V18.0978L11.9447 19.2591L10.7835 18.0978V18.0796C11.1504 18.195 11.5402 18.2581 11.9447 18.2581C12.3493 18.2581 12.7391 18.195 13.106 18.0796ZM6.07017 20.4591C6.29352 19.7886 6.86449 19.2935 7.5601 19.1666L10.2659 18.675L11.9447 20.3538L13.6232 18.6754L16.3286 19.167C17.0242 19.2939 17.5952 19.7886 17.8186 20.4595L18.3756 22.129H10.3689L8.86113 20.6213L7.18578 22.1368C7.03984 22.2835 6.78475 22.2835 6.63842 22.1368L5.793 21.2914L6.07017 20.4591ZM2.52165 15.5093L4.29688 17.2845L3.87649 17.7049L2.10126 15.9297L2.52165 15.5093ZM9.30939 24.6595C8.94397 25.0241 8.45778 25.2258 7.941 25.2258C7.42423 25.2258 6.93804 25.0241 6.57223 24.6587L1.34062 19.4275C0.975198 19.0621 0.773908 18.5759 0.773908 18.0591C0.773908 17.5419 0.975198 17.0557 1.34062 16.6903L1.55352 16.4774L3.32875 18.2526L3.31481 18.2666C2.86229 18.7195 2.86229 19.4561 3.31481 19.909L6.09068 22.6849C6.31017 22.904 6.60165 23.0252 6.9121 23.0252C7.22255 23.0252 7.51404 22.9044 7.7192 22.6985L7.74823 22.6725L9.53158 24.4559L9.30939 24.6595ZM10.1029 23.9317L8.32346 22.1523L8.83481 21.6901L10.6112 23.4665L10.1029 23.9317Z" fill="black"/>
<path d="M22.7833 2H17.3639C16.7237 2 16.2026 2.52103 16.2026 3.16129V6.25806C16.2026 6.89832 16.7237 7.41935 17.3639 7.41935H18.3979L17.9976 9.75394L21.7331 7.41935H22.7833C23.4235 7.41935 23.9446 6.89832 23.9446 6.25806V3.16129C23.9446 2.52103 23.4235 2 22.7833 2ZM23.1704 6.25806C23.1704 6.47135 22.9966 6.64516 22.7833 6.64516H21.5109L19.0524 8.18155L19.3161 6.64516H17.3639C17.1506 6.64516 16.9768 6.47135 16.9768 6.25806V3.16129C16.9768 2.948 17.1506 2.77419 17.3639 2.77419H22.7833C22.9966 2.77419 23.1704 2.948 23.1704 3.16129V6.25806Z" fill="black"/>
<path d="M22.3961 3.54839H17.751V4.32258H22.3961V3.54839Z" fill="black"/>
<path d="M20.8478 5.09678H17.751V5.87097H20.8478V5.09678Z" fill="black"/>
<path d="M22.3963 5.09678H21.6221V5.87097H22.3963V5.09678Z" fill="black"/>
<path d="M11.9446 3.16129C6.88684 3.16129 2.53006 6.65987 1.39742 11.54L0.663871 10.3172L0 10.7155L1.36065 12.9827L3.62787 11.6221L3.22955 10.9582L2.18052 11.5876C3.27755 7.12323 7.29213 3.93548 11.9446 3.93548C12.9615 3.93548 13.9649 4.08645 14.9268 4.38452L15.156 3.64516C14.1197 3.32387 13.0394 3.16129 11.9446 3.16129Z" fill="black"/>
<path d="M23.7563 10.5711L21.4891 9.21045L20.1288 11.4781L20.7927 11.8764L21.4701 10.7472C21.8266 11.7905 22.0089 12.8817 22.0089 14C22.0089 16.3021 21.2115 18.5526 19.7642 20.3368L20.3653 20.8245C21.9245 18.903 22.7831 16.479 22.7831 14C22.7831 12.8159 22.5923 11.6596 22.2203 10.5525L23.358 11.235L23.7563 10.5711Z" fill="black"/>
</svg>
