<svg width="24" height="24" viewBox="0 0 24 24" fill="none" xmlns="http://www.w3.org/2000/svg">
<mask id="mask0_70_486" style="mask-type:alpha" maskUnits="userSpaceOnUse" x="0" y="0" width="24" height="24">
<rect width="24" height="24" fill="#D9D9D9"/>
</mask>
<g mask="url(#mask0_70_486)">
<path d="M14.5 18C14.9167 18 15.2708 17.8542 15.5625 17.5625C15.8542 17.2708 16 16.9167 16 16.5C16 16.0833 15.8542 15.7292 15.5625 15.4375C15.2708 15.1458 14.9167 15 14.5 15C14.0833 15 13.7292 15.1458 13.4375 15.4375C13.1458 15.7292 13 16.0833 13 16.5C13 16.9167 13.1458 17.2708 13.4375 17.5625C13.7292 17.8542 14.0833 18 14.5 18ZM9.45 17.95L15.95 11.45L14.55 10.05L8.05 16.55L9.45 17.95ZM9.5 13C9.91667 13 10.2708 12.8542 10.5625 12.5625C10.8542 12.2708 11 11.9167 11 11.5C11 11.0833 10.8542 10.7292 10.5625 10.4375C10.2708 10.1458 9.91667 10 9.5 10C9.08333 10 8.72917 10.1458 8.4375 10.4375C8.14583 10.7292 8 11.0833 8 11.5C8 11.9167 8.14583 12.2708 8.4375 12.5625C8.72917 12.8542 9.08333 13 9.5 13ZM12 22C9.71667 22 7.8125 21.2167 6.2875 19.65C4.7625 18.0833 4 16.1333 4 13.8C4 12.1333 4.6625 10.3208 5.9875 8.3625C7.3125 6.40417 9.31667 4.28333 12 2C14.6833 4.28333 16.6875 6.40417 18.0125 8.3625C19.3375 10.3208 20 12.1333 20 13.8C20 16.1333 19.2375 18.0833 17.7125 19.65C16.1875 21.2167 14.2833 22 12 22ZM12 20C13.7333 20 15.1667 19.4125 16.3 18.2375C17.4333 17.0625 18 15.5833 18 13.8C18 12.5833 17.4958 11.2083 16.4875 9.675C15.4792 8.14167 13.9833 6.46667 12 4.65C10.0167 6.46667 8.52083 8.14167 7.5125 9.675C6.50417 11.2083 6 12.5833 6 13.8C6 15.5833 6.56667 17.0625 7.7 18.2375C8.83333 19.4125 10.2667 20 12 20Z" fill="white"/>
</g>
</svg>
