<svg width="40" height="40" viewBox="0 0 40 40" fill="none" xmlns="http://www.w3.org/2000/svg">
<mask id="mask0_925_19702" style="mask-type:alpha" maskUnits="userSpaceOnUse" x="0" y="0" width="40" height="40">
<rect width="40" height="40" fill="#D9D9D9"/>
</mask>
<g mask="url(#mask0_925_19702)">
<path d="M6.66634 35C5.74967 35 4.96495 34.6736 4.31217 34.0208C3.6594 33.3681 3.33301 32.5833 3.33301 31.6667V5L6.12467 7.79167L8.87467 5L11.6663 7.79167L14.458 5L17.208 7.79167L19.9997 5L22.7913 7.79167L25.5413 5L28.333 7.79167L31.1247 5L33.8747 7.79167L36.6663 5V31.6667C36.6663 32.5833 36.34 33.3681 35.6872 34.0208C35.0344 34.6736 34.2497 35 33.333 35H6.66634ZM6.66634 31.6667H18.333V21.6667H6.66634V31.6667ZM21.6663 31.6667H33.333V28.3333H21.6663V31.6667ZM21.6663 25H33.333V21.6667H21.6663V25ZM6.66634 18.3333H33.333V13.3333H6.66634V18.3333Z" fill="#1C1B1F"/>
</g>
</svg>
