<svg width="40" height="40" viewBox="0 0 40 40" fill="none" xmlns="http://www.w3.org/2000/svg">
<mask id="mask0_1456_31500" style="mask-type:alpha" maskUnits="userSpaceOnUse" x="0" y="0" width="40" height="40">
<rect width="40" height="40" fill="#D9D9D9"/>
</mask>
<g mask="url(#mask0_1456_31500)">
<path d="M20.0002 36.6667C17.7224 36.6667 15.5696 36.2292 13.5418 35.3542C11.5141 34.4792 9.74322 33.2848 8.22933 31.7709C6.71544 30.257 5.521 28.4862 4.646 26.4584C3.771 24.4306 3.3335 22.2778 3.3335 20C3.3335 17.6945 3.771 15.5348 4.646 13.5209C5.521 11.507 6.71544 9.7431 8.22933 8.22921C9.74322 6.71532 11.5141 5.52087 13.5418 4.64587C15.5696 3.77087 17.7224 3.33337 20.0002 3.33337C22.3057 3.33337 24.4654 3.77087 26.4793 4.64587C28.4932 5.52087 30.2571 6.71532 31.771 8.22921C33.2849 9.7431 34.4793 11.507 35.3543 13.5209C36.2293 15.5348 36.6668 17.6945 36.6668 20C36.6668 22.2778 36.2293 24.4306 35.3543 26.4584C34.4793 28.4862 33.2849 30.257 31.771 31.7709C30.2571 33.2848 28.4932 34.4792 26.4793 35.3542C24.4654 36.2292 22.3057 36.6667 20.0002 36.6667ZM20.0002 33.25C20.7224 32.25 21.3474 31.2084 21.8752 30.125C22.4029 29.0417 22.8335 27.8889 23.1668 26.6667H16.8335C17.1668 27.8889 17.5974 29.0417 18.1252 30.125C18.6529 31.2084 19.2779 32.25 20.0002 33.25ZM15.6668 32.5834C15.1668 31.6667 14.7293 30.7153 14.3543 29.7292C13.9793 28.7431 13.6668 27.7223 13.4168 26.6667H8.50016C9.30572 28.0556 10.3127 29.2639 11.521 30.2917C12.7293 31.3195 14.1113 32.0834 15.6668 32.5834ZM24.3335 32.5834C25.8891 32.0834 27.271 31.3195 28.4793 30.2917C29.6877 29.2639 30.6946 28.0556 31.5002 26.6667H26.5835C26.3335 27.7223 26.021 28.7431 25.646 29.7292C25.271 30.7153 24.8335 31.6667 24.3335 32.5834ZM7.0835 23.3334H12.7502C12.6668 22.7778 12.6043 22.2292 12.5627 21.6875C12.521 21.1459 12.5002 20.5834 12.5002 20C12.5002 19.4167 12.521 18.8542 12.5627 18.3125C12.6043 17.7709 12.6668 17.2223 12.7502 16.6667H7.0835C6.94461 17.2223 6.84044 17.7709 6.771 18.3125C6.70155 18.8542 6.66683 19.4167 6.66683 20C6.66683 20.5834 6.70155 21.1459 6.771 21.6875C6.84044 22.2292 6.94461 22.7778 7.0835 23.3334ZM16.0835 23.3334H23.9168C24.0002 22.7778 24.0627 22.2292 24.1043 21.6875C24.146 21.1459 24.1668 20.5834 24.1668 20C24.1668 19.4167 24.146 18.8542 24.1043 18.3125C24.0627 17.7709 24.0002 17.2223 23.9168 16.6667H16.0835C16.0002 17.2223 15.9377 17.7709 15.896 18.3125C15.8543 18.8542 15.8335 19.4167 15.8335 20C15.8335 20.5834 15.8543 21.1459 15.896 21.6875C15.9377 22.2292 16.0002 22.7778 16.0835 23.3334ZM27.2502 23.3334H32.9168C33.0557 22.7778 33.1599 22.2292 33.2293 21.6875C33.2988 21.1459 33.3335 20.5834 33.3335 20C33.3335 19.4167 33.2988 18.8542 33.2293 18.3125C33.1599 17.7709 33.0557 17.2223 32.9168 16.6667H27.2502C27.3335 17.2223 27.396 17.7709 27.4377 18.3125C27.4793 18.8542 27.5002 19.4167 27.5002 20C27.5002 20.5834 27.4793 21.1459 27.4377 21.6875C27.396 22.2292 27.3335 22.7778 27.2502 23.3334ZM26.5835 13.3334H31.5002C30.6946 11.9445 29.6877 10.7362 28.4793 9.70837C27.271 8.6806 25.8891 7.91671 24.3335 7.41671C24.8335 8.33337 25.271 9.28476 25.646 10.2709C26.021 11.257 26.3335 12.2778 26.5835 13.3334ZM16.8335 13.3334H23.1668C22.8335 12.1112 22.4029 10.9584 21.8752 9.87504C21.3474 8.79171 20.7224 7.75004 20.0002 6.75004C19.2779 7.75004 18.6529 8.79171 18.1252 9.87504C17.5974 10.9584 17.1668 12.1112 16.8335 13.3334ZM8.50016 13.3334H13.4168C13.6668 12.2778 13.9793 11.257 14.3543 10.2709C14.7293 9.28476 15.1668 8.33337 15.6668 7.41671C14.1113 7.91671 12.7293 8.6806 11.521 9.70837C10.3127 10.7362 9.30572 11.9445 8.50016 13.3334Z" fill="#1C211E"/>
</g>
</svg>
