<svg width="40" height="40" viewBox="0 0 40 40" fill="none" xmlns="http://www.w3.org/2000/svg">
<path d="M20.2565 17.8827L13.481 8.4021H9.86719L18.2603 20.1453L19.3169 21.6225L26.5009 31.6827H30.1147L21.3085 19.3599L20.2565 17.8827Z" fill="#0A0D0B"/>
<path d="M36.6542 0H3.34584C1.49791 0 0 1.49791 0 3.34584V36.6542C0 38.5021 1.49791 40 3.34584 40H36.6542C38.5021 40 40 38.5021 40 36.6542V3.34584C40 1.49791 38.5021 0 36.6542 0ZM25.8825 34.5455L17.9506 23.2491L8.0208 34.5455H5.45455L16.8125 21.6279L5.45455 5.45455H14.1175L21.6269 16.149L31.0356 5.45455H33.6017L22.7709 17.7739L34.5455 34.5455H25.8825Z" fill="#0A0D0B"/>
</svg>
