<svg width="70" height="66" viewBox="0 0 70 66" fill="none" xmlns="http://www.w3.org/2000/svg">
<g id="folder_16518731 1" clip-path="url(#clip0_1717_14188)">
<path id="Vector" d="M4.79907 56.606H9.95794H32.743V52.2727H13.3972V14.1394L14.257 13.2727H30.5935H64.986V30.606H69.285V13.2727C69.285 10.8894 67.3505 8.93937 64.986 8.93937H30.3785L21.7804 0.272705H3.93925L0.5 3.73937V53.1394L3.93925 56.606H4.79907ZM4.79907 5.4727L5.65888 4.60604H20.0607L24.3598 8.93937H12.5374L9.09813 12.406V51.406L8.23832 52.2727H5.65888L4.79907 51.406V5.4727Z" fill="#D7DEDA"/>
<path id="Vector_2" d="M52.3037 30.606C42.8457 30.606 35.1074 38.406 35.1074 47.9394C35.1074 57.4727 42.8457 65.2727 52.3037 65.2727C61.7616 65.2727 69.4999 57.4727 69.4999 47.9394C69.4999 38.406 61.7616 30.606 52.3037 30.606ZM52.3037 60.9394C45.2102 60.9394 39.4065 55.0894 39.4065 47.9394C39.4065 40.7894 45.2102 34.9394 52.3037 34.9394C59.3971 34.9394 65.2009 40.7894 65.2009 47.9394C65.2009 55.0894 59.3971 60.9394 52.3037 60.9394Z" fill="#D7DEDA"/>
<path id="Vector_3" d="M49.9395 39.2727H54.2385V47.9394H49.9395V39.2727Z" fill="#D7DEDA"/>
<path id="Vector_4" d="M49.9395 52.2727H54.2385V56.606H49.9395V52.2727Z" fill="#D7DEDA"/>
</g>
<defs>
<clipPath id="clip0_1717_14188">
<rect width="69" height="65" fill="white" transform="translate(0.5 0.272705)"/>
</clipPath>
</defs>
</svg>
