<svg width="512" height="512" viewBox="0 0 512 512" fill="none" xmlns="http://www.w3.org/2000/svg">
<g clip-path="url(#clip0_419_13774)">
<path fill-rule="evenodd" clip-rule="evenodd" d="M256 512C188 512 123 485 75 437C27 389 0 324 0 256C0 188 27 123 75 75C123 27 188 0 256 0C324 0 389 27 437 75C485 123 512 188 512 256C512 324 485 389 437 437C389 485 324 512 256 512ZM256 12C121 12 12 121 12 256C12 391 121 500 256 500C391 500 500 391 500 256C500 121 391 12 256 12Z" fill="#C3C8C6"/>
<path fill-rule="evenodd" clip-rule="evenodd" d="M256 481C196 481 139 458 97 415C54 373 31 316 31 256C31 196 54 139 97 97C139 54 196 31 256 31C316 31 373 54 415 97C458 139 481 196 481 256C481 316 458 373 415 415C373 458 316 481 256 481ZM256 43C139 43 43 139 43 256C43 373 139 469 256 469C373 469 469 373 469 256C469 139 373 43 256 43Z" fill="#C3C8C6"/>
<path fill-rule="evenodd" clip-rule="evenodd" d="M399 428C398 428 396 427 395 426L86 117C84 115 84 111 86 109C89 105 93 101 97 97C101 93 105 89 109 86C111 84 115 84 117 86L426 395C428 397 428 401 426 403C423 407 419 411 415 415C411 419 407 423 403 426C402 427 401 428 399 428ZM99 112L400 413C402 411 404 409 407 407C409 404 411 402 413 400L112 99C110 101 108 103 105 105C103 108 101 110 99 112Z" fill="#C3C8C6"/>
<path fill-rule="evenodd" clip-rule="evenodd" d="M380 408H116C113 408 110 406 110 402V222C110 219 113 216 116 216C119 216 122 219 122 222V396H380C384 396 386 399 386 402C386 406 384 408 380 408ZM396 380C393 380 390 377 390 374V222C390 219 393 216 396 216C399 216 402 219 402 222V374C402 377 399 380 396 380Z" fill="#C3C8C6"/>
<path fill-rule="evenodd" clip-rule="evenodd" d="M144 228H118C105 228 94 217 94 204V186C94 183 97 180 100 180H162C166 180 168 183 168 186V204C168 217 158 228 144 228ZM106 192V204C106 211 111 216 118 216H144C151 216 156 211 156 204V192H106Z" fill="#C3C8C6"/>
<path fill-rule="evenodd" clip-rule="evenodd" d="M200 228H180C167 228 156 217 156 204V186C156 183 159 180 162 180C166 180 168 183 168 186V204C168 211 174 216 180 216H200C203 216 206 219 206 222C206 226 203 228 200 228ZM225 210C221 210 219 208 219 204V192H209C205 192 203 190 203 186C203 183 205 180 209 180H225C228 180 231 183 231 186V204C231 208 228 210 225 210Z" fill="#C3C8C6"/>
<path fill-rule="evenodd" clip-rule="evenodd" d="M269 228H244C241 228 238 226 238 222C238 219 241 216 244 216H269C276 216 281 211 281 204V192H231V203C231 206 228 209 225 209C221 209 219 206 219 203V186C219 183 221 180 225 180H287C291 180 293 183 293 186V204C293 217 282 228 269 228Z" fill="#C3C8C6"/>
<path fill-rule="evenodd" clip-rule="evenodd" d="M332 228H305C292 228 281 217 281 204V186C281 183 284 180 287 180H350C353 180 356 183 356 186V204C356 217 345 228 332 228ZM293 192V204C293 211 299 216 305 216H332C338 216 344 211 344 204V192H293Z" fill="#C3C8C6"/>
<path fill-rule="evenodd" clip-rule="evenodd" d="M394 228H368C354 228 344 217 344 204V186C344 183 346 180 350 180H412C415 180 418 183 418 186V204C418 217 407 228 394 228ZM356 192V204C356 211 361 216 368 216H394C401 216 406 211 406 204V192H356Z" fill="#C3C8C6"/>
<path fill-rule="evenodd" clip-rule="evenodd" d="M100 192C99 192 98 192 97 192C94 190 93 187 94 184L115 140C116 137 120 136 123 137C126 138 127 142 126 145L105 189C104 191 102 192 100 192ZM412 192C410 192 408 191 407 189L373 116H139C138 118 135 119 132 118C129 116 128 113 129 110L130 107C131 105 134 104 136 104H376C378 104 381 105 382 107L418 184C419 187 418 190 415 192C414 192 413 192 412 192Z" fill="#C3C8C6"/>
<path fill-rule="evenodd" clip-rule="evenodd" d="M287 192C284 192 281 190 281 186V110C281 106 284 104 287 104C291 104 293 106 293 110V186C293 190 291 192 287 192Z" fill="#C3C8C6"/>
<path fill-rule="evenodd" clip-rule="evenodd" d="M225 192C221 192 219 190 219 186V110C219 106 221 104 225 104C228 104 231 106 231 110V186C231 190 228 192 225 192Z" fill="#C3C8C6"/>
<path fill-rule="evenodd" clip-rule="evenodd" d="M350 192C347 192 344 190 344 188L328 111C327 108 329 104 332 104C335 103 339 105 339 108L356 185C356 188 354 192 351 192C350 192 350 192 350 192Z" fill="#C3C8C6"/>
<path fill-rule="evenodd" clip-rule="evenodd" d="M162 192C162 192 162 192 161 192C158 192 156 188 156 185L157 184C158 180 161 178 164 179C167 180 169 183 169 186L168 188C168 190 165 192 162 192ZM170 154C170 154 170 154 169 154C166 154 164 150 165 147L173 108C173 105 177 103 180 104C183 104 185 108 184 111L176 150C176 152 173 154 170 154Z" fill="#C3C8C6"/>
<path fill-rule="evenodd" clip-rule="evenodd" d="M288 408H224C221 408 218 406 218 402V312C218 309 221 306 224 306H288C291 306 294 309 294 312V402C294 406 291 408 288 408ZM230 396H282V318H230V396Z" fill="#C3C8C6"/>
<path fill-rule="evenodd" clip-rule="evenodd" d="M271 371C268 371 265 368 265 365V350C265 346 268 344 271 344C274 344 277 346 277 350V365C277 368 274 371 271 371Z" fill="#C3C8C6"/>
<path fill-rule="evenodd" clip-rule="evenodd" d="M363 298H314C311 298 308 295 308 292C308 289 311 286 314 286H357V249H265C261 249 259 246 259 243C259 239 261 237 265 237H363C367 237 369 239 369 243V292C369 295 367 298 363 298ZM270 298H149C145 298 143 295 143 292V243C143 239 145 237 149 237H220C224 237 226 239 226 243C226 246 224 249 220 249H155V286H270C273 286 276 289 276 292C276 295 273 298 270 298Z" fill="#C3C8C6"/>
<path fill-rule="evenodd" clip-rule="evenodd" d="M191 376H143C140 376 137 374 137 370V321C137 318 140 315 143 315H191C194 315 197 318 197 321V370C197 374 194 376 191 376ZM149 364H185V327H149V364Z" fill="#C3C8C6"/>
<path fill-rule="evenodd" clip-rule="evenodd" d="M348 376H321C318 376 315 374 315 370V343C315 340 318 337 321 337C324 337 327 340 327 343V364H348C351 364 354 367 354 370C354 374 351 376 348 376ZM369 352C365 352 363 350 363 346V327H343C340 327 337 324 337 321C337 318 340 315 343 315H369C372 315 375 318 375 321V346C375 350 372 352 369 352Z" fill="#C3C8C6"/>
</g>
<defs>
<clipPath id="clip0_419_13774">
<rect width="512" height="512" fill="white"/>
</clipPath>
</defs>
</svg>
