<svg width="40" height="40" viewBox="0 0 40 40" fill="none" xmlns="http://www.w3.org/2000/svg">
<mask id="mask0_391_6654" style="mask-type:alpha" maskUnits="userSpaceOnUse" x="0" y="0" width="40" height="40">
<rect width="40" height="40" fill="#D9D9D9"/>
</mask>
<g mask="url(#mask0_391_6654)">
<path d="M20 36.6666C16.1389 35.6944 12.9514 33.4791 10.4375 30.0208C7.9236 26.5625 6.66666 22.7222 6.66666 18.5V8.33331L20 3.33331L33.3333 8.33331V18.5C33.3333 20.8611 32.9305 23.1319 32.125 25.3125C31.3194 27.493 30.1667 29.4166 28.6667 31.0833L23.3333 25.75C22.8333 26.0555 22.2986 26.2847 21.7292 26.4375C21.1597 26.5903 20.5833 26.6666 20 26.6666C18.1667 26.6666 16.5972 26.0139 15.2917 24.7083C13.9861 23.4028 13.3333 21.8333 13.3333 20C13.3333 18.1666 13.9861 16.5972 15.2917 15.2916C16.5972 13.9861 18.1667 13.3333 20 13.3333C21.8333 13.3333 23.4028 13.9861 24.7083 15.2916C26.0139 16.5972 26.6667 18.1666 26.6667 20C26.6667 20.6111 26.5903 21.2014 26.4375 21.7708C26.2847 22.3403 26.0555 22.8889 25.75 23.4166L28.25 25.9166C28.8055 24.7778 29.2361 23.5833 29.5417 22.3333C29.8472 21.0833 30 19.8055 30 18.5V10.625L20 6.87498L9.99999 10.625V18.5C9.99999 21.8611 10.9444 24.9166 12.8333 27.6666C14.7222 30.4166 17.1111 32.25 20 33.1666C20.7222 32.9444 21.4097 32.6597 22.0625 32.3125C22.7153 31.9653 23.3611 31.5555 24 31.0833L26.3333 33.4166C25.4167 34.1666 24.4236 34.8194 23.3542 35.375C22.2847 35.9305 21.1667 36.3611 20 36.6666ZM20 23.3333C20.9167 23.3333 21.7014 23.0069 22.3542 22.3541C23.0069 21.7014 23.3333 20.9166 23.3333 20C23.3333 19.0833 23.0069 18.2986 22.3542 17.6458C21.7014 16.993 20.9167 16.6666 20 16.6666C19.0833 16.6666 18.2986 16.993 17.6458 17.6458C16.993 18.2986 16.6667 19.0833 16.6667 20C16.6667 20.9166 16.993 21.7014 17.6458 22.3541C18.2986 23.0069 19.0833 23.3333 20 23.3333Z" fill="#1C1B1F"/>
</g>
</svg>
