<svg width="80" height="80" viewBox="0 0 80 80" fill="none" xmlns="http://www.w3.org/2000/svg">
<rect width="80" height="80" rx="14" fill="#F3F3F3"/>
<path d="M20.1719 23.9688H46.1188C46.3426 23.9688 46.5572 23.8799 46.7155 23.7216C46.8737 23.5634 46.9626 23.3488 46.9626 23.125C46.9626 22.9012 46.8737 22.6866 46.7155 22.5284C46.5572 22.3701 46.3426 22.2812 46.1188 22.2812H20.1719C19.9481 22.2812 19.7335 22.3701 19.5753 22.5284C19.417 22.6866 19.3281 22.9012 19.3281 23.125C19.3281 23.3488 19.417 23.5634 19.5753 23.7216C19.7335 23.8799 19.9481 23.9688 20.1719 23.9688Z" fill="#3AA04A"/>
<path d="M47.1718 31.5625C47.1718 31.3387 47.0829 31.1241 46.9247 30.9659C46.7664 30.8077 46.5518 30.7188 46.3281 30.7188H20.3811C20.1573 30.7188 19.9427 30.8076 19.7845 30.9659C19.6262 31.1241 19.5374 31.3387 19.5374 31.5625C19.5374 31.7863 19.6262 32.0009 19.7845 32.1591C19.9427 32.3174 20.1573 32.4062 20.3811 32.4062H46.3281C46.5518 32.4062 46.7664 32.3173 46.9247 32.1591C47.0829 32.0009 47.1718 31.7863 47.1718 31.5625Z" fill="#3AA04A"/>
<path d="M19.5374 56.875C19.5374 57.0988 19.6263 57.3134 19.7845 57.4716C19.9427 57.6298 20.1573 57.7187 20.3811 57.7188H39.9063C39.4964 57.1805 39.1207 56.6168 38.7817 56.0312H20.3811C20.1573 56.0313 19.9427 56.1202 19.7845 56.2784C19.6263 56.4366 19.5374 56.6512 19.5374 56.875Z" fill="#3AA04A"/>
<path d="M36.6357 47.5938H20.3811C20.1573 47.5938 19.9427 47.6826 19.7845 47.8409C19.6262 47.9991 19.5374 48.2137 19.5374 48.4375C19.5374 48.6613 19.6262 48.8759 19.7845 49.0341C19.9427 49.1924 20.1573 49.2812 20.3811 49.2812H36.6796C36.6467 48.8632 36.6249 48.442 36.6249 48.0156C36.6249 47.8742 36.632 47.7344 36.6357 47.5938Z" fill="#3AA04A"/>
<path d="M39.3039 39.1562H20.3811C20.1573 39.1562 19.9427 39.2451 19.7845 39.4034C19.6262 39.5616 19.5374 39.7762 19.5374 40C19.5374 40.2238 19.6262 40.4384 19.7845 40.5966C19.9427 40.7549 20.1573 40.8438 20.3811 40.8438H38.3251C38.6168 40.2619 38.9437 39.6984 39.3039 39.1562Z" fill="#3AA04A"/>
<path d="M16.375 67H50.125C50.9501 66.9988 51.7461 66.6956 52.3631 66.1478C52.98 65.5999 53.3751 64.8453 53.4739 64.0261C53.203 64.0398 52.9305 64.0467 52.6562 64.0469C52.3557 64.0469 52.0575 64.0369 51.761 64.0205C51.6729 64.3882 51.4636 64.7156 51.1668 64.9499C50.8701 65.1843 50.5031 65.312 50.125 65.3125H16.375C15.9274 65.3125 15.4982 65.1347 15.1818 64.8182C14.8653 64.5018 14.6875 64.0726 14.6875 63.625V16.375C14.6875 15.9274 14.8653 15.4982 15.1818 15.1818C15.4982 14.8653 15.9274 14.6875 16.375 14.6875H50.125C50.5726 14.6875 51.0018 14.8653 51.3182 15.1818C51.6347 15.4982 51.8125 15.9274 51.8125 16.375V32.0068C52.092 31.9922 52.3732 31.9848 52.6562 31.9844C52.9393 31.9844 53.2205 31.9919 53.5 32.0068V16.375C53.499 15.4802 53.1431 14.6223 52.5104 13.9896C51.8777 13.3569 51.0198 13.001 50.125 13H16.375C15.4802 13.001 14.6223 13.3569 13.9896 13.9896C13.3569 14.6223 13.001 15.4802 13 16.375V63.625C13.001 64.5198 13.3569 65.3777 13.9896 66.0104C14.6223 66.6431 15.4802 66.999 16.375 67Z" fill="#3AA04A"/>
<path d="M52.6563 33.6719C49.8193 33.6719 47.0461 34.5131 44.6873 36.0892C42.3285 37.6653 40.49 39.9055 39.4044 42.5265C38.3187 45.1475 38.0347 48.0315 38.5881 50.814C39.1416 53.5964 40.5077 56.1522 42.5137 58.1582C44.5197 60.1642 47.0755 61.5303 49.8579 62.0838C52.6403 62.6372 55.5244 62.3532 58.1454 61.2675C60.7663 60.1819 63.0065 58.3434 64.5826 55.9846C66.1588 53.6258 67 50.8526 67 48.0156C66.9957 44.2127 65.4831 40.5668 62.7941 37.8778C60.105 35.1887 56.4591 33.6762 52.6563 33.6719ZM52.6563 60.6719C50.1531 60.6719 47.7061 59.9296 45.6248 58.5389C43.5435 57.1482 41.9213 55.1716 40.9634 52.859C40.0055 50.5463 39.7548 48.0016 40.2432 45.5465C40.7315 43.0914 41.9369 40.8363 43.7069 39.0663C45.4769 37.2963 47.7321 36.0909 50.1871 35.6026C52.6422 35.1142 55.187 35.3649 57.4996 36.3228C59.8122 37.2807 61.7889 38.9029 63.1795 40.9842C64.5702 43.0655 65.3125 45.5125 65.3125 48.0156C65.3087 51.3711 63.9741 54.5881 61.6014 56.9607C59.2287 59.3334 56.0117 60.6681 52.6563 60.6719Z" fill="#3AA04A"/>
<path d="M57.0126 39.4548L56.725 39.3139C56.0276 38.9756 55.2254 38.9238 54.4903 39.1698C53.7552 39.4157 53.1456 39.9397 52.7922 40.6296L47.6852 50.6938C47.6808 50.7025 47.6789 50.712 47.6748 50.7208C47.6621 50.7488 47.6509 50.7775 47.6414 50.8068C47.6334 50.8306 47.6255 50.8541 47.6197 50.8784C47.6132 50.9066 47.6083 50.9351 47.6048 50.9638C47.6011 50.9916 47.5979 51.0191 47.5969 51.0471C47.5966 51.0585 47.5937 51.0693 47.5938 51.0809L47.6242 56.0365C47.6252 56.1919 47.6691 56.344 47.751 56.4761C47.833 56.6081 47.9498 56.715 48.0886 56.7849C48.2278 56.8529 48.3828 56.8821 48.5373 56.8694C48.6917 56.8566 48.8399 56.8025 48.9661 56.7126L53.0122 53.7541C53.0464 53.7278 53.0786 53.699 53.1084 53.6678C53.1163 53.6599 53.1254 53.6538 53.1331 53.6456C53.181 53.593 53.2219 53.5344 53.2549 53.4714C53.2582 53.4654 53.2633 53.4611 53.2664 53.455L58.3466 43.4431C58.5238 43.0942 58.6299 42.7135 58.6587 42.3233C58.6874 41.933 58.6383 41.5409 58.5142 41.1698C58.3901 40.7987 58.1934 40.456 57.9356 40.1616C57.6778 39.8671 57.3641 39.6269 57.0126 39.4548ZM49.3014 54.3766L49.2896 52.4328L50.8887 53.2162L49.3014 54.3766ZM52.1384 51.9494L49.5771 50.6945L53.0522 43.8462L55.6135 45.1009L52.1384 51.9494ZM56.842 42.6795L56.3771 43.596L53.8158 42.3412L54.2968 41.393C54.4485 41.0975 54.7098 40.8731 55.0249 40.7678C55.3399 40.6624 55.6836 40.6845 55.9826 40.8292L56.2702 40.9701C56.5721 41.1216 56.8017 41.3865 56.9089 41.7068C57.016 42.0271 56.992 42.3768 56.842 42.6795Z" fill="#3AA04A"/>
</svg>
