<svg width="12" height="12" viewBox="0 0 12 12" fill="none" xmlns="http://www.w3.org/2000/svg">
<path d="M8.14272 3.42873H8.99986V8.57159H8.14272V3.42873ZM2.78257 8.51244C2.71823 8.4746 2.66489 8.4206 2.62784 8.35581C2.59078 8.29101 2.57129 8.21766 2.57129 8.14301V3.8573C2.57129 3.78265 2.59078 3.7093 2.62784 3.6445C2.6649 3.57971 2.71824 3.52571 2.78259 3.48787C2.84693 3.45003 2.92004 3.42964 2.99468 3.42874C3.06933 3.42784 3.14291 3.44645 3.20815 3.48273L7.06529 5.62559C7.13207 5.66271 7.18771 5.71702 7.22644 5.78288C7.26518 5.84873 7.28561 5.92375 7.28561 6.00016C7.28561 6.07656 7.26518 6.15158 7.22644 6.21744C7.18771 6.2833 7.13207 6.3376 7.06529 6.37473L3.20815 8.51759C3.14291 8.55387 3.06932 8.57248 2.99468 8.57157C2.92003 8.57067 2.84692 8.55029 2.78257 8.51244Z" fill="#1C211E"/>
<path d="M6 12C4.81331 12 3.65328 11.6481 2.66658 10.9888C1.67989 10.3295 0.910851 9.39246 0.456725 8.2961C0.0025997 7.19975 -0.11622 5.99335 0.115291 4.82946C0.346802 3.66557 0.918247 2.59648 1.75736 1.75736C2.59648 0.918247 3.66557 0.346802 4.82946 0.115291C5.99335 -0.11622 7.19975 0.0025997 8.2961 0.456725C9.39246 0.910851 10.3295 1.67989 10.9888 2.66658C11.6481 3.65328 12 4.81331 12 6C11.9982 7.59074 11.3655 9.11581 10.2406 10.2406C9.11581 11.3655 7.59074 11.9982 6 12ZM6 0.857145C4.98284 0.857145 3.98852 1.15877 3.14278 1.72387C2.29705 2.28898 1.63787 3.09218 1.24862 4.03192C0.859371 4.97165 0.757526 6.00571 0.955964 7.00332C1.1544 8.00094 1.64421 8.91731 2.36345 9.63655C3.08269 10.3558 3.99906 10.8456 4.99668 11.044C5.9943 11.2425 7.02835 11.1406 7.96809 10.7514C8.90782 10.3621 9.71103 9.70296 10.2761 8.85722C10.8412 8.01148 11.1429 7.01716 11.1429 6C11.1413 4.63652 10.5989 3.32934 9.6348 2.36521C8.67067 1.40108 7.36348 0.858733 6 0.857145Z" fill="#1C211E"/>
</svg>
