<svg width="64" height="64" viewBox="0 0 64 64" fill="none" xmlns="http://www.w3.org/2000/svg">
<rect x="0.333252" width="63.3333" height="63.3333" rx="31.6667" fill="#D0F19E"/>
<mask id="mask0_1563_35723" style="mask-type:alpha" maskUnits="userSpaceOnUse" x="11" y="10" width="42" height="43">
<rect x="11" y="10.6667" width="42" height="42" fill="#D9D9D9"/>
</mask>
<g mask="url(#mask0_1563_35723)">
<path d="M36.3751 50.9167C35.6459 50.9167 35.0261 50.6614 34.5157 50.151C34.0053 49.6406 33.7501 49.0208 33.7501 48.2917V36.0417C33.7501 35.3125 34.0053 34.6927 34.5157 34.1823C35.0261 33.6719 35.6459 33.4167 36.3751 33.4167H48.6251C49.3543 33.4167 49.9741 33.6719 50.4845 34.1823C50.9949 34.6927 51.2501 35.3125 51.2501 36.0417V48.2917C51.2501 49.0208 50.9949 49.6406 50.4845 50.151C49.9741 50.6614 49.3543 50.9167 48.6251 50.9167H36.3751ZM27.1876 49.1667L26.4876 43.5667C26.1084 43.4208 25.7511 43.2458 25.4157 43.0417C25.0803 42.8375 24.7522 42.6187 24.4313 42.3854L19.2251 44.5729L14.4126 36.2604L18.9188 32.8479C18.8897 32.6437 18.8751 32.4469 18.8751 32.2573V31.076C18.8751 30.8864 18.8897 30.6896 18.9188 30.4854L14.4126 27.0729L19.2251 18.7604L24.4313 20.9479C24.7522 20.7146 25.0876 20.4958 25.4376 20.2917C25.7876 20.0875 26.1376 19.9125 26.4876 19.7667L27.1876 14.1667H36.8126L37.5126 19.7667C37.8918 19.9125 38.2491 20.0875 38.5845 20.2917C38.9199 20.4958 39.248 20.7146 39.5688 20.9479L44.7751 18.7604L49.5876 27.0729L45.8689 29.9167H37.9501C37.5418 28.6625 36.8126 27.6198 35.7626 26.7885C34.7126 25.9573 33.4876 25.5417 32.0876 25.5417C30.3959 25.5417 28.9522 26.1396 27.7563 27.3354C26.5605 28.5312 25.9626 29.975 25.9626 31.6667C25.9626 33.0667 26.3563 34.2917 27.1438 35.3417C27.9313 36.3917 28.9668 37.1208 30.2501 37.5292V49.1667H27.1876ZM37.2501 47.4167H47.7501V45.9729C47.0209 45.3021 46.2043 44.7917 45.3001 44.4417C44.3959 44.0917 43.4626 43.9167 42.5001 43.9167C41.5376 43.9167 40.6043 44.0917 39.7001 44.4417C38.7959 44.7917 37.9793 45.3021 37.2501 45.9729V47.4167ZM42.5001 42.1667C43.2293 42.1667 43.8491 41.9114 44.3595 41.401C44.8699 40.8906 45.1251 40.2708 45.1251 39.5417C45.1251 38.8125 44.8699 38.1927 44.3595 37.6823C43.8491 37.1719 43.2293 36.9167 42.5001 36.9167C41.7709 36.9167 41.1511 37.1719 40.6407 37.6823C40.1303 38.1927 39.8751 38.8125 39.8751 39.5417C39.8751 40.2708 40.1303 40.8906 40.6407 41.401C41.1511 41.9114 41.7709 42.1667 42.5001 42.1667Z" fill="#1A5C4B"/>
</g>
</svg>
