<svg width="80" height="80" viewBox="0 0 80 80" fill="none" xmlns="http://www.w3.org/2000/svg">
<rect width="80" height="80" rx="14" fill="#F3F3F3"/>
<path d="M56.3247 42.6343C55.1241 38.6323 50.1716 36.8314 47.8206 36.2311C47.778 36.061 47.6905 35.9059 47.5704 35.7809L45.5694 33.8299V33.7298C46.77 32.4292 47.4203 30.078 47.4203 28.3771V26.0259H47.5204C47.8906 25.7783 48.1858 25.4306 48.3708 25.0254C49.0862 24.8853 49.694 24.4251 50.0216 23.7748C50.8745 23.5071 51.5574 22.8618 51.8725 22.0239C52.0276 21.8863 52.1477 21.7162 52.2227 21.5236L53.3733 21.6737C53.9961 21.7062 54.6115 21.5311 55.1242 21.1735C55.6745 20.7232 55.9721 20.0329 55.9246 19.3225C56.4674 18.8373 56.8351 18.187 56.9751 17.4716C57.0527 16.9363 56.9476 16.3886 56.675 15.9208C56.7901 14.5551 55.9021 13.307 54.574 12.9693C54.3939 12.9643 54.2288 12.8743 54.1287 12.7242C54.0287 12.5741 54.0087 12.3865 54.0737 12.2189C54.1362 12.0238 54.1362 11.8137 54.0737 11.6186C53.5234 9.96782 51.8226 9.81772 50.8221 10.0678C50.622 10.0678 50.3719 9.66763 50.2718 9.41752C49.6715 7.86672 47.9706 7.7667 47.0202 8.1169C46.8201 8.17443 46.6425 8.29949 46.5199 8.46708C46.2273 8.78974 45.7545 8.87228 45.3693 8.66718C44.0462 8.17193 42.5579 8.64717 41.7675 9.81778C41.6074 10.0504 41.5524 10.343 41.6174 10.6182L42.1177 12.5192L40.8671 12.119H40.817C36.6649 11.3186 33.8638 11.8188 33.0128 12.169C31.2744 12.8819 29.9012 14.2726 29.2109 16.0209C28.9032 16.7488 28.8507 17.5592 29.0608 18.3221C29.461 19.6728 30.2614 22.074 30.8617 23.7749L31.512 25.7259C31.5295 25.8309 31.562 25.931 31.612 26.026V28.4272C31.7621 30.028 32.3624 32.3792 33.6131 33.6799L34.1133 34.2301L31.0117 38.2322C29.8611 38.6324 26.3093 40.4333 24.9587 46.2362L24.5084 48.0371C23.8081 50.9886 22.9076 54.6401 23.0077 56.8915C23.0577 57.5418 23.3078 59.843 25.1588 61.0936C25.9492 61.5964 26.8721 61.859 27.8101 61.844H28.0102C28.0602 63.9951 28.0102 70.1484 28.0102 70.8988V71.0489C28.0102 71.3141 28.1152 71.5692 28.3028 71.7568C28.4904 71.9444 28.7456 72.0495 29.0107 72.0495H51.0218C51.287 72.0495 51.5421 71.9444 51.7297 71.7568C51.9173 71.5692 52.0224 71.3141 52.0224 71.0489V59.7434C52.9228 57.7924 57.7253 47.3369 56.3247 42.6343ZM43.8685 42.8845L40.4168 41.1836L44.719 35.7809L45.5194 36.5813C44.2487 38.4272 43.6484 40.6509 43.8185 42.8845L43.8685 42.8845ZM39.6664 36.8314C40.3092 36.8339 40.947 36.7489 41.5674 36.5813L37.5653 41.5838C37.3327 41.1386 37.0076 40.7459 36.6148 40.4332H36.5648L38.1156 36.7314C38.6284 36.8214 39.1461 36.8539 39.6664 36.8314ZM49.9717 21.4739C49.9717 21.574 49.5215 21.8741 49.1213 22.0242C48.8037 22.0992 48.5435 22.3218 48.4209 22.6245C48.3709 22.8246 48.2208 23.1748 47.8206 23.0247C47.4479 22.8771 47.0252 22.9622 46.7426 23.2473C46.4574 23.53 46.3724 23.9527 46.52 24.3254C46.3699 24.2253 45.8696 23.8751 44.9692 22.4244L44.569 21.8741C46.1173 21.4013 47.598 20.7285 48.9712 19.8731L50.1718 20.9236C50.0517 21.0837 49.9817 21.2738 49.9717 21.4739ZM44.4689 13.6197L43.7185 10.6682C43.9987 10.4756 44.3563 10.4381 44.669 10.5681C45.7596 11.0284 47.0202 10.7933 47.8706 9.96783C48.0907 9.8978 48.3284 10.0054 48.4209 10.218C48.7711 11.0684 49.7716 12.3691 51.3223 12.0189H51.4224C51.4724 12.0189 51.9227 11.8688 52.1728 12.1189C52.1303 12.6592 52.2528 13.1995 52.523 13.6697C52.9032 14.285 53.516 14.7177 54.2238 14.8703C54.629 15.0729 54.8216 15.5432 54.674 15.9709C54.6215 16.2536 54.6965 16.5462 54.8741 16.7713C54.9892 16.8714 55.0442 17.0214 55.0242 17.1715C54.8966 17.5417 54.6515 17.8594 54.3238 18.0719C53.9887 18.2871 53.8111 18.6797 53.8736 19.0724C53.9236 19.4726 53.8736 19.6227 53.8736 19.6227C53.8736 19.6227 52.2728 19.6227 51.2723 19.2225H51.0722L50.4219 18.4721L52.573 17.3715C53.0707 17.1239 53.2708 16.5186 53.0232 16.0208C52.7756 15.5231 52.1703 15.323 51.6725 15.5706L49.0212 16.9713H48.9211L47.8205 15.8707L48.6709 13.0193C48.8235 12.4815 48.5084 11.9213 47.9706 11.7687C47.4328 11.6161 46.8725 11.9313 46.7199 12.4691L46.0696 14.6202L44.4689 13.6197ZM31.0119 17.8218C30.9093 17.4942 30.9268 17.139 31.0619 16.8213C31.5396 15.5682 32.5176 14.5702 33.7633 14.0699H33.8133C34.0134 14.0199 36.3146 13.3695 40.4163 14.1199C43.0702 14.8953 45.4689 16.3636 47.3696 18.3721C45.5837 19.4276 43.6152 20.1404 41.5667 20.4731H41.5167L39.6657 20.6232C37.1194 20.6107 34.6782 21.6412 32.9122 23.4746L32.8122 23.1744C32.2119 21.4736 31.3621 19.1225 31.0119 17.8218ZM33.7133 25.676C35.104 23.715 37.3626 22.5569 39.7663 22.5744L41.7673 22.4243C42.3776 22.5494 42.9179 22.9096 43.2681 23.4249C43.9184 24.4754 44.6688 25.4759 45.5192 25.9762V28.4274C45.5192 29.678 45.019 31.529 44.2186 32.3794L43.5182 33.1298C42.5352 34.1678 41.1695 34.7556 39.7413 34.7556C38.3131 34.7556 36.9474 34.1678 35.9645 33.1298L35.2141 32.3294C34.4137 31.479 33.9134 29.6781 33.7633 28.3274L33.7133 25.676ZM35.7143 35.5812L36.2646 35.9314L34.7638 39.4832C34.1085 39.3331 33.4356 39.2681 32.7628 39.2831L35.7143 35.5812ZM26.2593 59.4435C25.1587 58.6931 25.0086 57.2424 25.0086 56.7922C24.9086 54.8412 25.8091 51.1893 26.4594 48.5378L26.9096 46.6868C27.5599 43.9354 28.7605 42.2846 29.811 41.3341C30.0611 41.5442 30.3963 41.6193 30.7114 41.5342C31.6119 41.3341 34.2132 40.9339 35.3638 41.9344C35.874 42.4072 36.1167 43.1 36.0141 43.7853C35.9916 44.2256 36.2592 44.6283 36.6744 44.7784C37.0871 44.9284 37.5523 44.7884 37.8149 44.4357L39.1156 42.7849L44.6684 45.5363L45.1186 45.6363C45.4238 45.6313 45.7114 45.4862 45.8965 45.2411C46.0816 44.9985 46.1466 44.6833 46.0691 44.3857C45.4788 42.2396 45.7864 39.9485 46.9195 38.0325C48.6704 38.4827 53.4226 39.9335 54.3735 43.1851C55.3244 46.4367 51.6721 55.8417 50.1214 59.0434C50.0213 59.1934 48.1703 62.5952 42.9677 60.7442H42.8176L36.6645 59.4936C38.9656 58.8933 41.1667 58.4931 41.667 58.5431H41.9171C43.6179 58.5431 44.8185 58.1429 45.4689 57.3425C45.8341 56.9297 46.0292 56.3945 46.0192 55.8417C46.9697 50.4889 50.0212 45.6868 50.0212 45.6362C50.3264 45.166 50.1913 44.5407 49.7211 44.2355C49.2508 43.9303 48.6255 44.0654 48.3204 44.5356C47.4849 45.8988 46.7496 47.3196 46.1192 48.7878L45.9692 48.6877C44.9836 48.18 43.8006 48.2375 42.8676 48.8378H42.3673C40.4663 49.0379 35.3635 49.6382 31.1117 51.239C31.3018 49.6957 31.6895 48.1825 32.2623 46.7368C32.2573 46.3216 31.9972 45.9538 31.6095 45.8113C31.2218 45.6662 30.7841 45.7763 30.5115 46.0864C29.7061 48.0274 29.2333 50.091 29.1108 52.1895C28.2103 52.5397 26.7596 53.3401 26.2093 54.8408C26.1118 55.0934 26.1218 55.3736 26.2343 55.6187C26.3494 55.8613 26.5545 56.0514 26.8096 56.1415H27.1598C27.5825 56.1465 27.9627 55.8863 28.1103 55.4911C28.4605 54.5406 29.8612 53.9403 30.3614 53.8403H30.5115C33.7631 52.3896 38.0155 51.5892 40.717 51.239C40.0667 52.9899 40.0141 54.9084 40.5669 56.6917C37.1802 57.272 33.8486 58.1425 30.6118 59.2931C28.7108 59.9434 27.2098 60.0438 26.2593 59.4435ZM43.3181 50.9394C43.5407 50.9243 43.7508 50.8368 43.9184 50.6892C44.2586 50.4166 44.7238 50.3566 45.119 50.5392L45.4692 50.6392C45.1015 51.6072 44.7839 52.5902 44.5187 53.5907C43.8434 53.3506 43.093 53.4631 42.5177 53.8909H42.2676C42.2376 52.8128 42.5727 51.7548 43.2181 50.8893L43.3181 50.9394ZM42.6678 56.4922L42.5177 55.8919C42.9279 55.8894 43.3281 55.7668 43.6683 55.5417C43.8134 55.4641 43.9935 55.4842 44.1186 55.5917C44.1035 55.6918 44.1035 55.7918 44.1186 55.8919L44.0185 55.9919C43.9185 56.142 43.5683 56.4421 42.6678 56.4922ZM30.0112 69.9992V66.0471V61.4948L31.3619 61.0446L32.5625 60.5944H32.7626L42.3674 62.5454C43.488 62.9606 44.6736 63.1807 45.8692 63.1957C47.3575 63.2182 48.8133 62.7605 50.0214 61.8951V69.999L30.0112 69.9992Z" fill="#026735"/>
<path d="M37.6656 16.6211C39.2164 16.6211 40.6171 17.3215 41.8177 17.9718C42.6156 18.4621 43.4985 18.7998 44.419 18.9723H44.519C45.0718 18.9998 45.5421 18.5746 45.5695 18.0218C45.597 17.469 45.1718 16.9988 44.619 16.9713C43.9662 16.7987 43.3409 16.5286 42.7681 16.1709C41.4174 15.4705 39.7666 14.6201 37.7156 14.6201C37.1628 14.6201 36.7151 15.0678 36.7151 15.6206C36.7151 16.1734 37.1628 16.6211 37.7156 16.6211H37.6656Z" fill="#026735"/>
<path d="M33.3135 18.9218C34.5642 18.6716 35.7648 18.9718 36.8654 19.2719C37.5157 19.472 38.1885 19.5896 38.8664 19.6221H39.2165C39.7693 19.5521 40.162 19.0493 40.092 18.4965C40.022 17.9438 39.5192 17.551 38.9664 17.6211C38.4212 17.5986 37.8834 17.496 37.3656 17.3209C36.115 16.9708 34.6142 16.5706 32.9134 16.9708C32.3756 17.0958 32.0379 17.6336 32.163 18.1714C32.2881 18.7091 32.8259 19.0468 33.3636 18.9218L33.3135 18.9218Z" fill="#026735"/>
</svg>
