<svg width="80" height="80" viewBox="0 0 80 80" fill="none" xmlns="http://www.w3.org/2000/svg">
<rect width="80" height="80" rx="14" fill="#F3F3F3"/>
<path fill-rule="evenodd" clip-rule="evenodd" d="M21.2215 21.6349H19.9595C18.5397 21.6349 17.3888 22.7902 17.3888 24.2154V26.5492C17.3888 27.9744 18.5397 29.1296 19.9595 29.1296H21.3043C21.5732 31.0377 22.45 32.8212 23.8258 34.2023C24.4207 34.7993 25.0879 35.3029 25.8095 35.7028V38.4286C25.8095 38.5273 25.8146 38.6285 25.8198 38.7271C25.5793 38.8076 25.2974 38.9063 24.9845 39.0127C24.9715 39.0153 24.9586 39.0179 24.9483 39.0231C23.1638 39.628 20.4146 40.534 18.881 40.9338C14.8698 41.9851 12.069 45.6222 12.069 49.786V58.6927H11.0345C10.4629 58.6927 10 59.1574 10 59.7311V65.9616C10 66.5353 10.4629 67 11.0345 67H68.9655C69.5371 67 70 66.5353 70 65.9616V59.7311C70 59.1574 69.5371 58.6927 68.9655 58.6927H61.7238V56.6159H67.3876C68.0807 56.6159 68.7454 56.3407 69.2342 55.8475C69.7256 55.3569 69.9997 54.6897 69.9997 53.9939V37.4286C69.9997 36.7328 69.7255 36.0656 69.2342 35.575C68.7454 35.0817 68.0807 34.8066 67.3876 34.8066H39.5059C38.8128 34.8066 38.1481 35.0818 37.6593 35.575C37.1679 36.0656 36.8938 36.7328 36.8938 37.4286V39.5002L34.4317 38.7084C34.4369 38.615 34.4395 38.5215 34.4395 38.428V35.7022C35.161 35.3024 35.8309 34.7988 36.4257 34.2017C36.7154 33.9109 36.9843 33.602 37.23 33.2749H37.6696C38.655 33.2749 39.599 32.8829 40.2973 32.182C40.9955 31.4811 41.386 30.5361 41.386 29.5444V28.8721C42.2447 28.4541 42.8369 27.5689 42.8369 26.5512V24.2174C42.8369 22.7922 41.6834 21.637 40.2662 21.637H39.0326C38.955 19.3785 38.024 17.2263 36.4283 15.622C34.7576 13.945 32.4895 13 30.1257 13C27.7619 13 25.4964 13.9424 23.8231 15.622C22.2248 17.2263 21.2938 19.3758 21.2188 21.637L21.2215 21.6349ZM67.9338 60.7675V64.9212H12.0717V60.7675H67.9338ZM23.0634 41.8323C21.7186 42.2684 20.3427 42.6967 19.4065 42.9408C16.3057 43.7534 14.141 46.5622 14.141 49.7813V58.6881H19.3134V51.4188C19.3134 50.8451 19.7764 50.3804 20.3479 50.3804C20.9195 50.3804 21.3824 50.8451 21.3824 51.4188V58.6881H29.0816V43.6884C28.6006 43.9766 28.042 44.2777 27.4471 44.5373C26.0971 45.124 24.5609 45.4771 23.2135 45.1604C22.6859 45.0357 22.0911 44.4698 22.3911 43.3795C22.4997 42.9849 22.7609 42.4138 23.0635 41.8271L23.0634 41.8323ZM48.1598 58.6907H53.4512V56.6139H48.1598V58.6907ZM56.2132 46.2298C56.133 46.2298 56.0528 46.2454 55.9804 46.2713C55.9287 46.2895 55.877 46.3155 55.8304 46.3492C55.7942 46.3752 55.758 46.4011 55.727 46.4349C55.5977 46.5647 55.5253 46.7412 55.5253 46.9255V58.6933H59.6632V46.9255C59.6632 46.8736 59.658 46.8217 59.6477 46.775C59.6425 46.749 59.6347 46.7282 59.627 46.7049L59.6192 46.6763C59.6037 46.6426 59.5908 46.6088 59.5727 46.5777L59.5701 46.5751C59.5597 46.5569 59.5468 46.5387 59.5339 46.5206L59.5028 46.479L59.4899 46.466C59.4821 46.4557 59.4718 46.4453 59.4615 46.4349C59.3813 46.3544 59.2804 46.2947 59.1744 46.261L59.1589 46.2558C59.1459 46.2506 59.133 46.2506 59.1175 46.2454C59.0709 46.235 59.0218 46.2298 58.9753 46.2298L56.2132 46.2298ZM31.1525 43.6727V58.6909H46.0928V56.6141H39.5135C39.0092 56.6141 38.5178 56.4661 38.1014 56.1961C38.0626 56.1702 38.0238 56.1468 37.9876 56.1182L37.9825 56.1131C37.9488 56.0897 37.9178 56.0663 37.8842 56.0404L37.879 56.0352C37.804 55.9781 37.7342 55.9132 37.6669 55.8431C37.6514 55.8301 37.6385 55.8171 37.623 55.8015C37.16 55.3135 36.9015 54.6645 36.9015 53.9895V45.1917C35.5928 45.4513 34.1187 45.1035 32.8178 44.5375C32.2101 44.2727 31.6437 43.9638 31.1523 43.6705L31.1525 43.6727ZM61.7295 54.5373H67.3933C67.5382 54.5373 67.6752 54.4802 67.7761 54.3763C67.877 54.2751 67.9364 54.1375 67.9364 53.9921V37.4267C67.9364 37.2814 67.8796 37.1438 67.7761 37.0425C67.6752 36.9413 67.5382 36.8816 67.3933 36.8816H39.5116C39.3668 36.8816 39.2297 36.9387 39.1289 37.0425C39.028 37.1438 38.9685 37.2814 38.9685 37.4267V53.9921C38.9685 54.0388 38.9737 54.0804 38.984 54.1245C38.9944 54.1686 39.0099 54.2102 39.0306 54.2465L39.0358 54.2621C39.0539 54.2932 39.0772 54.3244 39.103 54.353L39.1263 54.3763C39.1392 54.3919 39.1521 54.4023 39.1677 54.4127L39.1961 54.436C39.1987 54.4386 39.2013 54.4412 39.2039 54.4412C39.2918 54.5009 39.3978 54.5347 39.509 54.5347H53.4489V46.9206C53.4489 46.4792 53.5549 46.0483 53.7515 45.6589C53.767 45.6252 53.7877 45.5914 53.8084 45.5551L53.8317 45.5161C53.9299 45.3448 54.0515 45.1838 54.1886 45.0333L54.2196 45.0021C54.2325 44.9865 54.2455 44.9736 54.261 44.9606C54.4368 44.7815 54.6386 44.6309 54.8506 44.5089L54.8584 44.5063C54.9205 44.4699 54.9825 44.4388 55.0472 44.4076H55.0498C55.161 44.3557 55.2774 44.3116 55.3937 44.2752L55.4067 44.27C55.4558 44.2545 55.5049 44.2415 55.5567 44.2285C55.7687 44.1766 55.9886 44.1506 56.2136 44.1506H58.9705C59.0972 44.1506 59.2213 44.1584 59.3455 44.1766L59.3688 44.1818C59.4929 44.1999 59.6144 44.2259 59.7334 44.2597C59.7412 44.2623 59.7489 44.2648 59.7593 44.2648C59.7955 44.2778 59.8343 44.2908 59.8705 44.3012C59.9067 44.3142 59.9455 44.3272 59.9817 44.3401L59.9972 44.3453C60.1369 44.4024 60.2713 44.4673 60.3981 44.5478L60.4032 44.5504C60.5041 44.6127 60.605 44.6828 60.6981 44.7581L60.7084 44.7659C60.7369 44.7892 60.7653 44.8126 60.7912 44.836C60.8377 44.8749 60.8817 44.9164 60.9231 44.9606C61.4403 45.4798 61.7326 46.1833 61.7326 46.918V54.5321L61.7295 54.5373ZM23.454 51.422H26.6764C27.248 51.422 27.7109 50.9574 27.7109 50.3836C27.7109 49.8099 27.248 49.3452 26.6764 49.3452H23.454C22.8825 49.3452 22.4195 49.8099 22.4195 50.3836C22.4195 50.9574 22.8825 51.422 23.454 51.422ZM27.6307 41.9571C27.4368 41.8169 27.2506 41.6611 27.0773 41.4898C26.8419 41.2535 26.6273 40.9887 26.4463 40.7058C26.304 40.7551 26.1488 40.807 25.9807 40.8667C25.6678 41.3704 25.0575 42.3854 24.6747 43.198C25.3316 43.1382 26.004 42.9072 26.6247 42.6346C27.0333 42.4555 27.4212 42.2556 27.773 42.0557C27.7264 42.0271 27.6824 41.996 27.6385 41.9648L27.6307 41.9596L27.6307 41.9571ZM34.2667 40.8304L33.827 40.6902C33.646 40.9784 33.4261 41.2458 33.1856 41.4898C33.0123 41.6611 32.8287 41.8169 32.6322 41.9571L32.627 41.9622C32.583 41.9934 32.5391 42.022 32.4925 42.0531C32.8442 42.253 33.2322 42.4529 33.646 42.632C34.2667 42.9046 34.9391 43.1356 35.5934 43.1954C35.2055 42.362 34.5744 41.3184 34.2692 40.8304L34.2667 40.8304ZM27.8839 36.5314V38.4265C27.8839 38.6549 27.9201 38.8756 27.9822 39.0833C27.9874 39.0988 27.9925 39.1118 27.9977 39.1274C28.1658 39.6466 28.5175 40.0801 28.9727 40.3579C29.2857 40.5449 29.64 40.6565 30.0072 40.6773L30.046 40.6798C30.0745 40.6798 30.1029 40.6824 30.1339 40.6824H30.1365C30.1624 40.6824 30.1857 40.6798 30.2089 40.6798L30.2503 40.6773C30.6253 40.6591 30.99 40.5475 31.3081 40.3501C31.7581 40.075 32.1072 39.6388 32.2753 39.1248C32.2805 39.1092 32.2831 39.0962 32.2883 39.0807C32.3529 38.873 32.3865 38.6523 32.3865 38.4239V36.5287C31.6572 36.7208 30.9046 36.8169 30.1391 36.8169C29.3737 36.8169 28.6184 36.7183 27.8892 36.5287L27.8839 36.5314ZM36.9768 23.2244C32.9345 23.3231 30.594 22.1211 29.2385 20.8984C28.8066 20.509 28.4678 20.1092 28.2014 19.7354C26.8023 21.6616 25.3049 22.6117 23.2876 23.1362V27.8713C23.2876 29.6937 24.0092 31.4409 25.2919 32.7285C25.9514 33.3905 26.735 33.907 27.5833 34.2472C28.3798 34.5639 29.2462 34.7093 30.1307 34.7093C31.0152 34.7093 31.879 34.5665 32.6782 34.2472C33.2807 34.0058 33.8471 33.6787 34.3618 33.271H31.0152C30.4437 33.271 29.9808 32.8064 29.9808 32.2326C29.9808 31.6589 30.4437 31.1942 31.0152 31.1942H36.1204C36.6738 30.187 36.9739 29.0447 36.9739 27.8713V23.2244H36.9768ZM39.3251 29.1278H38.9578C38.8699 29.7638 38.7121 30.3842 38.4897 30.9814C38.619 30.9087 38.738 30.8178 38.844 30.7114C39.1518 30.4024 39.3251 29.9793 39.3251 29.5432V29.1278ZM19.4633 24.2135C19.4633 23.9357 19.6857 23.7099 19.965 23.7099H21.1935V27.0484H19.965C19.6883 27.0484 19.4633 26.8225 19.4633 26.5447V24.2109V24.2135ZM39.046 27.051V23.7125H40.2719C40.5486 23.7125 40.7736 23.9358 40.7736 24.2161V26.5499C40.771 26.8251 40.5486 27.0536 40.2719 27.0536H39.046V27.051ZM36.9305 21.1476C36.752 19.6185 36.0667 18.1856 34.9728 17.0874C33.6874 15.7972 31.9469 15.0755 30.134 15.0755C28.3184 15.0755 26.5779 15.7972 25.2952 17.0874C24.2503 18.1362 23.5779 19.4913 23.3658 20.9399C25.0184 20.3532 26.2081 19.2603 27.4236 17.1082C27.6356 16.7292 28.0572 16.5267 28.4839 16.5942C28.9107 16.6617 29.2494 16.9862 29.3374 17.4094C29.3374 17.4094 29.684 18.8683 31.4219 19.9483C32.596 20.6778 34.3443 21.2099 36.9331 21.1476L36.9305 21.1476Z" fill="#026735"/>
</svg>
