<svg width="80" height="80" viewBox="0 0 80 80" fill="none" xmlns="http://www.w3.org/2000/svg">
<rect width="80" height="80" rx="14" fill="#F3F3F3"/>
<path d="M34.2499 55.5192C38.9086 55.5227 43.4384 53.9902 47.138 51.159L49.4895 53.6669L48.7317 54.4247C48.6462 54.5083 48.5786 54.6086 48.5333 54.7193C48.5333 54.7554 48.5333 54.7975 48.5333 54.8336C48.51 54.9057 48.4959 54.9805 48.4912 55.0561C48.4883 55.1002 48.4883 55.1444 48.4912 55.1884C48.4958 55.2582 48.51 55.327 48.5333 55.3929C48.5571 55.4363 48.5832 55.4785 48.6114 55.5192C48.6375 55.578 48.672 55.6327 48.7137 55.6816L57.7347 65.304C58.2377 65.8365 58.8434 66.2614 59.5154 66.5529C60.1873 66.8444 60.9114 66.9965 61.6438 67C62.7187 67.0007 63.7689 66.6782 64.658 66.0743C65.5471 65.4704 66.2341 64.6131 66.6297 63.6137C67.0253 62.6144 67.1113 61.5191 66.8763 60.4703C66.6414 59.4215 66.0965 58.4675 65.3124 57.7324L55.69 48.7113C55.6376 48.6697 55.5812 48.6335 55.5216 48.6031C55.4828 48.5768 55.4427 48.5527 55.4013 48.5309C55.3299 48.5049 55.2547 48.4906 55.1788 48.4888C55.1408 48.4854 55.1025 48.4854 55.0645 48.4888C54.9804 48.4926 54.8973 48.5088 54.8179 48.5369H54.7277C54.617 48.5823 54.5167 48.6498 54.433 48.7354L53.6692 49.4992L51.1614 47.1477C54.0689 43.3334 55.6012 38.648 55.5095 33.8528C55.4177 29.0576 53.7072 24.4343 50.6559 20.7341C47.6046 17.0338 43.3917 14.474 38.7018 13.4706C34.0119 12.4671 29.1204 13.0789 24.8221 15.2067C20.5239 17.3344 17.0713 20.853 15.0254 25.1908C12.9796 29.5287 12.4606 34.4308 13.5527 39.1009C14.6449 43.771 17.2841 47.9346 21.0415 50.9152C24.799 53.8958 29.4539 55.5184 34.2499 55.5192ZM54.6976 51.0147L55.0946 50.6178L64.1156 59.0374C64.6358 59.5231 64.9983 60.1537 65.156 60.8477C65.3138 61.5417 65.2596 62.2671 65.0004 62.9299C64.7412 63.5927 64.2891 64.1624 63.7024 64.5654C63.1158 64.9683 62.4217 65.1858 61.71 65.1898C61.2236 65.1924 60.7419 65.0937 60.2957 64.9001C59.8494 64.7065 59.4484 64.4222 59.118 64.0652L50.6983 55.0441L54.6976 51.0147ZM52.3943 50.7621L50.7705 52.3859L48.87 50.3592L50.3375 48.8617L52.3943 50.7621ZM34.2499 14.7862C38.1007 14.785 41.8654 15.9259 45.0677 18.0645C48.27 20.2032 50.7662 23.2435 52.2403 26.801C53.7145 30.3584 54.1006 34.2732 53.3496 38.05C52.5986 41.8269 50.7444 45.2962 48.0215 48.0191C45.2986 50.7421 41.8293 52.5963 38.0524 53.3473C34.2755 54.0982 30.3608 53.7122 26.8033 52.238C23.2459 50.7638 20.2055 48.2677 18.0669 45.0654C15.9282 41.8631 14.7873 38.0984 14.7885 34.2476C14.7949 29.0881 16.8473 24.1417 20.4957 20.4933C24.144 16.845 29.0904 14.7926 34.2499 14.7862Z" fill="#3AA04A"/>
</svg>
