<svg width="70" height="61" viewBox="0 0 70 61" fill="none" xmlns="http://www.w3.org/2000/svg">
<path d="M36.6498 14.8475L36.7423 14.8751L36.7463 14.8705C37.1866 14.9505 37.6234 14.6869 37.7528 14.2502C38.9327 10.2857 42.6498 7.5162 46.7911 7.5162C47.2808 7.5162 47.678 7.11905 47.678 6.62939C47.678 6.13971 47.2808 5.74258 46.7911 5.74258C41.7024 5.74258 37.4262 9.13067 36.0532 13.7447C35.9132 14.2142 36.1806 14.7076 36.6498 14.8475Z" fill="#1A5C4B" stroke="#F9FFF9" stroke-width="0.3"/>
<path d="M57.1054 42.7326H52.6847C52.2778 42.7326 51.9478 42.4026 51.9478 41.9958C51.9478 41.589 52.2778 41.259 52.6847 41.259H57.1054C63.1992 41.259 68.1574 36.3008 68.1574 30.2069C68.1574 24.1131 63.1992 19.1549 57.1054 19.1549H56.9991C56.7854 19.1549 56.5823 19.0623 56.4423 18.9007C56.3023 18.7391 56.2391 18.5249 56.2697 18.3134C56.3355 17.8545 56.3686 17.3934 56.3686 16.9445C56.3686 11.6632 52.0714 7.36602 46.7901 7.36602C44.7355 7.36602 42.7761 8.00809 41.1235 9.22327C40.7604 9.49011 40.2446 9.37169 40.0346 8.97223C35.3544 0.0601131 23.1301 -1.13669 16.7924 6.61607C14.1226 9.8822 13.0735 14.1309 13.9141 18.2718C14.0068 18.7292 13.6568 19.1555 13.1921 19.1555H12.8968C6.80297 19.1555 1.84477 24.1137 1.84477 30.2075C1.84477 36.3013 6.80297 41.2595 12.8968 41.2595H17.3176C17.7244 41.2595 18.0544 41.5895 18.0544 41.9963C18.0544 42.4032 17.7244 42.7332 17.3176 42.7332H12.8968C5.99028 42.7332 0.371094 37.114 0.371094 30.2075C0.371094 23.4947 5.67919 17.9981 12.3184 17.6949C11.6948 13.3988 12.8873 9.06536 15.6514 5.6835C22.4368 -2.61762 35.4405 -1.68717 40.9375 7.56918C42.6911 6.46976 44.6978 5.893 46.7899 5.893C53.1885 5.893 58.2588 11.3391 57.8151 17.7018C64.3932 18.0707 69.6308 23.5383 69.6308 30.2069C69.6308 37.114 64.0116 42.7326 57.1051 42.7326L57.1054 42.7326Z" fill="#1A5C4B"/>
<path d="M16.3324 41.5804C16.3324 51.8203 24.663 60.1507 34.9027 60.1507C45.1426 60.1507 53.473 51.8202 53.473 41.5804C53.473 31.3406 45.1426 23.0102 34.9027 23.0102C24.6628 23.0102 16.3324 31.3407 16.3324 41.5804ZM18.1064 41.5804C18.1064 32.3192 25.6414 24.7841 34.9027 24.7841C44.1639 24.7841 51.699 32.3191 51.699 41.5804C51.699 50.8417 44.1639 58.3768 34.9027 58.3768C25.6415 58.3768 18.1064 50.8418 18.1064 41.5804Z" fill="#1A5C4B" stroke="#F9FFF9" stroke-width="0.3"/>
<path d="M34.5492 48.9962C34.5492 49.3769 34.858 49.6856 35.2386 49.6856C35.6193 49.6856 35.9281 49.3773 35.9281 48.9962V34.9711C35.9281 34.5904 35.6193 34.2816 35.2386 34.2816C34.858 34.2816 34.5492 34.5904 34.5492 34.9711V48.9962Z" fill="#1A5C4B" stroke="#1A5C4B" stroke-width="0.3"/>
<path d="M35.2396 35.9481L31.4119 39.7759L35.2396 35.9481ZM35.2396 35.9481L39.0675 39.776C39.2019 39.9104 39.3789 39.9779 39.555 39.9779L35.2396 35.9481ZM30.4368 39.776C30.706 40.0452 31.1428 40.0454 31.4118 39.776L39.555 39.9779C39.7308 39.9779 39.9079 39.911 40.0425 39.7759C40.3118 39.5066 40.3118 39.0703 40.0425 38.8009L35.7271 34.4856C35.4579 34.2163 35.0212 34.2162 34.7521 34.4856C34.7521 34.4856 34.7521 34.4857 34.752 34.4857L30.4368 38.8009C30.1674 39.0703 30.1674 39.5066 30.4368 39.776Z" fill="#1A5C4B" stroke="#1A5C4B" stroke-width="0.3"/>
</svg>
