<svg width="120" height="120" viewBox="0 0 120 120" fill="none" xmlns="http://www.w3.org/2000/svg">
<path d="M59.9999 80.3518C71.24 80.3518 80.3519 71.2399 80.3519 59.9998C80.3519 48.7597 71.24 39.6478 59.9999 39.6478C48.7598 39.6478 39.6479 48.7597 39.6479 59.9998C39.6479 71.2399 48.7598 80.3518 59.9999 80.3518Z" fill="#F7D508"/>
<path d="M78.5521 60C78.4897 67.6632 73.6873 74.8056 66.4057 77.4216C62.7756 78.7213 58.8336 78.8727 55.1145 77.8551C51.3955 76.8376 48.0796 74.7004 45.6169 71.7336C40.6921 65.7744 40.1257 57.06 44.0857 50.4552C48.0457 43.8504 56.0281 40.2432 63.6217 41.796C67.8144 42.6703 71.5818 44.9528 74.2979 48.2644C77.0139 51.576 78.5151 55.7172 78.5521 60C78.5713 62.316 82.1713 62.3208 82.1521 60C82.1125 55.4517 80.6911 51.0229 78.0765 47.3011C75.4618 43.5793 71.7774 40.7403 67.5121 39.1608C58.8529 35.9712 48.6673 38.796 42.8713 45.9624C37.0753 53.1288 36.2017 63.3984 40.9753 71.3616C45.7753 79.3752 55.2721 83.5104 64.4185 81.708C74.6785 79.68 82.0801 70.3584 82.1521 60C82.1713 57.684 78.5713 57.6816 78.5521 60Z" fill="#1C211E"/>
<path d="M61.8002 31.5335V23.8535C61.8002 21.5375 58.2002 21.5327 58.2002 23.8535V31.5335C58.2002 33.8495 61.8002 33.8543 61.8002 31.5335Z" fill="#1C211E"/>
<path d="M47.3206 34.4375L43.4806 27.7919C42.3214 25.7855 39.211 27.5975 40.3606 29.6087L44.2006 36.2543C45.3598 38.2607 48.4702 36.4487 47.3206 34.4375Z" fill="#1C211E"/>
<path d="M36.2539 44.2129L29.6083 40.3729C27.5971 39.2113 25.7827 42.3217 27.7915 43.4929L34.4371 47.3329C36.4483 48.4945 38.2627 45.3841 36.2539 44.2129Z" fill="#1C211E"/>
<path d="M31.5335 58.2H23.8535C21.5375 58.2 21.5327 61.8 23.8535 61.8H31.5335C33.8495 61.8 33.8543 58.2 31.5335 58.2Z" fill="#1C211E"/>
<path d="M34.438 72.6792L27.7924 76.5192C25.786 77.6784 27.598 80.7888 29.6092 79.6392L36.2548 75.7992C38.2612 74.64 36.4492 71.5296 34.438 72.6792Z" fill="#1C211E"/>
<path d="M44.2131 83.7457L40.3731 90.3913C39.2115 92.4025 42.3219 94.2169 43.4931 92.2081L47.3331 85.5625C48.4947 83.5513 45.3843 81.7369 44.2131 83.7457Z" fill="#1C211E"/>
<path d="M58.2002 88.4664V96.1464C58.2002 98.4624 61.8002 98.4672 61.8002 96.1464V88.4664C61.8002 86.1504 58.2002 86.1456 58.2002 88.4664Z" fill="#1C211E"/>
<path d="M72.6792 85.5624L76.5192 92.208C77.6784 94.2144 80.7888 92.4024 79.6392 90.3912L75.7992 83.7456C74.64 81.7392 71.5296 83.5512 72.6792 85.5624Z" fill="#1C211E"/>
<path d="M83.7454 75.787L90.391 79.627C92.4022 80.7886 94.2166 77.6782 92.2078 76.507L85.5622 72.667C83.551 71.5054 81.7366 74.6158 83.7454 75.787Z" fill="#1C211E"/>
<path d="M88.4659 61.8H96.1459C98.4619 61.8 98.4667 58.2 96.1459 58.2H88.4659C86.1499 58.2 86.1451 61.8 88.4659 61.8Z" fill="#1C211E"/>
<path d="M85.5618 47.3207L92.2074 43.4807C94.2138 42.3215 92.4018 39.2111 90.3906 40.3607L83.745 44.2007C81.7386 45.3599 83.5506 48.4703 85.5618 47.3207Z" fill="#1C211E"/>
<path d="M75.787 36.2544L79.627 29.6088C80.7886 27.5976 77.6782 25.7832 76.507 27.792L72.667 34.4376C71.5054 36.4488 74.6158 38.2632 75.787 36.2544Z" fill="#1C211E"/>
</svg>
