<svg width="87" height="149" viewBox="0 0 87 149" fill="none" xmlns="http://www.w3.org/2000/svg">
<path d="M20.4223 24.1203C19.471 22.8736 18.4095 21.6775 17.2588 20.5483C17.1256 19.3188 17.0815 18.0722 17.1708 16.8427C17.5462 11.7721 19.6263 6.86951 23.2093 2.60742C26.9047 6.86951 29.0497 11.7883 29.4483 16.8761C29.5364 18.1056 29.5143 19.336 29.3822 20.5655C28.1875 21.6775 27.1029 22.8392 26.1295 24.0697C24.9799 25.5177 24.0065 27.0507 23.2093 28.6343C22.4572 27.0679 21.5278 25.5521 20.4444 24.1031L20.4223 24.1203Z" fill="white" fill-opacity="0.5"/>
<path d="M27.2867 38.9289C27.1546 39.0979 27.0434 39.2659 26.9333 39.4349C26.8441 36.47 26.07 33.5386 24.6331 30.7761C25.3851 29.2259 26.2913 27.7101 27.3759 26.2782C30.6496 21.9989 35.5166 18.5625 41.357 16.39C41.9329 21.0386 41.0696 25.7217 38.8574 30.0678C34.0785 32.2079 30.0968 35.2568 27.3088 38.9289H27.2867Z" fill="white" fill-opacity="0.5"/>
<path d="M27.1068 68.9137C26.9736 69.0816 26.8635 69.2506 26.7523 69.4186C26.6642 66.4537 25.8901 63.5233 24.452 60.7598C25.2041 59.2106 26.1103 57.6938 27.1949 56.262C30.4686 51.9837 35.3355 48.5473 41.1759 46.3738C41.7518 51.0234 40.8885 55.7064 38.6764 60.0525C33.8986 62.2089 29.9158 65.2577 27.1288 68.9137H27.1068Z" fill="white" fill-opacity="0.5"/>
<path d="M27.1068 83.8712C26.9736 84.0401 26.8635 84.2081 26.7523 84.3771C26.6642 81.4123 25.8901 78.4808 24.452 75.7183C25.2041 74.1681 26.1103 72.6523 27.1949 71.2205C30.4686 66.9422 35.3355 63.5048 41.1759 61.3323C41.7518 65.9819 40.8885 70.6649 38.6764 75.011C33.8986 77.1502 29.9158 80.2162 27.1288 83.8712H27.1068Z" fill="white" fill-opacity="0.5"/>
<path d="M27.1068 99.4038C26.9736 99.5718 26.8635 99.7408 26.7523 99.9088C26.6642 96.9439 25.8901 94.0125 24.452 91.25C25.2041 89.7008 26.1103 88.184 27.1949 86.7522C30.4686 82.4739 35.3355 79.0365 41.1759 76.8639C41.7518 81.5136 40.8885 86.1966 38.6764 90.5427C33.8986 92.6818 29.9158 95.7307 27.1288 99.4038H27.1068Z" fill="white" fill-opacity="0.5"/>
<path d="M26.8911 114.192C26.7578 114.361 26.6477 114.529 26.5365 114.698C26.4484 111.733 25.6743 108.802 24.2363 106.039C24.9883 104.489 25.8957 102.973 26.9792 101.541C30.254 97.2619 35.1209 93.8255 40.9613 91.652C41.5361 96.3016 40.6739 100.985 38.4618 105.331C33.6828 107.471 29.7 110.537 26.9131 114.192H26.8911Z" fill="white" fill-opacity="0.5"/>
<path d="M33.9696 23.3126C34.2802 23.3126 34.5235 23.1102 34.5015 22.8744V7.34288C34.5235 7.1233 34.3022 6.92091 34.0148 6.90472C33.7274 6.88752 33.4609 7.05651 33.4389 7.27508C33.4389 7.27508 33.4389 7.30848 33.4389 7.34288V22.8744C33.4389 23.1102 33.6602 23.3126 33.9696 23.3126Z" fill="white" fill-opacity="0.5"/>
<path d="M38.5426 22.3696C38.852 22.3524 39.0954 22.1672 39.0734 21.9315V12.5654C39.0954 12.3458 38.874 12.1434 38.5867 12.1272C38.2993 12.11 38.0339 12.279 38.0119 12.4976C38.0119 12.531 38.0119 12.5654 38.0119 12.5654V21.9315C38.0119 22.1672 38.2321 22.3524 38.5426 22.3696Z" fill="white" fill-opacity="0.5"/>
<path d="M35.9111 70.2602C36.1092 70.2602 36.2865 70.1762 36.3746 70.0416L47.0379 53.7855C47.1932 53.566 47.082 53.314 46.8386 53.1794C46.5953 53.061 46.2859 53.1288 46.1317 53.314L46.1086 53.3474L35.4464 69.6035C35.2911 69.8058 35.4024 70.075 35.6457 70.1934C35.7118 70.2268 35.7998 70.244 35.8879 70.244L35.9111 70.2602Z" fill="white" fill-opacity="0.5"/>
<path d="M36.0689 99.3705C36.2682 99.3705 36.4455 99.2855 36.5336 99.1509L47.1969 82.8948C47.351 82.6925 47.2409 82.4233 46.9976 82.3059C46.7542 82.1875 46.4448 82.2553 46.2895 82.4405L46.2675 82.4739L35.6042 98.7299C35.4501 98.9323 35.5602 99.2015 35.8035 99.3199C35.8696 99.3533 35.9588 99.3705 36.0469 99.3705H36.0689Z" fill="white" fill-opacity="0.5"/>
<path d="M36.2726 84.9307C36.4719 84.9307 36.648 84.8468 36.7373 84.7122L47.4006 68.4723C47.5547 68.2537 47.4446 68.0008 47.2013 67.8662C46.9579 67.7478 46.6485 67.8156 46.4932 68.0008L46.4712 68.0342L35.8079 84.2902C35.6526 84.4926 35.7639 84.7628 36.0072 84.8802C36.0733 84.9136 36.1613 84.9307 36.2506 84.9307H36.2726Z" fill="white" fill-opacity="0.5"/>
<path d="M35.9111 54.2231C36.1092 54.2231 36.2865 54.1391 36.3746 53.9873L47.0379 37.7312C47.1932 37.5289 47.082 37.2587 46.8386 37.1413C46.5953 37.0229 46.2859 37.0907 46.1317 37.2759L46.1086 37.3093L35.4464 53.5653C35.2911 53.7677 35.4024 54.0379 35.6457 54.1553C35.7118 54.1887 35.7998 54.2059 35.8879 54.2059L35.9111 54.2231Z" fill="white" fill-opacity="0.5"/>
<path d="M22.9698 40.19C22.2838 40.4258 21.4877 40.4086 20.8237 40.1222C20.4031 39.4321 19.9384 38.741 19.4517 38.0843C17.0182 34.8836 13.5893 32.1708 9.47437 30.2006C6.86473 25.8373 5.80214 21.0359 6.4221 16.2517C11.8638 18.2734 16.3994 21.474 19.4517 25.467C23.6999 31.0759 25.5146 38.9767 22.9698 40.19Z" fill="white" fill-opacity="0.5"/>
<path d="M13.5213 22.4859C13.8087 22.4859 14.03 22.2845 14.03 22.0649V7.30849C14.052 7.08891 13.8307 6.90374 13.5653 6.88755C13.2779 6.87035 13.0346 7.02213 13.0126 7.2407C13.0126 7.2407 13.0126 7.2751 13.0126 7.30849V22.0649C13.0126 22.2845 13.2339 22.4859 13.5213 22.4859Z" fill="white" fill-opacity="0.5"/>
<path d="M8.67776 21.592C8.96514 21.592 9.18656 21.3897 9.18656 21.1711V12.2766C9.20858 12.0742 8.98724 11.889 8.72188 11.8556C8.43449 11.8384 8.19106 11.9902 8.16905 12.2088C8.16905 12.2088 8.16905 12.2422 8.16905 12.2766V21.1711C8.16905 21.3897 8.39037 21.592 8.67776 21.592Z" fill="white" fill-opacity="0.5"/>
<path d="M27.3325 53.9033C27.2004 54.0712 27.0891 54.2402 26.979 54.4082C26.8898 51.4434 26.1157 48.5119 24.6776 45.7494C25.4297 44.2002 26.337 42.6834 27.4217 41.2516C30.6953 36.9733 35.5623 33.5369 41.4027 31.3634C41.9774 36.013 41.1153 40.696 38.9031 45.0421C34.1242 47.1813 30.1426 50.2311 27.3545 53.9033H27.3325Z" fill="white" fill-opacity="0.5"/>
<path d="M35.9111 39.9391C36.1092 39.9391 36.2865 39.8551 36.3746 39.7205L47.0379 23.4645C47.1932 23.2621 47.082 22.9919 46.8386 22.8745C46.5953 22.7561 46.2859 22.8239 46.1317 23.0091L46.1086 23.0425L35.4464 39.2986C35.2911 39.5009 35.4024 39.7711 35.6457 39.8885C35.7118 39.9219 35.7998 39.9391 35.8879 39.9391H35.9111Z" fill="white" fill-opacity="0.5"/>
<path d="M11.5774 39.4997C11.6666 39.4997 11.7548 39.4835 11.8208 39.4491C12.0862 39.3317 12.1754 39.0615 12.0201 38.8602L1.35679 22.6041C1.2467 22.4179 0.936184 22.3178 0.692833 22.4179L0.648712 22.4351C0.383347 22.5535 0.295322 22.8227 0.449444 23.0251L11.1127 39.2811C11.202 39.4157 11.3781 39.5169 11.5774 39.5169V39.4997Z" fill="white" fill-opacity="0.5"/>
<path d="M23.196 55.3857C22.51 55.6215 21.7139 55.6043 21.0499 55.3179C20.6293 54.6268 20.1646 53.9366 19.6779 53.2799C17.2444 50.0793 13.8155 47.3664 9.70054 45.3953C7.09091 41.033 6.02832 36.2316 6.62626 31.4473C12.068 33.4691 16.6036 36.6697 19.6559 40.6616C23.9041 46.2716 25.7176 54.1724 23.174 55.3857H23.196Z" fill="white" fill-opacity="0.5"/>
<path d="M11.4461 54.5081C11.5353 54.5081 11.6234 54.4909 11.6895 54.4575C11.9548 54.3391 12.044 54.0699 11.9107 53.8676L1.24745 37.6115C1.13736 37.4263 0.8279 37.3251 0.584549 37.4263L0.540527 37.4435C0.275162 37.5609 0.18597 37.8311 0.341251 38.0325L11.0045 54.2885C11.0926 54.4241 11.2699 54.5243 11.4681 54.5243L11.4461 54.5081Z" fill="white" fill-opacity="0.5"/>
<path d="M23.0597 70.3961C22.3737 70.6319 21.5776 70.6147 20.9136 70.3283C20.4941 69.6372 20.0294 68.9471 19.5427 68.2903C17.1092 65.0887 13.6803 62.3768 9.56539 60.4057C6.9546 56.0434 5.89318 51.2248 6.48996 46.4577C11.9317 48.4795 16.4672 51.6801 19.5207 55.672C23.7677 61.282 25.5824 69.1828 23.0377 70.3961H23.0597Z" fill="white" fill-opacity="0.5"/>
<path d="M11.3406 69.2838C11.4287 69.2838 11.5168 69.2666 11.584 69.2332C11.8494 69.1148 11.9374 68.8456 11.7821 68.6433L1.12 52.3872C1.00875 52.202 0.699299 52.1008 0.455952 52.202C0.455952 52.202 0.41193 52.2182 0.388756 52.2182C0.12339 52.3366 0.0353508 52.6058 0.190628 52.8082L10.8528 69.0642C10.942 69.1988 11.1193 69.2838 11.3175 69.2838H11.3406Z" fill="white" fill-opacity="0.5"/>
<path d="M22.9471 85.1683C22.2611 85.4041 21.465 85.3879 20.801 85.1015C20.3803 84.4104 19.9156 83.7193 19.4289 83.0626C16.9955 79.8619 13.5665 77.1501 9.45162 75.1789C6.84199 70.8156 5.7794 66.0152 6.37735 61.231C11.8191 63.2517 16.3546 66.4534 19.4069 70.4453C23.6551 76.0552 25.4687 83.9561 22.9251 85.1683H22.9471Z" fill="white" fill-opacity="0.5"/>
<path d="M11.4461 84.6475C11.5353 84.6475 11.6234 84.6302 11.6895 84.5969C11.9548 84.4785 12.044 84.2093 11.9107 84.0069L1.24745 67.7509C1.13736 67.5657 0.8279 67.4645 0.584549 67.5657L0.540527 67.5829C0.275162 67.7003 0.18597 67.9694 0.341251 68.1718L11.0045 84.4279C11.0926 84.5635 11.2699 84.6637 11.4681 84.6637L11.4461 84.6475Z" fill="white" fill-opacity="0.5"/>
<path d="M23.0597 100.532C22.3737 100.768 21.5776 100.751 20.9136 100.464C20.4941 99.7741 20.0294 99.0829 19.5427 98.4262C17.1092 95.2256 13.6803 92.5138 9.56539 90.5426C6.9546 86.1793 5.89318 81.3789 6.48996 76.5947C11.9317 78.6154 16.4672 81.816 19.5207 85.809C23.7677 91.4189 25.5824 99.3187 23.0377 100.532H23.0597Z" fill="white" fill-opacity="0.5"/>
<path d="M11.2045 99.6222C11.2926 99.6222 11.3806 99.6061 11.4478 99.5717C11.7132 99.4543 11.8013 99.1841 11.6472 98.9827L0.983795 82.7267C0.872547 82.5415 0.563183 82.4403 0.319836 82.5415L0.275806 82.5577C0.0104408 82.6761 -0.0788345 82.9453 0.0764427 83.1476L10.7398 99.4037C10.8279 99.5383 11.0052 99.6222 11.2045 99.6222Z" fill="white" fill-opacity="0.5"/>
<path d="M22.7502 115.424C22.5961 115.558 22.4628 115.693 22.3527 115.845C22.2647 115.963 22.1754 116.081 22.1314 116.148C20.472 113.638 18.3259 111.33 15.7162 109.342C13.8135 107.86 11.6454 106.58 9.32199 105.518C6.71236 101.155 5.6717 96.3375 6.26964 91.5705C11.6894 93.6084 16.225 96.809 19.2993 100.785C19.8532 101.509 26.8871 110.724 22.7734 115.44L22.7502 115.424Z" fill="white" fill-opacity="0.5"/>
<path d="M22.016 111.245L20.9545 149.098H25.2688L24.1841 111.245H22.016Z" fill="white" fill-opacity="0.5"/>
<path d="M66.6706 54.8949C65.9626 53.9518 65.1665 53.0593 64.2811 52.2164C64.171 51.2905 64.149 50.3636 64.2151 49.4377C64.5025 45.63 66.0727 41.9406 68.7495 38.74C71.5156 41.9406 73.153 45.6472 73.4624 49.4711C73.5284 50.398 73.5064 51.3239 73.3951 52.2508C72.4889 53.0765 71.6697 53.969 70.9396 54.8787C70.0775 55.9735 69.3475 57.119 68.7275 58.2979C68.1527 57.119 67.4667 55.9907 66.6486 54.8949H66.6706Z" fill="white" fill-opacity="0.5"/>
<path d="M71.821 66.031C71.7329 66.1494 71.6449 66.284 71.5556 66.4185C71.4896 64.1954 70.9148 61.9885 69.8302 59.9161C70.3829 58.7545 71.069 57.608 71.8882 56.5303C74.3438 53.3125 78.016 50.7352 82.3963 49.101C82.839 52.588 82.175 56.1094 80.5155 59.3768C76.9093 60.9948 73.9231 63.2857 71.821 66.031Z" fill="white" fill-opacity="0.5"/>
<path d="M71.6853 88.5703C71.5972 88.6887 71.5091 88.8233 71.4199 88.9579C71.3538 86.7347 70.7791 84.5278 69.6944 82.4554C70.2483 81.2938 70.9332 80.1483 71.7524 79.0696C74.208 75.8518 77.8802 73.2745 82.2605 71.6413C82.7032 75.1283 82.0392 78.6487 80.3798 81.9171C76.7736 83.5341 73.7873 85.825 71.6853 88.5703Z" fill="white" fill-opacity="0.5"/>
<path d="M71.6853 99.8044C71.5972 99.9228 71.5091 100.057 71.4199 100.192C71.3538 97.9678 70.7791 95.7619 69.6944 93.6895C70.2483 92.5269 70.9332 91.3814 71.7524 90.3037C74.208 87.0859 77.8802 84.5086 82.2605 82.8744C82.7032 86.3614 82.0392 89.8818 80.3798 93.1502C76.7736 94.7672 73.7873 97.0581 71.6853 99.8044Z" fill="white" fill-opacity="0.5"/>
<path d="M71.6853 111.48C71.5972 111.597 71.5091 111.733 71.4199 111.867C71.3538 109.643 70.7791 107.436 69.6944 105.365C70.2483 104.202 70.9332 103.057 71.7524 101.979C74.208 98.7612 77.8802 96.1839 82.2605 94.5497C82.7032 98.0367 82.0392 101.557 80.3798 104.825C76.7736 106.442 73.7873 108.733 71.6853 111.48Z" fill="white" fill-opacity="0.5"/>
<path d="M71.5371 122.616C71.4478 122.734 71.3598 122.868 71.2706 123.003C71.2045 120.78 70.6297 118.573 69.5451 116.501C70.099 115.339 70.785 114.193 71.6032 113.115C74.0587 109.897 77.7309 107.32 82.1112 105.686C82.5539 109.173 81.9119 112.694 80.2305 115.962C76.6254 117.579 73.638 119.87 71.5591 122.616H71.5371Z" fill="white" fill-opacity="0.5"/>
<path d="M76.8457 54.2888C77.067 54.2888 77.2432 54.137 77.2432 53.9519V42.2777C77.2663 42.1097 77.089 41.9579 76.8897 41.9407C76.6684 41.9235 76.469 42.0591 76.447 42.2098V53.9346C76.447 54.1036 76.6243 54.2554 76.8457 54.2716V54.2888Z" fill="white" fill-opacity="0.5"/>
<path d="M80.2736 53.5834C80.4949 53.5834 80.6722 53.4326 80.6722 53.2464V46.2057C80.6943 46.0367 80.517 45.8849 80.3188 45.8687C80.0975 45.8515 79.8982 45.9861 79.8762 46.1551V53.2464C79.8762 53.4154 80.0523 53.5672 80.2736 53.5834Z" fill="white" fill-opacity="0.5"/>
<path d="M78.3014 89.5783C78.4566 89.5783 78.5887 89.5115 78.6548 89.4103L86.6633 77.1968C86.7745 77.045 86.7085 76.8436 86.5092 76.7425C86.3098 76.6575 86.0885 76.7081 85.9784 76.8436L85.9564 76.877L77.9259 89.0896C77.8146 89.2414 77.8807 89.4437 78.08 89.5449C78.1461 89.5783 78.2133 89.5783 78.2793 89.5783H78.3014Z" fill="white" fill-opacity="0.5"/>
<path d="M78.4374 111.461C78.5916 111.461 78.7248 111.395 78.7909 111.294L86.7994 99.08C86.9106 98.9282 86.8434 98.7268 86.6441 98.6256C86.468 98.5406 86.2246 98.5912 86.1134 98.7268L86.0914 98.7602L78.0608 110.973C77.9727 111.125 78.0168 111.327 78.2161 111.428C78.2601 111.461 78.3482 111.461 78.4154 111.461H78.4374Z" fill="white" fill-opacity="0.5"/>
<path d="M78.5845 100.614C78.7398 100.614 78.8719 100.546 78.9379 100.445L86.9464 88.2326C87.0577 88.0808 86.9905 87.8784 86.7923 87.7772C86.593 87.6933 86.3717 87.7438 86.2604 87.8784L78.2079 100.125C78.1198 100.277 78.1639 100.48 78.3632 100.58C78.4072 100.614 78.4964 100.614 78.5625 100.614H78.5845Z" fill="white" fill-opacity="0.5"/>
<path d="M78.3014 77.5176C78.4566 77.5176 78.5887 77.4508 78.6548 77.3496L86.6633 65.1361C86.7745 64.9843 86.7085 64.783 86.5092 64.6818C86.3098 64.5968 86.0885 64.6474 85.9784 64.783L85.9564 64.8163L77.9259 77.0299C77.8146 77.1807 77.8807 77.383 78.08 77.4842C78.1461 77.5176 78.2133 77.5176 78.2793 77.5176H78.3014Z" fill="white" fill-opacity="0.5"/>
<path d="M68.5678 66.9739C68.0591 67.1591 67.4623 67.1418 66.9536 66.9233C66.643 66.4011 66.2896 65.879 65.913 65.3903C64.0774 62.981 61.4887 60.943 58.4132 59.4606C56.4664 56.176 55.6703 52.5706 56.113 48.9824C60.2059 50.4983 63.6127 52.9076 65.913 55.9058C69.0985 60.1173 70.4706 66.0642 68.5678 66.9739Z" fill="white" fill-opacity="0.5"/>
<path d="M61.4876 53.6631C61.709 53.6631 61.8863 53.5113 61.8643 53.3433V42.2591C61.8863 42.1073 61.709 41.9555 61.5097 41.9555C61.3103 41.9383 61.1122 42.0739 61.1122 42.2247V53.3433C61.1122 53.5113 61.2663 53.6459 61.4876 53.6631Z" fill="white" fill-opacity="0.5"/>
<path d="M57.8336 52.9927C58.0549 52.9927 58.2311 52.8409 58.209 52.6719V45.9843C58.2311 45.8164 58.0549 45.6808 57.8556 45.6808C57.6563 45.6646 57.457 45.7992 57.457 45.951V52.6892C57.457 52.8571 57.6123 52.9927 57.8336 53.0089V52.9927Z" fill="white" fill-opacity="0.5"/>
<path d="M71.8663 77.2838C71.7782 77.4012 71.6901 77.5368 71.6009 77.6714C71.5349 75.4473 70.9601 73.2403 69.8755 71.169C70.4282 70.0063 71.1142 68.8609 71.9335 67.7832C74.389 64.5654 78.0613 61.9881 82.4416 60.3539C82.8842 63.8409 82.2202 67.3612 80.5608 70.6296C76.9546 72.2466 73.9684 74.5376 71.8895 77.2838H71.8663Z" fill="white" fill-opacity="0.5"/>
<path d="M78.3014 66.7888C78.4566 66.7888 78.5887 66.721 78.6548 66.6209L86.6633 54.4073C86.7745 54.2555 86.7085 54.0532 86.5092 53.952C86.3098 53.868 86.0885 53.9186 85.9784 54.0532L85.9564 54.0876L77.9259 66.3001C77.8146 66.4519 77.8807 66.6542 78.08 66.7554C78.1461 66.7888 78.2133 66.7888 78.2793 66.7888H78.3014Z" fill="white" fill-opacity="0.5"/>
<path d="M60.033 66.4538C60.0991 66.4538 60.1663 66.4366 60.2324 66.4032C60.4317 66.302 60.4977 66.1169 60.3865 65.9489L52.356 53.7353C52.2679 53.5836 52.0465 53.5168 51.8472 53.5836C51.8472 53.5836 51.8252 53.5836 51.8032 53.6008C51.6039 53.7019 51.5378 53.8871 51.6491 54.0551L59.6564 66.2687C59.7236 66.3698 59.8557 66.4366 60.011 66.4366L60.033 66.4538Z" fill="white" fill-opacity="0.5"/>
<path d="M68.7376 78.3947C68.2289 78.5799 67.6309 78.5627 67.1222 78.3441C66.8128 77.822 66.4594 77.2989 66.0828 76.8111C64.2472 74.4018 61.6585 72.38 58.583 70.8814C56.6362 67.5958 55.8401 63.9915 56.2827 60.4033C60.3756 61.9191 63.7825 64.3284 66.0828 67.3267C69.2683 71.5382 70.6403 77.485 68.7376 78.3947Z" fill="white" fill-opacity="0.5"/>
<path d="M59.9195 77.7392C59.9867 77.7392 60.0528 77.722 60.1188 77.6886C60.3181 77.5874 60.3842 77.4023 60.2741 77.2333L52.2436 65.0207C52.1555 64.869 51.9342 64.8012 51.7349 64.869C51.7349 64.869 51.7128 64.869 51.6908 64.8852C51.4915 64.9863 51.4243 65.1715 51.5355 65.3405L59.5441 77.554C59.6101 77.6542 59.7434 77.722 59.8975 77.722L59.9195 77.7392Z" fill="white" fill-opacity="0.5"/>
<path d="M68.6589 89.6812C68.1502 89.8663 67.5522 89.8502 67.0435 89.6306C66.7341 89.1084 66.3795 88.5863 66.0041 88.0976C64.1673 85.6893 61.5798 83.6675 58.5043 82.1679C56.5575 78.8833 55.7614 75.2789 56.2029 71.6907C60.2958 73.2065 63.7027 75.6159 66.0041 78.6141C69.1896 82.8256 70.5605 88.7715 68.6589 89.6812Z" fill="white" fill-opacity="0.5"/>
<path d="M59.829 88.8559C59.8962 88.8559 59.9623 88.8397 60.0283 88.8225C60.2276 88.7213 60.2936 88.5361 60.1836 88.3681L52.1531 76.1546C52.065 76.0028 51.8436 75.936 51.6443 76.0028C51.6443 76.0028 51.6223 76.0028 51.6003 76.02C51.401 76.1212 51.3349 76.3064 51.445 76.4744L59.4535 88.6879C59.5196 88.7891 59.6529 88.8559 59.807 88.8559H59.829Z" fill="white" fill-opacity="0.5"/>
<path d="M68.5678 100.782C68.0591 100.967 67.4623 100.95 66.9536 100.731C66.643 100.209 66.2896 99.687 65.913 99.1983C64.0774 96.7889 61.4887 94.7682 58.4132 93.2686C56.4664 89.984 55.6703 86.3786 56.113 82.7904C60.2059 84.3062 63.6127 86.7156 65.913 89.7138C69.0985 93.9253 70.4706 99.8722 68.5678 100.782Z" fill="white" fill-opacity="0.5"/>
<path d="M59.9195 100.396C59.9867 100.396 60.0528 100.379 60.1188 100.362C60.3181 100.261 60.3842 100.076 60.2741 99.907L52.2436 87.6945C52.1555 87.5427 51.9342 87.4749 51.7349 87.5427C51.7349 87.5427 51.7128 87.5427 51.6908 87.5589C51.4915 87.66 51.4243 87.8452 51.5355 88.0142L59.5441 100.228C59.6101 100.328 59.7434 100.396 59.8975 100.396H59.9195Z" fill="white" fill-opacity="0.5"/>
<path d="M68.6589 112.341C68.1502 112.526 67.5522 112.509 67.0435 112.29C66.7341 111.768 66.3795 111.246 66.0041 110.757C64.1673 108.348 61.5798 106.326 58.5043 104.828C56.5575 101.543 55.7614 97.9378 56.2029 94.3496C60.2958 95.8654 63.7027 98.2747 66.0041 101.273C69.1896 105.484 70.5605 111.431 68.6589 112.341Z" fill="white" fill-opacity="0.5"/>
<path d="M59.7161 111.649C59.7822 111.649 59.8482 111.631 59.9155 111.615C60.1148 111.514 60.1808 111.329 60.0696 111.16L52.0391 98.9463C51.951 98.7956 51.7297 98.7278 51.5304 98.7956C51.5304 98.7956 51.5083 98.7956 51.4863 98.8117C51.287 98.9129 51.221 99.0981 51.331 99.2671L59.3396 111.48C59.4068 111.581 59.5388 111.649 59.6941 111.649H59.7161Z" fill="white" fill-opacity="0.5"/>
<path d="M68.412 123.542C68.3019 123.642 68.1907 123.743 68.1026 123.862C68.0365 123.946 67.9693 124.03 67.9473 124.08C66.7085 122.194 65.0712 120.459 63.1244 118.959C61.6863 117.848 60.0721 116.888 58.3026 116.095C56.3558 112.811 55.5585 109.205 56.0012 105.617C60.0721 107.15 63.4789 109.56 65.8023 112.542C66.2218 113.08 71.5095 120.021 68.412 123.558V123.542Z" fill="white" fill-opacity="0.5"/>
<path d="M67.864 120.391L67.0679 148.843H70.3195L69.5014 120.391H67.864Z" fill="white" fill-opacity="0.5"/>
</svg>
