<svg width="40" height="40" viewBox="0 0 40 40" fill="none" xmlns="http://www.w3.org/2000/svg">
<g clip-path="url(#clip0_1870_48123)">
<path fill-rule="evenodd" clip-rule="evenodd" d="M35.113 0.333496C37.8102 0.333496 40 2.52334 40 5.22053V35.4465C40 38.1437 37.8102 40.3335 35.113 40.3335H4.88703C2.18984 40.3335 0 38.1437 0 35.4465V5.22053C0 2.52334 2.18977 0.333496 4.88703 0.333496L35.113 0.333496ZM33.4749 14.0546C33.1516 12.8445 32.1986 11.8915 30.9885 11.5682C28.7949 10.9804 20 10.9804 20 10.9804C20 10.9804 11.2051 10.9804 9.01148 11.5682C7.80164 11.8915 6.84852 12.8445 6.52508 14.0546C5.9375 16.2479 5.9375 20.8243 5.9375 20.8243C5.9375 20.8243 5.9375 25.4005 6.52508 27.5937C6.84852 28.8037 7.80164 29.7569 9.01148 30.0803C11.2051 30.6679 20 30.6679 20 30.6679C20 30.6679 28.7949 30.6679 30.9885 30.0803C32.1986 29.7569 33.1516 28.8037 33.4749 27.5937C34.0625 25.4005 34.0625 20.8243 34.0625 20.8243C34.0625 20.8243 34.0625 16.2479 33.4749 14.0546ZM17.1873 25.0431V16.6054L24.4944 20.8243L17.1873 25.0431Z" fill="white"/>
</g>
<defs>
<clipPath id="clip0_1870_48123">
<rect width="40" height="40" fill="white" transform="translate(0 0.333496)"/>
</clipPath>
</defs>
</svg>
