<svg width="40" height="40" viewBox="0 0 40 40" fill="none" xmlns="http://www.w3.org/2000/svg">
<mask id="mask0_925_22143" style="mask-type:alpha" maskUnits="userSpaceOnUse" x="0" y="0" width="40" height="40">
<rect width="40" height="40" fill="#D9D9D9"/>
</mask>
<g mask="url(#mask0_925_22143)">
<path d="M15.8333 27.5L27.4999 20L15.8333 12.5V27.5ZM6.66659 33.3333C5.74992 33.3333 4.9652 33.0069 4.31242 32.3541C3.65964 31.7013 3.33325 30.9166 3.33325 30V9.99996C3.33325 9.08329 3.65964 8.29857 4.31242 7.64579C4.9652 6.99301 5.74992 6.66663 6.66659 6.66663H33.3333C34.2499 6.66663 35.0346 6.99301 35.6874 7.64579C36.3402 8.29857 36.6666 9.08329 36.6666 9.99996V30C36.6666 30.9166 36.3402 31.7013 35.6874 32.3541C35.0346 33.0069 34.2499 33.3333 33.3333 33.3333H6.66659ZM6.66659 30H33.3333V9.99996H6.66659V30Z" fill="#1C211E"/>
</g>
</svg>
