<svg width="35" height="35" viewBox="0 0 35 35" fill="none" xmlns="http://www.w3.org/2000/svg">
<path d="M1.3846 0.0769653C1.10306 0.127918 0.841305 0.256373 0.628746 0.447897C0.416187 0.63942 0.261249 0.886424 0.181338 1.16116C0.101428 1.43589 0.0997134 1.72746 0.176386 2.00311C0.253059 2.27876 0.405082 2.52757 0.615373 2.72158L31.3846 33.4908C31.5204 33.6583 31.6898 33.7953 31.8819 33.8931C32.074 33.9908 32.2846 34.0471 32.4998 34.0583C32.7151 34.0695 32.9304 34.0353 33.1316 33.958C33.3328 33.8806 33.5155 33.7619 33.6679 33.6094C33.8203 33.4569 33.9389 33.2741 34.0161 33.0728C34.0933 32.8716 34.1273 32.6563 34.116 32.441C34.1046 32.2258 34.0482 32.0153 33.9503 31.8232C33.8524 31.6312 33.7152 31.4618 33.5477 31.3262L22.1538 19.9339V2.09543C22.1538 0.149273 20.4538 -0.338419 19.1246 0.990812L11.0954 8.87543L2.77999 0.556965C2.62119 0.387826 2.4262 0.256792 2.2096 0.173669C1.993 0.0905463 1.7604 0.0574868 1.52922 0.0769653C1.48104 0.0746984 1.43278 0.0746984 1.3846 0.0769653ZM3.6923 10.9431C2.8446 10.9431 2.15383 11.6323 2.15383 12.4816V21.7123C2.15383 22.5585 2.8446 23.2508 3.6923 23.2508H8.98153L19.0769 33.1047C20.6154 34.6431 22.1538 33.8554 22.1538 31.7585V27.8154L5.27845 10.9431H3.6923Z" fill="#1A5C4B"/>
</svg>
