<svg width="156" height="66" viewBox="0 0 156 66" fill="none" xmlns="http://www.w3.org/2000/svg">
<rect y="17.0947" width="2.62188" height="31.4558" rx="1.31094" fill="#1A5C4B"/>
<rect x="5.68079" y="13.6765" width="2.62188" height="38.2934" rx="1.31094" fill="#1A5C4B"/>
<rect x="11.3616" y="10.2581" width="2.62188" height="45.1315" rx="1.31094" fill="#1A5C4B"/>
<rect x="17.0422" y="13.6765" width="2.62188" height="38.2934" rx="1.31094" fill="#1A5C4B"/>
<rect x="22.7227" y="20.5142" width="2.62188" height="24.6175" rx="1.31094" fill="#1A5C4B"/>
<rect x="28.4033" y="27.3521" width="2.62188" height="10.9411" rx="1.31094" fill="#1A5C4B"/>
<rect x="34.084" y="10.2571" width="2.62188" height="45.1315" rx="1.31094" fill="#1A5C4B"/>
<rect x="39.7648" y="6.83765" width="2.62188" height="51.9696" rx="1.31094" fill="#1A5C4B"/>
<rect x="45.4453" y="13.6765" width="2.62188" height="38.2934" rx="1.31094" fill="#1A5C4B"/>
<rect x="51.1262" width="2.62188" height="65.6459" rx="1.31094" fill="#1A5C4B"/>
<rect x="56.8068" y="6.83765" width="2.62188" height="51.9696" rx="1.31094" fill="#1A5C4B"/>
<rect x="62.4874" y="10.2571" width="2.62188" height="45.1315" rx="1.31094" fill="#1A5C4B"/>
<rect x="68.168" y="13.6765" width="2.62188" height="38.2934" rx="1.31094" fill="#1A5C4B"/>
<rect x="73.8489" y="6.83765" width="2.62188" height="51.9696" rx="1.31094" fill="#1A5C4B"/>
<rect x="79.5295" y="20.5142" width="2.62188" height="24.6175" rx="1.31094" fill="#1A5C4B"/>
<rect x="85.21" y="23.9326" width="2.62188" height="17.7793" rx="1.31094" fill="#1A5C4B"/>
<rect x="90.8907" y="17.0947" width="2.62188" height="31.4558" rx="1.31094" fill="#1A5C4B"/>
<rect x="96.3512" y="7.03296" width="3.17641" height="51.58" rx="1.58821" fill="#1A5C4B"/>
<rect x="102.252" y="20.5142" width="2.62188" height="24.6175" rx="1.31094" fill="#1A5C4B"/>
<rect x="107.933" y="23.9326" width="2.62188" height="17.7793" rx="1.31094" fill="#1A5C4B"/>
<rect x="113.614" y="27.3521" width="2.62188" height="10.9411" rx="1.31094" fill="#1A5C4B"/>
<rect x="119.645" y="7.03296" width="2.11761" height="50.017" rx="1.0588" fill="#1A5C4B"/>
<rect x="124.975" y="17.0947" width="2.62188" height="31.4558" rx="1.31094" fill="#1A5C4B"/>
<rect x="130.656" y="20.5142" width="2.62188" height="24.6175" rx="1.31094" fill="#1A5C4B"/>
<rect x="136.336" y="17.0947" width="2.62188" height="31.4558" rx="1.31094" fill="#1A5C4B"/>
<rect x="142.017" y="23.9326" width="2.62188" height="17.7793" rx="1.31094" fill="#1A5C4B"/>
<rect x="147.697" y="25.9851" width="2.62188" height="13.6764" rx="1.31094" fill="#1A5C4B"/>
<rect x="153.378" y="28.0364" width="2.62188" height="10.2573" rx="1.31094" fill="#F1F1F1"/>
</svg>
