<svg width="77" height="272" viewBox="0 0 77 272" fill="none" xmlns="http://www.w3.org/2000/svg">
<path d="M43.8208 39.9092C45.347 37.5794 47.063 35.3746 48.9714 33.2923C49.2087 31.005 49.2561 28.7151 49.1137 26.4278C48.4942 17.0211 45.1097 7.90685 39.3396 0C33.3773 7.90685 29.8478 17.0636 29.1809 26.5103C29.0385 28.8001 29.086 31.0874 29.3258 33.3772C31.2791 35.4171 33.0451 37.6219 34.6187 39.8692C36.4771 42.574 38.0507 45.4038 39.3871 48.3161C40.626 45.4038 42.1048 42.6165 43.8683 39.9092H43.8208Z" fill="white"/>
<path d="M32.7189 67.4201C32.9087 67.7126 33.0985 68.045 33.2909 68.3775C33.4333 62.8855 34.6722 57.4334 37.0101 52.3139C35.8187 49.4441 34.3399 46.6118 32.5739 43.9495C27.281 36.0002 19.3653 29.6332 9.92346 25.5961C8.96928 34.2103 10.4006 42.9096 13.9775 50.9814C21.7508 54.9786 28.1878 60.6382 32.7189 67.4201Z" fill="white"/>
<path d="M33.0115 123.102C33.2013 123.394 33.3912 123.727 33.5835 124.059C33.7259 118.567 34.9648 113.115 37.3028 107.995C36.1088 105.126 34.6326 102.296 32.8667 99.631C27.5737 91.6816 19.6581 85.3146 10.2162 81.28C9.26201 89.8942 10.6932 98.5911 14.2701 106.665C22.0434 110.66 28.4804 116.32 33.0115 123.102Z" fill="white"/>
<path d="M33.0115 150.854C33.2013 151.147 33.3912 151.479 33.5835 151.812C33.7259 146.317 34.9648 140.868 37.3028 135.748C36.1088 132.876 34.6326 130.046 32.8667 127.384C27.5737 119.435 19.6581 113.068 10.2162 109.03C9.26201 117.645 10.6932 126.341 14.2701 134.416C22.0434 138.41 28.4804 144.07 33.0115 150.854Z" fill="white"/>
<path d="M33.0115 179.697C33.2013 179.987 33.3912 180.322 33.5835 180.655C33.7259 175.16 34.9648 169.708 37.3028 164.591C36.1088 161.719 34.6326 158.889 32.8667 156.227C27.5737 148.277 19.6581 141.91 10.2162 137.873C9.26201 146.488 10.6932 155.184 14.2701 163.259C22.0434 167.253 28.4804 172.913 33.0115 179.697Z" fill="white"/>
<path d="M33.3309 207.21C33.5233 207.5 33.7131 207.832 33.9054 208.165C34.0478 202.673 35.2867 197.221 37.6247 192.101C36.4307 189.231 34.952 186.401 33.1885 183.737C27.8955 175.787 19.9799 169.42 10.538 165.386C9.58381 174 10.9676 182.697 14.592 190.771C22.3628 194.766 28.8023 200.425 33.2835 207.21H33.3309Z" fill="white"/>
<path d="M21.888 38.412C21.4109 38.412 21.0312 38.0371 21.0312 37.5796V8.7395C20.9813 8.32453 21.3635 7.94955 21.7931 7.90705C22.2702 7.86456 22.6999 8.19952 22.7473 8.57199V37.5371C22.7473 37.9546 22.3651 38.3295 21.888 38.3695V38.412Z" fill="white"/>
<path d="M14.499 36.6693C14.0219 36.6693 13.6397 36.2968 13.6397 35.8369V18.4433C13.5923 18.0258 13.9744 17.6509 14.4015 17.6109C14.8786 17.5684 15.3083 17.9008 15.3557 18.3183V35.8369C15.3557 36.2543 14.9761 36.6293 14.499 36.6693Z" fill="white"/>
<path d="M18.7502 125.592C18.4155 125.592 18.1308 125.427 17.9884 125.177L0.725776 95.0043C0.485982 94.6293 0.628406 94.1319 1.05804 93.8819C1.48767 93.6719 1.96474 93.7969 2.20203 94.1319L2.24948 94.2144L19.5596 124.384C19.7994 124.759 19.657 125.259 19.2273 125.509C19.085 125.592 18.9401 125.592 18.7977 125.592H18.7502Z" fill="white"/>
<path d="M18.4569 179.652C18.1247 179.652 17.8375 179.487 17.6951 179.237L0.43244 149.065C0.192647 148.69 0.337548 148.192 0.767178 147.942C1.14685 147.732 1.67138 147.857 1.91117 148.192L1.95863 148.275L19.2687 178.445C19.4586 178.82 19.3636 179.32 18.934 179.57C18.8391 179.652 18.6493 179.652 18.5045 179.652H18.4569Z" fill="white"/>
<path d="M18.1399 152.855C17.8052 152.855 17.5205 152.687 17.3781 152.437L0.115435 122.267C-0.124358 121.892 0.0204679 121.392 0.4476 121.142C0.87723 120.935 1.35438 121.06 1.59417 121.392L18.9517 151.647C19.1416 152.022 19.0466 152.522 18.617 152.77C18.5221 152.855 18.3297 152.855 18.1874 152.855H18.1399Z" fill="white"/>
<path d="M18.7502 95.7968C18.4155 95.7968 18.1308 95.6319 17.9884 95.3819L0.725776 65.2094C0.485982 64.8344 0.628406 64.3369 1.05804 64.087C1.48767 63.877 1.96474 64.002 2.20203 64.3369L2.24948 64.4194L19.5596 94.592C19.7994 94.9644 19.657 95.4644 19.2273 95.7144C19.085 95.7969 18.9401 95.7968 18.7977 95.7968H18.7502Z" fill="white"/>
<path d="M39.7312 69.7495C40.8278 70.2069 42.1142 70.1644 43.2108 69.6244C43.8802 68.3345 44.6421 67.0447 45.4539 65.8373C49.4105 59.8853 54.9906 54.8507 61.6199 51.1885C65.8163 43.0741 67.5323 34.1674 66.5782 25.3031C57.7558 29.0478 50.4121 34.9998 45.4539 42.4067C38.5873 52.8108 35.6298 67.5021 39.7312 69.7495Z" fill="white"/>
<path d="M54.9928 36.8663C54.5157 36.8663 54.1335 36.4913 54.181 36.0763V8.69358C54.1335 8.31861 54.5157 7.94367 54.9454 7.94367C55.375 7.90118 55.8022 8.23614 55.8022 8.60861V36.0763C55.8022 36.4913 55.4699 36.8238 54.9928 36.8663Z" fill="white"/>
<path d="M62.8692 35.2101C62.3921 35.2101 62.0125 34.8352 62.06 34.4177V17.8966C62.0125 17.4816 62.3921 17.1466 62.8218 17.1466C63.2514 17.1066 63.6811 17.4391 63.6811 17.8141V34.4602C63.6811 34.8752 63.3463 35.2102 62.8692 35.2502V35.2101Z" fill="white"/>
<path d="M32.6213 95.2193C32.8111 95.5093 33.001 95.8443 33.1933 96.1768C33.3357 90.6822 34.5746 85.2302 36.9126 80.1131C35.7211 77.2408 34.2424 74.411 32.4764 71.7488C27.1834 63.7994 19.2678 57.4324 9.82589 53.3953C8.87171 62.0096 10.303 70.7063 13.8799 78.7807C21.6532 82.7754 28.0901 88.4349 32.5713 95.2193H32.6213Z" fill="white"/>
<path d="M18.7502 69.2923C18.4155 69.2923 18.1308 69.1248 17.9884 68.8773L0.725776 38.7048C0.485982 38.3298 0.628406 37.8299 1.05804 37.5799C1.48767 37.3724 1.96474 37.4974 2.20203 37.8299L2.24948 37.9149L19.5596 68.0849C19.7994 68.4598 19.657 68.9598 19.2273 69.2098C19.085 69.2923 18.9401 69.2923 18.7977 69.2923H18.7502Z" fill="white"/>
<path d="M58.1283 68.4647C57.9859 68.4647 57.841 68.4222 57.6987 68.3397C57.269 68.0897 57.1267 67.6322 57.3665 67.2173L74.6765 37.0447C74.8663 36.6698 75.3435 36.5048 75.7732 36.6698C75.7732 36.6698 75.8206 36.6698 75.8681 36.7123C76.2977 36.9622 76.44 37.4197 76.2002 37.8347L58.9401 68.0072C58.7953 68.2572 58.5105 68.4222 58.1758 68.4222L58.1283 68.4647Z" fill="white"/>
<path d="M39.3654 97.9637C40.4619 98.4212 41.7508 98.3786 42.8474 97.8387C43.5143 96.5488 44.2761 95.2564 45.0879 94.0515C49.0445 88.0995 54.6246 83.1049 61.2539 79.4027C65.4503 71.2859 67.1664 62.3816 66.2122 53.5173C57.3898 57.262 50.0461 63.214 45.0879 70.6209C38.2213 81.0251 35.2639 95.7164 39.3654 97.9637Z" fill="white"/>
<path d="M58.3731 96.3443C58.2282 96.3443 58.0858 96.3018 57.9434 96.2193C57.5138 95.9693 57.3714 95.5119 57.6087 95.0944L74.9188 64.9244C75.1086 64.5494 75.5857 64.3819 76.0153 64.5494C76.0153 64.5494 76.0628 64.5494 76.1102 64.5894C76.5399 64.8394 76.6848 65.2969 76.445 65.7143L59.1823 95.8868C59.0399 96.1343 58.7527 96.3018 58.4205 96.3018L58.3731 96.3443Z" fill="white"/>
<path d="M39.535 125.846C40.6315 126.303 41.9204 126.263 43.0169 125.721C43.6838 124.431 44.4482 123.141 45.2575 121.934C49.2166 115.984 54.7943 110.99 61.4236 107.285C65.62 99.1706 67.336 90.2663 66.3843 81.402C57.5619 85.1467 50.2183 91.0987 45.2575 98.5056C38.391 108.91 35.436 123.599 39.535 125.846Z" fill="white"/>
<path d="M58.5681 123.807C58.4233 123.807 58.2809 123.767 58.1385 123.725C57.7089 123.475 57.5665 123.017 57.8038 122.602L75.1139 92.4296C75.3037 92.0546 75.7809 91.8896 76.2105 92.0546C76.2105 92.0546 76.2579 92.0546 76.3054 92.0971C76.735 92.3471 76.8773 92.8046 76.6401 93.2196L59.3775 123.392C59.2351 123.642 58.9478 123.807 58.6156 123.807H58.5681Z" fill="white"/>
<path d="M39.7312 153.269C40.8278 153.727 42.1142 153.684 43.2108 153.144C43.8802 151.854 44.6421 150.564 45.4539 149.357C49.4105 143.405 54.9906 138.413 61.6199 134.708C65.8163 126.594 67.5323 117.687 66.5782 108.823C57.7558 112.568 50.4121 118.52 45.4539 125.926C38.5873 136.331 35.6298 151.022 39.7312 153.269Z" fill="white"/>
<path d="M58.3731 152.315C58.2282 152.315 58.0858 152.273 57.9434 152.233C57.5138 151.983 57.3714 151.525 57.6087 151.108L74.9188 120.938C75.1086 120.563 75.5857 120.395 76.0153 120.563C76.0153 120.563 76.0628 120.563 76.1102 120.603C76.5399 120.853 76.6848 121.31 76.445 121.728L59.1823 151.9C59.0399 152.148 58.7527 152.315 58.4205 152.315H58.3731Z" fill="white"/>
<path d="M39.535 181.825C40.6315 182.283 41.9204 182.24 43.0169 181.7C43.6838 180.41 44.4482 179.12 45.2575 177.913C49.2166 171.961 54.7943 166.966 61.4236 163.264C65.62 155.15 67.336 146.243 66.3843 137.379C57.5619 141.124 50.2183 147.076 45.2575 154.482C38.391 164.887 35.436 179.578 39.535 181.825Z" fill="white"/>
<path d="M58.8114 180.115C58.669 180.115 58.5266 180.072 58.3817 180.032C57.9521 179.782 57.8097 179.325 58.0495 178.907L75.3596 148.735C75.5494 148.362 76.0265 148.195 76.4561 148.362C76.4561 148.362 76.5036 148.362 76.551 148.402C76.9807 148.652 77.1231 149.11 76.8858 149.527L59.6231 179.697C59.4782 179.947 59.1935 180.115 58.8588 180.115H58.8114Z" fill="white"/>
<path d="M40.0672 209.496C40.3045 209.744 40.5442 209.994 40.7341 210.286C40.8764 210.494 41.0213 210.701 41.0688 210.826C43.739 206.166 47.2684 201.879 51.4648 198.175C54.5647 195.43 58.0441 193.057 61.8584 191.1C66.0547 182.986 67.7733 174.079 66.8191 165.215C58.0442 169.002 50.7005 174.954 45.6923 182.321C44.7881 183.651 33.3904 200.797 40.0672 209.536V209.496Z" fill="white"/>
<path d="M41.2483 201.711L42.9644 272H35.9554L37.7188 201.711H41.2483Z" fill="white"/>
</svg>
