<svg width="24" height="25" viewBox="0 0 24 25" fill="none" xmlns="http://www.w3.org/2000/svg">
<path d="M21.3096 23.6139V24.0139H21.7096H23.2531C23.4841 24.0139 23.6 24.1628 23.6 24.307C23.6 24.4514 23.4841 24.6002 23.2531 24.6002H0.746886C0.51591 24.6002 0.4 24.4513 0.4 24.307C0.4 24.1628 0.515896 24.0139 0.746886 24.0139H2.29048H2.69048V23.6139V19.1547C2.69048 19.0103 2.80638 18.8615 3.03733 18.8615C3.26832 18.8615 3.38423 19.0104 3.38423 19.1547V23.6139V24.0139H3.78423H5.27803H5.67803V23.6139V21.2341C5.67803 21.0898 5.79396 20.9409 6.02489 20.9409C6.25586 20.9409 6.37179 21.0898 6.37179 21.2341V23.6139V24.0139H6.77179H8.26554H8.66554V23.6139V15.2268C8.66554 15.0826 8.78148 14.9337 9.01244 14.9337C9.24341 14.9337 9.35935 15.0826 9.35935 15.2268V23.6139V24.0139H9.75935H11.2531H11.6531V23.6139V19.3857C11.6531 19.2414 11.769 19.0925 12 19.0925C12.231 19.0925 12.3469 19.2414 12.3469 19.3857V23.6139V24.0139H12.7469H14.2407H14.6407V23.6139V17.5373C14.6407 17.393 14.7566 17.2442 14.9876 17.2442C15.2185 17.2442 15.3345 17.393 15.3345 17.5373V23.6139V24.0139H15.7345H17.2282H17.6282V23.6139V12.6852C17.6282 12.541 17.7441 12.3921 17.9751 12.3921C18.2061 12.3921 18.322 12.541 18.322 12.6852V23.6139V24.0139H18.722H20.2158H20.6158V23.6139V15.2268C20.6158 15.0826 20.7317 14.9337 20.9627 14.9337C21.1936 14.9337 21.3096 15.0826 21.3096 15.2268V23.6139Z" fill="#1A1A1A" stroke="#292929" stroke-width="0.8"/>
<path d="M8.88402 10.9431L8.57038 10.6901L8.2565 10.9428L3.18249 15.0285C3.13663 15.063 3.07657 15.0836 2.9933 15.0836C2.93204 15.0836 2.84163 15.0483 2.78796 14.9902L2.7823 14.984L2.77642 14.9781C2.74055 14.9418 2.73042 14.9035 2.73273 14.8708C2.73501 14.8387 2.7508 14.7942 2.80419 14.7522L2.80421 14.7523L2.80862 14.7487L8.38541 10.2664L8.3855 10.2665L8.39458 10.2588C8.4822 10.1849 8.63307 10.1849 8.72069 10.2588L8.72061 10.2589L8.72916 10.2658L11.9657 12.8767L12.2881 13.1368L12.6036 12.8684L17.0849 9.05602L17.5135 8.69144L17.1011 8.30869L16.0456 7.32916C15.9888 7.26378 15.9768 7.19416 15.9958 7.12951C16.0108 7.0787 16.0655 7.01431 16.172 6.99634L16.1748 6.99585L20.4072 6.2565L20.4072 6.25652L20.4123 6.25557C20.5156 6.23641 20.6019 6.26771 20.6532 6.31528C20.7009 6.35952 20.7156 6.41233 20.7037 6.46722L20.7032 6.46968L19.8816 10.3744L19.8816 10.3744L19.8803 10.3812C19.8699 10.4339 19.8236 10.4992 19.7254 10.5241L19.7129 10.5273L19.7047 10.5298C19.7033 10.53 19.701 10.5302 19.6976 10.5305C19.6914 10.531 19.6829 10.5314 19.6704 10.5316C19.6574 10.5319 19.6435 10.5319 19.624 10.5319C19.5542 10.5319 19.5006 10.5125 19.4413 10.4574L18.1716 9.27911L17.8461 8.97701L17.5077 9.26463L12.4787 13.539L12.4703 13.5461L12.4623 13.5535C12.3864 13.624 12.2404 13.6443 12.1157 13.55L8.88402 10.9431Z" fill="#161616" stroke="#292929"/>
<path d="M9.83642 8.2862C11.695 8.2862 13.2071 6.88265 13.2071 5.1574C13.2071 3.43215 11.695 2.02853 9.83642 2.02853C7.97785 2.02853 6.46576 3.43215 6.46576 5.1574C6.46576 6.88265 7.97785 8.2862 9.83642 8.2862ZM9.83642 2.23535C11.5721 2.23535 12.9843 3.54616 12.9843 5.1574C12.9843 6.7686 11.5721 8.07939 9.83642 8.07939C8.10069 8.07939 6.68861 6.7686 6.68861 5.1574C6.68861 3.54616 8.10069 2.23535 9.83642 2.23535Z" fill="#1A1A1A" stroke="#292929" stroke-width="0.4"/>
<path d="M8.6192 3.56602H9.12486H9.58431C10.0137 3.56602 10.3692 3.86128 10.4299 4.24434H9.12486C9.06336 4.24434 9.01343 4.29062 9.01343 4.34775C9.01343 4.40488 9.06336 4.45116 9.12486 4.45116H10.4341C10.3853 4.84644 10.0231 5.15461 9.58431 5.15461H8.6192C8.57355 5.15461 8.5326 5.18037 8.51564 5.21971C8.4988 5.25905 8.50944 5.30399 8.54257 5.33309L10.5886 7.1309C10.6101 7.14982 10.6376 7.15923 10.6652 7.15923C10.6947 7.15923 10.7242 7.14838 10.7461 7.12689C10.7884 7.08544 10.7864 7.02003 10.7418 6.98075L8.89896 5.36143H9.58431C10.146 5.36143 10.6084 4.9607 10.658 4.45116H11.1284C11.1899 4.45116 11.2398 4.40488 11.2398 4.34775C11.2398 4.29062 11.1899 4.24434 11.1284 4.24434H10.6551C10.6206 3.96835 10.4646 3.72691 10.2383 3.56602H11.1284C11.1899 3.56602 11.2398 3.51971 11.2398 3.4626C11.2398 3.4055 11.1899 3.35919 11.1284 3.35919H9.58431H9.12486H8.6192C8.55764 3.35919 8.50778 3.4055 8.50778 3.4626C8.50778 3.51971 8.55764 3.56602 8.6192 3.56602Z" fill="#1A1A1A" stroke="#292929" stroke-width="0.4"/>
<path d="M9.93014 9.27009C10.1523 9.2648 10.3751 9.24407 10.5925 9.20859C10.6531 9.19867 10.6936 9.14509 10.6829 9.08883C10.6723 9.03263 10.6147 8.99488 10.5539 9.00491C10.3474 9.03864 10.1356 9.05834 9.92438 9.06338C9.86288 9.06482 9.81434 9.11228 9.81589 9.16941C9.81744 9.22556 9.86698 9.27014 9.92721 9.27014L9.93014 9.27009Z" fill="#1A1A1A" stroke="#292929" stroke-width="0.4"/>
<path d="M9.04583 9.21009C9.05232 9.21107 9.05874 9.21158 9.06506 9.21158C9.11825 9.21158 9.16535 9.17615 9.17471 9.12591C9.18524 9.0696 9.14463 9.01607 9.08407 9.00625C8.87639 8.97278 8.67011 8.92449 8.47097 8.86263C8.41246 8.84453 8.34946 8.87374 8.32996 8.92783C8.3104 8.98203 8.34193 9.0406 8.40022 9.05875C8.60999 9.12385 8.82725 9.17476 9.04583 9.21009Z" fill="#1A1A1A" stroke="#292929" stroke-width="0.4"/>
<path d="M11.4059 8.99196C11.4194 8.99196 11.4332 8.98964 11.4467 8.98476C11.6523 8.90963 11.8539 8.81918 12.0458 8.71603C12.099 8.68739 12.1171 8.62414 12.0863 8.57472C12.0554 8.52536 11.9873 8.50849 11.934 8.53708C11.7518 8.63509 11.5604 8.72091 11.365 8.79229C11.3078 8.81317 11.2796 8.87323 11.3021 8.9264C11.3194 8.96707 11.3614 8.99196 11.4059 8.99196Z" fill="#1A1A1A" stroke="#292929" stroke-width="0.4"/>
<path d="M7.64656 8.73435C7.68507 8.73435 7.72259 8.71584 7.7432 8.68262C7.77389 8.63315 7.75566 8.56991 7.70231 8.54137C7.52001 8.44382 7.34403 8.33265 7.17936 8.21088C7.13132 8.17545 7.06112 8.18265 7.02278 8.22739C6.98438 8.27207 6.99236 8.33707 7.04051 8.3727C7.21388 8.50085 7.39911 8.61788 7.59099 8.72052C7.6085 8.72993 7.62767 8.73435 7.64656 8.73435Z" fill="#1A1A1A" stroke="#292929" stroke-width="0.4"/>
<path d="M13.9378 6.41643C13.8801 6.39709 13.8161 6.4246 13.795 6.47829C13.7231 6.66166 13.6355 6.84179 13.5346 7.01349C13.5051 7.06362 13.525 7.12641 13.5791 7.15381C13.596 7.16235 13.6143 7.16641 13.6323 7.16641C13.6718 7.16641 13.71 7.14692 13.7302 7.11252C13.8365 6.93172 13.9288 6.74213 14.0044 6.54899C14.0254 6.49531 13.9956 6.43597 13.9378 6.41643Z" fill="#1A1A1A" stroke="#292929" stroke-width="0.4"/>
<path d="M12.7652 8.23476C12.9312 8.09864 13.0875 7.94978 13.23 7.79232C13.2695 7.74857 13.2634 7.68336 13.2163 7.6466C13.1692 7.60993 13.0988 7.61564 13.0593 7.65935C12.924 7.80893 12.7754 7.95045 12.6177 8.07987C12.5716 8.11767 12.5672 8.18303 12.608 8.22576C12.63 8.2489 12.6607 8.26072 12.6915 8.26072C12.7177 8.26072 12.744 8.25219 12.7652 8.23476Z" fill="#1A1A1A" stroke="#292929" stroke-width="0.4"/>
<path d="M5.46879 5.24277C5.53029 5.24277 5.58021 5.19212 5.58021 5.13499C5.58021 4.94185 5.59545 4.74768 5.62554 4.55783C5.63451 4.50132 5.5924 4.44877 5.53151 4.44049C5.47089 4.43226 5.41399 4.47119 5.40507 4.52775C5.37337 4.72752 5.35736 4.93182 5.35736 5.13499V5.14368C5.35736 5.20081 5.40723 5.24277 5.46879 5.24277Z" fill="#1A1A1A" stroke="#292929" stroke-width="0.4"/>
<path d="M5.68827 3.86152C5.7008 3.86571 5.71359 3.86773 5.72617 3.86773C5.77172 3.86773 5.81455 3.84153 5.83095 3.79942C5.90243 3.61582 5.98958 3.43561 6.09015 3.26373C6.11952 3.21354 6.09946 3.15078 6.04538 3.12351C5.9913 3.09635 5.92365 3.11483 5.89428 3.16507C5.78845 3.34603 5.69658 3.53579 5.62134 3.72913C5.60045 3.78286 5.63037 3.84213 5.68827 3.86152Z" fill="#1A1A1A" stroke="#292929" stroke-width="0.4"/>
<path d="M10.5741 1.05841C10.513 1.04821 10.4558 1.08648 10.4454 1.14278C10.435 1.19908 10.4757 1.25255 10.5364 1.2622C10.7439 1.29533 10.9503 1.34324 11.1498 1.40469C11.1614 1.40828 11.1732 1.41 11.1849 1.41C11.2316 1.41 11.2751 1.38253 11.2906 1.3391C11.31 1.28492 11.2784 1.2264 11.22 1.20837C11.01 1.14369 10.7927 1.0932 10.5741 1.05841Z" fill="#1A1A1A" stroke="#292929" stroke-width="0.4"/>
<path d="M9.02684 1.06283C8.96628 1.07287 8.92594 1.12655 8.93675 1.1828C8.94639 1.23289 8.99332 1.26804 9.04635 1.26804C9.05283 1.26804 9.05937 1.26753 9.06602 1.26642C9.27236 1.23229 9.48407 1.21219 9.69529 1.20674C9.75679 1.20517 9.80533 1.15761 9.80361 1.1005C9.80184 1.04344 9.75358 0.999054 9.68914 1.00002C9.46684 1.00572 9.24404 1.02688 9.02684 1.06283Z" fill="#1A1A1A" stroke="#292929" stroke-width="0.4"/>
<path d="M8.17336 1.28774C7.96769 1.36338 7.76628 1.45416 7.57484 1.55762C7.52171 1.58635 7.50364 1.64967 7.53462 1.69905C7.55534 1.73203 7.59268 1.75041 7.63103 1.75041C7.65009 1.75041 7.66937 1.74591 7.68704 1.73637C7.86878 1.63811 8.06011 1.55187 8.25542 1.48002C8.31266 1.45896 8.3407 1.39887 8.31798 1.3458C8.29532 1.29273 8.23049 1.26658 8.17336 1.28774Z" fill="#1A1A1A" stroke="#292929" stroke-width="0.4"/>
<path d="M11.8775 1.58253C11.8469 1.63207 11.8653 1.69528 11.9187 1.72366C12.1013 1.82091 12.2775 1.93175 12.4424 2.05313C12.4629 2.06818 12.4873 2.0755 12.5116 2.0755C12.5444 2.0755 12.577 2.06207 12.599 2.03637C12.6372 1.99158 12.6291 1.92654 12.5809 1.89105C12.4073 1.7633 12.2218 1.64666 12.0296 1.54431C11.9763 1.51578 11.908 1.53295 11.8775 1.58253Z" fill="#1A1A1A" stroke="#292929" stroke-width="0.4"/>
<path d="M14.0936 4.42022C14.1539 4.40875 14.1927 4.35409 14.1803 4.29815C14.1358 4.09688 14.0744 3.89692 13.9978 3.70388C13.9764 3.6503 13.9122 3.62289 13.8546 3.64258C13.7968 3.66237 13.7673 3.72181 13.7886 3.77538C13.8614 3.95872 13.9198 4.14856 13.9621 4.33975C13.9729 4.38865 14.0193 4.42233 14.0711 4.42233C14.0785 4.42233 14.0861 4.42171 14.0936 4.42022Z" fill="#1A1A1A" stroke="#292929" stroke-width="0.4"/>
<path d="M6.39259 2.48396C6.35309 2.52779 6.3594 2.59297 6.40661 2.62958C6.42745 2.64579 6.45282 2.65367 6.47798 2.65367C6.50989 2.65367 6.54148 2.64104 6.56353 2.61656C6.69872 2.46649 6.84694 2.32475 7.00419 2.19529C7.05023 2.15737 7.05445 2.09203 7.01361 2.04931C6.97266 2.00664 6.90235 2.00256 6.85631 2.04058C6.6908 2.17681 6.53483 2.32602 6.39259 2.48396Z" fill="#1A1A1A" stroke="#292929" stroke-width="0.4"/>
<path d="M13.0614 2.45195C13.0144 2.48881 13.0085 2.5541 13.0483 2.59768C13.1843 2.74678 13.3093 2.9066 13.4199 3.07267C13.4409 3.10428 13.4774 3.1217 13.5147 3.1217C13.5347 3.1217 13.555 3.1167 13.5732 3.10625C13.6256 3.07625 13.6418 3.01253 13.6094 2.96391C13.4931 2.78915 13.3615 2.62101 13.2184 2.46407C13.1787 2.4205 13.1084 2.41494 13.0614 2.45195Z" fill="#1A1A1A" stroke="#292929" stroke-width="0.4"/>
<path d="M6.05109 7.15571C5.99868 7.18569 5.98228 7.24935 6.01447 7.29795C6.13044 7.47304 6.26159 7.64149 6.40438 7.79864C6.42643 7.82296 6.4579 7.83541 6.48965 7.83541C6.51497 7.83541 6.54052 7.82744 6.56141 7.81108C6.60845 7.77427 6.61443 7.70906 6.57476 7.66535C6.43912 7.51603 6.31451 7.356 6.20435 7.1897C6.17211 7.14101 6.10329 7.12579 6.05109 7.15571Z" fill="#1A1A1A" stroke="#292929" stroke-width="0.4"/>
<path d="M14.2717 5.11763C14.2717 5.0605 14.2217 5.01422 14.1602 5.01422C14.0987 5.01422 14.0488 5.0605 14.0488 5.11763L14.0489 5.13496C14.0489 5.33118 14.0331 5.52813 14.0022 5.72039C13.9931 5.77691 14.0351 5.82951 14.0959 5.838C14.1015 5.83877 14.107 5.83913 14.1126 5.83913C14.1668 5.83913 14.2144 5.80231 14.2226 5.75099C14.2551 5.5486 14.2717 5.34137 14.2717 5.13403L14.2717 5.11763Z" fill="#1A1A1A" stroke="#292929" stroke-width="0.4"/>
<path d="M5.53352 5.8406C5.47323 5.85197 5.43428 5.90658 5.44653 5.96258C5.49069 6.16425 5.55169 6.36428 5.62782 6.55722C5.64433 6.59912 5.687 6.62514 5.73243 6.62514C5.74518 6.62514 5.75809 6.62309 5.77072 6.61877C5.82851 6.59912 5.85821 6.53973 5.83704 6.4861C5.76474 6.30288 5.70683 6.11288 5.66489 5.92134C5.65259 5.86539 5.59397 5.82919 5.53352 5.8406Z" fill="#1A1A1A" stroke="#292929" stroke-width="0.4"/>
</svg>
