<svg width="24" height="24" viewBox="0 0 24 24" fill="none" xmlns="http://www.w3.org/2000/svg">
<path d="M3.09673 18.6518V13.5483H2.32253V18.6518C1.87311 18.8121 1.54834 19.2379 1.54834 19.7419C1.54834 20.3821 2.06937 20.9032 2.70963 20.9032C3.34989 20.9032 3.87092 20.3821 3.87092 19.7419C3.87092 19.2379 3.54615 18.8121 3.09673 18.6518ZM2.70963 20.129C2.49595 20.129 2.32253 19.9556 2.32253 19.7419C2.32253 19.5282 2.49595 19.3548 2.70963 19.3548C2.92331 19.3548 3.09673 19.5282 3.09673 19.7419C3.09673 19.9556 2.92331 20.129 2.70963 20.129Z" fill="#232323"/>
<path d="M5.03214 13.5484C4.39188 13.5484 3.87085 14.0695 3.87085 14.7097C3.87085 15.2137 4.19562 15.6395 4.64504 15.7998V20.9033H5.41924V15.7998C5.86866 15.6395 6.19343 15.2137 6.19343 14.7097C6.19343 14.0695 5.6724 13.5484 5.03214 13.5484ZM5.03214 15.0968C4.81846 15.0968 4.64504 14.9234 4.64504 14.7097C4.64504 14.4961 4.81846 14.3226 5.03214 14.3226C5.24582 14.3226 5.41924 14.4961 5.41924 14.7097C5.41924 14.9234 5.24582 15.0968 5.03214 15.0968Z" fill="#232323"/>
<path d="M20.129 18.6518V13.5483H19.3548V18.6518C18.9053 18.8121 18.5806 19.2379 18.5806 19.7419C18.5806 20.3821 19.1016 20.9032 19.7419 20.9032C20.3821 20.9032 20.9031 20.3821 20.9031 19.7419C20.9031 19.2379 20.5784 18.8121 20.129 18.6518ZM19.7419 20.129C19.5282 20.129 19.3548 19.9556 19.3548 19.7419C19.3548 19.5282 19.5282 19.3548 19.7419 19.3548C19.9555 19.3548 20.129 19.5282 20.129 19.7419C20.129 19.9556 19.9555 20.129 19.7419 20.129Z" fill="#232323"/>
<path d="M22.0644 13.5484C21.4241 13.5484 20.9031 14.0695 20.9031 14.7097C20.9031 15.2137 21.2279 15.6395 21.6773 15.7998V20.9033H22.4515V15.7998C22.9009 15.6395 23.2257 15.2137 23.2257 14.7097C23.2257 14.0695 22.7046 13.5484 22.0644 13.5484ZM22.0644 15.0968C21.8507 15.0968 21.6773 14.9234 21.6773 14.7097C21.6773 14.4961 21.8507 14.3226 22.0644 14.3226C22.278 14.3226 22.4515 14.4961 22.4515 14.7097C22.4515 14.9234 22.278 15.0968 22.0644 15.0968Z" fill="#232323"/>
<path d="M16.6452 12.3871C16.4923 12.3871 16.3471 12.4185 16.2132 12.4723C16.0796 11.9787 15.6321 11.6129 15.0968 11.6129C14.7983 11.6129 14.5285 11.7294 14.3226 11.9148C14.1166 11.729 13.8468 11.6129 13.5484 11.6129C13.4121 11.6129 13.2828 11.6408 13.1613 11.6841V8.35316C14.7708 7.89716 15.9619 6.52452 16.2077 4.88516L17.8444 5.78555C16.8848 6.49045 16.2581 7.62387 16.2581 8.90323C16.2581 11.0377 17.9946 12.7742 20.129 12.7742C22.2635 12.7742 24 11.0377 24 8.90323C24 6.76877 22.2635 5.03226 20.129 5.03226C19.5983 5.03226 19.092 5.13987 18.631 5.33419L16.2461 4.02232C16.123 1.78452 14.2684 0 12 0C9.73161 0 7.87703 1.78452 7.75394 4.02271L5.36903 5.33419C4.908 5.13987 4.40206 5.03226 3.87097 5.03226C1.73652 5.03226 0 6.76877 0 8.90323C0 11.0377 1.73652 12.7742 3.87097 12.7742C6.00542 12.7742 7.74194 11.0377 7.74194 8.90323C7.74194 7.62348 7.11523 6.49045 6.15523 5.78516L7.79226 4.88477C8.03806 6.52568 9.22839 7.89755 10.8391 8.35355V15.4889C10.8391 15.665 10.7985 15.8415 10.7206 15.9995L10.3959 14.376C10.1632 13.2139 9.13432 12.3705 7.94942 12.3705C7.40864 12.3705 6.96813 12.811 6.96813 13.3517C6.96813 13.5461 7.02503 13.7342 7.13303 13.896L7.53135 14.4937C7.67884 14.7147 7.77406 14.971 7.80697 15.2346L8.07484 17.3764C8.11897 17.7337 8.232 18.0732 8.39884 18.3623L9.67742 20.9923V21.6774H8.90323V24H17.4194V21.6774H16.6452V21.0321L17.2645 20.2065C17.6141 19.7408 17.8065 19.1636 17.8065 18.5806V13.5484C17.8065 12.9081 17.2854 12.3871 16.6452 12.3871ZM20.129 12C19.4326 12 18.7916 11.7662 18.2741 11.3772C18.7095 10.7996 19.3947 10.4516 20.129 10.4516C20.8634 10.4516 21.5485 10.7996 21.984 11.3772C21.4665 11.7662 20.8254 12 20.129 12ZM18.9677 8.51613C18.9677 7.87587 19.4888 7.35484 20.129 7.35484C20.7693 7.35484 21.2903 7.87587 21.2903 8.51613C21.2903 9.15639 20.7693 9.67742 20.129 9.67742C19.4888 9.67742 18.9677 9.15639 18.9677 8.51613ZM20.129 5.80645C21.8365 5.80645 23.2258 7.19574 23.2258 8.90323C23.2258 9.636 22.9688 10.3095 22.5414 10.8403C22.2348 10.4586 21.8462 10.1578 21.4068 9.95845C21.8071 9.60348 22.0645 9.09174 22.0645 8.51613C22.0645 7.4489 21.1963 6.58065 20.129 6.58065C19.0618 6.58065 18.1935 7.4489 18.1935 8.51613C18.1935 9.09174 18.451 9.60348 18.8512 9.95845C18.4119 10.1582 18.0232 10.4586 17.7166 10.8403C17.2893 10.3095 17.0323 9.636 17.0323 8.90323C17.0323 7.19574 18.4215 5.80645 20.129 5.80645ZM3.87097 12C3.17458 12 2.53355 11.7662 2.016 11.3772C2.45148 10.7996 3.13665 10.4516 3.87097 10.4516C4.60529 10.4516 5.29045 10.7996 5.72594 11.3772C5.20839 11.7662 4.56735 12 3.87097 12ZM2.70968 8.51613C2.70968 7.87587 3.23071 7.35484 3.87097 7.35484C4.51123 7.35484 5.03226 7.87587 5.03226 8.51613C5.03226 9.15639 4.51123 9.67742 3.87097 9.67742C3.23071 9.67742 2.70968 9.15639 2.70968 8.51613ZM6.96774 8.90323C6.96774 9.636 6.71071 10.3095 6.28335 10.8403C5.97677 10.4586 5.58813 10.1578 5.14877 9.95845C5.54903 9.60348 5.80645 9.09174 5.80645 8.51613C5.80645 7.4489 4.93819 6.58065 3.87097 6.58065C2.80374 6.58065 1.93548 7.4489 1.93548 8.51613C1.93548 9.09174 2.1929 9.60348 2.59316 9.95845C2.15381 10.1582 1.76516 10.4586 1.45858 10.8403C1.03123 10.3095 0.774194 9.636 0.774194 8.90323C0.774194 7.19574 2.16348 5.80645 3.87097 5.80645C5.57845 5.80645 6.96774 7.19574 6.96774 8.90323ZM8.51613 4.25806C8.51613 2.3369 10.0788 0.774194 12 0.774194C13.9212 0.774194 15.4839 2.3369 15.4839 4.25806C15.4839 5.03884 15.2187 5.77045 14.7708 6.36077C14.4523 5.71858 13.9246 5.21303 13.2828 4.92194C13.68 4.56735 13.9355 4.05716 13.9355 3.48387C13.9355 2.41665 13.0672 1.54839 12 1.54839C10.9328 1.54839 10.0645 2.41665 10.0645 3.48387C10.0645 4.05716 10.32 4.56735 10.7172 4.92194C10.075 5.21303 9.54735 5.71897 9.22877 6.36116C8.7809 5.77123 8.51613 5.03961 8.51613 4.25806ZM13.1613 3.48387C13.1613 4.12413 12.6403 4.64516 12 4.64516C11.3597 4.64516 10.8387 4.12413 10.8387 3.48387C10.8387 2.84361 11.3597 2.32258 12 2.32258C12.6403 2.32258 13.1613 2.84361 13.1613 3.48387ZM9.81755 6.9689C10.1419 6.048 11.0044 5.41935 12 5.41935C12.9948 5.41935 13.8573 6.048 14.1825 6.96813C13.8434 7.24258 13.4524 7.45665 13.0219 7.58864C12.8265 7.22129 12.4444 6.96774 12 6.96774C11.5556 6.96774 11.1735 7.22129 10.9785 7.58864C10.5476 7.45665 10.1566 7.24297 9.81755 6.9689ZM16.6452 23.2258H9.67742V22.4516H16.6452V23.2258ZM17.0323 18.5806C17.0323 18.9968 16.8948 19.4094 16.6452 19.7419L15.871 20.7743V21.6774H10.4516V20.8142L9.08284 18.0012C8.9551 17.7786 8.87458 17.5366 8.84284 17.2815L8.57497 15.1394C8.52736 14.7573 8.38955 14.3857 8.17548 14.0652L7.77677 13.4671C7.75394 13.433 7.74194 13.3932 7.74194 13.3517C7.74194 13.2375 7.83484 13.145 7.94903 13.145C8.76619 13.145 9.47574 13.7268 9.63639 14.5281L10.1342 17.016H11.0779L11.4085 16.3545C11.5421 16.0874 11.6129 15.7877 11.6129 15.4893V8.12903C11.6129 7.91535 11.7863 7.74194 12 7.74194C12.2137 7.74194 12.3871 7.91535 12.3871 8.12903V12.7742V14.3226H13.1613V12.7742C13.1613 12.5605 13.3347 12.3871 13.5484 12.3871C13.7621 12.3871 13.9355 12.5605 13.9355 12.7742V14.3226H14.7097V12.7742C14.7097 12.5605 14.8831 12.3871 15.0968 12.3871C15.3105 12.3871 15.4839 12.5605 15.4839 12.7742V13.5484V14.3226H16.2581V13.5484C16.2581 13.3347 16.4315 13.1613 16.6452 13.1613C16.8588 13.1613 17.0323 13.3347 17.0323 13.5484V18.5806Z" fill="#232323"/>
</svg>
