<svg width="36" height="36" viewBox="0 0 36 36" fill="none" xmlns="http://www.w3.org/2000/svg">
<rect width="36" height="36" rx="18" fill="#006633"/>
<path d="M11.7345 9.02648C11.6909 8.99094 11.6284 8.99123 11.585 9.02701L4.04317 15.2542C4.01582 15.2767 4 15.3104 4 15.3459V16.5096C4 16.5752 4.05287 16.6284 4.11821 16.6284H4.89628L4.9114 23.395C4.91152 23.4604 4.96439 23.5134 5.02961 23.5134L6.02724 23.5136C6.05864 23.5136 6.08866 23.5011 6.11082 23.4789C6.13299 23.4566 6.14545 23.4264 6.14545 23.3949V15.5486H17.2219V23.3923C17.2216 23.4114 17.2257 23.4305 17.2344 23.448C17.2547 23.4889 17.2962 23.5136 17.3401 23.5136C17.3426 23.5136 17.3451 23.5136 17.3476 23.5134H18.4005C18.4658 23.5134 18.5187 23.4602 18.5187 23.3947V16.5785H19.2492C19.3145 16.5785 19.3674 16.5253 19.3674 16.4598V15.2948C19.3674 15.259 19.3513 15.2251 19.3236 15.2026L11.7345 9.02648ZM19.131 16.341H18.4005C18.3351 16.341 18.2823 16.3942 18.2823 16.4598V23.2759H17.4584V15.4298C17.4584 15.3642 17.4055 15.3111 17.3401 15.3111H6.02724C5.9619 15.3111 5.90903 15.3642 5.90903 15.4298V23.2761L5.14759 23.2759L5.13247 16.5093C5.13235 16.4439 5.07948 16.3909 5.01426 16.3909H4.23642V15.402L11.6606 9.27198L19.131 15.3515V16.341Z" fill="white"/>
<path d="M10.6659 12.5936C10.6659 13.4341 11.3502 14.1179 12.1914 14.1179C13.0326 14.1179 13.7169 13.4341 13.7169 12.5936C13.7169 11.7525 13.0326 11.0682 12.1914 11.0682C11.3502 11.0682 10.6659 11.7525 10.6659 12.5936ZM12.1914 11.294C12.908 11.294 13.4911 11.877 13.4911 12.5936C13.4911 13.3096 12.908 13.8921 12.1914 13.8921C11.4748 13.8921 10.8917 13.3096 10.8917 12.5936C10.8917 11.877 11.4748 11.294 12.1914 11.294Z" fill="white"/>
<path d="M7.54069 20.0644C7.47829 20.0644 7.4278 20.115 7.4278 20.1773V22.6851C7.4278 22.7475 7.47829 22.798 7.54069 22.798H10.4939C10.5563 22.798 10.6068 22.7475 10.6068 22.6851V20.7885C10.6068 20.7881 10.607 20.7878 10.607 20.7874C10.607 20.787 10.6068 20.7867 10.6068 20.7863V20.1773C10.6068 20.115 10.5563 20.0644 10.4939 20.0644H9.42073H8.61384H7.54069ZM7.65358 20.2902H8.50094V20.6745H7.65358V20.2902ZM9.53363 20.2902H10.381V20.6745H9.53363V20.2902ZM8.72673 20.2902H9.30784V20.7852C9.30783 20.786 9.3074 20.7867 9.3074 20.7874C9.3074 20.7882 9.30783 20.7888 9.30784 20.7896V21.1459L9.08856 20.9671C9.06783 20.9502 9.04248 20.9418 9.01723 20.9418C8.99198 20.9418 8.96663 20.9503 8.9459 20.9672L8.72673 21.1458V20.2902ZM8.68517 21.471L9.01723 21.2003L9.3494 21.4711C9.36991 21.4878 9.39527 21.4964 9.42073 21.4964C9.43716 21.4964 9.4537 21.4928 9.46913 21.4855C9.50849 21.4668 9.53363 21.4271 9.53363 21.3835V20.9003H10.381V22.5722H7.65358V20.9003H8.50094V21.3835C8.50094 21.4271 8.52608 21.4668 8.56544 21.4855C8.60491 21.5042 8.65143 21.4986 8.68517 21.471Z" fill="white"/>
<path d="M14.2095 20.0644H13.1363H12.3295H11.2563C11.1939 20.0644 11.1434 20.115 11.1434 20.1773V22.6851C11.1434 22.7475 11.1939 22.798 11.2563 22.798H14.2095C14.2719 22.798 14.3224 22.7475 14.3224 22.6851V20.7885C14.3224 20.7881 14.3226 20.7878 14.3226 20.7874C14.3226 20.787 14.3224 20.7867 14.3224 20.7863V20.1773C14.3224 20.115 14.2719 20.0644 14.2095 20.0644ZM12.4424 20.2902H13.0234V20.7858C13.0234 20.7864 13.023 20.7868 13.023 20.7874C13.023 20.788 13.0234 20.7885 13.0234 20.7891V21.1458L12.8042 20.9672C12.7835 20.9503 12.7581 20.9418 12.7329 20.9418C12.7076 20.9418 12.6823 20.9503 12.6615 20.9672L12.4424 21.1458V20.2902ZM11.3692 20.2902H12.2166V20.6745H11.3692V20.2902ZM14.0966 22.5722H11.3692V20.9003H12.2166V21.3835C12.2166 21.4271 12.2417 21.4668 12.2811 21.4855C12.3205 21.5042 12.3672 21.4986 12.4008 21.471L12.7329 21.2003L13.0649 21.471C13.0854 21.4878 13.1108 21.4964 13.1363 21.4964C13.1527 21.4964 13.1692 21.4928 13.1847 21.4855C13.224 21.4668 13.2492 21.4271 13.2492 21.3835V20.9003H14.0966V22.5722ZM14.0966 20.6745H13.2492V20.2902H14.0966V20.6745Z" fill="white"/>
<path d="M12.3712 16.9431H11.2981H10.4913H9.41813C9.35573 16.9431 9.30524 16.9937 9.30524 17.056V19.5638C9.30524 19.6262 9.35573 19.6767 9.41813 19.6767H12.3712C12.4336 19.6767 12.4841 19.6262 12.4841 19.5638V17.6678C12.4841 17.6672 12.4844 17.6667 12.4844 17.6661C12.4844 17.6656 12.4841 17.6651 12.4841 17.6645V17.056C12.4841 16.9937 12.4336 16.9431 12.3712 16.9431ZM10.6042 17.1689H11.1852V17.6645C11.1852 17.6651 11.1848 17.6656 11.1848 17.6661C11.1848 17.6667 11.1852 17.6672 11.1852 17.6678V18.0246L10.966 17.8459C10.9453 17.8289 10.9199 17.8204 10.8947 17.8204C10.8694 17.8204 10.8441 17.8289 10.8233 17.8459L10.6042 18.0246V17.1689ZM9.53102 17.1689H10.3784V17.5533H9.53102V17.1689ZM12.2583 19.4509H9.53102V17.779H10.3784V18.2623C10.3784 18.3059 10.4035 18.3455 10.4429 18.3642C10.4823 18.383 10.529 18.3774 10.5626 18.3497L10.8947 18.079L11.2267 18.3497C11.2472 18.3665 11.2726 18.3751 11.2981 18.3751C11.3145 18.3751 11.331 18.3716 11.3465 18.3642C11.3858 18.3455 11.411 18.3059 11.411 18.2623V17.779H12.2583V19.4509ZM12.2583 17.5533H11.411V17.1689H12.2583V17.5533Z" fill="white"/>
<path d="M18.252 26.0996C18.252 26.1613 18.302 26.2113 18.3636 26.2113H19.6393C19.7396 26.7556 20.2136 27.1693 20.7825 27.1693C21.3515 27.1693 21.8255 26.7556 21.9259 26.2113H27.9839H29.1757C29.276 26.7556 29.75 27.1693 30.3189 27.1693C30.8879 27.1693 31.362 26.7556 31.4623 26.2113H32.654C32.7156 26.2113 32.7656 26.1613 32.7656 26.0996V25.058V24.2028V23.6155C32.7656 23.6146 32.7651 23.6138 32.7651 23.6128C32.7648 23.6007 32.7621 23.5889 32.7579 23.5773C32.7568 23.5744 32.756 23.5716 32.7547 23.5689C32.7537 23.5668 32.7533 23.5645 32.7522 23.5624L31.2082 20.7066C31.1887 20.6705 31.1509 20.6481 31.1099 20.6481H28.0956V18.0431C28.0956 17.9815 28.0456 17.9315 27.9839 17.9315H18.3636C18.302 17.9315 18.252 17.9815 18.252 18.0431V24.4247C18.252 24.4247 18.252 24.4248 18.252 24.4248C18.252 24.4249 18.252 24.4249 18.252 24.425V26.0996ZM18.4753 24.5366H27.8723V25.988H21.9458C21.9409 25.3458 21.4211 24.8248 20.7825 24.8248C20.1439 24.8248 19.6243 25.3458 19.6194 25.988H18.4753V24.5366ZM20.7825 26.946C20.264 26.946 19.8422 26.5203 19.8422 25.9971C19.8422 25.4738 20.264 25.0481 20.7825 25.0481C21.3011 25.0481 21.723 25.4738 21.723 25.9971C21.723 26.5203 21.3011 26.946 20.7825 26.946ZM30.3189 26.946C29.8004 26.946 29.3786 26.5203 29.3786 25.9971C29.3786 25.4738 29.8004 25.0481 30.3189 25.0481C30.8375 25.0481 31.2594 25.4738 31.2594 25.9971C31.2594 26.5203 30.8375 26.946 30.3189 26.946ZM31.4822 25.988C31.4773 25.3458 30.9575 24.8248 30.3189 24.8248C29.6803 24.8248 29.1607 25.3458 29.1558 25.988H28.0956V24.425V24.4247V23.7272H32.5423V24.1244L32.002 24.32C31.9577 24.336 31.9283 24.378 31.9283 24.425V25.058C31.9283 25.1196 31.9783 25.1696 32.0399 25.1696H32.5423V25.988H31.4822ZM32.5423 24.9463H32.1516V24.5033L32.5423 24.3619V24.9463ZM31.0434 20.8713L32.4667 23.5039H28.0956V20.8713H31.0434ZM18.4753 18.1548H27.8723V20.7597V23.6155V24.313H18.4753V18.1548Z" fill="white"/>
<path d="M29.3034 21.5412H30.6494L31.4472 22.9736C31.4676 23.0102 31.5056 23.0309 31.5448 23.0309C31.5632 23.0309 31.5819 23.0264 31.5991 23.0168C31.6529 22.9868 31.6723 22.9188 31.6423 22.8649L30.8126 21.3752C30.7929 21.3398 30.7555 21.3179 30.715 21.3179H29.3034C29.2418 21.3179 29.1918 21.3679 29.1918 21.4295C29.1918 21.4912 29.2418 21.5412 29.3034 21.5412Z" fill="white"/>
<path d="M27.2843 12.8951C27.3613 12.841 27.2827 12.7251 27.2036 12.7764C27.1998 12.7789 26.8727 12.9942 26.4667 12.9327C26.6457 12.8384 26.7843 12.6823 26.8568 12.4936C27.2694 12.397 27.4471 11.9908 27.4082 11.9434C27.4041 11.9349 27.3983 11.9273 27.3912 11.921C27.3841 11.9148 27.3758 11.91 27.3668 11.9071C27.1602 11.8369 26.9994 11.8265 26.8804 11.8395C26.9022 11.7524 26.9113 11.6626 26.9073 11.5729C27.0482 11.4246 27.2404 11.3541 27.48 11.3632C27.4575 11.4693 27.4174 11.5709 27.3615 11.6638C27.3519 11.68 27.349 11.6993 27.3535 11.7175C27.358 11.7358 27.3695 11.7516 27.3855 11.7615C27.4015 11.7714 27.4208 11.7746 27.4392 11.7705C27.4575 11.7663 27.4735 11.7551 27.4837 11.7393C27.564 11.6064 27.6157 11.4582 27.6355 11.3042C27.6373 11.2853 27.6315 11.2665 27.6195 11.2519C27.6075 11.2372 27.5901 11.2279 27.5712 11.226C27.3738 11.2057 27.2006 11.2294 27.0528 11.2961C27.2741 10.9709 27.5259 10.8651 27.5308 10.8631C27.5483 10.856 27.5622 10.8422 27.5696 10.8249C27.577 10.8075 27.5772 10.7879 27.5702 10.7703C27.5633 10.7528 27.5496 10.7387 27.5323 10.7311C27.515 10.7235 27.4954 10.723 27.4777 10.7298C27.4616 10.7362 27.1209 10.8754 26.8613 11.3312C26.8566 11.314 26.8457 11.2993 26.8307 11.2897C26.8157 11.2802 26.7977 11.2765 26.7801 11.2794C26.7656 11.2818 26.4489 11.3398 26.1922 11.7526C26.1617 11.6993 26.1231 11.6049 26.0466 11.6427C26.035 11.6488 25.8172 11.7657 25.6285 12.0475C25.7301 11.3507 26.2204 10.8323 26.2275 10.8249C26.2407 10.8112 26.2479 10.7928 26.2475 10.7738C26.2472 10.7548 26.2393 10.7367 26.2255 10.7235C26.2118 10.7103 26.1934 10.703 26.1743 10.7034C26.1553 10.7037 26.1372 10.7116 26.124 10.7253C26.0978 10.7525 25.5292 11.3512 25.4712 12.1613C25.4179 12.1243 25.144 12.3544 24.983 12.7417C24.929 12.2161 25.3077 11.6731 25.3121 11.6668C25.323 11.6513 25.3273 11.6321 25.324 11.6134C25.3208 11.5948 25.3102 11.5781 25.2948 11.5671C25.2793 11.5562 25.2601 11.5518 25.2413 11.5549C25.2226 11.558 25.2059 11.5684 25.1949 11.5838C25.1752 11.6115 24.7667 12.1962 24.8429 12.7828C24.8235 12.7974 24.5421 13.0344 24.4187 13.4714C24.3489 13.3638 24.2718 13.4612 24.2128 13.5203C24.1871 13.5197 24.1553 13.5201 24.1191 13.5227C24.2387 13.2701 24.2865 12.9894 24.2573 12.7114C24.7523 12.3236 24.8008 11.479 24.8028 11.4388C24.8034 11.42 24.7966 11.4017 24.7839 11.3878C24.7711 11.374 24.7534 11.3657 24.7346 11.3647C24.7158 11.3637 24.6973 11.3702 24.6832 11.3827C24.6692 11.3952 24.6606 11.4127 24.6593 11.4315C24.6588 11.4414 24.6027 12.4108 24.0294 12.6849C23.897 12.7388 23.779 12.8227 23.6847 12.93C23.6799 12.7621 23.6712 12.5983 23.6598 12.4412C23.6952 12.1958 23.867 11.992 24.0985 11.9267C24.1144 12.0497 24.1118 12.1744 24.0909 12.2967C24.089 12.3061 24.089 12.3158 24.091 12.3252C24.0929 12.3346 24.0967 12.3435 24.1022 12.3515C24.1077 12.3594 24.1147 12.3661 24.1228 12.3713C24.1309 12.3764 24.14 12.3799 24.1495 12.3815C24.1589 12.3831 24.1687 12.3828 24.178 12.3806C24.1874 12.3783 24.1962 12.3742 24.2039 12.3686C24.2117 12.3629 24.2182 12.3557 24.2231 12.3474C24.228 12.3392 24.2312 12.33 24.2325 12.3205C24.2806 12.0318 24.227 11.8304 24.2247 11.8219C24.2075 11.7612 24.1455 11.7641 24.0959 11.7794C24.2135 11.3113 24.0906 10.9925 24.0784 10.9658C24.4195 10.5898 24.3441 9.98884 24.34 9.95854C24.337 9.94013 24.3269 9.92362 24.3119 9.9125C24.2969 9.90139 24.2781 9.89655 24.2596 9.89901C24.2411 9.90147 24.2243 9.91103 24.2127 9.92568C24.2012 9.94032 24.1958 9.95889 24.1977 9.97745C24.1987 9.98459 24.2785 10.628 23.8939 10.9423C23.966 10.4528 23.7604 10.1974 23.7508 10.1858C23.7039 10.1302 23.635 10.1791 23.586 10.2074C23.5429 9.97359 23.4015 9.7713 23.1636 9.60502C23.148 9.59415 23.1288 9.58987 23.1101 9.5931C23.0914 9.59633 23.0748 9.60682 23.0638 9.62228C23.0537 9.63653 22.8443 9.93729 22.8798 10.2911C22.8779 10.2902 22.8759 10.2892 22.874 10.2883C22.663 10.1096 22.6113 9.85039 22.6108 9.84782C22.5919 9.75565 22.4539 9.78112 22.4696 9.87405C22.5126 10.0636 22.6105 10.2365 22.7512 10.371C22.7169 10.4895 22.6579 10.8003 22.8653 11.0851C22.6301 11.6359 23.0021 11.9655 23.2513 12.1347C23.3688 12.2078 23.4586 12.2922 23.5114 12.3788C23.5256 12.5587 23.5364 12.7482 23.5418 12.9433C23.4834 12.8593 23.4089 12.7877 23.3226 12.7327C23.1549 12.6249 23.0773 12.5087 23.0688 12.4955C23.0263 12.4007 23.0085 12.2967 23.0172 12.1933C23.0187 12.1743 23.0127 12.1555 23.0003 12.141C22.988 12.1265 22.9704 12.1175 22.9514 12.116C22.8385 12.1129 22.8755 12.2736 22.8776 12.3384C22.7194 12.2018 22.5037 11.9798 22.4767 11.7665C22.4756 11.7572 22.4726 11.7481 22.4679 11.7399C22.4632 11.7318 22.457 11.7246 22.4495 11.7188C22.4421 11.713 22.4336 11.7087 22.4245 11.7062C22.4154 11.7037 22.4059 11.703 22.3965 11.7042C22.3872 11.7054 22.3781 11.7084 22.3699 11.713C22.3617 11.7177 22.3545 11.7239 22.3488 11.7313C22.343 11.7388 22.3387 11.7473 22.3362 11.7563C22.3337 11.7654 22.3331 11.7749 22.3342 11.7843C22.3779 12.1309 22.7946 12.4641 22.9265 12.5618C22.8795 12.7912 22.8907 13.0289 22.9593 13.2529C22.8113 13.1436 22.6484 13.056 22.4755 12.9928C21.8572 12.7563 21.8984 12.2916 21.9004 12.2723C21.9023 12.2536 21.8967 12.2349 21.8849 12.2202C21.873 12.2055 21.8559 12.1961 21.8371 12.1939C21.8184 12.1917 21.7996 12.197 21.7847 12.2086C21.7698 12.2202 21.7601 12.2371 21.7577 12.2558C21.757 12.2617 21.6984 12.849 22.4243 13.1268C22.6384 13.2086 22.7877 13.2998 22.8908 13.3816C22.7002 13.7179 22.9036 14.1314 23.1749 14.3355C23.31 14.4376 23.3868 14.5928 23.4076 14.6391C23.3526 14.8895 23.2804 15.1358 23.1916 15.3763C23.1817 15.1574 23.1074 14.9461 22.978 14.7689C22.9658 14.7544 22.9484 14.7454 22.9296 14.7437C22.9108 14.742 22.892 14.7478 22.8775 14.7599C22.8629 14.7719 22.8537 14.7891 22.8518 14.8079C22.8499 14.8267 22.8555 14.8455 22.8674 14.8602C22.8831 14.8793 23.2476 15.3353 22.9051 15.9501C22.8707 16.0112 22.7664 16.0766 22.8389 16.1462C22.8533 16.1587 22.8721 16.1649 22.8911 16.1635C22.9101 16.1621 22.9277 16.1533 22.9402 16.1389C23.3177 15.7021 23.5173 14.8146 23.5469 14.6751C23.6164 14.599 23.6998 14.537 23.7928 14.4925C23.8014 14.4886 23.8091 14.483 23.8155 14.4761C23.822 14.4692 23.827 14.4611 23.8302 14.4523C23.8335 14.4435 23.8351 14.4341 23.8347 14.4247C23.8344 14.4153 23.8322 14.406 23.8283 14.3974C23.7738 14.2962 23.6507 14.4107 23.5918 14.4446C23.6214 14.274 23.6433 14.1003 23.6586 13.9259C23.76 13.7462 23.9639 13.6798 24.1024 13.6682C23.9634 13.9017 23.9361 14.1837 24.0255 14.3395C24.0983 14.4673 24.1081 14.6045 24.1115 14.6649C23.9989 14.8213 23.4797 15.7866 23.3254 16.2153C23.3219 16.2241 23.3202 16.2334 23.3203 16.2429C23.3204 16.2523 23.3224 16.2616 23.3261 16.2703C23.3298 16.2789 23.3352 16.2868 23.3419 16.2934C23.3487 16.2999 23.3567 16.3051 23.3654 16.3087C23.3742 16.3122 23.3836 16.3139 23.393 16.3138C23.4024 16.3137 23.4118 16.3117 23.4204 16.308C23.4291 16.3043 23.437 16.299 23.4436 16.2922C23.4501 16.2855 23.4553 16.2775 23.4588 16.2688C23.4775 16.2223 23.4964 16.1763 23.5156 16.1307C23.8432 15.5717 24.6411 15.4695 24.6496 15.4685C24.6684 15.4661 24.6855 15.4564 24.6972 15.4415C24.7088 15.4266 24.7141 15.4077 24.7119 15.3889C24.7096 15.3701 24.7 15.3529 24.6851 15.3411C24.6702 15.3294 24.6513 15.324 24.6324 15.3261C24.6051 15.3293 24.1061 15.3927 23.7102 15.7007C23.7196 15.6811 23.729 15.6617 23.7384 15.6425C24.2633 14.962 25.2367 14.9504 25.2465 14.9504C25.2653 14.95 25.2832 14.9422 25.2964 14.9288C25.3095 14.9153 25.3168 14.8973 25.3167 14.8785C25.3167 14.8597 25.3092 14.8417 25.296 14.8283C25.2827 14.8149 25.2648 14.8073 25.246 14.807C25.2104 14.8071 24.5095 14.8145 23.947 15.2374C24.1409 14.8803 24.226 14.7577 24.262 14.6919C24.3055 14.6726 24.4186 14.6461 24.5968 14.6577C24.905 14.6777 25.2638 14.5321 25.3849 14.2169C26.0403 14.1965 26.3369 13.7854 26.3494 13.7675C26.355 13.7598 26.3591 13.751 26.3613 13.7417C26.3635 13.7325 26.3638 13.7229 26.3622 13.7134C26.3607 13.704 26.3572 13.695 26.3521 13.687C26.3471 13.6789 26.3404 13.6719 26.3326 13.6664C26.3248 13.661 26.3159 13.6571 26.3066 13.6551C26.2973 13.653 26.2876 13.6529 26.2782 13.6546C26.2689 13.6563 26.2599 13.6599 26.2519 13.6652C26.244 13.6704 26.2371 13.6772 26.2318 13.6851C26.229 13.6889 25.9519 14.0735 25.3363 14.0743C25.2913 14.0746 24.8298 13.9978 24.7061 14.0346C24.9049 13.7632 25.1216 13.492 25.4751 13.5381C25.5527 13.5493 25.6314 13.5522 25.7096 13.5467C25.6313 13.6643 25.5327 13.7671 25.4183 13.8502C25.4031 13.8614 25.3928 13.8782 25.3899 13.8969C25.3869 13.9156 25.3915 13.9347 25.4026 13.95C25.4137 13.9654 25.4304 13.9757 25.4491 13.9788C25.4678 13.9819 25.4869 13.9776 25.5024 13.9666C25.6683 13.845 25.8047 13.6878 25.9018 13.5065C25.9953 13.4601 26.0779 13.3943 26.144 13.3137C26.2101 13.233 26.2584 13.1392 26.2855 13.0385C26.8193 13.2039 27.2647 12.9084 27.2843 12.8951ZM23.9667 11.0873C24.025 11.337 24.0116 11.598 23.9281 11.8403C23.8065 11.9024 23.7039 11.9961 23.6312 12.1115C23.6096 11.8966 23.5843 11.6999 23.5592 11.5296C23.6044 11.3164 23.7655 11.158 23.9667 11.0873ZM23.588 10.3878C23.6129 10.3635 23.6405 10.3421 23.6703 10.324C23.7234 10.4194 23.8197 10.6611 23.7272 11.049C23.6425 11.1037 23.5708 11.1762 23.5169 11.2613C23.4818 11.0553 23.4609 10.9581 23.4435 10.8727C23.4253 10.7862 23.4289 10.6966 23.4541 10.6119C23.4793 10.5272 23.5253 10.4502 23.5879 10.3878L23.588 10.3878ZM23.143 9.76845C23.3377 9.92312 23.4423 10.1081 23.4552 10.3188C23.3814 10.4014 23.3299 10.5013 23.3055 10.6092C23.2304 10.5197 23.1416 10.4427 23.0424 10.3811C22.9733 10.1291 23.0813 9.88125 23.143 9.76845ZM22.8786 10.4511C23.2518 10.6515 23.2991 10.8842 23.3012 10.896C23.3041 10.9095 23.3374 11.0576 23.3818 11.3235C23.325 11.2789 23.2639 11.24 23.1994 11.2074C23.1237 11.168 23.0589 11.1104 23.0109 11.0398C22.8316 10.8275 22.8488 10.572 22.8786 10.4511ZM23.3272 12.0129C23.1234 11.8723 22.8338 11.6314 22.9679 11.2125C23.0165 11.2625 23.0731 11.3041 23.1353 11.3357C23.2428 11.3898 23.3389 11.4642 23.4181 11.5547C23.443 11.7244 23.4682 11.9203 23.4896 12.1345C23.4392 12.0892 23.3848 12.0486 23.3272 12.0129ZM23.2449 12.8531C23.5683 13.0643 23.5605 13.3759 23.525 13.7966C23.4626 13.706 23.3796 13.6315 23.2827 13.5793C23.093 13.3263 23.0096 13.0095 23.0503 12.6963C23.1092 12.7555 23.1745 12.8081 23.2449 12.8531ZM22.9746 13.5538C23.0516 13.6116 23.1332 13.663 23.2185 13.7076C23.356 13.7773 23.4614 13.9318 23.499 14.079C23.4859 14.1946 23.4695 14.3092 23.4498 14.423C23.3983 14.3461 23.3348 14.2779 23.2616 14.2211C23.0677 14.0744 22.9167 13.8033 22.9746 13.5538ZM23.6758 13.6867C23.6796 13.6183 23.6825 13.5501 23.6845 13.482C23.6889 13.3816 23.6881 13.2801 23.6886 13.1804C23.7451 13.0552 23.9088 12.8751 24.1207 12.8029C24.1316 13.0646 24.0696 13.3241 23.9415 13.5525C23.8443 13.5778 23.7537 13.6235 23.6758 13.6867ZM26.2206 12.8734C26.1915 12.8793 26.1197 12.9184 25.9523 12.8728C25.8988 12.8578 25.8437 12.8497 25.7881 12.8487C25.9202 12.727 26.0611 12.604 26.2113 12.4812C26.4417 12.4618 26.5159 12.5326 26.6856 12.5222C26.6374 12.6102 26.571 12.687 26.4908 12.7476C26.4107 12.8081 26.3186 12.851 26.2206 12.8734ZM26.7909 12.3605C26.7095 12.3838 26.6235 12.3859 26.541 12.3664C26.4908 12.3538 26.4397 12.3451 26.3882 12.3402C26.4724 12.2748 26.5592 12.2096 26.6485 12.1447C26.7102 12.1066 26.7641 12.057 26.8072 11.9988C26.9252 11.9656 27.0776 11.9729 27.2449 12.0194C27.1896 12.1237 27.0544 12.3149 26.7909 12.3605ZM26.7442 11.4389C26.7683 11.5401 26.7714 11.6452 26.7532 11.7476C26.7317 11.8786 26.6832 11.9513 26.5682 12.0257C26.4661 12.0992 26.3674 12.174 26.2721 12.2486C26.2946 12.1411 26.2904 12.0296 26.2598 11.9239C26.4307 11.595 26.6425 11.4779 26.7442 11.4389L26.7442 11.4389ZM26.0577 11.8054C26.1754 12.0113 26.1715 12.2458 26.0328 12.4427C25.9018 12.5525 25.7779 12.6618 25.6611 12.7707C25.6846 12.6362 25.6697 12.4977 25.618 12.3712C25.7088 12.1452 25.8611 11.9492 26.0577 11.8054ZM25.4364 12.3322C25.5827 12.556 25.5506 12.8543 25.3653 13.0579C25.2755 13.1489 25.1908 13.2382 25.1112 13.3257C25.1119 13.2151 25.0915 13.1053 25.0508 13.0023C25.1347 12.6408 25.3393 12.417 25.4364 12.3322ZM24.8709 12.9546C24.9981 13.1898 24.9711 13.3669 24.9436 13.5144C24.8772 13.5939 24.8134 13.6635 24.7528 13.7427C24.71 13.7956 24.6693 13.8471 24.631 13.8967C24.6079 13.8073 24.5734 13.7212 24.5283 13.6406C24.5736 13.3836 24.6926 13.1453 24.8709 12.9546ZM24.1504 14.2682C24.0694 14.1397 24.138 13.7867 24.3349 13.6004C24.3986 13.693 24.5084 13.879 24.5082 14.0603C24.3854 14.2279 24.2927 14.3677 24.2287 14.4696C24.2121 14.3991 24.1857 14.3313 24.1502 14.2682L24.1504 14.2682ZM24.5343 14.2744C24.661 14.173 24.758 14.1509 24.9666 14.176C25.0767 14.1893 25.169 14.1999 25.2324 14.207C25.1202 14.4264 24.8396 14.5295 24.6062 14.5144C24.5263 14.5088 24.4459 14.5108 24.3664 14.5202C24.4087 14.4536 24.4625 14.3721 24.5282 14.2784C24.5303 14.2771 24.5323 14.2758 24.5342 14.2744L24.5343 14.2744ZM25.8267 13.3829C25.7182 13.4094 25.6055 13.4138 25.4952 13.3959C25.4053 13.3834 25.3138 13.389 25.2262 13.4124C25.3434 13.2844 25.4717 13.1515 25.6112 13.0161C25.8688 12.944 25.9514 13.0578 26.1361 13.0358C26.1111 13.1118 26.0707 13.1818 26.0175 13.2415C25.9643 13.3012 25.8993 13.3493 25.8267 13.3829Z" fill="white"/>
</svg>
