<svg width="36" height="36" viewBox="0 0 36 36" fill="none" xmlns="http://www.w3.org/2000/svg">
<rect width="36" height="36" rx="18" fill="#006633"/>
<path d="M32.2673 29.75H3.18463C3.03306 29.75 2.91196 29.6289 2.91196 29.4773C2.91196 29.3257 3.03306 29.2047 3.18463 29.2047H32.2673C32.4189 29.2047 32.54 29.3257 32.54 29.4773C32.54 29.6289 32.4189 29.75 32.2673 29.75Z" fill="white" stroke="white" stroke-width="0.5"/>
<path d="M11.6948 24.0182L11.6946 24.0183C9.51437 25.1106 8.32471 26.316 8.32471 27.7372C8.32471 27.8873 8.20294 28.0099 8.05204 28.0099C7.90046 28.0099 7.77936 27.8888 7.77936 27.7372C7.77936 26.8201 8.18435 25.9498 9.02641 25.1432C9.60796 24.5868 10.3969 24.0578 11.4497 23.5313C11.5863 23.4638 11.7494 23.5195 11.8158 23.652C11.8833 23.7886 11.8275 23.9518 11.6948 24.0182Z" fill="white" stroke="white" stroke-width="0.5"/>
<path d="M9.04035 25.254L9.04035 25.254C9.04145 25.3575 9.10442 25.4537 9.20456 25.4982C9.94006 25.8192 10.5061 26.0062 11.0161 26.0062C11.1804 26.0062 11.3378 25.9871 11.4977 25.9468C12.1173 25.7809 12.6654 25.2837 13.3237 24.1559C13.3254 24.1529 13.3278 24.1487 13.3307 24.1437C13.3444 24.1198 13.3698 24.0756 13.3939 24.0325L13.3944 24.0316L13.3988 24.0239C13.4244 23.9785 13.4526 23.9287 13.4608 23.915C13.4721 23.8962 13.4818 23.8775 13.498 23.8465C13.5029 23.837 13.5084 23.8264 13.5147 23.8143L13.5153 23.8132L13.5172 23.8098C13.6557 23.5485 13.9888 22.9206 14.739 22.4104L14.739 22.4104C14.8244 22.3523 14.8697 22.2511 14.8561 22.1492L9.04035 25.254ZM9.04035 25.254L9.04033 25.2523M9.04035 25.254L9.04033 25.2523M9.04033 25.2523C9.02774 24.5221 9.14132 23.895 9.36781 23.3773L9.04033 25.2523ZM11.3525 25.4177C11.6232 25.3461 11.8702 25.1741 12.1086 24.9212C12.3246 24.6921 12.5437 24.3858 12.7758 23.9996H12.7887L12.8565 23.864C12.857 23.8631 12.8581 23.8612 12.86 23.8578L12.8751 23.8318C12.8869 23.8115 12.9023 23.7846 12.9177 23.7563C12.9195 23.7531 12.9214 23.75 12.9232 23.7467C12.9476 23.7045 12.9764 23.6546 12.9901 23.6291C12.9985 23.6145 13.011 23.5914 13.0201 23.5744C13.0232 23.5688 13.0259 23.5638 13.0279 23.56L13.0279 23.56L13.0295 23.5572C13.127 23.3727 13.3223 23.005 13.6823 22.606L13.9843 22.2712L13.5403 22.1924C12.5859 22.0229 11.4405 22.0474 10.628 22.6344L10.628 22.6344L10.6272 22.635C9.96968 23.1138 9.63623 23.8897 9.58818 24.8918L9.57969 25.0691L9.7442 25.1356C10.3532 25.3818 10.8945 25.5395 11.3525 25.4177ZM11.3525 25.4177C11.3524 25.4177 11.3523 25.4177 11.3522 25.4177L11.2883 25.176M11.3525 25.4177C11.3525 25.4177 11.3526 25.4176 11.3527 25.4176L11.2883 25.176M11.2883 25.176C10.9203 25.274 10.452 25.1521 9.8379 24.9038L12.6996 23.6341C12.6831 23.6645 12.666 23.6941 12.6532 23.7161C12.6439 23.7321 12.637 23.7441 12.6342 23.7496C12.632 23.7496 12.632 23.7517 12.632 23.7517C12.1224 24.6251 11.7086 25.065 11.2883 25.176ZM10.3112 22.1946C11.5202 21.3195 13.3414 21.4623 14.6753 21.9276L9.36785 23.3772C9.58151 22.8895 9.89996 22.492 10.3111 22.1946L10.3112 22.1946Z" fill="white" stroke="white" stroke-width="0.5"/>
<path d="M4.40934 24.0182L4.40934 24.0182L4.40849 24.0178C4.2754 23.9518 4.22039 23.7876 4.28802 23.6523L4.2884 23.6515C4.35521 23.5168 4.51951 23.4628 4.65236 23.5303L4.65387 23.5311C5.70692 24.0576 6.49596 24.5866 7.07758 25.1431C7.91778 25.95 8.32469 26.8204 8.32469 27.7372C8.32469 27.8872 8.20291 28.0098 8.05201 28.0098C7.90043 28.0098 7.77933 27.8887 7.77933 27.7372C7.77933 26.3161 6.592 25.1106 4.40934 24.0182Z" fill="white" stroke="white" stroke-width="0.5"/>
<path d="M4.61181 25.945L4.61343 25.9454C4.76656 25.987 4.92295 26.0064 5.088 26.0064C5.59844 26.0064 6.1669 25.8191 6.90527 25.4999L6.90568 25.4997C7.00046 25.4589 7.06552 25.3634 7.06813 25.2544C7.07853 24.5232 6.96678 23.8945 6.74075 23.3798L6.74065 23.3796C6.527 22.8918 6.20855 22.4944 5.79742 22.197L4.61181 25.945ZM4.61181 25.945C3.99406 25.7816 3.44566 25.2847 2.78635 24.1551M4.61181 25.945L2.78635 24.1551M2.78635 24.1551L2.57044 24.2811L2.78635 24.1551ZM2.64916 23.9177C2.63288 23.8892 2.61523 23.8577 2.59371 23.8166L2.59372 23.8166L2.59311 23.8155L2.5913 23.8121C2.45273 23.5508 2.11969 22.9229 1.36949 22.4127L1.36948 22.4127C1.28408 22.3546 1.2388 22.2534 1.25239 22.1515C1.26631 22.0471 1.33632 21.9626 1.43074 21.9307L1.43074 21.9307L1.43319 21.9299C2.76667 21.4648 4.5881 21.3238 5.79737 22.1969L2.64916 23.9177ZM2.56593 22.1947L2.12202 22.2735L2.424 22.6083C2.78247 23.0057 2.97768 23.372 3.07561 23.5572C3.08262 23.5711 3.09028 23.5854 3.09569 23.5956C3.09649 23.597 3.09724 23.5984 3.09793 23.5997L3.10345 23.6102L3.10442 23.6126L3.10907 23.6219C3.11479 23.6334 3.1223 23.6463 3.12601 23.6527L3.12636 23.6533L3.14441 23.684C3.15789 23.7069 3.17344 23.7335 3.18818 23.76L3.18818 23.76L3.18908 23.7616C3.21706 23.8112 3.24762 23.8636 3.25685 23.8791C3.5169 24.3239 3.75919 24.6701 3.9976 24.9224C4.23646 25.1751 4.48339 25.3463 4.75386 25.4178C5.21177 25.5396 5.75313 25.3819 6.36208 25.1357L6.5262 25.0694L6.51812 24.8925C6.47234 23.8899 6.13653 23.1135 5.48064 22.639L5.4806 22.639C4.66593 22.0498 3.52049 22.0252 2.56593 22.1947Z" fill="white" stroke="white" stroke-width="0.5"/>
<path d="M8.05201 29.75C7.90043 29.75 7.77933 29.6289 7.77933 29.4773V27.7372C7.77933 27.5856 7.90043 27.4645 8.05201 27.4645C8.20358 27.4645 8.32468 27.5856 8.32468 27.7372V29.4773C8.32468 29.6289 8.20358 29.75 8.05201 29.75Z" fill="white" stroke="white" stroke-width="0.5"/>
<path d="M31.0427 24.0181L31.0425 24.0182C28.8623 25.1105 27.6726 26.316 27.6726 27.7372C27.6726 27.8866 27.5493 28.0098 27.3999 28.0098C27.2484 28.0098 27.1273 27.8887 27.1273 27.7372C27.1273 26.8201 27.5322 25.9498 28.3742 25.1432C28.9559 24.5867 29.7449 24.0576 30.7981 23.5311C30.932 23.4641 31.0972 23.5192 31.1638 23.6519C31.2312 23.7886 31.1754 23.9518 31.0427 24.0181Z" fill="white" stroke="white" stroke-width="0.5"/>
<path d="M28.3881 25.2539L28.3881 25.2539C28.3892 25.3575 28.4522 25.4537 28.5523 25.4981C29.2878 25.8192 29.8538 26.0062 30.3639 26.0062C30.526 26.0062 30.6831 25.987 30.8445 25.9448C31.4645 25.7792 32.0128 25.282 32.6716 24.1536C32.6749 24.1478 32.6807 24.138 32.6871 24.127C32.6913 24.1199 32.6957 24.1124 32.7 24.1051C32.7127 24.0833 32.7276 24.0577 32.7417 24.0325L32.7422 24.0316L32.7465 24.024C32.7722 23.9786 32.8003 23.9287 32.8086 23.9149L32.8086 23.9149C32.8199 23.8962 32.8296 23.8775 32.8457 23.8465C32.8506 23.837 32.8562 23.8264 32.8625 23.8143L32.8631 23.8131L32.8649 23.8097C33.0035 23.5485 33.3365 22.9206 34.0867 22.4104L34.0867 22.4103C34.1721 22.3523 34.2174 22.2511 34.2038 22.1492L28.3881 25.2539ZM28.3881 25.2539L28.3881 25.2523M28.3881 25.2539L28.3881 25.2523M28.3881 25.2523C28.3755 24.5221 28.4891 23.895 28.7156 23.3773L28.3881 25.2523ZM28.9278 25.0692L28.9359 24.8924C28.9817 23.89 29.3152 23.1134 29.9757 22.6366L28.9278 25.0692ZM28.9278 25.0692L29.092 25.1356M28.9278 25.0692L29.092 25.1356M29.092 25.1356C29.7009 25.3817 30.2423 25.5395 30.7002 25.4176M29.092 25.1356L32.1236 23.9995M32.1236 23.9995C31.8914 24.3858 31.6724 24.692 31.4564 24.9212C31.2179 25.1741 30.971 25.346 30.7002 25.4176M32.1236 23.9995H32.1365L32.2042 23.864C32.2047 23.8632 32.2058 23.8613 32.2075 23.8583L32.2221 23.8333L32.2229 23.832C32.2345 23.8122 32.2496 23.7865 32.2644 23.7603C32.2812 23.7312 32.2978 23.7019 32.3107 23.6789L32.3273 23.6496C32.3324 23.6407 32.3339 23.638 32.3336 23.6386L32.3336 23.6386C32.3414 23.6255 32.357 23.5967 32.3679 23.5766C32.3709 23.5709 32.3736 23.5659 32.3757 23.5622L32.3757 23.5622L32.3772 23.5593C32.4747 23.3749 32.6701 23.0071 33.03 22.6081L33.332 22.2733L32.8881 22.1945C31.9337 22.025 30.7883 22.0496 29.9758 22.6365L32.1236 23.9995ZM30.7002 25.4176C30.7001 25.4177 30.7001 25.4177 30.7 25.4177L30.6361 25.176L30.7004 25.4176C30.7004 25.4176 30.7003 25.4176 30.7002 25.4176ZM29.6589 22.1946C30.868 21.3195 32.6892 21.4623 34.023 21.9275L28.7156 23.3772C28.9293 22.8894 29.2477 22.492 29.6588 22.1946L29.6589 22.1946Z" fill="white" stroke="white" stroke-width="0.5"/>
<path d="M23.7572 24.0182L23.7572 24.0182L23.7563 24.0177C23.6232 23.9518 23.5682 23.7875 23.6359 23.6523L23.6362 23.6515C23.703 23.5168 23.8673 23.4627 24.0002 23.5303L24.0017 23.531C25.0548 24.0576 25.8438 24.5866 26.4254 25.1431C27.2656 25.95 27.6725 26.8204 27.6725 27.7371C27.6725 27.8865 27.5493 28.0098 27.3999 28.0098C27.2483 28.0098 27.1272 27.8887 27.1272 27.7371C27.1272 26.316 25.9398 25.1106 23.7572 24.0182Z" fill="white" stroke="white" stroke-width="0.5"/>
<path d="M23.9596 25.9449L23.9612 25.9454C24.1142 25.9869 24.2728 26.0063 24.4358 26.0063C24.9439 26.0063 25.5123 25.8192 26.2527 25.4978L26.2535 25.4975C26.3482 25.4567 26.4133 25.3612 26.4159 25.2521C26.4263 24.521 26.3146 23.8922 26.0885 23.3776L26.0884 23.3774C25.8748 22.8896 25.5563 22.4921 25.1452 22.1947L23.9596 25.9449ZM23.9596 25.9449C23.342 25.7816 22.7938 25.285 22.1325 24.1537M23.9596 25.9449L22.1325 24.1537M22.1325 24.1537C22.1298 24.1491 22.1262 24.1428 22.1218 24.1352C22.108 24.1113 22.0867 24.0744 22.0645 24.0348L22.0645 24.0347L22.064 24.0339C22.0529 24.0142 22.0413 23.9941 22.0313 23.9766C22.0282 23.9712 22.0253 23.9661 22.0226 23.9613L22.008 23.9356C22.0064 23.9328 22.0053 23.9308 22.0047 23.9296L22.005 23.9295L21.9981 23.9174C21.9815 23.8884 21.9635 23.8564 21.9415 23.8144L21.9415 23.8144L21.9409 23.8133L21.9391 23.8099C21.8005 23.5486 21.4675 22.9207 20.7173 22.4105L20.7173 22.4104C20.6319 22.3524 20.5866 22.2512 20.6002 22.1493C20.6141 22.0449 20.6841 21.9603 20.7785 21.9285L20.7785 21.9285L20.781 21.9277C22.1144 21.4625 23.9359 21.3216 25.1451 22.1947L22.1325 24.1537ZM21.9115 22.1946L21.4676 22.2735L21.7696 22.6082C22.1281 23.0056 22.3233 23.3719 22.4212 23.5571C22.4282 23.571 22.4359 23.5854 22.4413 23.5955C22.4421 23.597 22.4428 23.5984 22.4435 23.5997L22.4491 23.6102L22.45 23.6126L22.4547 23.6219C22.4598 23.6322 22.4667 23.6443 22.4706 23.6511L22.4706 23.6512L22.4887 23.6828C22.5024 23.7066 22.5184 23.7346 22.5338 23.7622L22.5338 23.7622L22.5347 23.7638L22.539 23.7714C22.5637 23.8151 22.5908 23.863 22.6001 23.8788C22.8602 24.3237 23.1026 24.67 23.341 24.9223C23.5799 25.1751 23.8268 25.3462 24.0972 25.4178C24.5552 25.5396 25.0965 25.3818 25.7055 25.1357L25.8696 25.0693L25.8615 24.8925C25.8158 23.8899 25.48 23.1136 24.8242 22.639C24.0115 22.0496 22.8659 22.0252 21.9115 22.1946Z" fill="white" stroke="white" stroke-width="0.5"/>
<path d="M27.3999 29.7499C27.2484 29.7499 27.1273 29.6288 27.1273 29.4773V27.7372C27.1273 27.5856 27.2484 27.4645 27.3999 27.4645C27.5515 27.4645 27.6726 27.5856 27.6726 27.7372V29.4773C27.6726 29.6282 27.55 29.7499 27.3999 29.7499Z" fill="white" stroke="white" stroke-width="0.5"/>
<path d="M16.8596 28.9546V29.2046H17.1096H18.3423H18.5923V28.9546V19.4049V19.1549H18.3423H17.1096H16.8596V19.4049V28.9546ZM18.865 29.75H16.5869C16.4354 29.75 16.3143 29.6289 16.3143 29.4773V18.8822C16.3143 18.7306 16.4354 18.6095 16.5869 18.6095H18.865C19.0165 18.6095 19.1376 18.7306 19.1376 18.8822V29.4773C19.1376 29.6289 19.0165 29.75 18.865 29.75Z" fill="white" stroke="white" stroke-width="0.5"/>
<path d="M20.554 16.1908L20.553 16.1926C20.5538 16.1911 20.5542 16.1904 20.554 16.1908ZM20.554 16.1908L20.5554 16.188L20.5976 16.21L20.554 16.1908ZM13.9666 16.6715L13.9665 16.6714C13.8262 16.4026 13.8364 16.0885 13.9934 15.8302L13.9934 15.8302L13.9938 15.8296C14.1507 15.5698 14.4241 15.4168 14.7271 15.4168H20.7183C21.0204 15.4168 21.2945 15.5712 21.4519 15.83C21.6091 16.0906 21.6193 16.4029 21.4787 16.674C21.4786 16.6741 21.4786 16.6741 21.4786 16.6742L20.4248 18.6947L20.4248 18.6947L20.4239 18.6964C20.2799 18.9778 19.9896 19.1549 19.6686 19.1549H15.7834C15.4633 19.1549 15.1714 18.9785 15.0204 18.692C15.0203 18.6919 15.0203 18.6918 15.0202 18.6916L13.9666 16.6715ZM14.4491 16.4154L14.449 16.4155L14.451 16.4192L15.5045 18.4391C15.559 18.5457 15.6676 18.6095 15.7834 18.6095H19.6664C19.7821 18.6095 19.8908 18.5457 19.9453 18.4391L20.9988 16.4192L20.9988 16.4193L21.0007 16.4154C21.0001 16.4166 21.0078 16.402 21.0144 16.3848C21.0215 16.3666 21.0293 16.3416 21.0331 16.3112C21.0414 16.2449 21.0281 16.172 20.9852 16.1053C20.9482 16.0477 20.8963 16.0046 20.835 15.9808C20.7808 15.9597 20.7331 15.9599 20.7217 15.96C20.7213 15.96 20.7208 15.96 20.7205 15.96H14.7293C14.7289 15.96 14.7285 15.96 14.728 15.96C14.7166 15.9599 14.669 15.9597 14.6147 15.9808C14.5535 16.0046 14.5016 16.0477 14.4646 16.1053C14.4217 16.172 14.4084 16.2449 14.4167 16.3112C14.4205 16.3416 14.4283 16.3666 14.4353 16.3848C14.4415 16.4007 14.4485 16.4144 14.4491 16.4154ZM20.7205 16.46C20.721 16.46 20.7199 16.46 20.7176 16.46H20.7205ZM14.8958 16.1908C14.8956 16.1904 14.896 16.1911 14.8967 16.1927L14.8958 16.1908ZM14.7293 16.46H14.7322C14.7299 16.46 14.7288 16.46 14.7293 16.46Z" fill="white" stroke="white" stroke-width="0.5"/>
<path d="M30.2304 11.3238C30.1809 11.2737 30.1521 11.2032 30.1521 11.1313C30.1521 11.0617 30.1815 10.9894 30.2323 10.9368C30.2827 10.887 30.3513 10.8586 30.4248 10.8586C30.4943 10.8586 30.5667 10.8879 30.6192 10.9388C30.6687 10.9889 30.6975 11.0594 30.6975 11.1313C30.6975 11.2008 30.6681 11.2732 30.6173 11.3257C30.5669 11.3756 30.4983 11.404 30.4248 11.404C30.3553 11.404 30.2829 11.3746 30.2304 11.3238Z" fill="white" stroke="white" stroke-width="0.5"/>
<path d="M23.1008 11.2929L23.0978 11.2929C23.0071 11.294 22.9184 11.2479 22.8667 11.1619C22.7885 11.0304 22.8311 10.8647 22.9588 10.7885C23.089 10.7108 23.2557 10.7533 23.3328 10.8808C23.41 11.0107 23.3677 11.177 23.2407 11.2541C23.1946 11.281 23.1473 11.2929 23.1008 11.2929ZM28.5811 10.6417L28.5811 10.6416L28.5783 10.6408C28.4326 10.5984 28.3497 10.4463 28.3912 10.3039C28.4336 10.1583 28.5857 10.0754 28.7281 10.1169C28.8737 10.1593 28.9566 10.3113 28.9151 10.4537L28.9148 10.455C28.8809 10.5735 28.7721 10.6526 28.6521 10.6526C28.6307 10.6526 28.6073 10.6496 28.5811 10.6417ZM24.6023 10.3612L24.6022 10.3611C24.5655 10.2131 24.6551 10.0661 24.7992 10.0301C24.9449 9.99366 25.0938 10.0833 25.1297 10.2271C25.1662 10.3729 25.0766 10.5218 24.9327 10.5577C24.9114 10.563 24.8906 10.5655 24.8649 10.5655L24.8625 10.5655C24.7439 10.5666 24.6329 10.4848 24.6023 10.3612ZM21.4658 12.4607C21.3515 12.3631 21.3376 12.1919 21.4339 12.0768C21.5317 11.9627 21.7023 11.9491 21.8172 12.0468C21.9317 12.1443 21.9458 12.3156 21.8497 12.4308C21.794 12.4952 21.7191 12.5271 21.6439 12.5277C21.5796 12.526 21.517 12.5038 21.4658 12.4607ZM26.7563 10.3586H26.7563C26.6074 10.354 26.4899 10.2309 26.4934 10.0785C26.4967 9.92847 26.6203 9.80973 26.7735 9.81318C26.9235 9.81657 27.0423 9.94015 27.0388 10.0934C27.0354 10.2399 26.9141 10.3586 26.7661 10.3586H26.7661H26.766H26.766H26.766H26.766H26.7659H26.7659H26.7659H26.7659H26.7658H26.7658H26.7658H26.7658H26.7657H26.7657H26.7657H26.7657H26.7656H26.7656H26.7656H26.7656H26.7655H26.7655H26.7655H26.7655H26.7654H26.7654H26.7654H26.7654H26.7653H26.7653H26.7653H26.7653H26.7652H26.7652H26.7652H26.7651H26.7651H26.7651H26.7651H26.765H26.765H26.765H26.765H26.7649H26.7649H26.7649H26.7649H26.7648H26.7648H26.7648H26.7648H26.7647H26.7647H26.7647H26.7647H26.7646H26.7646H26.7646H26.7646H26.7645H26.7645H26.7645H26.7645H26.7644H26.7644H26.7644H26.7644H26.7643H26.7643H26.7643H26.7643H26.7642H26.7642H26.7642H26.7642H26.7641H26.7641H26.7641H26.7641H26.764H26.764H26.764H26.7639H26.7639H26.7639H26.7639H26.7638H26.7638H26.7638H26.7638H26.7637H26.7637H26.7637H26.7637H26.7636H26.7636H26.7636H26.7636H26.7635H26.7635H26.7635H26.7635H26.7634H26.7634H26.7634H26.7634H26.7633H26.7633H26.7633H26.7633H26.7632H26.7632H26.7632H26.7632H26.7631H26.7631H26.7631H26.7631H26.763H26.763H26.763H26.763H26.7629H26.7629H26.7629H26.7629H26.7628H26.7628H26.7628H26.7627H26.7627H26.7627H26.7627H26.7626H26.7626H26.7626H26.7626H26.7625H26.7625H26.7625H26.7625H26.7624H26.7624H26.7624H26.7624H26.7623H26.7623H26.7623H26.7623H26.7622H26.7622H26.7622H26.7622H26.7621H26.7621H26.7621H26.7621H26.762H26.762H26.762H26.762H26.7619H26.7619H26.7619H26.7619H26.7618H26.7618H26.7618H26.7618H26.7617H26.7617H26.7617H26.7617H26.7616H26.7616H26.7616H26.7615H26.7615H26.7615H26.7615H26.7614H26.7614H26.7614H26.7614H26.7613H26.7613H26.7613H26.7613H26.7612H26.7612H26.7612H26.7612H26.7611H26.7611H26.7611H26.7611H26.761H26.761H26.761H26.761H26.7609H26.7609H26.7609H26.7609H26.7608H26.7608H26.7608H26.7608H26.7607H26.7607H26.7607H26.7607H26.7606H26.7606H26.7606H26.7606H26.7605H26.7605H26.7605H26.7605H26.7604H26.7604H26.7604H26.7604H26.7603H26.7603H26.7603H26.7602H26.7602H26.7602H26.7602H26.7601H26.7601H26.7601H26.7601H26.76H26.76H26.76H26.76H26.7599H26.7599H26.7599H26.7599H26.7598H26.7598H26.7598H26.7598H26.7597H26.7597H26.7597H26.7597H26.7596H26.7596H26.7596H26.7596H26.7595H26.7595H26.7595H26.7595H26.7594H26.7594H26.7594H26.7594H26.7593H26.7593H26.7593H26.7593H26.7592H26.7592H26.7592H26.7592H26.7591H26.7591H26.7591H26.759H26.759H26.759H26.759H26.7589H26.7589H26.7589H26.7589H26.7588H26.7588H26.7588H26.7588H26.7587H26.7587H26.7587H26.7587H26.7586H26.7586H26.7586H26.7586H26.7585H26.7585H26.7585H26.7585H26.7584H26.7584H26.7584H26.7584H26.7583H26.7583H26.7583H26.7583H26.7582H26.7582H26.7582H26.7582H26.7581H26.7581H26.7581H26.7581H26.758H26.758H26.758H26.758H26.7579H26.7579H26.7579H26.7578H26.7578H26.7578H26.7578H26.7577H26.7577H26.7577H26.7577H26.7576H26.7576H26.7576H26.7576H26.7575H26.7575H26.7575H26.7575H26.7574H26.7574H26.7574H26.7574H26.7573H26.7573H26.7573H26.7573H26.7572H26.7572H26.7572H26.7572H26.7571H26.7571H26.7571H26.7571H26.757H26.757H26.757H26.757H26.7569H26.7569H26.7569H26.7569H26.7568H26.7568H26.7568H26.7568H26.7567H26.7567H26.7567H26.7566H26.7566H26.7566H26.7566H26.7565H26.7565H26.7565H26.7565H26.7564H26.7564H26.7564H26.7564H26.7563H26.7563Z" fill="white" stroke="white" stroke-width="0.5"/>
<path d="M20.6682 14.2308V14.2308L20.6642 14.2308C20.5974 14.2319 20.5268 14.2037 20.4747 14.1516C20.4246 14.1015 20.3955 14.0305 20.3955 13.9581C20.3955 13.8886 20.4248 13.8163 20.4757 13.7637C20.5261 13.7138 20.5947 13.6855 20.6682 13.6855C20.7377 13.6855 20.81 13.7148 20.8626 13.7657C20.9121 13.8157 20.9409 13.8862 20.9409 13.9581C20.9409 14.0277 20.9115 14.1 20.8606 14.1526C20.8103 14.2024 20.7417 14.2308 20.6682 14.2308Z" fill="white" stroke="white" stroke-width="0.5"/>
<path d="M28.4533 7.5017C28.4038 7.45167 28.3751 7.38113 28.3751 7.30924C28.3751 7.2397 28.4044 7.16737 28.4553 7.1148C28.5053 7.06531 28.5758 7.03656 28.6477 7.03656C28.7173 7.03656 28.7896 7.0659 28.8422 7.11677C28.8917 7.16681 28.9204 7.23735 28.9204 7.30924C28.9204 7.37878 28.8911 7.4511 28.8402 7.50367C28.7902 7.55316 28.7196 7.58192 28.6477 7.58192C28.5782 7.58192 28.5059 7.55258 28.4533 7.5017Z" fill="white" stroke="white" stroke-width="0.5"/>
<path d="M25.0157 6.2502L25.0139 6.25027C24.8633 6.25479 24.7453 6.38195 24.7509 6.53087L25.0157 6.2502ZM25.0157 6.2502C25.1663 6.24454 25.292 6.36189 25.2966 6.51315L25.2965 6.51315M25.0157 6.2502L25.2965 6.51315M25.2965 6.51315L25.2966 6.51509M25.2965 6.51315L25.2966 6.51509M25.2966 6.51509C25.3022 6.66303 25.186 6.78953 25.0368 6.79573M25.2966 6.51509L25.0368 6.79573M25.0368 6.79573H25.0368H25.0368H25.0367H25.0367H25.0367H25.0366H25.0366H25.0365H25.0365H25.0365H25.0364H25.0364H25.0364H25.0363H25.0363H25.0362H25.0362H25.0362H25.0361H25.0361H25.0361H25.036H25.036H25.0359H25.0359H25.0359H25.0358H25.0358H25.0358H25.0357H25.0357H25.0356H25.0356H25.0356H25.0355H25.0355H25.0355H25.0354H25.0354H25.0353H25.0353H25.0353H25.0352H25.0352H25.0352H25.0351H25.0351H25.0351H25.035H25.035H25.0349H25.0349H25.0349H25.0348H25.0348H25.0348H25.0347H25.0347H25.0346H25.0346H25.0346H25.0345H25.0345H25.0345H25.0344H25.0344H25.0344H25.0343H25.0343H25.0342H25.0342H25.0342H25.0341H25.0341H25.0341H25.034H25.034H25.0339H25.0339H25.0339H25.0338H25.0338H25.0338H25.0337H25.0337H25.0337H25.0336H25.0336H25.0335H25.0335H25.0335H25.0334H25.0334H25.0334H25.0333H25.0333H25.0333H25.0332H25.0332H25.0332H25.0331H25.0331H25.033H25.033H25.033H25.0329H25.0329H25.0329H25.0328H25.0328H25.0328H25.0327H25.0327H25.0326H25.0326H25.0326H25.0325H25.0325H25.0325H25.0324H25.0324H25.0324H25.0323H25.0323H25.0323H25.0322H25.0322H25.0321H25.0321H25.0321H25.032H25.032H25.032H25.0319H25.0319H25.0319H25.0318H25.0318H25.0318H25.0317H25.0317H25.0317H25.0316H25.0316H25.0315H25.0315H25.0315H25.0314H25.0314H25.0314H25.0313H25.0313H25.0313H25.0312H25.0312H25.0312H25.0311H25.0311H25.0311H25.031H25.031H25.031H25.0309H25.0309H25.0309H25.0308H25.0308H25.0308H25.0307H25.0307H25.0306H25.0306H25.0306H25.0305H25.0305H25.0305H25.0304H25.0304H25.0304H25.0303H25.0303H25.0303H25.0302H25.0302H25.0302H25.0301H25.0301H25.0301H25.03H25.03H25.03H25.0299H25.0299H25.0299H25.0298H25.0298H25.0298H25.0297H25.0297H25.0297H25.0296H25.0296H25.0296H25.0295H25.0295H25.0295H25.0294H25.0294H25.0294H25.0293H25.0293H25.0293H25.0292H25.0292H25.0292H25.0291H25.0291H25.0291H25.029H25.029H25.029H25.0289H25.0289H25.0289H25.0288H25.0288H25.0288H25.0287H25.0287H25.0287H25.0286H25.0286H25.0286H25.0285H25.0285H25.0285H25.0284H25.0284H25.0284H25.0284H25.0283H25.0283H25.0283H25.0282H25.0282H25.0282H25.0281H25.0281H25.0281H25.028H25.028H25.028H25.0279H25.0279H25.0279H25.0278H25.0278H25.0278H25.0277H25.0277H25.0277H25.0277H25.0276H25.0276H25.0276H25.0275H25.0275H25.0275H25.0274H25.0274H25.0274H25.0273H25.0273H25.0273H25.0272H25.0272H25.0272H25.0272H25.0271H25.0271H25.0271H25.027H25.027H25.027H25.0269H25.0269H25.0269H25.0268H25.0268H25.0268H25.0268H25.0267H25.0267H25.0267H25.0266H25.0266H25.0266H25.0265H25.0265H25.0265H25.0265H25.0264H25.0264H25.0264H25.0263H25.0263H25.0263H25.0262H25.0262H25.0262H25.0262H25.0261H25.0261H25.0261H25.026H25.026H25.026H25.026H25.0259H25.0259H25.0259H25.0258H25.0258H25.0258H25.0257H25.0257H25.0257H25.0257H25.0256H25.0256H25.0256H25.0255H25.0255H25.0255H25.0255H25.0254H25.0254H25.0254H25.0253H25.0253H25.0253H25.0253H25.0252H25.0252H25.0252H25.0252H25.0251H25.0251H25.0251H25.025H25.025H25.025H25.025H25.0249H25.0249H25.0249H25.0248H25.0248H25.0248H25.0248H25.0247H25.0247H25.0247H25.0247H25.0246H25.0246H25.0246H25.0245H25.0245H25.0245H25.0245H25.0244H25.0244H25.0244H25.0244H25.0243H25.0243H25.0243H25.0243H25.0242H25.0242H25.0242H25.0241H25.0241H25.0241H25.0241H25.024H25.024H25.024H25.024H25.0239H25.0239H25.0239H25.0239H25.0238H25.0238H25.0238H25.0238C24.8794 6.79573 24.7567 6.67989 24.7509 6.53101L25.0368 6.79573ZM19.5842 9.43324L19.5842 9.43323L19.5828 9.43227C19.458 9.34527 19.4281 9.17641 19.5142 9.05294C19.6001 8.92984 19.7688 8.89901 19.8942 8.9848C20.0183 9.07186 20.048 9.24017 19.9623 9.3634C19.908 9.44069 19.8242 9.48099 19.7382 9.48099C19.6822 9.48099 19.6287 9.46476 19.5842 9.43324ZM22.7549 6.95571L22.7548 6.95531C22.7089 6.81429 22.7868 6.65994 22.932 6.61269C23.073 6.5668 23.2274 6.64467 23.2746 6.78988C23.3205 6.9309 23.2426 7.08525 23.0974 7.1325L23.0974 7.13249L23.0957 7.13306C23.0692 7.14191 23.0414 7.14636 23.0136 7.14636C22.9002 7.14636 22.7929 7.07289 22.7549 6.95571ZM26.9952 6.99561L26.9952 6.99556L26.9899 6.9943C26.8443 6.95929 26.7536 6.81191 26.7891 6.66423C26.8242 6.51853 26.9715 6.42793 27.1192 6.46342C27.2647 6.49838 27.3553 6.64543 27.3202 6.79293C27.2893 6.91759 27.1784 7.00045 27.0557 7.00045V7.0001L27.0425 7.00079C27.0278 7.00157 27.0123 7.00013 26.9952 6.99561ZM21.1843 8.04798C21.0998 8.04798 21.0141 8.00723 20.9601 7.93039C20.8743 7.80694 20.9042 7.63828 21.0289 7.55134C21.1524 7.46525 21.3212 7.49515 21.4082 7.61993C21.4942 7.74324 21.4645 7.91184 21.3401 7.99893C21.2914 8.03239 21.2368 8.04798 21.1843 8.04798Z" fill="white" stroke="white" stroke-width="0.5"/>
<path d="M18.7499 11.7952C18.6998 11.7451 18.6707 11.6741 18.6707 11.6017C18.6707 11.5322 18.7 11.4598 18.7509 11.4073C18.8013 11.3574 18.8699 11.329 18.9434 11.329C19.0129 11.329 19.0852 11.3584 19.1378 11.4093C19.1873 11.4593 19.216 11.5298 19.216 11.6017C19.216 11.6713 19.1867 11.7436 19.1358 11.7962C19.0854 11.846 19.0169 11.8744 18.9434 11.8744C18.871 11.8744 18.8 11.8453 18.7499 11.7952Z" fill="white" stroke="white" stroke-width="0.5"/>
<path d="M4.83242 11.3238C4.78293 11.2738 4.75418 11.2032 4.75418 11.1313C4.75418 11.0618 4.78352 10.9894 4.8344 10.9369C4.88478 10.887 4.95335 10.8586 5.02686 10.8586C5.0964 10.8586 5.16872 10.888 5.22129 10.9389C5.27078 10.9889 5.29954 11.0594 5.29954 11.1313C5.29954 11.2009 5.2702 11.2732 5.21932 11.3258C5.16893 11.3756 5.10037 11.404 5.02686 11.404C4.95732 11.404 4.88499 11.3747 4.83242 11.3238Z" fill="white" stroke="white" stroke-width="0.5"/>
<path d="M8.68047 9.81321C8.53047 9.8166 8.41175 9.94013 8.41516 10.0933C8.41855 10.2413 8.53914 10.3586 8.6879 10.3586H8.68793H8.68795H8.68798H8.688H8.68803H8.68805H8.68808H8.6881H8.68813H8.68816H8.68818H8.68821H8.68823H8.68826H8.68828H8.68831H8.68833H8.68836H8.68839H8.68841H8.68844H8.68846H8.68849H8.68851H8.68854H8.68856H8.68859H8.68862H8.68864H8.68867H8.68869H8.68872H8.68874H8.68877H8.68879H8.68882H8.68885H8.68887H8.6889H8.68892H8.68895H8.68897H8.689H8.68902H8.68905H8.68907H8.6891H8.68913H8.68915H8.68918H8.6892H8.68923H8.68925H8.68928H8.6893H8.68933H8.68936H8.68938H8.68941H8.68943H8.68946H8.68948H8.68951H8.68953H8.68956H8.68959H8.68961H8.68964H8.68966H8.68969H8.68971H8.68974H8.68976H8.68979H8.68981H8.68984H8.68987H8.68989H8.68992H8.68994H8.68997H8.68999H8.69002H8.69004H8.69007H8.6901H8.69012H8.69015H8.69017H8.6902H8.69022H8.69025H8.69027H8.6903H8.69033H8.69035H8.69038H8.6904H8.69043H8.69045H8.69048H8.6905H8.69053H8.69056H8.69058H8.69061H8.69063H8.69066H8.69068H8.69071H8.69073H8.69076H8.69078H8.69081H8.69084H8.69086H8.69089H8.69091H8.69094H8.69096H8.69099H8.69101H8.69104H8.69107H8.69109H8.69112H8.69114H8.69117H8.69119H8.69122H8.69124H8.69127H8.6913H8.69132H8.69135H8.69137H8.6914H8.69142H8.69145H8.69147H8.6915H8.69152H8.69155H8.69158H8.6916H8.69163H8.69165H8.69168H8.6917H8.69173H8.69175H8.69178H8.69181H8.69183H8.69186H8.69188H8.69191H8.69193H8.69196H8.69198H8.69201H8.69204H8.69206H8.69209H8.69211H8.69214H8.69216H8.69219H8.69221H8.69224H8.69227H8.69229H8.69232H8.69234H8.69237H8.69239H8.69242H8.69244H8.69247H8.69249H8.69252H8.69255H8.69257H8.6926H8.69262H8.69265H8.69267H8.6927H8.69272H8.69275H8.69278H8.6928H8.69283H8.69285H8.69288H8.6929H8.69293H8.69295H8.69298H8.69301H8.69303H8.69306H8.69308H8.69311H8.69313H8.69316H8.69318H8.69321H8.69323H8.69326H8.69329H8.69331H8.69334H8.69336H8.69339H8.69341H8.69344H8.69346H8.69349H8.69352H8.69354H8.69357H8.69359H8.69362H8.69364H8.69367H8.69369H8.69372H8.69375H8.69377H8.6938H8.69382H8.69385H8.69387H8.6939H8.69392H8.69395H8.69397H8.694H8.69403H8.69405H8.69408H8.6941H8.69413H8.69415H8.69418H8.6942H8.69423H8.69426H8.69428H8.69431H8.69433H8.69436H8.69438H8.69441H8.69443H8.69446H8.69449H8.69451H8.69454H8.69456H8.69459H8.69461H8.69464H8.69466H8.69469H8.69472H8.69474H8.69477H8.69479H8.69482H8.69484H8.69487H8.69489H8.69492H8.69494H8.69497H8.695H8.69502H8.69505H8.69507H8.6951H8.69512H8.69515H8.69517H8.6952H8.69523H8.69525H8.69528H8.6953H8.69533H8.69535H8.69538H8.6954H8.69543H8.69546H8.69548H8.69551H8.69553H8.69556H8.69558H8.69561H8.69563H8.69566H8.69568H8.69571H8.69574H8.69576H8.69579H8.69581H8.69584H8.69586H8.69589H8.69591H8.69594H8.69597H8.69599H8.69602H8.69604H8.69607H8.69609H8.69612H8.69614H8.69617H8.6962H8.69622H8.69625H8.69627H8.6963H8.69632H8.69635H8.69637H8.6964H8.69642H8.69645H8.69648H8.6965H8.69653H8.69655H8.69658H8.6966H8.69663H8.69665H8.69668H8.69671H8.69673H8.69676H8.69678H8.69681H8.69683H8.69686H8.69688H8.69691H8.69694H8.69696H8.69699H8.69701H8.69704H8.69706H8.69709H8.69711H8.69714H8.69717H8.69719H8.69722H8.69724H8.69727H8.69729H8.69732H8.69734H8.69737H8.69739H8.69742H8.69745H8.69747H8.6975H8.69752H8.69755H8.69757H8.6976H8.69762H8.69765H8.69767C8.84515 10.354 8.96404 10.2302 8.96064 10.0786L8.68047 9.81321ZM8.68047 9.81321C8.83295 9.80977 8.95724 9.92995 8.96064 10.0785L8.68047 9.81321ZM13.9867 12.4623L13.9864 12.4626C13.9349 12.5061 13.8733 12.5273 13.812 12.5277C13.7317 12.5261 13.6541 12.4915 13.6018 12.4304C13.5053 12.3168 13.5186 12.1457 13.6347 12.0469C13.7482 11.9502 13.9195 11.9634 14.0183 12.0796C14.1156 12.1938 14.1008 12.3663 13.9867 12.4623ZM12.2126 11.2572L12.2126 11.2572L12.2112 11.2563C12.0831 11.1799 12.0413 11.0122 12.1188 10.8835L12.1193 10.8826C12.1957 10.7545 12.3634 10.7127 12.4921 10.7902L12.493 10.7907C12.6211 10.8671 12.6629 11.0348 12.5854 11.1636L12.5853 11.1638C12.5345 11.2484 12.4445 11.2963 12.3539 11.2973C12.3023 11.2956 12.2533 11.2818 12.2126 11.2572ZM6.53703 10.455L6.53703 10.455L6.53667 10.4538C6.49519 10.3114 6.57808 10.1593 6.72374 10.1169C6.86613 10.0754 7.01817 10.1583 7.06061 10.304C7.10191 10.4457 7.01993 10.597 6.87548 10.6403C6.84261 10.6491 6.81626 10.6526 6.79755 10.6526C6.68029 10.6526 6.57105 10.5741 6.53703 10.455ZM10.3216 10.2311L10.3221 10.2293C10.3585 10.0837 10.508 9.99503 10.6509 10.0319L10.6531 10.0324C10.7995 10.0687 10.8872 10.2172 10.8501 10.3611L10.8496 10.3634C10.8197 10.484 10.7121 10.567 10.5912 10.5698C10.5698 10.5683 10.5452 10.5647 10.5138 10.5586C10.3704 10.5202 10.2849 10.3734 10.3216 10.2311Z" fill="white" stroke="white" stroke-width="0.5"/>
<path d="M14.7836 14.2308V14.2308L14.7797 14.2309C14.7129 14.2319 14.6423 14.2037 14.5902 14.1516C14.5401 14.1015 14.511 14.0305 14.511 13.9582C14.511 13.8886 14.5403 13.8163 14.5912 13.7637C14.6412 13.7142 14.7117 13.6855 14.7836 13.6855C14.8532 13.6855 14.9255 13.7148 14.9781 13.7657C15.0276 13.8157 15.0563 13.8863 15.0563 13.9582C15.0563 14.0277 15.027 14.1 14.9761 14.1526C14.9261 14.2021 14.8555 14.2308 14.7836 14.2308Z" fill="white" stroke="white" stroke-width="0.5"/>
<path d="M6.60965 7.50177C6.56016 7.45173 6.5314 7.38119 6.5314 7.3093C6.5314 7.23975 6.56074 7.16743 6.61162 7.11486C6.662 7.065 6.73057 7.03662 6.80408 7.03662C6.87362 7.03662 6.94594 7.06596 6.99851 7.11683C7.048 7.16687 7.07676 7.23741 7.07676 7.3093C7.07676 7.37884 7.04742 7.45116 6.99655 7.50373C6.94651 7.55322 6.87597 7.58198 6.80408 7.58198C6.73454 7.58198 6.66222 7.55264 6.60965 7.50177Z" fill="white" stroke="white" stroke-width="0.5"/>
<path d="M8.46167 6.99653L8.46165 6.99648L8.45646 6.99784C8.43949 7.00231 8.42028 7.00477 8.39713 7.00486C8.27281 7.0032 8.16218 6.91917 8.13145 6.79513C8.09635 6.64765 8.1869 6.50061 8.3324 6.46565C8.48009 6.43016 8.62747 6.52076 8.66248 6.66646C8.69797 6.81414 8.60737 6.96152 8.46167 6.99653ZM15.4893 9.36347C15.4034 9.24002 15.4334 9.07134 15.5581 8.98441C15.6815 8.89832 15.8504 8.92821 15.9374 9.05299C16.0234 9.17631 15.9937 9.34491 15.8693 9.43201C15.8206 9.46545 15.766 9.48104 15.7134 9.48104C15.6274 9.48104 15.5436 9.44075 15.4893 9.36347ZM14.1093 7.99898C13.9866 7.91305 13.956 7.74457 14.0417 7.61934C14.1276 7.49677 14.296 7.46621 14.4212 7.55185C14.5437 7.63775 14.5743 7.80593 14.4889 7.93108C14.4345 8.00796 14.351 8.04803 14.2652 8.04803C14.2126 8.04803 14.158 8.03244 14.1093 7.99898ZM12.3536 7.13236C12.2108 7.08555 12.1323 6.93245 12.1773 6.78908C12.2242 6.64646 12.3772 6.56805 12.5205 6.61303C12.6632 6.65997 12.7416 6.81309 12.6965 6.95642C12.6584 7.07322 12.5512 7.14642 12.438 7.14642C12.4135 7.14642 12.385 7.14233 12.3536 7.13236ZM10.4404 6.79709C10.4299 6.79613 10.4199 6.79586 10.4139 6.7958C10.264 6.78819 10.1488 6.66301 10.1529 6.51417C10.1591 6.36219 10.2852 6.24681 10.4336 6.25243C10.584 6.25812 10.7025 6.38483 10.6985 6.53413C10.6925 6.67709 10.581 6.78844 10.4436 6.79738C10.4424 6.79727 10.4414 6.79717 10.4404 6.79709Z" fill="white" stroke="white" stroke-width="0.5"/>
<path d="M16.315 11.7952C16.2649 11.7451 16.2358 11.6741 16.2358 11.6018C16.2358 11.5322 16.2651 11.4599 16.316 11.4073C16.366 11.3579 16.4366 11.3291 16.5085 11.3291C16.578 11.3291 16.6503 11.3584 16.7029 11.4093C16.7524 11.4593 16.7811 11.5299 16.7811 11.6018C16.7811 11.6713 16.7518 11.7436 16.7009 11.7962C16.6509 11.8457 16.5803 11.8745 16.5085 11.8745C16.4361 11.8745 16.3651 11.8453 16.315 11.7952Z" fill="white" stroke="white" stroke-width="0.5"/>
<path d="M17.4532 13.3723C17.4532 13.2214 17.5758 13.0996 17.7258 13.0996C17.8767 13.0996 17.9985 13.2222 17.9985 13.3723C17.9985 13.5232 17.8759 13.645 17.7258 13.645C17.5758 13.645 17.4532 13.5232 17.4532 13.3723Z" fill="white" stroke="white" stroke-width="0.5"/>
</svg>
