<svg width="140" height="140" viewBox="0 0 140 140" fill="none" xmlns="http://www.w3.org/2000/svg">
<rect width="140" height="140" rx="12" fill="#D0F19E"/>
<circle opacity="0.6" cx="70" cy="70" r="45" fill="white"/>
<path d="M116.772 85.8431L115.765 84.4065L116.668 82.9016C116.962 82.4125 116.89 81.7847 116.494 81.3762L115.278 80.1226L115.941 78.5014C116.157 77.9755 115.994 77.3692 115.545 77.0253L114.165 75.9679L114.597 74.2744C114.732 73.7436 114.51 73.1857 114.048 72.8972L112.362 71.8436L112.488 69.8453C112.522 69.3191 112.225 68.828 111.747 68.6172L109.933 67.8187L109.787 65.8261C109.749 65.3019 109.391 64.8576 108.89 64.7137L106.99 64.167L106.587 62.2127C106.482 61.6983 106.069 61.3053 105.554 61.2286L103.599 60.9371L102.945 59.0521C102.772 58.5549 102.31 58.2198 101.789 58.2138L99.8076 58.1909L98.8969 56.4127C98.6558 55.9418 98.1473 55.6752 97.6269 55.7475L95.656 56.021L94.4737 54.4032C94.1585 53.9718 93.606 53.7912 93.1 53.9536L91.1916 54.5674L89.7198 53.1928C89.3235 52.8226 88.7356 52.7538 88.266 53.0232L86.5092 54.0304L84.7507 53.0223C84.2727 52.7483 83.6731 52.825 83.2774 53.2106L81.8133 54.6384L79.838 54.1392C79.4589 54.0432 79.0682 54.1356 78.7737 54.3681C78.6485 54.4669 78.5402 54.5906 78.4583 54.7368L77.4698 56.4993L76.4064 56.5345C75.9884 56.1264 75.269 55.3861 74.3154 54.2624C71.674 51.1495 67.2426 45.0982 62.4867 35.0549C63.9928 36.1646 65.7226 37.1031 67.662 37.8637C71.5674 44.5092 78.5463 48.4477 86.459 48.4477C86.5191 48.4477 86.5796 48.4474 86.6399 48.4469C91.525 48.41 96.439 47.0133 100.85 44.4079C105.59 41.6082 109.705 36.676 111.319 33.2508C111.537 32.7891 111.541 32.2685 111.331 31.7846C110.93 30.8603 109.743 29.7492 103.821 27.8927C103.696 27.8536 103.602 27.8241 103.544 27.805C96.1408 25.3687 89.7979 24.7813 84.1523 26.0095C78.3743 27.2664 73.0326 30.1933 69.1133 34.2487C69.0986 34.2636 69.0686 34.2933 69.0271 34.3344C68.8432 34.5163 68.4605 34.8949 68.129 35.2503C68.1046 35.2764 68.0794 35.3036 68.0541 35.3308C66.769 34.7947 65.5952 34.1714 64.541 33.4624C61.8189 31.6312 59.8847 29.2135 58.7921 26.2763C58.7301 26.1097 58.6362 25.9646 58.5208 25.8446C58.514 25.8271 58.507 25.8101 58.5002 25.7925C58.2486 25.1492 57.5278 24.8338 56.8914 25.0879C56.8335 25.1111 56.7792 25.1393 56.7268 25.1698C56.7128 25.1779 56.6988 25.1859 56.6851 25.1944C56.6727 25.2023 56.6607 25.2104 56.6488 25.2187C56.2291 25.5005 56.0049 26.0247 56.1277 26.5491C56.8992 29.8452 56.2239 33.1388 54.1193 36.3824C53.7586 36.3017 53.3753 36.2296 53.1845 36.1939L53.0965 36.1774C48.6584 35.2417 43.7741 35.7096 39.3432 37.4948C35.0159 39.2384 31.0348 42.5086 27.1726 47.4922C27.1431 47.5305 27.094 47.5918 27.0295 47.6725C24.0353 51.426 23.5392 52.851 23.7155 53.8358C23.8028 54.324 24.0773 54.7284 24.4883 54.9745C26.8806 56.4061 31.24 57.7312 35.3567 57.731C35.7386 57.731 36.1187 57.7196 36.4948 57.6958C40.6129 57.4353 44.5296 56.1356 47.8218 53.937C53.1953 50.3486 56.1718 44.5089 55.8544 38.2401C57.1594 36.3337 58.0515 34.3812 58.5205 32.4112C59.1592 33.7256 60.4573 36.6798 61.3455 40.5963C62.3915 45.2083 63.0531 52.0952 60.55 59.3188L59.6732 59.4344L58.4759 57.9328C58.1269 57.4949 57.5316 57.3459 57.0208 57.5677L55.2772 58.3245L53.7478 57.1924C53.3065 56.8659 52.7057 56.8697 52.2685 57.2024L50.7671 58.3456L49.0479 57.5805C48.5556 57.3616 47.9803 57.4878 47.6226 57.8931L46.3814 59.299L44.5697 58.8571C44.0536 58.7311 43.516 58.9509 43.2317 59.4034L42.2379 60.985L40.3911 60.8229C39.8686 60.7769 39.3706 61.0702 39.1538 61.5548L38.3924 63.2562L36.5463 63.3442C36.0227 63.3691 35.5712 63.7241 35.4185 64.2307L34.8811 66.0146L33.0629 66.3365C32.547 66.4278 32.1435 66.8368 32.0548 67.3582L31.7424 69.1962L29.978 69.7464C29.4766 69.9027 29.1269 70.361 29.1049 70.8905L29.0273 72.7567L27.3468 73.5373C26.8537 73.7664 26.5654 74.2927 26.6354 74.8363L26.8495 76.5033L25.42 77.3647C24.9379 77.6553 24.7094 78.2365 24.8625 78.7821L25.318 80.4037L24.0316 81.4785C23.5971 81.8414 23.4598 82.4549 23.6975 82.9712L24.4027 84.5041L23.3044 85.7795C22.933 86.2109 22.8978 86.8414 23.2189 87.3121L24.1704 88.7068L23.3032 90.157C23.0098 90.6477 23.0837 91.2771 23.4827 91.6849L24.6635 92.8917L24.0657 94.4776C23.8632 95.0147 24.0486 95.622 24.5153 95.9507L25.895 96.9224L25.5957 98.5943C25.4943 99.1607 25.7881 99.724 26.3079 99.9597L27.8435 100.656L27.8594 102.356C27.8648 102.932 28.2584 103.43 28.8131 103.563L30.4512 103.956L30.7835 105.623C30.8959 106.187 31.3748 106.601 31.9439 106.627L33.6239 106.702L34.2557 108.276C34.4699 108.81 35.0172 109.128 35.5817 109.046L37.2261 108.806L38.1162 110.223C38.4237 110.713 39.0233 110.925 39.5665 110.737L41.1405 110.19L42.2838 111.412C42.6788 111.834 43.3093 111.927 43.8068 111.635L45.2475 110.792L46.6038 111.768C46.82 111.923 47.0719 112 47.323 112C47.6159 112 47.9076 111.896 48.1403 111.69L49.3919 110.582L50.9064 111.277C51.4284 111.517 52.0452 111.364 52.3975 110.907L53.4181 109.583L55.0307 109.984C55.5854 110.121 56.1618 109.858 56.426 109.346L57.1919 107.863L58.8445 107.971C59.4123 108.008 59.9322 107.65 60.1056 107.102L60.6089 105.514L62.2517 105.346C62.8151 105.289 63.2684 104.854 63.3533 104.288L63.6002 102.644L65.1936 102.228C65.7389 102.085 66.1206 101.589 66.1227 101.02L66.1292 99.3627L67.644 98.7276C68.1452 98.5175 68.4529 98.0026 68.4034 97.4569L68.2564 95.8325C66.8439 95.0131 66.1278 93.3862 66.4745 91.7768L66.5656 91.3534L66.2341 91.0785C65.0616 90.1067 64.5971 88.5082 65.0455 87.0555C64.3688 86.9926 63.8672 86.3906 63.9235 85.705L64.0281 84.4352C63.8437 83.5994 63.9409 82.7046 64.3426 81.9089L64.533 81.5321L64.2862 81.1903C63.3619 79.9104 63.3341 78.1705 64.217 76.861L64.4568 76.5055L64.2522 76.1281C64.1186 75.8816 64.0164 75.6243 63.9418 75.3617C63.8839 75.3701 63.8251 75.3759 63.7651 75.3759C63.743 75.3759 63.7209 75.3752 63.6986 75.3741C63.0148 75.3375 62.4897 74.7482 62.5258 74.0575L62.6307 72.0507C62.6669 71.36 63.2505 70.8297 63.9343 70.8661C64.3951 70.8906 64.783 71.1669 64.9765 71.5554L65.0439 71.4796L64.8874 71.0599C64.3261 69.5548 64.7752 67.8566 66.005 66.8346L66.3711 66.5302L66.2779 66.0596C66.1059 65.1911 66.2451 64.3207 66.6314 63.5773L66.5735 63.126C66.5028 62.5754 66.0815 62.1375 65.5385 62.0503L63.6244 61.7429L62.9208 60.0619C64.8957 54.3142 65.0201 48.7868 64.494 44.2977C66.2271 47.3314 67.8074 49.7514 69.1212 51.6066C70.3542 53.3476 71.4506 54.7375 72.3621 55.8152C73.1174 56.7083 73.7448 57.386 74.2179 57.8713L73.83 59.4773L71.9226 60.0589C71.3989 60.2186 71.0407 60.706 71.0411 61.2587L71.0424 63.2552L69.3195 64.2299C68.8504 64.4953 68.604 65.0357 68.7096 65.5682L69.0943 67.5107L67.5807 68.7687C67.171 69.1092 67.0212 69.6755 67.2083 70.1771L67.8958 72.0213L66.5927 73.4865C66.2408 73.882 66.1747 74.4587 66.4275 74.925L67.3617 76.6481L66.2669 78.2712C65.9719 78.7088 65.981 79.2866 66.29 79.7143L67.4346 81.2994L66.552 83.047C66.3141 83.5183 66.3948 84.0898 66.754 84.4749L68.086 85.9031L67.4274 87.7494C67.2495 88.2481 67.4017 88.806 67.8073 89.1421L69.3113 90.3888L68.8978 92.3093C68.7823 92.845 69.0254 93.3942 69.4974 93.6647L71.0242 94.54L70.8361 96.3035C70.776 96.8672 71.0982 97.4014 71.6218 97.6058L72.6526 98.0082L73.2637 98.2468L73.3446 100.024C73.3705 100.592 73.7731 101.072 74.3245 101.191L76.0504 101.563L76.4177 103.307C76.5354 103.866 77.0132 104.273 77.5786 104.297L79.3453 104.372L80.0051 106.03C80.2167 106.562 80.7573 106.881 81.3216 106.804L83.0768 106.564L84.0205 108.078C84.3235 108.565 84.9159 108.78 85.4559 108.601L87.1412 108.043L88.3458 109.358C88.7329 109.781 89.3549 109.882 89.8542 109.605L91.4086 108.74L92.8367 109.804C93.056 109.968 93.3145 110.049 93.5728 110.049C93.8545 110.049 94.1358 109.952 94.3649 109.76L95.7306 108.615L97.3314 109.389C97.8455 109.638 98.4609 109.501 98.8234 109.057L99.9517 107.675L101.665 108.136C102.217 108.284 102.797 108.033 103.071 107.528L103.914 105.976L105.661 106.117C106.233 106.164 106.762 105.807 106.94 105.256L107.482 103.569L109.226 103.371C109.798 103.306 110.25 102.853 110.319 102.276L110.529 100.515L112.203 99.9796C112.751 99.8044 113.108 99.2716 113.065 98.6926L112.935 96.9249L114.476 96.0769C114.979 95.7997 115.229 95.2098 115.079 94.6506L114.623 92.9424L115.979 91.8235C116.422 91.4585 116.56 90.8353 116.314 90.3143L115.562 88.7209L116.701 87.3824C117.071 86.9471 117.101 86.3122 116.772 85.8431ZM70.8853 36.0008C74.4705 32.2913 79.3675 29.6125 84.6744 28.4581C89.8798 27.3256 95.8007 27.8912 102.775 30.1868C102.84 30.2082 102.946 30.2415 103.086 30.2852C105.458 31.0287 106.898 31.6037 107.773 32.0212C105.006 33.9058 100.015 35.0055 96.3499 35.8125C95.6225 35.9726 94.9353 36.1239 94.2993 36.2727C87.4691 37.8705 79.7889 38.1412 73.7545 36.9966C72.6655 36.7901 71.6273 36.5387 70.6397 36.2453C70.6791 36.2061 70.7198 36.1656 70.7622 36.1237C70.825 36.0618 70.8681 36.0186 70.8853 36.0008ZM73.2967 39.4586C76.2053 40.0103 79.0947 40.2173 81.7939 40.2173C87.5945 40.2173 92.5165 39.261 94.8586 38.713C95.4792 38.5679 96.1586 38.4182 96.878 38.2598C100.192 37.5301 104.149 36.658 107.211 35.1999C105.339 37.7265 102.581 40.4841 99.5985 42.2457C95.561 44.6304 91.0734 45.9088 86.6212 45.9425C86.5672 45.9428 86.5138 45.9431 86.46 45.9431C80.4957 45.9431 75.1345 43.432 71.5373 39.0776C72.1106 39.2168 72.6962 39.3446 73.2967 39.4586ZM29.2135 54.2704C31.6516 53.7499 34.2629 52.7057 36.4926 51.8139C37.0389 51.5953 37.5548 51.3889 38.0289 51.2066C40.6736 50.1886 47.4015 47.248 52.7421 41.9404C52.904 41.7794 53.0627 41.6179 53.2185 41.4559C52.57 45.6222 50.1815 49.3585 46.4543 51.8476C43.5232 53.8048 40.0258 54.9628 36.3399 55.1959C33.9669 55.3457 31.3784 54.9248 29.2135 54.2704ZM29.1253 49.0358C32.71 44.4103 36.3528 41.3961 40.262 39.8211C44.1983 38.2351 48.52 37.804 52.4484 38.6008C52.0031 39.1205 51.5223 39.6386 51.0028 40.1549C47.5296 43.6066 42.3495 46.8631 37.1459 48.866C36.6569 49.0542 36.1335 49.2635 35.5795 49.485C32.9693 50.529 29.4656 51.9297 26.8811 52.0812C27.2931 51.4352 27.9402 50.5228 28.9604 49.2438C29.0349 49.1506 29.0914 49.0799 29.1253 49.0358ZM58.4119 100.694L57.251 101.574C57.028 101.743 56.7668 101.825 56.5079 101.825C56.131 101.825 55.7588 101.652 55.5151 101.324C55.1042 100.771 55.2151 99.9854 55.7629 99.5703L56.9235 98.6906C57.4715 98.2755 58.2486 98.3876 58.6595 98.9409C59.0704 99.4942 58.9596 100.279 58.4119 100.694ZM51.2092 97.1373C50.7279 96.6452 50.7327 95.8522 51.22 95.3661L52.0106 94.5773C52.4977 94.0915 53.2829 94.0963 53.764 94.5882C54.2454 95.0803 54.2405 95.8733 53.7532 96.3594L52.9627 97.1482C52.7212 97.3891 52.4062 97.5095 52.0914 97.5095C51.7714 97.5095 51.4517 97.3852 51.2092 97.1373ZM44.2958 95.9127C43.9438 95.9127 43.594 95.762 43.3487 95.4693C42.9063 94.9414 42.9714 94.1511 43.4941 93.7043L44.7951 92.592C45.3178 92.145 46.1002 92.2108 46.5426 92.7388C46.985 93.2667 46.9199 94.057 46.3973 94.5038L45.0963 95.6161C44.8633 95.8153 44.5787 95.9127 44.2958 95.9127ZM40.5935 102.221L39.5027 102.985C39.2873 103.136 39.0412 103.208 38.7976 103.208C38.4045 103.208 38.018 103.02 37.7772 102.669C37.3872 102.1 37.5274 101.32 38.0902 100.926L39.1811 100.162C39.7438 99.7683 40.5164 99.9099 40.9064 100.478C41.2963 101.047 41.1563 101.827 40.5935 102.221ZM34.5376 94.0583L35.1294 92.829C35.429 92.2069 36.1711 91.9478 36.7867 92.2504C37.4025 92.5528 37.659 93.3023 37.3595 93.9243L36.7677 95.1537C36.5532 95.5994 36.1114 95.8587 35.6518 95.8587C35.4698 95.8587 35.285 95.8181 35.1105 95.7323C34.4946 95.43 34.2382 94.6804 34.5376 94.0583ZM32.3688 77.8762L33.1695 76.5518C33.5264 75.9615 34.2895 75.7753 34.8739 76.1357C35.4584 76.4962 35.6427 77.267 35.2858 77.8573L34.4851 79.1817C34.2513 79.5682 33.8435 79.7816 33.4257 79.7816C33.2055 79.7816 32.9824 79.7222 32.7807 79.5979C32.1963 79.2373 32.0119 78.4666 32.3688 77.8762ZM29.9485 87.4591C29.3278 87.1671 29.059 86.422 29.3481 85.7949L29.8633 84.6778C30.1523 84.0508 30.8896 83.7792 31.5108 84.0714C32.1315 84.3634 32.4003 85.1085 32.1111 85.7356L31.596 86.8527C31.3858 87.3086 30.9383 87.5766 30.4712 87.5766C30.2959 87.5765 30.1179 87.5388 29.9485 87.4591ZM39.6146 84.2729L39.1694 85.2738C38.9628 85.7381 38.5108 86.0132 38.0376 86.0132C37.8678 86.0132 37.6952 85.9778 37.5301 85.9029C36.9056 85.6195 36.6267 84.8782 36.9073 84.2472L37.3526 83.2463C37.6333 82.6153 38.3671 82.3335 38.9918 82.6172C39.6164 82.9006 39.8952 83.6419 39.6146 84.2729ZM40.9617 75.7654C40.3767 75.4058 40.191 74.6353 40.5469 74.0444L41.4575 72.5329C41.8134 71.942 42.576 71.7545 43.1613 72.114C43.7462 72.4735 43.932 73.244 43.576 73.8349L42.6654 75.3464C42.432 75.7339 42.0235 75.948 41.6049 75.948C41.3854 75.948 41.163 75.8891 40.9617 75.7654ZM45.9286 84.4883C46.5493 84.7803 46.8181 85.5254 46.529 86.1525L46.0138 87.2696C45.8036 87.7255 45.3561 87.9935 44.8891 87.9935C44.7137 87.9935 44.5357 87.9558 44.3663 87.8761C43.7456 87.584 43.4768 86.8389 43.766 86.2119L44.2811 85.0947C44.5702 84.4679 45.308 84.1965 45.9286 84.4883ZM46.6068 103.86C46.2342 103.28 46.398 102.504 46.9726 102.128L48.8269 100.913C49.4017 100.537 50.1693 100.703 50.5418 101.283C50.9144 101.863 50.7506 102.639 50.176 103.015L48.3217 104.23C48.1133 104.366 47.8796 104.431 47.6483 104.431C47.2422 104.431 46.8443 104.23 46.6068 103.86ZM50.3955 67.5189C50.9805 67.8784 51.1662 68.6489 50.8102 69.2398L50.2498 70.17C50.0163 70.5575 49.6079 70.7715 49.1893 70.7715C48.9697 70.7715 48.7474 70.7125 48.546 70.5888C47.961 70.2292 47.7753 69.4587 48.1313 68.8678L48.6917 67.9377C49.0476 67.3468 49.8104 67.1592 50.3955 67.5189ZM51.0977 78.5772C51.6827 78.9367 51.8685 79.7072 51.5125 80.2981L50.7935 81.4915C50.56 81.879 50.1515 82.0931 49.733 82.0931C49.5134 82.0931 49.2911 82.0341 49.0897 81.9103C48.5047 81.5508 48.319 80.7803 48.675 80.1894L49.394 78.996C49.75 78.405 50.5128 78.2176 51.0977 78.5772ZM53.1723 88.1888C52.9078 88.1888 52.6413 88.1036 52.4156 87.9278C51.8736 87.5052 51.7731 86.7187 52.1915 86.1712L52.8704 85.2826C53.2889 84.7349 54.0674 84.6336 54.6095 85.0563C55.1516 85.4788 55.252 86.2653 54.8337 86.8129L54.1547 87.7015C53.9105 88.0211 53.5435 88.1888 53.1723 88.1888ZM55.0404 77.0259C54.8515 77.0259 54.66 76.9822 54.48 76.89C53.8693 76.5769 53.6257 75.823 53.9358 75.2063L54.7312 73.624C55.0411 73.0072 55.7876 72.7612 56.398 73.0743C57.0086 73.3874 57.2522 74.1414 56.9421 74.7581L56.1468 76.3404C55.9282 76.7753 55.4925 77.0259 55.0404 77.0259ZM55.6765 66.299L56.4919 65.207C56.9043 64.6549 57.6819 64.5448 58.2285 64.9614C58.7752 65.378 58.8841 66.1633 58.4717 66.7155L57.6562 67.8074C57.4124 68.1338 57.0411 68.3058 56.6654 68.3058C56.4054 68.3058 56.1433 68.2235 55.9196 68.0532C55.3729 67.6366 55.2641 66.8513 55.6765 66.299ZM57.8295 90.9454C57.671 90.9454 57.5097 90.9144 57.354 90.849C56.7217 90.5835 56.4223 89.8505 56.6851 89.2118L57.3655 87.5587C57.6282 86.92 58.354 86.6176 58.9862 86.883C59.6186 87.1485 59.918 87.8816 59.6552 88.5203L58.9748 90.1734C58.7768 90.655 58.3155 90.9454 57.8295 90.9454ZM60.0109 82.011C59.3381 81.8818 58.8966 81.2261 59.0244 80.5467L59.2394 79.4043C59.3673 78.7248 60.0149 78.2787 60.6891 78.4077C61.3619 78.537 61.8034 79.1926 61.6756 79.872L61.4606 81.0145C61.3475 81.6149 60.8276 82.0332 60.2439 82.0332C60.1671 82.0333 60.0893 82.026 60.0109 82.011ZM63.0474 92.6048C63.6561 92.9218 63.8951 93.6771 63.5814 94.2919L63.0836 95.2673C62.8635 95.6985 62.43 95.9461 61.9806 95.9461C61.7893 95.9461 61.5953 95.9013 61.4135 95.8067C60.8048 95.4897 60.5658 94.7344 60.8795 94.1196L61.3773 93.1442C61.6911 92.5293 62.4389 92.2881 63.0474 92.6048ZM107.969 84.7537L107.972 83.2336C107.973 82.5425 108.528 81.9831 109.212 81.9831H109.214C109.898 81.9841 110.453 82.5458 110.452 83.2374L110.449 84.7574C110.448 85.4485 109.893 86.008 109.209 86.008C109.209 86.008 109.208 86.008 109.207 86.008C108.523 86.007 107.968 85.4454 107.969 84.7537ZM102.915 87.0126C102.304 87.0126 101.772 86.5561 101.688 85.9274L101.534 84.7741C101.442 84.0885 101.918 83.4579 102.597 83.3656C103.276 83.2737 103.9 83.754 103.991 84.4394L104.145 85.5928C104.237 86.2784 103.761 86.9089 103.082 87.0013C103.026 87.0089 102.97 87.0126 102.915 87.0126ZM99.2516 101.69C98.5673 101.663 98.0345 101.08 98.0613 100.389L98.1153 99.0004C98.1421 98.3091 98.7153 97.7686 99.403 97.798C100.087 97.8252 100.62 98.4075 100.593 99.0987L100.539 100.488C100.513 101.162 99.9634 101.691 99.3012 101.691C99.2847 101.691 99.2682 101.691 99.2516 101.69ZM96.7445 92.5407C96.092 92.5407 95.5455 92.0261 95.5077 91.3599L95.4066 89.5777C95.3674 88.8871 95.8898 88.2952 96.5735 88.2557C97.2589 88.2165 97.843 88.7439 97.8823 89.4343L97.9834 91.2165C98.0226 91.9071 97.5002 92.499 96.8165 92.5385C96.7923 92.5399 96.7683 92.5407 96.7445 92.5407ZM90.2082 99.0573L89.5689 97.7954C89.257 97.1796 89.4984 96.425 90.1079 96.1099C90.7176 95.7948 91.4645 96.0385 91.7766 96.6543L92.4159 97.9163C92.7278 98.5321 92.4864 99.2867 91.8769 99.6018C91.696 99.6952 91.503 99.7395 91.313 99.7395C90.8623 99.7395 90.4276 99.4904 90.2082 99.0573ZM83.6383 90.9551L83.095 89.9585C82.7647 89.3525 82.9833 88.5909 83.5832 88.2573C84.1829 87.9237 84.9371 88.1443 85.2673 88.7504L85.8106 89.747C86.141 90.353 85.9224 91.1145 85.3225 91.4482C85.1329 91.5536 84.9277 91.6037 84.7256 91.6037C84.2882 91.6037 83.8641 91.3695 83.6383 90.9551ZM75.5851 90.7857L74.9982 89.2897C74.746 88.6467 75.0576 87.9188 75.6942 87.6639C76.3305 87.4092 77.0514 87.7239 77.3036 88.3669L77.8904 89.8629C78.1426 90.5059 77.831 91.2338 77.1945 91.4886C77.0447 91.5486 76.8901 91.5771 76.738 91.5771C76.2447 91.5769 75.778 91.2774 75.5851 90.7857ZM77.542 81.5525L76.87 79.848C76.6165 79.2054 76.9269 78.477 77.5631 78.2211C78.1993 77.9651 78.9204 78.2787 79.1737 78.9213L79.8457 80.6259C80.0992 81.2685 79.7888 81.9969 79.1526 82.2527C79.0021 82.3132 78.8469 82.3419 78.6942 82.3419C78.2014 82.3419 77.7353 82.0431 77.542 81.5525ZM82.6213 62.0125L83.0083 63.3759C83.1971 64.0408 82.8165 64.7344 82.1584 64.925C82.0442 64.9581 81.929 64.9738 81.8159 64.9738C81.2768 64.9738 80.7806 64.6159 80.6248 64.0663L80.2377 62.703C80.049 62.0381 80.4295 61.3445 81.0876 61.1539C81.7459 60.9632 82.4327 61.3479 82.6213 62.0125ZM78.3053 69.3019C78.9409 69.0462 79.6623 69.3594 79.9159 70.0021L80.3294 71.051C80.5827 71.6937 80.2723 72.4221 79.6361 72.6779C79.4857 72.7384 79.3303 72.7671 79.1778 72.7671C78.6849 72.7671 78.219 72.4684 78.0254 71.9777L77.6119 70.9288C77.3586 70.2862 77.6691 69.5578 78.3053 69.3019ZM80.1103 95.4246C80.715 95.0992 81.4658 95.3307 81.7877 95.941L82.3827 97.0688C82.7048 97.6792 82.4759 98.4378 81.8716 98.763C81.6859 98.863 81.4862 98.9104 81.2896 98.9104C80.8462 98.9104 80.4173 98.6696 80.1943 98.2468L79.5992 97.119C79.2772 96.5083 79.506 95.7498 80.1103 95.4246ZM88.267 68.3149L89.0689 69.9672C89.3703 70.5883 89.1161 71.3386 88.5012 71.6431C88.3257 71.73 88.1396 71.7712 87.9564 71.7712C87.498 71.7712 87.0575 71.5134 86.8421 71.0697L86.0403 69.4174C85.7389 68.7963 85.993 68.046 86.6079 67.7416C87.2234 67.4371 87.9656 67.6938 88.267 68.3149ZM87.1199 77.2367C86.8664 76.5941 87.1769 75.8657 87.8131 75.6098C88.449 75.354 89.1703 75.6674 89.4236 76.31L89.9542 77.656C90.2076 78.2986 89.8971 79.027 89.2609 79.2829C89.1105 79.3434 88.9552 79.3721 88.8027 79.3721C88.3098 79.3721 87.8438 79.0734 87.6504 78.5827L87.1199 77.2367ZM91.2577 59.8922L92.8383 61.2311C93.3629 61.6756 93.4316 62.4655 92.9915 62.9955C92.7463 63.2909 92.3949 63.4431 92.0409 63.4431C91.7597 63.4431 91.477 63.3471 91.2448 63.1503L89.6641 61.8114C89.1395 61.3669 89.0709 60.577 89.5109 60.047C89.9508 59.517 90.7329 59.4477 91.2577 59.8922ZM89.4427 83.6194C90.0475 83.294 90.7983 83.5253 91.12 84.1357L91.7151 85.2635C92.0372 85.874 91.8083 86.6325 91.204 86.9578C91.0182 87.0577 90.8186 87.1052 90.622 87.1052C90.1786 87.1052 89.7497 86.8644 89.5266 86.4416L88.9316 85.3138C88.6095 84.7032 88.8384 83.9446 89.4427 83.6194ZM93.6688 67.4694C94.1755 67.004 94.9596 67.042 95.4203 67.5537L96.2234 68.446C96.684 68.9578 96.6466 69.7499 96.1399 70.2152C95.9023 70.4334 95.6038 70.5409 95.3062 70.5409C94.9689 70.5409 94.633 70.4028 94.3884 70.131L93.5853 69.2387C93.1247 68.7267 93.162 67.9345 93.6688 67.4694ZM95.3121 76.7128C95.9719 76.5296 96.6548 76.9215 96.8363 77.5884L97.1419 78.7104C97.3235 79.3773 96.9354 80.0667 96.2752 80.25C96.1652 80.2806 96.0546 80.2951 95.9457 80.2951C95.4014 80.2951 94.9022 79.9303 94.751 79.3744L94.4454 78.2524C94.2638 77.5856 94.6519 76.8963 95.3121 76.7128ZM100.042 77.4992L99.1106 75.8991C98.7634 75.303 98.9606 74.5354 99.5509 74.1847C100.141 73.8339 100.901 74.0333 101.248 74.6293L102.18 76.2294C102.527 76.8255 102.33 77.5931 101.74 77.9438C101.542 78.0612 101.326 78.1169 101.112 78.1169C100.687 78.1169 100.273 77.8961 100.042 77.4992ZM102.155 66.3247L103.321 67.3747C103.832 67.835 103.877 68.6268 103.421 69.143C103.176 69.4204 102.836 69.5619 102.495 69.5619C102.202 69.5619 101.907 69.4572 101.67 69.2443L100.505 68.1943C99.9935 67.734 99.9486 66.9423 100.404 66.426C100.86 65.9098 101.644 65.8643 102.155 66.3247ZM104.586 93.7075L104.746 91.3985C104.794 90.7085 105.386 90.1886 106.069 90.2366C106.752 90.285 107.267 90.8835 107.22 91.5734L107.059 93.8825C107.014 94.5426 106.469 95.0475 105.824 95.0475C105.795 95.0475 105.765 95.0465 105.736 95.0444C105.053 94.996 104.538 94.3975 104.586 93.7075ZM106.685 77.0528L106.195 76.0281C105.898 75.4052 106.156 74.6565 106.773 74.3559C107.39 74.0555 108.131 74.3166 108.428 74.9397L108.918 75.9644C109.216 76.5873 108.957 77.336 108.34 77.6366C108.167 77.7213 107.983 77.7613 107.802 77.7613C107.341 77.7612 106.898 77.5003 106.685 77.0528Z" fill="#1A5C4B"/>
</svg>
