<svg width="36" height="36" viewBox="0 0 36 36" fill="none" xmlns="http://www.w3.org/2000/svg">
<rect width="36" height="36" rx="18" fill="#006633"/>
<path d="M9.98897 16.2317C9.86081 16.2317 9.20476 16.25 8.87522 16.6803C8.62195 17.019 8.65857 17.4736 8.69824 17.7208C8.62501 17.7696 8.53041 17.8306 8.43582 17.913V16.4179C8.58229 16.2439 8.89658 15.8259 8.83555 15.3773C8.75621 14.7945 8.10932 14.4375 8.08186 14.4314C7.99337 14.3765 7.88658 14.4009 7.81029 14.4619C7.79198 14.4802 7.25799 14.9959 7.34038 15.5818C7.39836 16.0181 7.77978 16.3263 7.97812 16.4545V17.913C7.88047 17.8306 7.78893 17.7696 7.7096 17.7208C7.75232 17.4736 7.78588 17.019 7.53567 16.6803C7.20612 16.25 6.55313 16.2317 6.40971 16.2317C6.31207 16.2317 6.22358 16.2927 6.19612 16.3904C6.18391 16.4209 5.97947 17.1288 6.33343 17.5957C6.62331 17.971 7.1573 18.0442 7.37089 18.0564C7.54177 18.1419 7.91099 18.4012 7.95981 18.6789C7.96286 18.6972 7.96896 18.7094 7.97506 18.7155V19.2556C7.97506 19.3807 8.07576 19.4784 8.20392 19.4784C8.33207 19.4784 8.43277 19.3807 8.43277 19.2556V18.7186C8.43887 18.7125 8.44497 18.7003 8.44803 18.682C8.50295 18.4043 8.85996 18.1449 9.03999 18.0595C9.25664 18.0473 9.79368 17.974 10.0805 17.5987C10.4345 17.1319 10.227 16.424 10.2178 16.3934C10.1873 16.2927 10.0927 16.2317 9.98897 16.2317ZM6.5989 16.7016C6.79419 16.7321 7.0444 16.8054 7.1695 16.964C7.29461 17.1319 7.29461 17.3943 7.26715 17.5804C7.09322 17.553 6.8308 17.4919 6.69654 17.3211C6.57449 17.1624 6.57449 16.8969 6.5989 16.7016ZM8.01168 14.9288C8.1612 15.0386 8.35038 15.237 8.37784 15.4384C8.40531 15.6398 8.27715 15.8747 8.1612 16.0151C8.01168 15.9052 7.8225 15.7221 7.79503 15.5208C7.76757 15.3163 7.89573 15.0814 8.01168 14.9288ZM9.71434 17.3211C9.59229 17.4858 9.33903 17.553 9.14374 17.5835C9.11933 17.3943 9.11933 17.1319 9.24443 16.964C9.36649 16.8054 9.6167 16.7291 9.81504 16.7016C9.83945 16.8969 9.83945 17.1624 9.71434 17.3211Z" fill="white" stroke="white" stroke-width="0.2"/>
<path d="M25.6638 12.445L23.9063 13.1254C23.8757 13.1315 23.8452 13.1438 23.8239 13.1651L13.7879 22.9569C13.7391 22.9997 13.7177 23.0729 13.7177 23.1339C13.7208 23.2041 13.7513 23.2529 13.8032 23.3078L14.0259 23.4909L10.4253 26.0419C9.72962 26.5179 9.19258 26.646 8.83251 26.4324C8.17342 26.0388 8.10934 24.562 8.15206 23.8052H10.0988C10.8251 23.8052 11.414 23.2163 11.414 22.4901V22.188C12.8603 21.474 13.9405 20.0154 14.0503 19.8629C16.5982 16.8237 15.9239 13.101 15.8934 12.9485C15.6065 11.2244 14.9536 10.2114 13.9588 9.91541C12.9732 9.61943 11.9449 10.1351 11.2095 10.6905C10.9746 10.3212 10.5657 10.0741 10.0988 10.0741H8.43584V9.2319C8.43584 9.09764 8.33209 9 8.20698 9H6.58061C6.4555 9 6.35175 9.09764 6.35175 9.2319V10.0741H6.31209C5.58891 10.0741 5 10.663 5 11.3923V22.4901C5 23.2163 5.58891 23.8052 6.31209 23.8052H7.6913C7.65469 24.4857 7.65469 26.2707 8.59756 26.8322C8.78369 26.939 8.98813 27 9.21393 27C9.63502 27 10.1263 26.8047 10.6847 26.4263L14.3921 23.7869L14.6179 23.9791C14.6637 24.0097 14.7125 24.028 14.7644 24.028C14.8284 24.028 14.8956 23.9975 14.9383 23.9486L17.1566 21.297L24.2633 14.5565L25.4411 14.4711C25.5479 14.465 25.6333 14.3796 25.6516 14.2789L25.9659 12.7105C25.9903 12.622 25.9568 12.5365 25.8957 12.4786C25.8317 12.4297 25.7401 12.4114 25.6638 12.445ZM5.4577 12.8935H10.9532V21.062C10.938 21.117 10.941 21.1536 10.9532 21.2024V21.2268H5.4577V12.8935ZM11.414 12.1368C11.4506 12.1246 11.4842 12.1063 11.5147 12.0758C11.9388 11.612 12.8542 10.9132 13.5926 11.1268C14.0717 11.2672 14.444 11.9995 14.6454 13.1743C14.6484 13.2048 15.2282 16.4819 13.0617 19.0665L13.0373 19.0939C13.0312 19.1061 12.3446 20.052 11.414 20.705V12.1368ZM13.8245 10.3518C14.6423 10.5989 15.1855 11.496 15.4448 13.0339C15.4723 13.1865 16.11 16.6864 13.6903 19.573C13.5804 19.7255 12.6589 20.9705 11.414 21.6632V21.2573C12.5552 20.5494 13.4004 19.3685 13.4065 19.3685L13.4187 19.3502C15.7317 16.6009 15.1031 13.1254 15.097 13.0949C14.859 11.6974 14.3952 10.8918 13.7239 10.6905C12.8054 10.4128 11.8503 11.139 11.414 11.5326V11.3923C11.414 11.3007 11.4048 11.2183 11.3865 11.1268C12.0426 10.6294 12.9824 10.1015 13.8245 10.3518ZM6.81251 9.45465H7.97813V10.0771H6.81251V9.45465ZM6.31209 10.5379H6.58061H8.20698H10.0988C10.5718 10.5379 10.9532 10.9254 10.9532 11.3923V12.4297H5.4577V11.3923C5.4577 10.9254 5.84218 10.5379 6.31209 10.5379ZM5.4577 22.4901V21.6845H10.9532V22.4901C10.9532 22.9569 10.5718 23.3445 10.0988 23.3445H6.31209C5.84218 23.3445 5.4577 22.9569 5.4577 22.4901ZM14.7369 23.4787L14.2914 23.1095L16.525 20.9308L16.6959 21.1322L14.7369 23.4787ZM25.2397 14.0195L24.1504 14.1049C24.0954 14.1049 24.0497 14.1232 24.007 14.169L17.0163 20.7966L16.8546 20.6104L24.1138 13.5313L25.438 13.0217L25.2397 14.0195Z" fill="white" stroke="white" stroke-width="0.2"/>
<path d="M31.2173 13.397C31.2173 13.2719 31.1136 13.1743 30.9885 13.1743H29.2767C29.1485 13.1743 29.0448 13.2719 29.0448 13.397C29.0448 13.5313 29.1485 13.6289 29.2767 13.6289H30.9915C31.1136 13.6289 31.2173 13.5313 31.2173 13.397Z" fill="white" stroke="white" stroke-width="0.2"/>
<path d="M28.2849 13.397C28.2849 13.2719 28.1812 13.1743 28.0561 13.1743H26.6586C26.5304 13.1743 26.4297 13.2719 26.4297 13.397C26.4297 13.5313 26.5304 13.6289 26.6586 13.6289H28.0561C28.1812 13.6289 28.2849 13.5313 28.2849 13.397Z" fill="white" stroke="white" stroke-width="0.2"/>
<path d="M29.3773 11.3129C29.4079 11.3129 29.4353 11.3007 29.4597 11.2885L31.0647 10.7118C31.1868 10.6599 31.2478 10.5226 31.2051 10.4006C31.1593 10.2907 31.0281 10.2297 30.9122 10.2724L29.298 10.8644C29.179 10.8979 29.121 11.0353 29.1637 11.1573C29.1973 11.2519 29.2889 11.3129 29.3773 11.3129Z" fill="white" stroke="white" stroke-width="0.2"/>
<path d="M26.921 12.21C26.9515 12.21 26.9759 12.1978 26.9973 12.1978L28.3155 11.7066C28.4345 11.6669 28.4955 11.5326 28.4528 11.4228C28.407 11.3007 28.2727 11.2366 28.1537 11.2824L26.8417 11.7615C26.7227 11.7981 26.6586 11.9354 26.7074 12.0575C26.741 12.149 26.8294 12.21 26.921 12.21Z" fill="white" stroke="white" stroke-width="0.2"/>
<path d="M28.6084 15.2034L27.0003 14.6145C26.8813 14.5718 26.7501 14.6328 26.7074 14.7579C26.6586 14.8678 26.7227 14.9959 26.8417 15.0509L28.4528 15.6428C28.4772 15.6428 28.5077 15.655 28.5291 15.655C28.6237 15.655 28.7152 15.591 28.7427 15.5025C28.7884 15.3774 28.7304 15.2431 28.6084 15.2034Z" fill="white" stroke="white" stroke-width="0.2"/>
<path d="M31.0678 16.0975L29.7527 15.6245C29.6398 15.5818 29.5025 15.6428 29.4598 15.7649C29.414 15.8747 29.4781 16.0059 29.5971 16.0487L30.9122 16.5399C30.9366 16.546 30.9641 16.546 30.9885 16.546C31.08 16.546 31.1716 16.485 31.2021 16.3935C31.2479 16.2836 31.1868 16.1402 31.0678 16.0975Z" fill="white" stroke="white" stroke-width="0.2"/>
</svg>
