<svg width="36" height="36" viewBox="0 0 36 36" fill="none" xmlns="http://www.w3.org/2000/svg">
<g clip-path="url(#clip0_96_7080)">
<rect width="36" height="36" rx="18" fill="#006633"/>
<path d="M6.30147 18.3754C6.31254 18.3953 6.32467 18.4145 6.33927 18.4321C6.41455 18.5224 6.51977 18.5772 6.61274 18.6187C6.94311 18.7664 7.32494 18.8435 7.72323 18.8434C7.75944 18.8434 7.79579 18.8428 7.83213 18.8415C8.28828 18.8255 8.70019 18.7091 9.02321 18.505C9.47854 18.2173 9.78291 17.7484 10.0204 17.3277C10.0341 17.3037 10.0321 17.2739 10.0155 17.2517C9.99894 17.2296 9.97076 17.219 9.94408 17.2255C9.45376 17.3384 8.93296 17.2398 8.473 17.1527C8.11064 17.0842 7.73589 17.0134 7.36264 17.0644C7.07366 17.1038 6.82047 17.2136 6.63044 17.3819C6.48179 17.5134 6.36963 17.6842 6.30565 17.8757C6.2735 17.9724 6.23596 18.1105 6.25642 18.243C6.18949 18.2757 6.12439 18.3127 6.05936 18.3499C6.06202 17.9234 6.07985 17.4188 6.13603 17C6.17354 17.0075 6.21209 17.0126 6.25243 17.0127H6.25392C6.36636 17.0127 6.48846 16.9855 6.63793 16.927C7.35815 16.6455 7.95832 16.0142 8.24363 15.2382C8.5073 14.5206 8.51179 13.6878 8.25643 12.8934C8.24826 12.8679 8.22621 12.8494 8.1998 12.8457C8.17217 12.8418 8.14698 12.8539 8.13215 12.8761C7.84084 13.313 7.4141 13.6115 6.96244 13.9276C6.62472 14.1639 6.27543 14.4083 5.99148 14.7149C5.90041 14.8132 5.81942 14.9157 5.75081 15.0197C5.42548 15.5123 5.32788 16.2736 5.77055 16.7757C5.84052 16.8551 5.91902 16.9164 6.0011 16.9561C5.95545 17.2826 5.93344 17.6586 5.9243 18.0117C5.86124 17.8882 5.7931 17.7748 5.7215 17.6712C5.74592 17.6189 5.76543 17.5674 5.77749 17.5228C5.82936 17.3318 5.82105 17.1251 5.75449 16.9405C5.67812 16.7292 5.51981 16.5301 5.29657 16.3647C4.98485 16.1338 4.59363 15.9925 4.16525 15.9563C3.93725 15.9371 3.36553 15.9126 2.97704 16.1014C2.95607 16.1116 2.94165 16.1316 2.93851 16.1547C2.93538 16.1779 2.94396 16.201 2.96152 16.2164C3.01529 16.2639 3.07654 16.304 3.13562 16.3428C3.19293 16.3805 3.24697 16.416 3.29488 16.4575C3.38432 16.535 3.47593 16.6273 3.57516 16.7396C3.68038 16.8585 3.78112 16.9858 3.87872 17.1087C3.94637 17.1942 4.01416 17.2796 4.08399 17.3634C4.27619 17.5942 4.5155 17.8467 4.83253 17.9694C4.92754 18.0061 5.04161 18.0312 5.15773 18.0312C5.29113 18.0312 5.42725 17.9979 5.53969 17.9102C5.58025 17.8786 5.61314 17.842 5.64234 17.8037C5.74565 17.9596 5.84089 18.1368 5.91909 18.337C5.91628 18.7696 5.92936 19.1227 5.93403 19.2325C5.92975 19.2325 5.92554 19.232 5.92124 19.232C5.2021 19.232 4.57131 19.6744 4.32438 20.3419C4.15872 20.2472 3.97169 20.1975 3.77839 20.1975C3.18286 20.1975 2.68818 20.6816 2.6758 21.2767C2.67539 21.2954 2.6826 21.3135 2.69567 21.3268C2.70888 21.3403 2.72671 21.3478 2.74549 21.3478H9.33003C9.36692 21.3478 9.39741 21.319 9.39959 21.2822C9.40095 21.2598 9.40149 21.2373 9.40149 21.2146C9.40149 20.5592 8.8683 20.0261 8.213 20.0261C7.94988 20.0261 7.69669 20.1125 7.48978 20.2713C7.24497 19.6926 6.6973 19.2959 6.07379 19.2397C6.07064 19.1649 6.05977 18.8791 6.05901 18.5092C6.13837 18.4612 6.21902 18.4162 6.30147 18.3754ZM5.45393 17.8004C5.28963 17.9283 5.05128 17.9044 4.88289 17.8394C4.59554 17.7282 4.37189 17.4913 4.19098 17.2741C4.12197 17.1913 4.05499 17.1067 3.98789 17.0222C3.8892 16.8977 3.78724 16.769 3.6797 16.6473C3.57639 16.5303 3.48028 16.4337 3.38609 16.3521C3.33123 16.3046 3.27065 16.2648 3.21212 16.2264C3.18939 16.2114 3.16707 16.1968 3.14556 16.182C3.49635 16.0577 3.9578 16.0787 4.15355 16.0951C4.55606 16.1292 4.92264 16.2611 5.21354 16.4767C5.41473 16.6257 5.55643 16.8025 5.62327 16.9879C5.6803 17.1458 5.68738 17.3228 5.643 17.4863C5.63852 17.5028 5.63195 17.5215 5.6257 17.5397C5.18939 16.9763 4.68894 16.742 4.66047 16.729C4.62549 16.7132 4.5841 16.7286 4.56818 16.7636C4.55225 16.7986 4.56777 16.84 4.60275 16.8559C4.60955 16.859 5.12706 17.1016 5.5568 17.682C5.52927 17.7252 5.49691 17.7668 5.45393 17.8004ZM7.3945 20.4103C7.40226 20.4322 7.42063 20.4489 7.44323 20.4545C7.4661 20.4604 7.48978 20.4541 7.50707 20.4384C7.70036 20.2624 7.9511 20.1654 8.213 20.1654C8.78935 20.1654 9.2587 20.6328 9.2621 21.2084H2.81927C2.86596 20.7217 3.28209 20.3369 3.77839 20.3369C3.974 20.3369 4.16212 20.3951 4.32248 20.5052C4.34085 20.5178 4.36399 20.5208 4.38468 20.5136C4.40565 20.5064 4.42185 20.4896 4.42852 20.4685C4.63338 19.8123 5.23327 19.3714 5.92124 19.3714C6.58116 19.3714 7.1733 19.7889 7.3945 20.4103ZM6.43796 17.9198C6.49404 17.7515 6.5926 17.6016 6.72273 17.4863C6.8922 17.3363 7.11994 17.2382 7.38143 17.2025C7.46337 17.1913 7.54587 17.1865 7.62876 17.1865C7.90128 17.1865 8.17775 17.2387 8.44727 17.2897C8.87442 17.3705 9.35276 17.4609 9.82361 17.3901C9.60622 17.7589 9.33221 18.1449 8.94875 18.3871C8.64669 18.5781 8.25874 18.6871 7.82723 18.7023C7.4111 18.717 7.01077 18.644 6.66964 18.4915C6.59124 18.4564 6.50344 18.4113 6.44626 18.3428C6.44002 18.3352 6.43539 18.3268 6.43024 18.3187C7.01337 18.0608 7.66819 17.9717 8.38533 18.0596C8.42331 18.0653 8.4583 18.0372 8.46292 17.999C8.46769 17.9607 8.44046 17.926 8.40221 17.9213C7.66627 17.8307 6.99266 17.9212 6.39072 18.1838C6.38743 18.1121 6.40277 18.0252 6.43796 17.9198ZM5.87509 16.6836C5.4787 16.2339 5.57099 15.5448 5.86706 15.0964C5.93158 14.9988 6.00781 14.9023 6.09371 14.8097C6.36759 14.514 6.71062 14.274 7.04235 14.0418C7.44595 13.7594 7.86221 13.4681 8.16441 13.0708C8.36832 13.7944 8.3509 14.5419 8.11268 15.1902C7.84098 15.9292 7.27076 16.53 6.58729 16.7972C6.45389 16.8494 6.35016 16.8732 6.2527 16.8733C6.2185 16.8732 6.18705 16.8688 6.15645 16.8622C6.1676 16.7943 6.17982 16.7291 6.19348 16.6681C6.35193 15.9605 6.81747 15.1657 7.3798 14.6431C7.40797 14.6169 7.40961 14.5728 7.38333 14.5446C7.35706 14.5163 7.31296 14.5148 7.28478 14.541C6.7034 15.0815 6.22166 15.9045 6.05736 16.6376C6.04518 16.692 6.03406 16.7492 6.02383 16.8087C5.97198 16.7775 5.92156 16.7363 5.87509 16.6836Z" stroke="white" stroke-width="0.3"/>
<path fill-rule="evenodd" clip-rule="evenodd" d="M2.36324 21.003C2.38218 21.0285 2.40092 21.0543 2.41947 21.0801H2.06327C1.81987 21.0801 1.61803 21.282 1.61803 21.5254V39.1095H-0.554757C-0.798157 39.1095 -1 39.3054 -1 39.5547C-1 39.8041 -0.798157 40 -0.554757 40H2.08108H11.5855H17.6765H27.1868H34.655H36.5548C36.7982 40 37 39.7981 37 39.5547C37 39.3113 36.7922 39.1095 36.5488 39.1095H35.0944V25.0695C35.0944 24.8261 34.8925 24.6242 34.6491 24.6242H34.3879C34.2573 24.2324 34.0317 23.8822 33.7289 23.621C33.3134 23.2648 32.8028 23.1104 32.2923 23.1935C32.1379 23.2173 31.9836 23.2648 31.8411 23.3301C31.3721 22.6177 30.5885 22.2318 29.793 22.3505C29.609 22.3802 29.4309 22.4337 29.2587 22.5168C28.8253 22.0062 28.2376 21.6975 27.6202 21.6441V21.5135C27.6202 21.2701 27.4184 21.0682 27.175 21.0682H26.8128C26.8281 21.0464 26.8436 21.0246 26.8591 21.003H25.1839C25.1868 21.0247 25.1895 21.0465 25.1922 21.0682H23.9989V21.003H23.1144V21.0682H22.0161V21.003H21.1197V21.0742H19.3624C19.3739 21.0506 19.385 21.0268 19.3957 21.003H18.3543C18.3337 21.0244 18.3115 21.0463 18.2879 21.0682H16.5663C16.5767 21.0464 16.587 21.0246 16.5971 21.003H15.6099C15.5984 21.0265 15.5867 21.0503 15.5749 21.0742H14.9516C14.9508 21.0505 14.9502 21.0267 14.9497 21.003H14.0595C14.0599 21.0247 14.0605 21.0465 14.0611 21.0682H13.6871C13.6763 21.0463 13.6656 21.0246 13.655 21.003H12.6766C12.6868 21.0246 12.6971 21.0464 12.7075 21.0682H10.9859C10.9601 21.0458 10.9363 21.024 10.9146 21.003H9.85453C9.86519 21.0268 9.87624 21.0506 9.88767 21.0742H8.11858V21.003H7.23403V21.0682H6.13576V21.003H5.23934V21.0801H4.07577C4.07913 21.0544 4.08267 21.0287 4.08638 21.003H2.36324ZM29.0806 23.5557C28.95 23.5379 28.8372 23.4607 28.7719 23.3479C28.4929 22.8848 28.0773 22.5999 27.6321 22.5346V24.6242H33.4202C33.349 24.4996 33.26 24.3868 33.1531 24.2977C32.9394 24.1137 32.6841 24.0306 32.4348 24.0721C32.2686 24.0959 32.1201 24.1731 31.9955 24.2977C31.8886 24.4046 31.7402 24.4462 31.5918 24.4165C31.4434 24.3868 31.3246 24.2799 31.2712 24.1434C31.0278 23.526 30.4876 23.146 29.9414 23.2351C29.7514 23.2648 29.5852 23.336 29.4368 23.4607C29.3418 23.5438 29.2053 23.5794 29.0806 23.5557ZM5.70239 21.9647H2.52632V39.1095H11.1403V31.1901C11.1403 30.9467 11.3421 30.7449 11.5855 30.7449H17.6765C17.9199 30.7449 18.1217 30.9467 18.1217 31.1901V39.1095H26.7475V25.0754V21.9647H23.5715H21.5827H15.8539H13.4199H7.69114H5.70239ZM12.0308 31.6353V39.1095H17.2312V31.6353H12.0308ZM27.6321 25.5147V39.1095H34.2098V37.6253H30.9209C30.6716 37.6253 30.4698 37.4176 30.4698 37.1742C30.4698 36.9308 30.6716 36.7289 30.915 36.7289H34.2039V34.8173H30.915C30.6716 34.8173 30.4698 34.6155 30.4698 34.3721C30.4698 34.1287 30.6716 33.9269 30.915 33.9269H34.2039V32.0153H30.915C30.6716 32.0153 30.4698 31.8134 30.4698 31.57C30.4698 31.3266 30.6716 31.1248 30.915 31.1248H34.2039V29.2132H30.915C30.6716 29.2132 30.4698 29.0114 30.4698 28.768C30.4698 28.5246 30.6716 28.3227 30.915 28.3227H34.2039V25.5147H27.6321Z" fill="white"/>
<path d="M26.9997 21.2207H26.513L26.6094 20.4291C26.6226 20.3209 26.5484 20.2221 26.4438 20.2085C26.3391 20.195 26.2436 20.2716 26.2305 20.3798L26.128 21.2207H23.9615L23.6261 18.4683H26.4632L26.3427 19.4582C26.3294 19.5664 26.4037 19.6652 26.5083 19.6788C26.6131 19.6925 26.7085 19.6157 26.7217 19.5075L26.8522 18.4361C27.0116 18.4183 27.1361 18.2784 27.1361 18.109V17.5494C27.1361 17.368 26.9934 17.2203 26.8178 17.2203H26.2541C26.3189 16.9781 26.3778 16.7279 26.4297 16.4714C26.6632 15.3177 26.724 14.2195 26.6007 13.379C26.584 13.2656 26.4999 13.1735 26.391 13.15C26.373 13.146 26.3547 13.1441 26.3363 13.1441C26.2441 13.1441 26.1596 13.1922 26.1102 13.273C25.964 13.5126 25.8254 13.7871 25.6968 14.0892C25.6316 13.3225 25.4946 12.6291 25.2952 12.0762C25.2564 11.9686 25.1558 11.8963 25.0446 11.8963C24.9336 11.8963 24.8329 11.9686 24.7941 12.0762C24.5944 12.6302 24.4572 13.3252 24.3921 14.0938C24.2581 13.7919 24.1143 13.5181 23.9633 13.2797C23.9137 13.2014 23.8301 13.1547 23.7396 13.1547C23.7198 13.1547 23.7 13.157 23.6803 13.1616C23.5721 13.187 23.4893 13.2805 23.4746 13.3943C23.365 14.2367 23.4437 15.3337 23.6959 16.4832C23.7513 16.7357 23.8134 16.9819 23.881 17.2203H23.2716C23.096 17.2203 22.9532 17.368 22.9532 17.5494V18.1089C22.9532 18.2784 23.0778 18.4183 23.2372 18.4361L23.5764 21.2207H22.2111C22.3554 21.0373 22.4419 20.8037 22.4419 20.5496V20.4791C22.4419 20.3314 22.3257 20.2112 22.1827 20.2112H21.9233L22.1314 18.5027H22.1635C22.339 18.5027 22.4818 18.3551 22.4818 18.1736V17.5494C22.4818 17.368 22.339 17.2203 22.1635 17.2203H20.5885L20.806 16.8933C20.8097 16.8926 20.8135 16.8922 20.8172 16.8913C21.4567 16.7323 22.0664 16.2763 22.4897 15.6401C22.9129 15.004 23.107 14.2525 23.022 13.5785C23.0123 13.5006 22.9708 13.4304 22.9084 13.386C22.8635 13.3541 22.8111 13.3373 22.7567 13.3373C22.7355 13.3373 22.7144 13.3398 22.6941 13.3449C22.0544 13.504 21.4449 13.9599 21.0216 14.596C20.5983 15.2321 20.4042 15.9837 20.4892 16.6583C20.4897 16.6621 20.4906 16.6658 20.4913 16.6696L20.4368 16.7513V14.7301C20.4385 14.7278 20.4405 14.7256 20.4421 14.7231L20.7883 14.203C20.7926 14.2022 20.7969 14.2017 20.8011 14.2005C21.354 14.059 21.8806 13.6629 22.2461 13.1136C22.6116 12.5644 22.7812 11.9142 22.7114 11.3299C22.702 11.2514 22.6606 11.1807 22.5974 11.1358C22.5347 11.0913 22.4549 11.0764 22.3815 11.0953C21.8287 11.2368 21.302 11.6329 20.9365 12.1822C20.5709 12.7314 20.4013 13.3816 20.4712 13.9659C20.4717 13.9704 20.4728 13.9748 20.4735 13.9793L20.4368 14.0342V12.4405C20.4394 12.4378 20.4421 12.4354 20.4445 12.4325C20.8305 11.9903 21.0813 11.3783 21.1506 10.7092C21.1619 10.6007 21.0859 10.5033 20.981 10.4917C20.8762 10.4803 20.7819 10.5587 20.7707 10.6671C20.7289 11.071 20.6132 11.4493 20.4368 11.7701V10.0907C20.4368 9.98155 20.3513 9.89319 20.2458 9.89319C20.1404 9.89319 20.0548 9.98155 20.0548 10.0907V11.7696C19.8288 11.3584 19.7036 10.8552 19.7036 10.329C19.7036 9.66927 19.8998 9.04535 20.2458 8.59391C20.4938 8.91852 20.6696 9.34126 20.7451 9.7998C20.7628 9.90729 20.8614 9.9797 20.9655 9.96129C21.0695 9.94298 21.1395 9.84094 21.1217 9.73346C21.0244 9.14296 20.7902 8.62147 20.4446 8.22547C20.394 8.16736 20.3215 8.13403 20.2458 8.13403C20.1702 8.13403 20.0978 8.16736 20.0472 8.22537C19.5861 8.75375 19.3216 9.52044 19.3216 10.329C19.3216 11.1376 19.5861 11.9043 20.0472 12.4326C20.0496 12.4354 20.0523 12.4379 20.0548 12.4405V14.0491L20.0085 13.9793C20.0092 13.9749 20.0102 13.9704 20.0108 13.9659C20.0806 13.3817 19.911 12.7315 19.5455 12.1823C19.1799 11.633 18.6532 11.2368 18.1003 11.0953C18.0265 11.0764 17.9472 11.0914 17.8843 11.1359C17.8214 11.1808 17.7799 11.2515 17.7704 11.33C17.7006 11.9142 17.8702 12.5644 18.2358 13.1136C18.6013 13.6629 19.128 14.0591 19.6809 14.2006C19.6852 14.2018 19.6894 14.2022 19.6936 14.2031L20.0398 14.7233C20.0445 14.7302 20.0496 14.7369 20.0549 14.7431V16.7661L19.9907 16.6696C19.9914 16.6658 19.9923 16.662 19.9928 16.6581C20.0777 15.9838 19.8837 15.2322 19.4603 14.5961C19.0371 13.9601 18.4275 13.504 17.7879 13.345C17.7146 13.3268 17.6358 13.3418 17.5737 13.3861C17.5112 13.4304 17.4698 13.5005 17.46 13.5782C17.375 14.2525 17.569 15.004 17.9923 15.6402C18.4156 16.2763 19.0252 16.7324 19.665 16.8915C19.6685 16.8923 19.6722 16.8927 19.6759 16.8934L19.8935 17.2204H18.3185C18.1429 17.2204 18.0001 17.368 18.0001 17.5496V18.1737C18.0001 18.3552 18.1429 18.5028 18.3185 18.5028H18.3505L18.5586 20.2113H18.2992C18.1562 20.2113 18.04 20.3314 18.04 20.4792V20.5496C18.04 20.8037 18.1266 21.0373 18.2708 21.2208H17.5767C17.4713 21.2208 17.3857 21.3092 17.3857 21.4183C17.3857 21.5273 17.4713 21.6158 17.5767 21.6158H26.9997C27.1052 21.6158 27.1907 21.5273 27.1907 21.4183C27.1907 21.3092 27.1052 21.2207 26.9997 21.2207ZM21.2512 12.4061C21.5351 11.9795 21.9275 11.6619 22.3434 11.5178C22.3619 11.9709 22.2153 12.4632 21.9315 12.8898C21.7259 13.1987 21.4633 13.45 21.1762 13.6201L21.6149 12.9609C21.6747 12.871 21.6527 12.7481 21.5658 12.6863C21.4789 12.6245 21.3599 12.6472 21.3001 12.737L20.8614 13.3963C20.9126 13.0583 21.0457 12.715 21.2512 12.4061ZM18.5505 12.8897C18.2666 12.4632 18.1199 11.9708 18.1384 11.5178C18.5544 11.6619 18.9468 11.9795 19.2307 12.4061C19.4363 12.715 19.5694 13.0583 19.6204 13.3963L19.1817 12.737C19.1219 12.6472 19.003 12.6245 18.9161 12.6863C18.8292 12.7481 18.8072 12.8711 18.867 12.9609L19.3056 13.6201C19.0186 13.45 18.756 13.1987 18.5505 12.8897ZM21.3363 14.8199C21.678 14.3065 22.1531 13.9284 22.6558 13.7655C22.6884 14.3088 22.5167 14.9028 22.175 15.4163C21.9075 15.8183 21.5581 16.1367 21.1781 16.3344L21.7579 15.4632C21.8177 15.3733 21.7957 15.2504 21.7088 15.1885C21.6219 15.1267 21.5029 15.1494 21.4432 15.2393L20.8633 16.1106C20.9061 15.6729 21.0689 15.2219 21.3363 14.8199ZM18.3069 15.4163C17.9652 14.9027 17.7935 14.3088 17.8261 13.7654C18.3287 13.9283 18.8039 14.3064 19.1456 14.8199C19.4131 15.2219 19.5758 15.6729 19.6186 16.1106L19.0387 15.2393C18.9789 15.1494 18.86 15.1267 18.7731 15.1885C18.6863 15.2503 18.6643 15.3733 18.7241 15.4631L19.3038 16.3343C18.9237 16.1366 18.5744 15.8182 18.3069 15.4163ZM18.3821 18.1078V17.6153H22.0998V18.1078H21.4478C21.3423 18.1078 21.2568 18.1962 21.2568 18.3052C21.2568 18.4144 21.3423 18.5027 21.4478 18.5027H21.7464L21.5383 20.2112H18.9436L18.7355 18.5027H20.531C20.6365 18.5027 20.722 18.4144 20.722 18.3052C20.722 18.1962 20.6365 18.1078 20.531 18.1078H18.3821ZM21.4106 21.2207H19.0714C18.7317 21.2207 18.4522 20.9499 18.4243 20.6061H22.0576C22.0297 20.9499 21.7502 21.2207 21.4106 21.2207ZM25.7404 15.1392C25.7404 15.1219 25.7403 15.1046 25.7402 15.0874C25.8918 14.6018 26.0681 14.1615 26.2619 13.7887C26.3197 14.5298 26.2487 15.4379 26.0558 16.3906C25.9979 16.6767 25.9312 16.954 25.8574 17.2204H25.5569C25.6766 16.5972 25.7404 15.8867 25.7404 15.1392ZM25.0446 12.5489C25.2481 13.262 25.3584 14.1659 25.3584 15.1392C25.3584 15.8938 25.2918 16.6058 25.1672 17.2204H24.9223C24.7977 16.6059 24.731 15.8938 24.7311 15.1392C24.731 14.1658 24.8414 13.262 25.0446 12.5489ZM23.8201 13.7979C24.0142 14.1569 24.1931 14.5796 24.3494 15.0461C24.3492 15.0771 24.349 15.108 24.349 15.1392C24.349 15.8868 24.4128 16.5972 24.5326 17.2204H24.2798C24.2018 16.9559 24.1309 16.6803 24.0684 16.3959C23.8602 15.4467 23.7744 14.54 23.8201 13.7979ZM23.3352 18.0432V17.6153H26.7541V18.0432H23.3352Z" fill="white" stroke="white" stroke-width="0.01"/>
<path fill-rule="evenodd" clip-rule="evenodd" d="M16.1615 21.2207H15.4608C15.623 21.0373 15.7204 20.8037 15.7204 20.5496V20.4791C15.7204 20.3314 15.5897 20.2112 15.4289 20.2112H15.137L15.3711 18.5027H15.4071C15.6047 18.5027 15.7653 18.3551 15.7653 18.1736V17.5494C15.7653 17.368 15.6047 17.2203 15.4071 17.2203H13.6353L13.88 16.8933C13.8816 16.893 13.8832 16.8928 13.8848 16.8926C13.8874 16.8922 13.89 16.8918 13.8926 16.8913C14.6121 16.7322 15.2979 16.2763 15.7741 15.6401C16.2503 15.004 16.4687 14.2525 16.373 13.5785C16.3621 13.5006 16.3155 13.4304 16.2452 13.386C16.1947 13.3541 16.1357 13.3373 16.0745 13.3373C16.0507 13.3373 16.0269 13.3398 16.0041 13.3449C15.2845 13.504 14.5988 13.9599 14.1226 14.596C13.6464 15.2321 13.428 15.9837 13.5236 16.6583C13.524 16.6608 13.5245 16.6632 13.5251 16.6657C13.5254 16.667 13.5257 16.6683 13.5259 16.6696L13.4647 16.7513V14.7301C13.4655 14.7292 13.4664 14.7282 13.4672 14.7272C13.4684 14.7259 13.4696 14.7246 13.4706 14.7231L13.8601 14.203C13.8617 14.2027 13.8633 14.2025 13.8649 14.2022C13.8681 14.2018 13.8713 14.2013 13.8746 14.2005C14.4965 14.059 15.089 13.6629 15.5002 13.1136C15.9113 12.5644 16.1022 11.9142 16.0236 11.3299C16.0131 11.2514 15.9664 11.1807 15.8953 11.1358C15.8248 11.0913 15.7351 11.0764 15.6525 11.0953C15.0305 11.2368 14.4381 11.6329 14.0269 12.1822C13.6156 12.7314 13.4248 13.3816 13.5033 13.9659C13.5037 13.9686 13.5042 13.9712 13.5048 13.9738C13.5052 13.9756 13.5056 13.9774 13.5059 13.9793L13.4647 14.0342V12.4405C13.4658 12.4395 13.467 12.4385 13.4681 12.4375C13.4699 12.4359 13.4717 12.4343 13.4733 12.4325C13.9076 11.9903 14.1897 11.3783 14.2677 10.7092C14.2804 10.6007 14.1949 10.5033 14.0769 10.4917C13.9589 10.4803 13.853 10.5587 13.8403 10.6671C13.7933 11.071 13.6631 11.4493 13.4647 11.7701V10.0907C13.4647 9.98155 13.3685 9.89319 13.2498 9.89319C13.1312 9.89319 13.035 9.98155 13.035 10.0907V11.7696C12.7807 11.3584 12.6398 10.8552 12.6398 10.329C12.6398 9.66927 12.8606 9.04534 13.2498 8.5939C13.5288 8.91852 13.7266 9.34126 13.8115 9.7998C13.8315 9.90728 13.9424 9.9797 14.0594 9.96128C14.1765 9.94298 14.2552 9.84094 14.2352 9.73346C14.1257 9.14295 13.8622 8.62147 13.4734 8.22547C13.4165 8.16736 13.335 8.13403 13.2498 8.13403C13.1648 8.13403 13.0833 8.16736 13.0263 8.22537C12.5076 8.75374 12.21 9.52044 12.21 10.329C12.21 11.1376 12.5076 11.9043 13.0263 12.4326C13.0279 12.4342 13.0296 12.4358 13.0313 12.4373C13.0326 12.4384 13.0338 12.4394 13.035 12.4405V14.0491L12.9828 13.9793C12.9831 13.9774 12.9835 13.9756 12.9839 13.9737C12.9844 13.9712 12.985 13.9686 12.9854 13.9659C13.0639 13.3817 12.8731 12.7315 12.4619 12.1823C12.0506 11.633 11.4582 11.2368 10.8361 11.0953C10.7531 11.0764 10.6639 11.0914 10.5932 11.1359C10.5223 11.1808 10.4756 11.2515 10.465 11.33C10.3864 11.9142 10.5773 12.5644 10.9886 13.1136C11.3997 13.6629 11.9922 14.0591 12.6143 14.2006C12.617 14.2013 12.6198 14.2017 12.6226 14.2021C12.6246 14.2024 12.6266 14.2027 12.6286 14.2031L13.0181 14.7232C13.0233 14.7302 13.029 14.7369 13.0351 14.7431V16.7661L12.9628 16.6696C12.9632 16.6676 12.9637 16.6656 12.9641 16.6636C12.9645 16.6618 12.9649 16.6599 12.9651 16.6581C13.0607 15.9838 12.8425 15.2322 12.3661 14.5961C11.89 13.9601 11.2042 13.504 10.4847 13.345C10.4022 13.3268 10.3136 13.3418 10.2436 13.3861C10.1734 13.4304 10.1268 13.5005 10.1157 13.5782C10.0201 14.2525 10.2384 15.004 10.7146 15.6402C11.1908 16.2763 11.8766 16.7324 12.5964 16.8915C12.5987 16.8919 12.6011 16.8923 12.6035 16.8926C12.6052 16.8929 12.6069 16.8931 12.6087 16.8934L12.8534 17.2204H11.0816C10.884 17.2204 10.7234 17.368 10.7234 17.5495V18.1737C10.7234 18.3552 10.884 18.5028 11.0816 18.5028H11.1176L11.3517 20.2113H11.0598C10.899 20.2113 10.7683 20.3314 10.7683 20.4792V20.5496C10.7683 20.8037 10.8657 21.0373 11.028 21.2208H10.2471C10.1285 21.2208 10.0322 21.3092 10.0322 21.4183C10.0322 21.5273 10.1285 21.6158 10.2471 21.6158H16.1615V21.2207ZM15.6096 11.5178C15.1417 11.6619 14.7003 11.9795 14.3809 12.4061C14.1496 12.715 13.9999 13.0583 13.9424 13.3963L14.4359 12.737C14.5032 12.6472 14.637 12.6245 14.7348 12.6863C14.8326 12.7481 14.8573 12.871 14.79 12.9609L14.2965 13.6201C14.6195 13.45 14.9149 13.1987 15.1462 12.8898C15.4655 12.4632 15.6304 11.9709 15.6096 11.5178ZM10.879 11.5178C10.8582 11.9708 11.0231 12.4632 11.3425 12.8897C11.5738 13.1987 11.8692 13.45 12.1921 13.6201L11.6987 12.9609C11.6314 12.8711 11.6561 12.7481 11.7538 12.6863C11.8517 12.6245 11.9854 12.6472 12.0527 12.737L12.5462 13.3963C12.4888 13.0583 12.3391 12.715 12.1078 12.4061C11.7884 11.9795 11.3469 11.6619 10.879 11.5178ZM15.961 13.7655C15.3955 13.9284 14.861 14.3065 14.4766 14.8199C14.1757 15.2219 13.9926 15.6729 13.9445 16.1106L14.5969 15.2393C14.664 15.1494 14.7979 15.1267 14.8957 15.1885C14.9934 15.2504 15.0181 15.3733 14.9509 15.4632L14.2986 16.3344C14.7261 16.1367 15.1192 15.8183 15.4201 15.4163C15.8046 14.9028 15.9977 14.3088 15.961 13.7655ZM10.5277 13.7654C10.491 14.3088 10.6841 14.9027 11.0686 15.4163C11.3695 15.8182 11.7625 16.1366 12.1901 16.3343L11.5378 15.4631C11.4706 15.3733 11.4953 15.2503 11.593 15.1885C11.6907 15.1267 11.8246 15.1494 11.8918 15.2393L12.5442 16.1106C12.4961 15.6729 12.313 15.2219 12.012 14.8199C11.6276 14.3064 11.0931 13.9283 10.5277 13.7654ZM11.1531 17.6153V18.1078H13.5706C13.6893 18.1078 13.7855 18.1962 13.7855 18.3052C13.7855 18.4144 13.6893 18.5027 13.5706 18.5027H11.5507L11.7848 20.2112H14.7039L14.938 18.5027H14.602C14.4834 18.5027 14.3871 18.4144 14.3871 18.3052C14.3871 18.1962 14.4834 18.1078 14.602 18.1078H15.3355V17.6153H11.1531ZM11.9285 21.2207H14.5602C14.9422 21.2207 15.2567 20.9499 15.2881 20.6061H11.2006C11.232 20.9499 11.5465 21.2207 11.9285 21.2207Z" fill="white"/>
<path d="M15.4608 21.2207L15.4664 21.2257H15.4608V21.2207ZM15.137 20.2112L15.1735 20.2162H15.137V20.2112ZM15.3711 18.5027V18.4659L15.3662 18.502L15.3711 18.5027ZM13.6353 17.2203L13.642 17.2253H13.6353V17.2203ZM13.88 16.8933L13.8789 16.8866L13.876 16.8903L13.88 16.8933ZM13.8848 16.8926L13.8841 16.8876H13.8841L13.8848 16.8926ZM13.8926 16.8913L13.8915 16.8864L13.8915 16.8864L13.8926 16.8913ZM15.7741 15.6401L15.7701 15.6371L15.7741 15.6401ZM16.373 13.5785L16.368 13.5791L16.368 13.5792L16.373 13.5785ZM16.2452 13.386L16.2479 13.3818L16.2479 13.3818L16.2452 13.386ZM16.0041 13.3449L16.003 13.34L16.003 13.34L16.0041 13.3449ZM14.1226 14.596L14.1186 14.593L14.1226 14.596ZM13.5236 16.6583L13.5186 16.659L13.5186 16.659L13.5236 16.6583ZM13.5251 16.6657L13.5202 16.6668V16.6668L13.5251 16.6657ZM13.5259 16.6696L13.532 16.6741L13.5308 16.6686L13.5259 16.6696ZM13.4647 16.7513H13.471L13.4687 16.7543L13.4647 16.7513ZM13.4647 14.7301L13.4597 14.7261V14.7301H13.4647ZM13.4672 14.7272L13.4709 14.7306L13.4709 14.7306L13.4672 14.7272ZM13.4706 14.7231L13.4666 14.7201L13.4666 14.7202L13.4706 14.7231ZM13.8601 14.203L13.859 14.1962L13.8561 14.2L13.8601 14.203ZM13.8649 14.2022L13.8642 14.1973H13.8642L13.8649 14.2022ZM13.8746 14.2005L13.8734 14.1957L13.8734 14.1957L13.8746 14.2005ZM15.5002 13.1136L15.5042 13.1166L15.5002 13.1136ZM16.0236 11.3299L16.0186 11.3306L16.0186 11.3306L16.0236 11.3299ZM15.8953 11.1358L15.8927 11.14L15.8927 11.14L15.8953 11.1358ZM15.6525 11.0953L15.6536 11.1002L15.6536 11.1002L15.6525 11.0953ZM14.0269 12.1822L14.0309 12.1852L14.0309 12.1852L14.0269 12.1822ZM13.5033 13.9659L13.5083 13.9653L13.5083 13.9652L13.5033 13.9659ZM13.5048 13.9738L13.4999 13.9749L13.5048 13.9738ZM13.5059 13.9793L13.5117 13.9837L13.5108 13.9784L13.5059 13.9793ZM13.4647 14.0342H13.471L13.4687 14.0372L13.4647 14.0342ZM13.4647 12.4405L13.4597 12.4353V12.4405H13.4647ZM13.4681 12.4375L13.4648 12.4337L13.4648 12.4337L13.4681 12.4375ZM13.4733 12.4325L13.4698 12.429L13.4697 12.4291L13.4733 12.4325ZM14.2677 10.7092L14.2628 10.7086V10.7086L14.2677 10.7092ZM14.0769 10.4917L14.0774 10.4867L14.0774 10.4867L14.0769 10.4917ZM13.8403 10.6671L13.8353 10.6665L13.8353 10.6665L13.8403 10.6671ZM13.4647 11.7701H13.4706L13.469 11.7728L13.4647 11.7701ZM13.035 11.7696L13.04 11.7665V11.7696H13.035ZM13.2498 8.5939L13.2243 8.61582L13.2461 8.59064L13.2498 8.5939ZM13.8115 9.7998L13.8066 9.80071L13.8066 9.80071L13.8115 9.7998ZM14.0594 9.96128L14.0587 9.95634L14.0587 9.95634L14.0594 9.96128ZM14.2352 9.73346L14.2302 9.73437L14.2302 9.73437L14.2352 9.73346ZM13.4734 8.22547L13.4699 8.22897L13.4699 8.22897L13.4734 8.22547ZM13.0263 8.22537L13.0228 8.22187L13.0228 8.22187L13.0263 8.22537ZM13.0263 12.4326L13.0299 12.4292L13.0299 12.4291L13.0263 12.4326ZM13.0313 12.4373L13.0346 12.4335L13.0346 12.4335L13.0313 12.4373ZM13.035 12.4405H13.0422L13.0384 12.4369L13.035 12.4405ZM13.035 14.0491L13.04 14.0454V14.0491H13.035ZM12.9828 13.9793L12.9756 13.978L12.9788 13.9823L12.9828 13.9793ZM12.9839 13.9737L12.9888 13.9748L12.9839 13.9737ZM12.9854 13.9659L12.9903 13.9666L12.9903 13.9666L12.9854 13.9659ZM12.4619 12.1823L12.4659 12.1793L12.4659 12.1793L12.4619 12.1823ZM10.8361 11.0953L10.835 11.1002L10.835 11.1002L10.8361 11.0953ZM10.5932 11.1359L10.5905 11.1317L10.5905 11.1317L10.5932 11.1359ZM10.465 11.33L10.4601 11.3293L10.4601 11.3293L10.465 11.33ZM10.9886 13.1136L10.9926 13.1106L10.9926 13.1106L10.9886 13.1136ZM12.6143 14.2006L12.6154 14.1958L12.6154 14.1958L12.6143 14.2006ZM12.6226 14.2021L12.6218 14.2071L12.6226 14.2021ZM12.6286 14.2031L12.634 14.1991L12.6296 14.1982L12.6286 14.2031ZM13.0181 14.7232L13.0141 14.7262L13.0141 14.7263L13.0181 14.7232ZM13.0351 14.7431H13.0421L13.0386 14.7396L13.0351 14.7431ZM13.0351 16.7661L13.0401 16.7623V16.7661H13.0351ZM12.9628 16.6696L12.9554 16.6681L12.9588 16.6726L12.9628 16.6696ZM12.9641 16.6636L12.969 16.6646L12.9641 16.6636ZM12.9651 16.6581L12.9701 16.6588L12.9701 16.6588L12.9651 16.6581ZM12.3661 14.5961L12.3621 14.5991L12.3621 14.5991L12.3661 14.5961ZM10.4847 13.345L10.4858 13.3401H10.4858L10.4847 13.345ZM10.2436 13.3861L10.2463 13.3903L10.2463 13.3903L10.2436 13.3861ZM10.1157 13.5782L10.1108 13.5775L10.1108 13.5775L10.1157 13.5782ZM10.7146 15.6402L10.7106 15.6432H10.7106L10.7146 15.6402ZM12.5964 16.8915L12.5953 16.8964L12.5954 16.8964L12.5964 16.8915ZM12.6035 16.8926L12.6042 16.8877H12.6042L12.6035 16.8926ZM12.6087 16.8934L12.6142 16.8893L12.6095 16.8885L12.6087 16.8934ZM12.8534 17.2204V17.2121L12.8574 17.2174L12.8534 17.2204ZM11.1176 18.5028L11.1541 18.4978H11.1176V18.5028ZM11.3517 20.2113V20.1745L11.3567 20.2106L11.3517 20.2113ZM11.028 21.2208V21.2133L11.0317 21.2175L11.028 21.2208ZM14.3809 12.4061L14.3769 12.4031L14.3769 12.4031L14.3809 12.4061ZM15.6096 11.5178L15.5896 11.5187L15.6081 11.513L15.6096 11.5178ZM13.9424 13.3963L13.9479 13.3972L13.9464 13.3993L13.9424 13.3963ZM14.4359 12.737L14.4319 12.734L14.4319 12.734L14.4359 12.737ZM14.7348 12.6863L14.7321 12.6905L14.7321 12.6905L14.7348 12.6863ZM14.79 12.9609L14.794 12.9639L14.794 12.9639L14.79 12.9609ZM14.2965 13.6201L14.3009 13.6234L14.2988 13.6245L14.2965 13.6201ZM15.1462 12.8898L15.1502 12.8928L15.1502 12.8928L15.1462 12.8898ZM11.3425 12.8897L11.3466 12.8867L11.3466 12.8867L11.3425 12.8897ZM10.879 11.5178L10.8731 11.5369L10.874 11.5176L10.879 11.5178ZM12.1921 13.6201L12.1947 13.6152L12.1961 13.6171L12.1921 13.6201ZM11.6987 12.9609L11.7027 12.9579L11.7027 12.9579L11.6987 12.9609ZM11.7538 12.6863L11.7512 12.682L11.7512 12.682L11.7538 12.6863ZM12.0527 12.737L12.0567 12.734L12.0567 12.734L12.0527 12.737ZM12.5462 13.3963L12.5507 13.3929L12.5511 13.3955L12.5462 13.3963ZM12.1078 12.4061L12.1118 12.4031L12.1118 12.4031L12.1078 12.4061ZM14.4766 14.8199L14.4726 14.8169L14.4726 14.8169L14.4766 14.8199ZM15.961 13.7655L15.9374 13.7671L15.9596 13.7607L15.961 13.7655ZM13.9445 16.1106L13.9503 16.1112L13.9485 16.1136L13.9445 16.1106ZM14.5969 15.2393L14.6009 15.2423L14.6009 15.2423L14.5969 15.2393ZM14.8957 15.1885L14.8984 15.1842L14.8984 15.1842L14.8957 15.1885ZM14.9509 15.4632L14.9549 15.4662L14.9549 15.4662L14.9509 15.4632ZM14.2986 16.3344L14.3032 16.3378L14.3007 16.3389L14.2986 16.3344ZM15.4201 15.4163L15.4161 15.4133V15.4133L15.4201 15.4163ZM11.0686 15.4163L11.0646 15.4193L11.0646 15.4193L11.0686 15.4163ZM10.5277 13.7654L10.5211 13.7882L10.5227 13.7651L10.5277 13.7654ZM12.1901 16.3343L12.1925 16.3291L12.1941 16.3313L12.1901 16.3343ZM11.5378 15.4631L11.5418 15.4601L11.5418 15.4601L11.5378 15.4631ZM11.593 15.1885L11.5903 15.1842L11.593 15.1885ZM11.8918 15.2393L11.8878 15.2423L11.8878 15.2423L11.8918 15.2393ZM12.5442 16.1106L12.5488 16.1071L12.5492 16.11L12.5442 16.1106ZM12.012 14.8199L12.008 14.8229H12.008L12.012 14.8199ZM11.5507 18.5027V18.5395L11.5458 18.5034L11.5507 18.5027ZM11.7848 20.2112L11.7484 20.2162H11.7848V20.2112ZM14.7039 20.2112V20.248L14.7088 20.2119L14.7039 20.2112ZM14.938 18.5027L14.9015 18.4977H14.938V18.5027ZM15.2881 20.6061L15.2332 20.6011H15.2881V20.6061ZM11.2006 20.6061V20.6612L11.1957 20.6066L11.2006 20.6061ZM16.1615 21.2157H15.4608V21.2257H16.1615V21.2157ZM15.4645 21.224C15.6275 21.0398 15.7254 20.8051 15.7254 20.5496H15.7154C15.7154 20.8024 15.6185 21.0349 15.457 21.2174L15.4645 21.224ZM15.7254 20.5496V20.4791H15.7154V20.5496H15.7254ZM15.7254 20.4791C15.7254 20.3283 15.592 20.2062 15.4289 20.2062V20.2162C15.5873 20.2162 15.7154 20.3346 15.7154 20.4791H15.7254ZM15.4289 20.2062H15.137V20.2162H15.4289V20.2062ZM15.1419 20.2119L15.3761 18.5034L15.3662 18.502L15.132 20.2105L15.1419 20.2119ZM15.3711 18.5077H15.4071V18.4977H15.3711V18.5077ZM15.4071 18.5077C15.607 18.5077 15.7703 18.3583 15.7703 18.1736H15.7603C15.7603 18.352 15.6023 18.4977 15.4071 18.4977V18.5077ZM15.7703 18.1736V17.5494H15.7603V18.1736H15.7703ZM15.7703 17.5494C15.7703 17.3649 15.607 17.2153 15.4071 17.2153V17.2253C15.6023 17.2253 15.7603 17.3712 15.7603 17.5494H15.7703ZM15.4071 17.2153H13.6353V17.2253H15.4071V17.2153ZM13.6393 17.2233L13.884 16.8963L13.876 16.8903L13.6313 17.2173L13.6393 17.2233ZM13.8809 16.8982C13.8824 16.898 13.8839 16.8978 13.8855 16.8975L13.8841 16.8876C13.8825 16.8879 13.8808 16.8881 13.8792 16.8884L13.8809 16.8982ZM13.8855 16.8975C13.8881 16.8972 13.8909 16.8968 13.8937 16.8961L13.8915 16.8864C13.8891 16.8869 13.8867 16.8873 13.8841 16.8876L13.8855 16.8975ZM13.8937 16.8961C14.6144 16.7369 15.3013 16.2802 15.7781 15.6431L15.7701 15.6371C15.2946 16.2724 14.6097 16.7276 13.8915 16.8864L13.8937 16.8961ZM15.7781 15.6431C16.255 15.0062 16.4738 14.2533 16.3779 13.5777L16.368 13.5792C16.4635 14.2516 16.2457 15.0019 15.7701 15.6371L15.7781 15.6431ZM16.3779 13.5778C16.3669 13.4983 16.3193 13.4269 16.2479 13.3818L16.2425 13.3902C16.3116 13.4339 16.3574 13.5028 16.368 13.5791L16.3779 13.5778ZM16.2479 13.3818C16.1966 13.3494 16.1366 13.3323 16.0745 13.3323V13.3423C16.1348 13.3423 16.1929 13.3589 16.2425 13.3902L16.2479 13.3818ZM16.0745 13.3323C16.0503 13.3323 16.0262 13.3349 16.003 13.34L16.0052 13.3497C16.0277 13.3448 16.051 13.3423 16.0745 13.3423V13.3323ZM16.003 13.34C15.2821 13.4994 14.5954 13.9561 14.1186 14.593L14.1266 14.599C14.6021 13.9638 15.2868 13.5086 16.0052 13.3497L16.003 13.34ZM14.1186 14.593C13.6417 15.23 13.4228 15.9828 13.5186 16.659L13.5285 16.6576C13.4332 15.9845 13.651 15.2342 14.1266 14.599L14.1186 14.593ZM13.5186 16.659C13.519 16.6617 13.5196 16.6644 13.5202 16.6668L13.53 16.6646C13.5294 16.6621 13.5289 16.6598 13.5285 16.6576L13.5186 16.659ZM13.5202 16.6668C13.5205 16.6681 13.5208 16.6694 13.521 16.6706L13.5308 16.6686C13.5306 16.6672 13.5302 16.6659 13.53 16.6646L13.5202 16.6668ZM13.5219 16.6666L13.4607 16.7483L13.4687 16.7543L13.5299 16.6726L13.5219 16.6666ZM13.4697 16.7513V14.7301H13.4597V16.7513H13.4697ZM13.4686 14.7333C13.4693 14.7324 13.4701 14.7316 13.4709 14.7306L13.4635 14.7239C13.4627 14.7248 13.4617 14.7259 13.4608 14.727L13.4686 14.7333ZM13.4709 14.7306C13.4721 14.7293 13.4735 14.7278 13.4747 14.7261L13.4666 14.7202C13.4657 14.7214 13.4647 14.7225 13.4635 14.7239L13.4709 14.7306ZM13.4747 14.7261L13.8641 14.206L13.8561 14.2L13.4666 14.7201L13.4747 14.7261ZM13.861 14.2079C13.8625 14.2077 13.8641 14.2074 13.8657 14.2072L13.8642 14.1973C13.8626 14.1975 13.8609 14.1978 13.8593 14.1981L13.861 14.2079ZM13.8657 14.2072C13.8688 14.2067 13.8723 14.2062 13.8757 14.2054L13.8734 14.1957C13.8704 14.1964 13.8674 14.1968 13.8642 14.1973L13.8657 14.2072ZM13.8757 14.2054C14.4988 14.0636 15.0923 13.6668 15.5042 13.1166L15.4961 13.1106C15.0856 13.659 14.4941 14.0544 13.8734 14.1957L13.8757 14.2054ZM15.5042 13.1166C15.916 12.5665 16.1073 11.9151 16.0285 11.3292L16.0186 11.3306C16.097 11.9134 15.9067 12.5623 15.4961 13.1106L15.5042 13.1166ZM16.0285 11.3292C16.0178 11.2492 15.9702 11.1772 15.898 11.1316L15.8927 11.14C15.9626 11.1841 16.0083 11.2536 16.0186 11.3306L16.0285 11.3292ZM15.898 11.1316C15.8263 11.0863 15.7352 11.0712 15.6514 11.0904L15.6536 11.1002C15.7349 11.0815 15.8233 11.0962 15.8927 11.14L15.898 11.1316ZM15.6514 11.0904C15.0282 11.2322 14.4347 11.629 14.0229 12.1792L14.0309 12.1852C14.4414 11.6368 15.0329 11.2414 15.6536 11.1002L15.6514 11.0904ZM14.0229 12.1792C13.6109 12.7293 13.4196 13.3807 13.4984 13.9666L13.5083 13.9652C13.4299 13.3824 13.6202 12.7336 14.0309 12.1852L14.0229 12.1792ZM13.4984 13.9665C13.4987 13.9695 13.4994 13.9723 13.4999 13.9749L13.5097 13.9728C13.5091 13.9701 13.5086 13.9677 13.5083 13.9653L13.4984 13.9665ZM13.4999 13.9749C13.5003 13.9767 13.5007 13.9784 13.501 13.9801L13.5108 13.9784C13.5105 13.9765 13.5101 13.9746 13.5097 13.9728L13.4999 13.9749ZM13.5019 13.9763L13.4607 14.0312L13.4687 14.0372L13.5099 13.9823L13.5019 13.9763ZM13.4697 14.0342V12.4405H13.4597V14.0342H13.4697ZM13.4682 12.4442C13.4692 12.4432 13.4703 12.4422 13.4714 12.4412L13.4648 12.4337C13.4637 12.4347 13.4625 12.4358 13.4613 12.4369L13.4682 12.4442ZM13.4714 12.4412C13.4732 12.4396 13.4752 12.4379 13.477 12.4359L13.4697 12.4291C13.4682 12.4307 13.4666 12.4321 13.4648 12.4337L13.4714 12.4412ZM13.4769 12.436C13.912 11.993 14.1946 11.3799 14.2727 10.7097L14.2628 10.7086C14.1849 11.3768 13.9032 11.9877 13.4698 12.429L13.4769 12.436ZM14.2727 10.7097C14.2857 10.5982 14.1977 10.4986 14.0774 10.4867L14.0764 10.4967C14.192 10.5081 14.275 10.6033 14.2628 10.7086L14.2727 10.7097ZM14.0774 10.4867C13.9571 10.4751 13.8484 10.555 13.8353 10.6665L13.8453 10.6677C13.8576 10.5623 13.9608 10.4855 14.0764 10.4967L14.0774 10.4867ZM13.8353 10.6665C13.7884 11.0697 13.6585 11.4473 13.4605 11.7675L13.469 11.7728C13.6678 11.4513 13.7982 11.0723 13.8453 10.6677L13.8353 10.6665ZM13.4697 11.7701V10.0907H13.4597V11.7701H13.4697ZM13.4697 10.0907C13.4697 9.97839 13.3708 9.88819 13.2498 9.88819V9.89819C13.3661 9.89819 13.4597 9.9847 13.4597 10.0907H13.4697ZM13.2498 9.88819C13.1289 9.88819 13.03 9.97839 13.03 10.0907H13.04C13.04 9.9847 13.1336 9.89819 13.2498 9.89819V9.88819ZM13.03 10.0907V11.7696H13.04V10.0907H13.03ZM13.0392 11.767C12.7855 11.3566 12.6448 10.8543 12.6448 10.329H12.6348C12.6348 10.8561 12.7759 11.3602 13.0307 11.7722L13.0392 11.767ZM12.6448 10.329C12.6448 9.67035 12.8652 9.04761 13.2536 8.59717L13.2461 8.59064C12.8559 9.04308 12.6348 9.6682 12.6348 10.329H12.6448ZM13.246 8.59716C13.5244 8.92106 13.7218 9.34297 13.8066 9.80071L13.8165 9.79889C13.7314 9.33955 13.5333 8.91598 13.2536 8.59065L13.246 8.59716ZM13.8066 9.80071C13.8271 9.9112 13.9408 9.985 14.0602 9.96622L14.0587 9.95634C13.9439 9.97439 13.8358 9.90337 13.8165 9.79889L13.8066 9.80071ZM14.0602 9.96622C14.1797 9.94754 14.2607 9.84318 14.2401 9.73254L14.2302 9.73437C14.2497 9.83871 14.1734 9.93841 14.0587 9.95634L14.0602 9.96622ZM14.2401 9.73254C14.1304 9.14115 13.8666 8.61874 13.477 8.22197L13.4699 8.22897C13.8579 8.6242 14.1209 9.14476 14.2302 9.73437L14.2401 9.73254ZM13.477 8.22197C13.4191 8.16285 13.3363 8.12903 13.2498 8.12903V8.13903C13.3337 8.13903 13.4139 8.17186 13.4699 8.22897L13.477 8.22197ZM13.2498 8.12903C13.1635 8.12903 13.0807 8.16285 13.0228 8.22187L13.0299 8.22887C13.0859 8.17186 13.1661 8.13903 13.2498 8.13903V8.12903ZM13.0228 8.22187C12.503 8.75127 12.205 9.51926 12.205 10.329H12.215C12.215 9.52162 12.5122 8.75622 13.0299 8.22887L13.0228 8.22187ZM12.205 10.329C12.205 11.1387 12.503 11.9067 13.0228 12.4361L13.0299 12.4291C12.5122 11.9018 12.215 11.1364 12.215 10.329H12.205ZM13.0227 12.4361C13.0245 12.4379 13.0263 12.4395 13.028 12.441L13.0346 12.4335C13.0329 12.432 13.0313 12.4306 13.0299 12.4292L13.0227 12.4361ZM13.028 12.441C13.0293 12.4421 13.0304 12.4431 13.0315 12.4442L13.0384 12.4369C13.0372 12.4357 13.0359 12.4346 13.0346 12.4335L13.028 12.441ZM13.03 12.4405V14.0491H13.04V12.4405H13.03ZM13.039 14.0461L12.9868 13.9763L12.9788 13.9823L13.031 14.0521L13.039 14.0461ZM12.9877 13.9802C12.988 13.9784 12.9884 13.9766 12.9888 13.9748L12.979 13.9727C12.9786 13.9746 12.9782 13.9765 12.9779 13.9784L12.9877 13.9802ZM12.9888 13.9748C12.9893 13.9722 12.9899 13.9695 12.9903 13.9666L12.9804 13.9652C12.9801 13.9676 12.9796 13.9701 12.979 13.9727L12.9888 13.9748ZM12.9903 13.9666C13.0691 13.3808 12.8778 12.7294 12.4659 12.1793L12.4579 12.1853C12.8685 12.7337 13.0588 13.3825 12.9804 13.9652L12.9903 13.9666ZM12.4659 12.1793C12.054 11.6291 11.4605 11.2322 10.8372 11.0904L10.835 11.1002C11.4558 11.2414 12.0473 11.6369 12.4579 12.1853L12.4659 12.1793ZM10.8372 11.0904C10.7529 11.0712 10.6624 11.0864 10.5905 11.1317L10.5958 11.1401C10.6654 11.0963 10.7532 11.0815 10.835 11.1002L10.8372 11.0904ZM10.5905 11.1317C10.5185 11.1773 10.4709 11.2493 10.4601 11.3293L10.47 11.3307C10.4804 11.2537 10.5262 11.1842 10.5958 11.1401L10.5905 11.1317ZM10.4601 11.3293C10.3813 11.9151 10.5726 12.5665 10.9846 13.1166L10.9926 13.1106C10.5819 12.5623 10.3916 11.9134 10.47 11.3307L10.4601 11.3293ZM10.9846 13.1166C11.3964 13.6668 11.9899 14.0637 12.6132 14.2055L12.6154 14.1958C11.9946 14.0545 11.4031 13.659 10.9926 13.1106L10.9846 13.1166ZM12.6131 14.2055C12.6161 14.2062 12.6191 14.2066 12.6218 14.2071L12.6233 14.1972C12.6205 14.1967 12.6179 14.1964 12.6154 14.1958L12.6131 14.2055ZM12.6218 14.2071C12.6239 14.2074 12.6258 14.2076 12.6276 14.208L12.6296 14.1982C12.6274 14.1978 12.6253 14.1975 12.6233 14.1972L12.6218 14.2071ZM12.6246 14.2061L13.0141 14.7262L13.0221 14.7203L12.6326 14.2001L12.6246 14.2061ZM13.0141 14.7263C13.0194 14.7334 13.0253 14.7403 13.0315 14.7466L13.0386 14.7396C13.0328 14.7336 13.0272 14.7271 13.0221 14.7202L13.0141 14.7263ZM13.0301 14.7431V16.7661H13.0401V14.7431H13.0301ZM13.0391 16.7631L12.9668 16.6666L12.9588 16.6726L13.0311 16.7691L13.0391 16.7631ZM12.9677 16.6706C12.9681 16.6686 12.9685 16.6668 12.969 16.6646L12.9592 16.6625C12.9588 16.6644 12.9583 16.6666 12.9579 16.6686L12.9677 16.6706ZM12.969 16.6646C12.9694 16.6628 12.9698 16.6608 12.9701 16.6588L12.9602 16.6574C12.9599 16.6591 12.9596 16.6607 12.9592 16.6625L12.969 16.6646ZM12.9701 16.6588C13.0659 15.9829 12.8471 15.2301 12.3701 14.5931L12.3621 14.5991C12.8378 15.2343 13.0555 15.9846 12.9602 16.6574L12.9701 16.6588ZM12.3701 14.5931C11.8934 13.9562 11.2066 13.4994 10.4858 13.3401L10.4836 13.3498C11.2019 13.5086 11.8867 13.9639 12.3621 14.5991L12.3701 14.5931ZM10.4858 13.3401C10.402 13.3216 10.3121 13.3368 10.241 13.3819L10.2463 13.3903C10.3151 13.3467 10.4024 13.3319 10.4836 13.3498L10.4858 13.3401ZM10.241 13.3819C10.1695 13.4269 10.1221 13.4982 10.1108 13.5775L10.1207 13.579C10.1315 13.5027 10.1772 13.4339 10.2463 13.3903L10.241 13.3819ZM10.1108 13.5775C10.015 14.2533 10.2337 15.0062 10.7106 15.6432L10.7186 15.6372C10.243 15.0019 10.0253 14.2516 10.1207 13.5789L10.1108 13.5775ZM10.7106 15.6432C11.1874 16.2802 11.8743 16.737 12.5953 16.8964L12.5974 16.8866C11.879 16.7277 11.1941 16.2724 10.7186 15.6372L10.7106 15.6432ZM12.5954 16.8964C12.5979 16.8969 12.6004 16.8972 12.6028 16.8976L12.6042 16.8877C12.6018 16.8873 12.5995 16.887 12.5974 16.8866L12.5954 16.8964ZM12.6028 16.8976C12.6045 16.8978 12.6062 16.8981 12.6078 16.8984L12.6095 16.8885C12.6077 16.8882 12.6059 16.8879 12.6042 16.8877L12.6028 16.8976ZM12.6047 16.8964L12.8494 17.2234L12.8574 17.2174L12.6127 16.8904L12.6047 16.8964ZM12.8534 17.2154H11.0816V17.2254H12.8534V17.2154ZM11.0816 17.2154C10.8817 17.2154 10.7184 17.3649 10.7184 17.5495H10.7284C10.7284 17.3712 10.8864 17.2254 11.0816 17.2254V17.2154ZM10.7184 17.5495V18.1737H10.7284V17.5495H10.7184ZM10.7184 18.1737C10.7184 18.3584 10.8817 18.5078 11.0816 18.5078V18.4978C10.8864 18.4978 10.7284 18.3521 10.7284 18.1737H10.7184ZM11.0816 18.5078H11.1176V18.4978H11.0816V18.5078ZM11.1126 18.5035L11.3468 20.212L11.3567 20.2106L11.1226 18.5021L11.1126 18.5035ZM11.3517 20.2063H11.0598V20.2163H11.3517V20.2063ZM11.0598 20.2063C10.8967 20.2063 10.7633 20.3283 10.7633 20.4792H10.7733C10.7733 20.3346 10.9014 20.2163 11.0598 20.2163V20.2063ZM10.7633 20.4792V20.5496H10.7733V20.4792H10.7633ZM10.7633 20.5496C10.7633 20.8051 10.8612 21.0398 11.0242 21.2241L11.0317 21.2175C10.8702 21.0349 10.7733 20.8024 10.7733 20.5496H10.7633ZM11.028 21.2158H10.2471V21.2258H11.028V21.2158ZM10.2471 21.2158C10.1261 21.2158 10.0272 21.306 10.0272 21.4183H10.0372C10.0372 21.3123 10.1308 21.2258 10.2471 21.2258V21.2158ZM10.0272 21.4183C10.0272 21.5305 10.1261 21.6208 10.2471 21.6208V21.6108C10.1308 21.6108 10.0372 21.5242 10.0372 21.4183H10.0272ZM10.2471 21.6208H16.1615V21.6108H10.2471V21.6208ZM16.1665 21.6158V21.2207H16.1565V21.6158H16.1665ZM14.3849 12.4091C14.7037 11.9833 15.1442 11.6664 15.6111 11.5226L15.6081 11.513C15.1391 11.6575 14.6969 11.9758 14.3769 12.4031L14.3849 12.4091ZM13.9473 13.3971C14.0047 13.06 14.1541 12.7174 14.3849 12.4091L14.3769 12.4031C14.1452 12.7126 13.9951 13.0566 13.9375 13.3955L13.9473 13.3971ZM14.4319 12.734L13.9384 13.3933L13.9464 13.3993L14.4399 12.74L14.4319 12.734ZM14.7374 12.682C14.6376 12.6189 14.5008 12.642 14.4319 12.734L14.4399 12.74C14.5056 12.6524 14.6365 12.63 14.7321 12.6905L14.7374 12.682ZM14.794 12.9639C14.8631 12.8715 14.8376 12.7453 14.7374 12.682L14.7321 12.6905C14.8276 12.7508 14.8515 12.8705 14.786 12.9579L14.794 12.9639ZM14.3005 13.6231L14.794 12.9639L14.786 12.9579L14.2925 13.6171L14.3005 13.6231ZM15.1422 12.8868C14.9114 13.1951 14.6165 13.4459 14.2942 13.6157L14.2988 13.6245C14.6225 13.4541 14.9185 13.2023 15.1502 12.8928L15.1422 12.8868ZM15.6046 11.518C15.6254 11.9698 15.4609 12.4609 15.1422 12.8868L15.1502 12.8928C15.47 12.4654 15.6355 11.972 15.6146 11.5176L15.6046 11.518ZM11.3466 12.8867C11.0277 12.4609 10.8632 11.9697 10.884 11.518L10.874 11.5176C10.8531 11.9719 11.0186 12.4654 11.3385 12.8927L11.3466 12.8867ZM12.1944 13.6157C11.8722 13.4459 11.5773 13.1951 11.3466 12.8867L11.3385 12.8927C11.5702 13.2023 11.8662 13.4541 12.1898 13.6245L12.1944 13.6157ZM11.6947 12.9639L12.1881 13.6231L12.1961 13.6171L11.7027 12.9579L11.6947 12.9639ZM11.7512 12.682C11.6511 12.7453 11.6256 12.8716 11.6947 12.9639L11.7027 12.9579C11.6373 12.8706 11.6611 12.7508 11.7565 12.6905L11.7512 12.682ZM12.0567 12.734C11.9878 12.642 11.8511 12.6189 11.7512 12.682L11.7565 12.6905C11.8522 12.63 11.983 12.6524 12.0487 12.74L12.0567 12.734ZM12.5502 13.3933L12.0567 12.734L12.0487 12.74L12.5422 13.3993L12.5502 13.3933ZM12.1038 12.4091C12.3346 12.7174 12.484 13.06 12.5413 13.3971L12.5511 13.3955C12.4936 13.0566 12.3435 12.7126 12.1118 12.4031L12.1038 12.4091ZM10.8775 11.5226C11.3444 11.6664 11.785 11.9833 12.1038 12.4091L12.1118 12.4031C11.7918 11.9758 11.3495 11.6575 10.8805 11.513L10.8775 11.5226ZM14.4806 14.8229C14.8644 14.3103 15.398 13.9328 15.9624 13.7704L15.9596 13.7607C15.393 13.9239 14.8576 14.3027 14.4726 14.8169L14.4806 14.8229ZM13.9495 16.1111C13.9975 15.6745 14.1802 15.2243 14.4806 14.8229L14.4726 14.8169C14.1712 15.2195 13.9878 15.6714 13.9395 16.11L13.9495 16.1111ZM14.5929 15.2363L13.9405 16.1076L13.9485 16.1136L14.6009 15.2423L14.5929 15.2363ZM14.8984 15.1842C14.7984 15.1211 14.6617 15.1442 14.5929 15.2363L14.6009 15.2423C14.6664 15.1546 14.7973 15.1322 14.893 15.1927L14.8984 15.1842ZM14.9549 15.4662C15.024 15.3738 14.9984 15.2476 14.8984 15.1842L14.893 15.1927C14.9884 15.2531 15.0123 15.3728 14.9469 15.4602L14.9549 15.4662ZM14.3026 16.3374L14.9549 15.4662L14.9469 15.4602L14.2946 16.3314L14.3026 16.3374ZM15.4161 15.4133C15.1157 15.8146 14.7233 16.1325 14.2965 16.3299L14.3007 16.3389C14.729 16.1409 15.1227 15.8219 15.4241 15.4193L15.4161 15.4133ZM15.956 13.7659C15.9927 14.3078 15.8 14.9006 15.4161 15.4133L15.4241 15.4193C15.8092 14.905 16.0028 14.3099 15.966 13.7652L15.956 13.7659ZM11.0726 15.4133C10.6887 14.9005 10.4961 14.3078 10.5327 13.7658L10.5227 13.7651C10.4859 14.3099 10.6795 14.9049 11.0646 15.4193L11.0726 15.4133ZM12.1922 16.3298C11.7653 16.1324 11.373 15.8145 11.0726 15.4133L11.0646 15.4193C11.366 15.8218 11.7596 16.1408 12.188 16.3388L12.1922 16.3298ZM11.5338 15.4661L12.1861 16.3373L12.1941 16.3313L11.5418 15.4601L11.5338 15.4661ZM11.5903 15.1842C11.4903 15.2475 11.4647 15.3738 11.5338 15.4661L11.5418 15.4601C11.4764 15.3728 11.5003 15.253 11.5957 15.1927L11.5903 15.1842ZM11.8958 15.2363C11.8269 15.1442 11.6901 15.1211 11.5903 15.1842L11.5957 15.1927C11.6913 15.1322 11.8222 15.1546 11.8878 15.2423L11.8958 15.2363ZM12.5482 16.1076L11.8958 15.2363L11.8878 15.2423L12.5402 16.1136L12.5482 16.1076ZM12.008 14.8229C12.3085 15.2243 12.4912 15.6745 12.5392 16.1111L12.5492 16.11C12.5009 15.6714 12.3175 15.2195 12.016 14.8169L12.008 14.8229ZM10.5263 13.7702C11.0906 13.9327 11.6242 14.3102 12.008 14.8229L12.016 14.8169C11.631 14.3026 11.0956 13.9238 10.5291 13.7606L10.5263 13.7702ZM11.1581 18.1078V17.6153H11.1481V18.1078H11.1581ZM13.5706 18.1028H11.1531V18.1128H13.5706V18.1028ZM13.7905 18.3052C13.7905 18.1931 13.6917 18.1028 13.5706 18.1028V18.1128C13.687 18.1128 13.7805 18.1994 13.7805 18.3052H13.7905ZM13.5706 18.5077C13.6917 18.5077 13.7905 18.4175 13.7905 18.3052H13.7805C13.7805 18.4112 13.687 18.4977 13.5706 18.4977V18.5077ZM11.5507 18.5077H13.5706V18.4977H11.5507V18.5077ZM11.7898 20.2105L11.5557 18.502L11.5458 18.5034L11.7799 20.2119L11.7898 20.2105ZM14.7039 20.2062H11.7848V20.2162H14.7039V20.2062ZM14.933 18.502L14.6989 20.2105L14.7088 20.2119L14.9429 18.5034L14.933 18.502ZM14.602 18.5077H14.938V18.4977H14.602V18.5077ZM14.3821 18.3052C14.3821 18.4175 14.481 18.5077 14.602 18.5077V18.4977C14.4857 18.4977 14.3921 18.4112 14.3921 18.3052H14.3821ZM14.602 18.1028C14.481 18.1028 14.3821 18.1931 14.3821 18.3052H14.3921C14.3921 18.1994 14.4857 18.1128 14.602 18.1128V18.1028ZM15.3355 18.1028H14.602V18.1128H15.3355V18.1028ZM15.3305 17.6153V18.1078H15.3405V17.6153H15.3305ZM11.1531 17.6203H15.3355V17.6103H11.1531V17.6203ZM14.5602 21.2157H11.9285V21.2257H14.5602V21.2157ZM15.2831 20.6057C15.252 20.9466 14.94 21.2157 14.5602 21.2157V21.2257C14.9445 21.2257 15.2614 20.9532 15.293 20.6066L15.2831 20.6057ZM11.2006 20.6111H15.2881V20.6011H11.2006V20.6111ZM11.9285 21.2157C11.5487 21.2157 11.2367 20.9466 11.2056 20.6057L11.1957 20.6066C11.2273 20.9532 11.5442 21.2257 11.9285 21.2257V21.2157Z" fill="white"/>
<path d="M9.61617 24H5.38383C5.174 24 5 24.1775 5 24.3916V27.6084C5 27.8225 5.174 28 5.38383 28H9.61617C9.826 28 10 27.8225 10 27.6084V24.3916C10 24.1723 9.826 24 9.61617 24ZM9.23234 27.2167H5.76766V24.7833H9.23234V27.2167Z" fill="white"/>
<path d="M12.3838 28H16.6162C16.826 28 17 27.8225 17 27.6084V24.3916C17 24.1775 16.826 24 16.6162 24H12.3838C12.174 24 12 24.1775 12 24.3916V27.6084C12 27.8225 12.174 28 12.3838 28ZM12.7677 24.7833H16.2323V27.2167H12.7677V24.7833Z" fill="white"/>
<path d="M19.3838 28H23.6162C23.826 28 24 27.8225 24 27.6084V24.3916C24 24.1775 23.826 24 23.6162 24H19.3838C19.174 24 19 24.1775 19 24.3916V27.6084C19 27.8225 19.174 28 19.3838 28ZM19.7677 24.7833H23.2323V27.2167H19.7677V24.7833Z" fill="white"/>
<path d="M9.61617 29H5.38383C5.174 29 5 29.1775 5 29.3916V32.6084C5 32.8225 5.174 33 5.38383 33H9.61617C9.826 33 10 32.8225 10 32.6084V29.3916C10 29.1723 9.826 29 9.61617 29ZM9.23234 32.2167H5.76766V29.7833H9.23234V32.2167Z" fill="white"/>
<path d="M19.3838 33H23.6162C23.826 33 24 32.8225 24 32.6084V29.3916C24 29.1775 23.826 29 23.6162 29H19.3838C19.174 29 19 29.1775 19 29.3916V32.6084C19 32.8225 19.174 33 19.3838 33ZM19.7677 29.7833H23.2323V32.2167H19.7677V29.7833Z" fill="white"/>
</g>
<defs>
<clipPath id="clip0_96_7080">
<rect width="36" height="36" rx="18" fill="white"/>
</clipPath>
</defs>
</svg>
