<svg width="140" height="140" viewBox="0 0 140 140" fill="none" xmlns="http://www.w3.org/2000/svg">
<g id="sabjiyo hetu aalan prabhandan yojna">
<rect width="140" height="140" rx="70" fill="#D0F19E"/>
<circle id="Ellipse 5190" opacity="0.6" cx="70" cy="70" r="50" fill="#ECF9D8"/>
<circle id="Ellipse 5199" cx="74.5" cy="90.5001" r="17.5" fill="#E1F5C1"/>
<g id="Group 1597881790">
<g id="Layer_x0020_1">
<g id="_262689560">
<path id="_262691792" fill-rule="evenodd" clip-rule="evenodd" d="M29.1431 95.8032L29.1432 107.739H44.8178C40.765 102.099 35.505 98.0933 29.1431 95.8032Z" fill="#1A5C4B"/>
<path id="_262690472" fill-rule="evenodd" clip-rule="evenodd" d="M29.1429 84.3833L29.143 93.5216C36.7233 96.0714 42.8701 100.851 47.4338 107.739H60.243C51.7755 97.3063 41.3283 89.4608 29.1429 84.3833Z" fill="#1A5C4B"/>
<path id="_262690376" fill-rule="evenodd" clip-rule="evenodd" d="M29.1428 72.8373L29.1429 82.0548C42.5445 87.4698 53.9274 96.1078 62.9937 107.74H75.8053C62.9271 92.3926 47.2457 80.6621 29.1428 72.8373Z" fill="#1A5C4B"/>
<path id="_262690928" fill-rule="evenodd" clip-rule="evenodd" d="M59.8256 88.9448L111.035 88.9447V81.7001H49.9943C53.3831 83.9525 56.6614 86.3684 59.8256 88.9448Z" fill="#1A5C4B"/>
<path id="_262690856" fill-rule="evenodd" clip-rule="evenodd" d="M70.1609 98.3414H111.035V91.0986H62.401C65.0738 93.3946 67.6611 95.8094 70.1609 98.3414Z" fill="#1A5C4B"/>
<path id="_262690616" fill-rule="evenodd" clip-rule="evenodd" d="M111.035 100.495H72.2397C74.4306 102.817 76.5509 105.232 78.5992 107.739H111.035V100.495Z" fill="#1A5C4B"/>
<path id="_262690352" fill-rule="evenodd" clip-rule="evenodd" d="M48.6633 72.2903C48.6474 72.2903 48.6316 72.2898 48.6159 72.2892L43.6712 72.2881C43.6484 72.2895 43.6254 72.2903 43.6023 72.2903C43.5789 72.2903 43.5559 72.2895 43.5329 72.288L33.1801 72.2857C37.8329 74.4469 42.3216 76.8688 46.64 79.5462H111.035V72.3031L48.7103 72.2892C48.6948 72.2898 48.679 72.2903 48.6633 72.2903Z" fill="#1A5C4B"/>
</g>
</g>
<g id="Group 1597881789">
<path id="_254688344" fill-rule="evenodd" clip-rule="evenodd" d="M66.3895 59.1799C65.9146 58.3601 65.3757 57.6001 64.7825 56.9027C63.4995 55.3941 61.9631 54.1782 60.2739 53.282C58.2082 52.1858 55.9142 51.5677 53.5762 51.4768C52.1129 51.42 50.6323 51.5698 49.1799 51.9386C47.8343 52.2794 46.5128 52.8082 45.2513 53.5342C43.987 54.2618 42.8648 55.1403 41.8944 56.134C40.8506 57.2018 39.9823 58.4028 39.3014 59.6918C37.3027 63.4753 36.9179 68.0175 38.4515 72.1861H67.5227C68.5615 69.348 68.7633 66.221 68.0193 63.2094C67.6782 61.829 67.1385 60.4729 66.3895 59.1799ZM57.8226 62.7985C57.5358 62.3051 57.7047 61.6733 58.1998 61.3874L60.9818 59.7864C61.4769 59.5005 62.1107 59.6689 62.3975 60.1624C62.6842 60.6558 62.5153 61.2876 62.0203 61.5734L59.2382 63.1745C58.7432 63.4603 58.1093 63.292 57.8226 62.7985ZM53.6491 56.9973C53.9358 57.4908 53.7669 58.1226 53.2719 58.4084L50.4898 60.0095C49.9947 60.2953 49.3609 60.127 49.0741 59.6335C48.7874 59.14 48.9563 58.5082 49.4513 58.2224L52.2334 56.6213C52.7285 56.3355 53.3623 56.5038 53.6491 56.9973ZM44.5734 64.2045C45.0685 63.9209 45.7006 64.091 45.9851 64.5845C46.2695 65.078 46.0989 65.708 45.6038 65.9916L42.8216 67.5926C42.3266 67.8762 41.6945 67.706 41.41 67.2126C41.1255 66.7191 41.2962 66.0891 41.7913 65.8055L44.5734 64.2045ZM49.5065 68.1085C49.222 67.615 49.3927 66.985 49.8877 66.7014L52.6699 65.1004C53.165 64.8169 53.797 64.987 54.0815 65.4804C54.366 65.9739 54.1953 66.6039 53.7003 66.8875L50.9181 68.4885C50.423 68.7721 49.791 68.602 49.5065 68.1085ZM57.8745 69.1671L60.6565 67.5661C61.1516 67.2826 61.7837 67.4527 62.0682 67.9461C62.3526 68.4396 62.182 69.0696 61.6869 69.3532L58.9049 70.9542C58.4098 71.2378 57.7777 71.0677 57.4932 70.5742C57.2088 70.0807 57.3794 69.4507 57.8745 69.1671Z" fill="#1A5C4B"/>
<path id="_254687936" fill-rule="evenodd" clip-rule="evenodd" d="M85.1679 31.239C86.7163 29.1373 86.6299 26.2453 84.9591 24.2404C83.2883 22.2354 80.4669 21.6384 78.1316 22.7958C76.6634 20.732 74.1564 19.6817 71.6617 20.0851C69.1669 20.4886 67.1158 22.2761 66.3682 24.6983C63.9492 25.2528 61.9351 26.9246 60.9388 29.2049C59.9424 31.4853 60.0817 34.1044 61.3143 36.2654C59.7191 37.6085 58.8645 39.6392 59.0175 41.7231C59.1706 43.8071 60.3124 45.6902 62.0866 46.7843C61.9919 48.4419 61.65 50.0431 61.0637 51.562L61.16 51.613C62.6624 52.4155 64.0364 53.434 65.239 54.6347C66.3147 53.1755 67.3104 51.6374 68.2139 50.0346C67.1834 49.0139 66.3875 47.9949 65.8265 46.9777C65.1098 45.6781 64.7815 44.3894 64.8418 43.1119C64.8685 42.5437 65.3492 42.1047 65.9155 42.1315C66.4817 42.1582 66.9192 42.6406 66.8925 43.2088C66.8503 44.1037 67.0928 45.0293 67.62 45.9851C68.004 46.6813 68.5405 47.3958 69.2293 48.1285C69.5599 47.4706 69.8751 46.8034 70.1742 46.1277C70.749 44.8292 71.2647 43.4982 71.7159 42.1413C70.9396 41.7295 70.2598 41.1285 69.6764 40.3386C68.8975 39.2837 68.2995 37.8911 67.8828 36.1608C67.7495 35.6082 68.088 35.0517 68.6387 34.918C69.1894 34.7843 69.7439 35.1239 69.8772 35.6765C70.2286 37.1356 70.7113 38.2808 71.3251 39.112C71.6285 39.5229 71.9659 39.8555 72.3372 40.11C72.9167 38.0371 73.345 35.9128 73.6039 33.7588C73.6705 33.1928 74.1818 32.7882 74.7458 32.855C75.3099 32.9218 75.7131 33.4349 75.6466 34.0009C75.3913 36.125 74.9772 38.2241 74.4203 40.279C75.0304 40.1236 75.6034 39.9196 76.1393 39.6668C77.08 39.2231 77.9195 38.6235 78.6576 37.8682C79.0551 37.4627 79.7051 37.4572 80.1092 37.8561C80.5133 38.255 80.5188 38.9072 80.1213 39.3127C79.2153 40.2397 78.1775 40.9793 77.0079 41.531C76.0087 42.0023 74.9229 42.3325 73.7506 42.5216C73.2574 44.0321 72.6876 45.5139 72.048 46.9589C71.7523 47.627 71.4417 48.287 71.1169 48.9381C71.9482 48.8912 72.7421 48.7202 73.4984 48.4249C74.6825 47.9627 75.7911 47.1895 76.8238 46.106C77.2147 45.6937 77.8646 45.6775 78.2755 46.0697C78.6863 46.4619 78.7025 47.1141 78.3116 47.5263C77.0682 48.831 75.7103 49.7709 74.2382 50.3455C72.9143 50.8624 71.5107 51.0787 70.0276 50.9946C69.0031 52.8196 67.866 54.5628 66.6322 56.2053C67.1497 56.8651 67.6193 57.5619 68.0378 58.2893C68.7484 59.5244 69.3073 60.8402 69.6992 62.2092C71.5066 60.8772 73.1019 59.0271 74.4851 56.6586C76.3519 57.2888 78.4006 57.06 80.0835 56.0333C80.1761 55.9767 80.2672 55.9181 80.3564 55.8574C81.8901 54.8165 82.9284 53.1792 83.2134 51.3338C86.463 49.4841 87.9839 45.6618 86.9875 42.1245C86.9111 41.8513 86.8193 41.58 86.712 41.3114C88.0432 39.8496 88.6428 37.8614 88.3428 35.9043C88.0427 33.9472 86.8753 32.2317 85.1679 31.239Z" fill="#1A5C4B"/>
<path id="_254688416" fill-rule="evenodd" clip-rule="evenodd" d="M104.932 48.3096C102.198 44.6068 96.9882 41.5849 92.43 41.0584C91.347 40.9333 90.3008 40.949 89.3334 41.1299C89.2464 41.2782 89.1548 41.4241 89.0588 41.5674C90.1504 45.701 88.5372 50.0571 85.094 52.4801C84.5474 54.4931 83.3001 56.2559 81.5639 57.4378C81.4466 57.5177 81.3273 57.5947 81.2062 57.6686C80.6132 58.0311 79.9846 58.3176 79.3351 58.5265L74.093 72.1863H93.4159L105.4 57.2663C107.678 54.4311 107.042 51.1675 104.932 48.3096ZM96.1878 50.5178C96.4697 50.0248 97.096 49.8549 97.5865 50.1382L99.9942 51.5351C100.485 51.8184 100.654 52.4477 100.372 52.9407C100.09 53.4336 99.4638 53.6035 98.9733 53.3203L96.5656 51.9233C96.0751 51.6401 95.906 51.0107 96.1878 50.5178ZM89.9 50.7873L92.3077 52.1842C92.7982 52.4674 92.9673 53.0968 92.6855 53.5897C92.4036 54.0827 91.7773 54.2526 91.2868 53.9693L88.8791 52.5725C88.3886 52.2892 88.2195 51.6599 88.5013 51.1669C88.7832 50.674 89.4095 50.504 89.9 50.7873ZM84.8618 58.1222L87.2695 59.5191C87.76 59.8024 87.9291 60.4317 87.6473 60.9247C87.3654 61.4176 86.7391 61.5875 86.2486 61.3043L83.8409 59.9073C83.3504 59.6241 83.1813 58.9947 83.4632 58.5018C83.745 58.0089 84.3713 57.8389 84.8618 58.1222ZM79.6934 66.1458C79.9753 65.6529 80.6016 65.483 81.0921 65.7662L83.4998 67.1631C83.9903 67.4463 84.1594 68.0757 83.8775 68.5686C83.5957 69.0616 82.9694 69.2315 82.4789 68.9483L80.0712 67.5514C79.5806 67.2681 79.4115 66.6388 79.6934 66.1458ZM93.2068 59.9073C92.7163 59.6241 92.5472 58.9947 92.8291 58.5018C93.111 58.0089 93.7372 57.8389 94.2278 58.1222L96.6355 59.5191C97.126 59.8024 97.2951 60.4317 97.0132 60.9247C96.7313 61.4176 96.1051 61.5875 95.6146 61.3043L93.2068 59.9073ZM88.6305 66.1613C88.9124 65.6684 89.5386 65.4985 90.0292 65.7817L92.4369 67.1786C92.9275 67.4619 93.0966 68.0912 92.8147 68.5841C92.5328 69.0771 91.9066 69.247 91.416 68.9638L89.0083 67.5669C88.5177 67.2836 88.3486 66.6543 88.6305 66.1613Z" fill="#1A5C4B"/>
<path id="_254688560" fill-rule="evenodd" clip-rule="evenodd" d="M45.9882 46.5895C43.2579 42.724 39.7771 39.4151 35.7209 36.8838C35.8623 41.6949 36.9564 46.3918 38.9015 50.7109C39.4922 52.0229 40.1616 53.3001 40.9066 54.535C41.9328 53.5259 43.0804 52.6507 44.3215 51.9267C45.5599 51.2042 46.881 50.6385 48.2558 50.2452C47.572 48.9797 46.8145 47.7591 45.9882 46.5895Z" fill="#1A5C4B"/>
<path id="_254687912" fill-rule="evenodd" clip-rule="evenodd" d="M38.9883 55.5972C38.199 54.2875 37.488 52.9298 36.8601 51.5336C36.567 50.8818 36.2923 50.2224 36.0363 49.5563C32.8354 48.3901 29.4504 47.7315 26 47.6279C28.865 52.3205 32.8334 56.1785 37.5119 58.8837C38.0213 57.906 38.6211 56.9798 39.3023 56.1183L38.9883 55.5972Z" fill="#1A5C4B"/>
<path id="_254688176" fill-rule="evenodd" clip-rule="evenodd" d="M53.6276 49.4874C53.6506 44.0498 52.3479 38.6578 49.794 33.8139C48.1753 36.8842 47.0594 40.1747 46.4651 43.5575C46.9025 44.1142 47.3249 44.6839 47.7317 45.266C48.5995 46.5075 49.394 47.802 50.1099 49.1408L50.3952 49.6743C51.4636 49.5077 52.5473 49.4448 53.6276 49.4874Z" fill="#1A5C4B"/>
<path id="_254688008" fill-rule="evenodd" clip-rule="evenodd" d="M111.145 35.096C112.056 34.0808 111.81 32.4927 110.635 31.8073L104.488 28.2209C103.313 27.5353 101.829 28.1146 101.415 29.4202L100.869 31.14L97.8838 40.5544C99.8234 41.3658 101.7 42.4781 103.341 43.7909L109.885 36.4994L111.145 35.096Z" fill="#1A5C4B"/>
<path id="_254687408" fill-rule="evenodd" clip-rule="evenodd" d="M95.8538 39.6978L98.9071 30.6248L95.6533 29.7945C94.2895 29.4466 92.9515 30.376 92.8834 31.719L92.5117 39.0373C92.5585 39.0421 92.6054 39.047 92.6521 39.0521C93.7038 39.1673 94.7797 39.3872 95.8538 39.6978Z" fill="#1A5C4B"/>
<path id="_254687240" fill-rule="evenodd" clip-rule="evenodd" d="M113.017 43.315C114.167 42.5702 114.338 40.9654 113.37 39.9923L111.297 37.9071L104.791 45.1223C105.488 45.8013 106.12 46.5176 106.668 47.2608C106.696 47.2979 106.723 47.335 106.75 47.3722L113.017 43.315Z" fill="#1A5C4B"/>
</g>
</g>
</g>
</svg>
