<svg width="140" height="140" viewBox="0 0 140 140" fill="none" xmlns="http://www.w3.org/2000/svg">
<rect width="140" height="140" rx="12" fill="#D0F19E"/>
<circle opacity="0.6" cx="70" cy="70" r="45" fill="white"/>
<path d="M75.0136 39.3802C75.2301 39.4884 75.5549 39.5967 75.8797 39.7049H75.9879C77.8282 40.1379 80.4263 39.7049 82.9162 38.2976C82.9162 38.2976 83.0244 38.2976 83.0244 38.1894C83.4575 37.9729 83.7822 37.7563 84.2152 37.5398C87.4629 35.483 90.7105 35.1582 92.8756 35.1582C93.5251 35.1582 93.8499 34.617 93.7416 34.0757C93.4169 33.1014 93.0921 32.1271 92.8756 31.0446C92.1178 27.5804 89.628 25.3071 89.5197 25.3071C89.4115 25.1989 86.1638 22.4925 80.1016 25.1989C74.2559 27.797 73.3898 34.617 73.2816 35.3748V35.483C73.1733 37.4316 73.8228 38.7306 75.0136 39.3802Z" fill="#1A5C4B"/>
<path d="M111.495 39.1637C108.897 35.4831 106.407 33.4262 103.701 32.5602C101.103 31.6942 98.2883 32.0189 95.2572 31.9107C95.3654 32.4519 95.5819 32.9932 95.7984 33.5345C96.1232 34.4005 96.015 35.483 95.4737 36.2408C94.9324 37.1069 93.9581 37.5399 92.8756 37.4316C91.9013 37.4316 90.8187 37.4316 89.7362 37.6481C90.7105 38.5142 91.6848 39.5967 92.7673 40.7875C102.294 53.0202 104.567 69.9079 98.3965 82.8984C94.3911 91.3422 87.3546 97.7292 82.8079 105.74C82.4832 106.281 82.1584 106.823 82.0502 107.364C81.7254 108.988 82.8079 110.611 84.107 111.369C85.406 112.235 87.1381 112.56 89.4114 112.452C94.2829 112.235 99.3708 110.07 103.701 106.39C107.273 103.358 110.521 99.1365 113.444 93.7238C117.125 87.0121 119.398 80.3003 120.264 73.6968C121.779 61.6806 118.532 49.0148 111.495 39.1637Z" fill="#1A5C4B"/>
<path d="M22.7268 87.7698C25.2167 90.3679 28.5726 92.3165 32.4697 93.399C39.1815 91.667 46.218 90.3679 52.3885 87.3368C66.3533 80.5168 75.8797 64.6034 75.9879 47.824C75.9879 47.2827 75.9879 46.8497 75.9879 46.4167C72.9568 60.4898 62.4561 72.2895 49.5739 75.9701C44.8107 77.2692 39.831 77.5939 35.0678 77.8104C31.2789 78.0269 27.2735 78.2434 23.4846 79.0012C22.8351 79.1095 22.2938 79.2177 21.8608 79.5425C20.5617 80.3003 20.0205 82.0323 20.237 83.4396C20.4535 84.7387 21.3195 86.146 22.7268 87.7698Z" fill="#1A5C4B"/>
<path d="M48.7078 103.9C56.7187 98.1622 66.4615 95.0228 73.8228 88.8523C84.973 79.5425 90.061 62.9796 86.4886 47.7157C85.7308 44.5764 84.6483 42.1948 83.2409 40.571C81.2924 41.437 79.452 41.9783 77.72 41.9783C78.0447 43.6021 78.2613 45.5507 78.2613 47.7157C78.0447 65.3612 68.0854 82.0323 53.3628 89.1771C43.8364 93.832 32.9027 94.5898 23.2681 98.487C22.6186 98.8117 21.8608 99.0282 21.4278 99.4613C19.9122 100.652 19.6957 102.925 20.3452 104.657C20.8865 106.39 22.1856 107.905 24.3506 109.421C28.8973 112.668 34.9596 114.4 41.4548 114.184C43.2951 114.076 45.2437 113.859 47.1923 113.534C47.084 113.318 46.8675 113.21 46.7593 112.993C45.2437 110.611 45.2437 107.58 46.7593 105.632C47.3005 104.874 47.9501 104.333 48.7078 103.9Z" fill="#1A5C4B"/>
<path d="M80.9676 104.766C85.5143 96.7549 92.6591 90.1514 96.448 82.1406C102.294 69.9079 100.129 53.778 91.0353 42.3031C89.7362 40.571 88.4372 39.3802 87.2464 38.5142C86.5968 38.7307 85.9473 39.0554 85.2978 39.4884C85.1895 39.4884 85.1895 39.5967 85.0813 39.5967C86.5968 41.437 87.7876 43.9269 88.5454 47.2827C92.3343 63.3044 87.0299 80.7333 75.2301 90.5844C67.5441 96.9714 57.9095 100.003 50.0069 105.74C49.4656 106.173 48.9244 106.498 48.4913 107.039C47.4088 108.446 47.7336 110.503 48.5996 111.911C49.4656 113.318 50.9812 114.4 53.2545 115.375C58.126 117.323 63.9717 117.54 69.8174 115.916C73.2816 114.942 76.854 113.318 80.5346 110.936C79.8851 109.745 79.6686 108.446 79.8851 107.147C80.1016 106.173 80.5346 105.415 80.9676 104.766Z" fill="#1A5C4B"/>
</svg>
