<svg width="36" height="36" viewBox="0 0 36 36" fill="none" xmlns="http://www.w3.org/2000/svg">
<rect width="36" height="36" rx="18" fill="#006633"/>
<path d="M27.4355 9.72581H24.9194V8.95161C24.9194 8.75806 24.7742 8.56452 24.5323 8.56452H22.7419V7.83871H23.9516C24.4839 7.83871 24.871 7.40323 24.871 6.91935C24.871 6.3871 24.4355 6 23.9516 6H20.8065C20.2742 6 19.8871 6.43548 19.8871 6.91935C19.8871 7.45161 20.3226 7.83871 20.8065 7.83871H22.0161V8.56452H20.2258C20.0806 8.56452 19.9355 8.75806 19.9355 8.95161V9.72581H17.2258C17.0323 9.72581 16.8387 9.87097 16.8387 10.1129V13.3548C16.8387 13.5484 16.9839 13.6935 17.2258 13.6935H25.7419V19.3548H6.3871C6.19355 19.3548 6 19.5 6 19.7419V21.7742C6 21.9677 6.14516 22.1613 6.3871 22.1613H7.64516C7.64516 26.0323 7.64516 27.8226 7.64516 29.6129C7.64516 29.8064 7.79032 30 8.03226 30H24.4355C24.629 30 24.8226 29.8548 24.8226 29.6129V27V24.3871V22.1613H25.7419V29.5645C25.7419 29.7581 25.8871 29.9516 26.129 29.9516H29.6129C29.8064 29.9516 30 29.8065 30 29.5645V12.2419C30 10.8387 28.8387 9.72581 27.4355 9.72581ZM20.6613 6.91935C20.6613 6.82258 20.7581 6.72581 20.8548 6.72581H24C24.0968 6.72581 24.1935 6.82258 24.1935 6.91935C24.1935 7.01613 24.0968 7.1129 24 7.1129H20.8548C20.7097 7.1129 20.6613 7.01613 20.6613 6.91935ZM20.6613 9.29032H24.2419V9.72581H20.6613V9.29032ZM18.5806 22.1129V24H13.8387V22.1129H18.5806ZM24.0968 24.7258V26.6129H21.9677V24.7258H24.0968ZM21.1935 26.6129H16.5968V24.7258H21.1935V26.6129ZM8.37097 26.6129V24.7258H10.5V26.6129H8.37097ZM11.2742 24.7258H15.871V26.6129H11.2742V24.7258ZM18.5806 27.3387V29.2258H13.8387V27.3387H18.5806ZM13.1613 24H8.37097V22.1129H13.1613V24ZM8.37097 27.3387H13.1613V29.2258H8.37097V27.3387ZM24.0968 29.2258H19.3548V27.3387H24.0968V29.2258ZM24.0968 24H19.3548V22.1129H24.0968V24ZM24.4355 21.3871H8.03226H6.77419V20.0806H25.7419V21.3871H24.4355ZM29.2742 29.2258H26.4677V21.7742V19.7419V13.3065C26.4677 13.1129 26.3226 12.9194 26.0806 12.9194H17.5645V10.4516H20.2742C30.0968 10.4516 21.3387 10.4516 27.4355 10.4516C28.4032 10.4516 29.2258 11.2742 29.2258 12.2419V29.2258H29.2742Z" fill="white"/>
<path d="M9.48368 18.4355C9.67722 18.4839 9.87077 18.3871 9.91916 18.1451C10.7417 14.8064 12.9192 12.0484 15.774 10.6935C15.9675 10.5968 16.0159 10.4032 15.9675 10.2097C15.8708 10.0161 15.6772 9.96772 15.4837 10.0161C12.4353 11.4193 10.1127 14.3709 9.24174 17.9516C9.14497 18.1935 9.29013 18.3871 9.48368 18.4355Z" fill="white"/>
<path d="M12.9193 18.8226C13.1613 18.8226 13.3064 18.6774 13.3064 18.4839C13.5484 16.2097 14.5161 14.2258 16.0645 12.7742C16.2096 12.629 16.2096 12.3871 16.0645 12.2419C15.9193 12.0968 15.6774 12.0968 15.5322 12.2419C13.8871 13.7903 12.8225 15.9677 12.5322 18.3871C12.5806 18.629 12.7258 18.8226 12.9193 18.8226Z" fill="white"/>
<path d="M13.1612 14.3226C13.016 14.1774 12.7741 14.1774 12.6289 14.3226C11.7579 15.1935 11.3708 16.3548 11.2257 17.1774C11.1773 17.3709 11.3225 17.5645 11.516 17.6129C11.516 17.6129 11.5644 17.6129 11.6128 17.6129C11.7579 17.6129 11.9515 17.5161 11.9515 17.3226C12.0967 16.5967 12.4354 15.5806 13.1612 14.8064C13.3063 14.7097 13.3063 14.4677 13.1612 14.3226Z" fill="white"/>
</svg>
