<svg width="302" height="299" viewBox="0 0 302 299" fill="none" xmlns="http://www.w3.org/2000/svg">
<rect width="301.658" height="299" rx="149.5" fill="#006633"/>
<path d="M48 106.822L147.197 33.8417C147.882 33.3376 148.811 33.3221 149.513 33.8028L253.658 105.163" stroke="white" stroke-width="7" stroke-linecap="round"/>
<path fill-rule="evenodd" clip-rule="evenodd" d="M89.6157 122.941C89.5681 122.999 89.522 123.056 89.4773 123.111H81.6497C79.1782 123.111 76.808 124.092 75.0604 125.84C73.3128 127.587 72.3311 129.958 72.3311 132.429V144.854C72.3364 146.922 73.0298 148.93 74.3019 150.561C75.574 152.192 77.3525 153.353 79.3573 153.862C72.9523 165.473 69.2249 182.513 69.2249 200.765C69.1858 210.48 70.3111 220.163 72.5764 229.61C73.3177 232.642 72.907 235.842 71.424 238.59C70.0359 241.19 69.2843 244.082 69.2309 247.029C69.1775 249.976 69.8238 252.894 71.1168 255.542C72.4098 258.191 74.3126 260.496 76.669 262.266C79.0253 264.037 81.7681 265.223 84.672 265.728C89.0917 266.481 93.6348 265.629 97.4819 263.327C100.213 261.533 103.535 260.871 106.745 261.482C120.948 264.577 135.45 266.091 149.986 265.996C164.523 266.091 179.026 264.577 193.231 261.482C196.44 260.877 199.76 261.538 202.493 263.327C206.341 265.625 210.881 266.476 215.3 265.728C218.206 265.227 220.951 264.043 223.309 262.273C225.667 260.503 227.572 258.199 228.865 255.549C230.159 252.9 230.805 249.981 230.749 247.033C230.694 244.085 229.94 241.192 228.548 238.593C227.063 235.845 226.653 232.643 227.399 229.61C229.662 220.163 230.786 210.479 230.747 200.765C230.747 182.51 227.02 165.473 220.615 153.862C222.62 153.353 224.398 152.192 225.67 150.561C226.942 148.93 227.636 146.922 227.641 144.854V132.429C227.641 129.958 226.659 127.587 224.912 125.84C223.164 124.092 220.794 123.111 218.322 123.111H210.495C210.45 123.056 210.404 122.999 210.357 122.941H202.216C202.265 122.998 202.314 123.054 202.363 123.111H97.6093C97.6579 123.054 97.7069 122.998 97.7562 122.941H89.6157ZM79.4532 130.233C78.8707 130.815 78.5435 131.605 78.5435 132.429V144.854C78.5435 145.678 78.8707 146.468 79.4532 147.05C80.0358 147.633 80.8258 147.96 81.6497 147.96H218.322C219.146 147.96 219.936 147.633 220.519 147.05C221.101 146.468 221.429 145.678 221.429 144.854V132.429C221.429 131.605 221.101 130.815 220.519 130.233C219.936 129.65 219.146 129.323 218.322 129.323H81.6497C80.8258 129.323 80.0358 129.65 79.4532 130.233ZM213.495 154.172H86.4736C79.5623 164.734 75.4373 181.929 75.4373 200.765C75.3991 209.971 76.4628 219.147 78.6056 228.1C79.723 232.63 79.1163 237.414 76.9034 241.522C75.6247 243.921 75.1681 246.673 75.6033 249.356C76.0386 252.039 77.3418 254.505 79.3131 256.377C81.2845 258.249 83.8152 259.422 86.5174 259.717C89.2195 260.013 91.944 259.414 94.2732 258.013C98.3833 255.384 103.356 254.459 108.136 255.434C121.883 258.423 135.918 259.882 149.986 259.783C164.055 259.875 178.092 258.411 191.839 255.416C196.619 254.441 201.592 255.365 205.702 257.994C208.031 259.393 210.754 259.99 213.455 259.694C216.155 259.398 218.685 258.225 220.655 256.354C222.625 254.484 223.928 252.019 224.364 249.337C224.8 246.655 224.345 243.905 223.069 241.506C220.858 237.403 220.251 232.625 221.366 228.1C223.51 219.148 224.573 209.971 224.535 200.765C224.535 181.929 220.41 164.734 213.495 154.172Z" fill="white"/>
<path d="M184.254 111.776C183.043 112.99 185.211 114.205 185.211 114.205C185.211 114.205 187.187 113.719 188.845 112.929C190.503 112.14 189.674 111.776 187.251 110.382C184.828 108.989 185.466 110.561 184.254 111.776Z" fill="white"/>
<path d="M132.061 120.176C133.432 120.358 134.385 121.203 135.254 122.12C135.693 122.585 136.191 123.249 136.929 123.305C136.033 122.784 135.816 121.694 135.048 121.015C133.883 119.621 131.666 119.31 130.012 120.067C130.722 120.043 131.408 120.066 132.061 120.176Z" fill="white"/>
<path d="M152.689 114.051C151.028 113.409 148.992 114.308 148.215 115.778C149.182 114.839 150.776 114.15 152.141 114.573C153.223 115.013 154.862 114.968 155.501 115.867C155.991 116.535 156.291 117.792 157.315 117.845C157.077 117.802 156.923 117.618 156.791 117.451C156.456 116.991 156.333 116.441 156.137 115.919C155.644 114.535 153.938 114.397 152.689 114.051Z" fill="white"/>
<path d="M144.774 92.5461C144.682 91.5802 145.096 90.9614 145.173 90.5842C145.25 90.2068 144.514 90.3729 144.222 90.1465C143.931 89.9201 143.548 89.4522 142.964 89.4522C142.38 89.4522 141.784 90.72 141.661 90.8709C141.512 91.1257 138.166 93.9441 139.376 94.9156C139.625 95.6722 140.358 94.1761 141.079 92.9385C141.799 91.7009 142.075 91.5802 142.06 91.8772C142.045 92.1741 140.941 93.678 140.849 94.1761C140.757 94.6741 141.063 94.5684 141.263 94.161C141.462 93.7535 142.045 94.3119 142.459 94.3571C142.873 94.4024 143.839 95.0514 144.284 95.489C144.728 95.9267 144.667 96.0776 145.081 95.972C145.495 95.8664 145.25 95.6098 144.958 94.7646C144.667 93.9195 144.866 93.512 144.774 92.5461Z" fill="white"/>
<path d="M162.043 93.4563C161.806 93.2156 161.529 92.2091 161.529 91.9503C161.529 91.6915 161.529 91.0661 161.212 90.9165C160.896 90.7669 159.926 92.6835 159.867 93.1147C159.808 93.546 160.302 93.6538 160.421 93.9989C160.54 94.3439 160.302 94.538 160.56 95.0986C160.817 95.6593 161.529 96.0043 161.529 96.0043C161.529 96.0043 162.024 95.875 162.775 95.8965C163.527 95.9181 163.903 95.3574 163.863 94.7536C163.824 94.1498 162.756 94.1067 162.043 93.4563Z" fill="white"/>
<path d="M107.078 120.757C106.841 120.516 106.564 119.509 106.564 119.251C106.564 118.992 106.564 118.366 106.247 118.217C105.931 118.067 104.961 119.984 104.902 120.415C104.843 120.846 105.337 120.954 105.456 121.299C105.575 121.644 105.337 121.838 105.594 122.399C105.852 122.96 106.564 123.305 106.564 123.305C106.564 123.305 107.058 123.175 107.81 123.197C108.562 123.218 108.938 122.658 108.898 122.054C108.859 121.45 107.79 121.407 107.078 120.757Z" fill="white"/>
<path d="M93.8705 108.764C93.1781 108.059 93.22 109.387 92.9473 109.698C92.6745 110.01 92.8633 109.242 93.0102 108.537C93.1571 107.833 93.7446 108.328 94.0174 107.892C94.2902 107.457 93.8286 107.187 93.6007 106.772C93.3729 106.357 91.9401 106.626 91.9191 106.958C91.8981 107.291 91.1427 107.062 90.786 107.208C90.4293 107.353 91.2896 108.328 91.4773 108.785C91.6651 109.242 91.4784 109.636 91.8771 110.362C92.2758 111.089 92.5696 110.985 93.3459 111.421C94.1223 111.857 94.4371 112.272 94.4371 112.272C94.5839 112.708 95.9269 111.753 96.1157 111.546C96.3046 111.338 95.8639 111.006 95.3813 110.695C94.8987 110.383 94.563 109.47 93.8705 108.764Z" fill="white"/>
<path d="M97.628 106.954C97.9005 107.152 98.1311 106.734 98.3197 107.24C98.5084 107.747 98.9485 107.791 99.263 107.35C99.7239 106.61 101.375 106.491 100.269 105.457C99.8499 105.016 100.667 104.642 100.877 104.466C101.087 104.289 99.2001 104.422 98.7809 104.466C98.3617 104.51 97.5861 105.192 97.3555 105.545C97.125 105.897 97.3555 106.756 97.3555 106.756C97.3555 106.756 97.3555 106.756 97.628 106.954Z" fill="white"/>
<path d="M158.446 104.125C158.546 104.426 158.895 104.419 158.842 104.625C158.79 104.831 159.033 104.738 159.091 105.19C159.127 105.469 159.197 105.694 159.246 105.826C159.108 105.499 158.719 104.653 158.36 104.619C157.913 104.578 157.753 104.668 157.753 104.668C157.753 104.668 157.609 104.858 157.372 104.964C157.136 105.07 157.089 105.108 157.075 105.243C157.062 105.377 156.999 105.778 156.978 106.113C156.956 106.449 156.947 106.52 156.898 106.57C156.848 106.62 156.915 106.744 156.915 106.744C156.946 106.781 157.522 107.051 157.76 107.004C157.998 106.958 158.086 106.853 158.197 107.011C158.307 107.169 158.953 107.189 159.247 107.298C159.542 107.407 160.194 107.589 160.209 107.316C160.224 107.043 159.778 106.05 159.83 106.01C159.881 105.97 160.214 107.399 160.469 107.421C160.725 107.443 161.488 107.353 161.966 107.469C162.443 107.584 162.65 107.32 162.677 106.894C162.703 106.467 162.477 106.417 162.336 106.366C162.194 106.315 162.617 106.09 162.617 106.09L162.672 105.589C162.672 105.589 162.826 105.488 162.747 105.348C162.668 105.209 162.865 104.76 162.75 104.531C162.635 104.302 161.893 102.841 161.755 103.096C161.617 103.35 161.558 104.118 161.558 104.118C161.558 104.118 162.024 104.618 162.154 104.898C162.283 105.177 161.517 104.67 161.414 104.287C161.31 103.905 161.404 103.573 161.068 103.601C160.732 103.63 160.551 103.908 160.447 103.6C160.343 103.291 159.973 102.737 159.519 102.832C159.066 102.927 159.04 103.529 158.949 103.668C158.859 103.808 158.347 103.824 158.446 104.125Z" fill="white"/>
<path d="M155.899 120.505C155.998 120.806 156.347 120.799 156.295 121.006C156.242 121.212 156.485 121.118 156.544 121.57C156.58 121.849 156.65 122.074 156.698 122.206C156.561 121.879 156.172 121.033 155.812 120.999C155.366 120.958 155.206 121.049 155.206 121.049C155.206 121.049 155.061 121.239 154.825 121.345C154.589 121.451 154.542 121.488 154.528 121.623C154.514 121.757 154.452 122.158 154.43 122.494C154.408 122.829 154.399 122.9 154.35 122.95C154.301 123 154.367 123.124 154.367 123.124C154.399 123.161 154.974 123.431 155.212 123.385C155.45 123.338 155.539 123.233 155.649 123.391C155.76 123.549 156.406 123.569 156.7 123.678C156.994 123.787 157.647 123.969 157.662 123.696C157.676 123.424 157.231 122.43 157.282 122.39C157.334 122.35 157.666 123.779 157.922 123.801C158.178 123.823 158.941 123.733 159.418 123.849C159.896 123.964 160.103 123.701 160.129 123.274C160.156 122.848 159.93 122.797 159.788 122.746C159.647 122.695 160.069 122.47 160.069 122.47L160.124 121.969C160.124 121.969 160.278 121.868 160.199 121.729C160.121 121.589 160.318 121.14 160.202 120.911C160.087 120.683 159.345 119.221 159.207 119.476C159.069 119.73 159.01 120.498 159.01 120.498C159.01 120.498 159.476 120.999 159.606 121.278C159.736 121.557 158.97 121.05 158.866 120.668C158.763 120.285 158.857 119.953 158.521 119.982C158.184 120.01 158.004 120.289 157.9 119.98C157.796 119.672 157.425 119.117 156.972 119.212C156.518 119.307 156.492 119.909 156.402 120.049C156.312 120.188 155.799 120.204 155.899 120.505Z" fill="white"/>
<path d="M136.943 118.731C136.825 119.27 137.52 118.578 137.875 118.593C138.23 118.608 140.211 118.731 140.64 118.547C141.069 118.362 140.655 117.839 140.418 117.485C140.181 117.131 140.788 117.055 140.921 116.642C141.054 116.229 140.137 116.424 139.96 116.516C139.782 116.608 139.398 116.793 139.072 116.685C138.046 116.292 137.112 118.343 136.943 118.731Z" fill="white"/>
<path d="M144.666 117.965C144.363 118.269 144.905 118.573 144.905 118.573C144.905 118.573 145.399 118.451 145.814 118.254C146.228 118.057 146.021 117.965 145.415 117.617C144.81 117.269 144.969 117.662 144.666 117.965Z" fill="white"/>
<path d="M145.868 110.993C146.004 111.121 146.867 111.014 146.746 110.881C146.625 110.749 146.731 110.535 146.549 110.221C146.368 109.908 146.004 110.155 145.808 110.139C145.611 110.122 145.339 109.792 145.066 109.842C144.794 109.891 144.39 110.695 144.219 111.162C144.068 111.575 145.732 110.865 145.868 110.993Z" fill="white"/>
<path d="M210.95 95.1911C211.224 95.5104 211.791 94.8616 212.095 94.3878C212.398 93.914 212.643 93.6565 212.643 93.4654C212.643 93.2742 212.183 92.8222 211.938 92.4927C211.693 92.1631 211.351 92.5751 211.028 92.5442C210.705 92.5133 210.187 93.0591 210.089 93.3372C209.992 93.6153 210.118 93.7492 210.089 93.9552C210.06 94.1612 209.861 94.3291 209.805 94.3878C209.414 94.7998 210.676 94.8719 210.95 95.1911Z" fill="white"/>
<path d="M174.287 96.9305C175.658 97.1312 176.611 98.0598 177.48 99.0691C177.919 99.5809 178.417 100.311 179.155 100.373C178.259 99.7996 178.042 98.6008 177.274 97.854C176.109 96.3196 173.892 95.9775 172.238 96.8106C172.948 96.7839 173.634 96.8093 174.287 96.9305Z" fill="white"/>
<path d="M173.437 88.5705C171.776 87.9286 169.739 88.828 168.962 90.2973C169.93 89.3586 171.523 88.6691 172.889 89.0923C173.971 89.533 175.61 89.4876 176.249 90.3868C176.739 91.0548 177.039 92.3119 178.062 92.3643C177.825 92.3216 177.67 92.138 177.539 91.9703C177.204 91.5105 177.08 90.9601 176.885 90.4386C176.392 89.0549 174.685 88.916 173.437 88.5705Z" fill="white"/>
<path d="M183.882 118.571C182.935 118.576 182.286 119.072 181.785 119.535C180.518 120.808 178.665 121.689 176.145 121.372C178.109 121.873 179.913 121.542 181.128 120.763C181.952 120.291 182.468 119.5 183.352 119.116C183.806 118.928 184.432 118.965 184.934 118.844C186.021 118.63 186.993 118.281 187.888 117.854C186.587 118.16 185.317 118.501 183.882 118.571Z" fill="white"/>
<path d="M166.057 119.297C165.308 118.372 166.43 117.327 166.806 116.486C167.455 114.994 166.252 113.584 165.472 112.422C165.391 112.294 165.331 112.125 165.348 112.107C165.348 112.107 165.355 112.104 165.372 112.094C165.395 112.075 165.513 112.04 165.551 112.023C166.558 111.824 167.698 112.201 168.736 111.942C170.018 111.674 171.061 110.821 172.142 110.146C172.299 110.031 172.45 109.935 172.609 109.792L172.538 109.342C172.599 109.374 172.627 109.436 172.619 109.513C172.619 109.529 172.614 109.546 172.606 109.56C172.602 109.569 172.603 109.571 172.599 109.575C172.586 109.586 172.603 109.572 172.603 109.572C172.777 109.44 173.045 109.365 173.27 109.291C173.735 109.179 174.234 108.982 174.704 109.022C174.712 109.109 174.684 109.202 174.657 109.306C174.11 110.726 173.965 112.42 174.854 113.751C175.032 114.085 175.3 114.374 175.373 114.747C175.368 114.556 175.285 114.377 175.208 114.205C174.245 112.492 174.347 111.2 175.079 109.436C175.266 108.967 175.141 108.533 174.585 108.533C174.037 108.558 172.053 108.815 172.068 109.498C170.966 110.172 169.887 111.052 168.612 111.342C167.957 111.483 167.278 111.429 166.547 111.378C166.182 111.362 165.786 111.343 165.378 111.473C165.272 111.518 165.172 111.542 165.065 111.613C165.007 111.642 164.943 111.708 164.889 111.77C164.24 112.879 167.421 114.448 166.37 116.581C165.619 117.768 164.951 119.574 167.002 119.733C166.653 119.664 166.298 119.54 166.057 119.297Z" fill="white"/>
<path d="M180.234 111.179C181.01 110.561 181.417 109.343 182.416 109.119C181.406 108.829 180.635 110.101 179.909 110.72C179.146 111.349 178.244 111.712 177.333 112.055C178.317 112.177 179.383 111.866 180.234 111.179Z" fill="white"/>
<path d="M207.712 119.167C206.811 118.174 205.399 117.795 204.178 117.553C200.929 117.001 197.761 115.593 195.899 112.749C196.939 115.121 199.173 116.815 201.576 117.615C203.114 118.192 204.879 118.25 206.331 118.944C207.063 119.306 207.594 119.987 208.261 120.441C209.63 121.453 211.109 122.261 212.643 122.941C210.923 121.76 209.177 120.633 207.712 119.167Z" fill="white"/>
<path d="M197.875 101.07C198.374 99.7267 200.113 100.261 201.198 100.141C203.111 99.9113 203.836 97.7999 204.56 96.2804C204.643 96.1183 204.78 95.9529 204.807 95.9591C204.807 95.9591 204.815 95.9654 204.835 95.9762C204.869 95.9893 204.975 96.0906 205.014 96.1207C205.819 97.0483 206.113 98.4665 206.997 99.3915C208.036 100.565 209.531 101.134 210.866 101.85C211.078 101.944 211.266 102.043 211.507 102.122L211.926 101.775C211.929 101.857 211.882 101.925 211.799 101.963C211.782 101.973 211.762 101.978 211.743 101.978C211.731 101.979 211.73 101.981 211.723 101.98C211.704 101.973 211.729 101.982 211.729 101.982C211.967 102.084 212.204 102.317 212.414 102.507C212.806 102.923 213.306 103.324 213.545 103.838C213.461 103.9 213.349 103.926 213.227 103.962C211.447 104.255 209.628 105.133 208.796 106.87C208.561 107.258 208.425 107.713 208.087 108.017C208.279 107.895 208.414 107.699 208.544 107.515C209.721 105.469 211.103 104.79 213.345 104.481C213.936 104.391 214.306 103.997 213.974 103.417C213.622 102.86 212.175 100.949 211.485 101.38C210.138 100.64 208.594 100.05 207.538 98.8971C207.002 98.3003 206.653 97.5592 206.268 96.7669C206.068 96.3763 205.85 95.9523 205.474 95.6054C205.365 95.5224 205.28 95.4323 205.144 95.364C205.079 95.3215 204.974 95.2942 204.878 95.2763C203.357 95.2739 203.649 99.5441 200.84 99.7448C199.178 99.6833 196.931 100.085 197.993 102.32C197.856 101.914 197.77 101.469 197.875 101.07Z" fill="white"/>
<path d="M218.247 107.321C219.37 107.77 220.897 107.442 221.742 108.381C221.429 107.107 219.624 107.076 218.53 106.681C217.404 106.254 216.47 105.507 215.554 104.741C216.027 105.88 217.005 106.834 218.247 107.321Z" fill="white"/>
<path d="M213.566 113.575C214.098 113.595 214.646 113.717 215.191 113.841C214.577 113.51 213.891 113.206 213.16 113.176C212.795 113.114 212.494 112.896 212.177 112.697C211.089 111.932 210.072 111.03 209.2 110.039C207.819 108.543 205.473 108.388 203.543 108.381C205.12 108.783 206.778 109.102 208.114 109.981C208.324 110.144 208.46 110.262 208.636 110.478C209.538 111.557 210.626 112.468 211.871 113.172C212.264 113.373 212.711 113.613 213.184 113.587C213.305 113.573 213.434 113.569 213.566 113.575Z" fill="white"/>
<path d="M140.178 100.693C139.078 100.809 138.461 101.395 138.007 101.93C136.887 103.388 134.977 104.511 131.961 104.478C134.382 104.765 136.387 104.215 137.584 103.271C138.411 102.689 138.792 101.815 139.712 101.316C140.189 101.07 140.927 101.035 141.477 100.852C142.681 100.506 143.714 100.033 144.636 99.4891C143.208 99.9556 141.827 100.454 140.178 100.693Z" fill="white"/>
<path d="M119.026 105.85C117.935 104.921 119.034 103.471 119.294 102.411C119.735 100.535 118.001 99.1289 116.822 97.9275C116.698 97.7941 116.59 97.6088 116.605 97.5848C116.605 97.5848 116.614 97.5799 116.631 97.5644C116.655 97.5376 116.786 97.4728 116.828 97.4458C117.976 97.0086 119.409 97.2189 120.581 96.7062C122.04 96.1337 123.087 94.925 124.218 93.9167C124.379 93.7503 124.537 93.6079 124.694 93.4083L124.511 92.8956C124.59 92.9212 124.637 92.9883 124.645 93.0793C124.648 93.0984 124.646 93.1193 124.64 93.1372C124.637 93.1488 124.638 93.1504 124.635 93.1566C124.622 93.1721 124.639 93.1516 124.639 93.1516C124.816 92.9626 125.116 92.8208 125.367 92.6886C125.892 92.463 126.441 92.1314 127.006 92.0831C127.034 92.1835 127.021 92.2979 127.012 92.4247C126.677 94.1971 126.877 96.2071 128.222 97.5841C128.506 97.9385 128.887 98.2222 129.056 98.644C129.007 98.4221 128.87 98.2285 128.741 98.043C127.224 96.2352 127.061 94.7037 127.541 92.4918C127.659 91.906 127.416 91.4235 126.757 91.5358C126.113 91.6756 123.821 92.3777 123.989 93.1742C122.832 94.1849 121.748 95.4328 120.302 96.0292C119.558 96.3273 118.742 96.401 117.865 96.4901C117.43 96.5443 116.957 96.603 116.502 96.8374C116.386 96.9114 116.273 96.9597 116.162 97.0638C116.1 97.1104 116.038 97.1995 115.988 97.2836C115.464 98.7116 119.575 99.9033 118.799 102.61C118.17 104.15 117.776 106.399 120.24 106.169C119.812 106.158 119.365 106.086 119.026 105.85Z" fill="white"/>
<path d="M131.891 88.8623C132.698 87.9616 132.914 86.4155 134.086 85.9433C132.783 85.8005 132.133 87.4853 131.387 88.3772C130.599 89.2879 129.578 89.9085 128.543 90.5055C129.775 90.4525 131.008 89.8616 131.891 88.8623Z" fill="white"/>
<path d="M136.157 95.4064C136.358 94.9132 136.661 94.4404 136.965 93.9713C136.443 94.4339 135.923 94.974 135.643 95.6506C135.459 95.9724 135.152 96.1798 134.856 96.4097C133.764 97.1687 132.568 97.8139 131.338 98.2927C129.458 99.0767 128.507 101.226 127.837 103.037C128.757 101.694 129.626 100.246 130.91 99.293C131.135 99.1517 131.293 99.0638 131.556 98.9731C132.879 98.4967 134.109 97.7874 135.197 96.8601C135.52 96.5592 135.899 96.2223 136.037 95.7691C136.066 95.6507 136.106 95.5283 136.157 95.4064Z" fill="white"/>
<path d="M91.8999 118.556C90.7997 118.672 90.1829 119.258 89.7289 119.793C88.6084 121.251 86.6986 122.374 83.6823 122.341C86.1031 122.628 88.1082 122.077 89.305 121.134C90.1321 120.552 90.5136 119.678 91.4339 119.179C91.9103 118.933 92.648 118.898 93.198 118.715C94.4023 118.369 95.4355 117.896 96.3578 117.352C94.9295 117.819 93.5484 118.317 91.8999 118.556Z" fill="white"/>
<path d="M83.6122 106.725C84.419 105.824 84.6354 104.278 85.807 103.806C84.5036 103.663 83.8539 105.348 83.1077 106.24C82.3198 107.151 81.2985 107.771 80.2637 108.368C81.496 108.315 82.7285 107.724 83.6122 106.725Z" fill="white"/>
<path d="M87.8783 113.27C88.0792 112.777 88.3822 112.304 88.6855 111.835C88.1642 112.297 87.6435 112.837 87.3638 113.514C87.1802 113.836 86.8727 114.043 86.5764 114.273C85.4847 115.032 84.2888 115.677 83.0585 116.156C81.1791 116.94 80.2275 119.09 79.5581 120.9C80.4774 119.557 81.3464 118.11 82.6306 117.156C82.8556 117.015 83.0135 116.927 83.277 116.837C84.6003 116.36 85.8294 115.651 86.9176 114.724C87.2411 114.423 87.6198 114.086 87.7583 113.632C87.7869 113.514 87.8267 113.392 87.8783 113.27Z" fill="white"/>
<path d="M181.51 113.194C181.749 112.814 182.067 112.464 182.384 112.117C181.895 112.43 181.393 112.808 181.061 113.329C180.863 113.57 180.585 113.702 180.312 113.853C179.322 114.337 178.266 114.715 177.211 114.951C175.59 115.355 174.485 117.002 173.66 118.406C174.608 117.419 175.533 116.339 176.709 115.719C176.91 115.632 177.05 115.58 177.274 115.539C178.403 115.317 179.495 114.891 180.511 114.267C180.817 114.061 181.172 113.832 181.356 113.477C181.398 113.383 181.449 113.288 181.51 113.194Z" fill="white"/>
<path d="M214.887 94.4181C214.975 94.4713 215.063 94.5255 215.15 94.5808L214.491 95.4429C214.783 95.7351 215.071 95.9505 215.254 96.0878L215.276 96.1044C215.434 96.2227 215.518 96.2877 215.584 96.3476C216.097 96.9538 216.645 97.5019 217.129 97.9853L217.155 98.0115C217.683 98.5401 218.138 98.9964 218.543 99.4807C219.369 100.511 220.191 101.333 220.936 102.078L220.96 102.102L220.985 102.084C221.062 102.25 221.14 102.371 221.186 102.44C221.225 102.498 221.263 102.551 221.299 102.597C223.669 106.731 224.536 111.401 224.185 116.14C224.017 118.322 223.338 120.578 222.413 122.984C221.339 123.339 220.158 123.67 219.192 123.831L219.182 123.832L219.173 123.834C216.014 124.391 212.657 124.765 209.221 125.147C205.67 125.52 202.109 125.708 198.301 125.899L198.105 125.909L198.075 125.916C198.1 125.591 198.115 125.262 198.117 124.93C198.517 119.491 196.829 114.466 193.516 110.312C193.308 110.029 193.258 109.85 193.304 109.55C193.914 107.625 193.932 105.57 193.932 103.839C196.441 99.5761 199.406 96.3274 203.685 94.0981C205.384 93.2506 206.975 92.7942 208.675 92.7942H208.746L208.818 92.7891C210.961 92.636 212.84 93.226 214.887 94.4181Z" stroke="white" stroke-width="4"/>
<path d="M149.379 96.6886C151.233 99.3862 152.424 102.216 152.978 105.359C150.737 104.493 148.429 103.956 146.151 103.653L146.122 103.649L146.092 103.646C140.02 103.017 134.717 104.717 130.119 108.688L130.119 108.688L130.109 108.696C127.193 111.248 125.252 114.259 123.865 117.523C120.741 115.681 118.224 113.335 116.677 110.1L116.67 110.084L116.662 110.068C115.32 107.385 114.808 104.35 115.148 101.289L115.148 101.289L115.15 101.278C115.488 98.0644 116.665 94.9722 118.392 92.1725C118.543 91.9835 118.644 91.8088 118.703 91.6966C121.145 89.2915 124.032 87.4682 127.176 86.6403C131.093 85.619 134.828 85.9454 138.636 87.4981C142.985 89.4176 146.511 92.5675 149.379 96.6886ZM118.769 91.5665C118.769 91.5666 118.767 91.5698 118.764 91.5754C118.767 91.5692 118.769 91.5663 118.769 91.5665Z" stroke="white" stroke-width="4"/>
<path d="M83.1209 124.766L83.121 124.766L83.1069 124.765C81.905 124.644 80.6839 124.371 79.3679 124.076C78.7529 123.938 78.1172 123.796 77.453 123.662C76.944 123.53 76.5099 123.331 76.2694 123.162C74.906 118.205 75.5792 113.873 78.4685 109.62C80.0114 107.394 82.1009 105.465 84.4268 103.854L84.458 103.833L84.4884 103.81C85.7109 102.893 86.9359 102.416 88.4364 102.079C91.4374 101.555 94.3157 101.581 96.9571 102.405C100.7 103.597 103.609 105.801 106.059 108.949C108.276 111.851 109.518 115.325 110.244 119.135C110.706 121.599 110.766 124.085 110.529 126.607C108.755 126.529 107.007 126.452 105.258 126.374C103.127 126.279 100.994 126.184 98.8148 126.09C93.4972 125.71 88.4003 125.332 83.1209 124.766Z" stroke="white" stroke-width="4"/>
<path d="M185.987 94.8895C188.613 98.2069 189.766 101.923 189.371 105.938C189.258 105.872 189.141 105.809 189.02 105.749C186.286 104.381 183.209 103.131 180.042 102.704C172.129 101.462 165.361 104.008 160.164 110.037L160.083 110.131L160.015 110.234C160.008 110.243 160.002 110.252 159.996 110.262C159.952 110.211 159.909 110.161 159.867 110.113C159.455 109.632 159.089 109.181 158.776 108.711L158.666 108.547L158.526 108.407L157.956 107.836L157.857 107.738C157.825 107.464 157.8 107.185 157.772 106.881L157.77 106.857C157.725 106.357 157.673 105.785 157.57 105.157C157.141 101.787 155.883 98.8891 154.309 96.1271C153.973 95.4638 153.595 94.8752 153.259 94.37C153.158 94.2195 153.065 94.0806 152.976 93.9495C152.815 93.7102 152.671 93.4972 152.537 93.2884C152.943 92.4024 153.44 91.61 154.035 90.8994L157.662 89.8631C158.39 89.6549 159.108 89.3988 159.755 89.1675L159.783 89.1576C160.46 88.9158 161.064 88.7006 161.657 88.5312L161.699 88.5193L161.74 88.5055C161.927 88.4434 162.131 88.3777 162.348 88.3078C163.246 88.019 164.367 87.6581 165.377 87.182C165.473 87.1539 165.558 87.1226 165.63 87.093C165.796 87.0245 165.936 86.9463 166.022 86.8958H166.022H166.024H166.026H166.028H166.03H166.032H166.034H166.035H166.037H166.039H166.041H166.043H166.045H166.047H166.049H166.05H166.052H166.054H166.056H166.058H166.06H166.062H166.063H166.065H166.067H166.069H166.071H166.073H166.074H166.076H166.078H166.08H166.082H166.084H166.085H166.087H166.089H166.091H166.093H166.094H166.096H166.098H166.1H166.101H166.103H166.105H166.107H166.109H166.11H166.112H166.114H166.116H166.117H166.119H166.121H166.122H166.124H166.126H166.128H166.129H166.131H166.133H166.135H166.136H166.138H166.14H166.141H166.143H166.145H166.146H166.148H166.15H166.151H166.153H166.155H166.156H166.158H166.16H166.161H166.163H166.165H166.166H166.168H166.17H166.171H166.173H166.175H166.176H166.178H166.18H166.181H166.183H166.184H166.186H166.188H166.189H166.191H166.192H166.194H166.196H166.197H166.199H166.2H166.202H166.204H166.205H166.207H166.208H166.21H166.212H166.213H166.215H166.216H166.218H166.219H166.221H166.222H166.224H166.226H166.227H166.229H166.23H166.232H166.233H166.235H166.236H166.238H166.239H166.241H166.242H166.244H166.245H166.247H166.248H166.25H166.251H166.253H166.254H166.256H166.257H166.259H166.26H166.262H166.263H166.265H166.266H166.268H166.269H166.271H166.272H166.274H166.275H166.277H166.278H166.279H166.281H166.282H166.284H166.285H166.287H166.288H166.29H166.291H166.292H166.294H166.295H166.297H166.298H166.3H166.301H166.302H166.304H166.305H166.307H166.308H166.309H166.311H166.312H166.314H166.315H166.316H166.318H166.319H166.321H166.322H166.323H166.325H166.326H166.328H166.329H166.33H166.332H166.333H166.334H166.336H166.337H166.338H166.34H166.341H166.343H166.344H166.345H166.347H166.348H166.349H166.351H166.352H166.353H166.355H166.356H166.357H166.359H166.36H166.361H166.363H166.364H166.365H166.367H166.368H166.369H166.371H166.372H166.373H166.374H166.376H166.377H166.378H166.38H166.381H166.382H166.384H166.385H166.386H166.387H166.389H166.39H166.391H166.393H166.394H166.395H166.396H166.398H166.399H166.4H166.402H166.403H166.404H166.405H166.407H166.408H166.409H166.41H166.412H166.413H166.414H166.415H166.417H166.418H166.419H166.42H166.422H166.423H166.424H166.425H166.427H166.428H166.429H166.43H166.432H166.433H166.434H166.435H166.437H166.438H166.439H166.44H166.441H166.443H166.444H166.445H166.446H166.448H166.449H166.45H166.451H166.452H166.454H166.455H166.456H166.457H166.458H166.46H166.461H166.462H166.463H166.464H166.466H166.467H166.468H166.469H166.47H166.472H166.473H166.474H166.475H166.476H166.478H166.479H166.48H166.481H166.482H166.483H166.485H166.486H166.487H166.488H166.489H166.491H166.492H166.493H166.494H166.495H166.496H166.498H166.499H166.5H166.501H166.502H166.503H166.505H166.506H166.507H166.508H166.509H166.51H166.512H166.513H166.514H166.515H166.516H166.517H166.518H166.52H166.521H166.522H166.523H166.524H166.525H166.527H166.528H166.529H166.53H166.531H166.532H166.533H166.535H166.536H166.537H166.538H166.539H166.54H166.541H166.543H166.544H166.545H166.546H166.547H166.548H166.549H166.551H166.552H166.553H166.554H166.555H166.556H166.557H166.558H166.56H166.561H166.562H166.563H166.564H166.565H166.566H166.567H166.569H166.57H166.571H166.572H166.573H166.574H166.575H166.576H166.578H166.579H166.58H166.581H166.582H166.583H166.584H166.585H166.587H166.588H166.589H166.59H166.591H166.592H166.593H166.594H166.595H166.597H166.598H166.599H166.6H166.601H166.602H166.603H166.604H166.606H166.607H166.608H166.609H166.61H166.611H166.612H166.613H166.614H166.616H166.617H166.618H166.619H166.62H166.621H166.622H166.623H166.625H166.626H166.702L166.779 86.8899C173.637 86.3624 181.509 89.2064 185.984 94.8858L185.987 94.8895ZM167.515 85.989C167.512 85.9919 167.511 85.9934 167.511 85.9934C167.51 85.9934 167.512 85.9919 167.515 85.989Z" stroke="white" stroke-width="4"/>
<path d="M162.25 129.418C161.651 129.427 161.052 129.435 160.454 129.443C160.453 129.434 160.452 129.426 160.451 129.418H162.25ZM162.25 129.418C162.25 129.349 162.276 129.279 162.308 129.228H162.247L162.25 129.418ZM160.151 120.311C160.88 122.644 160.983 125.007 160.645 127.44C149.133 127.584 137.765 127.422 126.395 127.096C126.777 122.03 128.535 117.403 131.955 113.64L131.965 113.629L131.975 113.617C134.48 110.778 137.828 109.085 141.764 108.57C144.479 108.232 147.22 108.568 149.821 109.435L149.85 109.444L149.879 109.453C151.575 109.962 153.079 110.627 154.404 111.438C154.593 111.589 154.767 111.689 154.879 111.748C157.302 114.202 159.137 116.932 160.144 120.289L160.148 120.3L160.151 120.311ZM155.009 111.814C155.009 111.814 155.006 111.812 155 111.809C155.006 111.812 155.009 111.814 155.009 111.814Z" stroke="white" stroke-width="4"/>
<path d="M192.655 119.058L192.669 119.115L192.686 119.17C193.413 121.495 193.515 123.839 193.061 126.366C183.939 126.846 174.82 127.173 165.574 127.222C165.822 125.226 165.811 123.214 165.361 121.076C164.992 118.558 164.165 116.348 162.915 114.225C165.43 110.635 168.625 108.327 172.94 107.401C176.142 106.728 179.201 107.052 182.356 108.103C183.888 108.614 185.433 109.293 186.991 110.147C187.16 110.276 187.313 110.363 187.414 110.416C189.864 112.898 191.836 115.782 192.655 119.058ZM187.544 110.482C187.544 110.482 187.541 110.481 187.535 110.477C187.541 110.481 187.544 110.482 187.544 110.482Z" stroke="white" stroke-width="4"/>
<path d="M109.846 106.19C108.891 104.828 107.762 103.557 106.512 102.432C107.699 101.981 108.912 101.648 110.155 101.432C109.968 103.283 110.029 105.101 110.322 106.871C110.167 106.643 110.008 106.416 109.846 106.19ZM114.63 116.557C116.106 118.401 117.896 119.986 119.914 121.228L119.924 121.234L119.934 121.24L121.361 122.096L122.187 122.592C121.845 124.02 121.62 125.463 121.511 126.947C120.456 126.907 119.406 126.878 118.368 126.849L118.354 126.849C117.32 126.82 116.297 126.791 115.28 126.753C115.612 123.237 115.409 119.829 114.63 116.557Z" stroke="white" stroke-width="4"/>
</svg>
