<svg width="36" height="36" viewBox="0 0 36 36" fill="none" xmlns="http://www.w3.org/2000/svg">
<rect width="36" height="36" rx="18" fill="#006633"/>
<path d="M14.3968 26.8393C14.3968 27.1896 14.5343 27.5203 14.77 27.7659C15.0058 28.0114 15.3463 28.1751 15.7294 28.1751H17.8641C18.0442 28.1751 18.1915 28.0278 18.1915 27.8477C18.1915 27.6676 18.0442 27.5203 17.8641 27.5203H15.7294C15.5264 27.5203 15.3627 27.4417 15.2415 27.314C15.1204 27.1863 15.0483 27.0161 15.0483 26.8393C15.0483 26.728 15.0745 26.6134 15.14 26.502L15.8079 25.343L15.8767 25.5853C15.9258 25.7588 16.1092 25.8603 16.2827 25.8079C16.4562 25.7588 16.5577 25.5754 16.5053 25.4019L16.2139 24.3935C16.191 24.3116 16.1321 24.2396 16.0568 24.197C15.9815 24.1544 15.8898 24.1446 15.8079 24.1708L14.7995 24.4622C14.626 24.5113 14.5245 24.6947 14.5768 24.8682C14.6292 25.0418 14.8093 25.1433 14.9828 25.0909L15.235 25.0188L14.567 26.1746C14.4459 26.3874 14.3869 26.6166 14.3869 26.8393H14.3968Z" fill="white"/>
<path d="M16.2762 23.899C16.4334 23.9907 16.6331 23.9351 16.7248 23.7779L17.8478 21.833C17.9821 21.6038 18.2014 21.4958 18.4372 21.4925C18.6697 21.4925 18.8923 21.6038 19.0265 21.833L19.6945 22.9921L19.4489 22.9299C19.2721 22.8873 19.0953 22.9954 19.0527 23.1689C19.0102 23.3457 19.1182 23.5225 19.2917 23.5651L20.31 23.8172C20.4868 23.8598 20.6636 23.7517 20.7062 23.5782L20.9583 22.5599C21.0009 22.3831 20.8928 22.2063 20.7193 22.1637C20.5458 22.1212 20.3657 22.2292 20.3231 22.4027L20.2609 22.6581L19.593 21.5023C19.3376 21.0603 18.8825 20.8344 18.4372 20.8344C17.9919 20.8344 17.5368 21.0603 17.2814 21.5023L16.1584 23.4472C16.0667 23.6044 16.1223 23.8041 16.2795 23.8958L16.2762 23.899Z" fill="white"/>
<path d="M20.6801 24.0628C20.5229 24.1545 20.4706 24.3542 20.559 24.5113L21.7082 26.502C21.7737 26.6134 21.7999 26.728 21.7999 26.8393C21.7999 27.0128 21.7278 27.1863 21.6067 27.314C21.4855 27.4385 21.3218 27.5203 21.1188 27.5203H19.7797L19.9565 27.337C20.0809 27.206 20.0776 26.9997 19.9467 26.8753C19.8157 26.7509 19.6094 26.7542 19.485 26.8851L18.7582 27.6415C18.6337 27.7724 18.637 27.9787 18.768 28.1031L19.5243 28.83C19.6553 28.9544 19.8616 28.9511 19.986 28.8202C20.1104 28.6892 20.1071 28.4829 19.9761 28.3585L19.7862 28.1752H21.1188C21.5019 28.1752 21.8457 28.0147 22.0782 27.7659C22.3139 27.5203 22.4514 27.1896 22.4514 26.8393C22.4514 26.6166 22.3925 26.3842 22.2714 26.1746L21.1221 24.1839C21.0304 24.0268 20.8307 23.9744 20.6736 24.0628H20.6801Z" fill="white"/>
<path d="M7.32742 19.361H8.27693V30.7257C8.27693 30.8109 8.31295 30.896 8.37188 30.9582C8.43409 31.0204 8.51595 31.0531 8.60435 31.0531H28.2495C28.3346 31.0531 28.4197 31.0171 28.4819 30.9582C28.5441 30.8993 28.5769 30.8141 28.5769 30.7257V19.361H29.5264C29.6115 19.361 29.6966 19.325 29.7589 19.2661C29.8211 19.2072 29.8538 19.122 29.8538 19.0336V15.8642C29.8538 15.7791 29.8178 15.694 29.7589 15.6317C29.6966 15.5695 29.6148 15.5368 29.5264 15.5368H28.5932C28.5605 13.8801 27.3458 12.5213 25.7545 12.2593C25.2929 11.2967 24.3172 10.6288 23.1777 10.6288C23.1221 10.6288 23.0697 10.6386 23.0173 10.6419C22.9911 10.6157 22.9682 10.5928 22.9322 10.5764L22.5786 10.3996L22.7685 10.0231L23.6361 10.4585C23.7966 10.5404 23.993 10.4749 24.0749 10.3112C24.1567 10.1508 24.0912 9.95431 23.9275 9.87245L23.0599 9.43699L23.2498 9.06046L23.6034 9.23726C23.7638 9.31912 23.9603 9.25363 24.0421 9.08992C24.124 8.92949 24.0585 8.73304 23.8948 8.65118L23.5412 8.47438L23.7769 8.00289C23.8588 8.05856 23.9603 8.12404 24.0814 8.1928C24.3826 8.35978 24.7886 8.54313 25.2438 8.54641C25.3878 8.54641 25.5384 8.52676 25.6858 8.47765C25.9543 8.38597 26.1769 8.21899 26.3701 8.03236C26.6582 7.75078 26.8808 7.41354 27.038 7.14506C27.1952 6.87657 27.2836 6.67358 27.2868 6.66703C27.3556 6.51314 27.2934 6.33306 27.1493 6.25121C27.1395 6.24793 26.8972 6.10714 26.5469 5.96963C26.1965 5.83211 25.7447 5.68477 25.283 5.6815C25.1161 5.6815 24.9458 5.70114 24.7821 5.7568C24.7101 5.77972 24.6413 5.81246 24.5791 5.84521C24.5693 5.77317 24.5529 5.70114 24.5267 5.62911C24.435 5.36063 24.268 5.13798 24.0814 4.94481C23.7998 4.65668 23.4626 4.43403 23.1941 4.27687C22.9256 4.11971 22.7226 4.03131 22.7161 4.02803C22.5622 3.95928 22.3821 4.02149 22.3003 4.16555C22.297 4.17537 22.1562 4.41766 22.0187 4.768C21.8812 5.11834 21.7338 5.57018 21.7306 6.03184C21.7306 6.19882 21.7502 6.36908 21.8059 6.53279C21.8943 6.80127 22.0645 7.01736 22.2479 7.18435C22.5262 7.43646 22.8536 7.5969 23.1123 7.70167C23.1385 7.71149 23.1614 7.72131 23.1876 7.72786L22.9584 8.18297L22.5884 7.99635C22.428 7.91449 22.2315 7.97997 22.1496 8.14368C22.0678 8.30739 22.1333 8.50057 22.297 8.58242L22.667 8.76905L22.4771 9.14558L21.593 8.70357C21.4326 8.62171 21.2362 8.6872 21.1543 8.85091C21.0724 9.01134 21.1379 9.20779 21.3016 9.28965L22.1857 9.73166L21.9958 10.1082L21.6258 9.92157C21.5112 9.8659 21.3835 9.88228 21.2885 9.95103C20.7745 9.45336 20.0738 9.14886 19.3011 9.14558C18.1977 9.14558 17.2416 9.76768 16.7636 10.6812C16.6457 10.452 16.5508 10.1933 16.4919 9.89865C16.4427 9.64326 16.4231 9.41734 16.4231 9.21434C16.4231 8.86073 16.4853 8.57915 16.5934 8.31722C16.7014 8.05528 16.8586 7.81299 17.055 7.56088C17.1107 7.48885 17.1336 7.39717 17.1205 7.30549C17.1041 7.21709 17.055 7.13524 16.9797 7.08612C16.5312 6.79145 15.9778 6.66048 15.4474 6.66048C15.1527 6.66048 14.8679 6.69977 14.6059 6.7849C14.1901 6.91914 13.8398 7.17125 13.5647 7.49212C13.4829 7.23346 13.4076 6.91259 13.4109 6.61791C13.4109 6.38545 13.4534 6.17263 13.5516 6.00237C13.64 5.84521 13.5844 5.64548 13.4272 5.55708C13.2701 5.46868 13.0703 5.52434 12.9819 5.6815C12.8117 5.97945 12.756 6.31014 12.756 6.61791C12.756 6.99772 12.8379 7.35461 12.9295 7.64928C12.7724 7.61654 12.6152 7.5969 12.4548 7.5969C12.2223 7.5969 11.9899 7.63291 11.7639 7.70494C11.3972 7.82609 11.0371 8.04218 10.7293 8.32376C10.4215 8.60534 10.1629 8.94913 10.0155 9.34204C9.98278 9.42716 9.98933 9.52212 10.0286 9.60397C10.0679 9.68582 10.1432 9.74476 10.2283 9.77095C10.6245 9.88882 10.9552 10.0263 11.2466 10.2523C11.538 10.4815 11.8032 10.8056 12.0521 11.3327C12.0684 11.3655 12.0783 11.4015 12.0946 11.4342C11.8196 11.7944 11.6166 12.2069 11.502 12.6588C11.3874 12.6424 11.2663 12.6359 11.1451 12.6359C9.56041 12.6359 8.27693 13.9193 8.27693 15.504C8.27693 15.5139 8.28348 15.5237 8.28348 15.5368H7.32742C7.24229 15.5368 7.15716 15.5728 7.09495 15.6317C7.03274 15.694 7 15.7758 7 15.8642V19.0336C7 19.1187 7.03602 19.2039 7.09495 19.2661C7.15389 19.3283 7.23902 19.361 7.32742 19.361ZM24.9884 6.37562C25.0702 6.34943 25.1717 6.33306 25.283 6.33306C25.5974 6.33306 25.9968 6.44766 26.3046 6.57208C26.3963 6.60809 26.4748 6.64411 26.5502 6.67685C26.4781 6.80782 26.3832 6.96825 26.2718 7.13196C26.1573 7.29567 26.0263 7.45938 25.8855 7.59035C25.748 7.72131 25.6039 7.81299 25.4795 7.85556C25.4075 7.87847 25.3289 7.89157 25.2438 7.89157C24.9785 7.89157 24.6511 7.76388 24.4023 7.62309C24.3073 7.5707 24.2288 7.51831 24.16 7.47248C24.1993 7.35788 24.2582 7.20399 24.3401 7.05011C24.4187 6.89949 24.5169 6.74561 24.6282 6.62446C24.7395 6.50332 24.8607 6.41819 24.9884 6.37562ZM23.0992 6.97153C22.9486 6.89295 22.7947 6.79472 22.6735 6.6834C22.5524 6.57208 22.4672 6.45093 22.4247 6.32324C22.3985 6.24138 22.3821 6.13988 22.3821 6.02856C22.3821 5.71424 22.4967 5.31479 22.6211 5.00702C22.6571 4.91534 22.6932 4.83676 22.7259 4.76145C22.8569 4.83348 23.0173 4.92844 23.181 5.03976C23.3447 5.15435 23.5084 5.28532 23.6394 5.42611C23.7704 5.56363 23.8621 5.70769 23.9046 5.83211C23.9275 5.90414 23.9406 5.98272 23.9406 6.06785C23.9406 6.33306 23.8129 6.66048 23.6721 6.90932C23.6198 7.00427 23.5674 7.08285 23.5215 7.15161C23.4069 7.11232 23.253 7.05338 23.0992 6.97153ZM27.922 30.3983H8.93177V19.361H27.922V30.3983ZM11.6461 9.73821C11.3743 9.52539 11.0829 9.38133 10.7817 9.27C10.8865 9.10629 11.0141 8.94913 11.168 8.81162C11.4103 8.58897 11.6985 8.41872 11.9604 8.33359C12.1208 8.2812 12.2845 8.25828 12.4515 8.25828C12.7429 8.25828 13.0441 8.33686 13.3355 8.4842C13.3421 8.48747 13.3519 8.48747 13.3617 8.49075C13.3814 8.50057 13.4043 8.50384 13.4239 8.50712C13.4436 8.51039 13.4632 8.51367 13.4829 8.51367C13.5058 8.51367 13.5254 8.51367 13.5484 8.50712C13.5615 8.50712 13.5746 8.50712 13.5877 8.50384C13.5975 8.50384 13.604 8.49402 13.6106 8.49075C13.6204 8.48747 13.6269 8.49075 13.6368 8.4842C13.6499 8.47765 13.6564 8.46783 13.6662 8.46128C13.6859 8.44818 13.7023 8.43836 13.7154 8.42199C13.7317 8.40562 13.7448 8.38925 13.7546 8.3696C13.7612 8.35978 13.771 8.35323 13.7776 8.34341C14.0133 7.88502 14.3636 7.5576 14.8057 7.41681C14.9923 7.35788 15.2149 7.32186 15.4474 7.32186C15.7421 7.32186 16.0466 7.3808 16.3118 7.48557C16.1906 7.66893 16.0793 7.8621 15.9909 8.07165C15.8501 8.40889 15.7683 8.78542 15.7683 9.21762C15.7683 9.46645 15.7945 9.73166 15.8501 10.0231C15.8665 10.1147 15.8894 10.2064 15.9123 10.2948C15.562 10.1704 15.1855 10.1016 14.7926 10.1016C13.9445 10.1016 13.1718 10.4127 12.5759 10.9267C12.3107 10.4029 12.003 10.0132 11.6493 9.74149L11.6461 9.73821ZM8.93177 15.504C8.93177 14.8918 9.17733 14.3417 9.58006 13.939C9.98278 13.5395 10.5328 13.2907 11.1451 13.2907C11.3252 13.2907 11.5053 13.3169 11.6788 13.3595C11.7672 13.3824 11.8622 13.366 11.9407 13.3136C12.0161 13.2612 12.0684 13.1794 12.0815 13.091C12.278 11.7682 13.4141 10.7532 14.7893 10.7532C15.5096 10.7532 16.1612 11.0315 16.6523 11.4899C16.7341 11.5652 16.8487 11.5947 16.9601 11.5652C17.0714 11.5357 17.1532 11.4539 17.1893 11.3458C17.4708 10.4487 18.309 9.79715 19.3011 9.79715C20.3358 9.79715 21.2001 10.5076 21.4424 11.467C21.4686 11.5685 21.5439 11.6536 21.6422 11.6929C21.7404 11.7322 21.855 11.7191 21.9434 11.6569C22.297 11.4179 22.7194 11.2804 23.181 11.2804C24.1142 11.2804 24.9098 11.8566 25.2339 12.6752C25.2798 12.7865 25.3813 12.8651 25.5024 12.8782C26.8514 13.0255 27.9057 14.1518 27.9417 15.5335H8.92522C8.92522 15.5335 8.93177 15.5139 8.93177 15.5008V15.504ZM7.65484 16.1916H29.199V18.7062H7.65484V16.1916Z" fill="white"/>
</svg>
