<svg width="140" height="140" viewBox="0 0 140 140" fill="none" xmlns="http://www.w3.org/2000/svg">
<g id="Special Intervention (Plastic Crates, Lenobags and Fruit Trap Bags) Scheme">
<rect width="140" height="140" rx="70" fill="#D0F19E"/>
<circle id="Ellipse 5190" opacity="0.6" cx="70" cy="70" r="50" fill="white"/>
<g id="Group">
<path id="Vector" d="M44.3314 49.8157C45.7702 46.9381 45.7702 43.485 42.8926 43.1973C41.5977 43.0534 40.3028 43.7728 39.1518 44.6361C38.1446 41.0391 34.9793 40.4636 33.2528 42.0463C31.6701 43.3412 31.6701 45.6432 32.1017 47.6575C36.2742 45.4993 40.8783 46.6504 44.3314 49.8157Z" fill="#1A5C4B"/>
<path id="Vector_2" d="M73.2509 36.7227H74.1142C77.1356 29.3849 85.0489 27.9461 91.0918 32.2625C92.0989 28.9533 91.6673 26.5073 91.0918 25.0685C90.2285 22.6226 86.6316 21.7594 84.6173 25.7879C81.3081 22.4787 78.5744 23.1981 77.4234 25.2124C76.9917 26.0757 76.704 27.2267 76.8479 28.6655C76.1285 28.2339 75.2652 27.9461 74.4019 27.8022C71.956 27.6584 70.2295 29.9604 70.6611 32.2625C70.805 33.5574 71.3805 35.2839 73.2509 36.7227Z" fill="#1A5C4B"/>
<path id="Vector_3" d="M110.803 54.2756C112.098 50.3909 107.35 47.2256 104.329 50.5348C105.911 51.1103 107.35 51.9736 108.213 53.2685C110.084 55.7144 110.371 59.0236 109.94 62.1889C111.091 61.9012 112.098 61.6134 112.961 61.1818C116.27 59.4553 115.551 54.2756 110.803 54.2756Z" fill="#1A5C4B"/>
<path id="Vector_4" d="M109.652 71.6849H29.0803C28.3609 71.6849 27.6415 72.2604 27.6415 73.1237V79.4543C27.6415 83.0512 30.5191 85.9288 34.1161 85.9288H104.616C108.213 85.9288 111.091 83.0512 111.091 79.4543V73.1237C111.091 72.4043 110.515 71.6849 109.652 71.6849Z" fill="#1A5C4B"/>
<path id="Vector_5" d="M32.3896 68.8078H105.624C107.206 62.621 110.372 52.6934 99.7245 52.6934C96.9908 52.6934 94.9765 55.1393 93.6816 58.4485V50.823L94.5449 49.5281C94.9765 48.9526 94.8327 47.9454 94.2572 47.5138C94.1133 47.3699 93.8255 47.3699 93.6816 47.226V43.3413L95.2643 41.327C95.6959 40.7515 95.5521 39.7444 94.9765 39.3127C94.401 38.8811 93.6816 39.025 93.25 39.3127C90.3724 31.6872 77.5673 28.8096 75.8408 41.1832C75.4091 40.8954 75.1214 40.4638 74.6897 40.0321C74.1142 39.4566 73.2509 39.3127 72.6754 39.8882C72.0999 40.4638 71.956 41.327 72.5316 41.9025C72.8193 42.3342 74.2581 43.773 75.6969 44.6362V44.7801C73.8265 44.4923 71.3805 44.7801 69.7979 45.0679C69.0785 45.2117 68.503 45.9311 68.6469 46.7944C68.7907 47.5138 69.5101 48.0893 70.2295 47.9454C72.3877 47.5138 74.6897 47.5138 75.6969 47.6577V60.3189C72.0999 53.4128 66.2009 52.1179 62.1723 52.1179C61.1652 52.1179 60.3019 52.2618 59.4386 52.2618L58.5754 47.3699C58.4315 46.6505 57.7121 46.075 56.8488 46.2189C56.1295 46.3628 55.5539 47.226 55.6978 47.9454L56.705 52.6934C55.9856 52.8373 55.5539 53.125 55.4101 53.125C54.4029 53.5567 53.5396 54.1322 52.6764 54.7077L49.6549 51.3985C49.0794 50.823 48.2162 50.823 47.6406 51.2546C47.0651 51.8301 47.0651 52.6934 47.4968 53.2689L50.5182 56.5781C48.9355 58.1608 47.9284 60.0312 47.209 61.7577C43.6121 46.7944 33.6845 47.3699 30.2314 53.4128L29.6559 52.8373C29.0804 52.2618 28.2171 52.4056 27.6416 52.9812C27.0661 53.5567 27.2099 54.4199 27.7855 54.9954L29.2242 56.2904C28.9365 57.5853 28.9365 58.7363 29.2242 60.0312L28.2171 59.4557C27.4977 59.024 26.6344 59.3118 26.2028 60.0312C25.7712 60.7506 26.0589 61.6138 26.7783 62.0455L30.0875 63.9159C30.663 65.6424 31.5263 67.369 32.3896 68.8078ZM97.1347 62.4771L97.7102 60.3189C97.998 59.5995 98.7174 59.1679 99.5806 59.3118C100.3 59.5995 100.732 60.3189 100.588 61.1822L99.8684 63.1965C99.2929 65.0669 96.5592 64.2036 97.1347 62.4771ZM86.2 56.0026C86.9194 55.7148 87.7826 56.1465 88.0704 56.8659L88.6459 58.4485C88.9337 59.1679 88.502 60.0312 87.7826 60.3189C87.0632 60.6067 86.2 60.1751 85.9122 59.4557L85.3367 57.873C85.049 57.0097 85.3367 56.2904 86.2 56.0026ZM80.7326 63.772H84.7612C85.6245 63.772 86.2 64.3475 86.2 65.2108C86.2 65.9302 85.6245 66.6496 84.7612 66.6496H80.7326C80.0132 66.6496 79.2938 65.9302 79.2938 65.2108C79.2938 64.3475 80.0132 63.772 80.7326 63.772ZM72.8193 63.9159C72.8193 64.7792 72.2438 65.3547 71.3805 65.3547H69.0785C68.3591 65.3547 67.6397 64.7792 67.6397 63.9159C67.6397 63.1965 68.3591 62.4771 69.0785 62.4771H71.3805C72.0999 62.4771 72.8193 63.0526 72.8193 63.9159ZM66.2009 57.4414L67.6397 54.7077C68.0713 53.9883 68.9346 53.7005 69.654 54.1322C70.3734 54.5638 70.6611 55.4271 70.2295 56.1465L68.7907 58.8802C68.3591 59.5995 67.6397 59.8873 66.9203 59.4557C66.2009 59.024 65.9132 58.1608 66.2009 57.4414ZM59.1509 58.5924C59.8703 58.4485 60.7336 58.8802 60.8774 59.5995L61.4529 61.6138C61.5968 62.3332 61.1652 63.1965 60.4458 63.3404C59.7264 63.4843 58.8631 63.0526 58.7193 62.3332L58.1437 60.3189C57.9999 59.5995 58.4315 58.7363 59.1509 58.5924ZM53.6835 65.3547H54.8346C55.5539 65.3547 56.2733 66.0741 56.2733 66.7935C56.2733 67.6567 55.5539 68.2322 54.8346 68.2322H53.6835C52.9641 68.2322 52.2447 67.6567 52.2447 66.7935C52.2447 66.0741 52.8203 65.3547 53.6835 65.3547ZM39.7273 62.4771L42.6049 61.7577C43.3243 61.6138 44.1876 62.0455 44.3314 62.9087C44.4753 63.6281 44.0437 64.4914 43.1804 64.6353L40.3029 65.2108C40.159 65.2108 40.159 65.2108 40.0151 65.2108C39.2957 65.2108 38.7202 64.7792 38.5763 64.0598C38.4324 63.4843 38.8641 62.621 39.7273 62.4771Z" fill="#1A5C4B"/>
<path id="Vector_6" d="M34.1161 88.8063C33.6845 88.8063 33.1089 88.8063 32.6773 88.6624V116.431C32.6773 117.294 33.3967 117.87 34.1161 117.87H105.048C105.911 117.87 106.487 117.294 106.487 116.431V88.5185C105.911 88.6624 105.336 88.6624 104.76 88.6624H34.1161V88.8063ZM41.4539 112.258H40.5906C39.7273 112.258 39.1518 111.683 39.1518 110.82C39.1518 109.956 39.7273 109.381 40.5906 109.381H41.4539C42.3171 109.381 42.8927 109.956 42.8927 110.82C42.8927 111.683 42.1733 112.258 41.4539 112.258ZM41.4539 104.345H40.5906C39.7273 104.345 39.1518 103.77 39.1518 102.906C39.1518 102.043 39.7273 101.468 40.5906 101.468H41.4539C42.3171 101.468 42.8927 102.043 42.8927 102.906C42.8927 103.77 42.1733 104.345 41.4539 104.345ZM41.4539 96.5757H40.5906C39.7273 96.5757 39.1518 96.0002 39.1518 95.1369C39.1518 94.2736 39.7273 93.6981 40.5906 93.6981H41.4539C42.3171 93.6981 42.8927 94.2736 42.8927 95.1369C42.8927 96.0002 42.1733 96.5757 41.4539 96.5757ZM51.0937 112.258H50.2304C49.3672 112.258 48.7917 111.683 48.7917 110.82C48.7917 109.956 49.3672 109.381 50.2304 109.381H51.0937C51.957 109.381 52.5325 109.956 52.5325 110.82C52.5325 111.683 51.8131 112.258 51.0937 112.258ZM51.0937 104.345H50.2304C49.3672 104.345 48.7917 103.77 48.7917 102.906C48.7917 102.043 49.3672 101.468 50.2304 101.468H51.0937C51.957 101.468 52.5325 102.043 52.5325 102.906C52.5325 103.77 51.8131 104.345 51.0937 104.345ZM51.0937 96.5757H50.2304C49.3672 96.5757 48.7917 96.0002 48.7917 95.1369C48.7917 94.2736 49.3672 93.6981 50.2304 93.6981H51.0937C51.957 93.6981 52.5325 94.2736 52.5325 95.1369C52.5325 96.0002 51.8131 96.5757 51.0937 96.5757ZM60.7335 112.258H59.8703C59.007 112.258 58.4315 111.683 58.4315 110.82C58.4315 109.956 59.007 109.381 59.8703 109.381H60.7335C61.5968 109.381 62.1723 109.956 62.1723 110.82C62.1723 111.683 61.4529 112.258 60.7335 112.258ZM60.7335 104.345H59.8703C59.007 104.345 58.4315 103.77 58.4315 102.906C58.4315 102.043 59.007 101.468 59.8703 101.468H60.7335C61.5968 101.468 62.1723 102.043 62.1723 102.906C62.1723 103.77 61.4529 104.345 60.7335 104.345ZM60.7335 96.5757H59.8703C59.007 96.5757 58.4315 96.0002 58.4315 95.1369C58.4315 94.2736 59.007 93.6981 59.8703 93.6981H60.7335C61.5968 93.6981 62.1723 94.2736 62.1723 95.1369C62.1723 96.0002 61.4529 96.5757 60.7335 96.5757ZM70.3734 112.258H69.5101C68.6468 112.258 68.0713 111.683 68.0713 110.82C68.0713 109.956 68.6468 109.381 69.5101 109.381H70.3734C71.2366 109.381 71.8122 109.956 71.8122 110.82C71.8122 111.683 71.0928 112.258 70.3734 112.258ZM70.3734 104.345H69.5101C68.6468 104.345 68.0713 103.77 68.0713 102.906C68.0713 102.043 68.6468 101.468 69.5101 101.468H70.3734C71.2366 101.468 71.8122 102.043 71.8122 102.906C71.8122 103.77 71.0928 104.345 70.3734 104.345ZM70.3734 96.5757H69.5101C68.6468 96.5757 68.0713 96.0002 68.0713 95.1369C68.0713 94.2736 68.6468 93.6981 69.5101 93.6981H70.3734C71.2366 93.6981 71.8122 94.2736 71.8122 95.1369C71.8122 96.0002 71.0928 96.5757 70.3734 96.5757ZM80.0132 112.258H79.1499C78.2867 112.258 77.7112 111.683 77.7112 110.82C77.7112 109.956 78.2867 109.381 79.1499 109.381H80.0132C80.8765 109.381 81.452 109.956 81.452 110.82C81.452 111.683 80.7326 112.258 80.0132 112.258ZM80.0132 104.345H79.1499C78.2867 104.345 77.7112 103.77 77.7112 102.906C77.7112 102.043 78.2867 101.468 79.1499 101.468H80.0132C80.8765 101.468 81.452 102.043 81.452 102.906C81.452 103.77 80.7326 104.345 80.0132 104.345ZM80.0132 96.5757H79.1499C78.2867 96.5757 77.7112 96.0002 77.7112 95.1369C77.7112 94.2736 78.2867 93.6981 79.1499 93.6981H80.0132C80.8765 93.6981 81.452 94.2736 81.452 95.1369C81.452 96.0002 80.7326 96.5757 80.0132 96.5757ZM89.653 112.258H88.7898C87.9265 112.258 87.351 111.683 87.351 110.82C87.351 109.956 87.9265 109.381 88.7898 109.381H89.653C90.5163 109.381 91.0918 109.956 91.0918 110.82C91.0918 111.683 90.3724 112.258 89.653 112.258ZM89.653 104.345H88.7898C87.9265 104.345 87.351 103.77 87.351 102.906C87.351 102.043 87.9265 101.468 88.7898 101.468H89.653C90.5163 101.468 91.0918 102.043 91.0918 102.906C91.0918 103.77 90.3724 104.345 89.653 104.345ZM89.653 96.5757H88.7898C87.9265 96.5757 87.351 96.0002 87.351 95.1369C87.351 94.2736 87.9265 93.6981 88.7898 93.6981H89.653C90.5163 93.6981 91.0918 94.2736 91.0918 95.1369C91.0918 96.0002 90.3724 96.5757 89.653 96.5757ZM99.2929 112.258H98.4296C97.5663 112.258 96.9908 111.683 96.9908 110.82C96.9908 109.956 97.5663 109.381 98.4296 109.381H99.2929C100.156 109.381 100.732 109.956 100.732 110.82C100.732 111.683 100.012 112.258 99.2929 112.258ZM99.2929 104.345H98.4296C97.5663 104.345 96.9908 103.77 96.9908 102.906C96.9908 102.043 97.5663 101.468 98.4296 101.468H99.2929C100.156 101.468 100.732 102.043 100.732 102.906C100.732 103.77 100.012 104.345 99.2929 104.345ZM99.2929 96.5757H98.4296C97.5663 96.5757 96.9908 96.0002 96.9908 95.1369C96.9908 94.2736 97.5663 93.6981 98.4296 93.6981H99.2929C100.156 93.6981 100.732 94.2736 100.732 95.1369C100.732 96.0002 100.012 96.5757 99.2929 96.5757Z" fill="#1A5C4B"/>
</g>
</g>
</svg>
