<svg width="36" height="36" viewBox="0 0 36 36" fill="none" xmlns="http://www.w3.org/2000/svg">
<rect width="36" height="36" rx="18" fill="#006633"/>
<rect width="3" height="3" transform="translate(14 22)" fill="#006633"/>
<path d="M5 17.5C5.76801 17.7627 6.46147 18.1952 7.27131 18.2524C8.29465 18.3248 8.78446 17.5798 9.81037 17.5798C10.8363 17.5798 11.3238 18.2288 12.3494 18.2524C13.4729 18.2783 14.0234 17.5599 15.147 17.5798C16.1937 17.5984 16.6947 18.248 17.7415 18.2524C18.8058 18.257 19.3189 17.5329 20.3821 17.5798C21.2892 17.6199 21.7038 18.1621 22.6072 18.2524C23.9638 18.388 24.6754 17.4519 26.0327 17.5798C26.9538 17.6667 27.3787 18.2514 28.304 18.2524C29.2327 18.2535 31 17.5 31 17.5M5 15H31V29.0601H5V15Z" stroke="white" stroke-width="0.5"/>
<path d="M5 20C5 20 6.47758 20.8639 7.34662 20.9087C8.38872 20.9624 8.88883 20.2554 9.93231 20.2451C11.0177 20.2343 11.5435 20.9242 12.6288 20.9087C13.6548 20.8941 14.1424 20.2637 15.1683 20.2451C16.2711 20.225 16.808 20.913 17.911 20.9087C18.9964 20.9045 19.5221 20.2296 20.6075 20.2451C21.6335 20.2597 22.1211 20.8901 23.147 20.9087C24.2498 20.9288 24.7868 20.2354 25.8897 20.2451C26.9541 20.2544 27.469 20.9839 28.5308 20.9087C29.3611 20.8499 31 20 31 20" stroke="white" stroke-width="0.5"/>
<path d="M12.2266 23.648C12.2266 24.2712 11.6984 24.7929 11.026 24.7929C10.3535 24.7929 9.82532 24.2712 9.82532 23.648C9.82532 23.0249 10.3535 22.5032 11.026 22.5032C11.6984 22.5032 12.2266 23.0249 12.2266 23.648Z" stroke="white" stroke-width="0.5"/>
<circle cx="8.18013" cy="26.103" r="1.14485" stroke="white" stroke-width="0.5"/>
<circle cx="13.648" cy="26.2146" r="1.14485" stroke="white" stroke-width="0.5"/>
<circle cx="19.2265" cy="26.2146" r="1.14485" stroke="white" stroke-width="0.5"/>
<circle cx="24.8067" cy="26.2146" r="1.14485" stroke="white" stroke-width="0.5"/>
<path d="M28.8532 23.648C28.8532 24.2712 28.325 24.7929 27.6525 24.7929C26.9801 24.7929 26.4519 24.2712 26.4519 23.648C26.4519 23.0249 26.9801 22.5032 27.6525 22.5032C28.325 22.5032 28.8532 23.0249 28.8532 23.648Z" stroke="white" stroke-width="0.5"/>
<path d="M23.2737 23.5922C23.2737 24.1842 22.7709 24.6813 22.1289 24.6813C21.4869 24.6813 20.984 24.1842 20.984 23.5922C20.984 23.0003 21.4869 22.5032 22.1289 22.5032C22.7709 22.5032 23.2737 23.0003 23.2737 23.5922Z" stroke="white" stroke-width="0.5"/>
<path d="M17.8051 23.5922C17.8051 24.1752 17.2868 24.6813 16.6045 24.6813C15.9221 24.6813 15.4038 24.1752 15.4038 23.5922C15.4038 23.0092 15.9221 22.5032 16.6045 22.5032C17.2868 22.5032 17.8051 23.0092 17.8051 23.5922Z" stroke="white" stroke-width="0.5"/>
<path d="M14.5265 8.71427C14.6766 8.86415 15.2728 9.055 15.3622 9.055C15.0215 8.90072 14.5507 8.71812 14.6161 8.44037C14.6161 8.44037 14.3766 8.56412 14.5265 8.71427Z" fill="white"/>
<path d="M18.4033 11.3196C18.5059 11.4219 18.9137 11.5526 18.9745 11.5526C18.7416 11.4472 18.4195 11.3221 18.4643 11.1321C18.4643 11.1321 18.3004 11.2168 18.4033 11.3196Z" fill="white"/>
<path d="M21.0948 14.0095C20.8214 13.5252 20.2095 12.6856 20.8426 11.4753C20.875 11.48 21.2598 11.5339 21.2928 11.5339C21.3065 11.532 21.3079 11.5124 21.2941 11.5116C21.2603 11.5053 21.2188 11.4984 21.1676 11.4902C20.9592 11.4558 21.0747 11.4756 20.861 11.4387C20.8657 11.4308 20.8714 11.4167 20.8753 11.409C21.9739 11.409 21.953 11.3158 21.953 11.3158C21.5975 11.3628 21.2446 11.3769 20.8918 11.3719C20.8932 11.3683 20.8956 11.3645 20.8967 11.3609C21.2163 11.3329 21.5419 11.2883 21.8535 11.2336C23.0104 11.0287 21.5733 11.2671 20.9028 11.323C20.9031 11.3169 20.9039 11.3106 20.9033 11.3056C21.2334 11.2394 21.5804 11.1582 22.0273 11.0325C22.0416 11.0284 22.0399 11.0075 22.0248 11.0111C21.6494 11.1084 21.2771 11.197 20.8893 11.2674C20.8712 11.2429 20.8357 11.235 20.8035 11.2248C20.9102 11.1736 21.0219 11.1156 21.1223 11.0545C21.1916 11.0122 21.2521 10.9709 21.301 10.933C21.3062 10.9286 21.3073 10.922 21.3046 10.9173C21.301 10.9124 21.295 10.9115 21.2895 10.9151C21.2331 10.9522 21.1652 10.9921 21.0882 11.0334C20.9641 11.0996 20.8489 11.1516 20.7254 11.2039C20.6223 11.1824 20.5134 11.1797 20.4083 11.1874C20.391 11.1052 20.3632 10.9602 20.3481 10.8684C20.347 10.8626 20.3421 10.8585 20.3363 10.8593C20.3305 10.8596 20.3258 10.8642 20.3258 10.8703C20.3258 11.0119 20.3225 11.0809 20.3192 11.197C20.2568 11.205 20.1531 11.2218 20.0932 11.2424C20.0071 11.211 19.9301 11.1808 19.8594 11.1516C19.7706 11.1148 19.6931 11.0798 19.6216 11.0457C19.5393 11.0056 19.4662 10.9663 19.4051 10.9297C19.3994 10.9261 19.393 10.9275 19.39 10.9327C19.3873 10.9377 19.3889 10.9443 19.3941 10.9481C19.4486 10.9861 19.5146 11.0262 19.5894 11.0683C19.6537 11.1035 19.7244 11.1393 19.8053 11.1769C19.8699 11.2072 19.9422 11.2388 20.0244 11.2724C20.0255 11.2729 20.0261 11.2729 20.0275 11.2737C20.0148 11.2809 20.0027 11.2891 19.9903 11.2982C19.9474 11.2919 19.9048 11.2861 19.8616 11.2792C19.731 11.2583 19.6004 11.2355 19.4711 11.2102C19.3273 11.1824 19.2 11.1555 19.0809 11.1294C18.9459 11.0999 18.821 11.0702 18.7088 11.0433C18.7028 11.0416 18.6975 11.0455 18.6967 11.0512C18.6962 11.0573 18.7008 11.0633 18.7072 11.065C18.8142 11.0928 18.9346 11.1233 19.0655 11.1544C19.1816 11.1822 19.3083 11.2108 19.4431 11.2391C19.5682 11.2655 19.6944 11.2902 19.8201 11.3122C19.8627 11.3199 19.9051 11.3274 19.9477 11.334C19.9455 11.3356 19.9441 11.3378 19.9425 11.3395C19.8814 11.3367 19.8207 11.3337 19.7596 11.3293C19.6172 11.3202 19.475 11.3078 19.3325 11.2927C19.2327 11.2817 19.1332 11.2699 19.0339 11.2567C18.9913 11.2512 18.9484 11.2451 18.9057 11.2391C18.8928 11.2372 18.4709 11.1654 18.4709 11.1783C18.4709 11.1846 18.4762 11.1904 18.4817 11.1915C18.6227 11.2187 18.7647 11.2435 18.9071 11.266C19.0493 11.2878 19.1915 11.307 19.3339 11.3243C19.4755 11.3406 19.6172 11.3546 19.7585 11.3656C19.8088 11.3694 19.8589 11.3727 19.9092 11.3755C19.9076 11.378 19.9065 11.3802 19.9045 11.3824C19.7541 11.3879 19.6664 11.3914 19.4634 11.389C19.1708 11.3857 18.3667 11.3502 19.1521 11.4052C19.2586 11.4126 19.3688 11.4181 19.4901 11.4214C19.6172 11.4242 19.7401 11.4242 19.8781 11.4206C19.868 11.4349 19.8592 11.4492 19.8493 11.4629C19.3895 11.5548 19.3587 11.5817 19.8193 11.5064C19.2426 12.3372 18.7011 14.3538 19.5223 14.9868C19.8655 15.2868 21.2336 15.4584 21.4421 15.0501C21.5161 14.9065 21.463 14.7195 21.3711 14.5182C21.2936 14.3499 21.1883 14.1728 21.0948 14.0095Z" fill="white"/>
<path d="M22.9763 10.4793C22.9763 10.4793 22.9763 10.4776 22.9763 10.4773C22.9763 10.4771 22.976 10.4768 22.976 10.4765C22.9757 10.4765 22.9757 10.4765 22.9757 10.4762C22.9757 10.476 22.9757 10.476 22.9757 10.4757C22.9757 10.4754 22.9757 10.4749 22.9757 10.4746C22.9754 10.4746 22.9754 10.4743 22.9754 10.4743C22.9754 10.4743 22.9752 10.474 22.9752 10.4738C22.9752 10.4735 22.9752 10.4732 22.9752 10.4729C22.9752 10.4724 22.9752 10.4724 22.9752 10.4724C22.9746 10.4724 22.9749 10.4718 22.9749 10.4716C22.9746 10.4713 22.9746 10.4707 22.9746 10.4705L22.9743 10.4702C22.9743 10.4691 22.9743 10.4694 22.9743 10.4694C22.9743 10.4691 22.9738 10.4683 22.9741 10.4683C22.9523 10.3827 22.9356 10.3082 22.8828 10.174C22.8176 10.0145 22.8074 10.0118 22.7271 9.86436L22.7282 9.86656C22.4898 9.47936 22.1194 9.21068 21.6978 9.03468C21.6972 9.03468 21.6967 9.0344 21.6959 9.03413C21.6076 9.0047 21.6648 9.01488 21.4987 8.96125C19.9001 8.44342 18.7346 9.17163 18.7346 9.17163C18.2366 9.46671 17.9228 9.88499 17.8051 10.3541V10.3547C17.8051 10.355 17.8048 10.355 17.8046 10.3552C17.8046 10.3555 17.8046 10.3561 17.8046 10.3563V10.3566C17.804 10.3566 17.8043 10.3572 17.804 10.3577C17.804 10.3577 17.8035 10.3599 17.8035 10.3602C17.8032 10.3607 17.8024 10.3629 17.8024 10.3629C17.8024 10.3629 17.8024 10.3632 17.8024 10.3635C17.8024 10.3638 17.8021 10.364 17.8021 10.3643V10.3654C17.8021 10.3654 17.8015 10.3665 17.8013 10.3665C17.8013 10.3671 17.801 10.3684 17.801 10.3687C17.8007 10.369 17.8002 10.3704 17.8002 10.3709C17.7922 10.3992 17.779 10.4894 17.779 10.4894C17.779 10.7818 17.7207 10.8918 17.9291 11.2045C17.9269 11.224 18.1068 11.4173 18.3832 11.543C18.3834 11.543 18.3834 11.543 18.3834 11.543C18.676 11.6018 18.5658 11.6956 19.4637 11.8106L19.5167 11.7085C17.3665 11.4825 18.0578 10.7875 20.3863 10.8093C23.2122 10.8362 23.1176 11.7407 20.8807 11.7407L20.8403 11.8526C21.3411 11.8526 22.1612 11.7864 22.5753 11.502C22.5756 11.5017 22.5756 11.5017 22.5759 11.5015C22.7579 11.3893 22.8858 11.2432 22.9515 11.0425C22.9515 11.0425 22.9515 11.0419 22.9515 11.0417V11.0425C23.0051 10.8843 23.0148 10.6069 22.9763 10.4793ZM21.3936 9.0773C21.3936 9.0773 22.5429 9.37156 22.7923 10.4036C22.6149 10.1152 22.2596 9.49366 21.3936 9.0773Z" fill="white"/>
<path d="M21.4764 8.9541C21.5048 8.96318 21.5034 8.96263 21.5034 8.96263L21.4764 8.9541Z" fill="white"/>
<path d="M16.0802 11.5534C16.0879 11.5138 16.0951 11.4761 16.1017 11.4393C15.9658 11.4893 15.8179 11.538 15.6556 11.5842L15.7255 11.6758C15.8498 11.6375 15.9675 11.5963 16.0802 11.5534Z" fill="white"/>
<path d="M14.3171 11.8507C12.113 12.2346 11.866 11.3595 14.6441 10.848C15.2368 10.7391 15.7818 10.6935 16.1833 10.708C16.2114 10.3115 16.2292 10.039 16.2545 9.72352C14.9937 9.58602 14.6524 9.36464 14.3598 9.27967L14.3441 9.26427C14.0432 9.12099 14.1139 9.12897 13.8593 8.95929C13.1539 9.15647 12.4529 9.6292 12.1757 10.3206L12.176 10.3195L12.1754 10.3217C11.8773 10.9803 11.9208 11.6323 12.6064 11.9057C12.69 11.9895 13.2545 12.0319 13.3753 12.0346C13.8524 12.0437 14.1007 12.0016 14.376 11.9538L14.3171 11.8507ZM12.204 10.862C12.2728 9.80217 13.3544 9.31514 13.3544 9.31514C12.5728 9.87395 12.3297 10.5472 12.204 10.862Z" fill="white"/>
<path d="M15.2378 11.5636C15.6286 11.5592 15.6533 11.5445 15.2047 11.5307C15.1936 11.5201 15.1838 11.5088 15.1724 11.4986C15.414 11.4648 15.6856 11.4108 15.9743 11.3321C15.9753 11.3258 15.9763 11.3176 15.9773 11.3113C15.6888 11.3869 15.4179 11.433 15.143 11.4692C15.1416 11.4675 15.1398 11.4656 15.1381 11.4641C15.3925 11.4054 15.6777 11.3263 15.9859 11.2244C15.9867 11.2162 15.9874 11.2089 15.9882 11.1998C15.6072 11.3205 15.3659 11.3786 15.1033 11.4378C15.1016 11.4366 15.0999 11.4349 15.0981 11.4337C15.3982 11.3313 15.7029 11.2104 15.998 11.0822C15.9985 11.074 15.9993 11.0665 16 11.0576C15.8436 11.1227 15.6716 11.1908 15.5003 11.2548C15.2805 11.3362 15.1956 11.3632 15.0547 11.4091C15.0426 11.4033 15.0308 11.398 15.0184 11.3936C15.031 11.3866 15.129 11.3248 15.1995 11.2765C15.2654 11.2319 15.3222 11.1906 15.3737 11.1503C15.4337 11.1032 15.4855 11.0583 15.528 11.017C15.5319 11.0129 15.5324 11.0071 15.529 11.0032C15.5257 10.9991 15.5198 10.9989 15.5154 11.0028C15.4668 11.0438 15.4083 11.0885 15.3417 11.1358C15.2842 11.1766 15.2208 11.2183 15.1477 11.2635C15.09 11.2992 15.0266 11.3366 14.955 11.3772C14.9012 11.3685 14.8028 11.3697 14.7485 11.3719C14.7258 11.2635 14.7117 11.2014 14.692 11.0904C14.6912 11.0853 14.6866 11.0819 14.6814 11.0824C14.6762 11.0829 14.6722 11.087 14.6722 11.0921C14.673 11.1751 14.6713 11.2951 14.6683 11.3774C14.574 11.3861 14.4783 11.405 14.3905 11.439C14.3438 11.4289 14.2989 11.418 14.2572 11.4074C14.1775 11.3873 14.1077 11.3671 14.0433 11.3465C13.9688 11.3226 13.9026 11.2983 13.8471 11.2746C13.8419 11.2722 13.8365 11.2739 13.8343 11.2787C13.8323 11.2833 13.8343 11.2886 13.8395 11.2917C13.8893 11.3173 13.9488 11.3439 14.0166 11.37C14.0746 11.3922 14.1385 11.4141 14.2111 11.4361C14.2464 11.447 14.2844 11.4581 14.3246 11.4689C14.2977 11.4832 14.2678 11.4948 14.2552 11.5192C13.9016 11.5163 12.5953 11.4424 13.5426 11.5172C13.8592 11.5423 13.9969 11.546 14.2488 11.5542C14.2491 11.559 14.2508 11.5638 14.252 11.5694C13.7494 11.6148 12.3076 11.6312 13.398 11.635C13.7237 11.6355 13.9952 11.6227 14.2631 11.601C14.2646 11.6039 14.2673 11.6068 14.2691 11.6099C13.9633 11.6676 13.6359 11.7084 13.322 11.7212C13.305 11.7219 13.3173 11.7485 13.3257 11.7405C13.6793 11.7306 13.9702 11.692 14.2888 11.6396C14.2932 11.6452 14.3006 11.6563 14.3061 11.663C14.2656 11.6773 14.2241 11.692 14.1879 11.7046C14.1346 11.7227 14.086 11.7393 14.0428 11.7536C13.9991 11.7688 13.9633 11.7809 13.9342 11.7915C13.9293 11.7924 13.9263 11.7965 13.9273 11.8019C13.928 11.8069 13.934 11.8108 13.9389 11.8106C13.9396 11.8103 13.9404 11.8103 13.9411 11.8103C13.9774 11.7994 14.0196 11.7869 14.067 11.7726C14.1156 11.7586 14.1699 11.7422 14.2283 11.7241C14.2592 11.7142 14.2947 11.7024 14.3278 11.692C15.0559 12.6212 14.6777 13.4189 14.4953 13.9215C14.4378 14.0775 14.3724 14.2463 14.33 14.4029C14.2797 14.5905 14.2616 14.7605 14.3495 14.8732C14.5676 15.1571 15.4187 14.8962 15.7286 14.7491C15.4421 14.2692 15.5674 13.3726 15.7824 12.318C15.6449 12.0433 15.4636 11.7876 15.2378 11.5636Z" fill="white"/>
<path d="M18.8571 12.7031C18.753 12.3684 18.6497 11.9937 18.5646 11.6802C17.0375 11.1711 17.5341 9.72941 18.2307 9.09692C18.226 9.02319 18.2201 8.94972 18.2174 8.87572C18.2278 8.87729 18.2406 8.87938 18.2509 8.88095C18.3303 8.89219 18.4019 8.90187 18.4692 8.91076C18.5111 8.88174 18.4988 8.89036 18.5195 8.87703C18.4551 8.86579 18.3831 8.8535 18.3045 8.83964C18.2768 8.83467 18.2438 8.82866 18.214 8.82317C18.2137 8.80696 18.2115 8.79075 18.2112 8.77454C18.2107 8.7714 18.2098 8.76904 18.2098 8.76617C18.39 8.76512 18.5639 8.76068 18.7473 8.74943C18.7764 8.73453 18.8129 8.71832 18.8489 8.70237C18.8026 8.70472 18.7574 8.70734 18.7079 8.70917C18.5579 8.71466 18.4043 8.71701 18.2468 8.71571C18.232 8.71571 18.2164 8.71518 18.2011 8.71466C18.1997 8.70865 18.1997 8.70211 18.1974 8.6961C18.2334 8.69243 18.2694 8.68982 18.3054 8.68564C18.4904 8.66603 18.6758 8.64276 18.8622 8.6153C19.0366 8.58968 19.2109 8.56013 19.385 8.52797C19.3966 8.52536 19.4087 8.52248 19.4195 8.52039C19.4772 8.50915 19.5152 8.50183 19.5574 8.49477C19.708 8.46496 19.8516 8.43515 19.9857 8.40482C19.9938 8.40299 20 8.39489 20 8.38626C19.9995 8.37763 19.9941 8.37136 19.985 8.37397C19.7993 8.4145 19.6121 8.45136 19.4247 8.48431C19.2371 8.51725 19.0496 8.54654 18.8617 8.5719C18.6746 8.597 18.4869 8.61818 18.3005 8.6357C18.2578 8.63962 18.2154 8.64249 18.173 8.64589C18.1686 8.6391 18.1654 8.63177 18.1607 8.62498C18.1777 8.62132 18.195 8.61818 18.2125 8.61426C18.3737 8.57974 18.5365 8.54235 18.6983 8.50261C18.8723 8.45973 19.0363 8.41659 19.186 8.37554C19.3547 8.32926 19.5113 8.28376 19.6526 8.24219C19.66 8.23958 19.6659 8.23121 19.6651 8.22258C19.6641 8.21448 19.6572 8.20977 19.6493 8.2116C19.5036 8.25187 19.3411 8.29605 19.1648 8.34103C19.008 8.38103 18.8425 8.42156 18.6588 8.46339C18.4914 8.5013 18.3225 8.53686 18.1548 8.56928C18.1412 8.5719 18.1284 8.57425 18.1143 8.57661C18.0941 8.56066 18.0714 8.54784 18.046 8.53948C18.033 8.53503 18.0204 8.53268 18.0076 8.5285C18.0778 8.49346 18.1442 8.45947 18.2034 8.42705C18.3025 8.37319 18.3885 8.32194 18.4665 8.27174C18.5572 8.21291 18.6361 8.15591 18.701 8.10231C18.7076 8.09682 18.7094 8.0874 18.7052 8.08087C18.701 8.07433 18.6923 8.07276 18.6859 8.07773C18.6115 8.1295 18.5232 8.18519 18.4221 8.24219C18.3345 8.29135 18.2391 8.34155 18.1294 8.39436C18.0596 8.42809 17.9829 8.46287 17.9013 8.49869C17.7718 8.46784 17.647 8.45424 17.5294 8.45163C17.5247 8.42966 17.5208 8.40822 17.5164 8.38495C17.5062 8.33135 17.4956 8.27461 17.4853 8.21474C17.4739 8.1512 17.4626 8.08427 17.4513 8.01289C17.45 8.00478 17.4434 7.99929 17.4355 8.00007C17.4283 8.0006 17.4222 8.00713 17.4222 8.01524C17.4222 8.08636 17.4217 8.15382 17.4199 8.21735C17.4189 8.27723 17.4175 8.33397 17.4157 8.38783C17.4148 8.41005 17.4143 8.43045 17.4135 8.45189C17.273 8.45738 17.1467 8.47725 17.0402 8.50209C16.9581 8.4694 16.8811 8.43751 16.8106 8.40665C16.6942 8.35567 16.5921 8.3073 16.4984 8.25945C16.3904 8.20376 16.295 8.14911 16.2144 8.09786C16.2075 8.09342 16.1988 8.09525 16.1951 8.10231C16.1912 8.10884 16.1936 8.11852 16.2003 8.12349C16.2718 8.1763 16.3579 8.23252 16.456 8.29004C16.5406 8.3392 16.6331 8.38887 16.7391 8.44117C16.799 8.47071 16.8656 8.50157 16.9359 8.53346C16.9048 8.5468 16.8765 8.56484 16.8538 8.58968C16.84 8.58733 16.8269 8.5855 16.8128 8.5834C16.6424 8.55464 16.4708 8.52222 16.3009 8.48745C16.1125 8.44901 15.9453 8.41136 15.7895 8.37502C15.6127 8.3337 15.4487 8.29318 15.302 8.25553C15.2941 8.25343 15.2872 8.25866 15.2864 8.26677C15.286 8.2754 15.2916 8.2835 15.2995 8.28586C15.4398 8.32429 15.5979 8.36691 15.7695 8.41005C15.9212 8.44849 16.0879 8.48849 16.2642 8.52771C16.4284 8.56406 16.5936 8.59857 16.7586 8.62942C16.7786 8.63334 16.7983 8.63648 16.8185 8.6404C16.8146 8.64694 16.8116 8.65374 16.8086 8.6608C16.7655 8.65818 16.7223 8.65609 16.6792 8.65321C16.4928 8.64014 16.3058 8.62315 16.1194 8.60223C15.9887 8.58733 15.8583 8.57059 15.7281 8.55229C14.1445 8.32952 15.5537 8.57478 16.1214 8.64537C16.3073 8.66838 16.4928 8.68773 16.6775 8.70315C16.7154 8.70629 16.7541 8.70865 16.7921 8.71152L16.7904 8.71701C16.7897 8.72146 16.7889 8.7259 16.7882 8.73035C16.7736 8.73061 16.7586 8.73165 16.744 8.73218C16.5894 8.73688 16.4383 8.73845 16.2908 8.73662C16.0166 8.73322 15.7298 8.71649 15.4573 8.68537C15.4494 8.68459 15.4433 8.6906 15.4435 8.69897C15.4457 8.74656 16.2809 8.77976 16.3256 8.78081C16.4743 8.78447 16.6259 8.78473 16.7803 8.78186C16.7766 8.80277 16.7746 8.82395 16.7709 8.84461C16.7504 8.84905 16.7265 8.85428 16.7068 8.85847C16.6291 8.87494 16.5579 8.88958 16.4952 8.90265C16.4703 8.90814 16.3201 8.93141 16.3261 8.95547C16.328 8.96384 16.3362 8.96907 16.3433 8.96828C16.4807 8.94606 16.6262 8.922 16.7618 8.89847C16.6898 9.32936 16.6353 10.5295 16.5944 10.9643C16.5263 11.6844 15.8938 13.8932 16.3258 14.5843C16.5929 15.0115 18.445 15.2304 19.0679 14.6371C18.6904 14.1547 18.7232 13.3397 18.8571 12.7031Z" fill="white"/>
<path d="M20.848 6.58716L20.8497 6.59018L20.8499 6.59046L20.848 6.58716Z" fill="white"/>
<path d="M19.021 5.25671C19.062 5.27019 19.0603 5.26909 19.0603 5.26909L19.021 5.25671Z" fill="white"/>
<path d="M14.4995 9.04016C14.4995 9.04016 14.4998 9.04016 14.4998 9.04044C14.7924 9.12404 15.0429 9.31957 16.254 9.45322C16.2611 9.39904 16.2699 9.34762 16.2779 9.29454C13.0277 8.98846 13.9288 7.93493 17.4272 7.96793C18.9042 7.98195 20.1381 8.21625 20.4811 8.51986C20.673 8.52618 20.8633 8.54433 21.0495 8.57678C21.1114 8.48053 21.1466 8.39886 21.1768 8.30755L21.1763 8.30838C21.2626 8.054 21.2695 7.62555 21.2129 7.48392C21.2129 7.48392 21.2129 7.48365 21.2129 7.48337C21.2129 7.4831 21.2126 7.48255 21.2126 7.482C21.2123 7.482 21.2123 7.482 21.2123 7.48172L21.2126 7.482C21.2126 7.48172 21.2123 7.48145 21.2123 7.48117C21.2123 7.48117 21.2123 7.48117 21.2123 7.4809C21.2123 7.48062 21.2123 7.48007 21.2123 7.4798C21.212 7.4798 21.212 7.4798 21.212 7.47952C21.2118 7.47897 21.2118 7.47842 21.2112 7.4776C21.2112 7.47705 21.2112 7.47705 21.2112 7.47705C21.2112 7.47705 21.2112 7.47705 21.2112 7.47677C21.2112 7.4765 21.2112 7.47595 21.2112 7.4754C21.2107 7.47512 21.2107 7.47457 21.2107 7.47402V7.47375C21.2107 7.47347 21.2107 7.47265 21.2101 7.47265C21.2101 7.47237 21.2101 7.47127 21.2098 7.47127C21.2098 7.44817 21.1507 7.22872 21.0765 7.04117C21.0765 7.04117 21.0765 7.04117 21.0765 7.04089C19.947 4.24273 14.4024 4.31368 13.6547 7.30434C13.6544 7.30462 13.6544 7.30517 13.6544 7.30517C13.6544 7.30544 13.6541 7.30572 13.6541 7.30572V7.30627C13.6541 7.30654 13.6541 7.30682 13.6536 7.30682C13.6536 7.30682 13.6536 7.30737 13.6536 7.30764V7.30819C13.6536 7.30819 13.6533 7.30957 13.653 7.30984C13.653 7.31039 13.6527 7.31094 13.6527 7.31122C13.6527 7.31122 13.6525 7.31149 13.6525 7.31259C13.6525 7.31287 13.6519 7.31287 13.6519 7.31342C13.6519 7.31369 13.6519 7.31424 13.6516 7.31452C13.6516 7.31479 13.6511 7.31672 13.6511 7.31699C13.6503 7.31699 13.6503 7.31754 13.6503 7.31782L13.6497 7.31919C13.6497 7.31947 13.6494 7.32002 13.6492 7.32029C13.6492 7.32057 13.6492 7.32084 13.6489 7.32112C13.6489 7.63352 13.3076 8.49923 14.4995 9.04016ZM20.9444 7.37557C20.6848 6.95344 20.1656 6.0451 18.9001 5.4368C18.9004 5.4368 20.5795 5.86663 20.9444 7.37557Z" fill="white"/>
</svg>
