<svg width="140" height="140" viewBox="0 0 140 140" fill="none" xmlns="http://www.w3.org/2000/svg">
<rect width="140" height="140" rx="70" fill="#D0F19E"/>
<circle opacity="0.6" cx="70" cy="70" r="50" fill="#ECF9D8"/>
<path d="M78.3364 64.8898C77.0471 63.9873 75.5184 63.6557 74.0633 63.932C72.6635 64.2083 71.3742 65.0187 70.3981 66.2343C71.761 67.7631 73.1793 69.8812 74.6159 72.8097C75.3342 74.099 76.4762 74.9831 77.7286 75.2778C79.4968 75.683 80.694 75.2225 81.265 73.8964C82.2964 71.5573 81.136 66.8421 78.3364 64.8898Z" fill="#1A5C4B"/>
<path d="M38 107.842L42.1442 105.889C42.3836 105.779 42.6599 105.779 42.8993 105.889L47.9275 108.247L52.9558 105.889C53.0663 105.834 53.1952 105.797 53.3242 105.797C53.4531 105.797 53.582 105.816 53.6925 105.889L58.7208 108.247L63.749 105.889C63.9884 105.779 64.2647 105.779 64.5042 105.889L69.5324 108.247L74.5606 105.889C74.8001 105.779 75.0764 105.779 75.3158 105.889L80.344 108.247L85.3723 105.889C85.6117 105.779 85.888 105.779 86.1274 105.889L91.1557 108.247L96.1839 105.889C96.4233 105.779 96.6996 105.779 96.9391 105.889L101.083 107.842V99.2403H38V107.842Z" fill="#1A5C4B"/>
<path d="M64.2278 64.2454C63.9147 64.1901 63.62 64.1533 63.3253 64.1533C61.7045 64.1533 60.4889 64.9637 59.7153 65.7004C58.2971 67.045 57.413 68.9605 57.3762 70.7286C57.3577 72.0364 57.7998 73.1415 58.6839 74.0256C60.0468 75.3885 61.1704 74.7439 63.2701 73.0678C65.7934 71.0602 68.4088 70.1208 71.761 71.1707C70.6743 69.2736 69.7902 68.4263 68.5562 66.8055C66.8801 65.1294 65.3882 64.448 64.2278 64.2454Z" fill="#1A5C4B"/>
<path d="M96.8838 33.3576C96.6444 33.4681 96.3681 33.4681 96.1286 33.3576L91.1004 31L86.0722 33.3576C85.8327 33.4681 85.5565 33.4681 85.317 33.3576L80.3072 31L75.279 33.3576C75.0395 33.4681 74.7632 33.4681 74.5238 33.3576L69.514 31L64.4857 33.3576C64.2463 33.4681 63.97 33.4681 63.7306 33.3576L58.7023 31L53.6741 33.3576C53.4347 33.4681 53.1584 33.4681 52.919 33.3576L47.9091 31L42.8809 33.3576C42.6415 33.4681 42.3652 33.4681 42.1257 33.3576L38 31.4236V40.025H101.01V31.4236L96.8838 33.3576Z" fill="#1A5C4B"/>
<path d="M69.5139 51.8866C59.7337 51.8866 51.7585 59.8434 51.7585 69.642C51.7585 79.4222 59.7153 87.3974 69.5139 87.3974C79.2941 87.3974 87.2693 79.4406 87.2693 69.642C87.2509 59.8434 79.2941 51.8866 69.5139 51.8866ZM82.8673 74.615C82.1306 76.291 80.7124 77.1751 78.8521 77.1751C78.3732 77.1751 77.8575 77.1199 77.3234 76.991C75.6289 76.6042 74.137 75.4622 73.1608 73.823C70.9322 72.3127 68.2246 72.1469 65.8671 73.3809C65.425 73.6204 64.9093 74.0256 64.3568 74.4676C63.2332 75.3701 61.7414 76.5489 60.1205 76.5489C59.2364 76.5489 58.3339 76.199 57.413 75.278C56.1974 74.0624 55.5712 72.4784 55.608 70.6918C55.6448 68.4632 56.7499 66.0688 58.4997 64.4111C60.231 62.7719 62.3676 62.0904 64.541 62.4772C65.8118 62.6982 67.3958 63.3613 69.1456 64.9453C70.3796 63.4902 71.9636 62.514 73.7318 62.1641C75.6657 61.7957 77.6733 62.2378 79.3494 63.3981C82.6279 65.7189 84.3592 71.2444 82.8673 74.615Z" fill="#1A5C4B"/>
<path d="M100.347 41.7934H38.6631L43.0835 49.216C44.557 51.6841 44.6307 66.6583 44.6307 69.6421C44.6307 72.6259 44.557 87.6001 43.0835 90.0681L38.6631 97.4908H100.328L95.9076 90.0681C94.4342 87.6001 94.3605 72.6259 94.3605 69.6421C94.3605 66.6583 94.4342 51.6841 95.9076 49.216L100.347 41.7934ZM69.514 89.1472C58.7576 89.1472 49.9904 80.3985 49.9904 69.6237C49.9904 58.8489 58.7392 50.1001 69.514 50.1001C80.2704 50.1001 89.0376 58.8489 89.0376 69.6237C89.0376 80.3985 80.2704 89.1472 69.514 89.1472Z" fill="#1A5C4B"/>
</svg>
