<svg width="140" height="140" viewBox="0 0 140 140" fill="none" xmlns="http://www.w3.org/2000/svg">
<rect width="140" height="140" rx="12" fill="#D0F19E"/>
<circle opacity="0.6" cx="70" cy="70" r="45" fill="white"/>
<g clip-path="url(#clip0_167_7054)">
<path d="M52.6636 81.9544C49.6959 81.9544 47.2816 84.3687 47.2816 87.3364C47.2816 90.3041 49.696 92.7184 52.6636 92.7184C55.6312 92.7184 58.0456 90.304 58.0456 87.3364C58.0456 84.3688 55.6312 81.9544 52.6636 81.9544Z" fill="#1A5C4B"/>
<path d="M52.6636 66.673C41.2697 66.673 32 75.9425 32 87.3364C32 98.7303 41.2697 108 52.6636 108C64.0574 108 73.327 98.7303 73.327 87.3364C73.327 75.9425 64.0574 66.673 52.6636 66.673ZM52.6636 97.5817C47.0142 97.5817 42.4183 92.9856 42.4183 87.3364C42.4183 81.6872 47.0144 77.0911 52.6636 77.0911C58.3128 77.0911 62.9089 81.6871 62.9089 87.3364C62.9089 92.9858 58.3128 97.5817 52.6636 97.5817Z" fill="#1A5C4B"/>
<path d="M37.0363 45.4906H39.8137V65.2887C41.3414 64.395 42.9693 63.6547 44.677 63.0907V40.6273H37.0363C35.6933 40.6273 34.6046 41.7161 34.6046 43.059C34.6046 44.4019 35.6933 45.4906 37.0363 45.4906Z" fill="#1A5C4B"/>
<path d="M68.9545 45.4906H70.8954C72.2383 45.4906 73.327 44.4019 73.327 43.059C73.327 41.7161 72.2383 40.6273 70.8954 40.6273H49.5402V61.8097H73.8502L68.9545 45.4906Z" fill="#1A5C4B"/>
<path d="M104.755 66.673H67.6329C74.0254 71.3168 78.1903 78.8488 78.1903 87.3364C78.1903 89.7702 77.8465 92.1248 77.2073 94.3559C79.0934 88.8641 84.306 84.9048 90.4296 84.9048C96.7817 84.9048 102.154 89.165 103.849 94.9771H104.755C106.098 94.9771 107.186 93.8884 107.186 92.5455V69.1045C107.186 67.7617 106.098 66.673 104.755 66.673Z" fill="#1A5C4B"/>
<path d="M91.8695 107.886C96.8386 107.08 100.214 102.399 99.4083 97.4297C98.6028 92.4606 93.9215 89.0854 88.9524 89.8909C83.9833 90.6964 80.608 95.3777 81.4136 100.347C82.2191 105.316 86.9004 108.691 91.8695 107.886Z" fill="#1A5C4B"/>
</g>
<defs>
<clipPath id="clip0_167_7054">
<rect width="83" height="83" fill="white" transform="translate(32 25)"/>
</clipPath>
</defs>
</svg>
