<svg width="140" height="140" viewBox="0 0 140 140" fill="none" xmlns="http://www.w3.org/2000/svg">
<rect width="140" height="140" rx="12" fill="#D0F19E"/>
<circle opacity="0.6" cx="70" cy="70" r="50" fill="white"/>
<path d="M72.8843 52.0831C75.3039 52.3576 77.6035 51.9057 79.6904 51.4991C81.6141 51.1215 83.4489 50.7625 85.1389 51.006C85.1575 53.0201 85.1203 54.9865 85.0252 56.8749C84.9839 57.6714 85.5996 58.3504 86.3973 58.3916C86.4221 58.3938 86.4468 58.3938 86.4716 58.3938C87.2362 58.3938 87.8746 57.7932 87.9139 57.0215C88.0503 54.3306 88.0751 51.4931 87.9863 48.5854C87.8933 45.5663 87.6804 42.37 87.3354 38.8103C87.3002 38.4676 87.4016 38.1334 87.6184 37.8692C87.8374 37.603 88.1474 37.438 88.4904 37.405C88.8335 37.37 89.1681 37.473 89.4327 37.6898C89.6992 37.9085 89.8646 38.2159 89.8977 38.5585C90.2407 42.0647 90.4638 45.418 90.5589 48.5217C90.6478 51.5056 90.6292 54.3183 90.5072 56.8792C90.4679 57.6757 91.0857 58.3525 91.8834 58.3918C92.6851 58.4331 93.3587 57.8141 93.3978 57.0176C93.4886 55.0964 93.5239 53.0389 93.499 50.8804C95.4432 50.8391 97.5115 51.5242 99.681 52.2465C102.115 53.0577 104.607 53.8912 107.194 53.8025C105.322 57.1269 101.979 58.8357 97.0487 59.0091C96.4847 59.0276 95.9826 59.3763 95.7656 59.8985C95.5466 60.4186 95.654 61.019 96.0384 61.4338C98.4268 64.0092 99.0178 66.7703 97.8628 70.3753C96.7863 69.3187 95.4845 68.5532 94.2822 67.8433C91.8337 66.3988 90.4534 65.4825 90.5838 63.4397C90.6231 62.8433 90.2883 62.2861 89.7448 62.0363C89.2014 61.7846 88.5609 61.896 88.1311 62.3129C86.7385 63.6666 84.8376 64.0319 82.8272 64.4179C81.199 64.7296 79.4325 65.0679 77.8207 65.9738C78.0894 63.4479 79.4798 61.5165 82.1225 59.9089C82.6391 59.5932 82.9057 58.9885 82.7879 58.3942C82.6701 57.7998 82.1949 57.3417 81.5957 57.2469C75.5456 56.2866 73.5249 54.124 72.8843 52.0831ZM24.2501 48.8227C24.3141 46.7404 25.5043 45.0277 27.4341 44.2416C27.8845 44.0578 28.2129 43.6597 28.3061 43.183C28.4012 42.7042 28.2481 42.213 27.899 41.8725C26.0808 40.0916 26.1241 37.7867 26.7689 36.2245C27.4031 34.6892 28.9777 33.059 31.5047 33.059H31.546C31.9552 33.0713 32.3393 32.8938 32.6143 32.5968C32.8912 32.3018 33.0296 31.9014 32.9965 31.4989C32.6947 27.7307 35.3125 25.57 38.0442 25.0996C40.7695 24.6289 43.9577 25.7866 44.935 29.4311C45.0403 29.8232 45.3049 30.1513 45.6644 30.3391C46.0239 30.527 46.4454 30.5537 46.8256 30.4156C49.2286 29.5448 51.2783 30.56 52.3961 31.8003C53.5284 33.0549 54.3425 35.2134 53.2309 37.5C53.018 37.9376 53.0409 38.4512 53.2888 38.8703C53.5389 39.2891 53.981 39.5534 54.4687 39.5739C56.5474 39.6648 58.2436 40.8781 59.0061 42.8199C59.6012 44.3366 59.6198 46.5797 57.8904 48.3276C57.5785 48.6435 57.4276 49.085 57.4834 49.5245C57.5391 49.9641 57.7933 50.354 58.1734 50.5811C59.5184 51.3901 60.407 52.7561 60.6115 54.3306C60.816 55.9051 60.3057 57.4548 59.2106 58.5795C58.8779 58.924 58.7354 59.4089 58.8325 59.8774C58.9276 60.3459 59.2499 60.7358 59.692 60.9196C61.4339 61.6439 62.6033 63.1998 62.8243 65.084C63.0432 66.9597 62.2644 68.7387 60.7415 69.8406C60.3014 70.1584 60.0761 70.6949 60.1609 71.2314C60.2434 71.7658 60.6174 72.2116 61.1341 72.383C63.8407 73.2807 64.19 75.8829 64.2147 76.96C64.2704 79.3497 63.0204 82.2697 60.5204 83.3592C53.5697 83.6729 47.8546 84.7728 43.501 86.6466C42.3501 87.1419 41.2984 87.6948 40.3479 88.3015C37.5916 85.1958 33.8415 81.9208 30.2235 81.8198C30.054 80.109 30.7442 78.5056 32.1822 77.3851C32.61 77.0528 32.8145 76.5081 32.7131 75.9757C32.6098 75.4433 32.2194 75.012 31.6986 74.8593C29.8908 74.3289 28.5579 72.9132 28.1344 71.0705C27.711 69.2238 28.2914 67.3684 29.6861 66.1034C30.0415 65.7815 30.2129 65.3048 30.1468 64.8322C30.0806 64.3575 29.7832 63.9468 29.3534 63.7365C27.9442 63.0431 26.9423 61.7574 26.6055 60.2077C26.2708 58.658 26.6468 57.071 27.6427 55.8576C27.9237 55.515 28.0311 55.0631 27.936 54.6298C27.8409 54.1985 27.5517 53.8334 27.1528 53.6415C24.9341 52.5702 24.1984 50.4508 24.2501 48.8227ZM31.5479 45.9728L40.6309 49.3015L41.7922 56.0062L34.2732 53.2513C33.5231 52.9769 32.6926 53.3627 32.4157 54.1119C32.1409 54.8611 32.5272 55.6905 33.2773 55.9649L42.3624 59.2934L43.5237 65.9981L36.0006 63.2493C35.2505 62.9749 34.4178 63.3587 34.1431 64.1099C33.8703 64.859 34.2546 65.6885 35.0047 65.9629L44.0918 69.2834L45.8501 79.4342C45.972 80.138 46.5836 80.633 47.2738 80.633C47.3544 80.633 47.4391 80.6268 47.5217 80.6123C48.309 80.4761 48.8358 79.7291 48.7016 78.9428L47.8812 74.2048L53.8814 69.2273C54.4951 68.7156 54.5798 67.8054 54.0695 67.1927C53.5591 66.5778 52.6458 66.4932 52.0323 67.0027L47.311 70.9195L46.8129 68.0386C46.8067 67.9911 46.7984 67.9457 46.7881 67.9004L46.0609 63.6969L52.0591 58.7215C52.6748 58.2099 52.7575 57.2999 52.2472 56.6869C51.7368 56.072 50.8256 55.9874 50.21 56.4971L45.4928 60.4118L44.2407 53.1933L50.2389 48.2139C50.8526 47.7041 50.9374 46.7941 50.4249 46.1792C49.9145 45.5663 49.0033 45.4817 48.3877 45.9936L43.6726 49.9082L43.3503 48.0426C43.3462 48.0159 43.3399 47.9891 43.3358 47.9623L41.373 36.6332C41.2366 35.8469 40.4908 35.3186 39.7014 35.4548C38.9141 35.591 38.3873 36.338 38.5237 37.1243L40.063 46.0143L32.546 43.2612C31.7939 42.9846 30.9632 43.3707 30.6885 44.1196C30.4137 44.8686 30.798 45.6984 31.5479 45.9728ZM27.8102 85.7817C26.2337 87.5275 26.9072 89.8637 29.8082 92.734C31.8744 92.9011 33.8188 93.2293 35.3043 93.5346C35.98 92.2675 36.8932 91.1057 38.0399 90.0595C35.0088 86.6814 32.1636 84.7478 30.1182 84.7064C29.2215 84.6943 28.4879 85.0326 27.8102 85.7817ZM34.2609 102.433C34.0211 101.453 33.8973 100.425 33.8973 99.3519C33.8973 98.2787 34.0211 97.251 34.2609 96.2708C28.1221 95.0575 23.1571 95.2866 21.1033 96.919C20.3491 97.5196 20 98.2912 20 99.3519C20 100.415 20.3513 101.189 21.1055 101.789C23.1634 103.423 28.1264 103.65 34.2609 102.433ZM35.3043 105.169C33.8188 105.475 31.8765 105.807 29.8123 105.974C26.9072 108.845 26.2337 111.181 27.808 112.926C28.4857 113.676 29.2213 114.014 30.118 114C32.1656 113.958 35.0129 112.027 38.0419 108.649C36.8953 107.6 35.98 106.436 35.3043 105.169ZM67.1072 76.8918C67.163 79.2526 66.4027 81.5122 65.0843 83.2642C76.0847 83.295 89.1061 85.1379 99.9867 88.2106C104.964 89.6158 110.51 91.5475 114.186 93.9206C117.996 89.5457 120 84.3702 120 78.8791C120 70.6226 115.32 62.9626 107.425 58.1893C105.495 60.0095 102.954 61.1672 99.8153 61.6521C102.555 66.2168 101.041 70.7752 99.5342 73.9718C99.2945 74.4796 98.7841 74.8013 98.2243 74.8013H98.2057C97.6395 74.793 97.1292 74.4567 96.8998 73.9387C96.189 72.323 94.5485 71.3551 92.8108 70.3316C91.0317 69.2832 88.9284 68.0431 88.073 65.8619C86.5378 66.6481 84.8869 66.9638 83.3703 67.2548C81.0521 67.6985 79.0499 68.0823 77.6262 69.8652C77.2687 70.311 76.6798 70.5071 76.1262 70.3605C75.5724 70.2139 75.1571 69.756 75.0663 69.1905C74.4299 65.1809 75.3969 61.9597 78.0127 59.4214C76.3556 58.9489 74.9444 58.334 73.7812 57.5786C70.6055 59.3347 67.8078 61.6191 65.6217 64.2441C65.6507 64.4112 65.6775 64.5783 65.6982 64.7476C65.9524 66.9206 65.347 69.0111 64.0452 70.6495C65.9337 72.0052 67.0454 74.2153 67.1072 76.8918ZM99.1996 90.9902C97.5033 90.5116 95.7532 90.0636 93.966 89.6489V93.549C93.966 94.3476 93.3192 94.9936 92.5196 94.9936C91.7219 94.9936 91.0732 94.3476 91.0732 93.549V89.0113C85.1638 87.7773 78.9611 86.9044 73.029 86.4689V93.5492C73.029 94.3478 72.3802 94.9938 71.5806 94.9938C70.783 94.9938 70.1342 94.3478 70.1342 93.5492V86.2895C68.3139 86.1988 66.5266 86.1513 64.7932 86.1513C63.4832 86.1513 62.2104 86.1783 60.9728 86.2299C60.9274 86.236 60.8798 86.2381 60.8344 86.2381H60.8282C57.6503 86.3784 54.7205 86.6902 52.0902 87.1688V93.5494C52.0902 94.348 51.4415 94.994 50.6438 94.994C49.8442 94.994 49.1955 94.348 49.1955 93.5494V87.7919C47.5178 88.2149 45.9949 88.7185 44.6477 89.3004C39.3603 91.5744 36.792 94.8638 36.792 99.3521C36.792 103.84 39.3603 107.13 44.6477 109.406C48.4205 111.03 53.5511 112.049 59.6691 112.408V106.366C59.6691 105.568 60.3158 104.92 61.1155 104.92C61.9151 104.92 62.5618 105.568 62.5618 106.366V112.528C63.2953 112.545 64.0413 112.555 64.7975 112.555C69.7667 112.555 75.1699 112.171 80.6018 111.463V106.366C80.6018 105.568 81.2485 104.92 82.0481 104.92C82.8478 104.92 83.4945 105.568 83.4945 106.366V111.055C88.91 110.235 94.28 109.105 99.2018 107.714C111.109 104.352 115.432 100.871 115.432 99.3521C115.432 97.8333 111.109 94.3519 99.1996 90.9902Z" fill="#1A5C4B"/>
</svg>
