<svg width="140" height="140" viewBox="0 0 140 140" fill="none" xmlns="http://www.w3.org/2000/svg">
<rect width="140" height="140" rx="12" fill="#D0F19E"/>
<circle opacity="0.6" cx="70" cy="70" r="50" fill="#ECF9D8"/>
<path d="M56.548 31.6041C55.2968 33.0179 54.1847 34.5426 53.156 36.095C52.1274 37.6474 51.2377 39.283 50.4315 40.974C49.236 41.3621 48.1239 41.8611 47.0395 42.4709C46.4002 39.4216 45.4826 36.1227 44.1204 32.6575C43.3142 30.6337 42.4523 28.721 41.5348 27.0022C40.3115 24.646 42.8414 22.0956 45.2047 23.3154C48.6799 25.0894 52.7946 27.7507 56.548 31.6041ZM71.6166 23.3154C66.5566 25.8934 60.2177 30.3288 55.4915 37.5919C54.9632 38.3959 54.4905 39.2275 54.0457 40.0314C55.4358 39.782 56.9094 39.6432 58.4107 39.6432C62.6921 39.6432 66.4731 40.6691 69.8094 42.4709C70.4212 39.4493 71.3385 36.1227 72.701 32.6575C73.5072 30.6337 74.369 28.7209 75.2865 27.0022C76.5098 24.6459 73.9797 22.0956 71.6166 23.3154ZM71.283 85.0789C70.2822 87.0472 70.6434 89.4312 72.2282 91.0114C73.8129 92.5638 76.1484 93.8944 79.151 95.031C79.429 95.1419 79.7069 95.2251 79.9851 95.3082L69.3925 105.87C69.4758 105.316 69.4758 104.734 69.3647 104.151C69.0589 102.405 68.6418 100.686 68.0857 99.023C66.9459 95.5855 65.2777 92.3142 63.1648 89.3204C62.0527 87.7958 60.3011 86.8809 58.4106 86.8809C56.5479 86.8809 54.7686 87.7958 53.6842 89.3204C51.5434 92.3142 49.8754 95.5855 48.7356 99.023C48.2073 100.686 47.7624 102.405 47.4566 104.151C46.9562 107.062 48.7077 109.918 51.5158 110.777C53.3506 111.331 55.6026 111.608 58.4106 111.608C61.2187 111.608 63.4706 111.331 65.3333 110.777C65.9727 110.583 66.5566 110.278 67.0849 109.918C66.918 110.666 66.8902 111.442 66.9737 112.246C67.0849 113.466 67.5019 114.602 68.1692 115.6C65.1943 116.293 61.9137 116.626 58.4106 116.626C42.7024 116.626 31.8597 110.139 29.4131 96.223C29.8857 96.4171 30.4139 96.5002 30.97 96.5002H31.3036C33.222 96.3616 35.3628 95.8626 37.6702 95.031C40.7007 93.8943 43.0083 92.5638 44.5929 91.0114C46.1776 89.4312 46.5669 87.0472 45.5383 85.0789C44.0925 82.2514 40.8954 78.0377 36.6972 75.4596C34.9179 74.3784 33.0273 73.4635 31.0533 72.7705C31.6651 70.0816 32.4156 67.5035 33.3053 65.064C34.195 65.8956 35.3904 66.3946 36.7251 66.3946L37.0865 66.3668C39.0049 66.256 41.1455 65.757 43.4531 64.8977C46.4558 63.761 48.7911 62.4304 50.348 60.878C51.9605 59.3256 52.322 56.9138 51.3212 54.9455C50.1533 52.7278 47.9292 49.623 44.9822 47.1558C48.7632 44.1618 53.2395 42.4153 58.4106 42.4153C63.5818 42.4153 68.0579 44.1618 71.8391 47.1558C68.8921 49.623 66.6678 52.7278 65.528 54.9455C64.4993 56.9416 64.8886 59.3256 66.4731 60.878C68.0302 62.4304 70.3655 63.761 73.396 64.8977C75.7034 65.757 77.8442 66.256 79.7626 66.3668L80.0962 66.3946C81.4307 66.3946 82.6263 65.8956 83.5158 65.064C84.4055 67.5035 85.1562 70.0816 85.7678 72.7428C83.7939 73.4358 81.9034 74.3507 80.124 75.4596C75.9259 78.0377 72.7564 82.2514 71.283 85.0789ZM69.3647 74.018C69.0589 72.2716 68.6418 70.5529 68.0857 68.9172C66.9459 65.452 65.2777 62.1809 63.1649 59.1871C62.0527 57.6623 60.3012 56.7476 58.4106 56.7476C56.548 56.7476 54.7686 57.6623 53.6843 59.1871C51.5434 62.1809 49.8754 65.452 48.7356 68.8896C48.2073 70.5529 47.7624 72.2716 47.4566 74.018C46.9562 76.9565 48.7078 79.7842 51.5158 80.6435C53.3507 81.198 55.6026 81.4751 58.4106 81.4751C61.2187 81.4751 63.4706 81.198 65.3333 80.6435C68.1414 79.7842 69.8651 76.9565 69.3647 74.018ZM79.9455 63.6082C81.2298 63.6957 82.328 62.6862 82.3679 61.3777C82.4481 58.7527 82.9463 54.9996 84.0293 51.887C84.5239 50.4257 85.1219 49.1288 85.7477 47.998C86.743 46.1999 85.1922 44.045 83.2243 44.5473C80.8348 45.1572 78.2739 46.1724 75.8051 47.6881C72.1977 49.9029 69.2957 53.6806 67.9968 56.2076C67.5344 57.107 67.7062 58.2 68.423 58.9062C69.3595 59.8288 71.1182 61.0974 74.3545 62.2943C76.7728 63.1886 78.6283 63.5184 79.9455 63.6082ZM42.4753 62.2942C45.7116 61.0974 47.4704 59.8288 48.4068 58.9061C49.1236 58.2 49.2954 57.107 48.8331 56.2076C47.5341 53.6806 44.6321 49.9029 41.0247 47.6881C38.556 46.1724 35.995 45.1572 33.6055 44.5473C31.6376 44.045 30.0868 46.1998 31.0821 47.998C31.708 49.1288 32.3059 50.4257 32.8005 51.887C33.8835 54.9996 34.3818 58.7527 34.4619 61.3777C34.5018 62.6862 35.6 63.6957 36.8844 63.6082C38.2016 63.5184 40.057 63.1886 42.4753 62.2942ZM36.7032 92.4207C39.9395 91.2239 41.6983 89.9553 42.6348 89.0326C43.3515 88.3265 43.5234 87.2335 43.061 86.3341C41.762 83.8071 38.86 80.0294 35.2526 77.8146C32.7839 76.2988 30.2229 75.2837 27.8335 74.6738C25.8656 74.1715 24.3148 76.3263 25.31 78.1245C25.9359 79.2553 26.5338 80.5522 27.0285 82.0135C28.1115 85.1261 28.6097 88.8792 28.6898 91.5042C28.7298 92.8127 29.8279 93.8222 31.1123 93.7347C32.4295 93.6449 34.285 93.3151 36.7032 92.4207ZM88.9929 74.6833C86.602 75.2933 84.0441 76.2912 81.5698 77.8159C77.9832 80.0336 75.064 83.8038 73.7574 86.3264C73.3125 87.2413 73.4793 88.3223 74.2022 89.0431C75.1197 89.9579 76.8989 91.2332 80.124 92.4252C80.8747 92.7024 81.5698 92.9242 82.2092 93.0905L88.6593 86.6591C88.9094 85.1067 89.2987 83.471 89.7991 82.0019C90.2995 80.5603 90.8834 79.2575 91.5228 78.1208C92.5238 76.319 90.9669 74.1844 88.9929 74.6833ZM65.4441 69.7725C64.2229 66.0742 62.5237 63.0962 60.8894 60.8033C59.6654 59.0861 57.1644 59.0861 55.9404 60.8033C54.3061 63.0962 52.6069 66.0742 51.3858 69.7725C50.8285 71.4455 50.4575 73.0325 50.2079 74.4894C49.9432 76.035 50.8327 77.5393 52.3116 77.9858C53.601 78.3751 55.5134 78.6978 58.4149 78.6978C61.3164 78.6978 63.2288 78.3752 64.5183 77.9858C65.9971 77.5393 66.8867 76.0349 66.6219 74.4893C66.3722 73.0324 66.0012 71.4455 65.4441 69.7725ZM65.4441 99.899C64.2229 96.2007 62.5237 93.2227 60.8894 90.9298C59.6654 89.2126 57.1644 89.2126 55.9404 90.9298C54.3061 93.2227 52.6069 96.2007 51.3858 99.899C50.8285 101.572 50.4575 103.159 50.2079 104.616C49.9432 106.162 50.8327 107.666 52.3116 108.112C53.601 108.502 55.5134 108.824 58.4149 108.824C61.3164 108.824 63.2288 108.502 64.5183 108.112C65.9971 107.666 66.8867 106.161 66.6219 104.616C66.3722 103.159 66.0012 101.572 65.4441 99.899ZM100.058 105.094C92.8851 112.218 81.2639 112.246 74.091 105.094L100.058 79.202C107.231 86.3542 107.203 97.9695 100.058 105.094ZM83.2657 103.902C83.2657 103.292 82.7375 102.765 82.0981 102.765C81.4863 102.765 80.9581 103.292 80.9581 103.902C80.9581 104.54 81.4863 105.066 82.0981 105.066C82.7375 105.066 83.2657 104.54 83.2657 103.902ZM98.39 86.7976C98.39 87.4076 98.9183 87.9343 99.5298 87.9343C100.169 87.9343 100.698 87.4076 100.698 86.7976C100.698 86.1601 100.169 85.6334 99.5298 85.6334C98.9183 85.6334 98.39 86.1601 98.39 86.7976ZM90.4663 106.147C90.4663 105.51 89.9381 105.011 89.2987 105.011C88.6871 105.011 88.1589 105.51 88.1589 106.147C88.1589 106.785 88.6871 107.284 89.2987 107.284C89.9381 107.284 90.4663 106.785 90.4663 106.147ZM91.1059 99.6605C91.1059 99.0229 90.6055 98.4962 89.9659 98.4962C89.3265 98.4962 88.8261 99.0229 88.8261 99.6605C88.8261 100.298 89.3265 100.797 89.9659 100.797C90.6055 100.797 91.1059 100.298 91.1059 99.6605ZM95.1094 93.6727C95.1094 93.035 94.5812 92.536 93.9694 92.536C93.33 92.536 92.8018 93.035 92.8018 93.6727C92.8018 94.3103 93.33 94.8092 93.9694 94.8092C94.5812 94.8092 95.1094 94.3102 95.1094 93.6727ZM99.6411 100.381C99.6411 99.7437 99.1129 99.2446 98.4733 99.2446C97.8618 99.2446 97.3335 99.7438 97.3335 100.381C97.3335 101.019 97.8618 101.518 98.4733 101.518C99.1129 101.518 99.6411 101.019 99.6411 100.381ZM101.726 93.6727C101.726 93.035 101.198 92.536 100.558 92.536C99.9191 92.536 99.4187 93.035 99.4187 93.6727C99.4187 94.3103 99.9191 94.8092 100.558 94.8092C101.198 94.8092 101.726 94.3102 101.726 93.6727ZM110.401 76.818C108.76 74.3507 105.174 74.1013 103.061 76.208L102.032 77.2614C110.261 85.4671 110.261 98.8289 102.004 107.062C97.8896 111.165 92.496 113.216 87.0746 113.216C81.6531 113.216 76.2595 111.165 72.1171 107.062L71.0884 108.088C68.8921 110.278 69.3647 113.909 71.9781 115.573C82.7931 122.531 97.3614 121.283 106.814 111.858C116.378 102.322 117.546 87.6293 110.401 76.818Z" fill="#1A5C4B"/>
</svg>
