<svg width="140" height="140" viewBox="0 0 140 140" fill="none" xmlns="http://www.w3.org/2000/svg">
<rect width="140" height="140" rx="12" fill="#D0F19E"/>
<circle opacity="0.6" cx="70" cy="70" r="45" fill="white"/>
<rect x="53.6111" y="71.96" width="33.7778" height="14.04" fill="#ECF9D8"/>
<rect x="42" y="38" width="57" height="34" fill="#ECF9D8"/>
<rect x="52" y="32" width="38" height="34" fill="#ECF9D8"/>
<rect x="47.2778" y="40.64" width="11.6111" height="39.96" fill="#ECF9D8"/>
<rect x="82.1111" y="39.5601" width="11.6111" height="39.96" fill="#ECF9D8"/>
<path d="M53 105.5V35L101.5 36.5L102 93V102L53 105.5Z" fill="#1A5C4B"/>
<path d="M39 106V34L87.5 35.5319L88 93.234V102.426L39 106Z" fill="#1A5C4B"/>
<path d="M103.946 93.6199V103.635L50.7054 107.325L37 103.635V34.5814L50.7054 33L103.418 34.5814L103.946 82.5502" stroke="white" stroke-width="4" stroke-linecap="round"/>
<path d="M50.7054 33V107.325" stroke="white" stroke-width="2"/>
<ellipse cx="103.682" cy="88.0852" rx="1.31782" ry="1.31782" fill="white"/>
<path d="M77.1486 51C68.3094 51 61.1528 57.0458 59.5965 64.8807C61.5186 63.8698 63.7002 63.331 65.9749 63.331C69.6794 63.331 73.1181 64.7544 75.6455 67.335C77.1686 68.8913 78.246 70.747 78.8047 72.7622C87.0786 72.5893 94.867 71.1527 95.0133 68.4523C95.2062 58.9547 87.2848 51 77.1486 51ZM74.7409 61.4554C73.7632 61.4554 72.9651 60.664 72.9651 59.6796C72.9651 58.7086 73.7632 57.9104 74.7409 57.9104C75.7186 57.9104 76.5101 58.7086 76.5101 59.6796C76.5101 60.664 75.7186 61.4554 74.7409 61.4554ZM82.6224 67.867C81.8243 67.867 81.1791 67.2218 81.1791 66.4237C81.1791 65.6322 81.8243 64.9804 82.6224 64.9804C83.4205 64.9804 84.0657 65.6322 84.0657 66.4237C84.0657 67.2219 83.4205 67.867 82.6224 67.867ZM84.0657 59.6862C83.088 59.6862 82.2899 58.8881 82.2899 57.9104C82.2899 56.9393 83.088 56.1412 84.0657 56.1412C85.0434 56.1412 85.8349 56.9393 85.8349 57.9104C85.8349 58.8881 85.0434 59.6862 84.0657 59.6862Z" fill="white"/>
<path d="M84.0657 85.5123C84.0657 89.9286 70.2381 89.9286 70.2381 85.5123C70.9165 83.7631 71.442 82.0271 71.8277 80.2779C75.6255 79.819 79.1439 78.7615 79.2702 76.3804C79.2836 75.6022 79.2303 74.8374 79.0973 74.0858C79.8755 74.0658 80.7667 74.0392 81.7112 73.9794C81.791 77.8237 82.5692 81.6679 84.0657 85.5123Z" fill="white"/>
<path d="M70.6039 87.7802C70.6039 90.7399 61.339 90.7399 61.339 87.7802C62.2702 85.3592 62.7956 82.9316 62.8954 80.5106C63.9662 80.5638 65.0037 80.5838 65.9216 80.5838C66.866 80.5838 67.9369 80.5638 69.0476 80.5039C69.1473 82.9317 69.6661 85.3593 70.6039 87.7802Z" fill="white"/>
<path d="M65.9716 64.6608C59.1791 64.6608 53.8742 69.9879 54.0023 76.3525C54.1142 80.2289 77.7392 80.2163 77.9411 76.3525C78.0691 69.9879 72.7642 64.6608 65.9716 64.6608ZM63.2102 75.933C62.3492 75.933 61.6494 75.2503 61.6494 74.4104C61.6494 73.5754 62.3492 72.8926 63.2102 72.8926C64.071 72.8926 64.7659 73.5754 64.7659 74.4104C64.7659 75.2503 64.071 75.933 63.2102 75.933ZM69.2711 72.6498C68.2916 72.6498 67.4955 71.8538 67.4955 70.8743C67.4955 69.9007 68.2916 69.1045 69.2711 69.1045C70.2504 69.1045 71.0409 69.9007 71.0409 70.8743C71.0409 71.8538 70.2504 72.6498 69.2711 72.6498Z" fill="white"/>
</svg>
