<svg width="140" height="140" viewBox="0 0 140 140" fill="none" xmlns="http://www.w3.org/2000/svg">
<rect width="140" height="140" rx="12" fill="#D0F19E"/>
<circle opacity="0.6" cx="71" cy="71" r="52" fill="#ECF9D8"/>
<path d="M91.1165 29.3816C91.7855 27.7759 93.3434 26.6431 95.1803 26.6431C96.0366 26.6431 96.686 26.8735 98.3992 27.4443L98.7341 26.716C99.8274 24.3653 98.8102 21.4852 96.3746 20.4241C93.9833 19.3339 91.1558 20.4255 90.1116 22.7835L84.5621 35.0182C78.7068 33.3725 73.405 32.95 68.4236 33.6929C58.1523 35.2265 51.3275 42.4453 48.3381 51.7683C46.0471 58.8878 43.7994 70.6179 39.1765 81.8168C35.9254 89.5049 34.6919 89.5773 33.2485 91.7942L33.1464 91.9542C29.092 98.1015 30.2911 107.742 40.9971 111.399C51.8646 115.078 69.2297 114.041 84.6931 102.645C90.5049 98.3486 94.7724 94.2557 98.0205 89.8423C96.4037 83.4191 92.8497 75.2916 89.5433 68.0964C80.3132 47.9135 89.3786 33.4826 91.1165 29.3816ZM73.3323 44.981C68.4297 44.981 65.546 46.3899 63.5007 48.4182C61.7383 50.1664 60.4418 52.3512 59.5244 55.0893C59.2565 55.892 58.3672 56.2577 57.6746 56.0071C56.9171 55.7592 56.5093 54.9293 56.7568 54.1718C57.8202 50.9821 59.3494 48.4332 61.4469 46.3501C64.0532 43.7777 67.6357 42.068 73.3323 42.068C74.1333 42.068 74.7888 42.7233 74.7888 43.5245C74.7888 44.3257 74.1333 44.981 73.3323 44.981Z" fill="#1A5C4B"/>
<path d="M119.927 58.4105C119.169 44.0055 111.217 34.3923 96.331 29.8335C98.3409 33.4311 103.177 42.6944 105.74 52.7881C107.444 53.3855 111.639 55.1479 113.285 58.3376C113.664 59.0513 113.387 59.9253 112.673 60.3041C111.847 60.6885 111.048 60.3214 110.707 59.6775C109.935 58.1922 108.114 57.0269 106.512 56.2549C107.153 59.5904 107.503 62.9696 107.357 66.1885C107.328 66.9751 106.672 67.5867 105.9 67.5867H105.842C105.027 67.543 104.415 66.873 104.444 66.0573C104.677 60.974 103.57 55.41 101.968 50.21C101.21 52.089 100.569 54.3321 100.817 56.0362C100.943 56.9053 100.298 57.7114 99.375 57.7114C98.6759 57.7114 98.0497 57.1869 97.933 56.4735C97.3797 52.7156 99.7101 47.8944 100.613 46.1903C98.0642 39.1989 94.9472 33.3436 93.6072 30.9401C93.5412 31.0861 90.2816 38.3539 90.1843 38.4998C87.2592 47.2395 87.7086 57.0859 92.1944 66.873C95.7628 74.6361 99.6226 83.492 101.152 90.3668C101.9 93.6708 106.134 94.7925 108.406 92.1145C117.001 81.8579 120.57 70.2214 119.927 58.4105Z" fill="#1A5C4B"/>
</svg>
