<svg width="140" height="140" viewBox="0 0 140 140" fill="none" xmlns="http://www.w3.org/2000/svg">
<rect width="140" height="140" rx="12" fill="#D0F19E"/>
<g clip-path="url(#clip0_463_3833)">
<circle opacity="0.6" cx="73" cy="80" r="45" fill="white"/>
<path d="M121.917 68.9739L108.469 64.2672C103.103 62.3879 97.2034 62.7645 92.1197 65.3102C87.0352 67.8559 83.1984 72.3519 81.486 77.7741L77.967 88.9179L74.5024 91.5159V68.2442C74.4991 65.1422 76.0513 62.2442 78.6333 60.5276L78.6158 60.5016C78.7088 60.4521 78.7968 60.3921 78.878 60.3251C85.3722 53.83 88.765 44.8577 88.1945 35.6903L87.4357 23.5153C87.3878 22.7491 86.8083 22.1225 86.0483 22.0142C85.2907 21.9139 84.5643 22.3534 84.3009 23.0717L79.0728 37.706C77.1181 43.1732 76.1186 48.935 76.1194 54.7414V58.3841C73.0634 60.7415 71.2719 64.3845 71.2694 68.2455V71.4486L69.626 69.8034C69.3492 57.783 61.5557 47.2281 50.1457 43.4309L39.4495 39.8751C38.8964 39.6896 38.2873 39.8174 37.8543 40.2066C37.4217 40.5982 37.2318 41.1911 37.3593 41.7605L39.1378 49.7815C41.9857 62.8696 53.6002 72.1831 66.9944 72.1162H67.3678L71.2694 76.0189V111.534L68.0365 109.917V106.591C68.0365 98.4591 64.1267 90.8212 57.5294 86.067C50.9309 81.312 42.4503 80.0179 34.7354 82.5903L27.1111 85.132C26.448 85.3503 26 85.9696 26 86.668C26 87.366 26.448 87.9853 27.1111 88.204L28.8434 88.7815C37.1401 91.5403 44.8838 95.7511 51.7092 101.217L65.4086 112.177C65.5024 112.242 65.6018 112.296 65.7069 112.339L65.6971 112.361L71.2694 115.15V119H74.5024V95.5579L80.3226 91.1921L80.3051 91.1698C80.3713 91.1316 80.4346 91.0882 80.495 91.0423C90.7335 80.8384 104.065 74.3177 118.404 72.5005L121.585 72.1036C122.329 72.009 122.911 71.4153 122.991 70.6702C123.07 69.9239 122.626 69.2215 121.917 68.9739Z" fill="#1A5C4B"/>
<path d="M65.1404 107.088C64.0059 103.968 61.907 99.9404 55.7807 95.1754C49.6544 90.4105 45.2866 90.0702 41.3158 89.2193" stroke="#ECF9D8"/>
<path d="M65.1404 68.7982C64.8567 69.3655 64.6298 69.3088 55.7807 61.1404C46.9316 52.9719 45.8538 52.0643 45.5702 50.9298" stroke="#ECF9D8"/>
<path d="M78.7544 56.886C79.8889 53.4824 82.3281 45.9947 83.0088 43.2719C83.6895 40.5491 83.8597 37.5994 83.8597 36.4649" stroke="#ECF9D8"/>
<path d="M81.307 86.6667C82.4415 82.4123 85.221 74.9245 90.6667 72.2017C96.1123 69.4789 104.281 69.9327 107.684 70.5" stroke="#ECF9D8"/>
</g>
<defs>
<clipPath id="clip0_463_3833">
<rect width="108" height="108" fill="white" transform="translate(20 16)"/>
</clipPath>
</defs>
</svg>
