<svg width="36" height="36" viewBox="0 0 36 36" fill="none" xmlns="http://www.w3.org/2000/svg">
<rect width="36" height="36" rx="18" fill="#006633"/>
<path d="M9.51447 25.4704C9.94558 25.4704 10.2951 25.1209 10.2951 24.6898C10.2951 24.2587 9.94558 23.9092 9.51447 23.9092C9.08337 23.9092 8.73388 24.2587 8.73388 24.6898C8.73388 25.1209 9.08337 25.4704 9.51447 25.4704Z" fill="white"/>
<path d="M20.0536 25.4704C20.4847 25.4704 20.8341 25.1209 20.8341 24.6898C20.8341 24.2587 20.4847 23.9092 20.0536 23.9092C19.6224 23.9092 19.273 24.2587 19.273 24.6898C19.273 25.1209 19.6224 25.4704 20.0536 25.4704Z" fill="white"/>
<path d="M30.9814 25.0808C30.9814 24.6667 30.8169 24.2696 30.5241 23.9768C30.2313 23.6841 29.8342 23.5196 29.4202 23.5196H29.3421C29.2671 23.2898 29.1206 23.0901 28.924 22.9497C28.7273 22.8092 28.4909 22.7354 28.2493 22.739H28.1712C28.0963 22.5093 27.9497 22.3096 27.7531 22.1691C27.5565 22.0286 27.32 21.9548 27.0784 21.9584C26.7322 21.9626 26.3966 22.079 26.1222 22.2901C25.8477 22.5012 25.6491 22.7957 25.5563 23.1293H24.7366C24.6839 23.123 24.6304 23.1288 24.5802 23.1462C24.5299 23.1636 24.4843 23.1921 24.4468 23.2297C24.4092 23.2673 24.3806 23.3129 24.3632 23.3631C24.3458 23.4133 24.3401 23.4668 24.3463 23.5196H22.9413C22.8231 23.2384 22.6654 22.9755 22.4729 22.739L21.224 16.4552V15.3234C21.2303 15.2706 21.2245 15.2171 21.2071 15.1669C21.1897 15.1167 21.1611 15.0711 21.1235 15.0335C21.086 14.9959 21.0404 14.9674 20.9902 14.95C20.9399 14.9326 20.8864 14.9268 20.8337 14.9331H20.4434V13.7622C20.4497 13.7094 20.4439 13.6559 20.4265 13.6057C20.4091 13.5555 20.3805 13.5099 20.343 13.4723C20.3054 13.4347 20.2598 13.4062 20.2096 13.3888C20.1594 13.3714 20.1059 13.3656 20.0531 13.3719H18.8822C18.8294 13.3656 18.7759 13.3714 18.7257 13.3888C18.6755 13.4062 18.6299 13.4347 18.5923 13.4723C18.5548 13.5099 18.5262 13.5555 18.5088 13.6057C18.4914 13.6559 18.4856 13.7094 18.4919 13.7622V14.9331H18.1016C18.0488 14.9268 17.9953 14.9326 17.9451 14.95C17.8949 14.9674 17.8493 14.9959 17.8117 15.0335C17.7742 15.0711 17.7456 15.1167 17.7282 15.1669C17.7108 15.2171 17.705 15.2706 17.7113 15.3234V16.104H16.033L14.5499 12.0839C14.5262 12.008 14.4798 11.9412 14.417 11.8924C14.3543 11.8435 14.2781 11.815 14.1987 11.8107H7.56364C7.51087 11.8044 7.45737 11.8102 7.40716 11.8276C7.35695 11.845 7.31134 11.8736 7.27377 11.9111C7.2362 11.9487 7.20764 11.9943 7.19024 12.0445C7.17285 12.0947 7.16707 12.1482 7.17334 12.201V16.4943H6.39275C6.33999 16.488 6.28649 16.4938 6.23628 16.5112C6.18607 16.5286 6.14046 16.5571 6.10288 16.5947C6.06531 16.6323 6.03675 16.6779 6.01935 16.7281C6.00196 16.7783 5.99618 16.8318 6.00246 16.8846V20.7875C5.99618 20.8403 6.00196 20.8938 6.01935 20.944C6.03675 20.9942 6.06531 21.0398 6.10288 21.0774C6.14046 21.115 6.18607 21.1435 6.23628 21.1609C6.28649 21.1783 6.33999 21.1841 6.39275 21.1778H7.17334V22.2706C6.80815 22.5594 6.51309 22.9271 6.3103 23.3462C6.10751 23.7653 6.00227 24.2249 6.00246 24.6905C6.00642 25.3796 6.23826 26.0481 6.66185 26.5917C7.08543 27.1353 7.67696 27.5235 8.34423 27.6957V27.8128C8.33795 27.8656 8.34373 27.9191 8.36113 27.9693C8.37852 28.0195 8.40708 28.0651 8.44466 28.1027C8.48223 28.1403 8.52784 28.1688 8.57805 28.1862C8.62826 28.2036 8.68176 28.2094 8.73453 28.2031C8.78729 28.2094 8.84079 28.2036 8.891 28.1862C8.94121 28.1688 8.98682 28.1403 9.0244 28.1027C9.06197 28.0651 9.09053 28.0195 9.10793 27.9693C9.12532 27.9191 9.1311 27.8656 9.12482 27.8128H10.686C10.686 27.9163 10.7271 28.0156 10.8003 28.0888C10.8735 28.162 10.9728 28.2031 11.0763 28.2031C11.1798 28.2031 11.2791 28.162 11.3523 28.0888C11.4255 28.0156 11.4666 27.9163 11.4666 27.8128H13.0278C13.0278 27.9163 13.0689 28.0156 13.1421 28.0888C13.2153 28.162 13.3146 28.2031 13.4181 28.2031C13.5216 28.2031 13.6209 28.162 13.6941 28.0888C13.7672 28.0156 13.8084 27.9163 13.8084 27.8128H15.3695C15.3695 27.9163 15.4107 28.0156 15.4839 28.0888C15.5571 28.162 15.6563 28.2031 15.7598 28.2031C15.8634 28.2031 15.9626 28.162 16.0358 28.0888C16.109 28.0156 16.1501 27.9163 16.1501 27.8128H17.7113C17.7113 27.9163 17.7524 28.0156 17.8256 28.0888C17.8988 28.162 17.9981 28.2031 18.1016 28.2031C18.2051 28.2031 18.3044 28.162 18.3776 28.0888C18.4508 28.0156 18.4919 27.9163 18.4919 27.8128H20.0531C20.0531 27.9163 20.0942 28.0156 20.1674 28.0888C20.2406 28.162 20.3399 28.2031 20.4434 28.2031C20.5469 28.2031 20.6462 28.162 20.7194 28.0888C20.7926 28.0156 20.8337 27.9163 20.8337 27.8128V27.6957C21.3059 27.5805 21.7437 27.3538 22.1104 27.0346C22.477 26.7155 22.7619 26.3132 22.9413 25.8613H24.3463C24.3401 25.9141 24.3458 25.9676 24.3632 26.0178C24.3806 26.068 24.4092 26.1136 24.4468 26.1512C24.4843 26.1888 24.5299 26.2174 24.5802 26.2347C24.6304 26.2521 24.6839 26.2579 24.7366 26.2516H25.5172V27.0322C25.5109 27.085 25.5167 27.1385 25.5341 27.1887C25.5515 27.2389 25.5801 27.2845 25.6176 27.3221C25.6552 27.3597 25.7008 27.3882 25.751 27.4056C25.8013 27.423 25.8548 27.4288 25.9075 27.4225H27.1565C27.9178 27.4152 28.6647 27.2143 29.327 26.8388C29.9893 26.4632 30.5451 25.9254 30.9423 25.2759C30.9705 25.253 30.9898 25.221 30.997 25.1854C31.0041 25.1497 30.9986 25.1127 30.9814 25.0808ZM27.0784 22.739C27.1312 22.7327 27.1847 22.7385 27.2349 22.7559C27.2851 22.7733 27.3307 22.8018 27.3683 22.8394C27.4058 22.877 27.4344 22.9226 27.4518 22.9728C27.4692 23.023 27.475 23.0765 27.4687 23.1293C27.4624 23.182 27.4682 23.2355 27.4856 23.2858C27.503 23.336 27.5315 23.3816 27.5691 23.4192C27.6067 23.4567 27.6523 23.4853 27.7025 23.5027C27.7527 23.5201 27.8062 23.5259 27.859 23.5196H28.2493C28.3021 23.5133 28.3556 23.5191 28.4058 23.5365C28.456 23.5539 28.5016 23.5824 28.5392 23.62C28.5767 23.6576 28.6053 23.7032 28.6227 23.7534C28.6401 23.8036 28.6459 23.8571 28.6396 23.9099C28.6333 23.9626 28.6391 24.0161 28.6565 24.0663C28.6739 24.1166 28.7024 24.1622 28.74 24.1997C28.7776 24.2373 28.8232 24.2659 28.8734 24.2833C28.9236 24.3007 28.9771 24.3064 29.0299 24.3002H29.4202C29.5559 24.2983 29.6895 24.3337 29.8065 24.4025C29.9235 24.4713 30.0194 24.5709 30.0837 24.6905H26.2978V23.5196C26.2978 23.3126 26.3801 23.114 26.5264 22.9676C26.6728 22.8212 26.8714 22.739 27.0784 22.739ZM7.95394 18.4457H15.3695V19.2263H7.95394V18.4457ZM16.1501 18.0554H20.7556L21.0679 19.6166H16.1501V18.0554ZM19.2725 14.1525H19.6628V14.9331H19.2725V14.1525ZM18.4919 15.7137H20.4434V16.104H18.4919V15.7137ZM7.95394 12.5913H13.9255L15.4086 16.6113C15.4323 16.6873 15.4787 16.7541 15.5415 16.8029C15.6042 16.8517 15.6804 16.8802 15.7598 16.8846H20.5214L20.5995 17.2749H15.7598C15.7071 17.2686 15.6536 17.2744 15.6034 17.2917C15.5532 17.3091 15.5075 17.3377 15.47 17.3753C15.4324 17.4128 15.4038 17.4585 15.3864 17.5087C15.369 17.5589 15.3633 17.6124 15.3695 17.6651H7.95394V12.5913ZM6.78305 20.3972V17.2749H7.17334V20.3972H6.78305ZM7.95394 20.7875V20.0069H15.3695C15.3633 20.0597 15.369 20.1132 15.3864 20.1634C15.4038 20.2136 15.4324 20.2592 15.47 20.2968C15.5075 20.3344 15.5532 20.3629 15.6034 20.3803C15.6536 20.3977 15.7071 20.4035 15.7598 20.3972H21.224L21.5362 21.9194C21.3082 21.8239 21.0734 21.7456 20.8337 21.6852V21.5681C20.8337 21.4646 20.7926 21.3653 20.7194 21.2921C20.6462 21.2189 20.5469 21.1778 20.4434 21.1778C20.3399 21.1778 20.2406 21.2189 20.1674 21.2921C20.0942 21.3653 20.0531 21.4646 20.0531 21.5681H18.4919C18.4919 21.4646 18.4508 21.3653 18.3776 21.2921C18.3044 21.2189 18.2051 21.1778 18.1016 21.1778C17.9981 21.1778 17.8988 21.2189 17.8256 21.2921C17.7524 21.3653 17.7113 21.4646 17.7113 21.5681H16.1501C16.1501 21.4646 16.109 21.3653 16.0358 21.2921C15.9626 21.2189 15.8634 21.1778 15.7598 21.1778C15.6563 21.1778 15.5571 21.2189 15.4839 21.2921C15.4107 21.3653 15.3695 21.4646 15.3695 21.5681H13.8084C13.8084 21.4646 13.7672 21.3653 13.6941 21.2921C13.6209 21.2189 13.5216 21.1778 13.4181 21.1778C13.3146 21.1778 13.2153 21.2189 13.1421 21.2921C13.0689 21.3653 13.0278 21.4646 13.0278 21.5681H11.4666C11.4666 21.4646 11.4255 21.3653 11.3523 21.2921C11.2791 21.2189 11.1798 21.1778 11.0763 21.1778C10.9728 21.1778 10.8735 21.2189 10.8003 21.2921C10.7271 21.3653 10.686 21.4646 10.686 21.5681H9.12482C9.1311 21.5153 9.12532 21.4618 9.10793 21.4116C9.09053 21.3614 9.06197 21.3158 9.0244 21.2782C8.98682 21.2407 8.94121 21.2121 8.891 21.1947C8.84079 21.1773 8.78729 21.1715 8.73453 21.1778C8.68176 21.1715 8.62826 21.1773 8.57805 21.1947C8.52784 21.2121 8.48223 21.2407 8.44466 21.2782C8.40708 21.3158 8.37852 21.3614 8.36113 21.4116C8.34373 21.4618 8.33795 21.5153 8.34423 21.5681V21.6852L7.95394 21.8023V20.7875ZM20.0531 27.0322H9.12482C8.50374 27.0322 7.90811 26.7855 7.46894 26.3463C7.02977 25.9072 6.78305 25.3115 6.78305 24.6905C6.78305 24.0694 7.02977 23.4737 7.46894 23.0346C7.90811 22.5954 8.50374 22.3487 9.12482 22.3487H20.0531C20.4636 22.3523 20.8663 22.462 21.2219 22.6672C21.5775 22.8723 21.874 23.166 22.0826 23.5196H21.6143C21.4325 23.2772 21.1968 23.0805 20.9258 22.945C20.6548 22.8095 20.356 22.739 20.0531 22.739C19.7501 22.739 19.4513 22.8095 19.1804 22.945C18.9094 23.0805 18.6737 23.2772 18.4919 23.5196H14.4328C14.1538 23.27 13.7925 23.132 13.4181 23.132C13.0437 23.132 12.6824 23.27 12.4033 23.5196H11.0763C10.8925 23.2794 10.6563 23.0843 10.3858 22.949C10.1153 22.8138 9.81754 22.7419 9.51512 22.739C8.99755 22.739 8.50119 22.9446 8.13521 23.3106C7.76924 23.6765 7.56364 24.1729 7.56364 24.6905C7.56364 25.208 7.76924 25.7044 8.13521 26.0704C8.50119 26.4363 8.99755 26.6419 9.51512 26.6419C9.81754 26.639 10.1153 26.5671 10.3858 26.4319C10.6563 26.2966 10.8925 26.1015 11.0763 25.8613H12.4033C12.6824 26.111 13.0437 26.249 13.4181 26.249C13.7925 26.249 14.1538 26.111 14.4328 25.8613H18.4919C18.6737 26.1037 18.9094 26.3004 19.1804 26.4359C19.4513 26.5714 19.7501 26.6419 20.0531 26.6419C20.356 26.6419 20.6548 26.5714 20.9258 26.4359C21.1968 26.3004 21.4325 26.1037 21.6143 25.8613H22.0826C21.874 26.2149 21.5775 26.5086 21.2219 26.7137C20.8663 26.9189 20.4636 27.0286 20.0531 27.0322ZM22.3949 24.6905C22.4013 24.8218 22.3881 24.9533 22.3558 25.0808H21.9655C22.0181 24.8232 22.0181 24.5577 21.9655 24.3002H22.3558C22.3881 24.4276 22.4013 24.5591 22.3949 24.6905ZM10.686 24.6905C10.6915 24.8457 10.6649 25.0004 10.608 25.1449C10.5511 25.2894 10.465 25.4207 10.3552 25.5305C10.2454 25.6404 10.1141 25.7264 9.96957 25.7833C9.82504 25.8402 9.67035 25.8668 9.51512 25.8613C9.20458 25.8613 8.90676 25.738 8.68718 25.5184C8.46759 25.2988 8.34423 25.001 8.34423 24.6905C8.34423 24.3799 8.46759 24.0821 8.68718 23.8625C8.90676 23.6429 9.20458 23.5196 9.51512 23.5196C9.67035 23.5141 9.82504 23.5407 9.96957 23.5976C10.1141 23.6545 10.2454 23.7406 10.3552 23.8504C10.465 23.9602 10.5511 24.0915 10.608 24.236C10.6649 24.3805 10.6915 24.5352 10.686 24.6905ZM11.4276 24.3002H11.8959C11.8959 24.4173 11.8569 24.5734 11.8569 24.6905C11.8569 24.8075 11.8959 24.9637 11.8959 25.0808H11.4276C11.4791 24.8231 11.4791 24.5578 11.4276 24.3002ZM12.6375 24.6905C12.6375 24.5361 12.6833 24.3852 12.769 24.2568C12.8548 24.1284 12.9767 24.0284 13.1193 23.9693C13.262 23.9102 13.4189 23.8948 13.5704 23.9249C13.7218 23.955 13.8609 24.0293 13.97 24.1385C14.0792 24.2477 14.1535 24.3868 14.1837 24.5382C14.2138 24.6896 14.1983 24.8465 14.1392 24.9892C14.0802 25.1318 13.9801 25.2537 13.8517 25.3395C13.7234 25.4253 13.5725 25.4711 13.4181 25.4711C13.211 25.4711 13.0125 25.3888 12.8661 25.2424C12.7197 25.096 12.6375 24.8975 12.6375 24.6905ZM14.9402 24.3002H18.1406C18.0881 24.5577 18.0881 24.8232 18.1406 25.0808H14.9402C14.9402 24.9637 14.9793 24.8075 14.9793 24.6905C14.9793 24.5734 14.9402 24.4173 14.9402 24.3002ZM18.8822 24.6905C18.8822 24.4589 18.9509 24.2325 19.0795 24.04C19.2082 23.8474 19.3911 23.6973 19.605 23.6087C19.819 23.5201 20.0544 23.4969 20.2815 23.5421C20.5086 23.5873 20.7173 23.6988 20.881 23.8625C21.0448 24.0263 21.1563 24.2349 21.2015 24.462C21.2467 24.6892 21.2235 24.9246 21.1348 25.1385C21.0462 25.3525 20.8961 25.5354 20.7036 25.664C20.511 25.7927 20.2847 25.8613 20.0531 25.8613C19.8979 25.8668 19.7432 25.8402 19.5986 25.7833C19.4541 25.7264 19.3229 25.6404 19.213 25.5305C19.1032 25.4207 19.0171 25.2894 18.9602 25.1449C18.9033 25.0004 18.8768 24.8457 18.8822 24.6905ZM23.1364 25.0808C23.189 24.8232 23.189 24.5577 23.1364 24.3002H24.3463V25.0808H23.1364ZM25.1269 25.4711V23.9099H25.5172V25.4711H25.1269ZM27.1565 26.6419H26.2978V25.4711H29.8105C29.4739 25.8401 29.064 26.1348 28.607 26.3364C28.15 26.538 27.656 26.6421 27.1565 26.6419Z" fill="white"/>
<path d="M15.4875 11.4592C15.7945 11.6867 16.1616 11.8191 16.5432 11.84C16.9248 11.8608 17.3041 11.7691 17.6341 11.5763L17.7512 11.6933L17.9854 11.8495C18.0052 12.1463 18.1372 12.4244 18.3547 12.6274C18.5722 12.8304 18.8588 12.9429 19.1562 12.9423H19.3514C19.6427 12.8944 19.9064 12.7417 20.0929 12.513C20.2397 12.3097 20.3219 12.067 20.3289 11.8164C20.3358 11.5659 20.2672 11.319 20.132 11.1079C20.2492 10.8379 20.2898 10.5408 20.2491 10.2493C20.1756 9.84464 19.9527 9.48243 19.6246 9.23448C19.4428 9.09788 19.2333 9.00265 19.0108 8.95546C18.7883 8.90827 18.5582 8.91025 18.3366 8.96128C18.2111 8.73223 18.0381 8.53263 17.8292 8.37583C17.6241 8.22388 17.3907 8.11451 17.1427 8.05418C16.8947 7.99386 16.6371 7.98379 16.3851 8.02457C15.8762 8.0962 15.4146 8.36192 15.0972 8.76613C14.7981 9.18513 14.6596 9.69763 14.7069 10.2102C14.7459 10.4603 14.8351 10.7 14.9693 10.9146C15.1034 11.1293 15.2797 11.3145 15.4875 11.4592ZM15.7216 9.19545C15.9245 8.95926 16.1983 8.79498 16.5022 8.7271C16.7744 8.68875 17.0513 8.75078 17.2811 8.9016C17.5109 9.05242 17.678 9.28173 17.7512 9.54672C17.7981 9.65069 17.8814 9.73396 17.9854 9.7809C18.0428 9.80248 18.1046 9.8102 18.1657 9.80342C18.2267 9.79664 18.2853 9.77555 18.3366 9.74187C18.4669 9.67721 18.6127 9.65026 18.7576 9.66405C18.9024 9.67784 19.0405 9.73183 19.1562 9.81993C19.3175 9.94637 19.4283 10.1263 19.4685 10.3273C19.4828 10.4304 19.4763 10.5353 19.4495 10.6358C19.4227 10.7363 19.3761 10.8305 19.3124 10.9128C19.2591 10.9985 19.2377 11.1002 19.2519 11.2002C19.2662 11.3001 19.3152 11.3918 19.3904 11.4592C19.433 11.4833 19.4692 11.517 19.4964 11.5577C19.5235 11.5983 19.5407 11.6448 19.5465 11.6933C19.562 11.8036 19.534 11.9156 19.4685 12.0056C19.4294 12.0836 19.3124 12.1227 19.2343 12.1617L18.9221 12.0836C18.8615 12.0314 18.8154 11.9645 18.7881 11.8893C18.7608 11.8141 18.7531 11.7333 18.7659 11.6543C18.7839 11.6057 18.7909 11.5537 18.7863 11.5021C18.7818 11.4504 18.7659 11.4005 18.7398 11.3557C18.7137 11.3109 18.678 11.2725 18.6353 11.2431C18.5926 11.2138 18.5439 11.1943 18.4927 11.186C18.3906 11.1807 18.2937 11.1392 18.2195 11.0689L18.0244 10.8737C18.0022 10.8186 17.9646 10.7709 17.9162 10.7363C17.8678 10.7017 17.8106 10.6817 17.7512 10.6786H17.7121L17.4389 10.7566C17.2427 10.9463 16.9845 11.0586 16.712 11.0729C16.4394 11.0873 16.1709 11.0027 15.9558 10.8347C15.7177 10.6499 15.552 10.3875 15.4875 10.0931C15.4474 9.77494 15.5312 9.45351 15.7216 9.19545Z" fill="white"/>
<path d="M9.12521 16.8846H10.6864C10.7392 16.8909 10.7927 16.8851 10.8429 16.8677C10.8931 16.8503 10.9387 16.8217 10.9763 16.7842C11.0138 16.7466 11.0424 16.701 11.0598 16.6508C11.0772 16.6006 11.083 16.5471 11.0767 16.4943V13.3719C11.083 13.3192 11.0772 13.2657 11.0598 13.2155C11.0424 13.1653 11.0138 13.1196 10.9763 13.0821C10.9387 13.0445 10.8931 13.0159 10.8429 12.9985C10.7927 12.9811 10.7392 12.9754 10.6864 12.9816H9.12521C9.07244 12.9754 9.01894 12.9811 8.96873 12.9985C8.91852 13.0159 8.87291 13.0445 8.83534 13.0821C8.79777 13.1196 8.76921 13.1653 8.75181 13.2155C8.73442 13.2657 8.72864 13.3192 8.73491 13.3719V16.4943C8.72864 16.5471 8.73442 16.6006 8.75181 16.6508C8.76921 16.701 8.79777 16.7466 8.83534 16.7842C8.87291 16.8217 8.91852 16.8503 8.96873 16.8677C9.01894 16.8851 9.07244 16.8909 9.12521 16.8846ZM9.51551 13.7622H10.2961V16.104H9.51551V13.7622Z" fill="white"/>
<path d="M11.8561 16.8846H14.5882C14.7085 16.8747 14.8203 16.8188 14.9004 16.7285C14.945 16.6747 14.9725 16.6088 14.9795 16.5393C14.9864 16.4698 14.9725 16.3997 14.9394 16.3382L13.7686 13.2158C13.7386 13.1472 13.6896 13.0887 13.6273 13.0471C13.565 13.0056 13.4921 12.9829 13.4173 12.9816H11.8561C11.8033 12.9754 11.7498 12.9811 11.6996 12.9985C11.6494 13.0159 11.6038 13.0445 11.5662 13.0821C11.5287 13.1196 11.5001 13.1653 11.4827 13.2155C11.4653 13.2657 11.4595 13.3192 11.4658 13.3719V16.4943C11.4595 16.5471 11.4653 16.6006 11.4827 16.6508C11.5001 16.701 11.5287 16.7466 11.5662 16.7842C11.6038 16.8217 11.6494 16.8503 11.6996 16.8677C11.7498 16.8851 11.8033 16.8909 11.8561 16.8846ZM12.2464 13.7622H13.1441L14.0418 16.104H12.2464V13.7622Z" fill="white"/>
</svg>
