<svg width="140" height="140" viewBox="0 0 140 140" fill="none" xmlns="http://www.w3.org/2000/svg">
<rect width="140" height="140" rx="12" fill="#D0F19E"/>
<circle opacity="0.6" cx="70" cy="70" r="45" fill="white"/>
<g clip-path="url(#clip0_19_47144)">
<path d="M97.366 108.146C96.4532 104.689 95.752 101.377 95.2229 98.3179L94.7863 95.5762C95.3948 95.6821 96.3341 95.8013 97.4057 95.8013C99.6811 95.8013 101.56 95.2715 102.975 94.2384C106.547 91.6556 106.891 86.1589 106.904 85.9205L106.918 85.6954L106.706 85.6424C106.64 85.6291 105.132 85.2185 103.16 85.2185C100.898 85.2185 99.0197 85.7483 97.5909 86.7682C95.8182 88.053 94.8392 90.053 94.2968 91.8146C93.3708 83.5232 93.675 77.7881 93.7544 76.5298L93.5957 76.5166C94.7731 76.543 95.9373 76.3973 97.075 76.0662C110.807 72.053 108.598 48.4901 108.598 48.4901L99.9325 55.5894C99.324 52.106 97.9746 48.7285 95.3022 46C92.3653 48.4636 90.3016 51.351 89.2564 54.755L81.7819 46.3974C81.7819 46.3974 75.9874 69.3377 88.9125 75.4172C89.9311 75.894 91.0292 76.2119 92.1404 76.3841C91.9023 78.2252 91.6245 81.1788 91.5716 84.9934C90.9763 83.6821 90.1296 82.3973 88.8463 81.4702C87.4176 80.4371 85.5522 79.9205 83.2768 79.9205C81.3056 79.9205 79.7975 80.3179 79.7313 80.3444L79.5197 80.3974L79.5329 80.6225C79.5461 80.8609 79.8901 86.3444 83.462 88.9404C84.8908 89.9735 86.7693 90.5033 89.0316 90.5033C90.0767 90.5033 91.0027 90.3841 91.6113 90.2914L91.6245 90.7285C91.8362 95.7086 92.4315 101.616 93.7809 108.146H54.4501C53.4579 104.344 52.6906 100.728 52.1085 97.3377H52.1218C52.8097 97.457 53.8813 97.5894 55.0984 97.5894C57.6781 97.5894 59.808 96.9934 61.4352 95.8146C65.4966 92.8742 65.8935 86.6225 65.9067 86.3709L65.9199 86.1192L65.6818 86.053C65.6157 86.0397 63.8826 85.5762 61.6469 85.5762C59.0672 85.5762 56.9372 86.1722 55.3233 87.3377C53.2198 88.8609 52.0953 91.2715 51.5 93.351C50.058 83.0331 50.3358 75.6159 50.4549 73.4702H50.4946C52.0689 73.4702 53.5638 72.8079 54.5957 71.6556C55.6275 70.5033 56.1303 68.9536 55.9715 67.4172L54.9132 57.0728L54.728 57.1921C53.4579 57.9868 51.9895 58.3974 50.521 58.3974C49.0394 58.3974 47.5841 57.9735 46.3141 57.1921L46.1289 57.0728L45.0706 67.4172C44.8986 68.9669 45.4013 70.5033 46.4464 71.6556C47.055 72.3444 47.8355 72.8212 48.6822 73.1258C48.4308 75.1523 48.1398 78.3179 48.0736 82.3974C47.3725 80.9934 46.3935 79.6291 45.0176 78.6358C43.2846 77.3775 41.0092 76.7417 38.2442 76.7417C35.8497 76.7417 34.0109 77.2318 33.9315 77.245L33.6669 77.3113L33.6801 77.5762C33.6934 77.8543 34.1167 84.543 38.4691 87.6954C40.2022 88.9536 42.4908 89.5894 45.2558 89.5894C46.4199 89.5894 47.4386 89.4702 48.1662 89.3642C48.4176 94.7682 49.079 101.113 50.521 108.132H32V112H110V108.146H97.366ZM87.5499 86.7152L84.8775 86.4503L86.4915 85.947L84.2161 84.3046L82.02 84.5828L83.3959 83.7086L82.3904 82.4768L85.076 83.9205L85.2744 81.894L85.9624 84.543L87.9997 86.0397L88.8596 86.6358L89.0712 84.6358L89.7592 87.298L91.6113 88.6358L91.6377 89.6556L87.5499 86.7152ZM43.3904 85.0066L40.136 84.6887L42.094 84.0662L39.3158 82.0662L36.6435 82.3974L38.3104 81.3377L37.0801 79.8411L40.3477 81.5894L40.5991 79.1258L41.4325 82.3576L43.9196 84.1854L44.9647 84.9139L45.2161 82.4768L46.0495 85.7219L48.0604 87.1788L48.0868 88.4238L43.3904 85.0066ZM51.844 95.7483L54.3046 93.9735L55.0851 90.9404L55.3233 93.2185L56.3022 92.5298L58.6174 90.8344L59.3979 87.8146L59.6228 90.106L62.6655 88.4636L61.5146 89.8675L63.0756 90.8609L60.5885 90.543L57.9956 92.4106L59.8345 92.9934L56.7917 93.298L52.0027 96.7682L51.844 95.7483ZM94.5879 94.1324L96.7178 92.596L97.4057 89.9338L97.6174 91.9338L98.4773 91.3377L100.515 89.8411L101.203 87.1921L101.401 89.2185L104.086 87.7748L103.081 89.0066L104.457 89.8808L102.261 89.6026L99.9854 91.245L101.599 91.7483L98.9271 92.0132L94.7334 95.0596C94.6672 94.7285 94.6275 94.4371 94.5879 94.1324Z" fill="#1A5C4B"/>
<path d="M50.65 56.9641C54.7281 56.9641 58.0609 53.6453 58.0609 49.5531C58.0609 45.475 54.7422 42.1562 50.65 42.1562C46.5719 42.1562 43.239 45.475 43.239 49.5531C43.239 53.6453 46.5719 56.9641 50.65 56.9641ZM49.8765 53.6172L48.7937 54.6016C48.6812 54.7 48.5547 54.7563 48.4 54.7563C48.2312 54.7563 48.0765 54.6859 47.9781 54.5734C47.8797 54.4609 47.8234 54.3062 47.8375 54.1516C47.8515 53.9969 47.9078 53.8703 48.0344 53.7719L49.1172 52.7734C49.2297 52.675 49.3562 52.6328 49.5109 52.6328C49.6656 52.6328 49.8203 52.7031 49.9187 52.8156C50.1297 53.0406 50.1156 53.3922 49.8765 53.6172ZM53.8844 48.9625L54.9812 47.9641C55.0797 47.8656 55.2203 47.8094 55.3609 47.8094C55.5156 47.8094 55.6703 47.8797 55.7828 47.9922C55.8812 48.1047 55.9375 48.2453 55.9375 48.4C55.9375 48.5547 55.8672 48.6953 55.7547 48.7938L54.6719 49.7922C54.5594 49.8906 54.4328 49.9469 54.2781 49.9469C54.1094 49.9469 53.9547 49.8766 53.8562 49.7641C53.6312 49.525 53.6453 49.1734 53.8844 48.9625ZM53.9969 51.8594C54.2078 52.1125 54.1937 52.4641 53.9547 52.675L52.8578 53.6734C52.7594 53.7719 52.6328 53.8141 52.4781 53.8141C52.3094 53.8141 52.1547 53.7578 52.0562 53.6313C51.9578 53.5188 51.9015 53.3781 51.9015 53.2234C51.9015 53.0687 51.9719 52.9281 52.0844 52.8297L53.1672 51.8313C53.2797 51.7328 53.4203 51.6766 53.5609 51.6766C53.7437 51.6906 53.8984 51.7469 53.9969 51.8594ZM51.2125 45.6578L52.3094 44.6594C52.4078 44.5609 52.5484 44.5047 52.689 44.5047C52.8578 44.5047 53.0125 44.575 53.1109 44.6875C53.3219 44.9406 53.3078 45.2922 53.0687 45.5031L51.9719 46.5016C51.8734 46.6 51.7469 46.6422 51.6062 46.6422C51.4375 46.6422 51.2969 46.5859 51.1844 46.4594C50.9594 46.2484 50.9734 45.8828 51.2125 45.6578ZM50.889 48.4C51.0578 48.4 51.1984 48.4703 51.325 48.5828C51.4234 48.6953 51.4797 48.8219 51.4797 48.9766C51.4797 49.1312 51.4094 49.2859 51.2969 49.3984L50.2 50.3828C50.0875 50.4812 49.9609 50.5375 49.8062 50.5375C49.6375 50.5375 49.4828 50.4672 49.3844 50.3547C49.1734 50.1156 49.1875 49.75 49.4125 49.5391L50.5094 48.5547C50.6078 48.4563 50.7484 48.4 50.889 48.4ZM47.5844 45.1656L48.6672 44.1672C48.7797 44.0688 48.9203 44.0266 49.0609 44.0266C49.2297 44.0266 49.3703 44.0969 49.4828 44.2234C49.6937 44.4484 49.6797 44.8281 49.4547 45.025L48.3719 46.0234C48.2453 46.1219 48.1047 46.1781 47.9781 46.1781C47.8234 46.1781 47.6687 46.1078 47.5562 45.9813C47.4578 45.8688 47.4015 45.7281 47.4015 45.5875C47.4156 45.4188 47.4719 45.2781 47.5844 45.1656ZM45.0812 49.8766C45.0953 49.7219 45.1515 49.5953 45.2781 49.4969L46.3609 48.4984C46.4734 48.4 46.6 48.3578 46.7547 48.3578C46.9094 48.3578 47.064 48.4281 47.1765 48.5406C47.4015 48.7937 47.3875 49.1453 47.1484 49.3562L46.0515 50.3547C45.9531 50.4531 45.8125 50.4953 45.6578 50.4953C45.489 50.4953 45.3484 50.425 45.25 50.3125C45.1234 50.1859 45.0672 50.0313 45.0812 49.8766Z" fill="#1A5C4B"/>
<path d="M56.9219 43.7734L56.964 43.8297L64.9515 42.9859L67.5672 40.8484C68.8469 39.8078 69.6484 38.275 69.7328 36.6437C69.8172 35.0125 69.1984 33.3812 68.0312 32.2C66.9344 31.1031 65.4578 30.4984 63.8969 30.4984C62.125 30.4984 60.4797 31.2859 59.3828 32.6641L57.2172 35.35L56.4578 43.3094C56.6125 43.45 56.7672 43.6047 56.9219 43.7734Z" fill="#1A5C4B"/>
<path d="M32.5234 55.3609L43.5062 54.2359L43.3797 54.0391C42.5359 52.6891 42.1 51.1422 42.1 49.5672C42.1 47.9922 42.55 46.4453 43.3797 45.0953L43.5062 44.8984L32.5234 43.7734C32.3125 43.7453 32.1016 43.7453 31.9047 43.7453C30.4703 43.7453 29.0922 44.2797 28.0234 45.2359C26.8 46.3328 26.0969 47.9078 26.0969 49.5812C26.0969 51.2406 26.8 52.8297 28.0234 53.9266C29.0922 54.8828 30.4703 55.4172 31.9047 55.4172C32.1156 55.3891 32.3125 55.375 32.5234 55.3609Z" fill="#1A5C4B"/>
<path d="M45.9812 42.4094L46.1781 42.2828C47.5141 41.4531 49.0609 41.0172 50.65 41.0172C52.2391 41.0172 53.7859 41.4531 55.1219 42.2828L55.3187 42.4094L56.4437 31.4406C56.6266 29.7953 56.0922 28.15 54.9812 26.9266C53.8844 25.7031 52.3094 25 50.65 25C48.9906 25 47.4156 25.7031 46.3047 26.9266C45.2078 28.15 44.6734 29.7953 44.8422 31.4266L45.9812 42.4094Z" fill="#1A5C4B"/>
<path d="M33.7328 40.8344L36.4187 43L44.3219 43.8156L44.364 43.7594C44.5187 43.5906 44.6734 43.4359 44.8844 43.1547L44.0406 35.2375L41.9172 32.6219C40.8906 31.3562 39.3578 30.5547 37.7125 30.4562H37.4453C35.8703 30.4562 34.3937 31.0609 33.2687 32.1719C32.1719 33.3109 31.5672 34.7875 31.5672 36.3203C31.5672 38.0922 32.3547 39.7375 33.7328 40.8344Z" fill="#1A5C4B"/>
<path d="M33.7328 58.2719C32.4531 59.3266 31.6515 60.8594 31.5672 62.4766C31.4828 64.1219 32.1015 65.7531 33.2687 66.9203C34.3797 68.0312 35.8422 68.6359 37.4031 68.6359C39.175 68.6359 40.8203 67.8484 41.9172 66.4562L44.0687 63.7703L44.8422 55.8109C44.6734 55.6562 44.5187 55.5016 44.2375 55.3047L36.3062 56.1344L33.7328 58.2719Z" fill="#1A5C4B"/>
<path d="M68.7765 43.7594L57.7937 44.8844L57.9203 45.0812C58.764 46.4312 59.2 47.9781 59.2 49.5531C59.2 51.1281 58.75 52.675 57.9203 54.025L57.7937 54.2219L68.7765 55.3469C68.9875 55.375 69.2125 55.3891 69.4234 55.3891C70.8437 55.3891 72.2078 54.8547 73.2765 53.8984C74.5 52.7875 75.2031 51.2125 75.2031 49.5672C75.2031 47.9078 74.5 46.3187 73.2765 45.2078C72.2078 44.2516 70.8297 43.7172 69.3953 43.7172C69.1984 43.7313 68.9875 43.7313 68.7765 43.7594Z" fill="#1A5C4B"/>
<path d="M59.3687 66.4703C60.4094 67.7641 61.9422 68.5516 63.5734 68.6359C63.6719 68.6359 63.7844 68.65 63.8828 68.65C65.4437 68.65 66.9062 68.0453 68.0172 66.9344C69.1281 65.8234 69.7328 64.3609 69.7328 62.8C69.7328 61.0281 68.9453 59.3828 67.5531 58.3L64.8672 56.1344L57.0344 55.3328L56.9078 55.375L56.8656 55.4172C56.725 55.5578 56.5844 55.6984 56.3875 55.9516L57.2172 63.8687L59.3687 66.4703Z" fill="#1A5C4B"/>
<ellipse cx="94" cy="58.5" rx="18" ry="18.5" fill="#ECF9D8"/>
<path d="M97.399 66.2176L103.137 75.2084C103.248 75.381 103.271 75.5948 103.201 75.7875C101.947 79.2818 95.6728 80.9913 93.2003 77.9591C90.3762 80.6809 84.3664 78.1997 83.5436 74.5508C83.4985 74.3513 83.5474 74.1417 83.6776 73.9838L90.436 65.7924C90.638 65.5476 90.9844 65.4853 91.2633 65.6368C91.7178 65.8839 92.2002 66.0729 92.6978 66.2014C93.0057 66.2809 93.2169 66.5631 93.1972 66.8804C92.9183 71.3764 93.26 65.9549 92.9564 71.0748C92.9349 71.4371 93.2109 71.7484 93.573 71.7706C93.9339 71.7921 94.2459 71.5192 94.2688 71.154L94.5212 66.9642C94.5403 66.6464 94.785 66.3924 95.1006 66.3513C95.6069 66.2852 96.1095 66.1567 96.5969 65.9633C96.8919 65.8461 97.2282 65.95 97.399 66.2176Z" fill="#1A5C4B"/>
<path d="M110.925 66.6463C112.614 70.1292 108.516 75.171 104.756 74.8229C104.552 74.8041 104.368 74.6936 104.258 74.5212L98.5067 65.5106C98.336 65.243 98.3834 64.8941 98.6138 64.6757C98.9945 64.3151 99.3226 63.9133 99.5957 63.4819C99.766 63.213 100.099 63.0981 100.396 63.2144L104.302 64.7498C104.643 64.8828 105.022 64.7148 105.154 64.3783C105.287 64.0406 105.121 63.6591 104.783 63.5261C100.027 61.6517 105.031 63.6022 100.877 61.9784C100.581 61.8627 100.414 61.5521 100.472 61.2395C100.565 60.7341 100.596 60.217 100.564 59.7006C100.544 59.3839 100.746 59.096 101.053 59.0158L111.331 56.3348C111.529 56.2833 111.739 56.3269 111.901 56.4513C114.864 58.726 114.583 65.2314 110.925 66.6463Z" fill="#1A5C4B"/>
<path d="M88.0848 58.9525C87.9899 59.4607 87.9571 59.9811 87.9891 60.5011C88.0085 60.8176 87.8061 61.1049 87.4992 61.1846L83.4351 62.2395C83.0838 62.3302 82.8732 62.6888 82.9639 63.0401C83.0553 63.391 83.4143 63.6021 83.7652 63.5109C87.6433 62.5024 84.6315 63.2984 87.8298 62.4645C88.1374 62.3843 88.4548 62.5377 88.5923 62.8244C88.8113 63.2816 89.0882 63.7173 89.4159 64.1147C89.6179 64.3596 89.623 64.7115 89.421 64.9565L82.6228 73.1968C82.4925 73.3547 82.2964 73.4419 82.0919 73.4356C78.3456 73.3204 74.8495 67.8221 76.9426 64.6041C73.5114 62.8049 73.9539 56.2725 77.1751 54.3525C77.3511 54.2476 77.5652 54.2288 77.7558 54.3039L87.6819 58.2131C87.9777 58.3296 88.1431 58.64 88.0848 58.9525Z" fill="#1A5C4B"/>
<path d="M111.055 55.0476L100.722 57.7432C100.415 57.8233 100.098 57.6706 99.9609 57.3841C99.7386 56.9196 99.46 56.485 99.1375 56.0939C98.9352 55.8485 98.9299 55.4961 99.1321 55.2507C101.241 52.6935 99.2408 55.1026 101.793 52.0047C102.023 51.7248 101.983 51.3103 101.703 51.0796C101.423 50.8494 101.009 50.8894 100.779 51.1699L98.1104 54.4119C97.9089 54.6568 97.563 54.7194 97.2842 54.5684C96.8261 54.3205 96.3403 54.1311 95.8394 54.0032C95.5314 53.9244 95.3195 53.6431 95.3384 53.3258L95.9707 42.7087C95.9829 42.5038 96.0906 42.3176 96.2602 42.2021C99.3828 40.0769 105.511 42.4346 105.662 46.2754C109.461 45.7322 112.968 51.2216 111.496 54.6664C111.415 54.8546 111.253 54.9959 111.055 55.0476Z" fill="#1A5C4B"/>
<path d="M94.6601 42.6106L94.0269 53.2441C94.008 53.5618 93.7635 53.8163 93.4479 53.8578C92.9433 53.9243 92.4423 54.0524 91.9564 54.2452C91.6613 54.3622 91.3249 54.2583 91.1541 53.9907L88.9094 50.4738C88.4415 49.7407 87.3338 50.4479 87.8016 51.1808L90.0463 54.6978C90.2171 54.9654 90.1697 55.3142 89.9393 55.5326C89.5599 55.8922 89.2326 56.2926 88.9599 56.7223C88.7893 56.9911 88.4565 57.106 88.1603 56.9894L78.2201 53.0746C78.0298 52.9997 77.8862 52.8403 77.8286 52.6441C76.7662 49.0249 80.8916 44.0313 84.6494 45.0253C85.3138 41.1098 91.6301 39.6161 94.4346 42.0739C94.5883 42.2086 94.6722 42.4066 94.6601 42.6106Z" fill="#1A5C4B"/>
<path d="M99.1422 61.1815C99.736 58.4923 98.0373 55.8309 95.3481 55.2371C92.6589 54.6433 89.9975 56.342 89.4037 59.0312C88.8099 61.7204 90.5085 64.3818 93.1977 64.9756C95.887 65.5694 98.5484 63.8708 99.1422 61.1815Z" fill="#1A5C4B"/>
</g>
<defs>
<clipPath id="clip0_19_47144">
<rect width="90" height="90" fill="white" transform="translate(25 25)"/>
</clipPath>
</defs>
</svg>
