<svg width="36" height="36" viewBox="0 0 36 36" fill="none" xmlns="http://www.w3.org/2000/svg">
<rect width="36" height="36" rx="18" fill="#006633"/>
<path d="M10.7655 14.4171H11.6836L11.9376 14.4135H12.4492C12.4637 14.4135 12.4709 14.4062 12.4709 14.3917V11.1805L12.4673 11.0172H12.9245C12.939 11.0172 12.9463 11.0245 12.9463 11.0353L12.9426 14.399C12.9426 14.4062 12.9463 14.4099 12.9535 14.4099L13.1567 14.4135C13.1604 14.4135 13.164 14.4099 13.164 14.4062L13.1567 10.7741C13.1567 10.7632 13.1458 10.7523 13.135 10.7523L11.9992 10.756C11.9847 10.756 11.9775 10.7487 11.9775 10.7342L11.9702 8.77842C11.9702 8.7639 11.9738 8.74939 11.9811 8.73851C12.1408 8.48451 12.3403 8.29946 12.5471 8.089C12.5544 8.07812 12.5617 8.06723 12.5617 8.05635L12.5653 7.02222C12.5653 6.99683 12.558 6.9932 12.5399 7.01134C12.2133 7.34516 11.8831 7.67535 11.5674 8.02732C11.357 8.26317 11.2481 8.54257 11.2481 8.85825C11.2481 9.48598 11.2518 10.1137 11.2554 10.7414C11.2554 10.7523 11.2445 10.7632 11.2336 10.7632L10.7619 10.7705C10.751 10.7705 10.7438 10.7777 10.7438 10.7886V14.399C10.7474 14.4099 10.7547 14.4171 10.7655 14.4171Z" fill="white"/>
<path d="M16.1757 10.3714H16.9559L24.3471 10.3678L26.5061 10.3823C26.5242 10.3823 26.5315 10.375 26.5351 10.3569C26.5569 9.93959 26.4988 9.584 26.1868 9.29009C25.9727 9.09052 25.7659 9.06149 25.4865 9.06149C22.7687 9.05424 20.051 9.05424 17.3332 9.05786C17.1228 9.05786 16.9667 9.07601 16.8615 9.10866C16.6874 9.16672 16.5422 9.26469 16.4261 9.4062C16.2048 9.67108 16.1177 9.98676 16.1612 10.3569C16.1576 10.3678 16.1648 10.3714 16.1757 10.3714Z" fill="white"/>
<path d="M15.9689 14.3917C16.2047 14.4497 16.4152 14.5513 16.6075 14.6965C16.6111 14.6965 16.6111 14.7001 16.6147 14.7001C16.622 14.7037 16.6329 14.6965 16.6329 14.6892L17.5182 11.3728C17.5182 11.3691 17.5146 11.3691 17.5146 11.3691H16.847C16.8361 11.3691 16.8252 11.3764 16.8216 11.3873C16.5422 12.269 16.2882 13.1616 16.0523 14.0542C16.0269 14.1449 15.9797 14.2611 15.958 14.3735C15.9543 14.3844 15.958 14.3917 15.9689 14.3917Z" fill="white"/>
<path d="M25.0583 14.4207L26.3464 14.4171H26.35C26.3645 14.4135 26.3754 14.4026 26.3718 14.3881L25.9073 11.3909C25.9037 11.3764 25.8928 11.3691 25.8819 11.3691H24.6265H24.6228C24.6083 11.3728 24.5974 11.3837 24.6011 11.3982L25.0292 14.3953C25.0329 14.4098 25.0437 14.4207 25.0583 14.4207Z" fill="white"/>
<path d="M17.5181 18.6225L18.4833 18.6116C18.4942 18.6116 18.5051 18.608 18.5087 18.5935C18.7301 18.1544 18.9333 17.8025 19.1219 17.5448C20.098 16.2168 21.6401 15.1392 23.2476 14.7182M17.5181 18.6225V18.6007V18.1225C17.5879 18.1225 17.7321 18.1403 17.8554 18.2635C17.9786 18.3867 17.9964 18.5309 17.9964 18.6007V18.1171M17.5181 18.6225C17.5036 18.6225 17.4964 18.6153 17.4964 18.6007V16.7575M17.5181 18.6225L17.5179 18.6007L17.5125 18.1225L17.9964 18.1171M17.9964 18.1171L18.1931 18.1149M17.9964 18.1171V16.7663M18.1931 18.1149C18.1498 18.1967 18.1062 18.2812 18.0623 18.3684L18.0372 18.4182L18.0237 18.4722C18.0323 18.4376 18.0454 18.4027 18.063 18.3688C18.1009 18.2961 18.1598 18.2283 18.2415 18.1793C18.3403 18.12 18.4328 18.1122 18.4777 18.1117M18.1931 18.1149L18.4777 18.1117M18.1931 18.1149C18.3729 17.7753 18.5474 17.4832 18.7186 17.2494L18.7191 17.2487C19.678 15.944 21.1433 14.8683 22.7148 14.3542M18.4777 18.1117C18.4797 18.1116 18.4815 18.1116 18.4833 18.1116V18.1116L18.4777 18.1117ZM22.7148 14.3542L22.766 14.7592L22.7722 14.808L22.7877 14.8546C22.7775 14.8238 22.7703 14.7918 22.7665 14.7591C22.7525 14.6415 22.7811 14.5156 22.8602 14.4101C22.9417 14.3015 23.0429 14.2594 23.0894 14.2439L23.2412 14.6991L23.2425 14.703L23.2476 14.7182M22.7148 14.3542C22.8495 14.3101 22.9849 14.2702 23.1209 14.2346L23.2425 14.6989L23.2435 14.7027L23.2476 14.7182M22.7148 14.3542L22.4032 11.889L22.4019 11.8793L22.402 11.8793L22.4009 11.8691M23.2476 14.7182C23.2584 14.7146 23.2657 14.7074 23.2621 14.6965L22.8992 11.8263L22.852 11.3837C22.852 11.3728 22.8448 11.3691 22.8375 11.3691H18.6031C18.5922 11.3691 18.5849 11.3728 18.5813 11.3837M22.4009 11.8691H22.4975H22.5606H22.8375C22.8037 11.8691 22.7575 11.8653 22.706 11.8508C22.7028 11.8499 22.6996 11.8489 22.6964 11.8479C22.6428 11.8316 22.584 11.8036 22.5274 11.7564C22.4156 11.6632 22.367 11.5416 22.3551 11.4366C22.353 11.4184 22.352 11.4006 22.352 11.3837V11.4102L22.3549 11.4366L22.4009 11.8691ZM22.4009 11.8691H18.971M18.971 11.8691C19.0023 11.7496 19.0336 11.63 19.065 11.5104L18.6031 11.3894L18.5813 11.3837M18.971 11.8691H18.6031C18.6471 11.8691 18.748 11.8629 18.8545 11.7963C18.9711 11.7234 19.0297 11.6196 19.0556 11.5418L18.6031 11.3909L18.5813 11.3837M18.971 11.8691C18.6493 13.0994 18.3301 14.33 18.0109 15.5639M18.5813 11.3837C18.2257 12.7407 17.8737 14.0978 17.5218 15.4585M17.5218 15.4585L17.9602 15.5559L18.0109 15.5554C18.0109 15.5583 18.0109 15.5611 18.0109 15.5639M17.5218 15.4585L17.9006 15.5564L17.5109 15.5601M17.5218 15.4585C17.5145 15.4911 17.5109 15.5238 17.5109 15.5601M18.0109 15.5639C18.0145 15.9564 18.0108 16.3573 17.9964 16.7663M18.0109 15.5639C18.0092 15.5705 18.0075 15.5771 18.0058 15.5837L17.9146 15.5601H17.5109M17.5109 15.5601C17.5145 15.9519 17.5109 16.3511 17.4964 16.7575M17.4964 16.7575H17.9964V16.7663M17.4964 16.7575L17.9961 16.7753C17.9962 16.7723 17.9963 16.7693 17.9964 16.7663M18.0099 15.5669L17.979 15.5601H18.0109C18.0108 15.5604 18.0108 15.561 18.0107 15.5616C18.0105 15.5638 18.0101 15.5658 18.0099 15.5669Z" stroke="white"/>
<path d="M27.7833 14.7183C27.874 14.7654 27.9538 14.7872 28.0191 14.7799C28.2949 14.8235 28.5199 14.7582 28.694 14.5804C29.2347 14.0361 28.8065 13.0709 28.059 13.1544C27.6055 13.2052 27.2825 13.5608 27.3079 14.0252C27.3261 14.3481 27.4894 14.5985 27.7833 14.7183Z" fill="white"/>
<path d="M4.60084 17.7335L6.99565 17.7263C6.99928 17.7263 7.00291 17.7263 7.00654 17.7299C7.01379 17.7335 7.01379 17.7444 7.01017 17.7517C6.35341 18.5753 6.10304 19.5478 5.81639 20.5384C5.80913 20.5638 5.78736 20.6037 5.74745 20.6581C5.74382 20.6617 5.74382 20.6654 5.74745 20.6654C5.75108 20.669 5.75108 20.669 5.7547 20.6654C6.16472 20.2191 6.62917 19.8453 7.14805 19.5369C7.15893 19.5296 7.16256 19.5188 7.16256 19.5079L7.14805 19.3555C7.14805 19.3482 7.15168 19.3446 7.15531 19.3446C8.04429 18.9201 9.06027 18.6951 10.0218 18.7205C11.6946 18.764 13.1097 19.497 14.2563 20.6799C14.3724 20.7996 14.4849 20.9194 14.5974 21.0427C14.601 21.0464 14.6046 21.0464 14.6082 21.0427C14.6119 21.0391 14.6119 21.0355 14.6082 21.0318C14.5212 20.9194 14.4377 20.8069 14.3542 20.6944C14.122 20.3678 13.868 20.1029 13.5632 19.8562C13.5415 19.8417 13.5451 19.8308 13.5705 19.8308L18.8028 19.8344C18.8137 19.8344 18.8246 19.8272 18.8282 19.8163L18.9915 19.4788C18.9987 19.4607 18.9951 19.4534 18.977 19.4534L13.1242 19.4607C13.1169 19.4607 13.1133 19.4607 13.1097 19.4571C12.9573 19.3591 12.7976 19.2684 12.6271 19.1849C12.3695 19.0579 12.1046 18.9092 11.847 18.8185C10.4645 18.3322 9.02035 18.3794 7.67418 18.9636C7.65967 18.9709 7.65604 18.9672 7.6633 18.9527C7.89552 18.5318 8.18943 18.0964 8.55591 17.8025C8.8861 17.5412 9.25984 17.3562 9.68074 17.2509C10.5588 17.0332 11.524 16.9461 12.4203 16.9498C13.3238 16.9534 14.2236 16.9534 15.1235 16.9534C15.1344 16.9534 15.138 16.9461 15.138 16.9353L15.1416 16.1805C15.1416 16.1696 15.1344 16.1624 15.1235 16.1624H14.2309C14.22 16.1624 14.2164 16.1588 14.2091 16.1515L13.9043 15.7088C13.8934 15.6943 13.8971 15.6871 13.9152 15.6871L16.2701 15.6798C16.2846 15.6798 16.2955 15.6907 16.2955 15.7052L16.2919 17.1276C16.2919 17.1385 16.2955 17.153 16.3028 17.1639L16.5567 17.5303C16.5676 17.5448 16.5713 17.5412 16.5713 17.5267C16.5713 16.9861 16.5713 16.4454 16.5676 15.9048C16.5676 15.6979 16.5531 15.5238 16.437 15.3677C16.2882 15.1754 16.0125 15.0738 15.773 15.0738C14.3216 15.0666 12.5654 15.0702 10.5008 15.0775C9.79323 15.0811 9.10744 15.121 8.4144 15.2081C8.17129 15.2371 7.78304 15.2952 7.25327 15.3786C6.49492 15.4984 5.73293 15.7524 5.20317 16.3039C4.83307 16.6885 4.61898 17.153 4.56456 17.6972V17.7009C4.56818 17.719 4.5827 17.7335 4.60084 17.7335ZM5.64585 16.9534L5.99419 16.4527C6.00144 16.4454 6.0087 16.4382 6.01958 16.4382C6.71626 16.322 7.42019 16.2096 8.12774 16.1043C8.44342 16.0572 9.12921 15.981 10.1778 15.8757C10.9834 15.7959 11.8687 15.7379 12.8303 15.7016C12.8412 15.7016 12.8521 15.7052 12.8593 15.7161L13.2439 16.1442C13.2476 16.1479 13.2476 16.1551 13.2439 16.1588C13.2403 16.1588 13.2403 16.1624 13.2367 16.1624C12.0102 16.1733 10.7802 16.2422 9.561 16.3946C8.45068 16.5325 7.34399 16.6595 6.23729 16.8445C6.03773 16.8772 5.84179 16.9171 5.64585 16.9607C5.64222 16.9607 5.63859 16.9607 5.64585 16.9534Z" fill="white"/>
<path d="M21.154 16.4418C20.5735 16.8664 20.1526 17.3635 19.7244 17.9331C19.7208 17.9368 19.7208 17.9368 19.7208 17.9368C19.7208 17.9404 19.7208 17.944 19.7208 17.9476C19.7208 17.9549 19.7244 17.9549 19.728 17.9513C21.6838 16.1915 24.3761 15.3351 26.9778 15.9665C28.3965 16.3112 29.6012 17.1131 30.5918 18.1726C30.6063 18.1871 30.6353 18.1944 30.6789 18.1944C30.9292 18.198 31.1796 18.198 31.43 18.1944C31.4445 18.1944 31.4445 18.1871 31.4372 18.1762C29.1331 15.0231 24.3653 14.0833 21.154 16.4418Z" fill="white"/>
<path d="M30.0185 15.756L30.5373 15.8903L30.6934 16.547C30.697 16.5579 30.7042 16.5615 30.7151 16.5579C30.7623 16.5361 30.7986 16.5071 30.8167 16.4745L31.3501 16.1334C31.3574 16.1298 31.361 16.1189 31.3538 16.1116C31.2268 15.9048 31.1179 15.6508 30.9619 15.4657C30.9546 15.4549 30.9437 15.4512 30.9328 15.4549C30.6208 15.5274 30.3124 15.6254 30.0148 15.7451C30.0112 15.7524 30.0112 15.7524 30.0185 15.756Z" fill="white"/>
<path d="M14.7931 17.6174C14.7314 17.6174 14.6842 17.6682 14.6842 17.7263V18.4992C14.6842 18.5608 14.735 18.608 14.7931 18.608H14.8003C14.862 18.608 14.9092 18.5572 14.9092 18.4992V17.7263C14.9092 17.6646 14.8584 17.6174 14.8003 17.6174H14.7931Z" fill="white"/>
<path d="M14.2562 17.6247H14.2489C14.1836 17.6247 14.1328 17.6755 14.1328 17.7408V18.5064C14.1328 18.5717 14.1836 18.6225 14.2489 18.6225H14.2562C14.3179 18.6225 14.3723 18.5717 14.3723 18.5064V17.7408C14.3723 17.6755 14.3179 17.6247 14.2562 17.6247Z" fill="white"/>
<path d="M13.7411 17.6284H13.7193C13.6395 17.6247 13.6032 17.661 13.6032 17.7408C13.6032 17.9912 13.6032 18.2343 13.6069 18.4629C13.6069 18.5319 13.6141 18.5827 13.6758 18.6117C13.7048 18.6262 13.7411 18.6189 13.7629 18.5972C13.8137 18.5464 13.8318 18.5028 13.8354 18.423C13.8391 18.2017 13.8354 17.9658 13.8318 17.7191C13.8282 17.6719 13.7919 17.632 13.7411 17.6284Z" fill="white"/>
<path d="M12.6487 17.6356H12.6414C12.5797 17.6356 12.5289 17.6864 12.5289 17.748L12.5326 18.5064C12.5326 18.5681 12.5834 18.6189 12.645 18.6189H12.6523C12.714 18.6189 12.7648 18.5681 12.7648 18.5064L12.7611 17.748C12.7611 17.6864 12.7103 17.6356 12.6487 17.6356Z" fill="white"/>
<path d="M13.1858 17.6356H13.1785C13.1168 17.6356 13.0697 17.6827 13.0697 17.7444V18.4955C13.0697 18.5572 13.1168 18.6044 13.1785 18.6044H13.1858C13.2475 18.6044 13.2946 18.5536 13.2946 18.4955V17.7444C13.2946 17.6827 13.2438 17.6356 13.1858 17.6356Z" fill="white"/>
<path d="M15.958 17.6392C15.7185 17.6175 15.5081 17.7844 15.4863 18.013C15.4645 18.2416 15.6387 18.4484 15.8782 18.4702C16.1177 18.4919 16.3281 18.325 16.3499 18.0964C16.3753 17.8678 16.1975 17.661 15.958 17.6392Z" fill="white"/>
<path d="M4.57534 19.3446H5.3083C5.31556 19.3446 5.32281 19.3373 5.32281 19.3301V18.4302C5.32281 18.423 5.31556 18.4157 5.3083 18.4157H4.56083C4.55357 18.4157 4.54631 18.423 4.54631 18.4302L4.56083 19.3301C4.56446 19.3373 4.56809 19.3446 4.57534 19.3446Z" fill="white"/>
<path d="M8.71907 20.317C9.296 20.1828 9.83302 20.1175 10.4245 20.2118C10.6131 20.2408 10.7982 20.2808 10.9833 20.3243C10.9941 20.3279 11.005 20.3207 11.005 20.3134L11.2155 19.6893C11.2191 19.6784 11.2155 19.6712 11.2046 19.6675C10.3628 19.37 9.35768 19.399 8.50861 19.6567C8.50499 19.6567 8.50499 19.6603 8.50499 19.6603L8.70092 20.3098C8.70092 20.3134 8.70818 20.317 8.71907 20.317Z" fill="white"/>
<path d="M24.387 19.9251C23.752 20.1211 23.1787 20.4912 22.7868 21.0318C22.3695 21.6124 22.1373 22.3345 22.2026 23.0493C22.2716 23.7895 22.5764 24.4136 23.0626 24.9688C23.527 25.4513 24.1475 25.8069 24.8151 25.894C25.969 26.0428 26.9124 25.6836 27.6454 24.8127C28.1026 24.2685 28.3421 23.6298 28.3638 22.9005C28.4001 20.8032 26.3863 19.3047 24.387 19.9251ZM26.6076 22.9513C26.5641 23.4593 26.2049 23.8984 25.744 24.0689C25.5735 24.1306 25.3993 24.156 25.2288 24.1523C25.2179 24.1523 25.2034 24.1523 25.1925 24.1487C25.1091 24.1451 25.0292 24.1306 24.9494 24.1124C24.9385 24.1088 24.9313 24.1088 24.9204 24.1052C24.9095 24.1015 24.8986 24.1015 24.8877 24.0979C24.8768 24.0943 24.8659 24.0907 24.8587 24.087C24.8369 24.0798 24.8188 24.0725 24.797 24.0653C24.7825 24.058 24.768 24.0544 24.7498 24.0471C24.7389 24.0435 24.7281 24.0399 24.7208 24.0362C24.7172 24.0326 24.7099 24.0326 24.7063 24.029C24.6881 24.0217 24.6664 24.0108 24.6482 23.9999C24.6374 23.9963 24.6301 23.9891 24.6192 23.9854C24.6083 23.9818 24.6011 23.9745 24.5902 23.9709C24.5612 23.9564 24.5358 23.9383 24.5067 23.9201C24.4995 23.9129 24.4886 23.9092 24.4813 23.902C24.4668 23.8911 24.4523 23.8838 24.4414 23.873C24.4342 23.8657 24.4233 23.8584 24.416 23.8512C24.3942 23.8367 24.3761 23.8185 24.358 23.8004C24.3507 23.7968 24.3471 23.7895 24.3398 23.7822C24.2781 23.7242 24.2201 23.6625 24.1729 23.5936C24.1656 23.5827 24.1584 23.5718 24.1511 23.5645C24.133 23.5391 24.1185 23.5174 24.104 23.492C24.0967 23.4811 24.0894 23.4702 24.0822 23.4557C24.0713 23.4339 24.0604 23.4158 24.0495 23.394C24.0459 23.3831 24.0386 23.3758 24.035 23.365C24.0169 23.325 24.0024 23.2851 23.9878 23.2416C23.9842 23.2343 23.9806 23.2234 23.9806 23.2126C23.9588 23.1473 23.9443 23.0783 23.9371 23.0057C23.9334 22.9949 23.9334 22.984 23.9334 22.9695C23.9334 22.9549 23.9298 22.9441 23.9298 22.9295C23.9298 22.915 23.9262 22.8969 23.9262 22.8787C23.9262 22.8642 23.9262 22.8497 23.9262 22.8352C23.9262 22.8134 23.9262 22.788 23.9298 22.7626C23.9588 22.2438 24.2745 21.812 24.7353 21.5906C24.9857 21.4673 25.2506 21.4346 25.5263 21.4854C26.2194 21.6378 26.6584 22.2583 26.6076 22.9513Z" fill="white"/>
<path d="M8.23296 20.4585L7.99348 19.8671C7.98623 19.8526 7.97534 19.8453 7.96083 19.8526C7.59435 19.9832 7.2569 20.1646 6.94848 20.4041C6.40057 20.8286 6.04498 21.1842 5.68213 21.7612C5.67487 21.7721 5.6785 21.7793 5.68576 21.7902L6.21915 22.222C6.2264 22.2256 6.23729 22.2256 6.24092 22.2184C6.71262 21.4419 7.37301 20.8613 8.21119 20.5057C8.22934 20.4985 8.24022 20.4767 8.23296 20.4585Z" fill="white"/>
<path d="M4.57175 20.0159C4.56086 20.0159 4.55724 20.0231 4.55724 20.034V20.923C4.55724 20.9339 4.56449 20.9411 4.57538 20.9411L5.14142 20.9484C5.15231 20.9484 5.15957 20.9411 5.15957 20.9303C5.17045 20.6291 5.19948 20.3315 5.25028 20.034C5.25028 20.034 5.25028 20.034 5.25028 20.0304C5.25028 20.0231 5.24302 20.0195 5.23939 20.0195L4.57175 20.0159Z" fill="white"/>
<path d="M16.0705 21.3875L18.2403 21.3802C18.2512 21.3802 18.2548 21.3729 18.2548 21.3657V21.021L18.2512 20.767C18.2512 20.7525 18.2439 20.7488 18.2294 20.7488H16.085C16.0705 20.7488 16.0632 20.7561 16.0632 20.767C16.0596 20.7851 16.0632 20.7996 16.0668 20.8178L16.0523 21.3657C16.056 21.3802 16.0596 21.3875 16.0705 21.3875Z" fill="white"/>
<path d="M13.6067 22.4796C13.6103 22.4869 13.6212 22.4905 13.6285 22.4869L14.2671 22.2401C14.2852 22.2329 14.2889 22.222 14.2816 22.2039C14.1111 21.87 13.9188 21.5689 13.701 21.304C13.2693 20.7452 12.7431 20.3098 12.1227 19.9941C12.0029 19.9324 11.8832 19.8889 11.7598 19.8635C11.7417 19.8598 11.7271 19.8671 11.7199 19.8816L11.4731 20.4368C11.4659 20.4585 11.4732 20.4803 11.4949 20.4876C11.8033 20.6146 12.0827 20.7706 12.3295 20.9484C12.8447 21.3657 13.3237 21.8845 13.6067 22.4796Z" fill="white"/>
<path d="M10.7765 26.4637C11.7308 26.09 12.3223 25.1393 12.3295 24.1342C12.2896 23.2452 11.8469 22.5304 11.0849 22.1095C10.0508 21.5398 8.67199 21.7684 7.90637 22.6683C7.41653 23.2452 7.25324 23.9274 7.42015 24.7148C7.75398 26.2315 9.34689 27.0225 10.7765 26.4637ZM9.83674 23.2888C10.3665 23.2888 10.7947 23.7169 10.7947 24.2467C10.7947 24.2685 10.7947 24.2939 10.791 24.3156C10.7547 24.8128 10.3411 25.2083 9.83674 25.2083C9.40857 25.2083 9.04572 24.9289 8.92235 24.5406C8.89332 24.4499 8.87881 24.3519 8.87881 24.2503C8.87881 23.7169 9.3106 23.2888 9.83674 23.2888Z" fill="white"/>
<path d="M16.0777 23.1183H18.1786L18.2294 23.1146C18.2403 23.1146 18.2475 23.1074 18.2512 23.0965C18.2621 23.0348 18.2584 22.9695 18.2439 22.9042C18.2584 22.8534 18.2584 22.8026 18.2475 22.7554V22.5087C18.2475 22.4942 18.2367 22.4833 18.2258 22.4833H16.0741C16.0632 22.4833 16.0559 22.4905 16.0559 22.5014V22.759V23.0965C16.0559 23.111 16.0632 23.1183 16.0777 23.1183Z" fill="white"/>
<path d="M4.43017 25.738L4.48096 25.7416C4.49548 25.7416 4.49911 25.7344 4.49548 25.7235C4.41928 25.4441 4.36485 25.1538 4.3322 24.8454V24.8418C4.32494 24.3882 4.32494 24.0689 4.33582 23.8838C4.35397 23.5282 4.41202 23.2706 4.48459 22.9513C4.57168 22.5558 4.72045 22.1639 4.92364 21.7793C4.9309 21.7684 4.92727 21.7612 4.91276 21.7612L3.11302 21.7539C3.10213 21.7539 3.09488 21.7612 3.09488 21.772C3.09125 22.5377 3.08762 23.3033 3.08762 24.0689C3.08762 24.537 3.10939 24.8889 3.38879 25.2627C3.66092 25.5747 4.00926 25.7344 4.43017 25.738Z" fill="white"/>
<path d="M16.0523 24.8309C16.0523 24.8418 16.0596 24.849 16.0705 24.849L18.2331 24.8418C18.2476 24.8418 18.2548 24.8345 18.2548 24.8164L18.2476 24.4644V24.2249C18.2476 24.2068 18.2331 24.1923 18.2149 24.1923L16.0668 24.1959C16.0596 24.1959 16.056 24.2031 16.056 24.2068V24.4608L16.0523 24.8309Z" fill="white"/>
<path d="M29.4741 27.3636L29.1403 26.5435C29.1403 26.5399 29.1367 26.5363 29.1367 26.5327C29.1367 26.5145 29.1512 26.4964 29.1693 26.4964L30.5228 26.4274C30.5445 26.4274 30.5627 26.4129 30.5699 26.3948L31.0235 25.5493C31.0308 25.5348 31.0271 25.5239 31.0162 25.5131L30.2579 24.8164L30.3051 24.7329L31.3138 24.6567C31.321 24.6567 31.3283 24.6495 31.3283 24.6422C31.4226 24.2612 31.4952 23.873 31.5424 23.4811C31.5424 23.4738 31.5424 23.4702 31.5351 23.463L30.6715 22.7881C30.6679 22.7844 30.6607 22.7772 30.657 22.7735C30.6316 22.7409 30.6425 22.6937 30.6752 22.6683L31.4843 22.0914C31.5025 22.0805 31.5097 22.0551 31.5061 22.0333L31.3174 21.206C31.3138 21.1915 31.3065 21.1879 31.292 21.1879L30.3813 21.1915L30.3087 20.9702C30.3051 20.9593 30.3087 20.9484 30.3196 20.9411L30.8493 20.5928L30.9401 20.542C30.9546 20.5311 30.9618 20.513 30.9509 20.4985L30.5808 19.8381C30.5736 19.8272 30.5663 19.8236 30.5554 19.8236L29.681 19.8744L29.4487 19.6095C29.4415 19.5986 29.4415 19.5913 29.4524 19.5877C29.7463 19.4462 30.0329 19.2865 30.3051 19.1051C30.3268 19.0906 30.3305 19.0725 30.3123 19.0507C30.1309 18.8366 29.9277 18.6443 29.7245 18.4484C29.7136 18.4375 29.7064 18.4375 29.6955 18.4447C29.4379 18.6225 29.1947 18.8185 28.9625 19.0326C28.9589 19.0362 28.9516 19.0362 28.948 19.0326L28.7194 18.8003C28.7049 18.7894 28.7013 18.7677 28.7085 18.7532L28.9915 17.8097C28.9988 17.7843 28.9915 17.7662 28.9698 17.7553L28.3602 17.3997C28.3312 17.3852 28.3021 17.3816 28.2731 17.3925C28.0409 17.4723 27.8014 17.563 27.5619 17.6646C27.424 17.7227 27.3478 17.7916 27.2716 17.9113C27.2608 17.9295 27.2426 17.9367 27.2208 17.9331L26.8798 17.8605C26.8761 17.8605 26.8761 17.8605 26.8725 17.8605C26.8544 17.8533 26.8435 17.8315 26.8507 17.8134L27.2136 16.9244C27.2172 16.9171 27.2136 16.9135 27.2063 16.9099C26.9705 16.8264 26.731 16.7611 26.4879 16.7139C26.4661 16.7103 26.4443 16.7176 26.4298 16.7321L25.6207 17.5848C25.6134 17.592 25.6025 17.5993 25.5916 17.5993H25.207C25.2034 17.5993 25.2034 17.5993 25.1998 17.5993C25.1889 17.5957 25.1816 17.5812 25.1852 17.5703L25.5263 16.5906V16.5869C25.5263 16.5761 25.5191 16.5688 25.5118 16.5688C25.1127 16.5434 24.7135 16.5652 24.3108 16.6305C24.1003 16.6668 23.8899 16.7067 23.6794 16.7539C23.6685 16.7575 23.6613 16.7647 23.6649 16.7756L23.7701 17.7989C23.7701 17.8134 23.7665 17.8243 23.752 17.8279L23.4 17.9476C23.3855 17.9513 23.371 17.944 23.3637 17.9331L22.9537 17.0768C22.9465 17.0623 22.9283 17.055 22.9102 17.0623C21.8688 17.5086 21.0052 18.1835 20.3231 19.0906C20.3158 19.0979 20.3194 19.1051 20.3303 19.1088C20.6242 19.2176 20.9109 19.3519 21.183 19.5079C21.183 19.5079 21.183 19.5079 21.1866 19.5079C21.1939 19.5151 21.1975 19.526 21.1903 19.5369L20.9072 19.8925C20.9 19.9034 20.8891 19.907 20.8746 19.907L20.1199 19.7982C20.109 19.7982 20.1017 19.8018 20.0945 19.8091L19.7316 20.3824C19.7244 20.3932 19.7244 20.4041 19.7352 20.4114L20.3267 20.9992C20.3376 21.0101 20.3376 21.021 20.3339 21.0319L20.2469 21.275C20.2432 21.2859 20.2323 21.2895 20.2251 21.2895L19.4014 21.1988C19.3833 21.1951 19.3688 21.2097 19.3651 21.2242L19.1728 22.1277C19.1692 22.1422 19.1765 22.1531 19.191 22.1531L19.9856 22.2583C20.0001 22.2583 20.011 22.2728 20.011 22.2873L20.0038 22.7481C20.0038 22.759 20.0001 22.7699 19.9892 22.7772L19.1656 23.4376C19.1511 23.4484 19.1438 23.4666 19.1474 23.4847C19.2091 23.9201 19.2998 24.3519 19.4159 24.7765C19.4196 24.7874 19.4268 24.791 19.4377 24.791L20.1852 24.595C20.1997 24.5914 20.2069 24.595 20.2106 24.6096L20.2831 24.8418C20.2868 24.849 20.2831 24.8563 20.2795 24.8636L19.7425 25.5203C19.7352 25.5312 19.7316 25.5421 19.7389 25.553L20.1235 26.2823C20.1344 26.315 20.1561 26.3476 20.1815 26.3803C20.1888 26.3875 20.1997 26.3948 20.2106 26.3948C20.5807 26.3984 20.9617 26.3911 21.3282 26.4419L21.4044 26.4601C21.4406 26.471 21.4515 26.4927 21.437 26.529L21.0451 27.3854C21.0379 27.4035 21.0415 27.4216 21.056 27.4362L21.2048 27.5632C21.3898 27.7264 21.5821 27.8752 21.7853 28.0095C21.7926 28.0167 21.8071 28.0167 21.8144 28.0095C21.8652 27.9768 21.916 27.9478 21.9704 27.9151C21.974 27.9151 21.9777 27.9115 21.9777 27.9115C21.9958 27.9006 22.0139 27.8897 22.0321 27.8788C22.0502 27.868 22.0647 27.8571 22.0829 27.8498C22.0974 27.8425 22.1083 27.8317 22.1228 27.8244C22.1409 27.8135 22.1627 27.799 22.1809 27.7845C22.1881 27.7772 22.199 27.7736 22.2063 27.77C22.2099 27.7664 22.2135 27.7664 22.2171 27.7627C22.2208 27.7591 22.2244 27.7555 22.228 27.7555C22.2389 27.7482 22.2498 27.741 22.2607 27.7337L22.5328 27.7772L22.8122 28.5864C22.8158 28.5973 22.8231 28.6082 22.8376 28.6118C23.215 28.7569 23.6032 28.8803 23.9951 28.9819C24.006 28.9855 24.0169 28.9819 24.0205 28.971C24.1947 28.6698 24.3834 28.3832 24.5865 28.1111L25.0945 28.1401L24.8006 29.0908C24.8006 29.0908 24.8006 29.0908 24.8006 29.0944C24.8006 29.098 24.8043 29.1016 24.8079 29.1016H25.5227C25.5263 29.1016 25.53 29.1016 25.5336 29.1016C25.5517 29.0944 25.5626 29.0762 25.5554 29.0581L25.2977 28.2163L25.2905 28.1727C25.2868 28.1582 25.2941 28.151 25.3086 28.151L25.6207 28.1473L26.4044 28.9746C26.4153 28.9855 26.4335 28.9928 26.448 28.9855L27.6127 28.6372C27.6345 28.6299 27.6417 28.6154 27.6236 28.5973L27.2462 28.1292C27.2426 28.1256 27.2426 28.1219 27.2426 28.1183C27.2426 28.1074 27.2499 28.1002 27.2571 28.0965C27.5039 28.0603 27.7579 28.0203 28.0119 27.9732C28.0627 27.9623 28.1098 27.9659 28.1606 27.9804C28.2985 28.024 28.44 28.0603 28.5815 28.0929C28.5997 28.0965 28.6142 28.0929 28.6323 28.082C28.9262 27.8788 29.202 27.6539 29.4633 27.4108C29.4778 27.389 29.4778 27.3745 29.4741 27.3636ZM24.0604 26.9681C22.9465 26.6415 22.0901 25.9594 21.4987 24.9144C21.281 24.5297 21.1286 24.1306 21.0488 23.7242C20.646 21.714 21.6801 19.7873 23.527 18.9382C24.4704 18.5064 25.588 18.4338 26.5786 18.7532C27.6381 19.0942 28.5017 19.8127 29.0641 20.7742C29.71 21.8773 29.768 23.2888 29.2891 24.4354C28.4364 26.4782 26.2012 27.5922 24.0604 26.9681Z" fill="white"/>
<path d="M13.6067 27.2656C13.6139 27.2547 13.6139 27.2475 13.603 27.2402L13.0805 26.8629C13.1966 26.7322 13.2946 26.5944 13.3744 26.4528L13.955 26.7867C13.9659 26.7939 13.9768 26.7903 13.984 26.7794L14.1763 26.4238C14.3578 26.1045 14.492 25.7634 14.5827 25.397L13.8643 25.3933C13.984 24.9797 14.0022 24.5697 13.984 24.1487C13.984 24.1342 13.9768 24.127 13.9623 24.127L13.262 24.1306C13.2438 24.1306 13.2366 24.1379 13.2366 24.156C13.2329 25.0522 12.9318 25.8505 12.3258 26.4928C11.669 27.1894 10.8417 27.5378 9.83303 27.5378C7.95709 27.5414 6.41498 26.0428 6.47303 24.1487C6.47303 24.1342 6.46578 24.1233 6.45126 24.1233L5.71468 24.127C5.68928 24.127 5.67476 24.1125 5.67476 24.0871C5.67839 23.5718 5.79088 23.082 6.01947 22.6212C6.02673 22.6066 6.01947 22.5921 6.00859 22.5849L5.4498 22.2619C5.43891 22.2547 5.42077 22.2583 5.41351 22.2728C5.03252 22.984 4.88012 23.9383 4.97446 24.7366C4.97809 24.762 4.99261 24.7765 5.018 24.7837L5.64936 24.947C5.66751 24.9506 5.68202 24.9688 5.68565 24.9869L5.73645 25.397C5.74008 25.4115 5.73282 25.4187 5.71468 25.4187L5.10146 25.3679C5.10146 25.3679 5.10146 25.3679 5.09783 25.3679C5.09057 25.3679 5.09057 25.3752 5.09057 25.3788C5.19943 25.8215 5.3736 26.2351 5.60945 26.627C5.61671 26.6415 5.63485 26.6488 5.64936 26.6452C5.85982 26.6089 6.06301 26.5508 6.25895 26.4746C6.27347 26.4674 6.29161 26.4746 6.29887 26.4891C6.35329 26.6016 6.41861 26.7068 6.50569 26.7976C6.50932 26.8048 6.51295 26.8121 6.51295 26.8193C6.51295 26.8266 6.50932 26.8302 6.50569 26.8338L5.95416 27.1749C5.95053 27.1785 5.9469 27.1858 5.95416 27.1894C6.45852 27.8244 7.16245 28.3687 7.90992 28.6844C7.92081 28.688 7.93169 28.6844 7.93895 28.6735L8.25826 28.0893C8.26188 28.0857 8.25826 28.082 8.25463 28.082C8.251 28.082 8.24737 28.082 8.24374 28.082C8.24737 28.0784 8.24737 28.0748 8.251 28.0748C8.25826 28.0675 8.26551 28.0675 8.27277 28.0712L8.69005 28.2381L8.49411 28.8731C8.49048 28.8839 8.49774 28.8985 8.50862 28.9021C8.66465 28.9529 8.8243 28.9928 8.98758 29.0218C9.15087 29.0509 9.31415 29.0654 9.47743 29.0726C9.49557 29.0726 9.51009 29.0581 9.51009 29.0436C9.51735 28.8259 9.55363 28.6082 9.62257 28.3832L10.0108 28.3868L10.0471 28.3905C10.0616 28.3905 10.0725 28.405 10.0725 28.4195L10.0906 29.0545C10.0906 29.069 10.1052 29.0799 10.1197 29.0799C10.4898 29.0617 10.8526 29.0037 11.2119 28.9057H11.2155C11.23 28.9021 11.2373 28.8839 11.23 28.8731L10.9796 28.2272L11.4223 28.0857C11.4405 28.122 11.4659 28.1582 11.4913 28.1982C11.5892 28.3469 11.6582 28.5247 11.7307 28.688C11.7344 28.6989 11.7452 28.7025 11.7561 28.6989C11.8323 28.6735 11.8904 28.6481 11.9303 28.6263C12.5798 28.2925 13.1422 27.8389 13.6067 27.2656Z" fill="white"/>
<path d="M3.31627 27.7156C4.07099 27.7156 4.82209 27.7156 5.57682 27.7192C5.58045 27.7192 5.58045 27.7192 5.58408 27.7156C5.58771 27.712 5.58771 27.7047 5.58408 27.7011L5.1414 27.1858C5.12689 27.1677 5.10512 27.1604 5.08334 27.1604C4.48464 27.1568 3.88594 27.1568 3.27998 27.1568C3.05864 27.1568 2.94979 27.3491 3.02236 27.5487C3.07678 27.6866 3.1675 27.7156 3.31627 27.7156Z" fill="white"/>
<path d="M14.5465 27.1676L14.1183 27.6829C14.1002 27.7047 14.1038 27.7156 14.1328 27.7156H20.3267C20.3557 27.7156 20.3593 27.7083 20.3339 27.6902C20.1707 27.5668 20.0291 27.4216 19.9094 27.2547C19.8913 27.2293 19.8767 27.1894 19.8514 27.164C19.8441 27.1568 19.8332 27.1531 19.8223 27.1531H14.5683C14.561 27.1531 14.5537 27.1568 14.5465 27.1676Z" fill="white"/>
<path d="M30.7913 27.1858C30.7224 27.2584 30.6643 27.3382 30.5917 27.4035C30.4865 27.4942 30.3885 27.5849 30.2978 27.6756C30.2797 27.6938 30.2833 27.7047 30.3087 27.7047C31.0961 27.7083 31.8835 27.7119 32.6636 27.7119C32.7543 27.7119 32.8196 27.701 32.8632 27.6793C33.0373 27.5886 33.0446 27.2946 32.8886 27.1967C32.8341 27.164 32.7434 27.1459 32.6128 27.1459C32.0141 27.1459 31.4263 27.1495 30.853 27.1531C30.8276 27.1604 30.8094 27.1676 30.7913 27.1858Z" fill="white"/>
<path d="M21.5097 28.7859C21.35 28.6807 21.0597 28.5319 21.0198 28.3324C21.0162 28.3215 21.0089 28.3142 20.998 28.3142C18.4799 28.3142 15.9617 28.3106 13.4399 28.3033C13.4109 28.3033 13.3891 28.3106 13.3746 28.3215C13.1786 28.5065 12.9682 28.6589 12.7541 28.8222C12.7251 28.844 12.7287 28.8549 12.765 28.8549L21.4843 28.8512C21.5677 28.8512 21.575 28.8295 21.5097 28.7859Z" fill="white"/>
<path d="M6.94121 28.8295L6.30622 28.3361C6.29533 28.3288 6.28082 28.3215 6.2663 28.3215C5.2721 28.3143 4.27426 28.3107 3.27279 28.3143C3.08774 28.3143 2.97888 28.4812 3.01154 28.6517C3.0442 28.8223 3.17119 28.8549 3.33448 28.8549C4.53914 28.8513 5.73654 28.8513 6.93032 28.8586C6.95935 28.8549 6.96298 28.8477 6.94121 28.8295Z" fill="white"/>
<path d="M32.7978 28.3179C32.7905 28.3143 32.7833 28.3143 32.7724 28.3143H29.5684C29.5539 28.3143 29.5394 28.3215 29.5249 28.3324C29.4487 28.405 29.3906 28.4921 29.3072 28.5574C29.1911 28.6445 29.0749 28.7279 28.9588 28.8114C28.9189 28.8404 28.9225 28.8549 28.9733 28.8549C30.2143 28.8549 31.4698 28.8513 32.7325 28.8549C33.0518 28.8513 33.0844 28.4304 32.7978 28.3179Z" fill="white"/>
</svg>
