<svg width="252" height="252" viewBox="0 0 252 252" fill="none" xmlns="http://www.w3.org/2000/svg">
<rect width="252" height="252" rx="126" fill="#006633"/>
<path d="M126.645 171.239C137.791 178.661 149.228 180.56 157.414 180.74L150.864 187.29C148.501 189.621 152.105 193.34 154.506 190.932C154.506 190.932 161.042 184.396 161.042 184.396V193.64C161.08 196.959 166.133 197.078 166.194 193.64V184.397L172.728 190.932C175.105 193.262 178.755 189.72 176.371 187.29C176.371 187.29 169.809 180.728 169.809 180.728C177.997 180.553 189.426 178.674 200.587 171.24C235.517 149.072 226.503 110.679 191.155 88.4915C187.127 86.028 184.852 81.5469 185.218 76.8068L186.378 62.3311C186.434 61.6318 186.203 60.9401 185.738 60.4157C185.272 59.8912 184.612 59.5781 183.912 59.5517C179.289 59.3061 174.527 61.1562 171.335 64.3245C171.335 64.3245 165.927 53.4105 165.927 53.4105C165.068 51.5383 162.16 51.5197 161.306 53.4157C159.524 57.0425 157.69 60.7056 155.9 64.3232C152.655 61.1418 147.654 59.1051 143.002 59.6294C141.693 59.7844 140.795 61.0713 140.861 62.3361L142.005 76.8131C142.38 81.5457 140.106 86.0242 136.071 88.4993C133.214 90.3421 135.856 94.6038 138.765 92.891C144.459 89.3973 147.668 83.0813 147.141 76.4081L146.233 64.9172C149.333 65.2226 153.136 68.204 154.187 70.4143C155.165 72.1139 157.781 72.0639 158.665 70.3399C160.321 67.0202 161.96 63.681 163.621 60.3579L168.52 70.2469C169.335 72.0606 172.139 72.1581 173.048 70.414C174.094 68.2227 177.913 65.2106 181.005 64.8882C181.005 64.888 180.083 76.4019 180.083 76.4019C179.566 83.0914 182.78 89.4074 188.464 92.8836C209.225 105.633 220.93 126.164 216.928 142.813C214.422 156.194 195.861 171.315 181.285 174.1C192.907 166.986 200.961 155.124 202.614 141.441C202.947 138.05 197.96 137.477 197.501 140.822C195.781 155.049 186.21 167.065 172.85 172.642C173.377 171.542 173.881 170.338 174.36 169.018C180.372 153.137 180.783 121.754 175.841 104.419C175.471 103.046 174.06 102.231 172.685 102.6C171.311 102.97 170.496 104.384 170.866 105.757C172.969 113.567 174.126 123.701 174.126 134.296C174.126 147.157 172.446 159.174 169.516 167.263C167.561 172.66 165.707 174.513 164.802 175.14C131.149 171.918 117.341 129.525 142.532 106.982C144.998 104.684 141.496 100.924 139.027 103.207C116.887 123.353 120.502 158.961 145.947 174.098C140.734 172.846 135.073 170.662 129.498 166.949C102.293 149.617 103.981 121.906 128.727 100.236C131.279 98.0343 127.899 94.1383 125.359 96.3398C97.9997 120.239 96.6158 151.994 126.645 171.239Z" fill="white"/>
<path d="M197.025 128.774C197.298 130.178 198.695 131.076 200.056 130.794C201.45 130.515 202.355 129.158 202.076 127.763C200.214 118.459 195.29 109.733 188.214 103.196C185.733 100.929 182.25 104.677 184.717 106.979C191.004 112.786 195.375 120.527 197.025 128.774Z" fill="white"/>
<path d="M155.354 110.018C155.615 107.539 157.972 103.877 154.639 102.627C150.835 101.751 150.976 106.855 150.245 109.335C147.101 124.392 147.217 146.046 150.566 160.913C151.351 164.199 156.267 163.138 155.599 159.811C152.371 145.516 152.303 124.474 155.354 110.018Z" fill="white"/>
<path fill-rule="evenodd" clip-rule="evenodd" d="M96.3497 187.313C88.5601 189.833 77.1341 191.801 64.1677 188.456C29.4802 180.155 20.3461 149.711 38.3253 118.145C40.0006 115.231 44.4738 117.799 42.7876 120.717C26.5425 149.319 34.0599 176.044 65.451 183.467C71.9377 185.141 78.0018 185.342 83.3361 184.81C54.3293 178.881 39.2072 146.441 53.4915 120.136C55.0724 117.168 59.6166 119.567 58.0428 122.549C41.6651 152.121 68.6446 187.617 101.486 179.595C102.134 178.705 103.276 176.345 103.348 170.605C103.454 162.003 101.09 150.101 96.8612 137.956C93.3777 127.95 88.9528 118.76 84.3989 112.075C83.5981 110.9 83.9029 109.297 85.0784 108.496C86.2561 107.695 87.8567 108 88.6573 109.176C99.0239 123.922 108.955 153.695 108.499 170.67C108.481 172.074 108.4 173.377 108.265 174.589C112.219 171.047 115.407 166.855 117.709 162.276C119.019 163.59 120.373 164.745 121.702 165.746C120.292 168.363 118.622 170.859 116.71 173.192C119.241 171.73 121.761 169.765 124.16 167.449C125.939 168.581 127.585 169.419 128.911 169.977C121.919 176.948 114.187 180.941 108.052 183.225C108.052 183.225 116.406 187.265 116.406 187.265C119.457 188.776 117.174 193.321 114.164 191.902L105.844 187.879L108.883 196.608C109.956 199.875 105.145 201.424 104.018 198.302L100.979 189.572C100.979 189.572 96.955 197.894 96.955 197.894C95.479 200.957 90.8521 198.63 92.3177 195.652L96.3497 187.313ZM122.998 99.3432C115.945 94.8172 107.455 91.2944 97.8831 89.0985C93.2692 88.0964 89.6471 84.6126 88.4342 80.0157L84.7695 65.9636C84.5931 65.2846 84.1471 64.7074 83.5352 64.3652C82.9232 64.0229 82.1967 63.9442 81.5265 64.1496C77.0798 65.4379 73.1916 68.7505 71.2185 72.7924L62.5226 64.2634C61.0958 62.7777 58.3436 63.7163 58.1606 65.7876C57.8615 68.2322 57.5486 70.696 57.2365 73.1542L57.2364 73.1546L57.2364 73.155L57.2362 73.1565C57.0362 74.7309 56.8366 76.3031 56.641 77.8664C52.5303 75.9289 47.1381 75.6496 42.9175 77.6743C41.7318 78.2512 41.3067 79.7619 41.7848 80.9348L47.6257 94.2305C49.5358 98.5767 48.8609 103.554 45.8645 107.218C43.7723 109.898 47.6686 113.054 49.8527 110.48C54.0808 105.308 55.0351 98.288 52.3433 92.1592L47.7071 81.6058C50.7353 80.8749 55.3067 82.4402 57.026 84.1821C58.5087 85.4655 60.9631 84.558 61.2312 82.6391C61.454 80.9019 61.672 79.1617 61.8901 77.4209L61.8905 77.4175L61.8908 77.4159L61.891 77.4143C62.1345 75.4702 62.3781 73.5254 62.6287 71.5828L70.5077 79.3109C71.8737 80.7558 74.5531 79.9262 74.8385 77.9801C75.1061 75.5666 77.7217 71.4665 80.5365 70.145C80.5363 70.1449 83.4516 81.3217 83.4516 81.3217C85.163 87.8092 90.2744 92.7174 96.7859 94.1312C105.359 96.0095 113.155 99.2282 119.699 103.374L122.998 99.3432Z" fill="white"/>
</svg>
