<svg width="36" height="36" viewBox="0 0 36 36" fill="none" xmlns="http://www.w3.org/2000/svg">
<rect width="36" height="36" rx="18" fill="#006633"/>
<path d="M13.1603 14.4506C11.8094 14.4506 10.7103 15.641 10.7103 17.1043C10.8451 20.6245 15.4757 20.6237 15.6101 17.1043C15.6101 15.641 14.511 14.4506 13.1603 14.4506ZM13.1603 19.1302C12.1312 19.1302 11.2941 18.2214 11.2941 17.1043C11.382 14.4227 14.9387 14.4233 15.0263 17.1043C15.0263 18.2214 14.1892 19.1302 13.1603 19.1302Z" fill="white"/>
<path d="M13.1602 16.0165C11.8313 16.0621 11.8314 18.1465 13.1603 18.1918C14.4893 18.1463 14.4889 16.0619 13.1602 16.0165ZM13.1602 17.5642C12.6058 17.5535 12.606 16.6547 13.1602 16.6441C13.7145 16.6548 13.7146 17.5536 13.1602 17.5642Z" fill="white"/>
<path d="M22.7304 17.3654C21.4013 17.4109 21.4017 19.4953 22.7304 19.5407C24.0594 19.4951 24.0592 17.4107 22.7304 17.3654ZM22.7304 18.9131C22.1761 18.9024 22.176 18.0037 22.7304 17.993C23.2848 18.0037 23.2846 18.9025 22.7304 18.9131Z" fill="white"/>
<path d="M25.3498 13.9821L24.707 13.0491C24.4298 12.6515 24.0085 12.3996 23.5511 12.3579L22.9029 12.2995V9.19114C22.9029 8.754 22.5738 8.39821 22.1691 8.39821H22.0473V7.3134L22.9143 6.55755C23.0395 6.4483 23.0586 6.25065 22.9572 6.11612C22.8554 5.98143 22.6714 5.96105 22.5465 6.07L21.5715 6.92007C21.5031 6.97968 21.4634 7.06931 21.4634 7.16385V8.39821C21.0184 8.34652 20.6046 8.69741 20.6076 9.19115L20.6076 12.0925L20.0207 12.0396L19.4703 8.8063C19.5204 7.95279 18.8954 7.20979 18.0995 7.2135L12.689 7.2135C12.142 7.2135 11.6481 7.56468 11.4308 8.10816L11.1898 8.7114C11.1052 8.91002 11.254 9.15505 11.458 9.149L11.6851 9.149L11.3763 11.9076H11.3507C11.2696 11.9076 11.1922 11.9438 11.137 12.0077L10.2123 13.0758C10.162 13.1339 10.134 13.2102 10.134 13.2895V14.533C9.61946 15.2425 9.30964 16.1342 9.30964 17.1045C9.42065 21.9633 15.5714 22.8425 16.864 18.2321L19.9396 18.2322C19.9347 18.3054 19.9293 18.3785 19.9293 18.453C20.081 22.4741 25.3765 22.4817 25.5315 18.453C25.5315 18.3601 25.5262 18.2687 25.5187 18.1779C25.5995 18.1221 25.6561 18.0293 25.6561 17.9184V14.9865C25.6561 14.6223 25.5504 14.2754 25.3498 13.9821ZM21.3449 9.02582H22.1691C22.2518 9.02582 22.3191 9.09998 22.3191 9.19115V9.57497H21.1914V9.19115C21.1914 9.09998 21.2602 9.02582 21.3449 9.02582ZM21.1914 10.2026H22.3191V12.2469L21.1914 12.1452V10.2026ZM15.8848 12.8219V9.14901H17.7308L18.2577 12.2567V14.7563H17.5222C17.1288 13.9766 16.5645 13.3127 15.8848 12.8219ZM14.135 9.14901V12.0247C13.7703 11.9406 13.3845 11.9018 12.9997 11.9076L13.4092 9.14901H14.135ZM14.7188 9.14901H15.301V12.464C15.1129 12.3644 14.9191 12.2762 14.7188 12.2022V9.14901ZM18.7956 11.9292L18.3242 9.14901H18.935L19.4178 11.9853L18.7956 11.9292ZM11.9673 8.35593C12.0923 8.0432 12.3756 7.8411 12.689 7.8411H18.0995C18.478 7.8411 18.7952 8.13345 18.8698 8.52141H11.9011L11.9673 8.35593ZM12.273 9.14901H12.8181L12.4086 11.9076H11.9642L12.273 9.14901ZM13.1602 20.6491C11.3589 20.6491 9.89344 19.059 9.89344 17.1045C10.0733 12.4017 16.2478 12.403 16.427 17.1045C16.427 19.059 14.9615 20.6491 13.1602 20.6491ZM13.1602 12.9321C12.2338 12.9321 11.3829 13.2887 10.7178 13.8816V13.413L11.4778 12.5352H13.0999C15.5553 12.5352 17.5529 14.7023 17.5529 17.366V17.6046H16.9804C17.277 15.1527 15.4459 12.9135 13.1602 12.9321ZM22.7304 20.8598C21.5078 20.8598 20.5131 19.7801 20.5131 18.453C20.633 15.261 24.8283 15.2619 24.9477 18.453C24.9477 19.7801 23.953 20.8598 22.7304 20.8598ZM22.7304 15.4187C21.4578 15.4187 20.3827 16.3435 20.0428 17.6046H18.1367C18.1577 16.8371 18.0394 16.0656 17.7878 15.3839H18.5496C18.7108 15.3839 18.8415 15.2434 18.8415 15.0701V12.5631L23.5018 12.9834C23.7934 13.0099 24.0625 13.1711 24.2388 13.4241L24.88 14.3547C25.0059 14.5386 25.0723 14.7571 25.0723 14.9865V16.793C24.5713 15.9665 23.7094 15.4187 22.7304 15.4187Z" fill="white"/>
<path d="M22.847 13.5113L20.7659 13.4485C20.3841 13.4386 20.3651 14.0586 20.7497 14.0758C20.7629 14.0749 22.8279 14.1395 22.839 14.1387C23.2164 14.1329 23.2259 13.529 22.847 13.5113Z" fill="white"/>
<path d="M22.8469 14.3471L20.7659 14.2843C20.3844 14.2717 20.3649 14.8952 20.7496 14.9116C20.7628 14.9107 22.8278 14.9753 22.8389 14.9745C23.2164 14.9687 23.2258 14.3648 22.8469 14.3471Z" fill="white"/>
<path d="M4.02775 22.9519C4.00537 23.0095 3.99631 23.0721 4.00136 23.1342C4.0064 23.1964 4.0254 23.2564 4.05672 23.3089C4.08803 23.3615 4.13074 23.4051 4.18117 23.436C4.23161 23.467 4.28826 23.4843 4.34629 23.4865L7.06818 23.4354L8.14398 25.089L7.12251 26.7819L4.40098 26.8548C4.3417 26.8568 4.28381 26.8746 4.23247 26.9065C4.18114 26.9384 4.13796 26.9835 4.10679 27.0378C4.07801 27.0931 4.06234 27.1551 4.06115 27.2185C4.05997 27.2819 4.07331 27.3445 4.09999 27.4011C4.49687 28.2033 5.09347 28.8712 5.82312 29.3299C6.55278 29.7886 7.38672 30.0201 8.23175 29.9986C9.07678 29.9771 9.89959 29.7034 10.6082 29.208C11.3168 28.7127 11.8834 28.0152 12.2444 27.1936L23.6754 26.9791C24.0633 27.7863 24.6523 28.4618 25.3766 28.9301C26.1009 29.3984 26.932 29.6411 27.7772 29.6312C28.6223 29.6213 29.4483 29.3591 30.1629 28.874C30.8775 28.3888 31.4527 27.6997 31.8242 26.8836C31.8491 26.8255 31.8601 26.7617 31.8564 26.6979C31.8528 26.6342 31.8344 26.5724 31.803 26.5181C31.7701 26.465 31.7255 26.4216 31.6731 26.3916C31.6208 26.3616 31.5623 26.346 31.503 26.3462L28.7812 26.3973L27.7054 24.7438L28.7268 23.0509L31.4509 22.9806C31.5095 22.9766 31.5663 22.9571 31.6163 22.924C31.6662 22.8909 31.7079 22.8451 31.7376 22.7906C31.7673 22.7362 31.7841 22.6747 31.7866 22.6117C31.7891 22.5486 31.7771 22.4859 31.7518 22.4289C31.5256 21.9734 31.2343 21.5587 30.8887 21.2001C30.367 20.6611 29.7336 20.2633 29.0407 20.0394C28.3478 19.8156 27.6153 19.7722 26.9037 19.9128C26.1921 20.0534 25.5218 20.3739 24.9482 20.848C24.3746 21.322 23.9142 21.936 23.6049 22.6391L12.174 22.8536C11.7864 22.0461 11.1976 21.3703 10.4734 20.9018C9.74908 20.4334 8.91788 20.1907 8.07267 20.2009C7.22746 20.2111 6.40153 20.4738 5.68722 20.9596C4.9729 21.4454 4.39834 22.1352 4.02775 22.9519ZM8.0539 20.9487C8.80787 20.934 9.54932 21.1572 10.1865 21.5907C10.8237 22.0243 11.3288 22.6491 11.6391 23.3879C11.6691 23.4496 11.7141 23.5014 11.7692 23.5378C11.8244 23.5743 11.8876 23.594 11.9524 23.595L23.8405 23.3828C23.9051 23.3794 23.9677 23.3573 24.0216 23.3188C24.0756 23.2803 24.1188 23.2269 24.1468 23.1641C24.4328 22.4109 24.9183 21.7646 25.543 21.3054C26.1676 20.8462 26.904 20.5942 27.6606 20.5808C28.2717 20.5667 28.877 20.7105 29.4258 21C29.9745 21.2894 30.4506 21.7162 30.8142 22.2445L28.5239 22.2874C28.4666 22.2898 28.4107 22.3069 28.3608 22.3373C28.311 22.3677 28.2686 22.4105 28.2372 22.4621L27.0036 24.5412C26.9679 24.6039 26.9495 24.6762 26.9507 24.7497C26.9519 24.8232 26.9726 24.8948 27.0103 24.9561L28.3132 26.9849C28.3462 27.0353 28.39 27.0765 28.4408 27.105C28.4916 27.1335 28.5481 27.1485 28.6054 27.1487L30.8932 27.1085C30.5032 27.7104 29.9719 28.1904 29.3533 28.4998C28.7347 28.8091 28.0509 28.9367 27.3715 28.8695C26.6921 28.8024 26.0414 28.5428 25.4857 28.1174C24.9299 27.692 24.489 27.1158 24.2077 26.4476C24.1777 26.386 24.1328 26.3342 24.0776 26.2977C24.0225 26.2613 23.9592 26.2415 23.8945 26.2405L12.0089 26.4499C11.9442 26.4533 11.8816 26.4754 11.8277 26.5139C11.7738 26.5524 11.7305 26.6059 11.7026 26.6686C11.4452 27.3497 11.0241 27.945 10.4825 28.3937C9.94093 28.8425 9.29817 29.1285 8.62 29.2226C7.94183 29.3167 7.25258 29.2155 6.62273 28.9293C5.99289 28.6431 5.44505 28.1822 5.03524 27.5937L7.3229 27.5481C7.38019 27.5457 7.43611 27.5286 7.48599 27.4982C7.53587 27.4678 7.57826 27.425 7.60961 27.3734L8.84323 25.2943C8.87897 25.2316 8.89732 25.1593 8.89612 25.0858C8.89493 25.0123 8.87424 24.9407 8.8365 24.8794L7.53613 22.8478C7.50312 22.7974 7.45937 22.7563 7.40853 22.7278C7.3577 22.6993 7.30126 22.6843 7.24393 22.684L4.95618 22.7242C5.30441 22.1852 5.76697 21.7431 6.30562 21.4344C6.84427 21.1256 7.44354 20.9591 8.0539 20.9487Z" fill="white"/>
<path d="M13.1042 24.3869C13.1042 24.1736 13.265 24.0008 13.4633 24.0008H16.92C17.1183 24.0008 17.2791 24.1736 17.2791 24.3869C17.2791 24.6001 17.1183 24.7729 16.92 24.7729H13.4633C13.265 24.7729 13.1042 24.6001 13.1042 24.3869Z" fill="white"/>
<path d="M17.5686 25.4486C17.5686 25.2353 17.7294 25.0625 17.9278 25.0625H21.2946C21.493 25.0625 21.6538 25.2353 21.6538 25.4486C21.6538 25.6618 21.493 25.8346 21.2946 25.8346H17.9278C17.7294 25.8346 17.5686 25.6618 17.5686 25.4486Z" fill="white"/>
</svg>
