<svg width="36" height="36" viewBox="0 0 36 36" fill="none" xmlns="http://www.w3.org/2000/svg">
<rect width="36" height="36" rx="18" fill="#006633"/>
<path d="M22.9311 19.1381H23.3104C23.52 19.1381 23.6897 18.9683 23.6897 18.7588C23.6897 18.5492 23.52 18.3795 23.3104 18.3795H22.9311C22.7215 18.3795 22.5518 18.5492 22.5518 18.7588C22.5518 18.9683 22.7215 19.1381 22.9311 19.1381Z" fill="white"/>
<path d="M24.8276 19.1381H26.3448C26.5544 19.1381 26.7241 18.9683 26.7241 18.7588C26.7241 18.5492 26.5544 18.3795 26.3448 18.3795H24.8276C24.618 18.3795 24.4482 18.5492 24.4482 18.7588C24.4482 18.9683 24.618 19.1381 24.8276 19.1381Z" fill="white"/>
<path d="M9.27571 27.1035H8.8964C8.68683 27.1035 8.51709 27.2733 8.51709 27.4828C8.51709 27.6924 8.68683 27.8621 8.8964 27.8621H9.27571C9.48528 27.8621 9.65502 27.6924 9.65502 27.4828C9.65502 27.2733 9.48528 27.1035 9.27571 27.1035Z" fill="white"/>
<path d="M12.3101 27.1035H10.7929C10.5833 27.1035 10.4136 27.2733 10.4136 27.4828C10.4136 27.6924 10.5833 27.8621 10.7929 27.8621H12.3101C12.5197 27.8621 12.6894 27.6924 12.6894 27.4828C12.6894 27.2733 12.5197 27.1035 12.3101 27.1035Z" fill="white"/>
<path d="M28.2415 21.0345V18.7587C28.2396 18.0598 27.7607 17.4529 27.0818 17.2888C27.0951 17.1485 27.1036 17.0062 27.1036 16.8621C27.1017 15.7877 26.7195 14.7484 26.0263 13.9281C25.3322 13.1069 24.3697 12.5588 23.3104 12.3786V12.3132C23.371 12.318 23.4317 12.3265 23.4924 12.3265V12.3274C24.2463 12.3265 24.9556 11.9671 25.4013 11.3583C25.847 10.7504 25.9769 9.96621 25.7503 9.24743C25.7133 9.12794 25.6204 9.03501 25.5009 8.99804C24.6588 8.73348 23.7399 8.95821 23.115 9.58314C22.4911 10.2071 22.2663 11.1269 22.5309 11.969C22.5347 11.9823 22.5461 11.9908 22.5518 12.0031V12.3104C21.8064 12.3085 21.0715 12.4905 20.4143 12.8414C20.3574 11.9614 19.9155 11.1516 19.2053 10.6281C19.3551 10.4982 19.4945 10.3569 19.6225 10.2061C19.9317 9.85717 20.1668 9.44846 20.3138 9.00562C20.5111 8.34371 20.2759 8.01657 20.1147 7.88001C19.9535 7.74346 19.595 7.55855 18.9711 7.85631L18.972 7.85726C18.7293 7.97864 18.5045 8.13225 18.3035 8.31432C18.1584 7.58605 17.8 7 17.2414 7C16.6829 7 16.3254 7.58413 16.1794 8.31146C15.5582 7.76904 14.8262 7.48552 14.3662 7.88095C14.2069 8.0175 13.9699 8.34467 14.1671 9.00655V9.0056C14.3141 9.44845 14.5502 9.85621 14.8603 10.2052C15.0414 10.4176 15.2453 10.6092 15.4672 10.7779C14.7484 11.4019 14.3681 12.3303 14.443 13.2786L14.4895 13.8277C13.8532 13.235 13.0168 12.904 12.1473 12.9021C11.9415 12.9012 11.7367 12.9192 11.5347 12.9571C11.3716 12.9865 11.2075 12.9088 11.1269 12.7637C10.9828 12.4972 10.7381 12.299 10.447 12.2137C10.1559 12.1283 9.84294 12.1625 9.57744 12.3085L9.37925 12.4157L9.3802 12.4147C9.11277 12.5608 8.91458 12.8064 8.82925 13.0984C8.74391 13.3896 8.77805 13.7034 8.92503 13.9699C8.95442 14.0258 8.97055 14.0884 8.97055 14.151C8.9696 14.2477 8.93261 14.3416 8.86718 14.4127C8.13512 15.1989 7.81174 16.2827 7.99476 17.3419C7.39924 17.559 7.00286 18.1242 7 18.7586V21.0345C7 21.4365 7.16026 21.8225 7.44474 22.107C7.72921 22.3915 8.11516 22.5517 8.51725 22.5517V23.6896C7.67897 23.6896 7 24.3686 7 25.2069V27.4828C7 27.8848 7.16026 28.2708 7.44474 28.5553C7.72921 28.8398 8.11516 29 8.51725 29H26.7242C27.1263 29 27.5122 28.8397 27.7967 28.5553C28.0812 28.2708 28.2414 27.8848 28.2414 27.4828V25.2069C28.2414 24.8048 28.0812 24.4189 27.7967 24.1344C27.5122 23.8499 27.1263 23.6896 26.7242 23.6896V22.5517C27.1263 22.5517 27.5122 22.3914 27.7967 22.107C28.0812 21.8225 28.2415 21.4366 28.2415 21.0345ZM23.6519 10.1189C24.0246 9.74618 24.5566 9.57929 25.0753 9.67319C25.1692 10.1919 25.0023 10.7239 24.6296 11.0966C24.2569 11.4692 23.7249 11.6361 23.2062 11.5432C23.1123 11.0235 23.2783 10.4916 23.6519 10.1189ZM26.3451 16.862C26.3422 16.9891 26.3328 17.1152 26.3176 17.2413H20.0884L20.3776 13.7546C21.1391 13.2216 22.0703 12.9874 22.9928 13.0955C23.9165 13.2036 24.768 13.6474 25.3854 14.3415C26.0036 15.0357 26.3451 15.9326 26.3451 16.862ZM19.618 8.45087C19.6768 8.5457 19.5895 9.07862 19.0462 9.71302C18.8793 9.91026 18.6886 10.0857 18.4772 10.2346C18.3074 10.1691 18.131 10.1208 17.9509 10.0895C18.0334 9.85526 18.1529 9.63431 18.3036 9.43612C18.3122 9.42379 18.3197 9.41146 18.3273 9.39819C18.3719 9.3356 18.4203 9.27586 18.4724 9.21801C19.0129 8.5855 19.525 8.41958 19.618 8.45087ZM17.2331 7.75862C17.3402 7.79275 17.6209 8.25363 17.6209 9.08622V9.09286C17.4644 9.3157 17.3364 9.55752 17.2416 9.81356C17.1468 9.55563 17.0197 9.31098 16.8623 9.08623C16.8623 8.25364 17.143 7.79277 17.2331 7.75862ZM14.8519 8.46034C14.9562 8.41671 15.4674 8.58456 16.0174 9.22653C16.0752 9.29196 16.1293 9.36024 16.1786 9.43136C16.3483 9.65326 16.4773 9.90455 16.5579 10.172C16.4204 10.2137 16.2857 10.2649 16.1558 10.3265C15.8827 10.1625 15.64 9.95483 15.4351 9.71207C14.8927 9.07861 14.8064 8.54567 14.8519 8.46034ZM16.3313 11.0795V11.0804C16.5124 10.978 16.7077 10.9021 16.9106 10.8547C16.9514 10.8424 16.9931 10.8339 17.0358 10.8291C17.1714 10.8054 17.3089 10.7931 17.4464 10.7931C17.5185 10.8045 17.5925 10.7988 17.6683 10.8073C17.9111 10.831 18.1472 10.8974 18.3663 11.0027C19.0566 11.3194 19.5383 11.9651 19.6464 12.7171C19.6056 12.7001 19.562 12.6906 19.5175 12.6896H18.0002C17.7906 12.6896 17.6209 12.8594 17.6209 13.069C17.6209 13.2785 17.7906 13.4483 18.0002 13.4483H19.5175C19.5611 13.4473 19.6047 13.4388 19.6455 13.4227L19.635 13.544V13.5507L19.5478 14.5919C19.5374 14.5919 19.5279 14.5862 19.5175 14.5862H18.0002C17.7906 14.5862 17.6209 14.756 17.6209 14.9655C17.6209 15.1751 17.7906 15.3448 18.0002 15.3448H19.4852L19.3278 17.2414H16.4773C16.41 17.01 16.319 16.7853 16.2042 16.5729L15.3489 15.0177L15.2 13.216C15.1289 12.3435 15.5717 11.51 16.3341 11.0804L16.3313 11.0795ZM9.42208 14.9277C9.61742 14.7162 9.72553 14.4393 9.72553 14.1511C9.72647 13.9586 9.67811 13.7689 9.58423 13.6011C9.48466 13.4152 9.55389 13.1829 9.7388 13.0824L9.94079 12.9733C10.029 12.924 10.1333 12.9126 10.23 12.9411C10.3277 12.9695 10.4092 13.0368 10.4576 13.126C10.6586 13.4948 11.0446 13.7234 11.4647 13.7215C11.5329 13.7215 11.6003 13.7158 11.6676 13.7035C11.826 13.675 11.9862 13.6598 12.1474 13.6608C13.1346 13.6608 14.0421 14.1994 14.5143 15.0662L14.6281 15.2748C14.6329 15.2881 14.6395 15.3004 14.6461 15.3127L15.5423 16.9438C15.5954 17.0414 15.6428 17.142 15.6826 17.2453H8.74503C8.59141 16.4089 8.84267 15.5498 9.42208 14.9277ZM7.75879 21.0345V18.7587C7.75879 18.3395 8.09826 18.0001 8.51741 18.0001H26.7244C26.9254 18.0001 27.1189 18.0797 27.2611 18.2219C27.4033 18.3642 27.483 18.5576 27.483 18.7587V21.0345C27.483 21.2356 27.4033 21.429 27.2611 21.5713C27.1188 21.7135 26.9254 21.7931 26.7244 21.7931H8.51741C8.09826 21.7931 7.75879 21.4537 7.75879 21.0345ZM27.483 25.2071V27.483C27.483 27.684 27.4033 27.8774 27.2611 28.0197C27.1189 28.1619 26.9254 28.2416 26.7244 28.2416H8.51742C8.09827 28.2416 7.7588 27.9021 7.7588 27.483V25.2071C7.7588 24.7879 8.09827 24.4485 8.51742 24.4485H26.7244C26.9254 24.4485 27.1189 24.5281 27.2611 24.6704C27.4033 24.8126 27.483 25.0061 27.483 25.2071ZM25.9657 23.6898H9.27603V22.5519H25.9657V23.6898Z" fill="white"/>
<path d="M23.3197 14.5767C24.1523 14.5767 24.8265 15.2509 24.8275 16.0835C24.8275 16.2931 24.9972 16.4628 25.2068 16.4628C25.4164 16.4628 25.5861 16.2931 25.5861 16.0835C25.5842 14.8327 24.5705 13.819 23.3197 13.8181C23.1102 13.8181 22.9404 13.9878 22.9404 14.1974C22.9404 14.4069 23.1102 14.5767 23.3197 14.5767Z" fill="white"/>
<path d="M12.3197 14.9561C13.1523 14.9561 13.8265 15.6303 13.8275 16.4629C13.8275 16.6724 13.9972 16.8422 14.2068 16.8422C14.4164 16.8422 14.5861 16.6724 14.5861 16.4629C14.5842 15.2121 13.5705 14.1984 12.3197 14.1974C12.1102 14.1974 11.9404 14.3672 11.9404 14.5768C11.9404 14.7863 12.1102 14.9561 12.3197 14.9561Z" fill="white"/>
</svg>
