<svg width="36" height="36" viewBox="0 0 36 36" fill="none" xmlns="http://www.w3.org/2000/svg">
<rect width="36" height="36" rx="18" fill="#006633"/>
<path d="M25.4954 13.6234H25.9435V10.0563H22.3573V10.5021H25.2002L21.8872 13.7974L22.2042 14.1127L25.4954 10.8392V13.6234Z" fill="white"/>
<path d="M6 6.00094V12L7 12.5L6.99977 7.0007H28.9993V29.0002L26 29L25 30H29.9991V6L6 6.00094Z" fill="white"/>
<path d="M27.8661 23.333C27.8593 23.2997 27.8332 23.2856 27.8054 23.2854C27.7039 22.6012 27.3494 22.0714 26.9619 21.5104C26.5203 20.8709 26.0425 19.8876 26.7379 19.2342C26.8112 19.1653 26.7708 19.0153 26.6693 19.0007C26.4495 18.9693 26.261 18.987 26.076 19.0641C26.08 18.861 26.1189 18.6693 26.1989 18.4697C26.2519 18.3374 26.0752 18.175 25.9633 18.288C24.2651 20.004 21.7687 20.2794 19.5814 20.9627C17.3161 21.6703 15.0808 23.1418 14.655 25.7109C14.4586 26.8952 14.8588 28.3384 16.0123 28.8633C16.0672 28.8883 16.1034 28.8059 16.0589 28.7716C16.0021 28.7277 15.9483 28.6825 15.8961 28.6365C16.2422 28.5875 16.5776 28.5385 16.9293 28.5869C17.1801 28.6214 17.6317 28.6952 17.8258 28.8897C17.9565 29.0206 18.0126 29.138 18.0194 29.2417C17.9891 29.2746 17.9824 29.3295 18.0019 29.3701C17.8909 29.6877 17.2079 29.9908 16.604 29.7562C16.169 29.5871 15.9727 29.2237 15.7553 28.8329C15.7194 28.7684 15.619 28.8101 15.624 28.8788C15.6935 29.8178 16.8734 30.3437 17.6838 30.0185C18.3294 30.2753 19.0494 30.4039 19.7266 30.5199C20.4549 30.6446 21.1967 30.7345 21.9356 30.7485C23.1755 30.7722 24.3818 30.512 25.4205 29.7999C27.4641 28.3988 28.3624 25.7536 27.8661 23.333ZM15.6806 23.9378C16.4896 22.7073 17.7106 21.955 19.0577 21.4701C19.0865 21.4597 19.1157 21.4499 19.1446 21.4397C17.8983 22.2151 16.6085 23.4047 15.9357 24.7365C15.3728 25.8506 15.5661 27.352 16.0383 28.4742C15.965 28.5014 15.8937 28.5338 15.8245 28.5711C14.5057 27.3372 14.7166 25.4041 15.6806 23.9378ZM16.0849 28.4582C15.993 27.8586 15.7972 27.2819 15.7344 26.6752C15.65 25.8592 15.793 25.0716 16.263 24.394C17.0635 23.2401 18.1696 22.3048 19.2458 21.4298C19.2549 21.4225 19.2541 21.4118 19.2493 21.4032C20.2078 21.0756 21.2258 20.8504 22.2203 20.572C21.7247 20.8923 21.2469 21.2461 20.7639 21.5785C19.8952 22.1765 19.0215 22.785 18.292 23.5587C17.0533 24.8725 16.4539 26.5754 17.0123 28.3507C17.0204 28.3763 17.0594 28.368 17.0529 28.341C16.8375 27.4463 16.8077 26.5408 17.1193 25.6661C17.4372 24.7736 18.0242 24.0035 18.6995 23.3603C19.9214 22.1963 21.4517 21.4606 22.7547 20.4155C23.7349 20.1136 24.6758 19.7295 25.4955 19.1097C25.2016 20.0019 25.439 20.9398 25.4599 21.8574C25.5307 24.9659 23.7303 27.5649 20.5181 28.6129C20.0531 28.7649 23.131 28.4778 24.7884 25.4166C25.2542 24.5563 25.5353 23.5921 25.6054 22.6123C25.6906 21.4221 25.2437 20.2502 25.5511 19.0719C25.5515 19.0704 25.5505 19.0694 25.5506 19.068C25.6297 19.0067 25.708 18.944 25.7847 18.8781C25.771 19.0197 25.7738 19.1638 25.7953 19.3163C25.8102 19.4215 25.9283 19.4964 26.0217 19.4271C26.1084 19.4044 26.195 19.3818 26.2816 19.3592C26.1227 19.6373 26.0926 19.9453 26.1409 20.2564C25.9231 21.9976 26.8472 23.7487 26.4094 25.3775C26.1711 26.2636 25.5485 26.9596 24.7651 27.3957C24.7255 27.4177 24.7616 27.4842 24.8027 27.4664C26.12 26.8911 26.7394 25.5576 26.6723 24.1465C26.6156 22.9523 26.2032 21.779 26.2293 20.6176C26.3506 20.9895 26.5552 21.3503 26.754 21.6531C27.1613 22.2736 27.526 22.8614 27.545 23.6334C27.5644 24.4212 27.279 25.2089 26.8335 25.846C25.9444 27.1174 24.4571 27.8129 23.0661 28.3518C21.5365 28.9445 19.9741 29.26 18.3428 29.222C18.3605 28.5264 16.9063 28.1778 16.0849 28.4582ZM24.8001 29.8706C23.6811 30.4909 22.4046 30.557 21.1593 30.448C20.0609 30.3519 19.0089 30.0664 17.9315 29.8822C18.0963 29.7633 18.2213 29.6031 18.2888 29.4502C19.7626 29.6361 21.2699 29.3023 22.6621 28.8175C24.8886 28.0422 27.2582 26.8635 27.7598 24.4831C27.6869 26.6637 26.7849 28.7704 24.8001 29.8706Z" fill="white" stroke="white" stroke-width="0.3"/>
<path d="M17.9355 25.8214C18.8916 23.6254 21.1486 23.9173 23.7882 20.8424C24.4149 21.6039 23.4206 22.6675 23.118 23.3941C22.7653 24.2414 22.5196 25.1035 21.9968 25.8711C21.0649 27.2393 19.6415 28.2191 18.0341 28.6071C17.9519 28.6269 17.9917 28.7507 18.0733 28.732C19.848 28.3252 21.421 27.1946 22.3444 25.6198C22.8519 24.7543 23.0484 23.7576 23.53 22.8821C23.8913 22.2253 24.5194 21.3658 23.8477 20.6813C23.8127 20.6456 23.7618 20.6399 23.727 20.681C21.85 22.9031 20.3412 23.266 19.0665 24.2154C18.3662 24.737 17.8967 25.3967 17.634 26.2309C17.3831 27.0276 17.1191 28.0132 17.4428 28.8234C17.455 28.8539 17.4972 28.8424 17.4919 28.8098C17.3305 27.8098 17.5322 26.7476 17.9355 25.8214Z" fill="white" stroke="white" stroke-width="0.3"/>
<path d="M18.3684 27.6677C18.3722 27.673 18.3772 27.6776 18.3846 27.6794C19.4658 27.9427 20.0978 26.945 20.7025 26.2243C22.0266 24.6462 22.3681 24.3101 22.2101 23.7664C22.2027 23.7408 22.1718 23.7217 22.1467 23.7191C21.6597 23.6691 21.2016 23.9093 20.8129 24.1871C20.3742 24.5008 20.2305 24.9629 19.9604 25.4059C19.6576 25.9027 19.105 26.1682 18.772 26.652C18.3765 27.2265 18.313 27.8903 18.3245 27.8395C18.3374 27.7818 18.3523 27.7246 18.3684 27.6677ZM19.768 25.8565C20.3625 25.2961 20.2572 24.5169 21.4211 24.0095C21.7204 23.8791 22.2519 23.7875 22.0192 24.3049C21.8991 24.5722 20.8761 25.7773 20.6894 25.9982C20.0476 26.7575 19.4987 27.6548 18.3903 27.6184C18.3869 27.6183 18.3853 27.6206 18.3824 27.6214C18.7078 26.5348 19.3042 26.2937 19.768 25.8565Z" fill="white" stroke="white" stroke-width="0.3"/>
<path d="M8.53749 15.7916C8.53742 15.7895 8.53422 15.7894 8.53388 15.7914C8.28248 17.2742 8.31022 18.8675 8.33305 20.3681C8.35329 21.6988 8.48226 23.0485 9.08497 24.254C9.09863 24.2814 9.14578 24.2612 9.13453 24.2322C8.61318 22.8897 8.4542 21.4777 8.44049 20.0465C8.42693 18.6293 8.57981 17.2058 8.53749 15.7916Z" fill="white" stroke="white" stroke-width="0.3"/>
<path d="M9.47964 16.0053C9.44346 15.9712 9.39695 16.03 9.43111 16.0643C11.534 18.1779 12.447 21.0487 13.0864 23.8871C13.0927 23.9149 13.133 23.904 13.1288 23.8766C12.6864 20.9861 11.6508 18.052 9.47964 16.0053Z" fill="white" stroke="white" stroke-width="0.3"/>
<path d="M14.2241 21.2702C14.2348 21.3352 14.3399 21.3221 14.3388 21.2571C14.3179 20.0682 14.0453 18.7982 13.4303 17.7705C12.3858 16.0253 10.9605 15.9392 11.1653 16.0399C13.5178 17.1898 13.8199 18.8103 14.2241 21.2702Z" fill="white" stroke="white" stroke-width="0.3"/>
<path d="M13.6766 25.5985C13.6683 25.5183 13.706 25.3972 13.7222 25.2962C16.6936 23.2066 17.7851 18.496 13.9536 15.4592C13.3975 15.0184 12.7792 14.7025 12.0838 14.5548C11.2894 14.3861 10.5308 14.4448 9.73159 14.4137C8.69268 14.3733 9.48944 13.3614 8.7966 13.0752C8.46574 12.9387 8.23125 13.1911 8.08986 13.4779C8.04335 13.0217 8.15886 12.4326 7.66935 12.2619C7.26546 12.1211 7.02936 12.4941 7.01832 12.8445C6.88731 12.4845 6.57565 11.9743 6.17171 12.001C5.4287 12.0501 5.63407 13.0315 5.93475 13.407C5.96406 13.4436 6.01695 13.4111 6.00405 13.3683C5.92449 13.1042 5.60698 12.5909 5.96755 12.2714C6.12132 12.1352 6.38872 12.2548 6.50274 12.3933C6.76537 12.7123 6.9139 13.1683 7.0276 13.5595C7.03975 13.6013 7.10797 13.5888 7.111 13.5478C7.12338 13.3804 7.11333 13.225 7.08306 13.0751C7.10014 13.0703 7.11518 13.0557 7.11343 13.0352C7.39883 12.449 7.6015 12.3187 7.72143 12.6443C7.94672 12.9801 7.63196 13.4307 7.96614 13.9465C8.02083 14.0309 8.17467 14.0377 8.19906 13.9208C8.22952 13.7748 8.28648 13.4777 8.40463 13.4006C9.04202 12.9846 8.76679 13.845 8.92878 14.2555C9.10995 14.7147 9.58334 14.6634 9.99377 14.6447C11.2658 14.5866 12.5677 14.7847 13.6024 15.5664C14.6222 16.3367 15.5156 17.4872 15.8844 18.7221C16.5445 20.9322 15.6295 23.5847 13.5598 25.0562C13.5595 25.0562 13.5592 25.0562 13.5589 25.0562C13.545 25.0564 13.5353 25.0663 13.5295 25.0782C13.3125 25.2303 13.0848 25.3673 12.8464 25.4859C11.6777 26.0676 10.3252 26.3251 9.02539 26.3166C8.45876 26.3129 7.8972 26.2437 7.35986 26.1097C6.5183 25.3636 5.92932 24.5541 5.64847 23.4379C5.29716 22.0417 5.47889 20.5886 5.5721 19.1724C5.57437 19.1378 5.51623 19.1324 5.51105 19.1668C5.30394 20.5397 5.16675 21.9689 5.49391 23.3351C5.74039 24.3643 6.31205 25.5544 7.28077 26.0885C5.39281 25.593 3.81817 24.2913 3.4004 22.211C3.11464 20.7881 3.51527 19.2791 4.43074 18.1579C5.15628 17.2693 6.45511 16.7362 6.66966 15.5074C6.67507 15.4764 6.67092 15.45 6.66112 15.4277C6.68916 15.3455 6.69933 15.2567 6.68506 15.1636C6.67773 15.1158 6.59898 15.1032 6.57859 15.1482C6.54907 15.2133 6.51117 15.2881 6.46528 15.3606C6.40821 15.3837 6.38465 15.4281 6.37411 15.4853C6.1114 15.7937 5.76906 15.6812 5.72186 15.4832C5.71283 15.4453 5.77588 15.3888 5.77425 15.3466C5.75584 14.8699 5.54471 14.7283 5.29036 14.481C5.07662 14.2732 5.12846 14.3684 5.46991 14.0488C5.8307 13.7111 5.77873 13.7177 6.16974 13.9241C6.6359 14.1702 7.01335 14.5218 7.39762 14.9C7.42726 14.9291 7.48047 14.8869 7.46195 14.8509C7.11526 14.1766 6.36981 13.5664 5.59754 13.4718C5.00716 13.3995 4.5517 13.9331 4.93769 14.4538C5.14399 14.7321 5.59665 14.9255 5.49311 15.3705C5.46983 15.4705 5.40968 15.4634 5.39511 15.5584C5.34118 15.9098 5.87901 16.034 6.25977 15.8507C6.02314 16.3762 5.52937 16.7479 5.08547 17.1136C4.56657 17.541 4.10746 18.0125 3.75916 18.5923C3.05956 19.7567 2.81938 21.1657 3.13985 22.4895C3.79308 25.188 6.31823 26.6336 8.96078 26.6539C9.20664 27.1631 9.92609 27.5704 10.45 27.4342C10.4532 27.4334 10.4562 27.4317 10.4591 27.4301C10.6127 27.5669 10.8075 27.6279 11.0225 27.5956C11.1418 27.5776 11.2193 27.5298 11.2603 27.4493C11.4049 27.6128 11.572 27.7565 11.7924 27.8054C12.0008 27.8517 12.2505 27.8208 12.4028 27.6577C12.4691 27.5867 12.4993 27.5044 12.5269 27.4134C12.6034 27.1602 12.606 27.0598 12.8905 26.988C13.3746 26.8657 13.8026 26.7359 13.7636 26.1411C13.7516 25.9572 13.6955 25.7804 13.6766 25.5985ZM11.0046 27.4437C10.7997 27.476 10.6042 27.4037 10.4632 27.2523C10.4174 27.2031 10.3322 27.2677 10.3608 27.323C10.1006 27.2529 9.84246 27.1923 9.60886 27.0472C9.43508 26.9392 9.31544 26.8013 9.2013 26.6522C9.55659 26.6443 9.91394 26.6163 10.2697 26.5676C10.6237 26.7759 10.8842 26.9978 11.1576 27.3284C11.1242 27.3853 11.0947 27.4295 11.0046 27.4437ZM12.744 26.7786C12.6169 26.8031 12.5466 26.8004 12.4547 26.9059C12.2601 27.1293 12.4674 27.5015 12.0268 27.6038C11.6669 27.6873 11.3901 27.2572 11.1918 27.0258C11.0113 26.8152 10.808 26.6343 10.5687 26.5216C11.5057 26.3623 12.4223 26.0587 13.2439 25.5987C13.3137 25.5596 13.3825 25.5185 13.4506 25.4763C13.4458 25.4989 13.4428 25.518 13.4431 25.5306C13.4486 25.7208 13.5388 25.9081 13.5455 26.1002C13.567 26.7103 13.1857 26.6934 12.744 26.7786Z" fill="white" stroke="white" stroke-width="0.3"/>
</svg>
