<svg width="140" height="140" viewBox="0 0 140 140" fill="none" xmlns="http://www.w3.org/2000/svg">
<rect width="140" height="140" rx="12" fill="#D0F19E"/>
<circle opacity="0.6" cx="70" cy="70" r="45" fill="white"/>
<path d="M116.907 113.22H22.7357C22.3294 113.22 22 113.584 22 114.034C22 114.484 22.3294 114.848 22.7357 114.848H116.907C117.313 114.848 117.643 114.484 117.643 114.034C117.643 113.584 117.313 113.22 116.907 113.22Z" fill="#1A5C4B"/>
<path d="M73.0954 103.805C73.7649 103.805 74.3902 103.682 74.9788 103.446C76.5459 102.803 77.8187 101.321 78.7677 99.0329C78.9443 98.6258 78.7824 98.1454 78.4072 97.9581C76.3472 96.8995 74.5079 96.6959 72.9409 97.3311C71.7208 97.8342 70.6747 98.8579 69.8214 100.368C68.9682 98.8579 67.9221 97.8342 66.702 97.3311C65.1349 96.6959 63.2957 96.8995 61.2357 97.9581C60.8604 98.1454 60.6986 98.6258 60.8752 99.0329C61.8242 101.321 63.097 102.803 64.6641 103.446C65.2526 103.682 65.878 103.805 66.5475 103.805C67.3409 103.805 68.19 103.628 69.0857 103.284V108.548C67.3021 108.831 65.8121 110.125 65.1055 111.89H74.5374C73.8307 110.125 72.3408 108.831 70.5572 108.548V103.284C71.4529 103.628 72.302 103.805 73.0954 103.805Z" fill="#1A5C4B"/>
<path d="M106.18 103.805C106.843 103.805 107.468 103.682 108.064 103.446C109.624 102.803 110.896 101.321 111.853 99.0329C112.022 98.6258 111.86 98.1454 111.492 97.9581C109.425 96.8995 107.586 96.6959 106.019 97.3311C104.798 97.8345 103.756 98.8591 102.901 100.371C102.047 98.8591 101 97.8345 99.7797 97.3311C98.22 96.6959 96.3734 96.8995 94.3133 97.9581C93.9381 98.1454 93.7836 98.6258 93.9528 99.0329C95.2624 102.2 97.1974 103.805 99.6252 103.805C100.419 103.805 101.268 103.628 102.164 103.283V108.548C100.38 108.831 98.89 110.125 98.1832 111.89H107.615C106.909 110.126 105.419 108.832 103.636 108.548V103.284C104.532 103.628 105.382 103.805 106.18 103.805Z" fill="#1A5C4B"/>
<path d="M40.0176 103.805C42.4455 103.805 44.3804 102.2 45.69 99.0329C45.8592 98.6258 45.7047 98.1454 45.3295 97.9581C43.2695 96.8995 41.4302 96.6959 39.8632 97.3311C38.6424 97.8345 37.5958 98.8591 36.7423 100.371C35.8872 98.8591 34.845 97.8345 33.6243 97.3311C32.0572 96.6959 30.2179 96.8995 28.1506 97.9581C27.7827 98.1454 27.6209 98.6258 27.7901 99.0329C28.7465 101.321 30.0193 102.803 31.579 103.446C32.1749 103.682 32.8003 103.805 33.4624 103.805C34.2609 103.805 35.1111 103.628 36.0069 103.284V108.548C34.2238 108.832 32.7343 110.126 32.0278 111.89H41.4596C40.7528 110.125 39.2624 108.831 37.4784 108.548V103.283C38.3745 103.628 39.2239 103.805 40.0176 103.805Z" fill="#1A5C4B"/>
<path d="M58.7347 43.5691C59.6705 45.1134 61.2519 45.9335 62.9651 45.9335H76.6778C78.391 45.9335 79.9723 45.1134 80.9081 43.5691C81.8159 42.071 81.9833 40.3101 81.3673 38.6481C80.3509 35.9055 78.5742 33.7157 76.3613 32.2426C74.3067 31.4335 72.1043 31 69.8214 31C67.5434 31 65.3456 31.4557 63.2947 32.2593C61.0756 33.7323 59.294 35.9511 58.2756 38.6991C57.6595 40.3611 57.8269 42.071 58.7347 43.5691Z" fill="#1A5C4B"/>
<path d="M52.8779 52.8689C53.4818 53.8654 54.2412 54.7332 55.1071 55.4339V71.8948C55.1071 72.3445 55.4366 72.7091 55.8429 72.7091H61.189L60.8628 73.0812C60.5797 73.4041 60.5869 73.9194 60.8786 74.2327C61.0216 74.3861 61.2062 74.4625 61.3909 74.4625C61.5827 74.4625 61.7745 74.3798 61.919 74.2152L62.8664 73.1343C63.6075 73.8705 64.4571 74.4902 65.4071 74.9583V70.3231C65.4071 69.8734 65.9194 69.5477 66.3257 69.5477H73.3171C73.7234 69.5477 74.2357 69.8734 74.2357 70.3231V74.9583C75.1858 74.4902 76.0354 73.8705 76.7765 73.1343L77.7239 74.2152C77.8683 74.3798 78.0601 74.4625 78.252 74.4625C78.4366 74.4625 78.6213 74.3861 78.7642 74.2327C79.0559 73.9194 79.0631 73.4041 78.78 73.0812L78.4539 72.7091H83.8C84.2063 72.7091 84.5357 72.3445 84.5357 71.8948V55.4383C85.4016 54.7387 86.161 53.8718 86.7649 52.8752C88.3688 50.2369 88.6631 46.9803 87.5742 44.0489C86.2321 40.4269 84.0287 37.3914 81.2833 35.1569C81.853 36.058 82.341 37.0349 82.7288 38.0812C83.5338 40.2537 83.3157 42.5199 82.1303 44.4761C80.9207 46.4724 78.8824 47.562 76.6778 47.562H62.9651C60.7604 47.562 58.7221 46.4724 57.5126 44.4761C56.3271 42.5199 56.109 40.2027 56.9141 38.0303C57.3047 36.9764 57.7963 36.018 58.3713 35.1116C55.6205 37.3426 53.4127 40.3903 52.0686 44.0173C50.9798 46.9487 51.2741 50.2306 52.8779 52.8689ZM79.3931 57.3335C80.6853 57.3335 81.9289 56.9856 83.0643 56.3901V71.0805H78.3766C79.5001 69.2144 80.1214 66.9589 80.1214 64.5643V62.1215C80.1214 61.6736 79.7903 61.4049 79.3857 61.4049H70.5571V57.3335H79.3931ZM60.2498 57.3335H69.0857V61.4049H60.2571C59.8525 61.4049 59.5214 61.6736 59.5214 62.1215V64.5643C59.5214 66.9589 60.1427 69.2144 61.2663 71.0805H56.5786V56.3875C57.714 56.9843 58.9575 57.3335 60.2498 57.3335Z" fill="#1A5C4B"/>
<path d="M22.5371 44.7934L39.4585 49.9722C39.5247 49.9967 39.5909 50.0048 39.6571 50.0048H50.1926C49.7511 47.8306 49.9204 45.5263 50.7076 43.401C51.1122 42.3017 51.5978 41.2431 52.1643 40.2334H22.7357C22.3311 40.2334 22 40.5998 22 41.0477V44.0035C22 44.3699 22.2207 44.6957 22.5371 44.7934Z" fill="#1A5C4B"/>
<path d="M116.907 40.2334H87.4638C88.0303 41.2513 88.5233 42.318 88.9352 43.4335C89.7225 45.5507 89.8844 47.8388 89.4503 50.0048H99.9857C100.052 50.0048 100.118 49.9967 100.184 49.9722L117.106 44.7934C117.422 44.6957 117.643 44.3699 117.643 44.0035V41.0477C117.643 40.5998 117.312 40.2334 116.907 40.2334Z" fill="#1A5C4B"/>
<path d="M92.6117 88.8611C92.3279 88.5383 91.8627 88.5311 91.5713 88.8436C91.2796 89.1569 91.2724 89.6722 91.5555 89.9951L93.0923 91.7485C93.2367 91.9131 93.4286 91.9958 93.6204 91.9958C93.8051 91.9958 93.9897 91.9195 94.1327 91.766C94.4244 91.4527 94.4316 90.9374 94.1485 90.6145L92.6117 88.8611Z" fill="#1A5C4B"/>
<path d="M82.3501 78.3234C82.0584 78.6367 82.0516 79.152 82.3343 79.4749L83.8715 81.2283C84.0159 81.3929 84.2077 81.4756 84.3996 81.4756C84.5842 81.4756 84.7689 81.3993 84.9118 81.2458C85.2035 80.9325 85.2104 80.4172 84.9276 80.0943L83.3905 78.3409C83.107 78.0181 82.6418 78.0101 82.3501 78.3234Z" fill="#1A5C4B"/>
<path d="M90.5468 88.489C90.7314 88.489 90.9161 88.4126 91.0591 88.2591C91.3508 87.9458 91.3579 87.4305 91.0749 87.1077L89.5381 85.3543C89.2546 85.0314 88.7894 85.0243 88.4977 85.3368C88.206 85.6501 88.1988 86.1654 88.4819 86.4882L90.0187 88.2417C90.1631 88.4063 90.355 88.489 90.5468 88.489Z" fill="#1A5C4B"/>
<path d="M85.4241 81.8304C85.1324 82.1437 85.1252 82.659 85.4083 82.9818L86.9451 84.7353C87.0895 84.8999 87.2814 84.9826 87.4732 84.9826C87.6578 84.9826 87.8425 84.9062 87.9855 84.7528C88.2772 84.4395 88.2843 83.9242 88.0013 83.6013L86.4645 81.8479C86.181 81.5246 85.7154 81.5171 85.4241 81.8304Z" fill="#1A5C4B"/>
<path d="M79.2765 74.8171C78.9848 75.1304 78.978 75.6457 79.2607 75.9685L80.7975 77.7215C80.9419 77.8861 81.1338 77.9688 81.3256 77.9688C81.5102 77.9688 81.6949 77.8925 81.8379 77.739C82.1296 77.4257 82.1364 76.9104 81.8537 76.5876L80.3169 74.8346C80.0338 74.5113 79.5678 74.5041 79.2765 74.8171Z" fill="#1A5C4B"/>
<path d="M46.5505 91.7485L48.0873 89.9951C48.3704 89.6722 48.3632 89.1569 48.0715 88.8436C47.7802 88.5311 47.3139 88.5383 47.0312 88.8611L45.4944 90.6145C45.2113 90.9374 45.2185 91.4527 45.5102 91.766C45.6531 91.9195 45.8378 91.9958 46.0224 91.9958C46.2143 91.9958 46.4061 91.9131 46.5505 91.7485Z" fill="#1A5C4B"/>
<path d="M50.1048 85.3543L48.568 87.1077C48.2849 87.4305 48.2921 87.9458 48.5838 88.2591C48.7268 88.4126 48.9114 88.489 49.096 88.489C49.2879 88.489 49.4797 88.4063 49.6241 88.2417L51.1609 86.4882C51.444 86.1654 51.4368 85.6501 51.1451 85.3368C50.8538 85.0243 50.3879 85.0314 50.1048 85.3543Z" fill="#1A5C4B"/>
<path d="M53.1784 81.8479L51.6416 83.6013C51.3585 83.9242 51.3657 84.4395 51.6574 84.7528C51.8004 84.9062 51.985 84.9826 52.1697 84.9826C52.3615 84.9826 52.5533 84.8999 52.6977 84.7353L54.2345 82.9818C54.5176 82.659 54.5104 82.1437 54.2187 81.8304C53.927 81.5171 53.4618 81.5246 53.1784 81.8479Z" fill="#1A5C4B"/>
<path d="M59.326 74.8346L57.7892 76.5876C57.5065 76.9104 57.5133 77.4257 57.805 77.739C57.948 77.8925 58.1326 77.9688 58.3173 77.9688C58.5091 77.9688 58.7009 77.8861 58.8454 77.7215L60.3822 75.9685C60.6649 75.6457 60.6581 75.1304 60.3664 74.8171C60.075 74.5041 59.6095 74.5113 59.326 74.8346Z" fill="#1A5C4B"/>
<path d="M56.2524 78.3409L54.7152 80.0943C54.4325 80.4172 54.4393 80.9325 54.731 81.2458C54.874 81.3993 55.0586 81.4756 55.2433 81.4756C55.4351 81.4756 55.6269 81.3929 55.7714 81.2283L57.3085 79.4749C57.5912 79.152 57.5844 78.6367 57.2927 78.3234C57.001 78.0101 56.5358 78.0181 56.2524 78.3409Z" fill="#1A5C4B"/>
<path d="M69.8214 88.9946C69.4151 88.9946 69.0857 89.3592 69.0857 89.8089V92.2518C69.0857 92.7015 69.4151 93.0661 69.8214 93.0661C70.2277 93.0661 70.5571 92.7015 70.5571 92.2518V89.8089C70.5571 89.3592 70.2277 88.9946 69.8214 88.9946Z" fill="#1A5C4B"/>
<path d="M70.5571 75.9369C70.8769 75.9158 71.1955 75.8827 71.4718 75.834C71.8742 75.7654 72.0286 75.6617 72.7643 75.5426V71.1763H66.8786V75.5426C67.6143 75.6617 67.7458 75.7654 68.1482 75.834C68.4435 75.886 68.7633 75.9172 69.0857 75.9379V77.5947C69.0857 78.0444 69.4151 78.409 69.8214 78.409C70.2277 78.409 70.5571 78.0444 70.5571 77.5947V75.9369Z" fill="#1A5C4B"/>
<path d="M70.5571 84.9232C70.5571 84.4735 70.2277 84.1089 69.8214 84.1089C69.4151 84.1089 69.0857 84.4735 69.0857 84.9232V87.366C69.0857 87.8157 69.4151 88.1803 69.8214 88.1803C70.2277 88.1803 70.5571 87.8157 70.5571 87.366V84.9232Z" fill="#1A5C4B"/>
<path d="M70.5571 80.0374C70.5571 79.5877 70.2277 79.2231 69.8214 79.2231C69.4151 79.2231 69.0857 79.5877 69.0857 80.0374V82.4803C69.0857 82.93 69.4151 83.2946 69.8214 83.2946C70.2277 83.2946 70.5571 82.93 70.5571 82.4803V80.0374Z" fill="#1A5C4B"/>
</svg>
