<svg width="350" height="350" viewBox="0 0 350 350" fill="none" xmlns="http://www.w3.org/2000/svg">
<rect width="350" height="350" rx="175" fill="#006633"/>
<path d="M92.631 148.055C95.8476 145.776 99.2421 143.759 102.782 142.023C103.199 141.806 103.516 141.436 103.665 140.989C103.813 140.543 103.782 140.056 103.577 139.633C103.372 139.21 103.011 138.883 102.569 138.722C102.127 138.561 101.639 138.579 101.21 138.772C97.4863 140.592 93.9164 142.712 90.5359 145.111C90.2275 145.335 89.9975 145.649 89.8788 146.011C89.7601 146.373 89.7588 146.763 89.875 147.125C89.9911 147.488 90.2189 147.805 90.5257 148.03C90.8325 148.255 91.2027 148.378 91.5834 148.38C91.9579 148.383 92.324 148.27 92.631 148.055Z" fill="white"/>
<path d="M226.361 225.488C225.837 218.712 224.189 212.071 221.485 205.836C220.343 203.259 218.481 201.066 216.123 199.521C213.765 197.977 211.01 197.147 208.191 197.131H179.292C181.284 180.433 176.568 163.628 166.18 150.405C171.328 142.379 173.894 132.967 173.531 123.439C173.531 122.96 173.34 122.5 173.002 122.161C172.663 121.823 172.204 121.632 171.725 121.632L161.231 121.994C160.752 121.994 160.292 122.184 159.953 122.523C159.615 122.861 159.424 123.321 159.424 123.8C159.652 129.44 158.407 135.042 155.812 140.055C146.542 132.43 135.238 127.695 123.301 126.437H123.265C112.774 125.406 102.19 126.951 92.4326 130.939C82.6749 134.927 74.0384 141.237 67.2731 149.321C44.8585 175.818 54.0158 204.355 62.0894 229.552C63.4621 233.832 63.8956 236.162 66.3339 238.763L66.6952 239.179C69.5489 241.996 72.2401 242.412 76.3582 243.766C85.0738 246.779 93.9722 249.234 102.999 251.117C110.549 274.598 132.025 293.725 161.971 294.971C162.573 295.01 163.176 295.01 163.777 294.971C201.472 295.026 229.396 262.659 226.361 225.488ZM207.415 200.743C209.725 200.734 211.988 201.392 213.933 202.639C215.878 203.885 217.421 205.666 218.378 207.769C220.838 213.502 222.316 219.608 222.749 225.831C222.829 226.449 222.776 227.076 222.593 227.672C222.411 228.267 222.103 228.817 221.691 229.284C221.279 229.75 220.772 230.124 220.203 230.379C219.635 230.634 219.019 230.764 218.396 230.762H216.879C215.815 230.762 214.761 230.973 213.778 231.382C212.796 231.791 211.903 232.391 211.153 233.146C204.832 239.468 202.935 241.96 197.914 243.766C195.845 244.479 193.673 244.845 191.484 244.85H179.13C176.6 244.856 174.095 244.361 171.757 243.394C169.42 242.427 167.297 241.006 165.511 239.215L159.027 232.712C156.896 230.576 154.361 228.883 151.571 227.733C148.78 226.583 145.79 225.998 142.771 226.011H131.591C128.94 226.019 126.315 225.501 123.865 224.487C121.416 223.474 119.192 221.984 117.322 220.105L109.357 212.086C108.795 211.521 108.398 210.815 108.207 210.042C108.016 209.268 108.039 208.458 108.273 207.697L108.436 207.281C109.278 205.342 110.669 203.692 112.437 202.533C114.205 201.375 116.274 200.759 118.388 200.761L207.415 200.743ZM166.613 186.095C165.652 189.887 164.34 193.582 162.694 197.131H155.848C158.246 193.478 160.365 189.65 162.188 185.68C163.652 185.915 165.13 186.053 166.613 186.095ZM175.644 197.131H166.649C168.203 193.543 169.442 189.826 170.352 186.023C172.186 185.878 174.001 185.552 175.77 185.047C176.117 189.072 176.044 193.121 175.554 197.131H175.644ZM163.127 125.552L169.954 125.245C169.894 136.071 165.761 146.479 158.377 154.396C158.072 154.748 157.694 155.031 157.271 155.224C156.847 155.418 156.386 155.518 155.92 155.518C155.455 155.518 154.994 155.418 154.57 155.224C154.146 155.031 153.769 154.748 153.464 154.396C152.854 153.778 152.512 152.944 152.512 152.076C152.512 151.207 152.854 150.373 153.464 149.755C159.559 143.154 163.001 134.535 163.127 125.552ZM154.096 143.18C153.14 144.639 152.065 146.017 150.881 147.298C149.967 148.293 149.356 149.528 149.121 150.859C148.886 152.189 149.037 153.559 149.555 154.807C150.074 156.055 150.938 157.128 152.047 157.9C153.156 158.672 154.462 159.111 155.812 159.165C156.803 159.19 157.788 159.003 158.7 158.617C159.613 158.231 160.433 157.654 161.104 156.925C162.144 155.814 163.127 154.65 164.048 153.439C170.252 161.599 174.217 171.236 175.554 181.399C162.368 185.427 147.359 178.383 137.443 168.485C134.367 165.425 131.68 161.997 129.442 158.28L129.243 157.937C129.063 157.937 120.339 143.83 124.601 130.284C135.424 131.74 145.619 136.208 154.024 143.18H154.096ZM77.46 240.316C73.2155 238.98 71.3009 238.619 69.2419 236.704C68.8432 236.23 68.6313 235.626 68.6458 235.006C68.3027 224.585 67.7789 215.409 70.2353 205.15C70.3 204.915 70.3164 204.67 70.2837 204.428C70.251 204.187 70.1698 203.954 70.0449 203.745C69.92 203.536 69.7541 203.354 69.5571 203.211C69.3601 203.067 69.1362 202.965 68.8987 202.91C68.6674 202.854 68.4273 202.844 68.192 202.881C67.9568 202.917 67.7311 203 67.528 203.124C67.3249 203.248 67.1484 203.412 67.0085 203.604C66.8687 203.797 66.7683 204.015 66.7132 204.247C65.1264 211.418 64.4767 218.764 64.7806 226.102C56.7973 201.357 49.5726 175.818 70.1088 151.651C76.2596 144.293 84.0555 138.486 92.8661 134.699C101.677 130.911 111.255 129.251 120.826 129.851C120.555 130.826 120.321 131.855 120.176 132.686C116.435 133.274 112.754 134.192 109.177 135.432C108.74 135.6 108.386 135.931 108.189 136.354C107.992 136.778 107.966 137.262 108.118 137.704C108.27 138.146 108.588 138.512 109.004 138.725C109.421 138.938 109.903 138.981 110.351 138.845C113.4 137.789 116.529 136.973 119.707 136.407C119.596 138.281 119.657 140.161 119.887 142.024C114.439 144.383 109.231 147.263 104.336 150.622C104.14 150.757 103.973 150.929 103.844 151.129C103.715 151.329 103.627 151.552 103.584 151.786C103.541 152.02 103.545 152.26 103.595 152.493C103.645 152.725 103.74 152.946 103.875 153.141C104.011 153.337 104.183 153.504 104.383 153.633C104.583 153.762 104.806 153.851 105.04 153.893C105.274 153.936 105.514 153.932 105.746 153.882C105.979 153.832 106.199 153.737 106.395 153.602C110.832 150.537 115.549 147.901 120.483 145.727C121.49 150.2 123.158 154.497 125.432 158.478C120.917 161.964 116.275 165.884 111.615 170.164C111.354 170.408 111.171 170.724 111.09 171.072C111.008 171.42 111.032 171.785 111.157 172.119C111.283 172.454 111.505 172.743 111.796 172.952C112.086 173.16 112.432 173.277 112.789 173.289C114.451 173.289 114.595 171.375 127.238 161.603C134.21 172.44 145.734 181.724 158.576 184.939C156.557 189.185 154.202 193.262 151.531 197.131H118.406C115.593 197.143 112.844 197.967 110.488 199.505C108.133 201.044 106.273 203.23 105.131 205.8C101.173 215.148 99.4652 225.294 100.146 235.422C97.8578 235.966 95.5426 236.388 93.2099 236.686C92.7362 236.745 92.305 236.989 92.0106 237.364C91.7161 237.74 91.5824 238.217 91.6385 238.691C91.6917 239.131 91.9053 239.537 92.2384 239.83C92.5716 240.123 93.0009 240.284 93.4447 240.28C95.7854 240.004 98.1075 239.588 100.398 239.034C100.739 241.78 101.258 244.501 101.952 247.18C93.664 245.36 85.4868 243.068 77.46 240.316ZM163.813 291.413C147.72 291.413 137.461 273.785 133.108 258.306C133.053 258.067 132.95 257.842 132.805 257.644C132.661 257.446 132.477 257.28 132.266 257.155C132.054 257.031 131.82 256.951 131.577 256.92C131.334 256.889 131.087 256.907 130.851 256.975C130.615 257.042 130.396 257.157 130.206 257.312C130.016 257.467 129.859 257.66 129.746 257.877C129.633 258.095 129.565 258.333 129.547 258.577C129.529 258.822 129.561 259.068 129.641 259.299C132.657 270.48 138.581 282.382 147.757 289.39C137.777 286.67 128.671 281.414 121.323 274.135C113.974 266.857 108.633 257.801 105.817 247.848C102.784 236.673 102.865 224.88 106.052 213.748C106.558 214.452 106.25 214.091 114.776 222.598C116.98 224.812 119.601 226.568 122.487 227.764C125.373 228.961 128.467 229.574 131.591 229.57H142.844C147.569 229.551 152.133 231.289 155.65 234.446C156.408 235.151 156.065 234.844 162.965 241.671C165.091 243.815 167.624 245.513 170.416 246.663C173.207 247.814 176.201 248.395 179.22 248.372C192.333 248.372 193.254 248.516 196.126 247.92C195.071 254.509 193.252 260.952 190.707 267.12C190.528 267.561 190.529 268.055 190.712 268.495C190.895 268.935 191.244 269.284 191.683 269.468C192.124 269.648 192.618 269.646 193.057 269.464C193.497 269.281 193.847 268.932 194.031 268.493C196.878 261.542 198.838 254.26 199.865 246.819C205.41 244.669 207.92 241.4 213.718 235.638C216.391 232.965 218.902 235.638 222.948 232.893C221.972 264.79 197.282 291.124 163.813 291.413Z" fill="white"/>
<path d="M130.201 204.805C128.875 204.824 127.604 205.338 126.638 206.247C125.672 207.156 125.081 208.393 124.981 209.716C124.882 211.038 125.281 212.35 126.1 213.394C126.919 214.437 128.098 215.136 129.407 215.353C133.873 215.67 138.353 215.743 142.827 215.57C150.81 215.583 158.464 218.752 164.121 224.384C164.645 224.89 163.814 224.059 170.624 230.868C171.73 232.006 173.053 232.911 174.514 233.531C175.974 234.151 177.544 234.474 179.131 234.481H191.485C193.072 234.474 194.642 234.151 196.102 233.531C197.563 232.911 198.885 232.006 199.992 230.868C206.242 224.583 206.892 223.644 209.222 222.361C210.996 221.386 212.385 219.833 213.157 217.961C213.929 216.089 214.038 214.009 213.466 212.066C212.999 210.562 212.451 209.085 211.823 207.641C211.445 206.79 210.827 206.067 210.044 205.563C209.26 205.059 208.347 204.796 207.416 204.805H130.201ZM207.416 208.418C207.642 208.41 207.866 208.467 208.061 208.582C208.256 208.698 208.415 208.866 208.517 209.068C209.077 210.404 209.583 211.759 210.017 213.15C210.318 214.299 210.226 215.516 209.754 216.606C209.283 217.696 208.459 218.597 207.416 219.164C204.544 220.808 203.135 222.524 197.427 228.195C196.649 228.977 195.722 229.597 194.702 230.019C193.682 230.44 192.589 230.656 191.485 230.652H179.131C178.027 230.656 176.934 230.44 175.914 230.019C174.894 229.597 173.967 228.977 173.189 228.195L166.596 221.603C160.242 215.397 151.709 211.928 142.827 211.94C130.671 211.94 128.377 212.463 128.504 209.989C128.508 209.772 128.556 209.559 128.644 209.361C128.733 209.163 128.86 208.985 129.018 208.837C129.176 208.689 129.362 208.574 129.565 208.499C129.769 208.424 129.985 208.39 130.201 208.399L207.416 208.418Z" fill="white"/>
<mask id="path-5-outside-1_29_4" maskUnits="userSpaceOnUse" x="157.953" y="51.9995" width="141" height="150" fill="black">
<rect fill="white" x="157.953" y="51.9995" width="141" height="150"/>
<path fill-rule="evenodd" clip-rule="evenodd" d="M203.704 56.0409C204.513 55.9025 205.329 55.8045 206.15 55.7473L206.007 55.4584L207.821 54.9995L221.956 59.9653C223.779 61.1867 225.439 62.6468 226.892 64.3104C229.672 67.5027 231.618 71.3481 232.553 75.4963C233.488 79.6444 233.383 83.9634 232.246 88.0596L227.876 103.817L227.951 103.856L235.855 93.0643C238.274 89.7644 241.332 86.998 244.843 84.9341C248.354 82.8702 252.244 81.5522 256.275 81.0605C260.306 80.5688 264.394 80.9138 268.289 82.0744C272.184 83.235 275.804 85.1869 278.929 87.8107L295.801 101.988V101.987C296.27 102.381 296.597 102.92 296.731 103.522C296.865 104.124 296.799 104.753 296.543 105.313C296.287 105.872 295.856 106.331 295.315 106.616C294.775 106.902 294.157 106.999 293.557 106.892L274.058 103.425C262.971 101.449 251.551 103.472 241.787 109.143L236.595 112.157L241.658 111.197C247.394 110.113 253.304 110.451 258.882 112.182C264.461 113.914 269.542 116.987 273.69 121.139C277.839 125.291 280.931 130.398 282.703 136.023C284.475 141.648 284.873 147.624 283.864 153.439L279.697 177.431C279.589 178.051 279.278 178.617 278.813 179.035C278.348 179.454 277.757 179.702 277.135 179.738C277.081 179.743 277.028 179.743 276.974 179.743H276.974C276.379 179.743 275.8 179.548 275.324 179.188C274.847 178.828 274.497 178.322 274.327 177.746L265.601 148.118C264.182 143.319 261.554 138.976 257.975 135.515C256.385 133.977 254.623 132.632 252.724 131.508C250.82 130.384 248.796 129.483 246.691 128.823L236.456 125.64C236.318 126.317 236.116 126.978 235.852 127.615L241.533 132.783C244.843 135.796 247.485 139.483 249.286 143.603C251.087 147.723 252.006 152.182 251.983 156.686C251.959 161.191 250.994 165.64 249.151 169.74C247.307 173.841 244.627 177.5 241.286 180.478L227.997 192.314C227.568 192.697 227.031 192.936 226.461 192.997C225.892 193.058 225.318 192.938 224.818 192.654C224.319 192.371 223.919 191.937 223.673 191.413C223.428 190.89 223.35 190.302 223.449 189.731L224.154 185.677C227.095 168.869 226.728 151.639 223.074 134.976C215.942 155.71 211.244 177.202 209.064 199.011H203.508C203.557 198.509 203.607 198.008 203.659 197.507L191.137 197.62C191.026 198.084 190.916 198.547 190.808 199.011H185.132C190.721 174.537 199.468 150.913 211.15 128.746C211.074 128.725 210.998 128.702 210.923 128.678L210.923 128.678L210.922 128.678C210.887 128.667 210.852 128.656 210.817 128.646L208.882 130.016C204.868 132.862 201.214 136.196 198.004 139.943L197.84 140.134C190.725 148.435 185.976 158.539 184.101 169.362C183.993 169.982 183.682 170.548 183.217 170.966C182.752 171.385 182.161 171.633 181.54 171.669C181.485 171.674 181.432 171.674 181.378 171.674H181.377C180.782 171.674 180.204 171.48 179.727 171.12C179.25 170.761 178.9 170.255 178.73 169.678L175.524 158.814C174.123 154.067 173.764 149.068 174.471 144.166C175.178 139.263 176.934 134.576 179.616 130.432C182.299 126.287 185.843 122.785 190.001 120.169C194.16 117.554 198.833 115.889 203.693 115.29C204.007 114.247 204.475 113.259 205.082 112.359L203.016 111.227C190.673 104.479 176.806 101.102 162.781 101.427C162.188 101.441 161.606 101.262 161.122 100.916C160.637 100.569 160.276 100.074 160.091 99.504C159.906 98.9337 159.907 98.3184 160.094 97.7489C160.282 97.1794 160.645 96.686 161.131 96.3416L168.842 90.8748C172.551 88.2455 176.766 86.4371 181.212 85.5674C185.659 84.6978 190.236 84.7865 194.647 85.8278C199.057 86.8691 203.201 88.8395 206.807 91.6106C210.414 94.3817 213.403 97.8911 215.579 101.91L216.915 104.382L215.664 92.31C215.302 88.7532 214.293 85.2948 212.688 82.109C210.657 78.0513 207.718 74.5286 204.106 71.8207C200.494 69.1127 196.308 67.294 191.879 66.509L190.387 66.2433C189.792 66.1375 189.247 65.8371 188.837 65.3882C188.426 64.9393 188.173 64.3667 188.115 63.758C188.056 63.1493 188.197 62.5381 188.515 62.018C188.833 61.498 189.311 61.0977 189.875 60.8786L198.946 57.3552C199.281 57.2256 199.618 57.1033 199.958 56.9886L203.704 56.0409ZM223.975 128.106C225.047 128.617 226.262 128.731 227.409 128.427V128.423C228.15 128.227 228.837 127.862 229.418 127.356C229.998 126.85 230.456 126.216 230.757 125.503C231.059 124.791 231.194 124.017 231.155 123.243C231.115 122.469 230.901 121.714 230.528 121.037C228.568 122.98 225.931 124.066 223.186 124.06C223.07 124.06 222.954 124.055 222.838 124.05L222.732 124.045C222.385 124.609 221.988 125.14 221.545 125.63C222.043 126.718 222.903 127.595 223.975 128.106ZM192.536 192.015L204.294 191.908H204.296C204.766 188.076 205.312 184.257 205.934 180.451H195.807C194.635 184.279 193.545 188.134 192.536 192.015ZM201.157 164.641C199.9 168.023 198.708 171.429 197.58 174.858H206.907C207.537 171.452 208.227 168.058 208.975 164.676L201.157 164.641ZM206.183 152.024C205.187 154.356 204.231 156.703 203.299 159.059L210.27 159.091C210.84 156.716 211.443 154.348 212.079 151.988L206.183 152.024ZM208.658 146.416L213.648 146.385V146.383C214.281 144.2 214.941 142.025 215.628 139.857L211.763 139.811C210.697 141.999 209.662 144.201 208.658 146.416ZM217.184 129.201C216.283 130.876 215.4 132.56 214.533 134.251L217.454 134.289C217.796 133.279 218.151 132.274 218.506 131.27L218.506 131.269L218.6 131.004C218.065 130.457 217.59 129.852 217.184 129.201ZM215.419 113.567C214.476 113.24 213.459 113.203 212.495 113.461V113.459C211.204 113.807 210.102 114.659 209.431 115.828C208.759 116.997 208.572 118.387 208.911 119.694C209.166 120.669 209.701 121.546 210.448 122.213C211.195 122.881 212.121 123.309 213.109 123.444C214.097 123.579 215.102 123.414 215.997 122.971C216.893 122.528 217.638 121.826 218.139 120.954C218.641 120.083 218.875 119.08 218.813 118.074C218.751 117.067 218.396 116.102 217.791 115.3C217.187 114.498 216.362 113.895 215.419 113.567ZM223.996 115.657C224.222 116.531 224.338 117.429 224.342 118.332V118.33C224.348 118.328 224.354 118.327 224.361 118.326C224.367 118.324 224.373 118.323 224.379 118.322L224.407 118.317C224.429 118.314 224.45 118.31 224.47 118.305C225.76 117.955 226.861 117.102 227.532 115.933C228.202 114.764 228.388 113.374 228.048 112.067C227.826 111.22 227.392 110.445 226.788 109.818C226.184 109.19 225.43 108.73 224.599 108.483C223.768 108.235 222.889 108.209 222.045 108.405C221.201 108.602 220.422 109.015 219.781 109.605C221.859 111.045 223.356 113.193 223.996 115.657ZM199.778 63.0185C202.483 64.1227 205.038 65.5684 207.384 67.3213C211.68 70.5527 215.18 74.7461 217.608 79.5734C219.52 83.3691 220.723 87.4897 221.154 91.7277L222.294 102.729C222.304 102.728 222.314 102.727 222.324 102.726L222.352 102.722L222.352 102.722C222.382 102.717 222.412 102.713 222.442 102.713L226.923 86.5496C227.91 82.9942 227.901 79.2311 226.896 75.6807C225.891 72.1304 223.93 68.9328 221.233 66.4453C218.535 63.9577 215.206 62.2783 211.62 61.5948C208.033 60.9112 204.328 61.2505 200.921 62.5746L199.778 63.0185ZM172.006 95.4531L171.149 96.0606C183.229 96.9904 194.979 100.482 205.637 106.307L209.706 108.536C210.578 108.151 211.503 107.9 212.449 107.792L210.722 104.594C208.919 101.266 206.443 98.3587 203.456 96.0635C200.468 93.7682 197.035 92.136 193.382 91.2735C189.729 90.4109 185.937 90.3373 182.254 91.0575C178.571 91.7777 175.079 93.2754 172.006 95.4531ZM193.675 136.45L193.839 136.261C197.342 132.172 201.329 128.534 205.709 125.429L205.792 125.37C204.739 124.145 203.978 122.692 203.567 121.123C203.558 121.089 203.552 121.056 203.546 121.023L203.546 121.023L203.546 121.023C203.542 120.997 203.537 120.972 203.531 120.946C199.555 121.56 195.757 123.03 192.39 125.256C189.024 127.481 186.168 130.411 184.016 133.849C181.864 137.286 180.465 141.15 179.914 145.18C179.363 149.21 179.672 153.314 180.821 157.213L181.182 158.436C183.908 150.362 188.15 142.896 193.675 136.45ZM237.635 176.282C242.07 172.33 245.044 166.967 246.064 161.077C246.844 156.678 246.498 152.151 245.059 147.926C243.62 143.702 241.135 139.921 237.842 136.943L232.458 132.049C231.372 132.878 230.137 133.486 228.822 133.838C228.778 133.848 228.733 133.857 228.69 133.867C228.629 133.88 228.569 133.893 228.508 133.908C232.02 149.999 232.593 166.606 230.199 182.906L237.635 176.282ZM257.264 117.527C252.538 116.062 247.532 115.776 242.674 116.696L235.236 118.103C235.519 118.593 235.763 119.106 235.966 119.636L248.318 123.481C250.829 124.267 253.243 125.341 255.512 126.683C257.783 128.026 259.89 129.634 261.791 131.473C266.065 135.605 269.202 140.791 270.896 146.521L276.278 164.796L278.42 152.472C279.276 147.547 278.94 142.485 277.44 137.721C275.94 132.956 273.321 128.63 269.807 125.113C266.293 121.596 261.989 118.993 257.264 117.527ZM239.036 104.293C249.924 97.9775 262.654 95.7216 275.014 97.9174L284.259 99.5623L275.393 92.1129C272.848 89.9737 269.898 88.3823 266.724 87.436C263.549 86.4897 260.218 86.2084 256.933 86.6092C253.647 87.0101 250.477 88.0847 247.616 89.7673C244.756 91.45 242.264 93.7053 240.294 96.3955L232.077 107.615C232.171 107.762 232.255 107.915 232.34 108.068L232.34 108.068L232.387 108.153L239.036 104.293Z"/>
</mask>
<path d="M206.15 55.7473L206.289 57.7425L209.264 57.5354L207.943 54.8617L206.15 55.7473ZM203.704 56.0409L203.367 54.0696L203.29 54.0828L203.214 54.102L203.704 56.0409ZM206.007 55.4584L205.517 53.5194L203.119 54.1261L204.214 56.344L206.007 55.4584ZM207.821 54.9995L208.484 53.1126L207.915 52.9127L207.331 53.0606L207.821 54.9995ZM221.956 59.9653L223.069 58.3037L222.859 58.1625L222.619 58.0784L221.956 59.9653ZM226.892 64.3104L228.4 62.997L228.398 62.9949L226.892 64.3104ZM232.246 88.0596L230.319 87.5248L230.319 87.5252L232.246 88.0596ZM227.876 103.817L225.949 103.282L225.518 104.838L226.947 105.588L227.876 103.817ZM227.951 103.856L227.022 105.627L228.547 106.427L229.565 105.038L227.951 103.856ZM235.855 93.0643L234.242 91.882L234.242 91.8826L235.855 93.0643ZM256.275 81.0605L256.517 83.0458V83.0458L256.275 81.0605ZM278.929 87.8107L280.216 86.2795L280.215 86.2792L278.929 87.8107ZM295.801 101.988L294.514 103.519L297.801 106.281V101.988H295.801ZM295.801 101.987L297.087 100.455L293.801 97.6944V101.987H295.801ZM296.731 103.522L298.683 103.086L298.683 103.086L296.731 103.522ZM296.543 105.313L294.725 104.481L294.725 104.481L296.543 105.313ZM295.315 106.616L296.25 108.384L296.25 108.384L295.315 106.616ZM293.557 106.892L293.907 104.923L293.907 104.923L293.557 106.892ZM274.058 103.425L273.707 105.394L273.708 105.394L274.058 103.425ZM241.787 109.143L242.791 110.872L242.791 110.872L241.787 109.143ZM236.595 112.157L235.591 110.427L236.967 114.122L236.595 112.157ZM241.658 111.197L241.286 109.232L241.285 109.232L241.658 111.197ZM258.882 112.182L259.475 110.272L258.882 112.182ZM273.69 121.139L272.276 122.553V122.553L273.69 121.139ZM282.703 136.023L284.611 135.422L282.703 136.023ZM283.864 153.439L285.835 153.781L285.835 153.781L283.864 153.439ZM279.697 177.431L281.668 177.774L281.668 177.773L279.697 177.431ZM278.813 179.035L277.474 177.549L277.474 177.549L278.813 179.035ZM277.135 179.738L277.018 177.741L276.986 177.743L276.954 177.746L277.135 179.738ZM276.974 179.743L276.973 181.743H276.974V179.743ZM275.324 179.188L276.528 177.592L276.528 177.592L275.324 179.188ZM274.327 177.746L272.409 178.311L272.409 178.311L274.327 177.746ZM265.601 148.118L267.519 147.553L267.519 147.552L265.601 148.118ZM257.975 135.515L256.584 136.953L256.585 136.953L257.975 135.515ZM252.724 131.508L253.743 129.787L253.741 129.786L252.724 131.508ZM246.691 128.823L247.289 126.915L247.285 126.913L246.691 128.823ZM236.456 125.64L237.05 123.73L234.938 123.074L234.496 125.241L236.456 125.64ZM235.852 127.615L234.004 126.85L233.466 128.149L234.506 129.095L235.852 127.615ZM241.533 132.783L242.88 131.304L242.879 131.303L241.533 132.783ZM251.983 156.686L253.983 156.697V156.697L251.983 156.686ZM249.151 169.74L247.327 168.92L249.151 169.74ZM241.286 180.478L242.616 181.971L242.617 181.971L241.286 180.478ZM227.997 192.314L226.667 190.821L226.667 190.821L227.997 192.314ZM226.461 192.997L226.674 194.985L226.674 194.985L226.461 192.997ZM224.818 192.654L223.83 194.393L223.831 194.393L224.818 192.654ZM223.673 191.413L225.485 190.565V190.565L223.673 191.413ZM223.449 189.731L221.479 189.389L221.479 189.389L223.449 189.731ZM224.154 185.677L222.184 185.332L222.184 185.334L224.154 185.677ZM223.074 134.976L225.027 134.547L223.501 127.585L221.183 134.325L223.074 134.976ZM209.064 199.011V201.011H210.874L211.054 199.21L209.064 199.011ZM203.508 199.011L201.517 198.817L201.303 201.011H203.508V199.011ZM203.659 197.507L205.648 197.711L205.877 195.486L203.64 195.507L203.659 197.507ZM191.137 197.62L191.119 195.621L189.555 195.635L189.192 197.155L191.137 197.62ZM190.808 199.011V201.011H192.394L192.755 199.467L190.808 199.011ZM185.132 199.011L183.182 198.566L182.624 201.011H185.132V199.011ZM211.15 128.746L212.919 129.678L214.086 127.463L211.668 126.814L211.15 128.746ZM210.923 128.678L211.517 126.768L211.495 126.762L211.472 126.755L210.923 128.678ZM210.922 128.678L210.329 130.588L210.351 130.595L210.373 130.601L210.922 128.678ZM210.817 128.646L211.394 126.731L210.458 126.448L209.66 127.014L210.817 128.646ZM208.882 130.016L207.726 128.385L207.725 128.385L208.882 130.016ZM198.004 139.943L199.517 141.252L199.523 141.245L198.004 139.943ZM197.84 140.134L196.327 138.825L196.321 138.832L197.84 140.134ZM184.101 169.362L186.071 169.705L186.072 169.704L184.101 169.362ZM183.217 170.966L181.878 169.48H181.878L183.217 170.966ZM181.54 171.669L181.422 169.673L181.391 169.674L181.361 169.677L181.54 171.669ZM181.377 171.674L181.377 173.674H181.377V171.674ZM179.727 171.12L178.523 172.717L178.523 172.717L179.727 171.12ZM178.73 169.678L176.811 170.244L176.812 170.245L178.73 169.678ZM175.524 158.814L173.605 159.38L173.605 159.381L175.524 158.814ZM174.471 144.166L172.491 143.88L174.471 144.166ZM179.616 130.432L181.295 131.518L179.616 130.432ZM190.001 120.169L191.066 121.862H191.066L190.001 120.169ZM203.693 115.29L203.938 117.275L205.233 117.115L205.608 115.866L203.693 115.29ZM205.082 112.359L206.74 113.477L207.966 111.659L206.043 110.605L205.082 112.359ZM203.016 111.227L203.977 109.473L203.975 109.472L203.016 111.227ZM162.781 101.427L162.734 99.428L162.734 99.428L162.781 101.427ZM161.122 100.916L162.285 99.2886L161.122 100.916ZM160.091 99.504L161.993 98.8868L160.091 99.504ZM160.094 97.7489L161.994 98.3738L161.994 98.3738L160.094 97.7489ZM161.131 96.3416L162.287 97.9733L162.288 97.9732L161.131 96.3416ZM168.842 90.8748L167.685 89.2432L167.685 89.2433L168.842 90.8748ZM181.212 85.5674L180.828 83.6046L181.212 85.5674ZM194.647 85.8278L195.106 83.8813L194.647 85.8278ZM206.807 91.6106L205.589 93.1966H205.589L206.807 91.6106ZM215.579 101.91L217.338 100.959L217.337 100.958L215.579 101.91ZM216.915 104.382L215.155 105.333L218.904 104.176L216.915 104.382ZM215.664 92.31L213.674 92.5126L213.675 92.5161L215.664 92.31ZM212.688 82.109L210.9 83.0044L210.902 83.0088L212.688 82.109ZM204.106 71.8207L205.306 70.2204L205.306 70.2204L204.106 71.8207ZM191.879 66.509L191.529 68.478L191.53 68.4783L191.879 66.509ZM190.387 66.2433L190.738 64.2743L190.737 64.2742L190.387 66.2433ZM188.837 65.3882L190.313 64.0386V64.0386L188.837 65.3882ZM188.115 63.758L190.105 63.568V63.568L188.115 63.758ZM188.515 62.018L190.221 63.0613L190.221 63.0613L188.515 62.018ZM189.875 60.8786L190.599 62.7429L190.599 62.7429L189.875 60.8786ZM198.946 57.3552L198.224 55.4902L198.222 55.4909L198.946 57.3552ZM199.958 56.9886L199.467 55.0496L199.392 55.0688L199.317 55.0939L199.958 56.9886ZM227.409 128.427L227.921 130.36L229.409 129.966V128.427H227.409ZM223.975 128.106L224.836 126.301L224.836 126.301L223.975 128.106ZM227.409 128.423L226.898 126.49L225.409 126.883V128.423H227.409ZM229.418 127.356L230.732 128.864L230.732 128.864L229.418 127.356ZM230.757 125.503L228.915 124.725L228.915 124.725L230.757 125.503ZM231.155 123.243L229.157 123.346V123.346L231.155 123.243ZM230.528 121.037L232.281 120.073L231.004 117.75L229.12 119.616L230.528 121.037ZM223.186 124.06L223.19 122.06H223.186V124.06ZM222.838 124.05L222.93 122.052L222.927 122.052L222.838 124.05ZM222.732 124.045L222.821 122.047L221.644 121.995L221.028 122.998L222.732 124.045ZM221.545 125.63L220.061 124.29L219.179 125.266L219.726 126.463L221.545 125.63ZM204.294 191.908V189.908H204.284L204.275 189.908L204.294 191.908ZM192.536 192.015L190.6 191.511L189.943 194.038L192.554 194.014L192.536 192.015ZM204.296 191.908V193.908H206.066L206.281 192.151L204.296 191.908ZM205.934 180.451L207.908 180.774L208.288 178.451H205.934V180.451ZM195.807 180.451V178.451H194.327L193.894 179.866L195.807 180.451ZM197.58 174.858L195.68 174.234L194.818 176.858H197.58V174.858ZM201.157 164.641L201.166 162.641L199.769 162.634L199.283 163.944L201.157 164.641ZM206.907 174.858V176.858H208.57L208.873 175.222L206.907 174.858ZM208.975 164.676L210.927 165.107L211.463 162.687L208.984 162.676L208.975 164.676ZM203.299 159.059L201.439 158.323L200.361 161.046L203.29 161.059L203.299 159.059ZM206.183 152.024L206.171 150.024L204.859 150.032L204.344 151.238L206.183 152.024ZM210.27 159.091L210.261 161.091L211.845 161.098L212.215 159.558L210.27 159.091ZM212.079 151.988L214.01 152.508L214.693 149.972L212.067 149.988L212.079 151.988ZM213.648 146.385L213.66 148.385L215.648 148.373V146.385H213.648ZM208.658 146.416L206.836 145.591L205.548 148.435L208.67 148.416L208.658 146.416ZM213.648 146.383L211.727 145.826L211.648 146.099V146.383H213.648ZM215.628 139.857L217.534 140.461L218.349 137.889L215.651 137.857L215.628 139.857ZM211.763 139.811L211.787 137.811L210.52 137.796L209.965 138.934L211.763 139.811ZM214.533 134.251L212.753 133.34L211.283 136.21L214.507 136.251L214.533 134.251ZM217.184 129.201L218.882 128.143L217.057 125.216L215.423 128.254L217.184 129.201ZM217.454 134.289L217.429 136.289L218.883 136.308L219.349 134.93L217.454 134.289ZM218.506 131.27L216.621 130.601L216.62 130.603L218.506 131.27ZM218.506 131.269L220.391 131.938L220.392 131.935L218.506 131.269ZM218.6 131.004L220.486 131.67L220.901 130.495L220.029 129.605L218.6 131.004ZM212.495 113.461H210.495V116.066L213.012 115.393L212.495 113.461ZM212.495 113.459H214.495V110.847L211.973 111.528L212.495 113.459ZM209.431 115.828L207.697 114.831L207.697 114.831L209.431 115.828ZM208.911 119.694L206.975 120.196L206.976 120.2L208.911 119.694ZM210.448 122.213L211.78 120.722L211.78 120.722L210.448 122.213ZM213.109 123.444L212.839 125.425L213.109 123.444ZM215.997 122.971L216.885 124.764H216.885L215.997 122.971ZM218.139 120.954L216.405 119.958L216.405 119.958L218.139 120.954ZM218.813 118.074L216.817 118.196L218.813 118.074ZM217.791 115.3L219.389 114.096L219.389 114.096L217.791 115.3ZM224.342 118.332L222.342 118.34L226.342 118.332H224.342ZM223.996 115.657L225.932 115.156L225.932 115.154L223.996 115.657ZM224.342 118.33L223.88 116.384L222.342 116.749V118.33H224.342ZM224.361 118.326L224.755 120.286L224.756 120.286L224.361 118.326ZM224.379 118.322L224.045 116.35L224.037 116.352L224.028 116.353L224.379 118.322ZM224.407 118.317L224.081 116.344L224.073 116.346L224.407 118.317ZM224.47 118.305L224.953 120.246L224.973 120.241L224.994 120.236L224.47 118.305ZM228.048 112.067L229.983 111.564L229.982 111.559L228.048 112.067ZM226.788 109.818L225.346 111.204V111.204L226.788 109.818ZM224.599 108.483L225.17 106.566V106.566L224.599 108.483ZM222.045 108.405L221.591 106.458H221.591L222.045 108.405ZM219.781 109.605L218.426 108.135L216.59 109.827L218.643 111.249L219.781 109.605ZM207.384 67.3213L208.586 65.7229L208.581 65.7192L207.384 67.3213ZM199.778 63.0185L199.054 61.1542L194.374 62.9721L199.022 64.8701L199.778 63.0185ZM217.608 79.5734L215.821 80.4722L215.822 80.4734L217.608 79.5734ZM221.154 91.7277L219.165 91.9304L219.165 91.9338L221.154 91.7277ZM222.294 102.729L220.305 102.935L220.508 104.889L222.465 104.722L222.294 102.729ZM222.324 102.726L222.586 104.709L222.595 104.707L222.605 104.706L222.324 102.726ZM222.352 102.722L222.104 100.737L222.088 100.739L222.071 100.742L222.352 102.722ZM222.352 102.722L222.6 104.706L222.622 104.704L222.643 104.701L222.352 102.722ZM222.442 102.713V104.713H223.963L224.369 103.247L222.442 102.713ZM226.923 86.5496L224.996 86.0144L224.996 86.0152L226.923 86.5496ZM226.896 75.6807L224.972 76.2254V76.2254L226.896 75.6807ZM221.233 66.4453L219.877 67.9156V67.9156L221.233 66.4453ZM211.62 61.5948L211.245 63.5594L211.62 61.5948ZM200.921 62.5746L201.645 64.4389L201.646 64.4388L200.921 62.5746ZM171.149 96.0606L169.993 94.4292L165.479 97.63L170.996 98.0547L171.149 96.0606ZM172.006 95.4531L170.85 93.8214L170.849 93.8216L172.006 95.4531ZM205.637 106.307L206.599 104.553L206.597 104.552L205.637 106.307ZM209.706 108.536L208.744 110.29L209.611 110.765L210.514 110.366L209.706 108.536ZM212.449 107.792L212.676 109.779L215.615 109.444L214.209 106.841L212.449 107.792ZM210.722 104.594L212.482 103.644L212.481 103.642L210.722 104.594ZM203.456 96.0635L204.674 94.4774L203.456 96.0635ZM193.382 91.2735L193.842 89.327L193.382 91.2735ZM193.839 136.261L195.35 137.572L195.358 137.563L193.839 136.261ZM193.675 136.45L192.164 135.14L192.157 135.148L193.675 136.45ZM205.709 125.429L204.553 123.797L204.553 123.797L205.709 125.429ZM205.792 125.37L206.948 127.003L208.741 125.733L207.309 124.067L205.792 125.37ZM203.567 121.123L205.502 120.616L205.499 120.606L203.567 121.123ZM203.546 121.023L205.513 120.662L205.511 120.646L205.507 120.631L203.546 121.023ZM203.546 121.023L201.579 121.385L201.582 121.4L201.585 121.415L203.546 121.023ZM203.531 120.946L205.478 120.488L205.054 118.687L203.225 118.969L203.531 120.946ZM192.39 125.256L191.287 123.587L191.287 123.587L192.39 125.256ZM180.821 157.213L178.903 157.778L178.903 157.778L180.821 157.213ZM181.182 158.436L179.263 159.002L181.053 165.071L183.077 159.076L181.182 158.436ZM246.064 161.077L244.095 160.727L244.093 160.735L246.064 161.077ZM237.635 176.282L238.965 177.776L238.965 177.776L237.635 176.282ZM245.059 147.926L246.952 147.282L245.059 147.926ZM237.842 136.943L236.497 138.423L236.5 138.426L237.842 136.943ZM232.458 132.049L233.803 130.569L232.569 129.448L231.244 130.46L232.458 132.049ZM228.822 133.838L229.268 135.787L229.304 135.779L229.339 135.77L228.822 133.838ZM228.69 133.867L229.111 135.822L229.111 135.822L228.69 133.867ZM228.508 133.908L228.039 131.963L226.137 132.422L226.554 134.334L228.508 133.908ZM230.199 182.906L228.221 182.616L227.421 188.06L231.53 184.4L230.199 182.906ZM242.674 116.696L243.046 118.661L243.046 118.661L242.674 116.696ZM257.264 117.527L257.856 115.617L257.264 117.527ZM235.236 118.103L234.865 116.138L232.095 116.661L233.504 119.103L235.236 118.103ZM235.966 119.636L234.098 120.35L234.444 121.257L235.371 121.545L235.966 119.636ZM248.318 123.481L248.915 121.572L248.912 121.571L248.318 123.481ZM255.512 126.683L256.531 124.961L256.53 124.961L255.512 126.683ZM261.791 131.473L260.4 132.91L260.401 132.911L261.791 131.473ZM270.896 146.521L272.815 145.956L272.814 145.954L270.896 146.521ZM276.278 164.796L274.36 165.361L278.249 165.138L276.278 164.796ZM278.42 152.472L276.45 152.13L276.45 152.13L278.42 152.472ZM277.44 137.721L275.532 138.321L277.44 137.721ZM269.807 125.113L268.392 126.526L269.807 125.113ZM275.014 97.9174L275.364 95.9483L275.364 95.9482L275.014 97.9174ZM239.036 104.293L238.033 102.563L238.032 102.563L239.036 104.293ZM284.259 99.5623L283.908 101.531L291.27 102.841L285.545 98.0311L284.259 99.5623ZM275.393 92.1129L274.107 93.644L274.107 93.6441L275.393 92.1129ZM266.724 87.436L266.152 89.3526L266.724 87.436ZM256.933 86.6092L256.69 84.6239L256.933 86.6092ZM240.294 96.3955L241.908 97.5771L241.908 97.5771L240.294 96.3955ZM232.077 107.615L230.464 106.433L229.657 107.535L230.389 108.687L232.077 107.615ZM232.34 108.068L230.589 109.035L230.595 109.045L232.34 108.068ZM232.34 108.068L234.09 107.1L234.085 107.091L232.34 108.068ZM232.387 108.153L230.637 109.121L231.625 110.908L233.391 109.883L232.387 108.153ZM206.011 53.7521C205.124 53.8139 204.242 53.92 203.367 54.0696L204.041 58.0123C204.785 57.8851 205.535 57.795 206.289 57.7425L206.011 53.7521ZM204.214 56.344L204.357 56.633L207.943 54.8617L207.801 54.5727L204.214 56.344ZM207.331 53.0606L205.517 53.5194L206.498 57.3973L208.312 56.9384L207.331 53.0606ZM222.619 58.0784L208.484 53.1126L207.159 56.8864L221.293 61.8522L222.619 58.0784ZM228.398 62.9949C226.831 61.1994 225.038 59.6229 223.069 58.3037L220.843 61.6269C222.52 62.7505 224.048 64.0942 225.385 65.6258L228.398 62.9949ZM234.504 75.0564C233.496 70.5865 231.399 66.4405 228.4 62.997L225.384 65.6238C227.945 68.565 229.739 72.1098 230.602 75.9361L234.504 75.0564ZM234.173 88.5944C235.398 84.1801 235.512 79.5263 234.504 75.0564L230.602 75.9361C231.465 79.7625 231.367 83.7466 230.319 87.5248L234.173 88.5944ZM229.804 104.351L234.173 88.594L230.319 87.5252L225.949 103.282L229.804 104.351ZM228.88 102.085L228.806 102.046L226.947 105.588L227.022 105.627L228.88 102.085ZM234.242 91.8826L226.338 102.674L229.565 105.038L237.469 94.2461L234.242 91.8826ZM243.829 83.2099C240.083 85.4124 236.821 88.3636 234.242 91.882L237.468 94.2467C239.727 91.1652 242.581 88.5835 245.857 86.6582L243.829 83.2099ZM256.033 79.0752C251.728 79.6002 247.576 81.0074 243.829 83.2099L245.857 86.6582C249.132 84.733 252.759 83.5041 256.517 83.0458L256.033 79.0752ZM268.86 80.1577C264.702 78.9186 260.337 78.5502 256.033 79.0752L256.517 83.0458C260.275 82.5874 264.086 82.909 267.718 83.9911L268.86 80.1577ZM280.215 86.2792C276.882 83.4801 273.019 81.3967 268.86 80.1577L267.718 83.9911C271.35 85.0733 274.727 86.8937 277.643 89.3423L280.215 86.2792ZM297.087 100.457L280.216 86.2795L277.642 89.3419L294.514 103.519L297.087 100.457ZM293.801 101.987V101.988H297.801V101.987H293.801ZM298.683 103.086C298.454 102.059 297.895 101.134 297.087 100.455L294.514 103.518C294.645 103.628 294.74 103.782 294.779 103.958L298.683 103.086ZM298.362 106.145C298.8 105.188 298.912 104.113 298.683 103.086L294.779 103.958C294.819 104.134 294.799 104.318 294.725 104.481L298.362 106.145ZM296.25 108.384C297.183 107.891 297.924 107.102 298.362 106.145L294.725 104.481C294.651 104.643 294.528 104.77 294.38 104.848L296.25 108.384ZM293.206 108.861C294.247 109.046 295.317 108.878 296.25 108.384L294.381 104.848C294.233 104.926 294.067 104.952 293.907 104.923L293.206 108.861ZM273.708 105.394L293.206 108.861L293.907 104.923L274.408 101.456L273.708 105.394ZM242.791 110.872C252.147 105.439 263.087 103.501 273.707 105.394L274.409 101.456C262.855 99.3967 250.954 101.506 240.783 107.413L242.791 110.872ZM237.599 113.887L242.791 110.872L240.783 107.413L235.591 110.427L237.599 113.887ZM241.285 109.232L236.222 110.192L236.967 114.122L242.03 113.162L241.285 109.232ZM259.475 110.272C253.585 108.444 247.344 108.087 241.286 109.232L242.029 113.162C247.444 112.139 253.023 112.458 258.29 114.093L259.475 110.272ZM275.105 119.725C270.728 115.345 265.366 112.1 259.475 110.272L258.29 114.093C263.556 115.727 268.356 118.629 272.276 122.553L275.105 119.725ZM284.611 135.422C282.743 129.492 279.482 124.106 275.105 119.725L272.276 122.553C276.196 126.476 279.12 131.304 280.796 136.624L284.611 135.422ZM285.835 153.781C286.898 147.652 286.479 141.352 284.611 135.422L280.796 136.624C282.471 141.944 282.848 147.597 281.894 153.097L285.835 153.781ZM281.668 177.773L285.835 153.781L281.894 153.097L277.727 177.089L281.668 177.773ZM280.151 180.521C280.951 179.801 281.484 178.832 281.668 177.774L277.727 177.088C277.695 177.27 277.604 177.432 277.474 177.549L280.151 180.521ZM277.252 181.735C278.329 181.671 279.351 181.242 280.151 180.521L277.474 177.549C277.345 177.666 277.184 177.732 277.018 177.741L277.252 181.735ZM276.974 181.743C277.013 181.743 277.157 181.744 277.316 181.73L276.954 177.746C276.971 177.745 276.984 177.744 276.993 177.743C277.002 177.743 277.007 177.743 277.009 177.743C277.01 177.743 277.009 177.743 277.003 177.743C277 177.743 276.996 177.743 276.992 177.743C276.987 177.743 276.981 177.743 276.974 177.743V181.743ZM276.974 181.743H276.974V177.743H276.974V181.743ZM274.119 180.785C274.941 181.405 275.942 181.742 276.973 181.743L276.975 177.743C276.817 177.743 276.66 177.691 276.528 177.592L274.119 180.785ZM272.409 178.311C272.699 179.296 273.297 180.165 274.119 180.785L276.528 177.592C276.396 177.492 276.295 177.349 276.246 177.18L272.409 178.311ZM263.682 148.684L272.409 178.311L276.246 177.181L267.519 147.553L263.682 148.684ZM256.585 136.953C259.915 140.173 262.362 144.215 263.683 148.685L267.519 147.552C266.003 142.423 263.194 137.78 259.365 134.078L256.585 136.953ZM251.705 133.229C253.469 134.273 255.106 135.523 256.584 136.953L259.366 134.078C257.663 132.431 255.776 130.991 253.743 129.787L251.705 133.229ZM246.093 130.732C248.051 131.345 249.935 132.184 251.706 133.23L253.741 129.786C251.706 128.584 249.541 127.62 247.289 126.915L246.093 130.732ZM235.862 127.55L246.097 130.733L247.285 126.913L237.05 123.73L235.862 127.55ZM237.7 128.38C238.013 127.625 238.252 126.841 238.416 126.039L234.496 125.241C234.384 125.792 234.219 126.331 234.004 126.85L237.7 128.38ZM242.879 131.303L237.198 126.136L234.506 129.095L240.188 134.262L242.879 131.303ZM251.119 142.802C249.206 138.426 246.398 134.507 242.88 131.304L240.187 134.262C243.288 137.085 245.765 140.541 247.454 144.404L251.119 142.802ZM253.983 156.697C254.008 151.913 253.032 147.178 251.119 142.802L247.454 144.404C249.143 148.268 250.005 152.45 249.983 156.676L253.983 156.697ZM250.975 170.56C252.933 166.205 253.958 161.48 253.983 156.697L249.983 156.676C249.961 160.902 249.055 165.075 247.327 168.92L250.975 170.56ZM242.617 181.971C246.169 178.805 249.016 174.916 250.975 170.56L247.327 168.92C245.598 172.765 243.085 176.195 239.955 178.985L242.617 181.971ZM229.328 193.808L242.616 181.971L239.956 178.984L226.667 190.821L229.328 193.808ZM226.674 194.985C227.661 194.88 228.588 194.467 229.328 193.808L226.667 190.821C226.547 190.928 226.401 190.992 226.249 191.008L226.674 194.985ZM223.831 194.393C224.693 194.883 225.687 195.091 226.674 194.985L226.249 191.008C226.097 191.024 225.942 190.993 225.806 190.915L223.831 194.393ZM221.862 192.262C222.282 193.158 222.968 193.904 223.83 194.393L225.806 190.915C225.669 190.838 225.556 190.716 225.485 190.565L221.862 192.262ZM221.479 189.389C221.309 190.363 221.443 191.366 221.862 192.262L225.485 190.565C225.414 190.413 225.39 190.241 225.419 190.074L221.479 189.389ZM222.184 185.334L221.479 189.389L225.419 190.074L226.125 186.019L222.184 185.334ZM221.12 135.404C224.718 151.814 225.08 168.781 222.184 185.332L226.124 186.021C229.11 168.957 228.737 151.465 225.027 134.547L221.12 135.404ZM211.054 199.21C213.219 177.555 217.884 156.214 224.965 135.626L221.183 134.325C214.001 155.206 209.269 176.85 207.074 198.812L211.054 199.21ZM203.508 201.011H209.064V197.011H203.508V201.011ZM201.669 197.302C201.617 197.806 201.566 198.312 201.517 198.817L205.498 199.206C205.547 198.707 205.597 198.209 205.648 197.711L201.669 197.302ZM191.155 199.62L203.677 199.506L203.64 195.507L191.119 195.621L191.155 199.62ZM192.755 199.467C192.863 199.006 192.972 198.546 193.082 198.086L189.192 197.155C189.08 197.622 188.97 198.089 188.86 198.556L192.755 199.467ZM185.132 201.011H190.808V197.011H185.132V201.011ZM209.38 127.813C197.618 150.134 188.81 173.923 183.182 198.566L187.082 199.456C192.632 175.152 201.319 151.691 212.919 129.678L209.38 127.813ZM210.329 130.588C210.398 130.61 210.511 130.645 210.631 130.677L211.668 126.814C211.636 126.805 211.598 126.794 211.517 126.768L210.329 130.588ZM210.373 130.601L210.374 130.601L211.472 126.755L211.472 126.755L210.373 130.601ZM210.373 130.601L210.373 130.601L211.472 126.755L211.472 126.755L210.373 130.601ZM210.239 130.56C210.265 130.568 210.292 130.577 210.329 130.588L211.516 126.768C211.482 126.758 211.439 126.744 211.394 126.731L210.239 130.56ZM210.038 131.648L211.973 130.277L209.66 127.014L207.726 128.385L210.038 131.648ZM199.523 141.245C202.627 137.621 206.159 134.399 210.039 131.648L207.725 128.385C203.577 131.326 199.802 134.771 196.485 138.642L199.523 141.245ZM199.352 141.442L199.517 141.252L196.491 138.635L196.327 138.825L199.352 141.442ZM186.072 169.704C187.885 159.233 192.479 149.462 199.358 141.435L196.321 138.832C188.971 147.409 184.066 157.844 182.13 169.021L186.072 169.704ZM184.555 172.452C185.355 171.732 185.887 170.763 186.071 169.705L182.131 169.019C182.099 169.202 182.008 169.363 181.878 169.48L184.555 172.452ZM181.657 173.666C182.734 173.602 183.755 173.173 184.555 172.452L181.878 169.48C181.749 169.597 181.588 169.663 181.422 169.673L181.657 173.666ZM181.378 173.674C181.418 173.674 181.56 173.675 181.718 173.661L181.361 169.677C181.376 169.676 181.389 169.675 181.398 169.675C181.406 169.674 181.412 169.674 181.413 169.674C181.414 169.674 181.413 169.674 181.407 169.674C181.404 169.674 181.4 169.674 181.395 169.674C181.39 169.674 181.385 169.674 181.378 169.674V173.674ZM181.377 173.674H181.378V169.674H181.377V173.674ZM178.523 172.717C179.345 173.337 180.346 173.674 181.377 173.674L181.378 169.674C181.219 169.674 181.062 169.622 180.93 169.523L178.523 172.717ZM176.812 170.245C177.102 171.23 177.701 172.098 178.523 172.717L180.93 169.523C180.798 169.423 180.697 169.28 180.648 169.112L176.812 170.245ZM173.605 159.381L176.811 170.244L180.648 169.112L177.442 158.248L173.605 159.381ZM172.491 143.88C171.744 149.067 172.124 154.357 173.605 159.38L177.442 158.249C176.123 153.778 175.785 149.069 176.45 144.451L172.491 143.88ZM177.937 129.345C175.097 133.733 173.239 138.693 172.491 143.88L176.45 144.451C177.116 139.833 178.77 135.42 181.295 131.518L177.937 129.345ZM188.937 118.476C184.53 121.247 180.777 124.957 177.937 129.345L181.295 131.518C183.82 127.617 187.155 124.322 191.066 121.862L188.937 118.476ZM203.448 113.305C198.296 113.94 193.343 115.705 188.937 118.476L191.066 121.862C194.977 119.403 199.37 117.838 203.938 117.275L203.448 113.305ZM203.424 111.241C202.704 112.308 202.149 113.479 201.778 114.713L205.608 115.866C205.864 115.015 206.246 114.21 206.74 113.477L203.424 111.241ZM202.055 112.981L204.121 114.113L206.043 110.605L203.977 109.473L202.055 112.981ZM162.827 103.427C176.501 103.109 190.021 106.402 202.057 112.982L203.975 109.472C191.326 102.557 177.112 99.0942 162.734 99.428L162.827 103.427ZM159.958 102.542C160.794 103.14 161.8 103.451 162.828 103.427L162.734 99.428C162.576 99.4317 162.418 99.3841 162.285 99.2886L159.958 102.542ZM158.188 100.121C158.504 101.096 159.123 101.945 159.958 102.542L162.285 99.2886C162.151 99.1929 162.047 99.053 161.993 98.8868L158.188 100.121ZM158.194 97.124C157.874 98.0967 157.872 99.1471 158.188 100.121L161.993 98.8868C161.939 98.7204 161.939 98.54 161.994 98.3738L158.194 97.124ZM159.974 94.71C159.137 95.3036 158.514 96.151 158.194 97.124L161.994 98.3738C162.049 98.2078 162.153 98.0685 162.287 97.9733L159.974 94.71ZM167.685 89.2433L159.974 94.7101L162.288 97.9732L169.998 92.5064L167.685 89.2433ZM180.828 83.6046C176.103 84.5288 171.624 86.4506 167.685 89.2432L169.998 92.5064C173.477 90.0404 177.429 88.3453 181.596 87.5302L180.828 83.6046ZM195.106 83.8813C190.419 82.7746 185.554 82.6803 180.828 83.6046L181.596 87.5302C185.763 86.7152 190.054 86.7983 194.187 87.7743L195.106 83.8813ZM208.026 90.0247C204.195 87.0817 199.793 84.9879 195.106 83.8813L194.187 87.7743C198.321 88.7502 202.206 90.5974 205.589 93.1966L208.026 90.0247ZM217.337 100.958C215.029 96.6933 211.856 92.9676 208.026 90.0247L205.589 93.1966C208.972 95.7958 211.777 99.0889 213.82 102.862L217.337 100.958ZM218.674 103.431L217.338 100.959L213.819 102.861L215.155 105.333L218.674 103.431ZM213.675 92.5161L214.925 104.588L218.904 104.176L217.654 92.1039L213.675 92.5161ZM210.902 83.0088C212.397 85.976 213.337 89.1981 213.674 92.5126L217.654 92.1074C217.267 88.3083 216.189 84.6135 214.475 81.2093L210.902 83.0088ZM202.906 73.4209C206.269 75.9418 209.007 79.2226 210.9 83.0044L214.477 81.2136C212.307 76.88 209.168 73.1155 205.306 70.2204L202.906 73.4209ZM191.53 68.4783C195.649 69.2084 199.544 70.9001 202.906 73.4209L205.306 70.2204C201.444 67.3253 196.967 65.3796 192.229 64.5397L191.53 68.4783ZM190.037 68.2124L191.529 68.478L192.23 64.5399L190.738 64.2743L190.037 68.2124ZM187.361 66.7379C188.066 67.5094 189.006 68.0291 190.037 68.2125L190.737 64.2742C190.578 64.2459 190.428 64.1649 190.313 64.0386L187.361 66.7379ZM186.124 63.948C186.223 64.9864 186.656 65.9667 187.361 66.7379L190.313 64.0386C190.197 63.912 190.123 63.747 190.105 63.568L186.124 63.948ZM186.809 60.9747C186.264 61.8655 186.024 62.9097 186.124 63.948L190.105 63.568C190.088 63.3889 190.13 63.2107 190.221 63.0613L186.809 60.9747ZM189.151 59.0142C188.175 59.3932 187.354 60.0836 186.809 60.9747L190.221 63.0613C190.313 62.9124 190.446 62.8022 190.599 62.7429L189.151 59.0142ZM198.222 55.4909L189.151 59.0143L190.599 62.7429L199.671 59.2195L198.222 55.4909ZM199.317 55.0939C198.95 55.218 198.586 55.3501 198.224 55.4902L199.669 59.2202C199.976 59.1011 200.286 58.9887 200.598 58.8832L199.317 55.0939ZM203.214 54.102L199.467 55.0496L200.448 58.9275L204.195 57.9799L203.214 54.102ZM226.896 126.493C226.209 126.676 225.48 126.608 224.836 126.301L223.114 129.911C224.613 130.626 226.316 130.786 227.921 130.36L226.896 126.493ZM225.409 128.423V128.427H229.409V128.423H225.409ZM228.103 125.849C227.753 126.154 227.341 126.373 226.898 126.49L227.92 130.357C228.959 130.082 229.921 129.571 230.732 128.864L228.103 125.849ZM228.915 124.725C228.732 125.16 228.453 125.543 228.103 125.849L230.732 128.864C231.543 128.157 232.181 127.273 232.6 126.282L228.915 124.725ZM229.157 123.346C229.182 123.819 229.098 124.291 228.915 124.725L232.6 126.282C233.019 125.29 233.207 124.216 233.152 123.141L229.157 123.346ZM228.776 122C229.002 122.412 229.133 122.872 229.157 123.346L233.152 123.141C233.097 122.066 232.799 121.016 232.281 120.073L228.776 122ZM223.181 126.06C226.459 126.067 229.602 124.771 231.936 122.457L229.12 119.616C227.533 121.19 225.402 122.065 223.19 122.06L223.181 126.06ZM222.747 126.048C222.855 126.052 223.016 126.06 223.186 126.06V122.06C223.123 122.06 223.053 122.057 222.93 122.052L222.747 126.048ZM222.643 126.043L222.75 126.048L222.927 122.052L222.821 122.047L222.643 126.043ZM223.029 126.971C223.554 126.389 224.025 125.76 224.436 125.092L221.028 122.998C220.745 123.458 220.421 123.89 220.061 124.29L223.029 126.971ZM224.836 126.301C224.191 125.993 223.668 125.463 223.363 124.798L219.726 126.463C220.418 127.974 221.615 129.196 223.114 129.911L224.836 126.301ZM204.275 189.908L192.518 190.015L192.554 194.014L204.312 193.908L204.275 189.908ZM204.296 189.908H204.294V193.908H204.296V189.908ZM203.961 180.128C203.334 183.96 202.784 187.806 202.311 191.664L206.281 192.151C206.748 188.346 207.29 184.553 207.908 180.774L203.961 180.128ZM195.807 182.451H205.934V178.451H195.807V182.451ZM194.472 192.518C195.474 188.664 196.556 184.837 197.719 181.036L193.894 179.866C192.715 183.721 191.617 187.603 190.6 191.511L194.472 192.518ZM199.48 175.483C200.6 172.078 201.784 168.696 203.032 165.337L199.283 163.944C198.017 167.35 196.816 170.78 195.68 174.234L199.48 175.483ZM206.907 172.858H197.58V176.858H206.907V172.858ZM207.022 164.244C206.269 167.648 205.575 171.065 204.94 174.494L208.873 175.222C209.5 171.839 210.184 168.467 210.927 165.107L207.022 164.244ZM201.148 166.641L208.966 166.676L208.984 162.676L201.166 162.641L201.148 166.641ZM205.158 159.795C206.086 157.451 207.035 155.121 208.022 152.81L204.344 151.238C203.339 153.591 202.376 155.955 201.439 158.323L205.158 159.795ZM210.279 157.091L203.308 157.059L203.29 161.059L210.261 161.091L210.279 157.091ZM210.148 151.468C209.507 153.846 208.9 156.231 208.325 158.624L212.215 159.558C212.781 157.2 213.379 154.85 214.01 152.508L210.148 151.468ZM206.196 154.024L212.091 153.988L212.067 149.988L206.171 150.024L206.196 154.024ZM213.636 144.386L208.646 144.416L208.67 148.416L213.66 148.385L213.636 144.386ZM211.648 146.383V146.385H215.648V146.383H211.648ZM213.721 139.253C213.029 141.436 212.365 143.628 211.727 145.826L215.569 146.94C216.197 144.773 216.852 142.613 217.534 140.461L213.721 139.253ZM211.739 141.81L215.604 141.857L215.651 137.857L211.787 137.811L211.739 141.81ZM210.48 147.241C211.476 145.043 212.503 142.858 213.561 140.687L209.965 138.934C208.891 141.139 207.848 143.358 206.836 145.591L210.48 147.241ZM216.313 135.163C217.174 133.483 218.051 131.812 218.946 130.149L215.423 128.254C214.516 129.941 213.626 131.636 212.753 133.34L216.313 135.163ZM217.48 132.289L214.559 132.252L214.507 136.251L217.429 136.289L217.48 132.289ZM216.62 130.603C216.266 131.606 215.906 132.623 215.56 133.649L219.349 134.93C219.686 133.934 220.036 132.943 220.392 131.936L216.62 130.603ZM216.621 130.6L216.621 130.601L220.391 131.938L220.391 131.938L216.621 130.6ZM216.714 130.337L216.62 130.603L220.392 131.935L220.486 131.67L216.714 130.337ZM215.487 130.259C215.969 131.033 216.534 131.752 217.171 132.402L220.029 129.605C219.596 129.162 219.211 128.672 218.882 128.143L215.487 130.259ZM213.012 115.393C213.589 115.238 214.198 115.261 214.763 115.457L216.075 111.678C214.754 111.22 213.328 111.168 211.978 111.529L213.012 115.393ZM210.495 113.459V113.461H214.495V113.459H210.495ZM211.165 116.825C211.574 116.112 212.242 115.599 213.017 115.389L211.973 111.528C210.166 112.016 208.63 113.207 207.697 114.831L211.165 116.825ZM210.847 119.193C210.639 118.391 210.754 117.538 211.165 116.825L207.697 114.831C206.764 116.455 206.505 118.383 206.975 120.196L210.847 119.193ZM211.78 120.722C211.328 120.318 211.002 119.785 210.846 119.189L206.976 120.2C207.33 121.554 208.073 122.774 209.116 123.705L211.78 120.722ZM213.38 121.462C212.789 121.382 212.232 121.125 211.78 120.722L209.116 123.705C210.159 124.636 211.454 125.236 212.839 125.425L213.38 121.462ZM215.11 121.179C214.572 121.445 213.971 121.543 213.38 121.462L212.839 125.425C214.223 125.614 215.632 125.384 216.885 124.764L215.11 121.179ZM216.405 119.958C216.1 120.488 215.648 120.912 215.11 121.179L216.885 124.764C218.137 124.144 219.176 123.164 219.873 121.951L216.405 119.958ZM216.817 118.196C216.855 118.813 216.711 119.426 216.405 119.958L219.873 121.951C220.57 120.739 220.895 119.347 220.809 117.951L216.817 118.196ZM216.194 116.503C216.561 116.99 216.779 117.58 216.817 118.196L220.809 117.951C220.723 116.555 220.23 115.213 219.389 114.096L216.194 116.503ZM214.763 115.457C215.328 115.653 215.827 116.016 216.194 116.503L219.389 114.096C218.548 112.979 217.395 112.136 216.075 111.678L214.763 115.457ZM226.342 118.324C226.338 117.255 226.2 116.191 225.932 115.156L222.06 116.158C222.244 116.87 222.339 117.603 222.342 118.34L226.342 118.324ZM222.342 118.33V118.332H226.342V118.33H222.342ZM223.967 116.365C223.942 116.37 223.912 116.376 223.88 116.384L224.804 120.276C224.784 120.28 224.767 120.284 224.755 120.286L223.967 116.365ZM224.028 116.353C224.01 116.356 223.989 116.36 223.966 116.365L224.756 120.286C224.745 120.289 224.736 120.29 224.731 120.291L224.028 116.353ZM224.073 116.346L224.045 116.35L224.714 120.294L224.742 120.289L224.073 116.346ZM223.988 116.364C224.03 116.354 224.063 116.348 224.076 116.345C224.087 116.343 224.095 116.342 224.081 116.344L224.733 120.291C224.739 120.29 224.841 120.274 224.953 120.246L223.988 116.364ZM225.797 114.938C225.388 115.652 224.72 116.165 223.946 116.375L224.994 120.236C226.801 119.745 228.335 118.553 229.267 116.928L225.797 114.938ZM226.112 112.57C226.321 113.372 226.206 114.224 225.797 114.938L229.267 116.928C230.198 115.304 230.455 113.376 229.983 111.564L226.112 112.57ZM225.346 111.204C225.712 111.585 225.977 112.056 226.113 112.574L229.982 111.559C229.674 110.384 229.071 109.306 228.229 108.431L225.346 111.204ZM224.028 110.4C224.526 110.548 224.981 110.824 225.346 111.204L228.229 108.431C227.387 107.556 226.333 106.912 225.17 106.566L224.028 110.4ZM222.499 110.353C223.004 110.235 223.531 110.251 224.028 110.4L225.17 106.566C224.006 106.219 222.773 106.182 221.591 106.458L222.499 110.353ZM221.137 111.076C221.524 110.719 221.993 110.471 222.499 110.353L221.591 106.458C220.409 106.733 219.319 107.312 218.426 108.135L221.137 111.076ZM225.932 115.154C225.172 112.23 223.395 109.676 220.92 107.961L218.643 111.249C220.324 112.414 221.539 114.156 222.061 116.161L225.932 115.154ZM208.581 65.7192C206.1 63.865 203.396 62.3354 200.534 61.1669L199.022 64.8701C201.569 65.91 203.977 67.2718 206.187 68.9235L208.581 65.7192ZM219.395 78.6747C216.829 73.5737 213.13 69.1404 208.586 65.7229L206.182 68.9197C210.231 71.965 213.531 75.9185 215.821 80.4722L219.395 78.6747ZM223.144 91.525C222.688 87.0447 221.416 82.6877 219.394 78.6735L215.822 80.4734C217.624 84.0505 218.758 87.9347 219.165 91.9304L223.144 91.525ZM224.284 102.523L223.144 91.5215L219.165 91.9338L220.305 102.935L224.284 102.523ZM222.062 100.743C222.071 100.742 222.094 100.739 222.124 100.736L222.465 104.722C222.515 104.718 222.557 104.712 222.586 104.709L222.062 100.743ZM222.071 100.742L222.043 100.746L222.605 104.706L222.633 104.702L222.071 100.742ZM222.104 100.737L222.104 100.737L222.6 104.706L222.6 104.706L222.104 100.737ZM222.442 100.713C222.241 100.713 222.066 100.742 222.062 100.743L222.643 104.701C222.664 104.697 222.643 104.701 222.616 104.704C222.585 104.707 222.523 104.713 222.442 104.713V100.713ZM224.996 86.0152L220.514 102.179L224.369 103.247L228.85 87.0839L224.996 86.0152ZM224.972 76.2254C225.877 79.4229 225.885 82.8124 224.996 86.0144L228.85 87.0848C229.936 83.1761 229.925 79.0393 228.821 75.1361L224.972 76.2254ZM219.877 67.9156C222.302 70.1515 224.067 73.0281 224.972 76.2254L228.821 75.1361C227.716 71.2327 225.559 67.7141 222.588 64.9749L219.877 67.9156ZM211.245 63.5594C214.463 64.1727 217.452 65.6799 219.877 67.9156L222.588 64.9749C219.617 62.2356 215.95 60.384 211.994 59.6302L211.245 63.5594ZM201.646 64.4388C204.704 63.2504 208.027 62.9462 211.245 63.5594L211.994 59.6302C208.038 58.8763 203.953 59.2506 200.197 60.7104L201.646 64.4388ZM200.502 64.8828L201.645 64.4389L200.197 60.7103L199.054 61.1542L200.502 64.8828ZM172.306 97.6921L173.163 97.0846L170.849 93.8216L169.993 94.4292L172.306 97.6921ZM206.597 104.552C195.69 98.591 183.665 95.0181 171.303 94.0665L170.996 98.0547C182.792 98.9627 194.268 102.372 204.678 108.062L206.597 104.552ZM210.667 106.783L206.599 104.553L204.676 108.061L208.744 110.29L210.667 106.783ZM212.223 105.805C211.075 105.936 209.954 106.24 208.897 106.707L210.514 110.366C211.202 110.062 211.931 109.864 212.676 109.779L212.223 105.805ZM208.962 105.545L210.69 108.742L214.209 106.841L212.482 103.644L208.962 105.545ZM202.237 97.6495C205.001 99.7729 207.294 102.464 208.963 105.547L212.481 103.642C210.545 100.068 207.886 96.9445 204.674 94.4774L202.237 97.6495ZM192.923 93.2199C196.299 94.0172 199.473 95.5261 202.237 97.6495L204.674 94.4774C201.463 92.0103 197.772 90.2549 193.842 89.327L192.923 93.2199ZM182.638 93.0203C186.042 92.3547 189.546 92.4227 192.923 93.2199L193.842 89.327C189.912 88.3991 185.832 88.3199 181.87 89.0946L182.638 93.0203ZM173.163 97.0848C176.005 95.0704 179.233 93.6859 182.638 93.0203L181.87 89.0946C177.908 89.8694 174.153 91.4804 170.85 93.8214L173.163 97.0848ZM192.328 134.951L192.164 135.14L195.186 137.761L195.35 137.572L192.328 134.951ZM204.553 123.797C200.038 126.998 195.93 130.747 192.32 134.96L195.358 137.563C198.755 133.598 202.62 130.071 206.866 127.061L204.553 123.797ZM204.636 123.738L204.553 123.797L206.865 127.061L206.948 127.003L204.636 123.738ZM201.633 121.629C202.12 123.491 203.024 125.217 204.275 126.674L207.309 124.067C206.455 123.073 205.836 121.893 205.502 120.616L201.633 121.629ZM201.579 121.385C201.583 121.406 201.602 121.517 201.635 121.64L205.499 120.606C205.508 120.638 205.513 120.663 205.515 120.672C205.516 120.676 205.516 120.678 205.516 120.677C205.516 120.674 205.515 120.671 205.513 120.662L201.579 121.385ZM201.585 121.415L201.585 121.416L205.507 120.631L205.507 120.631L201.585 121.415ZM201.585 121.415L201.585 121.415L205.507 120.631L205.507 120.631L201.585 121.415ZM201.584 121.404C201.58 121.386 201.577 121.373 201.577 121.371C201.576 121.369 201.576 121.369 201.577 121.372C201.577 121.375 201.578 121.378 201.579 121.385L205.513 120.661C205.51 120.643 205.497 120.569 205.478 120.488L201.584 121.404ZM193.493 126.924C196.62 124.857 200.147 123.493 203.836 122.922L203.225 118.969C198.964 119.628 194.893 121.203 191.287 123.587L193.493 126.924ZM185.711 134.91C187.712 131.714 190.366 128.991 193.493 126.924L191.287 123.587C187.681 125.971 184.624 129.109 182.321 132.787L185.711 134.91ZM181.895 145.451C182.408 141.7 183.71 138.106 185.711 134.91L182.321 132.787C180.018 136.465 178.522 140.599 177.932 144.909L181.895 145.451ZM182.74 156.647C181.67 153.02 181.383 149.202 181.895 145.451L177.932 144.909C177.343 149.219 177.674 153.608 178.903 157.778L182.74 156.647ZM183.1 157.871L182.739 156.647L178.903 157.778L179.263 159.002L183.1 157.871ZM192.157 135.148C186.464 141.79 182.094 149.48 179.287 157.797L183.077 159.076C185.721 151.243 189.836 144.002 195.194 137.752L192.157 135.148ZM244.093 160.735C243.149 166.184 240.4 171.14 236.304 174.789L238.965 177.776C243.741 173.521 246.938 167.751 248.035 161.418L244.093 160.735ZM243.166 148.571C244.496 152.476 244.816 156.661 244.095 160.727L248.033 161.426C248.872 156.695 248.5 151.826 246.952 147.282L243.166 148.571ZM236.5 138.426C239.54 141.175 241.836 144.667 243.166 148.571L246.952 147.282C245.404 142.737 242.73 138.666 239.183 135.459L236.5 138.426ZM231.113 133.529L236.497 138.423L239.187 135.463L233.803 130.569L231.113 133.529ZM229.339 135.77C230.908 135.35 232.379 134.626 233.672 133.639L231.244 130.46C230.365 131.131 229.367 131.622 228.306 131.906L229.339 135.77ZM229.111 135.822C229.153 135.813 229.209 135.801 229.268 135.787L228.377 131.888C228.346 131.895 228.314 131.902 228.268 131.912L229.111 135.822ZM228.977 135.852C229.01 135.844 229.046 135.836 229.111 135.822L228.268 131.912C228.211 131.924 228.127 131.942 228.039 131.963L228.977 135.852ZM232.178 183.197C234.607 166.658 234.025 149.809 230.462 133.481L226.554 134.334C230.015 150.19 230.579 166.554 228.221 182.616L232.178 183.197ZM236.304 174.789L228.869 181.413L231.53 184.4L238.965 177.776L236.304 174.789ZM243.046 118.661C247.583 117.802 252.258 118.069 256.671 119.438L257.856 115.617C252.819 114.055 247.482 113.75 242.302 114.731L243.046 118.661ZM235.608 120.068L243.046 118.661L242.303 114.731L234.865 116.138L235.608 120.068ZM237.834 118.922C237.594 118.293 237.305 117.685 236.968 117.103L233.504 119.103C233.734 119.501 233.933 119.918 234.098 120.35L237.834 118.922ZM248.912 121.571L236.56 117.726L235.371 121.545L247.723 125.39L248.912 121.571ZM256.53 124.961C254.128 123.541 251.573 122.404 248.915 121.572L247.72 125.389C250.084 126.129 252.357 127.141 254.495 128.404L256.53 124.961ZM263.182 130.036C261.169 128.088 258.937 126.385 256.531 124.961L254.494 128.404C256.629 129.667 258.612 131.18 260.4 132.91L263.182 130.036ZM272.814 145.954C271.023 139.895 267.704 134.409 263.181 130.035L260.401 132.911C264.425 136.802 267.382 141.687 268.978 147.088L272.814 145.954ZM278.197 164.231L272.815 145.956L268.978 147.086L274.36 165.361L278.197 164.231ZM276.45 152.13L274.308 164.453L278.249 165.138L280.391 152.815L276.45 152.13ZM275.532 138.321C276.936 142.781 277.251 147.519 276.45 152.13L280.391 152.815C281.302 147.575 280.944 142.19 279.348 137.12L275.532 138.321ZM268.392 126.526C271.678 129.815 274.128 133.861 275.532 138.321L279.348 137.12C277.751 132.05 274.964 127.445 271.222 123.699L268.392 126.526ZM256.671 119.438C261.085 120.807 265.107 123.238 268.392 126.526L271.222 123.699C267.479 119.954 262.894 117.18 257.856 115.617L256.671 119.438ZM275.364 95.9482C262.537 93.6695 249.328 96.0111 238.033 102.563L240.04 106.023C250.52 99.9439 262.77 97.7736 274.664 99.8865L275.364 95.9482ZM284.609 97.5932L275.364 95.9483L274.664 99.8864L283.908 101.531L284.609 97.5932ZM274.107 93.6441L282.972 101.094L285.545 98.0311L276.68 90.5817L274.107 93.6441ZM266.152 89.3526C269.063 90.2204 271.77 91.6802 274.107 93.644L276.68 90.5818C273.926 88.2672 270.732 86.5442 267.295 85.5194L266.152 89.3526ZM257.175 88.5945C260.187 88.227 263.241 88.4848 266.152 89.3526L267.295 85.5194C263.857 84.4945 260.249 84.1897 256.69 84.6239L257.175 88.5945ZM248.63 91.4912C251.255 89.9473 254.163 88.962 257.175 88.5945L256.69 84.6239C253.132 85.0581 249.699 86.222 246.602 88.0434L248.63 91.4912ZM241.908 97.5771C243.717 95.1056 246.005 93.0352 248.63 91.4912L246.602 88.0434C243.506 89.8648 240.81 92.305 238.68 95.2138L241.908 97.5771ZM233.691 108.797L241.908 97.5771L238.68 95.2138L230.464 106.433L233.691 108.797ZM234.09 107.101C234.011 106.957 233.897 106.75 233.766 106.543L230.389 108.687C230.444 108.774 230.499 108.873 230.589 109.035L234.09 107.101ZM234.085 107.091L234.085 107.091L230.595 109.045L230.595 109.046L234.085 107.091ZM234.137 107.185L234.09 107.1L230.59 109.036L230.637 109.121L234.137 107.185ZM238.032 102.563L231.383 106.424L233.391 109.883L240.041 106.023L238.032 102.563Z" fill="white" mask="url(#path-5-outside-1_29_4)"/>
</svg>
