<svg width="36" height="36" viewBox="0 0 36 36" fill="none" xmlns="http://www.w3.org/2000/svg">
<rect width="36" height="36" rx="18" fill="#006633"/>
<path d="M28.0578 8.56668C20.8049 8.18524 18.0418 5.15911 18.0156 5.12966C17.9774 5.08874 17.9311 5.05612 17.8798 5.03381C17.8284 5.01151 17.773 5 17.717 5C17.661 5 17.6055 5.01151 17.5542 5.03381C17.5028 5.05612 17.4565 5.08874 17.4183 5.12966C17.3916 5.15991 14.6658 8.18331 7.3761 8.56668C7.27458 8.57208 7.179 8.61622 7.10905 8.68998C7.0391 8.76375 7.00011 8.86154 7.0001 8.9632V15.6302C6.98811 18.8445 8.01299 21.9769 9.92258 24.5624C11.8322 27.148 14.5247 29.0487 17.6003 29.9826C17.6763 30.0058 17.7576 30.0058 17.8336 29.9826C20.9093 29.0487 23.6018 27.148 25.5113 24.5624C27.4209 21.9769 28.4458 18.8445 28.4338 15.6302V8.9632C28.4338 8.86154 28.3948 8.76375 28.3249 8.68998C28.2549 8.61622 28.1593 8.57208 28.0578 8.56668ZM27.64 15.6302C27.6515 18.6536 26.6942 21.6012 24.9085 24.041C23.1227 26.4807 20.6024 28.2842 17.717 29.1872C14.8315 28.2842 12.3112 26.4807 10.5254 24.041C8.73969 21.6012 7.78242 18.6536 7.79395 15.6302V9.33725C13.8852 8.93607 16.8262 6.75417 17.717 5.94755C18.6077 6.75418 21.5488 8.93608 27.64 9.33725V15.6302ZM17.4864 7.13442C15.9919 8.20114 13.2964 9.56982 8.94263 10.035C8.84521 10.0453 8.75507 10.0914 8.68956 10.1642C8.62405 10.2371 8.5878 10.3316 8.58779 10.4296V15.6302C8.59167 18.4146 9.45928 21.1293 11.071 23.3998C12.6827 25.6704 14.9591 27.385 17.5863 28.3073C17.6709 28.3367 17.763 28.3367 17.8476 28.3073C20.476 27.3868 22.7536 25.6727 24.3656 23.4017C25.9776 21.1308 26.8444 18.4151 26.8461 15.6302V10.4296C26.8461 10.3316 26.8099 10.2371 26.7444 10.1642C26.6789 10.0914 26.5887 10.0453 26.4913 10.035C22.1376 9.56982 19.4421 8.20114 17.9476 7.13442C17.8803 7.0864 17.7997 7.06058 17.717 7.06058C17.6343 7.06058 17.5537 7.0864 17.4864 7.13442ZM17.717 27.5115C14.7128 26.4246 12.2331 24.2381 10.7787 21.3936C12.3279 20.718 14.9072 19.9826 17.1272 21.2178C17.671 21.5201 18.1408 21.7945 18.5606 22.0395C20.2165 23.007 21.158 23.557 22.7758 23.557C22.9312 23.557 23.0954 23.5502 23.2645 23.5399C21.8165 25.3495 19.8967 26.7239 17.717 27.5115ZM23.8927 22.6818C21.7196 22.9627 20.9394 22.5096 18.961 21.3542C18.834 21.28 18.7006 21.2022 18.5637 21.1227C19.7323 20.6183 22.3207 19.7884 24.9393 20.793C24.6448 21.4512 24.2947 22.0832 23.8927 22.6818ZM26.0523 10.7838V15.6302C26.0502 17.14 25.7767 18.6371 25.2449 20.0502C22.2294 18.8769 19.3322 19.892 18.1139 20.448V18.0997C18.114 17.8591 18.169 17.6216 18.2747 17.4054C18.3804 17.1892 18.534 17 18.7239 16.8521C18.92 17.1098 19.172 17.3197 19.461 17.4659C19.75 17.6121 20.0685 17.6907 20.3923 17.6958C20.7075 17.6923 21.019 17.6279 21.3098 17.5063C21.7966 17.3093 22.2524 17.043 22.663 16.7156C23.1149 16.3745 23.2839 16.2469 23.9557 16.4442C24.0343 16.4673 24.1181 16.4655 24.1956 16.4391C24.2732 16.4127 24.3406 16.3629 24.3888 16.2966C24.4369 16.2304 24.4633 16.1508 24.4645 16.0689C24.4656 15.987 24.4413 15.9067 24.395 15.8392C24.1929 15.545 22.3696 12.9754 20.5332 13.37C18.7259 13.7567 18.5462 14.9569 18.4601 16.0674C18.163 16.2485 17.9094 16.4925 17.717 16.7823C17.5245 16.4925 17.2709 16.2485 16.9738 16.0674C16.8877 14.9569 16.708 13.7568 14.9007 13.37C13.0648 12.9774 11.2406 15.545 11.0389 15.8392C10.9926 15.9067 10.9683 15.987 10.9695 16.0689C10.9706 16.1508 10.997 16.2304 11.0452 16.2967C11.0933 16.3629 11.1607 16.4127 11.2383 16.4391C11.3158 16.4656 11.3996 16.4673 11.4782 16.4442C12.1502 16.2477 12.3188 16.3748 12.7709 16.7156C13.1815 17.043 13.6373 17.3093 14.1241 17.5063C14.4149 17.6279 14.7264 17.6923 15.0416 17.6959C15.3654 17.6907 15.6839 17.612 15.9729 17.4659C16.2619 17.3197 16.5139 17.1098 16.71 16.8521C16.8999 16.9999 17.0535 17.1892 17.1592 17.4054C17.2649 17.6216 17.3199 17.8591 17.32 18.0997V20.4285C14.8466 19.1692 12.0911 19.952 10.4412 20.6745C9.74424 19.084 9.38349 17.3667 9.38163 15.6302V10.7838C13.4913 10.2904 16.1504 9.00544 17.717 7.94143C19.2835 9.00545 21.9426 10.2904 26.0523 10.7838ZM20.6636 15.5353C20.6224 15.4385 20.5445 15.362 20.4469 15.3225C20.3494 15.2831 20.2402 15.2839 20.1433 15.3248L19.2941 15.6853C19.392 14.9011 19.6361 14.3738 20.6995 14.146C21.5184 13.9728 22.518 14.836 23.1774 15.5783C22.8082 15.656 22.466 15.8295 22.1852 16.0814C21.83 16.3665 21.4352 16.5984 21.0133 16.7698C20.7565 16.8957 20.4661 16.9356 20.185 16.8835C19.9038 16.8314 19.6469 16.6903 19.4523 16.4808L20.4533 16.0558C20.5502 16.0147 20.6268 15.9367 20.6662 15.8391C20.7057 15.7415 20.7047 15.6322 20.6636 15.5353ZM15.2907 15.3248C15.2427 15.3044 15.1911 15.2937 15.139 15.2933C15.0868 15.2928 15.0351 15.3027 14.9868 15.3222C14.9385 15.3418 14.8944 15.3706 14.8573 15.4072C14.8201 15.4437 14.7905 15.4873 14.7701 15.5353C14.7497 15.5833 14.739 15.6348 14.7386 15.6869C14.7381 15.7391 14.748 15.7908 14.7675 15.8391C14.7871 15.8875 14.8159 15.9315 14.8525 15.9687C14.8891 16.0059 14.9326 16.0355 14.9806 16.0558L15.9819 16.4809C15.7873 16.6906 15.5304 16.832 15.2491 16.884C14.9679 16.9361 14.6773 16.896 14.4207 16.7698C13.9987 16.5984 13.6039 16.3665 13.2487 16.0814C12.9677 15.8292 12.6252 15.6555 12.2556 15.5779C12.914 14.8356 13.9138 13.9735 14.7344 14.146C15.7979 14.3738 16.0419 14.9011 16.14 15.6853L15.2907 15.3248Z" fill="white"/>
</svg>
