<svg width="145" height="140" viewBox="0 0 145 140" fill="none" xmlns="http://www.w3.org/2000/svg">
<rect width="145" height="140" rx="12" fill="#D0F19E"/>
<circle opacity="0.6" cx="70" cy="70" r="45" fill="white"/>
<ellipse cx="94" cy="58.5" rx="18" ry="18.5" fill="#ECF9D8"/>
<rect x="51" y="37" width="41" height="31" fill="#ECF9D8"/>
<g clip-path="url(#clip0_19_47200)">
<path d="M75.8884 44.2293C75.3533 43.0078 74.0713 42.2911 72.7488 42.4829L71.2245 42.705C70.851 42.7554 70.7097 42.2305 71.063 42.0993L72.4864 41.5339C73.7281 41.0393 74.4751 39.7774 74.3338 38.4449C74.0612 35.8303 72.8498 33.7507 70.7299 32.1961C69.6497 31.4087 68.1859 31.4289 67.1361 32.2567L65.9348 33.2056C65.642 33.4378 65.2584 33.0542 65.4906 32.7614L66.4395 31.5601C67.2673 30.5103 67.2774 29.0465 66.5001 27.9663C64.9455 25.8363 62.8659 24.635 60.2412 24.3524C58.9188 24.211 57.6468 24.9581 57.1623 26.1997L56.5969 27.6332C56.4556 27.9865 55.9307 27.8452 55.9912 27.4717L56.2133 25.9474C56.4051 24.6249 55.6884 23.3429 54.4669 22.8078C52.0542 21.7378 49.6516 21.7378 47.2389 22.8078C46.0073 23.3429 45.2906 24.6249 45.4824 25.9373L45.7045 27.4616C45.755 27.8351 45.23 27.9764 45.0887 27.6231L44.5234 26.1896C44.0287 24.948 42.7669 24.2009 41.4444 24.3423C38.8197 24.6249 36.7402 25.8262 35.1856 27.9563C34.3982 29.0364 34.4184 30.5002 35.2461 31.5501L36.2052 32.7513C36.4373 33.0441 36.0537 33.4277 35.761 33.1955L34.5597 32.2466C33.4997 31.4289 32.0359 31.4087 30.9558 32.1961C28.8258 33.7507 27.6245 35.8303 27.3418 38.455C27.2005 39.7875 27.9475 41.0494 29.1892 41.544L30.6227 42.1094C30.976 42.2507 30.8346 42.7756 30.4611 42.7151L28.9368 42.493C27.6144 42.2911 26.3424 43.0179 25.7973 44.2394C24.7272 46.642 24.7272 49.0547 25.7973 51.4573C26.3323 52.6788 27.6144 53.3955 28.9368 53.2037L30.4611 52.9816C30.8346 52.9311 30.976 53.4561 30.6227 53.5873L29.1892 54.1526C27.9576 54.6473 27.2106 55.9091 27.3418 57.2316C27.6245 59.8563 28.8358 61.9459 30.9558 63.4904C32.0359 64.2779 33.4997 64.2678 34.5496 63.4299L35.761 62.4709C36.0537 62.2387 36.4373 62.6223 36.2052 62.915L35.2461 64.1264C34.4184 65.1662 34.4083 66.6401 35.1856 67.7202C36.7402 69.8503 38.8197 71.0516 41.4444 71.3342C42.7669 71.4756 44.0388 70.7285 44.5234 69.4868L45.0887 68.0534C45.23 67.7 45.755 67.8414 45.7045 68.2149L45.4824 69.7392C45.2906 71.0617 46.0073 72.3336 47.2288 72.8787C49.6415 73.9387 52.0441 73.9387 54.4568 72.8787C55.6783 72.3336 56.395 71.0516 56.2032 69.7392L55.9811 68.2149C55.9307 67.8414 56.4556 67.7 56.5868 68.0534L57.1522 69.4868C57.6468 70.7285 58.9087 71.4756 60.2311 71.3342C62.8558 71.0516 64.9354 69.8503 66.49 67.7202C67.2774 66.6401 67.2572 65.1763 66.4294 64.1264L65.4704 62.915C65.2382 62.6223 65.6218 62.2387 65.9146 62.4709L67.126 63.4299C68.1758 64.2577 69.6396 64.2779 70.7198 63.4904C72.8498 61.9358 74.0511 59.8563 74.3338 57.2417C74.4751 55.9091 73.7281 54.6473 72.4864 54.1627L71.0529 53.5974C70.6996 53.4561 70.8409 52.9311 71.2144 52.9917L72.7388 53.2138C74.0612 53.4056 75.3332 52.6889 75.8783 51.4674C76.9584 49.0446 76.9584 46.642 75.8884 44.2293ZM68.0951 50.6295C67.8124 51.2756 67.3178 51.7803 66.7222 52.0933C67.0856 52.6586 67.2572 53.345 67.1865 54.0416C66.9745 56.0606 66.0357 57.6758 64.4003 58.8771C63.8754 59.2607 63.2495 59.4626 62.6034 59.4626C62.563 59.4626 62.5126 59.4626 62.4722 59.4626C62.5025 60.1288 62.3107 60.8153 61.8968 61.3806C60.6955 63.0261 59.0702 63.9548 57.0613 64.1769C56.9503 64.187 56.8392 64.1971 56.7282 64.1971C56.1326 64.1971 55.5673 64.0255 55.0928 63.7226C54.7798 64.3182 54.2751 64.8129 53.629 65.0955C52.7104 65.4993 51.7716 65.7113 50.8327 65.7113C49.904 65.7113 48.9652 65.5094 48.0465 65.0955C47.4004 64.8129 46.8957 64.3182 46.5828 63.7226C46.1083 64.0255 45.543 64.1971 44.9474 64.1971C44.8363 64.1971 44.7253 64.187 44.6142 64.1769C42.6053 63.9649 40.9801 63.0261 39.7788 61.3907C39.3649 60.8153 39.1731 60.1389 39.2034 59.4727C39.163 59.4727 39.1125 59.4727 39.0721 59.4727C38.426 59.4727 37.8002 59.2708 37.2752 58.8872C35.6398 57.696 34.701 56.0707 34.489 54.0618C34.4184 53.3551 34.59 52.6687 34.9534 52.1034C34.3578 51.7904 33.8631 51.2756 33.5805 50.6295C32.7628 48.7821 32.7628 46.9045 33.5805 45.047C33.8631 44.4009 34.3578 43.8962 34.9534 43.5832C34.59 43.0179 34.4184 42.3314 34.489 41.6248C34.701 39.6159 35.6398 37.9906 37.2752 36.7893C37.8002 36.4057 38.4159 36.2038 39.062 36.2038H39.1933C39.163 35.5376 39.3548 34.8511 39.7687 34.2858C40.97 32.6504 42.5953 31.7116 44.6041 31.4996C44.7152 31.4895 44.8262 31.4794 44.9373 31.4794C45.5329 31.4794 46.0881 31.651 46.5626 31.9538C46.8755 31.3582 47.3803 30.8636 48.0263 30.5809C48.945 30.1771 49.8838 29.9651 50.8125 29.9651C51.7413 29.9651 52.6801 30.167 53.5987 30.5809C54.2448 30.8636 54.7496 31.3582 55.0625 31.9538C55.537 31.651 56.1023 31.4794 56.6878 31.4794C56.7988 31.4794 56.9099 31.4895 57.0209 31.4996C59.0298 31.7116 60.6551 32.6504 61.8463 34.2858C62.2602 34.8612 62.452 35.5376 62.4217 36.2139H62.553C63.199 36.2139 63.8148 36.4158 64.3398 36.7994C65.9751 37.9906 66.914 39.6159 67.126 41.6349C67.1966 42.3415 67.025 43.028 66.6616 43.5933C67.2572 43.9063 67.7519 44.4211 68.0345 45.0672C68.9229 46.9045 68.9229 48.7821 68.0951 50.6295Z" fill="#1A5C4B"/>
<path d="M67.0959 45.501C66.7426 44.7136 65.9148 44.2392 65.0567 44.3704L64.0674 44.5117C63.8251 44.5521 63.7343 44.2089 63.9665 44.118L64.8952 43.7445C65.7028 43.4215 66.1874 42.6038 66.0965 41.7457C65.9148 40.0498 65.1375 38.697 63.7545 37.6875C63.0579 37.1727 62.0989 37.1929 61.4225 37.7279L60.6452 38.3437C60.4534 38.4951 60.2011 38.2428 60.3525 38.051L60.9683 37.2736C61.5033 36.5973 61.5134 35.6383 61.0087 34.9417C59.9992 33.5587 58.6464 32.7814 56.9505 32.5997C56.0924 32.5088 55.2646 32.9934 54.9517 33.7909L54.5782 34.7196C54.4873 34.9417 54.1441 34.8509 54.1845 34.6086L54.3258 33.6193C54.4469 32.7612 53.9826 31.9334 53.1952 31.5801C51.6305 30.8835 50.0657 30.8835 48.501 31.5801C47.7136 31.9334 47.2392 32.7612 47.3704 33.6193L47.5117 34.6086C47.5521 34.8509 47.2089 34.9417 47.118 34.7196L46.7546 33.7909C46.4316 32.9833 45.6139 32.4987 44.7558 32.5997C43.0598 32.7814 41.7071 33.5587 40.6976 34.9417C40.1929 35.6383 40.1929 36.5973 40.738 37.2736L41.3538 38.051C41.5052 38.2428 41.2529 38.4951 41.0611 38.3437L40.2837 37.7279C39.6074 37.1929 38.6484 37.1828 37.9518 37.6875C36.5688 38.697 35.7915 40.0498 35.6098 41.7457C35.5189 42.6038 36.0035 43.4316 36.801 43.7445L37.7297 44.118C37.9619 44.2089 37.871 44.5521 37.6187 44.5117L36.6294 44.3704C35.7713 44.2392 34.9435 44.7136 34.5902 45.501C33.8936 47.0657 33.8936 48.6305 34.5902 50.1851C34.9435 50.9826 35.7713 51.4469 36.6294 51.3157L37.6187 51.1744C37.861 51.134 37.9518 51.4772 37.7196 51.5681L36.7909 51.9416C35.9934 52.2646 35.5088 53.0823 35.5997 53.9404C35.7814 55.6363 36.5587 56.9891 37.9417 57.9986C38.6383 58.5134 39.5973 58.5033 40.2736 57.9582L41.0611 57.3323C41.2529 57.1809 41.5052 57.4332 41.3538 57.625L40.7279 58.4125C40.1929 59.0888 40.1828 60.0377 40.6875 60.7444C41.697 62.1274 43.0498 62.9047 44.7457 63.0864C45.6038 63.1773 46.4316 62.6927 46.7445 61.8952L47.1079 60.9665C47.1988 60.7343 47.542 60.8251 47.5016 61.0775L47.3603 62.0668C47.2392 62.9249 47.7035 63.7527 48.4909 64.106C50.0556 64.7925 51.6204 64.7925 53.1851 64.106C53.9725 63.7527 54.4469 62.9249 54.3157 62.0668L54.1744 61.0674C54.134 60.8251 54.4772 60.7343 54.5681 60.9564L54.9416 61.8851C55.2646 62.6927 56.0823 63.1773 56.9404 63.0763C58.6363 62.8946 59.9891 62.1173 60.9986 60.7343C61.5033 60.0377 61.4932 59.0787 60.9582 58.4024L60.3323 57.615C60.1809 57.4231 60.4332 57.1708 60.625 57.3222L61.4125 57.9481C62.0888 58.4831 63.0478 58.4932 63.7444 57.9885C65.1274 56.979 65.9047 55.6262 66.0864 53.9303C66.1773 53.0722 65.6927 52.2444 64.8851 51.9315L63.9564 51.558C63.7343 51.4671 63.8251 51.1239 64.0674 51.1643L65.0567 51.3056C65.9148 51.4268 66.7426 50.9624 67.0959 50.175C67.7925 48.6204 67.7925 47.0657 67.0959 45.501ZM60.6351 49.5592C60.5039 49.862 60.3121 50.1144 60.0698 50.3163C60.1708 50.6091 60.2112 50.9321 60.1809 51.2551C60.0496 52.4766 59.454 53.5063 58.4647 54.2231C58.2023 54.4149 57.9095 54.5461 57.5966 54.5966C57.536 54.8994 57.4149 55.2023 57.2231 55.4647C56.4861 56.4742 55.4867 57.0496 54.2551 57.1809C54.1845 57.191 54.1037 57.191 54.023 57.191C53.7706 57.191 53.5384 57.1506 53.3163 57.0698C53.1144 57.302 52.862 57.5039 52.5592 57.6351C51.9939 57.8875 51.4185 58.0087 50.8431 58.0087C50.2676 58.0087 49.6922 57.8875 49.1269 57.6351C48.8241 57.5039 48.5717 57.3121 48.3698 57.0698C48.1477 57.1506 47.9054 57.191 47.6631 57.191C47.5824 57.191 47.5117 57.191 47.431 57.1809C46.1994 57.0496 45.2 56.4742 44.463 55.4647C44.2712 55.2023 44.1501 54.8994 44.0895 54.5966C43.7766 54.536 43.4838 54.4048 43.2214 54.213C42.2321 53.4962 41.6365 52.4665 41.5052 51.245C41.4749 50.922 41.5153 50.599 41.6163 50.3062C41.374 50.1043 41.1822 49.8418 41.051 49.539C40.5563 48.4185 40.5563 47.2374 41.051 46.1168C41.1822 45.814 41.374 45.5616 41.6163 45.3597C41.5153 45.0669 41.4749 44.7439 41.5052 44.4209C41.6365 43.1792 42.2119 42.1899 43.2214 41.453C43.4838 41.2611 43.7766 41.1299 44.0895 41.0794C44.1501 40.7766 44.2712 40.4737 44.463 40.2113C45.2 39.2018 46.1994 38.6264 47.431 38.4951C47.5016 38.485 47.5824 38.485 47.6631 38.485C47.9155 38.485 48.1477 38.5254 48.3698 38.6062C48.5717 38.374 48.8241 38.1721 49.1269 38.0409C49.6922 37.7885 50.2676 37.6673 50.8431 37.6673C51.4185 37.6673 51.9939 37.7986 52.5592 38.0409C52.862 38.1721 53.1144 38.3639 53.3163 38.6062C53.5384 38.5254 53.7807 38.485 54.023 38.485C54.1037 38.485 54.1744 38.485 54.2551 38.4951C55.4867 38.6264 56.4861 39.2018 57.2231 40.2012C57.4149 40.4636 57.536 40.7665 57.5966 41.0693C57.9095 41.1299 58.2023 41.2511 58.4647 41.4429C59.4742 42.1798 60.0496 43.1792 60.1809 44.4108C60.2112 44.7338 60.1708 45.0568 60.0698 45.3496C60.3121 45.5515 60.5039 45.814 60.6351 46.1168C61.1399 47.2474 61.1399 48.4387 60.6351 49.5592Z" fill="#1A5C4B"/>
<path d="M59.6357 46.5711C59.4439 46.1471 58.9998 45.8846 58.5354 45.9553L58.0004 46.0361C57.8691 46.0563 57.8186 45.8745 57.9398 45.8241L58.4445 45.6222C58.8786 45.4506 59.1411 45.0064 59.0906 44.542C58.9897 43.6234 58.5657 42.8864 57.8186 42.3413C57.435 42.0687 56.9202 42.0687 56.5568 42.3615L56.1328 42.6946C56.0318 42.7754 55.8905 42.6442 55.9713 42.5432L56.3044 42.1192C56.5972 41.7558 56.5972 41.241 56.3246 40.8574C55.7795 40.1103 55.0425 39.6863 54.1239 39.5854C53.6595 39.5349 53.2154 39.7974 53.0437 40.2315L52.8418 40.7362C52.7914 40.8574 52.6097 40.8069 52.6298 40.6756L52.7106 40.1406C52.7813 39.6762 52.5289 39.2321 52.0948 39.0403C51.2468 38.6668 50.3989 38.6668 49.561 39.0403C49.137 39.2321 48.8846 39.6762 48.9452 40.1406L49.026 40.6756C49.0461 40.8069 48.8644 40.8574 48.814 40.7362L48.6121 40.2315C48.4404 39.7974 47.9963 39.5349 47.5319 39.5854C46.6133 39.6863 45.8763 40.1103 45.3312 40.8574C45.0586 41.241 45.0586 41.7558 45.3514 42.1192L45.6845 42.5432C45.7653 42.6442 45.6341 42.7855 45.523 42.6946L45.099 42.3615C44.7356 42.0687 44.2208 42.0687 43.8372 42.3413C43.0901 42.8864 42.6661 43.6234 42.5652 44.542C42.5147 45.0064 42.7772 45.4506 43.2113 45.6222L43.716 45.8241C43.8372 45.8745 43.7867 46.0563 43.6554 46.0361L43.1204 45.9553C42.656 45.8846 42.2119 46.137 42.0201 46.5711C41.6466 47.4191 41.6466 48.2569 42.0201 49.1049C42.2119 49.539 42.656 49.7914 43.1204 49.7207L43.6554 49.64C43.7867 49.6198 43.8372 49.8015 43.716 49.8519L43.2113 50.0538C42.7772 50.2255 42.5147 50.6696 42.5652 51.134C42.6661 52.0526 43.0901 52.7896 43.8372 53.3246C44.2208 53.5972 44.7255 53.5972 45.099 53.3044L45.523 52.9713C45.624 52.8905 45.7653 53.0218 45.6845 53.1328L45.3514 53.5568C45.0586 53.9202 45.0586 54.4351 45.3312 54.8187C45.8763 55.5657 46.6133 55.9897 47.5319 56.0906C47.9963 56.1411 48.4404 55.8786 48.6121 55.4445L48.814 54.9398C48.8644 54.8187 49.0461 54.8691 49.026 55.0004L48.9452 55.5354C48.8745 55.9998 49.1269 56.4439 49.561 56.6358C50.409 57.0093 51.2569 57.0093 52.0948 56.6358C52.5188 56.4439 52.7712 55.9998 52.7106 55.5354L52.6298 55.0004C52.6097 54.8691 52.7914 54.8187 52.8418 54.9398L53.0437 55.4445C53.2154 55.8786 53.6595 56.1411 54.1239 56.0906C55.0425 55.9897 55.7795 55.5758 56.3246 54.8187C56.5972 54.4351 56.5972 53.9202 56.3044 53.5568L55.9713 53.1328C55.8905 53.0319 56.0217 52.8905 56.1328 52.9713L56.5568 53.3044C56.9202 53.5972 57.435 53.5972 57.8186 53.3246C58.5657 52.7795 58.9897 52.0526 59.0906 51.134C59.1411 50.6696 58.8786 50.2255 58.4445 50.0538L57.9398 49.8519C57.8186 49.8015 57.8691 49.6198 58.0004 49.64L58.5354 49.7207C58.9998 49.7914 59.4439 49.539 59.6357 49.1049C60.0092 48.267 60.0092 47.4191 59.6357 46.5711ZM50.843 51.2148C48.9856 51.2148 47.4713 49.7106 47.4713 47.8532C47.4713 45.9957 48.9856 44.4814 50.843 44.4814C52.7005 44.4814 54.2148 45.9957 54.2148 47.8532C54.2148 49.7005 52.7005 51.2148 50.843 51.2148Z" fill="#1A5C4B"/>
<path d="M53.1144 47.8431C53.1144 49.0948 52.0948 50.1043 50.843 50.1043C49.5913 50.1043 48.5717 49.0948 48.5717 47.8431C48.5717 46.5913 49.5913 45.5717 50.843 45.5717C52.0948 45.5717 53.1144 46.5913 53.1144 47.8431Z" fill="#1A5C4B"/>
</g>
<path d="M50.3364 61.5247V103.076H53.3767V61.8972C52.9305 62.8715 52.4389 63.3873 51.9397 63.3873C51.3801 63.3873 50.828 62.7569 50.3364 61.5247Z" fill="#1A5C4B"/>
<path d="M37.0774 86.8338C44.5323 88.1258 47.6445 90.3082 50.3363 94.3932C49.1089 87.2368 42.9303 81.7937 35.4647 81.7937H29.0538C29.0538 90.1944 35.8132 96.9955 44.1624 96.9955H49.2465C46.7396 92.6845 44.4543 90.4528 36.6891 89.107C36.0655 88.9994 35.6466 88.4026 35.7536 87.7736C35.8591 87.1476 36.4522 86.7323 37.0774 86.8338Z" fill="#1A5C4B"/>
<path d="M54.3902 89.3244C57.0805 85.2379 60.1942 83.057 67.6476 81.765C68.2789 81.665 68.8644 82.0788 68.9729 82.7063C69.0799 83.3338 68.6611 83.9306 68.0374 84.0398C60.2722 85.384 57.987 87.6172 55.4801 91.9283H60.5642C68.9133 91.9283 75.6727 85.1271 75.6727 76.7265H69.2618C61.7962 76.7265 55.6192 82.1695 54.3902 89.3244Z" fill="#1A5C4B"/>
<path d="M106.859 103.985C105.014 104.031 103.181 103.679 101.487 102.954C99.6037 102.157 97.5695 101.768 95.5216 101.815C93.4741 101.768 91.4402 102.157 89.5574 102.954C87.8634 103.679 86.0303 104.03 84.1852 103.985C82.3446 104.03 80.5159 103.679 78.8262 102.955C76.9471 102.157 74.9164 101.768 72.8719 101.815C70.8272 101.768 68.796 102.156 66.9165 102.954C65.2268 103.678 63.3981 104.029 61.5575 103.983C59.7124 104.029 57.8794 103.678 56.1853 102.953C54.3025 102.156 52.2687 101.767 50.2211 101.814C48.1735 101.768 46.1397 102.156 44.2569 102.954C42.5629 103.679 40.7298 104.031 38.8848 103.985C38.6667 103.985 38.4575 104.07 38.3033 104.223C38.1491 104.375 38.0625 104.582 38.0625 104.798V116.187C38.0625 116.402 38.1491 116.609 38.3033 116.762C38.4575 116.914 38.6667 117 38.8848 117H106.859C107.077 117 107.286 116.914 107.44 116.762C107.595 116.609 107.681 116.402 107.681 116.187V104.798C107.681 104.582 107.595 104.375 107.44 104.223C107.286 104.07 107.077 103.985 106.859 103.985ZM50.2135 108.323C49.9966 108.323 49.7846 108.259 49.6043 108.14C49.4241 108.021 49.2835 107.852 49.2005 107.653C49.1176 107.455 49.0959 107.237 49.1382 107.027C49.1805 106.816 49.2849 106.623 49.4382 106.471C49.5915 106.32 49.7869 106.216 49.9996 106.175C50.2122 106.133 50.4327 106.154 50.633 106.236C50.8333 106.318 51.0046 106.457 51.125 106.636C51.2455 106.814 51.3098 107.024 51.3098 107.238C51.3098 107.526 51.1943 107.802 50.9887 108.005C50.7831 108.209 50.5042 108.323 50.2135 108.323ZM61.5432 112.662C61.3264 112.662 61.1144 112.598 60.9341 112.479C60.7538 112.36 60.6133 112.19 60.5303 111.992C60.4473 111.794 60.4256 111.576 60.4679 111.365C60.5102 111.155 60.6147 110.962 60.768 110.81C60.9213 110.658 61.1167 110.555 61.3293 110.513C61.542 110.471 61.7625 110.493 61.9628 110.575C62.1631 110.657 62.3343 110.796 62.4548 110.974C62.5753 111.153 62.6396 111.362 62.6396 111.577C62.6396 111.865 62.5241 112.14 62.3185 112.344C62.1129 112.547 61.834 112.662 61.5432 112.662ZM72.8719 108.323C72.6551 108.323 72.4431 108.259 72.2628 108.14C72.0825 108.021 71.942 107.852 71.859 107.653C71.776 107.455 71.7543 107.237 71.7966 107.027C71.8389 106.816 71.9433 106.623 72.0967 106.471C72.25 106.32 72.4453 106.216 72.658 106.175C72.8707 106.133 73.0911 106.154 73.2915 106.236C73.4918 106.318 73.663 106.457 73.7835 106.636C73.904 106.814 73.9683 107.024 73.9683 107.238C73.9683 107.526 73.8528 107.802 73.6472 108.005C73.4415 108.209 73.1627 108.323 72.8719 108.323ZM84.2006 112.662C83.9838 112.662 83.7718 112.598 83.5915 112.479C83.4112 112.36 83.2707 112.19 83.1877 111.992C83.1047 111.794 83.083 111.576 83.1253 111.365C83.1676 111.155 83.272 110.962 83.4253 110.81C83.5787 110.658 83.774 110.555 83.9867 110.513C84.1994 110.471 84.4198 110.493 84.6201 110.575C84.8205 110.657 84.9917 110.796 85.1122 110.974C85.2327 111.153 85.297 111.362 85.297 111.577C85.297 111.865 85.1814 112.14 84.9758 112.344C84.7702 112.547 84.4914 112.662 84.2006 112.662ZM95.5304 108.323C95.3135 108.323 95.1016 108.259 94.9213 108.14C94.741 108.021 94.6004 107.852 94.5175 107.653C94.4345 107.455 94.4128 107.237 94.4551 107.027C94.4974 106.816 94.6018 106.623 94.7551 106.471C94.9085 106.32 95.1038 106.216 95.3165 106.175C95.5292 106.133 95.7496 106.154 95.9499 106.236C96.1503 106.318 96.3215 106.457 96.442 106.636C96.5624 106.814 96.6267 107.024 96.6267 107.238C96.6267 107.526 96.5112 107.802 96.3056 108.005C96.1 108.209 95.8211 108.323 95.5304 108.323Z" fill="#1A5C4B"/>
<g clip-path="url(#clip1_19_47200)">
<path d="M113.255 59.7437C112.864 58.8442 111.927 58.3165 110.96 58.4577L109.846 58.6212C109.573 58.6584 109.47 58.2719 109.728 58.1752L110.768 57.759C111.676 57.3947 112.222 56.4655 112.119 55.4843C111.919 53.559 111.034 52.0277 109.485 50.883C108.695 50.3031 107.625 50.318 106.858 50.9276L105.98 51.6263C105.766 51.7973 105.486 51.5148 105.656 51.2992L106.349 50.4146C106.954 49.6416 106.961 48.5637 106.393 47.7683C105.257 46.1999 103.737 45.3153 101.819 45.1071C100.852 45.0031 99.9228 45.5531 99.5686 46.4675L99.1555 47.523C99.0522 47.7832 98.6685 47.6791 98.7128 47.4041L98.8751 46.2816C99.0153 45.3078 98.4915 44.3638 97.5987 43.9698C95.8354 43.1819 94.0794 43.1819 92.3161 43.9698C91.4159 44.3638 90.8921 45.3078 91.0323 46.2742L91.1946 47.3966C91.2315 47.6717 90.8478 47.7758 90.7445 47.5156L90.3314 46.46C89.9699 45.5457 89.0476 44.9956 88.0811 45.0997C86.1628 45.3078 84.6429 46.1924 83.5067 47.7609C82.9312 48.5563 82.946 49.6341 83.551 50.4072L84.2519 51.2918C84.4216 51.5074 84.1412 51.7898 83.9273 51.6189L83.0493 50.9201C82.2746 50.318 81.2048 50.3031 80.4153 50.883C78.8586 52.0277 77.9806 53.559 77.774 55.4917C77.6707 56.473 78.2167 57.4021 79.1242 57.7664L80.1719 58.1827C80.4301 58.2867 80.3268 58.6733 80.0538 58.6287L78.9397 58.4651C77.9732 58.3165 77.0436 58.8517 76.6452 59.7511C75.8631 61.5203 75.8631 63.2969 76.6452 65.0661C77.0362 65.9655 77.9732 66.4933 78.9397 66.3521L80.0538 66.1885C80.3268 66.1514 80.4301 66.5379 80.1719 66.6346L79.1242 67.0508C78.2241 67.4151 77.6781 68.3443 77.774 69.3181C77.9806 71.2508 78.866 72.7895 80.4153 73.9268C81.2048 74.5066 82.2746 74.4992 83.0419 73.8822L83.9273 73.176C84.1412 73.0051 84.4216 73.2875 84.2519 73.5031L83.551 74.3951C82.946 75.1608 82.9386 76.2461 83.5067 77.0415C84.6429 78.6099 86.1628 79.4945 88.0811 79.7027C89.0476 79.8067 89.9772 79.2566 90.3314 78.3423L90.7445 77.2868C90.8478 77.0266 91.2315 77.1307 91.1946 77.4057L91.0323 78.5282C90.8921 79.5019 91.4159 80.4386 92.3087 80.84C94.072 81.6205 95.828 81.6205 97.5913 80.84C98.4841 80.4386 99.0079 79.4945 98.8677 78.5282L98.7054 77.4057C98.6685 77.1307 99.0522 77.0266 99.1481 77.2868L99.5613 78.3423C99.9228 79.2566 100.845 79.8067 101.812 79.7027C103.73 79.4945 105.25 78.6099 106.386 77.0415C106.961 76.2461 106.947 75.1682 106.342 74.3951L105.641 73.5031C105.471 73.2875 105.751 73.0051 105.965 73.176L106.851 73.8822C107.618 74.4918 108.688 74.5066 109.477 73.9268C111.034 72.7821 111.912 71.2508 112.119 69.3255C112.222 68.3443 111.676 67.4151 110.768 67.0583L109.721 66.642C109.463 66.5379 109.566 66.1514 109.839 66.196L110.953 66.3595C111.919 66.5008 112.849 65.973 113.247 65.0735C114.037 63.2895 114.037 61.5203 113.255 59.7437ZM107.559 64.4565C107.352 64.9323 106.991 65.304 106.556 65.5344C106.821 65.9507 106.947 66.4562 106.895 66.9691C106.74 68.4558 106.054 69.6451 104.859 70.5297C104.475 70.8122 104.018 70.9609 103.545 70.9609C103.516 70.9609 103.479 70.9609 103.449 70.9609C103.472 71.4515 103.331 71.9569 103.029 72.3732C102.151 73.5849 100.963 74.2688 99.4949 74.4323C99.4137 74.4397 99.3325 74.4472 99.2514 74.4472C98.8161 74.4472 98.4029 74.3208 98.0562 74.0978C97.8274 74.5364 97.4585 74.9006 96.9863 75.1087C96.3149 75.4061 95.6288 75.5622 94.9426 75.5622C94.2639 75.5622 93.5777 75.4135 92.9063 75.1087C92.4341 74.9006 92.0652 74.5364 91.8365 74.0978C91.4897 74.3208 91.0766 74.4472 90.6413 74.4472C90.5601 74.4472 90.4789 74.4397 90.3978 74.4323C88.9296 74.2762 87.7417 73.5849 86.8637 72.3807C86.5612 71.9569 86.421 71.4589 86.4432 70.9683C86.4137 70.9683 86.3768 70.9683 86.3473 70.9683C85.8751 70.9683 85.4176 70.8196 85.034 70.5371C83.8387 69.66 83.1526 68.4632 82.9976 66.9839C82.946 66.4636 83.0714 65.9581 83.337 65.5418C82.9017 65.3114 82.5402 64.9323 82.3336 64.4565C81.736 63.0962 81.736 61.7136 82.3336 60.3458C82.5402 59.8701 82.9017 59.4984 83.337 59.268C83.0714 58.8517 82.946 58.3462 82.9976 57.8259C83.1526 56.3466 83.8387 55.1498 85.034 54.2652C85.4176 53.9827 85.8677 53.8341 86.3399 53.8341H86.4358C86.4137 53.3434 86.5538 52.838 86.8563 52.4217C87.7343 51.2175 88.9222 50.5262 90.3904 50.37C90.4716 50.3626 90.5527 50.3552 90.6339 50.3552C91.0692 50.3552 91.475 50.4816 91.8217 50.7046C92.0505 50.266 92.4194 49.9017 92.8915 49.6936C93.5629 49.3963 94.2491 49.2402 94.9279 49.2402C95.6067 49.2402 96.2928 49.3888 96.9642 49.6936C97.4364 49.9017 97.8053 50.266 98.034 50.7046C98.3808 50.4816 98.794 50.3552 99.2219 50.3552C99.303 50.3552 99.3842 50.3626 99.4654 50.37C100.934 50.5262 102.121 51.2175 102.992 52.4217C103.295 52.8454 103.435 53.3435 103.413 53.8415H103.509C103.981 53.8415 104.431 53.9902 104.814 54.2726C106.01 55.1498 106.696 56.3466 106.851 57.8333C106.902 58.3536 106.777 58.8591 106.511 59.2754C106.947 59.5058 107.308 59.8849 107.515 60.3607C108.164 61.7136 108.164 63.0962 107.559 64.4565Z" fill="#1A5C4B"/>
<path d="M106.829 60.6802C106.571 60.1004 105.966 59.751 105.338 59.8476L104.615 59.9517C104.438 59.9814 104.372 59.7287 104.542 59.6618L105.22 59.3868C105.811 59.1489 106.165 58.5468 106.098 57.9149C105.966 56.6661 105.397 55.67 104.387 54.9267C103.878 54.5476 103.177 54.5624 102.682 54.9564L102.114 55.4098C101.974 55.5213 101.79 55.3355 101.9 55.1943L102.35 54.6219C102.741 54.1238 102.749 53.4177 102.38 52.9047C101.642 51.8864 100.653 51.314 99.4139 51.1802C98.7868 51.1133 98.1818 51.4701 97.953 52.0573L97.6801 52.7412C97.6137 52.9048 97.3628 52.8378 97.3923 52.6594L97.4956 51.931C97.5841 51.2991 97.2448 50.6896 96.6693 50.4294C95.5257 49.9165 94.3821 49.9165 93.2385 50.4294C92.663 50.6896 92.3162 51.2991 92.4122 51.931L92.5155 52.6594C92.545 52.8378 92.2941 52.9048 92.2277 52.7412L91.9621 52.0573C91.726 51.4627 91.1284 51.1058 90.5013 51.1802C89.2617 51.314 88.2731 51.8864 87.5353 52.9047C87.1664 53.4177 87.1664 54.1238 87.5648 54.6219L88.0149 55.1943C88.1255 55.3355 87.9411 55.5213 87.8009 55.4098L87.2328 54.9564C86.7385 54.5624 86.0376 54.555 85.5285 54.9267C84.5177 55.67 83.9496 56.6661 83.8168 57.9149C83.7504 58.5468 84.1045 59.1563 84.6874 59.3868L85.3662 59.6618C85.5359 59.7287 85.4695 59.9814 85.285 59.9517L84.562 59.8476C83.9348 59.751 83.3298 60.1004 83.0716 60.6802C82.5625 61.8324 82.5625 62.9846 83.0716 64.1293C83.3298 64.7166 83.9348 65.0585 84.562 64.9619L85.285 64.8578C85.4621 64.8281 85.5285 65.0808 85.3588 65.1477L84.68 65.4228C84.0971 65.6606 83.743 66.2628 83.8094 66.8946C83.9422 68.1434 84.5103 69.1395 85.5211 69.8829C86.0302 70.262 86.7311 70.2545 87.2254 69.8531L87.8009 69.3923C87.9411 69.2808 88.1255 69.4666 88.0149 69.6078L87.5574 70.1876C87.1664 70.6857 87.159 71.3844 87.5279 71.9048C88.2657 72.9232 89.2544 73.4956 90.4939 73.6294C91.121 73.6963 91.726 73.3394 91.9547 72.7522L92.2203 72.0683C92.2867 71.8973 92.5376 71.9643 92.5081 72.1501L92.4048 72.8786C92.3162 73.5104 92.6556 74.12 93.2311 74.3801C94.3747 74.8856 95.5183 74.8856 96.6619 74.3801C97.2374 74.12 97.5841 73.5104 97.4882 72.8786L97.3849 72.1427C97.3554 71.9643 97.6063 71.8973 97.6727 72.0609L97.9457 72.7448C98.1818 73.3394 98.7794 73.6963 99.4065 73.6219C100.646 73.4881 101.635 72.9157 102.372 71.8973C102.741 71.3844 102.734 70.6783 102.343 70.1802L101.886 69.6004C101.775 69.4592 101.959 69.2733 102.099 69.3848L102.675 69.8457C103.169 70.2397 103.87 70.2471 104.379 69.8754C105.39 69.1321 105.958 68.136 106.091 66.8872C106.157 66.2553 105.803 65.6458 105.213 65.4153L104.534 65.1403C104.372 65.0734 104.438 64.8207 104.615 64.8504L105.338 64.9545C105.966 65.0437 106.571 64.7017 106.829 64.1219C107.338 62.9771 107.338 61.8324 106.829 60.6802ZM102.107 63.6685C102.011 63.8915 101.871 64.0773 101.694 64.226C101.767 64.4415 101.797 64.6794 101.775 64.9173C101.679 65.8167 101.244 66.575 100.521 67.1027C100.329 67.244 100.115 67.3406 99.8861 67.3778C99.8418 67.6008 99.7533 67.8238 99.6131 68.0171C99.0745 68.7604 98.3441 69.1841 97.444 69.2808C97.3923 69.2882 97.3333 69.2882 97.2743 69.2882C97.0898 69.2882 96.9201 69.2585 96.7578 69.199C96.6102 69.37 96.4258 69.5186 96.2045 69.6153C95.7913 69.8011 95.3707 69.8903 94.9502 69.8903C94.5296 69.8903 94.1091 69.8011 93.6959 69.6153C93.4746 69.5186 93.2901 69.3774 93.1426 69.199C92.9803 69.2585 92.8032 69.2882 92.6261 69.2882C92.5671 69.2882 92.5155 69.2882 92.4564 69.2808C91.5563 69.1841 90.8259 68.7604 90.2873 68.0171C90.1471 67.8238 90.0586 67.6008 90.0143 67.3778C89.7856 67.3332 89.5716 67.2365 89.3798 67.0953C88.6568 66.5675 88.2215 65.8093 88.1255 64.9099C88.1034 64.672 88.1329 64.4341 88.2067 64.2185C88.0296 64.0699 87.8894 63.8766 87.7935 63.6536C87.432 62.8285 87.432 61.9588 87.7935 61.1336C87.8894 60.9106 88.0296 60.7248 88.2067 60.5761C88.1329 60.3606 88.1034 60.1227 88.1255 59.8848C88.2215 58.9705 88.642 58.242 89.3798 57.6994C89.5716 57.5581 89.7856 57.4615 90.0143 57.4243C90.0586 57.2013 90.1471 56.9783 90.2873 56.785C90.8259 56.0417 91.5563 55.618 92.4564 55.5213C92.5081 55.5139 92.5671 55.5139 92.6261 55.5139C92.8106 55.5139 92.9803 55.5436 93.1426 55.6031C93.2901 55.4321 93.4746 55.2835 93.6959 55.1868C94.1091 55.001 94.5296 54.9118 94.9502 54.9118C95.3707 54.9118 95.7913 55.0084 96.2045 55.1868C96.4258 55.2835 96.6102 55.4247 96.7578 55.6031C96.9201 55.5436 97.0972 55.5139 97.2743 55.5139C97.3333 55.5139 97.3849 55.5139 97.444 55.5213C98.3441 55.618 99.0745 56.0417 99.6131 56.7776C99.7533 56.9709 99.8418 57.1939 99.8861 57.4169C100.115 57.4615 100.329 57.5507 100.521 57.6919C101.258 58.2346 101.679 58.9705 101.775 59.8774C101.797 60.1152 101.767 60.3531 101.694 60.5687C101.871 60.7174 102.011 60.9106 102.107 61.1336C102.476 61.9662 102.476 62.8433 102.107 63.6685Z" fill="#1A5C4B"/>
<path d="M101.376 61.4681C101.236 61.1559 100.912 60.9627 100.572 61.0147L100.181 61.0742C100.085 61.089 100.048 60.9552 100.137 60.9181L100.506 60.7694C100.823 60.643 101.015 60.316 100.978 59.974C100.904 59.2976 100.594 58.7549 100.048 58.3535C99.768 58.1528 99.3918 58.1528 99.1262 58.3684L98.8163 58.6137C98.7425 58.6732 98.6392 58.5765 98.6982 58.5022L98.9417 58.19C99.1557 57.9224 99.1557 57.5433 98.9565 57.2608C98.558 56.7107 98.0195 56.3985 97.3481 56.3242C97.0087 56.287 96.684 56.4803 96.5586 56.7999L96.411 57.1716C96.3742 57.2608 96.2414 57.2236 96.2561 57.127L96.3151 56.733C96.3668 56.3911 96.1823 56.064 95.8651 55.9228C95.2453 55.6477 94.6256 55.6477 94.0132 55.9228C93.7033 56.064 93.5189 56.3911 93.5631 56.733L93.6222 57.127C93.6369 57.2236 93.5041 57.2608 93.4672 57.1716L93.3197 56.7999C93.1942 56.4803 92.8696 56.287 92.5302 56.3242C91.8588 56.3985 91.3202 56.7107 90.9218 57.2608C90.7226 57.5433 90.7226 57.9224 90.9366 58.19L91.18 58.5022C91.2391 58.5765 91.1432 58.6806 91.062 58.6137L90.7521 58.3684C90.4865 58.1528 90.1102 58.1528 89.8299 58.3535C89.2839 58.7549 88.974 59.2976 88.9002 59.974C88.8634 60.316 89.0552 60.643 89.3724 60.7694L89.7413 60.9181C89.8299 60.9552 89.793 61.089 89.6971 61.0742L89.306 61.0147C88.9666 60.9627 88.642 61.1485 88.5018 61.4681C88.2288 62.0926 88.2288 62.7095 88.5018 63.334C88.642 63.6536 88.9666 63.8394 89.306 63.7874L89.6971 63.7279C89.793 63.7131 89.8299 63.8469 89.7413 63.884L89.3724 64.0327C89.0552 64.1591 88.8634 64.4862 88.9002 64.8281C88.974 65.5045 89.2839 66.0472 89.8299 66.4412C90.1102 66.6419 90.4791 66.6419 90.7521 66.4263L91.062 66.181C91.1358 66.1215 91.2391 66.2182 91.18 66.2999L90.9366 66.6121C90.7226 66.8797 90.7226 67.2588 90.9218 67.5413C91.3202 68.0914 91.8588 68.4036 92.5302 68.4779C92.8696 68.5151 93.1942 68.3218 93.3197 68.0022L93.4672 67.6305C93.5041 67.5413 93.6369 67.5785 93.6222 67.6751L93.5631 68.0691C93.5115 68.411 93.6959 68.7381 94.0132 68.8794C94.633 69.1544 95.2527 69.1544 95.8651 68.8794C96.175 68.7381 96.3594 68.411 96.3151 68.0691L96.2561 67.6751C96.2414 67.5785 96.3742 67.5413 96.411 67.6305L96.5586 68.0022C96.684 68.3218 97.0087 68.5151 97.3481 68.4779C98.0195 68.4036 98.558 68.0988 98.9565 67.5413C99.1557 67.2588 99.1557 66.8797 98.9417 66.6121L98.6982 66.2999C98.6392 66.2256 98.7351 66.1215 98.8163 66.181L99.1262 66.4263C99.3918 66.6419 99.768 66.6419 100.048 66.4412C100.594 66.0398 100.904 65.5045 100.978 64.8281C101.015 64.4862 100.823 64.1591 100.506 64.0327L100.137 63.884C100.048 63.8469 100.085 63.7131 100.181 63.7279L100.572 63.7874C100.912 63.8394 101.236 63.6536 101.376 63.334C101.649 62.717 101.649 62.0926 101.376 61.4681ZM94.9502 64.8876C93.5927 64.8876 92.486 63.78 92.486 62.4122C92.486 61.0444 93.5927 59.9294 94.9502 59.9294C96.3078 59.9294 97.4145 61.0444 97.4145 62.4122C97.4145 63.7725 96.3078 64.8876 94.9502 64.8876Z" fill="#1A5C4B"/>
<path d="M96.6103 62.4048C96.6103 63.3265 95.8651 64.0699 94.9502 64.0699C94.0353 64.0699 93.2902 63.3265 93.2902 62.4048C93.2902 61.483 94.0353 60.7322 94.9502 60.7322C95.8651 60.7322 96.6103 61.483 96.6103 62.4048Z" fill="#1A5C4B"/>
</g>
<path d="M94.5799 72.4794V103.076H96.8019V72.7537C96.4758 73.4711 96.1165 73.8509 95.7517 73.8509C95.3427 73.8509 94.9392 73.3867 94.5799 72.4794Z" fill="#1A5C4B"/>
<path d="M84.8893 91.116C90.3379 92.0673 92.6125 93.6744 94.5798 96.6824C93.6827 91.4127 89.1671 87.4047 83.7107 87.4047H79.0252C79.0252 93.5906 83.9654 98.5986 90.0675 98.5986H93.7833C91.9511 95.4241 90.2809 93.7808 84.6056 92.7899C84.1498 92.7106 83.8437 92.2712 83.9219 91.808C83.999 91.347 84.4324 91.0412 84.8893 91.116Z" fill="#1A5C4B"/>
<path d="M97.5426 92.9499C99.5088 89.9408 101.785 88.3349 107.232 87.3835C107.693 87.3099 108.121 87.6146 108.201 88.0766C108.279 88.5387 107.973 88.9781 107.517 89.0585C101.842 90.0484 100.171 91.6928 98.3392 94.8673H102.055C108.157 94.8673 113.097 89.8592 113.097 83.6733H108.412C102.955 83.6733 98.4408 87.6814 97.5426 92.9499Z" fill="#1A5C4B"/>
<defs>
<clipPath id="clip0_19_47200">
<rect width="51.6861" height="51.6861" fill="white" transform="translate(25 22)"/>
</clipPath>
<clipPath id="clip1_19_47200">
<rect width="37.7754" height="38.0595" fill="white" transform="translate(76.0625 43.375)"/>
</clipPath>
</defs>
</svg>
