<svg width="36" height="36" viewBox="0 0 36 36" fill="none" xmlns="http://www.w3.org/2000/svg">
<rect width="36" height="36" rx="18" fill="#006633"/>
<mask id="path-2-inside-1_95_7031" fill="white">
<path d="M30.8666 15.4237C30.8898 15.2257 30.7591 15.0298 30.4772 14.8408C30.2818 14.7097 30.0167 14.5833 29.7041 14.4713L30.3642 13.2041C30.3846 13.1649 30.3919 13.1203 30.3851 13.0766C30.3783 13.033 30.3578 12.9927 30.3264 12.9616L30.1808 12.817L30.5331 11.1668C30.5446 11.1133 30.5343 11.0573 30.5046 11.0113C30.4749 10.9653 30.4283 10.9331 30.3748 10.9216L29.6529 10.7667L29.7218 10.2331C29.7259 10.2011 29.7225 10.1686 29.7119 10.1382C29.7012 10.1078 29.6837 10.0803 29.6605 10.0579C29.6374 10.0356 29.6094 10.0189 29.5787 10.0093C29.5481 9.99976 29.5156 9.99751 29.4839 10.0028L28.5478 10.1585C28.4998 10.1665 28.4561 10.1913 28.4246 10.2285C28.393 10.2657 28.3757 10.313 28.3756 10.3618L28.3736 11.3017L28.2237 11.2695C28.1941 11.2631 28.1634 11.2634 28.1339 11.2703C28.1044 11.2772 28.0768 11.2905 28.053 11.3093C28.0292 11.3282 28.0098 11.352 27.9963 11.3792C27.9828 11.4064 27.9754 11.4363 27.9747 11.4666L27.9137 14.0976C27.3885 14.0632 26.6673 14.0932 26.5409 14.4943C25.7807 14.7073 25.1776 15.1201 24.8048 15.6793C24.467 15.2987 24.0187 15.0477 23.4828 14.9342C23.4683 14.9294 23.4532 14.9262 23.4379 14.9247C23.0556 14.8499 22.6296 14.8442 22.1678 14.9107C22.1634 14.9113 22.159 14.9121 22.1547 14.9131C22.0001 14.9462 21.8481 14.9901 21.6997 15.0445C21.5013 14.897 21.2058 14.8901 20.8597 15.0227L20.0183 12.7319C20.0085 12.705 19.9931 12.6805 19.9733 12.6599C19.9535 12.6393 19.9296 12.623 19.9031 12.6122C19.8767 12.6013 19.8483 12.5961 19.8198 12.5968C19.7912 12.5976 19.7631 12.6043 19.7373 12.6165L19.1656 12.8866L18.4222 11.4682C18.409 11.4431 18.3908 11.421 18.3687 11.4032C18.3466 11.3854 18.3211 11.3724 18.2938 11.365C18.2664 11.3576 18.2379 11.3559 18.2099 11.36C18.1818 11.3642 18.155 11.374 18.131 11.389L16.3618 12.4942C16.3348 12.511 16.3121 12.5339 16.2954 12.561C16.2787 12.5881 16.2685 12.6187 16.2656 12.6505C16.2627 12.6822 16.2671 12.7142 16.2786 12.7439C16.29 12.7736 16.3082 12.8003 16.3316 12.8218L16.8958 13.3402L16.2054 14.0326L15.4228 13.6545C15.3961 13.6416 15.367 13.6347 15.3374 13.6341C15.3079 13.6335 15.2785 13.6393 15.2514 13.6511C15.2242 13.663 15.2 13.6805 15.1802 13.7026C15.1604 13.7246 15.1456 13.7507 15.1368 13.779L14.7784 14.9293C14.7626 14.98 14.7669 15.0349 14.7904 15.0825C14.814 15.1302 14.8549 15.1669 14.9047 15.185L19.1745 16.7397C19.0585 17.0694 19.0711 17.3512 19.2125 17.5419C19.1583 17.6899 19.1142 17.8415 19.0805 17.9956C19.0794 18.0003 19.0786 18.0051 19.0779 18.0099C18.9204 19.11 19.1826 19.8282 19.5069 20.2814C19.2117 20.3713 18.9469 20.5413 18.7418 20.7725C18.5366 21.0037 18.3992 21.2872 18.3444 21.5918C18.1414 21.7574 17.9945 21.9821 17.9238 22.2348C17.8532 22.4876 17.8623 22.7561 17.9499 23.0034C18.0374 23.2508 18.1992 23.4649 18.4129 23.6164C18.6267 23.7679 18.882 23.8493 19.1437 23.8495C19.1826 23.8495 19.2219 23.8477 19.2615 23.844C19.2676 23.8435 19.2736 23.8426 19.2797 23.842L20.7248 26.7993C20.7257 26.8012 20.7267 26.803 20.7277 26.8049C20.7931 26.9291 20.8908 27.0332 21.0103 27.1063C21.1298 27.1793 21.2668 27.2187 21.4068 27.2201L22.388 27.2308H22.3963C22.5439 27.2305 22.6883 27.1883 22.8129 27.1089C22.9375 27.0296 23.037 26.9164 23.1 26.7826L24.4868 23.8246C24.6468 23.8507 24.8105 23.8431 24.9674 23.8023L30.0888 26.9019L30.0949 26.9055C30.1993 26.9648 30.3171 26.9962 30.437 26.9968C30.5574 26.9951 30.6753 26.9621 30.7792 26.9012C30.8831 26.8402 30.9695 26.7533 31.03 26.6489C31.0905 26.5445 31.123 26.4261 31.1243 26.3054C31.1257 26.1846 31.0958 26.0656 31.0377 25.9599C31.0365 25.9578 31.0354 25.9557 31.0343 25.9537L28.0503 20.9953C28.0955 20.9318 28.1513 20.8766 28.2153 20.8323C28.3738 20.7335 28.665 20.6542 29.0022 20.5623C30.0272 20.2829 31.5756 19.8607 31.9449 18.1465C31.9451 18.1457 31.9453 18.1449 31.9455 18.1441C31.9457 18.1433 31.9461 18.1418 31.9463 18.1407C32.1537 17.1696 31.7508 16.1638 30.8666 15.4237ZM29.5999 11.1776L30.0874 11.2823L29.8333 12.4718L29.6626 12.3023C29.6385 12.2784 29.6089 12.2608 29.5765 12.2511C29.544 12.2414 29.5097 12.2399 29.4765 12.2467C29.4714 12.2477 29.4662 12.2493 29.4614 12.2507L29.5999 11.1776ZM28.7872 10.5373L29.2778 10.4557L29.2197 10.906V10.9065L29.1472 11.4679L28.7855 11.3902L28.7872 10.5373ZM28.3191 14.3662C28.3198 14.3613 28.3201 14.3563 28.3199 14.3514L28.3808 11.7258L28.536 11.7591L28.5382 11.7596L29.0941 11.8789L28.8931 13.4354L28.5492 14.279C28.5285 14.3297 28.5288 14.3866 28.5499 14.4371C28.5711 14.4876 28.6114 14.5277 28.6619 14.5484C28.7125 14.5691 28.7692 14.5689 28.8196 14.5477C28.8699 14.5265 28.9098 14.4861 28.9305 14.4354L29.5917 12.8133L29.9287 13.1479L29.2111 14.5257C29.2045 14.5383 29.1993 14.5515 29.1954 14.5652C29.1925 14.5755 29.1201 14.8144 28.7024 14.7247C28.3277 14.6443 28.3167 14.4171 28.3191 14.3662ZM27.9213 14.5123C27.9697 14.7407 28.1489 15.0283 28.6162 15.1287C28.7012 15.1475 28.788 15.1573 28.875 15.1578C29.2062 15.1578 29.4084 14.9991 29.5135 14.842C30.2005 15.0796 30.4197 15.3061 30.4529 15.3738C30.337 15.4861 29.6417 15.574 28.6192 15.3544C27.5957 15.1346 26.9971 14.7685 26.9382 14.6186C27.0035 14.5591 27.3101 14.4683 27.9213 14.5123ZM21.092 15.679C21.0918 15.6755 21.0914 15.6721 21.0909 15.6684C21.0905 15.6648 21.0902 15.6623 21.0897 15.6592C21.089 15.655 21.0881 15.6509 21.0872 15.6468C21.0867 15.6444 21.0861 15.642 21.0855 15.6396C21.0843 15.635 21.0828 15.6305 21.0813 15.6258C21.0808 15.6244 21.0804 15.6229 21.0799 15.6214L21.0023 15.4101C21.2435 15.3172 21.4095 15.3281 21.4695 15.3883C21.5389 15.4578 21.5322 15.6336 21.4519 15.8469C21.3493 16.1194 21.1353 16.4313 20.8649 16.7026C20.5945 16.9739 20.2834 17.1885 20.0117 17.2913C19.7989 17.3718 19.6238 17.3786 19.5544 17.309C19.4966 17.2511 19.4837 17.1011 19.5612 16.8803L19.7554 16.951C19.7561 16.9512 19.7568 16.9513 19.7575 16.9515C19.7589 16.952 19.7603 16.9526 19.7617 16.953C19.7631 16.9535 19.7636 16.9538 19.7646 16.954C19.7726 16.9565 19.7807 16.9585 19.7889 16.96L19.7923 16.9606C19.7941 16.9609 19.7958 16.961 19.7975 16.9613C19.8063 16.9625 19.8151 16.9632 19.824 16.9633C19.8245 16.9633 19.825 16.9633 19.8256 16.9633C19.8261 16.9633 19.8264 16.9633 19.8269 16.9633C19.8294 16.9633 19.8319 16.9633 19.8344 16.9633C20.0843 16.9525 20.3788 16.7918 20.6425 16.5226C20.8912 16.2686 21.0578 15.9714 21.0898 15.7255C21.0901 15.7238 21.0904 15.7221 21.0906 15.7202C21.0906 15.7193 21.0909 15.7183 21.0911 15.7174C21.0913 15.7155 21.0913 15.7136 21.0915 15.7117C21.0918 15.7075 21.0922 15.7033 21.0923 15.699C21.0923 15.696 21.0923 15.6931 21.0923 15.6902C21.0923 15.6864 21.0923 15.6827 21.092 15.679ZM19.7095 13.0863L20.5505 15.3754C20.5507 15.3759 20.5509 15.3765 20.5511 15.377L20.6743 15.7124C20.6483 15.829 20.5743 15.9624 20.4761 16.0881L18.9676 13.4369L19.7095 13.0863ZM16.8098 12.7011L18.1607 11.8573L18.7926 13.0629L18.5904 13.1584C18.5647 13.1705 18.5418 13.1879 18.5231 13.2093C18.5045 13.2308 18.4904 13.2559 18.4818 13.283C18.4733 13.3102 18.4704 13.3388 18.4734 13.3671C18.4764 13.3954 18.4852 13.4228 18.4993 13.4476L19.2751 14.8109L17.5652 12.9712C17.5463 12.9509 17.5236 12.9347 17.4983 12.9234C17.473 12.9121 17.4458 12.906 17.4181 12.9055C17.3905 12.905 17.363 12.9101 17.3374 12.9205C17.3117 12.9309 17.2884 12.9464 17.2689 12.966L17.1872 13.0478L16.8098 12.7011ZM15.2303 14.864L15.459 14.1305L16.5434 14.6543L18.487 16.0498L15.2303 14.864ZM16.6198 14.2012L17.4093 13.4094L20.176 16.3862C20.0886 16.4575 19.9877 16.5103 19.8794 16.5416L16.6198 14.2012ZM19.2236 23.4325C19.0762 23.4464 18.9278 23.4217 18.7929 23.3609C18.6579 23.3 18.541 23.205 18.4537 23.0852C18.3663 22.9654 18.3114 22.8249 18.2944 22.6775C18.2774 22.5301 18.2989 22.3807 18.3567 22.2441C18.4128 22.5017 18.5287 22.7424 18.6952 22.9465C18.8616 23.1507 19.0738 23.3124 19.3144 23.4186C19.2844 23.4249 19.2541 23.4295 19.2236 23.4325ZM22.7274 26.6067C22.6975 26.6703 22.65 26.7239 22.5906 26.7613C22.5313 26.7986 22.4625 26.8181 22.3924 26.8175L21.4112 26.8068C21.3458 26.8062 21.2819 26.7879 21.2259 26.754C21.1699 26.7201 21.1241 26.6718 21.0931 26.614L19.6833 23.7292C19.7784 23.6844 19.8676 23.6279 19.9487 23.5609C19.9622 23.5612 19.9757 23.5618 19.9892 23.5618C20.0564 23.5616 20.1235 23.5574 20.1901 23.5491L20.8624 24.6222C20.9299 24.7309 21.024 24.8206 21.1357 24.8827C21.2473 24.9447 21.373 24.9772 21.5007 24.977C21.5268 24.977 21.5529 24.9757 21.5789 24.973C21.632 24.9676 21.681 24.9417 21.7155 24.9007C21.7499 24.8597 21.7671 24.8069 21.7635 24.7534L21.6605 23.2554C21.7236 23.2633 21.7871 23.2685 21.8511 23.2702C21.8692 23.2707 21.8871 23.2709 21.9051 23.2709C22.0292 23.2709 22.153 23.2591 22.2748 23.2357V24.5594C22.2748 24.6036 22.2889 24.6466 22.3151 24.6821C22.3413 24.7177 22.3781 24.7439 22.4202 24.7568C22.4926 24.7793 22.568 24.7907 22.6438 24.7908C22.776 24.7908 22.9059 24.7554 23.02 24.6884C23.1341 24.6213 23.2284 24.525 23.2931 24.4093L23.7737 23.5608C23.7836 23.561 23.7935 23.5616 23.8034 23.5616C23.8378 23.5616 23.8717 23.5602 23.9056 23.5582C23.9633 23.6094 24.0264 23.6541 24.0938 23.6915L22.7274 26.6067ZM20.6091 23.4415C20.8014 23.3644 20.9778 23.2521 21.1293 23.1105C21.166 23.1263 21.2032 23.1413 21.2408 23.1548L21.3346 24.5204C21.2842 24.4921 21.2418 24.4516 21.2112 24.4025L20.6091 23.4415ZM22.6868 24.3745V23.1323C22.8739 23.3005 23.0964 23.4243 23.3377 23.4946L22.935 24.2054C22.9095 24.2509 22.8738 24.2898 22.8307 24.3192C22.7876 24.3485 22.7384 24.3674 22.6868 24.3743V24.3745ZM23.8036 23.1489C23.5329 23.1486 23.2694 23.0609 23.0522 22.8988C23.1091 22.8577 23.1637 22.8136 23.2159 22.7667C23.2557 22.7298 23.2793 22.6788 23.2818 22.6246C23.2843 22.5703 23.2654 22.5173 23.2292 22.477C23.193 22.4366 23.1425 22.4122 23.0884 22.4089C23.0344 22.4056 22.9813 22.4238 22.9405 22.4595C22.6547 22.7173 22.2835 22.8593 21.8992 22.858C21.5148 22.8568 21.1445 22.7124 20.8603 22.4528C20.8404 22.4341 20.817 22.4196 20.7915 22.41C20.7659 22.4005 20.7387 22.3961 20.7114 22.3972C20.6842 22.3983 20.6574 22.4048 20.6327 22.4163C20.608 22.4279 20.5858 22.4442 20.5674 22.4644C20.549 22.4847 20.5348 22.5083 20.5256 22.5341C20.5165 22.5599 20.5125 22.5872 20.5139 22.6145C20.5153 22.6418 20.5222 22.6686 20.534 22.6932C20.5458 22.7179 20.5624 22.7399 20.5828 22.7581C20.6355 22.806 20.6907 22.851 20.7482 22.8929C20.6035 23.0026 20.4368 23.0798 20.2596 23.1189C20.0824 23.1581 19.8989 23.1584 19.7216 23.1198C19.5443 23.0812 19.3774 23.0047 19.2323 22.8954C19.0872 22.7861 18.9674 22.6467 18.881 22.4866C18.8198 22.3733 18.7763 22.2512 18.7523 22.1246C18.7175 21.9419 18.7233 21.7537 18.7694 21.5736C18.8154 21.3934 18.9005 21.2256 19.0186 21.0822C19.1368 20.9388 19.285 20.8234 19.4527 20.744C19.6205 20.6647 19.8036 20.6235 19.9891 20.6233C20.0133 20.6233 20.0375 20.6241 20.0617 20.6255C19.9886 20.8259 19.9484 21.037 19.9428 21.2503C19.942 21.2774 19.9466 21.3044 19.9563 21.3298C19.966 21.3551 19.9805 21.3783 19.9991 21.398C20.0177 21.4177 20.04 21.4335 20.0647 21.4445C20.0894 21.4556 20.116 21.4617 20.1431 21.4624H20.1487C20.2024 21.4624 20.254 21.4414 20.2925 21.4039C20.3309 21.3663 20.3533 21.3152 20.3547 21.2614C20.3697 20.852 20.5452 20.465 20.8431 20.1847C21.141 19.9043 21.5372 19.7532 21.9455 19.7643C22.3539 19.7753 22.7414 19.9475 23.0238 20.2436C23.3062 20.5396 23.4607 20.9355 23.4537 21.3451C23.453 21.3722 23.4576 21.3992 23.4672 21.4246C23.4769 21.4499 23.4915 21.4731 23.5101 21.4928C23.5287 21.5125 23.551 21.5283 23.5757 21.5394C23.6004 21.5504 23.627 21.5565 23.654 21.5572H23.6597C23.7134 21.5572 23.7649 21.5362 23.8034 21.4987C23.8419 21.4611 23.8642 21.41 23.8656 21.3562C23.8726 21.107 23.8322 20.8587 23.7467 20.6246C23.7657 20.6237 23.7847 20.6229 23.8037 20.6229C23.9696 20.622 24.134 20.654 24.2876 20.7171C24.4411 20.7802 24.5807 20.873 24.6983 20.9904C24.816 21.1078 24.9093 21.2473 24.973 21.4009C25.0367 21.5546 25.0695 21.7193 25.0695 21.8857C25.0695 22.0521 25.0367 22.2169 24.973 22.3705C24.9093 22.5242 24.816 22.6637 24.6983 22.781C24.5807 22.8984 24.4411 22.9913 24.2876 23.0544C24.134 23.1174 23.9696 23.1495 23.8037 23.1486L23.8036 23.1489ZM24.5426 23.4153C24.5293 23.413 24.5169 23.4101 24.5041 23.4074C24.7161 23.3093 24.9054 23.1678 25.0595 22.9918C25.2136 22.8159 25.3293 22.6095 25.399 22.386C25.4457 22.5136 25.4581 22.6512 25.4349 22.7851C25.4118 22.9189 25.3539 23.0443 25.2671 23.1486C25.1803 23.2529 25.0677 23.3325 24.9405 23.3793C24.8133 23.4262 24.6761 23.4386 24.5426 23.4154V23.4153ZM29.1622 23.6425C29.1429 23.873 29.0381 24.0556 28.8271 24.2283C28.8061 24.2454 28.7887 24.2665 28.7759 24.2904C28.7631 24.3143 28.7551 24.3405 28.7524 24.3675C28.7496 24.3945 28.7522 24.4218 28.76 24.4478C28.7678 24.4737 28.7806 24.4979 28.7977 24.519C28.8148 24.54 28.8359 24.5574 28.8597 24.5703C28.8835 24.5831 28.9096 24.5912 28.9365 24.5939C28.9635 24.5966 28.9907 24.594 29.0166 24.5862C29.0425 24.5784 29.0666 24.5656 29.0876 24.5484C29.236 24.4313 29.3587 24.2846 29.448 24.1177L30.6795 26.1638C30.7084 26.2173 30.7193 26.2786 30.7106 26.3388C30.7019 26.399 30.674 26.4547 30.6311 26.4977C30.5883 26.5407 30.5327 26.5687 30.4727 26.5774C30.4127 26.5861 30.3515 26.5752 30.2982 26.5462L27.1118 24.6174C27.3183 24.5073 27.501 24.3572 27.6492 24.1758C27.6838 24.1333 27.7001 24.0788 27.6946 24.0243C27.6891 23.9698 27.6622 23.9197 27.6199 23.8851C27.5775 23.8504 27.5232 23.8341 27.4688 23.8396C27.4145 23.8451 27.3645 23.8721 27.33 23.9145C27.1824 24.0958 26.922 24.3077 26.6527 24.3396L25.4055 23.5846C25.5409 23.4781 25.6515 23.3432 25.7296 23.1894C25.8076 23.0356 25.8513 22.8665 25.8575 22.6941C25.8636 22.5216 25.8322 22.3498 25.7654 22.1908C25.6985 22.0317 25.5979 21.8892 25.4704 21.7732C25.4537 21.5263 25.3827 21.2861 25.2624 21.07C25.1421 20.8538 24.9756 20.6671 24.7747 20.5232C25.2417 20.1153 25.5961 19.5936 25.8037 19.0084C25.8129 18.9828 25.8168 18.9555 25.8154 18.9283C25.814 18.9011 25.8072 18.8744 25.7955 18.8498C25.7837 18.8252 25.7672 18.8032 25.747 18.785C25.7267 18.7669 25.7031 18.7529 25.6774 18.744C25.6517 18.735 25.6245 18.7312 25.5974 18.7329C25.5702 18.7345 25.5437 18.7415 25.5193 18.7535C25.4949 18.7655 25.473 18.7822 25.4551 18.8026C25.4371 18.8231 25.4234 18.8469 25.4147 18.8728C25.2199 19.4145 24.8849 19.8945 24.4441 20.2636C24.4252 20.2793 24.4094 20.2983 24.3972 20.3197C24.2076 20.247 24.0063 20.2099 23.8033 20.21C23.718 20.2102 23.6329 20.217 23.5486 20.2302C23.4837 20.1303 23.41 20.0366 23.3283 19.95C22.9704 19.5712 22.4772 19.3504 21.957 19.3363C21.4369 19.3222 20.9325 19.5159 20.5547 19.8748C20.442 19.9818 20.3423 20.1019 20.2576 20.2323C20.1688 20.2177 20.079 20.2102 19.9891 20.21C19.9856 20.21 19.9822 20.2102 19.9786 20.2102C19.4113 19.5902 19.3942 18.7144 19.4846 18.0759C19.5085 17.9685 19.5382 17.8625 19.5736 17.7584C19.6187 17.7663 19.6643 17.7702 19.7101 17.7701C19.8633 17.7665 20.0146 17.7354 20.1569 17.6782C20.4862 17.5535 20.841 17.3109 21.1558 16.9951C21.4706 16.6792 21.7127 16.3234 21.837 15.9932C21.9202 15.7723 21.9462 15.5732 21.9165 15.4067C22.0203 15.3715 22.1259 15.3423 22.2329 15.3191C22.571 15.2671 22.9148 15.2642 23.2538 15.3103C23.3714 15.8554 23.1546 16.5611 22.7296 16.9701C22.71 16.9889 22.6943 17.0114 22.6834 17.0362C22.6725 17.0611 22.6666 17.0879 22.666 17.1151C22.6654 17.1422 22.6702 17.1692 22.68 17.1945C22.6898 17.2199 22.7046 17.243 22.7233 17.2626C22.7421 17.2822 22.7645 17.2979 22.7894 17.3088C22.8142 17.3196 22.8409 17.3255 22.868 17.326C22.8951 17.3266 22.922 17.3217 22.9472 17.3118C22.9724 17.3018 22.9954 17.287 23.0149 17.2681C23.4947 16.8062 23.7533 16.0615 23.6868 15.4157C24.1328 15.5658 24.5072 15.877 24.737 16.2888C24.7376 16.29 24.7384 16.2912 24.7391 16.2925L29.1622 23.6425ZM31.5582 17.9778C31.0433 18.3432 30.5657 18.389 29.6522 18.1726C29.6258 18.1663 29.5986 18.1654 29.5719 18.1697C29.5452 18.1741 29.5196 18.1836 29.4966 18.1979C29.4736 18.2122 29.4536 18.2308 29.4378 18.2528C29.4219 18.2748 29.4106 18.2997 29.4044 18.3261C29.3982 18.3525 29.3972 18.3799 29.4015 18.4067C29.4059 18.4335 29.4154 18.4591 29.4296 18.4822C29.4438 18.5053 29.4624 18.5253 29.4844 18.5412C29.5063 18.557 29.5312 18.5684 29.5575 18.5747C29.9535 18.6684 30.2827 18.7172 30.5728 18.7172C30.8505 18.7214 31.1258 18.6662 31.3804 18.5552C30.8984 19.6173 29.7568 19.9285 28.8941 20.1636C28.5257 20.2641 28.2075 20.3507 27.9979 20.4814C27.9352 20.5216 27.8776 20.5694 27.8266 20.6237L25.0929 16.0809C25.0847 16.0667 25.0761 16.0531 25.0678 16.0392C25.1768 15.8475 25.3148 15.6738 25.4768 15.5245C25.6036 15.7624 25.8115 15.9606 25.9508 16.0762C26.289 16.3571 26.7062 16.5661 27.0957 16.6497C27.1222 16.6556 27.1497 16.6562 27.1764 16.6514C27.2032 16.6467 27.2287 16.6366 27.2516 16.6219C27.2745 16.6072 27.2942 16.588 27.3097 16.5656C27.3251 16.5432 27.336 16.518 27.3417 16.4913C27.3474 16.4646 27.3478 16.4371 27.3428 16.4103C27.3378 16.3835 27.3276 16.358 27.3128 16.3352C27.2979 16.3123 27.2787 16.2927 27.2562 16.2773C27.2338 16.262 27.2085 16.2513 27.1819 16.2458C26.86 16.1767 26.498 15.9945 26.2135 15.758C26.0159 15.594 25.8709 15.4148 25.81 15.2653C26.0641 15.1028 26.3408 14.979 26.6311 14.8981C26.9503 15.3151 27.9023 15.623 28.533 15.7584C28.9419 15.8496 29.3591 15.8983 29.7779 15.9039C29.8597 15.9039 29.9383 15.9014 30.0132 15.8964C30.2748 15.8789 30.4768 15.8317 30.6192 15.7546C31.3595 16.3797 31.6982 17.1791 31.5582 17.9778V17.9778Z"/>
</mask>
<path d="M30.8666 15.4237C30.8898 15.2257 30.7591 15.0298 30.4772 14.8408C30.2818 14.7097 30.0167 14.5833 29.7041 14.4713L30.3642 13.2041C30.3846 13.1649 30.3919 13.1203 30.3851 13.0766C30.3783 13.033 30.3578 12.9927 30.3264 12.9616L30.1808 12.817L30.5331 11.1668C30.5446 11.1133 30.5343 11.0573 30.5046 11.0113C30.4749 10.9653 30.4283 10.9331 30.3748 10.9216L29.6529 10.7667L29.7218 10.2331C29.7259 10.2011 29.7225 10.1686 29.7119 10.1382C29.7012 10.1078 29.6837 10.0803 29.6605 10.0579C29.6374 10.0356 29.6094 10.0189 29.5787 10.0093C29.5481 9.99976 29.5156 9.99751 29.4839 10.0028L28.5478 10.1585C28.4998 10.1665 28.4561 10.1913 28.4246 10.2285C28.393 10.2657 28.3757 10.313 28.3756 10.3618L28.3736 11.3017L28.2237 11.2695C28.1941 11.2631 28.1634 11.2634 28.1339 11.2703C28.1044 11.2772 28.0768 11.2905 28.053 11.3093C28.0292 11.3282 28.0098 11.352 27.9963 11.3792C27.9828 11.4064 27.9754 11.4363 27.9747 11.4666L27.9137 14.0976C27.3885 14.0632 26.6673 14.0932 26.5409 14.4943C25.7807 14.7073 25.1776 15.1201 24.8048 15.6793C24.467 15.2987 24.0187 15.0477 23.4828 14.9342C23.4683 14.9294 23.4532 14.9262 23.4379 14.9247C23.0556 14.8499 22.6296 14.8442 22.1678 14.9107C22.1634 14.9113 22.159 14.9121 22.1547 14.9131C22.0001 14.9462 21.8481 14.9901 21.6997 15.0445C21.5013 14.897 21.2058 14.8901 20.8597 15.0227L20.0183 12.7319C20.0085 12.705 19.9931 12.6805 19.9733 12.6599C19.9535 12.6393 19.9296 12.623 19.9031 12.6122C19.8767 12.6013 19.8483 12.5961 19.8198 12.5968C19.7912 12.5976 19.7631 12.6043 19.7373 12.6165L19.1656 12.8866L18.4222 11.4682C18.409 11.4431 18.3908 11.421 18.3687 11.4032C18.3466 11.3854 18.3211 11.3724 18.2938 11.365C18.2664 11.3576 18.2379 11.3559 18.2099 11.36C18.1818 11.3642 18.155 11.374 18.131 11.389L16.3618 12.4942C16.3348 12.511 16.3121 12.5339 16.2954 12.561C16.2787 12.5881 16.2685 12.6187 16.2656 12.6505C16.2627 12.6822 16.2671 12.7142 16.2786 12.7439C16.29 12.7736 16.3082 12.8003 16.3316 12.8218L16.8958 13.3402L16.2054 14.0326L15.4228 13.6545C15.3961 13.6416 15.367 13.6347 15.3374 13.6341C15.3079 13.6335 15.2785 13.6393 15.2514 13.6511C15.2242 13.663 15.2 13.6805 15.1802 13.7026C15.1604 13.7246 15.1456 13.7507 15.1368 13.779L14.7784 14.9293C14.7626 14.98 14.7669 15.0349 14.7904 15.0825C14.814 15.1302 14.8549 15.1669 14.9047 15.185L19.1745 16.7397C19.0585 17.0694 19.0711 17.3512 19.2125 17.5419C19.1583 17.6899 19.1142 17.8415 19.0805 17.9956C19.0794 18.0003 19.0786 18.0051 19.0779 18.0099C18.9204 19.11 19.1826 19.8282 19.5069 20.2814C19.2117 20.3713 18.9469 20.5413 18.7418 20.7725C18.5366 21.0037 18.3992 21.2872 18.3444 21.5918C18.1414 21.7574 17.9945 21.9821 17.9238 22.2348C17.8532 22.4876 17.8623 22.7561 17.9499 23.0034C18.0374 23.2508 18.1992 23.4649 18.4129 23.6164C18.6267 23.7679 18.882 23.8493 19.1437 23.8495C19.1826 23.8495 19.2219 23.8477 19.2615 23.844C19.2676 23.8435 19.2736 23.8426 19.2797 23.842L20.7248 26.7993C20.7257 26.8012 20.7267 26.803 20.7277 26.8049C20.7931 26.9291 20.8908 27.0332 21.0103 27.1063C21.1298 27.1793 21.2668 27.2187 21.4068 27.2201L22.388 27.2308H22.3963C22.5439 27.2305 22.6883 27.1883 22.8129 27.1089C22.9375 27.0296 23.037 26.9164 23.1 26.7826L24.4868 23.8246C24.6468 23.8507 24.8105 23.8431 24.9674 23.8023L30.0888 26.9019L30.0949 26.9055C30.1993 26.9648 30.3171 26.9962 30.437 26.9968C30.5574 26.9951 30.6753 26.9621 30.7792 26.9012C30.8831 26.8402 30.9695 26.7533 31.03 26.6489C31.0905 26.5445 31.123 26.4261 31.1243 26.3054C31.1257 26.1846 31.0958 26.0656 31.0377 25.9599C31.0365 25.9578 31.0354 25.9557 31.0343 25.9537L28.0503 20.9953C28.0955 20.9318 28.1513 20.8766 28.2153 20.8323C28.3738 20.7335 28.665 20.6542 29.0022 20.5623C30.0272 20.2829 31.5756 19.8607 31.9449 18.1465C31.9451 18.1457 31.9453 18.1449 31.9455 18.1441C31.9457 18.1433 31.9461 18.1418 31.9463 18.1407C32.1537 17.1696 31.7508 16.1638 30.8666 15.4237ZM29.5999 11.1776L30.0874 11.2823L29.8333 12.4718L29.6626 12.3023C29.6385 12.2784 29.6089 12.2608 29.5765 12.2511C29.544 12.2414 29.5097 12.2399 29.4765 12.2467C29.4714 12.2477 29.4662 12.2493 29.4614 12.2507L29.5999 11.1776ZM28.7872 10.5373L29.2778 10.4557L29.2197 10.906V10.9065L29.1472 11.4679L28.7855 11.3902L28.7872 10.5373ZM28.3191 14.3662C28.3198 14.3613 28.3201 14.3563 28.3199 14.3514L28.3808 11.7258L28.536 11.7591L28.5382 11.7596L29.0941 11.8789L28.8931 13.4354L28.5492 14.279C28.5285 14.3297 28.5288 14.3866 28.5499 14.4371C28.5711 14.4876 28.6114 14.5277 28.6619 14.5484C28.7125 14.5691 28.7692 14.5689 28.8196 14.5477C28.8699 14.5265 28.9098 14.4861 28.9305 14.4354L29.5917 12.8133L29.9287 13.1479L29.2111 14.5257C29.2045 14.5383 29.1993 14.5515 29.1954 14.5652C29.1925 14.5755 29.1201 14.8144 28.7024 14.7247C28.3277 14.6443 28.3167 14.4171 28.3191 14.3662ZM27.9213 14.5123C27.9697 14.7407 28.1489 15.0283 28.6162 15.1287C28.7012 15.1475 28.788 15.1573 28.875 15.1578C29.2062 15.1578 29.4084 14.9991 29.5135 14.842C30.2005 15.0796 30.4197 15.3061 30.4529 15.3738C30.337 15.4861 29.6417 15.574 28.6192 15.3544C27.5957 15.1346 26.9971 14.7685 26.9382 14.6186C27.0035 14.5591 27.3101 14.4683 27.9213 14.5123ZM21.092 15.679C21.0918 15.6755 21.0914 15.6721 21.0909 15.6684C21.0905 15.6648 21.0902 15.6623 21.0897 15.6592C21.089 15.655 21.0881 15.6509 21.0872 15.6468C21.0867 15.6444 21.0861 15.642 21.0855 15.6396C21.0843 15.635 21.0828 15.6305 21.0813 15.6258C21.0808 15.6244 21.0804 15.6229 21.0799 15.6214L21.0023 15.4101C21.2435 15.3172 21.4095 15.3281 21.4695 15.3883C21.5389 15.4578 21.5322 15.6336 21.4519 15.8469C21.3493 16.1194 21.1353 16.4313 20.8649 16.7026C20.5945 16.9739 20.2834 17.1885 20.0117 17.2913C19.7989 17.3718 19.6238 17.3786 19.5544 17.309C19.4966 17.2511 19.4837 17.1011 19.5612 16.8803L19.7554 16.951C19.7561 16.9512 19.7568 16.9513 19.7575 16.9515C19.7589 16.952 19.7603 16.9526 19.7617 16.953C19.7631 16.9535 19.7636 16.9538 19.7646 16.954C19.7726 16.9565 19.7807 16.9585 19.7889 16.96L19.7923 16.9606C19.7941 16.9609 19.7958 16.961 19.7975 16.9613C19.8063 16.9625 19.8151 16.9632 19.824 16.9633C19.8245 16.9633 19.825 16.9633 19.8256 16.9633C19.8261 16.9633 19.8264 16.9633 19.8269 16.9633C19.8294 16.9633 19.8319 16.9633 19.8344 16.9633C20.0843 16.9525 20.3788 16.7918 20.6425 16.5226C20.8912 16.2686 21.0578 15.9714 21.0898 15.7255C21.0901 15.7238 21.0904 15.7221 21.0906 15.7202C21.0906 15.7193 21.0909 15.7183 21.0911 15.7174C21.0913 15.7155 21.0913 15.7136 21.0915 15.7117C21.0918 15.7075 21.0922 15.7033 21.0923 15.699C21.0923 15.696 21.0923 15.6931 21.0923 15.6902C21.0923 15.6864 21.0923 15.6827 21.092 15.679ZM19.7095 13.0863L20.5505 15.3754C20.5507 15.3759 20.5509 15.3765 20.5511 15.377L20.6743 15.7124C20.6483 15.829 20.5743 15.9624 20.4761 16.0881L18.9676 13.4369L19.7095 13.0863ZM16.8098 12.7011L18.1607 11.8573L18.7926 13.0629L18.5904 13.1584C18.5647 13.1705 18.5418 13.1879 18.5231 13.2093C18.5045 13.2308 18.4904 13.2559 18.4818 13.283C18.4733 13.3102 18.4704 13.3388 18.4734 13.3671C18.4764 13.3954 18.4852 13.4228 18.4993 13.4476L19.2751 14.8109L17.5652 12.9712C17.5463 12.9509 17.5236 12.9347 17.4983 12.9234C17.473 12.9121 17.4458 12.906 17.4181 12.9055C17.3905 12.905 17.363 12.9101 17.3374 12.9205C17.3117 12.9309 17.2884 12.9464 17.2689 12.966L17.1872 13.0478L16.8098 12.7011ZM15.2303 14.864L15.459 14.1305L16.5434 14.6543L18.487 16.0498L15.2303 14.864ZM16.6198 14.2012L17.4093 13.4094L20.176 16.3862C20.0886 16.4575 19.9877 16.5103 19.8794 16.5416L16.6198 14.2012ZM19.2236 23.4325C19.0762 23.4464 18.9278 23.4217 18.7929 23.3609C18.6579 23.3 18.541 23.205 18.4537 23.0852C18.3663 22.9654 18.3114 22.8249 18.2944 22.6775C18.2774 22.5301 18.2989 22.3807 18.3567 22.2441C18.4128 22.5017 18.5287 22.7424 18.6952 22.9465C18.8616 23.1507 19.0738 23.3124 19.3144 23.4186C19.2844 23.4249 19.2541 23.4295 19.2236 23.4325ZM22.7274 26.6067C22.6975 26.6703 22.65 26.7239 22.5906 26.7613C22.5313 26.7986 22.4625 26.8181 22.3924 26.8175L21.4112 26.8068C21.3458 26.8062 21.2819 26.7879 21.2259 26.754C21.1699 26.7201 21.1241 26.6718 21.0931 26.614L19.6833 23.7292C19.7784 23.6844 19.8676 23.6279 19.9487 23.5609C19.9622 23.5612 19.9757 23.5618 19.9892 23.5618C20.0564 23.5616 20.1235 23.5574 20.1901 23.5491L20.8624 24.6222C20.9299 24.7309 21.024 24.8206 21.1357 24.8827C21.2473 24.9447 21.373 24.9772 21.5007 24.977C21.5268 24.977 21.5529 24.9757 21.5789 24.973C21.632 24.9676 21.681 24.9417 21.7155 24.9007C21.7499 24.8597 21.7671 24.8069 21.7635 24.7534L21.6605 23.2554C21.7236 23.2633 21.7871 23.2685 21.8511 23.2702C21.8692 23.2707 21.8871 23.2709 21.9051 23.2709C22.0292 23.2709 22.153 23.2591 22.2748 23.2357V24.5594C22.2748 24.6036 22.2889 24.6466 22.3151 24.6821C22.3413 24.7177 22.3781 24.7439 22.4202 24.7568C22.4926 24.7793 22.568 24.7907 22.6438 24.7908C22.776 24.7908 22.9059 24.7554 23.02 24.6884C23.1341 24.6213 23.2284 24.525 23.2931 24.4093L23.7737 23.5608C23.7836 23.561 23.7935 23.5616 23.8034 23.5616C23.8378 23.5616 23.8717 23.5602 23.9056 23.5582C23.9633 23.6094 24.0264 23.6541 24.0938 23.6915L22.7274 26.6067ZM20.6091 23.4415C20.8014 23.3644 20.9778 23.2521 21.1293 23.1105C21.166 23.1263 21.2032 23.1413 21.2408 23.1548L21.3346 24.5204C21.2842 24.4921 21.2418 24.4516 21.2112 24.4025L20.6091 23.4415ZM22.6868 24.3745V23.1323C22.8739 23.3005 23.0964 23.4243 23.3377 23.4946L22.935 24.2054C22.9095 24.2509 22.8738 24.2898 22.8307 24.3192C22.7876 24.3485 22.7384 24.3674 22.6868 24.3743V24.3745ZM23.8036 23.1489C23.5329 23.1486 23.2694 23.0609 23.0522 22.8988C23.1091 22.8577 23.1637 22.8136 23.2159 22.7667C23.2557 22.7298 23.2793 22.6788 23.2818 22.6246C23.2843 22.5703 23.2654 22.5173 23.2292 22.477C23.193 22.4366 23.1425 22.4122 23.0884 22.4089C23.0344 22.4056 22.9813 22.4238 22.9405 22.4595C22.6547 22.7173 22.2835 22.8593 21.8992 22.858C21.5148 22.8568 21.1445 22.7124 20.8603 22.4528C20.8404 22.4341 20.817 22.4196 20.7915 22.41C20.7659 22.4005 20.7387 22.3961 20.7114 22.3972C20.6842 22.3983 20.6574 22.4048 20.6327 22.4163C20.608 22.4279 20.5858 22.4442 20.5674 22.4644C20.549 22.4847 20.5348 22.5083 20.5256 22.5341C20.5165 22.5599 20.5125 22.5872 20.5139 22.6145C20.5153 22.6418 20.5222 22.6686 20.534 22.6932C20.5458 22.7179 20.5624 22.7399 20.5828 22.7581C20.6355 22.806 20.6907 22.851 20.7482 22.8929C20.6035 23.0026 20.4368 23.0798 20.2596 23.1189C20.0824 23.1581 19.8989 23.1584 19.7216 23.1198C19.5443 23.0812 19.3774 23.0047 19.2323 22.8954C19.0872 22.7861 18.9674 22.6467 18.881 22.4866C18.8198 22.3733 18.7763 22.2512 18.7523 22.1246C18.7175 21.9419 18.7233 21.7537 18.7694 21.5736C18.8154 21.3934 18.9005 21.2256 19.0186 21.0822C19.1368 20.9388 19.285 20.8234 19.4527 20.744C19.6205 20.6647 19.8036 20.6235 19.9891 20.6233C20.0133 20.6233 20.0375 20.6241 20.0617 20.6255C19.9886 20.8259 19.9484 21.037 19.9428 21.2503C19.942 21.2774 19.9466 21.3044 19.9563 21.3298C19.966 21.3551 19.9805 21.3783 19.9991 21.398C20.0177 21.4177 20.04 21.4335 20.0647 21.4445C20.0894 21.4556 20.116 21.4617 20.1431 21.4624H20.1487C20.2024 21.4624 20.254 21.4414 20.2925 21.4039C20.3309 21.3663 20.3533 21.3152 20.3547 21.2614C20.3697 20.852 20.5452 20.465 20.8431 20.1847C21.141 19.9043 21.5372 19.7532 21.9455 19.7643C22.3539 19.7753 22.7414 19.9475 23.0238 20.2436C23.3062 20.5396 23.4607 20.9355 23.4537 21.3451C23.453 21.3722 23.4576 21.3992 23.4672 21.4246C23.4769 21.4499 23.4915 21.4731 23.5101 21.4928C23.5287 21.5125 23.551 21.5283 23.5757 21.5394C23.6004 21.5504 23.627 21.5565 23.654 21.5572H23.6597C23.7134 21.5572 23.7649 21.5362 23.8034 21.4987C23.8419 21.4611 23.8642 21.41 23.8656 21.3562C23.8726 21.107 23.8322 20.8587 23.7467 20.6246C23.7657 20.6237 23.7847 20.6229 23.8037 20.6229C23.9696 20.622 24.134 20.654 24.2876 20.7171C24.4411 20.7802 24.5807 20.873 24.6983 20.9904C24.816 21.1078 24.9093 21.2473 24.973 21.4009C25.0367 21.5546 25.0695 21.7193 25.0695 21.8857C25.0695 22.0521 25.0367 22.2169 24.973 22.3705C24.9093 22.5242 24.816 22.6637 24.6983 22.781C24.5807 22.8984 24.4411 22.9913 24.2876 23.0544C24.134 23.1174 23.9696 23.1495 23.8037 23.1486L23.8036 23.1489ZM24.5426 23.4153C24.5293 23.413 24.5169 23.4101 24.5041 23.4074C24.7161 23.3093 24.9054 23.1678 25.0595 22.9918C25.2136 22.8159 25.3293 22.6095 25.399 22.386C25.4457 22.5136 25.4581 22.6512 25.4349 22.7851C25.4118 22.9189 25.3539 23.0443 25.2671 23.1486C25.1803 23.2529 25.0677 23.3325 24.9405 23.3793C24.8133 23.4262 24.6761 23.4386 24.5426 23.4154V23.4153ZM29.1622 23.6425C29.1429 23.873 29.0381 24.0556 28.8271 24.2283C28.8061 24.2454 28.7887 24.2665 28.7759 24.2904C28.7631 24.3143 28.7551 24.3405 28.7524 24.3675C28.7496 24.3945 28.7522 24.4218 28.76 24.4478C28.7678 24.4737 28.7806 24.4979 28.7977 24.519C28.8148 24.54 28.8359 24.5574 28.8597 24.5703C28.8835 24.5831 28.9096 24.5912 28.9365 24.5939C28.9635 24.5966 28.9907 24.594 29.0166 24.5862C29.0425 24.5784 29.0666 24.5656 29.0876 24.5484C29.236 24.4313 29.3587 24.2846 29.448 24.1177L30.6795 26.1638C30.7084 26.2173 30.7193 26.2786 30.7106 26.3388C30.7019 26.399 30.674 26.4547 30.6311 26.4977C30.5883 26.5407 30.5327 26.5687 30.4727 26.5774C30.4127 26.5861 30.3515 26.5752 30.2982 26.5462L27.1118 24.6174C27.3183 24.5073 27.501 24.3572 27.6492 24.1758C27.6838 24.1333 27.7001 24.0788 27.6946 24.0243C27.6891 23.9698 27.6622 23.9197 27.6199 23.8851C27.5775 23.8504 27.5232 23.8341 27.4688 23.8396C27.4145 23.8451 27.3645 23.8721 27.33 23.9145C27.1824 24.0958 26.922 24.3077 26.6527 24.3396L25.4055 23.5846C25.5409 23.4781 25.6515 23.3432 25.7296 23.1894C25.8076 23.0356 25.8513 22.8665 25.8575 22.6941C25.8636 22.5216 25.8322 22.3498 25.7654 22.1908C25.6985 22.0317 25.5979 21.8892 25.4704 21.7732C25.4537 21.5263 25.3827 21.2861 25.2624 21.07C25.1421 20.8538 24.9756 20.6671 24.7747 20.5232C25.2417 20.1153 25.5961 19.5936 25.8037 19.0084C25.8129 18.9828 25.8168 18.9555 25.8154 18.9283C25.814 18.9011 25.8072 18.8744 25.7955 18.8498C25.7837 18.8252 25.7672 18.8032 25.747 18.785C25.7267 18.7669 25.7031 18.7529 25.6774 18.744C25.6517 18.735 25.6245 18.7312 25.5974 18.7329C25.5702 18.7345 25.5437 18.7415 25.5193 18.7535C25.4949 18.7655 25.473 18.7822 25.4551 18.8026C25.4371 18.8231 25.4234 18.8469 25.4147 18.8728C25.2199 19.4145 24.8849 19.8945 24.4441 20.2636C24.4252 20.2793 24.4094 20.2983 24.3972 20.3197C24.2076 20.247 24.0063 20.2099 23.8033 20.21C23.718 20.2102 23.6329 20.217 23.5486 20.2302C23.4837 20.1303 23.41 20.0366 23.3283 19.95C22.9704 19.5712 22.4772 19.3504 21.957 19.3363C21.4369 19.3222 20.9325 19.5159 20.5547 19.8748C20.442 19.9818 20.3423 20.1019 20.2576 20.2323C20.1688 20.2177 20.079 20.2102 19.9891 20.21C19.9856 20.21 19.9822 20.2102 19.9786 20.2102C19.4113 19.5902 19.3942 18.7144 19.4846 18.0759C19.5085 17.9685 19.5382 17.8625 19.5736 17.7584C19.6187 17.7663 19.6643 17.7702 19.7101 17.7701C19.8633 17.7665 20.0146 17.7354 20.1569 17.6782C20.4862 17.5535 20.841 17.3109 21.1558 16.9951C21.4706 16.6792 21.7127 16.3234 21.837 15.9932C21.9202 15.7723 21.9462 15.5732 21.9165 15.4067C22.0203 15.3715 22.1259 15.3423 22.2329 15.3191C22.571 15.2671 22.9148 15.2642 23.2538 15.3103C23.3714 15.8554 23.1546 16.5611 22.7296 16.9701C22.71 16.9889 22.6943 17.0114 22.6834 17.0362C22.6725 17.0611 22.6666 17.0879 22.666 17.1151C22.6654 17.1422 22.6702 17.1692 22.68 17.1945C22.6898 17.2199 22.7046 17.243 22.7233 17.2626C22.7421 17.2822 22.7645 17.2979 22.7894 17.3088C22.8142 17.3196 22.8409 17.3255 22.868 17.326C22.8951 17.3266 22.922 17.3217 22.9472 17.3118C22.9724 17.3018 22.9954 17.287 23.0149 17.2681C23.4947 16.8062 23.7533 16.0615 23.6868 15.4157C24.1328 15.5658 24.5072 15.877 24.737 16.2888C24.7376 16.29 24.7384 16.2912 24.7391 16.2925L29.1622 23.6425ZM31.5582 17.9778C31.0433 18.3432 30.5657 18.389 29.6522 18.1726C29.6258 18.1663 29.5986 18.1654 29.5719 18.1697C29.5452 18.1741 29.5196 18.1836 29.4966 18.1979C29.4736 18.2122 29.4536 18.2308 29.4378 18.2528C29.4219 18.2748 29.4106 18.2997 29.4044 18.3261C29.3982 18.3525 29.3972 18.3799 29.4015 18.4067C29.4059 18.4335 29.4154 18.4591 29.4296 18.4822C29.4438 18.5053 29.4624 18.5253 29.4844 18.5412C29.5063 18.557 29.5312 18.5684 29.5575 18.5747C29.9535 18.6684 30.2827 18.7172 30.5728 18.7172C30.8505 18.7214 31.1258 18.6662 31.3804 18.5552C30.8984 19.6173 29.7568 19.9285 28.8941 20.1636C28.5257 20.2641 28.2075 20.3507 27.9979 20.4814C27.9352 20.5216 27.8776 20.5694 27.8266 20.6237L25.0929 16.0809C25.0847 16.0667 25.0761 16.0531 25.0678 16.0392C25.1768 15.8475 25.3148 15.6738 25.4768 15.5245C25.6036 15.7624 25.8115 15.9606 25.9508 16.0762C26.289 16.3571 26.7062 16.5661 27.0957 16.6497C27.1222 16.6556 27.1497 16.6562 27.1764 16.6514C27.2032 16.6467 27.2287 16.6366 27.2516 16.6219C27.2745 16.6072 27.2942 16.588 27.3097 16.5656C27.3251 16.5432 27.336 16.518 27.3417 16.4913C27.3474 16.4646 27.3478 16.4371 27.3428 16.4103C27.3378 16.3835 27.3276 16.358 27.3128 16.3352C27.2979 16.3123 27.2787 16.2927 27.2562 16.2773C27.2338 16.262 27.2085 16.2513 27.1819 16.2458C26.86 16.1767 26.498 15.9945 26.2135 15.758C26.0159 15.594 25.8709 15.4148 25.81 15.2653C26.0641 15.1028 26.3408 14.979 26.6311 14.8981C26.9503 15.3151 27.9023 15.623 28.533 15.7584C28.9419 15.8496 29.3591 15.8983 29.7779 15.9039C29.8597 15.9039 29.9383 15.9014 30.0132 15.8964C30.2748 15.8789 30.4768 15.8317 30.6192 15.7546C31.3595 16.3797 31.6982 17.1791 31.5582 17.9778V17.9778Z" stroke="white" stroke-width="20" mask="url(#path-2-inside-1_95_7031)"/>
<mask id="path-3-inside-2_95_7031" fill="white">
<path d="M15.7032 17.3535C15.797 17.1181 15.8631 16.8639 15.9427 16.5573C15.979 16.4174 16.0203 16.2589 16.0682 16.0867C16.0757 16.0599 16.0768 16.0315 16.0715 16.0041C16.0661 15.9767 16.0545 15.951 16.0376 15.9293C16.0207 15.9075 15.999 15.8904 15.9743 15.8792C15.9496 15.868 15.9227 15.8632 15.8958 15.8651C15.4538 15.897 15.1751 16.3009 14.9513 16.6255C14.8313 16.7993 14.7367 16.9303 14.6535 16.9972C14.6943 16.8193 14.724 16.6986 14.7249 16.6948C14.7308 16.6711 14.7318 16.6465 14.7279 16.6225C14.724 16.5984 14.7152 16.5755 14.7022 16.5552C14.6184 16.4359 14.5002 16.3474 14.3648 16.3025C14.2288 16.2595 14.0847 16.2519 13.9452 16.2805C13.9253 16.2852 13.9063 16.2936 13.8893 16.3054C13.7732 15.7405 13.5106 15.3869 13.0959 15.2343C12.9803 14.7013 12.3942 14.2507 11.6523 14.1413C11.2441 14.0812 10.7875 14.1787 10.3994 14.4091C10.3621 14.4313 10.3265 14.4546 10.2917 14.4784C9.94061 13.8363 9.28318 13.7225 8.74024 13.759C8.69861 13.6893 8.65554 13.6205 8.61103 13.5528C8.01164 12.6416 7.30388 12.1579 6.56426 12.1539C6.47023 12.1542 6.37907 12.1875 6.30551 12.2484C6.23195 12.3092 6.18028 12.3941 6.15887 12.4892C6.12005 12.6661 6.13424 12.8826 6.20115 13.1327C6.2796 13.426 6.40834 13.6004 6.58376 13.6508C6.74981 13.6984 6.89201 13.617 6.96227 13.5639C7.13593 13.5495 7.34895 13.7226 7.52858 13.9966C6.71514 14.1947 5.89063 14.4807 5.60569 15.1362C5.55839 15.1398 5.51144 15.1473 5.46533 15.1589C4.58753 15.3843 4.11442 15.9486 4.01895 16.884C3.9364 17.693 4.13757 18.724 4.35055 19.8155C4.37431 19.9373 4.39819 20.0602 4.42217 20.1843C4.652 21.3778 5.02714 22.4413 5.47844 23.1784C5.94633 23.9425 6.47853 24.3416 7.02555 24.3416C7.04317 24.3416 7.0608 24.3409 7.07853 24.34C7.30195 24.5627 7.5387 24.6819 7.77411 24.6821C7.87116 24.6819 7.9681 24.6755 8.06438 24.6629C8.19855 24.643 8.33479 24.6437 8.46877 24.6649C8.63295 24.6885 8.75948 24.7615 8.89349 24.8387C9.05764 24.9334 9.22738 25.0313 9.45768 25.0313C9.91584 25.0313 10.1924 24.8517 10.3903 24.5617C10.4889 24.5719 10.5846 24.577 10.6772 24.5771C10.9557 24.5807 11.232 24.5262 11.4898 24.417C12.1663 24.8446 12.9421 25.0728 13.734 25.0769C14.8595 25.0769 15.9352 24.572 16.763 23.6553C17.5491 22.7846 18 21.6529 18 20.5506C18 19.8458 17.7354 19.1453 17.235 18.5246C16.8218 18.0128 16.2965 17.6112 15.7032 17.3535ZM13.9151 17.2599C13.9251 17.2417 13.9319 17.2217 13.935 17.2009C13.9361 17.1939 13.9366 17.187 13.9374 17.18C13.9419 17.1643 13.9463 17.1486 13.9508 17.133C13.9511 17.132 13.9514 17.1309 13.9517 17.1298C14.0077 16.9335 14.0635 16.7491 14.1065 16.6112C14.1588 16.6097 14.211 16.6171 14.261 16.633C14.3038 16.6476 14.3436 16.6705 14.3782 16.7004C14.3057 17.0027 14.0853 17.9545 14.0764 18.3794C14.0343 18.3993 13.9195 18.4105 13.8167 18.3613C13.7107 18.3107 13.7109 18.2403 13.711 18.2138C13.7118 18.0406 13.8089 17.6421 13.9151 17.2599ZM13.6248 18.6491C13.7324 18.7117 13.8538 18.7443 13.9771 18.7438C14.0726 18.7461 14.1669 18.7228 14.2512 18.6762C14.2989 18.6501 14.3389 18.6111 14.367 18.5634C14.3951 18.5156 14.4103 18.4608 14.411 18.4049C14.411 18.1879 14.4878 17.767 14.5655 17.3971C14.8389 17.3847 15.0411 17.092 15.2232 16.828C15.3586 16.6317 15.4971 16.4311 15.6595 16.3138C15.6456 16.3669 15.6323 16.4179 15.6196 16.4667C15.4375 17.1677 15.346 17.5197 14.8519 18.0204C14.8294 18.0432 14.8135 18.0721 14.8061 18.1038C14.7987 18.1355 14.8 18.1687 14.8099 18.1996C14.8198 18.2306 14.8379 18.258 14.8621 18.2788C14.8862 18.2996 14.9156 18.3129 14.9467 18.3172C15.365 18.3745 15.5355 18.5438 15.7934 18.8C15.9499 18.9555 16.1358 19.1403 16.4143 19.326C15.9876 19.432 15.0965 19.4227 14.5491 18.9931C14.5211 18.9712 14.4871 18.9589 14.452 18.958C14.417 18.9572 14.3825 18.9678 14.3536 18.9884C14.1946 19.1017 14.0779 19.3262 13.9303 19.6104C13.7136 20.0276 13.4484 20.5382 12.9966 20.725C12.8572 20.3397 13.0422 19.9169 13.2074 19.5395C13.3436 19.2284 13.4612 18.9597 13.3593 18.7436C13.3415 18.7057 13.3109 18.6758 13.2734 18.6595C13.2359 18.6433 13.194 18.6418 13.1554 18.6553C12.8044 18.7786 12.4296 18.7036 12.0672 18.6311C11.857 18.589 11.6429 18.5461 11.4316 18.5418C11.9408 18.0728 12.5775 17.9997 12.9489 17.957C12.9841 17.953 13.0168 17.9492 13.0467 17.9454C13.0759 17.9417 13.1037 17.9301 13.1272 17.9117C13.1507 17.8933 13.1691 17.8688 13.1806 17.8406C13.2196 17.7445 13.1862 17.6521 13.0744 17.3457C12.9703 17.0601 12.7999 16.5925 12.7621 16.218C12.8481 16.2973 12.9398 16.3753 13.03 16.452C13.2843 16.6684 13.5974 16.9349 13.6053 17.1183C13.4918 17.5228 13.3771 17.987 13.3762 18.2123C13.3758 18.397 13.464 18.5521 13.6248 18.6491ZM12.8827 15.5308C13.2672 15.6259 13.4954 15.9341 13.5827 16.4865C13.4776 16.3833 13.3594 16.2827 13.2423 16.1831C13.0579 16.0262 12.8671 15.8639 12.7515 15.7116C12.7326 15.6867 12.7074 15.6676 12.6788 15.6565C12.6501 15.6453 12.6191 15.6426 12.589 15.6485C12.559 15.6544 12.531 15.6687 12.5083 15.6899C12.4855 15.7112 12.4688 15.7385 12.46 15.7689C12.3687 16.0821 12.4478 16.4984 12.5628 16.8844C12.2937 16.9478 12.0303 17.035 11.7755 17.1451C11.6468 16.8997 11.4889 16.6721 11.3054 16.4676C11.1696 16.3104 11.0089 16.1784 10.8302 16.0774C11.3722 15.7114 12.6256 15.4673 12.8827 15.5308ZM10.5654 14.711C10.8901 14.5182 11.2691 14.4358 11.6051 14.4855C12.1315 14.5632 12.5702 14.8431 12.7234 15.175C12.4341 15.1825 12.0216 15.2623 11.6922 15.3529C11.3936 15.4349 10.907 15.5943 10.5887 15.8301C10.5682 15.6882 10.5891 15.479 10.7732 15.2355C10.7965 15.2047 10.8091 15.1668 10.809 15.1277C10.8089 15.0886 10.7961 15.0507 10.7727 15.02C10.7493 14.9894 10.7166 14.9679 10.68 14.9589C10.6433 14.95 10.6049 14.9541 10.5708 14.9707C10.4312 15.0244 10.2877 15.0662 10.1416 15.0958C10.2322 14.9573 10.3799 14.8211 10.5654 14.7109V14.711ZM10.0267 14.7004C9.904 14.8222 9.80938 14.9713 9.74985 15.1364C9.56059 15.1325 9.37287 15.0842 9.29247 14.9275C9.18923 14.6435 9.06803 14.3669 8.92966 14.0996C9.46917 14.0989 9.82997 14.2971 10.0266 14.7003L10.0267 14.7004ZM6.85534 13.2301C6.82639 13.2365 6.79971 13.2511 6.77825 13.2723C6.75706 13.2921 6.70429 13.3253 6.6725 13.3157C6.63482 13.3043 6.57319 13.2252 6.5236 13.0397C6.45901 12.7982 6.46704 12.6491 6.48517 12.5666C6.4891 12.5484 6.49882 12.532 6.51278 12.5202C6.52673 12.5085 6.5441 12.5019 6.56209 12.5016H6.56248C7.35173 12.5059 7.96192 13.1824 8.33473 13.749C8.59698 14.1538 8.81303 14.589 8.97852 15.0456C8.98131 15.0562 8.98504 15.0665 8.98968 15.0763C9.05697 15.2601 9.11109 15.4488 9.1516 15.6409C9.16048 15.6861 9.18626 15.7257 9.22329 15.7512C9.26032 15.7766 9.30555 15.7857 9.34904 15.7765C9.39253 15.7673 9.43071 15.7405 9.45518 15.702C9.47966 15.6635 9.48842 15.6166 9.47955 15.5714C9.47174 15.5316 9.46228 15.4891 9.45149 15.4446C9.59407 15.4803 9.74119 15.4924 9.88739 15.4804C9.88982 15.4804 9.89225 15.4801 9.89465 15.4799C10.0307 15.4697 10.1657 15.4482 10.2984 15.4157C10.2478 15.5674 10.2343 15.7299 10.259 15.8884C10.1791 15.8776 10.0987 15.8722 10.0181 15.8721C9.77196 15.8721 9.54029 15.9685 9.33589 16.0535C9.15841 16.1274 8.99079 16.1971 8.85997 16.1848C8.72574 16.1721 8.61873 16.0947 8.48327 15.9965C8.35206 15.8949 8.20948 15.8101 8.05863 15.7441C8.25481 15.4755 8.28562 15.0362 8.12992 14.5104C7.91816 13.795 7.39942 13.1028 6.85534 13.2301ZM7.69945 14.3126C7.74268 14.41 7.7796 14.5102 7.80998 14.6127C7.92711 15.0085 7.95581 15.5143 7.65366 15.6437C7.59042 15.6371 7.5269 15.6338 7.46335 15.6339C7.30515 15.633 7.14876 15.6689 7.00574 15.7392C6.80136 15.5245 6.55405 15.3591 6.28133 15.2547C6.18057 15.2154 6.07686 15.1847 5.97126 15.163C6.2316 14.7473 6.85411 14.5134 7.69945 14.3126ZM4.75037 20.116C4.7264 19.9917 4.70246 19.8685 4.67855 19.7464C4.47084 18.6821 4.27464 17.6764 4.35178 16.9207C4.43266 16.127 4.80099 15.6876 5.54565 15.4964C5.80418 15.4299 6.35359 15.5737 6.72292 15.9371C6.56017 16.0958 6.42688 16.2842 6.32969 16.4929C6.08954 16.9888 5.98328 17.5916 5.93646 18.0101C5.86718 18.6291 5.86927 19.1559 5.87195 19.8228C5.87248 19.9535 5.87304 20.0891 5.87304 20.2311C5.87304 21.3677 6.07532 22.4679 6.44264 23.3292C6.53359 23.5462 6.64285 23.7545 6.76914 23.9516C5.94959 23.6879 5.15308 22.2078 4.75037 20.116ZM9.45763 24.6838C9.31403 24.6838 9.20013 24.6181 9.05603 24.5349C8.90821 24.4497 8.74088 24.3531 8.51473 24.3205C8.3534 24.2955 8.18947 24.2944 8.02785 24.3173C7.94437 24.3282 7.86034 24.3339 7.7762 24.3344H7.77447C7.44321 24.3341 7.0502 23.895 6.7488 23.1883C6.39983 22.3704 6.20773 21.3202 6.20773 20.2311C6.20773 20.0886 6.20717 19.9525 6.20664 19.8214C6.20402 19.1661 6.20196 18.6485 6.26892 18.0503C6.31265 17.6597 6.41054 17.0995 6.62869 16.6491C6.84321 16.2061 7.12402 15.9815 7.46332 15.9815C7.87705 15.9815 8.08803 16.1342 8.29184 16.2818C8.44679 16.394 8.60699 16.51 8.82957 16.5309C9.04041 16.5508 9.25387 16.462 9.46028 16.3761C9.64521 16.2992 9.83641 16.2197 10.0181 16.2197C10.428 16.2197 10.7778 16.3818 11.058 16.7015C11.2183 16.8803 11.357 17.0786 11.4712 17.2922C11.0065 17.538 10.6004 17.8884 10.2826 18.3179C9.77606 19.0064 9.50833 19.9119 9.50833 20.9362C9.50833 21.8789 9.84578 22.7826 10.4668 23.5235C10.1877 24.3805 10.022 24.6838 9.45763 24.6838ZM10.5701 24.2276C10.6265 24.0981 10.6774 23.9571 10.7273 23.808C10.7434 23.8241 10.7594 23.8404 10.7759 23.8563C10.8917 23.9687 11.0136 24.0744 11.1407 24.1728C10.9542 24.2205 10.7618 24.2389 10.57 24.2276H10.5701ZM16.5188 23.4176C15.7549 24.2635 14.7659 24.7294 13.7339 24.7294C12.7365 24.7294 11.7416 24.3186 11.0044 23.6025C10.9281 23.5283 10.8553 23.4519 10.7861 23.3732C10.7824 23.3685 10.7785 23.364 10.7744 23.3598C10.1716 22.6703 9.84294 21.8212 9.84294 20.9363C9.84294 19.9889 10.0869 19.1564 10.5485 18.529C11.0323 17.8714 11.7462 17.4304 12.6709 17.2158C12.7021 17.3052 12.7331 17.3903 12.7617 17.4688C12.7804 17.5201 12.8001 17.5743 12.8171 17.6227C12.3253 17.6823 11.4413 17.8341 10.8632 18.6849C10.8425 18.7154 10.8318 18.752 10.8326 18.7893C10.8335 18.8266 10.8458 18.8626 10.8679 18.892C10.8899 18.9214 10.9205 18.9427 10.9551 18.9527C10.9897 18.9626 11.0265 18.9608 11.06 18.9474C11.3333 18.8382 11.659 18.9034 12.004 18.9725C12.325 19.0368 12.6817 19.1081 13.0426 19.0427C13.0024 19.163 12.9557 19.2808 12.9029 19.3957C12.7077 19.8415 12.4405 20.4521 12.7653 21.0245C12.7835 21.0568 12.8113 21.082 12.8445 21.0965C12.8777 21.111 12.9145 21.114 12.9495 21.105C13.6242 20.9322 13.9714 20.2637 14.225 19.7754C14.3104 19.611 14.3923 19.4533 14.4663 19.3553C14.8105 19.5792 15.2829 19.7145 15.7878 19.731C16.4118 19.7513 16.7676 19.6 16.8926 19.4517C16.9093 19.4319 16.9215 19.4084 16.9282 19.3831C16.9348 19.3577 16.9359 19.3311 16.9312 19.3052C16.9266 19.2793 16.9163 19.2549 16.9012 19.2337C16.8861 19.2126 16.8666 19.1953 16.8442 19.1831C16.4464 18.9675 16.2224 18.745 16.0249 18.5487C15.8113 18.3365 15.6205 18.1469 15.2937 18.0403C15.3913 17.9238 15.4785 17.7983 15.5544 17.6655C16.6012 18.1077 17.6653 19.2337 17.6653 20.5506C17.6653 21.5655 17.2474 22.6105 16.5187 23.4176H16.5188Z"/>
</mask>
<path d="M15.7032 17.3535C15.797 17.1181 15.8631 16.8639 15.9427 16.5573C15.979 16.4174 16.0203 16.2589 16.0682 16.0867C16.0757 16.0599 16.0768 16.0315 16.0715 16.0041C16.0661 15.9767 16.0545 15.951 16.0376 15.9293C16.0207 15.9075 15.999 15.8904 15.9743 15.8792C15.9496 15.868 15.9227 15.8632 15.8958 15.8651C15.4538 15.897 15.1751 16.3009 14.9513 16.6255C14.8313 16.7993 14.7367 16.9303 14.6535 16.9972C14.6943 16.8193 14.724 16.6986 14.7249 16.6948C14.7308 16.6711 14.7318 16.6465 14.7279 16.6225C14.724 16.5984 14.7152 16.5755 14.7022 16.5552C14.6184 16.4359 14.5002 16.3474 14.3648 16.3025C14.2288 16.2595 14.0847 16.2519 13.9452 16.2805C13.9253 16.2852 13.9063 16.2936 13.8893 16.3054C13.7732 15.7405 13.5106 15.3869 13.0959 15.2343C12.9803 14.7013 12.3942 14.2507 11.6523 14.1413C11.2441 14.0812 10.7875 14.1787 10.3994 14.4091C10.3621 14.4313 10.3265 14.4546 10.2917 14.4784C9.94061 13.8363 9.28318 13.7225 8.74024 13.759C8.69861 13.6893 8.65554 13.6205 8.61103 13.5528C8.01164 12.6416 7.30388 12.1579 6.56426 12.1539C6.47023 12.1542 6.37907 12.1875 6.30551 12.2484C6.23195 12.3092 6.18028 12.3941 6.15887 12.4892C6.12005 12.6661 6.13424 12.8826 6.20115 13.1327C6.2796 13.426 6.40834 13.6004 6.58376 13.6508C6.74981 13.6984 6.89201 13.617 6.96227 13.5639C7.13593 13.5495 7.34895 13.7226 7.52858 13.9966C6.71514 14.1947 5.89063 14.4807 5.60569 15.1362C5.55839 15.1398 5.51144 15.1473 5.46533 15.1589C4.58753 15.3843 4.11442 15.9486 4.01895 16.884C3.9364 17.693 4.13757 18.724 4.35055 19.8155C4.37431 19.9373 4.39819 20.0602 4.42217 20.1843C4.652 21.3778 5.02714 22.4413 5.47844 23.1784C5.94633 23.9425 6.47853 24.3416 7.02555 24.3416C7.04317 24.3416 7.0608 24.3409 7.07853 24.34C7.30195 24.5627 7.5387 24.6819 7.77411 24.6821C7.87116 24.6819 7.9681 24.6755 8.06438 24.6629C8.19855 24.643 8.33479 24.6437 8.46877 24.6649C8.63295 24.6885 8.75948 24.7615 8.89349 24.8387C9.05764 24.9334 9.22738 25.0313 9.45768 25.0313C9.91584 25.0313 10.1924 24.8517 10.3903 24.5617C10.4889 24.5719 10.5846 24.577 10.6772 24.5771C10.9557 24.5807 11.232 24.5262 11.4898 24.417C12.1663 24.8446 12.9421 25.0728 13.734 25.0769C14.8595 25.0769 15.9352 24.572 16.763 23.6553C17.5491 22.7846 18 21.6529 18 20.5506C18 19.8458 17.7354 19.1453 17.235 18.5246C16.8218 18.0128 16.2965 17.6112 15.7032 17.3535ZM13.9151 17.2599C13.9251 17.2417 13.9319 17.2217 13.935 17.2009C13.9361 17.1939 13.9366 17.187 13.9374 17.18C13.9419 17.1643 13.9463 17.1486 13.9508 17.133C13.9511 17.132 13.9514 17.1309 13.9517 17.1298C14.0077 16.9335 14.0635 16.7491 14.1065 16.6112C14.1588 16.6097 14.211 16.6171 14.261 16.633C14.3038 16.6476 14.3436 16.6705 14.3782 16.7004C14.3057 17.0027 14.0853 17.9545 14.0764 18.3794C14.0343 18.3993 13.9195 18.4105 13.8167 18.3613C13.7107 18.3107 13.7109 18.2403 13.711 18.2138C13.7118 18.0406 13.8089 17.6421 13.9151 17.2599ZM13.6248 18.6491C13.7324 18.7117 13.8538 18.7443 13.9771 18.7438C14.0726 18.7461 14.1669 18.7228 14.2512 18.6762C14.2989 18.6501 14.3389 18.6111 14.367 18.5634C14.3951 18.5156 14.4103 18.4608 14.411 18.4049C14.411 18.1879 14.4878 17.767 14.5655 17.3971C14.8389 17.3847 15.0411 17.092 15.2232 16.828C15.3586 16.6317 15.4971 16.4311 15.6595 16.3138C15.6456 16.3669 15.6323 16.4179 15.6196 16.4667C15.4375 17.1677 15.346 17.5197 14.8519 18.0204C14.8294 18.0432 14.8135 18.0721 14.8061 18.1038C14.7987 18.1355 14.8 18.1687 14.8099 18.1996C14.8198 18.2306 14.8379 18.258 14.8621 18.2788C14.8862 18.2996 14.9156 18.3129 14.9467 18.3172C15.365 18.3745 15.5355 18.5438 15.7934 18.8C15.9499 18.9555 16.1358 19.1403 16.4143 19.326C15.9876 19.432 15.0965 19.4227 14.5491 18.9931C14.5211 18.9712 14.4871 18.9589 14.452 18.958C14.417 18.9572 14.3825 18.9678 14.3536 18.9884C14.1946 19.1017 14.0779 19.3262 13.9303 19.6104C13.7136 20.0276 13.4484 20.5382 12.9966 20.725C12.8572 20.3397 13.0422 19.9169 13.2074 19.5395C13.3436 19.2284 13.4612 18.9597 13.3593 18.7436C13.3415 18.7057 13.3109 18.6758 13.2734 18.6595C13.2359 18.6433 13.194 18.6418 13.1554 18.6553C12.8044 18.7786 12.4296 18.7036 12.0672 18.6311C11.857 18.589 11.6429 18.5461 11.4316 18.5418C11.9408 18.0728 12.5775 17.9997 12.9489 17.957C12.9841 17.953 13.0168 17.9492 13.0467 17.9454C13.0759 17.9417 13.1037 17.9301 13.1272 17.9117C13.1507 17.8933 13.1691 17.8688 13.1806 17.8406C13.2196 17.7445 13.1862 17.6521 13.0744 17.3457C12.9703 17.0601 12.7999 16.5925 12.7621 16.218C12.8481 16.2973 12.9398 16.3753 13.03 16.452C13.2843 16.6684 13.5974 16.9349 13.6053 17.1183C13.4918 17.5228 13.3771 17.987 13.3762 18.2123C13.3758 18.397 13.464 18.5521 13.6248 18.6491ZM12.8827 15.5308C13.2672 15.6259 13.4954 15.9341 13.5827 16.4865C13.4776 16.3833 13.3594 16.2827 13.2423 16.1831C13.0579 16.0262 12.8671 15.8639 12.7515 15.7116C12.7326 15.6867 12.7074 15.6676 12.6788 15.6565C12.6501 15.6453 12.6191 15.6426 12.589 15.6485C12.559 15.6544 12.531 15.6687 12.5083 15.6899C12.4855 15.7112 12.4688 15.7385 12.46 15.7689C12.3687 16.0821 12.4478 16.4984 12.5628 16.8844C12.2937 16.9478 12.0303 17.035 11.7755 17.1451C11.6468 16.8997 11.4889 16.6721 11.3054 16.4676C11.1696 16.3104 11.0089 16.1784 10.8302 16.0774C11.3722 15.7114 12.6256 15.4673 12.8827 15.5308ZM10.5654 14.711C10.8901 14.5182 11.2691 14.4358 11.6051 14.4855C12.1315 14.5632 12.5702 14.8431 12.7234 15.175C12.4341 15.1825 12.0216 15.2623 11.6922 15.3529C11.3936 15.4349 10.907 15.5943 10.5887 15.8301C10.5682 15.6882 10.5891 15.479 10.7732 15.2355C10.7965 15.2047 10.8091 15.1668 10.809 15.1277C10.8089 15.0886 10.7961 15.0507 10.7727 15.02C10.7493 14.9894 10.7166 14.9679 10.68 14.9589C10.6433 14.95 10.6049 14.9541 10.5708 14.9707C10.4312 15.0244 10.2877 15.0662 10.1416 15.0958C10.2322 14.9573 10.3799 14.8211 10.5654 14.7109V14.711ZM10.0267 14.7004C9.904 14.8222 9.80938 14.9713 9.74985 15.1364C9.56059 15.1325 9.37287 15.0842 9.29247 14.9275C9.18923 14.6435 9.06803 14.3669 8.92966 14.0996C9.46917 14.0989 9.82997 14.2971 10.0266 14.7003L10.0267 14.7004ZM6.85534 13.2301C6.82639 13.2365 6.79971 13.2511 6.77825 13.2723C6.75706 13.2921 6.70429 13.3253 6.6725 13.3157C6.63482 13.3043 6.57319 13.2252 6.5236 13.0397C6.45901 12.7982 6.46704 12.6491 6.48517 12.5666C6.4891 12.5484 6.49882 12.532 6.51278 12.5202C6.52673 12.5085 6.5441 12.5019 6.56209 12.5016H6.56248C7.35173 12.5059 7.96192 13.1824 8.33473 13.749C8.59698 14.1538 8.81303 14.589 8.97852 15.0456C8.98131 15.0562 8.98504 15.0665 8.98968 15.0763C9.05697 15.2601 9.11109 15.4488 9.1516 15.6409C9.16048 15.6861 9.18626 15.7257 9.22329 15.7512C9.26032 15.7766 9.30555 15.7857 9.34904 15.7765C9.39253 15.7673 9.43071 15.7405 9.45518 15.702C9.47966 15.6635 9.48842 15.6166 9.47955 15.5714C9.47174 15.5316 9.46228 15.4891 9.45149 15.4446C9.59407 15.4803 9.74119 15.4924 9.88739 15.4804C9.88982 15.4804 9.89225 15.4801 9.89465 15.4799C10.0307 15.4697 10.1657 15.4482 10.2984 15.4157C10.2478 15.5674 10.2343 15.7299 10.259 15.8884C10.1791 15.8776 10.0987 15.8722 10.0181 15.8721C9.77196 15.8721 9.54029 15.9685 9.33589 16.0535C9.15841 16.1274 8.99079 16.1971 8.85997 16.1848C8.72574 16.1721 8.61873 16.0947 8.48327 15.9965C8.35206 15.8949 8.20948 15.8101 8.05863 15.7441C8.25481 15.4755 8.28562 15.0362 8.12992 14.5104C7.91816 13.795 7.39942 13.1028 6.85534 13.2301ZM7.69945 14.3126C7.74268 14.41 7.7796 14.5102 7.80998 14.6127C7.92711 15.0085 7.95581 15.5143 7.65366 15.6437C7.59042 15.6371 7.5269 15.6338 7.46335 15.6339C7.30515 15.633 7.14876 15.6689 7.00574 15.7392C6.80136 15.5245 6.55405 15.3591 6.28133 15.2547C6.18057 15.2154 6.07686 15.1847 5.97126 15.163C6.2316 14.7473 6.85411 14.5134 7.69945 14.3126ZM4.75037 20.116C4.7264 19.9917 4.70246 19.8685 4.67855 19.7464C4.47084 18.6821 4.27464 17.6764 4.35178 16.9207C4.43266 16.127 4.80099 15.6876 5.54565 15.4964C5.80418 15.4299 6.35359 15.5737 6.72292 15.9371C6.56017 16.0958 6.42688 16.2842 6.32969 16.4929C6.08954 16.9888 5.98328 17.5916 5.93646 18.0101C5.86718 18.6291 5.86927 19.1559 5.87195 19.8228C5.87248 19.9535 5.87304 20.0891 5.87304 20.2311C5.87304 21.3677 6.07532 22.4679 6.44264 23.3292C6.53359 23.5462 6.64285 23.7545 6.76914 23.9516C5.94959 23.6879 5.15308 22.2078 4.75037 20.116ZM9.45763 24.6838C9.31403 24.6838 9.20013 24.6181 9.05603 24.5349C8.90821 24.4497 8.74088 24.3531 8.51473 24.3205C8.3534 24.2955 8.18947 24.2944 8.02785 24.3173C7.94437 24.3282 7.86034 24.3339 7.7762 24.3344H7.77447C7.44321 24.3341 7.0502 23.895 6.7488 23.1883C6.39983 22.3704 6.20773 21.3202 6.20773 20.2311C6.20773 20.0886 6.20717 19.9525 6.20664 19.8214C6.20402 19.1661 6.20196 18.6485 6.26892 18.0503C6.31265 17.6597 6.41054 17.0995 6.62869 16.6491C6.84321 16.2061 7.12402 15.9815 7.46332 15.9815C7.87705 15.9815 8.08803 16.1342 8.29184 16.2818C8.44679 16.394 8.60699 16.51 8.82957 16.5309C9.04041 16.5508 9.25387 16.462 9.46028 16.3761C9.64521 16.2992 9.83641 16.2197 10.0181 16.2197C10.428 16.2197 10.7778 16.3818 11.058 16.7015C11.2183 16.8803 11.357 17.0786 11.4712 17.2922C11.0065 17.538 10.6004 17.8884 10.2826 18.3179C9.77606 19.0064 9.50833 19.9119 9.50833 20.9362C9.50833 21.8789 9.84578 22.7826 10.4668 23.5235C10.1877 24.3805 10.022 24.6838 9.45763 24.6838ZM10.5701 24.2276C10.6265 24.0981 10.6774 23.9571 10.7273 23.808C10.7434 23.8241 10.7594 23.8404 10.7759 23.8563C10.8917 23.9687 11.0136 24.0744 11.1407 24.1728C10.9542 24.2205 10.7618 24.2389 10.57 24.2276H10.5701ZM16.5188 23.4176C15.7549 24.2635 14.7659 24.7294 13.7339 24.7294C12.7365 24.7294 11.7416 24.3186 11.0044 23.6025C10.9281 23.5283 10.8553 23.4519 10.7861 23.3732C10.7824 23.3685 10.7785 23.364 10.7744 23.3598C10.1716 22.6703 9.84294 21.8212 9.84294 20.9363C9.84294 19.9889 10.0869 19.1564 10.5485 18.529C11.0323 17.8714 11.7462 17.4304 12.6709 17.2158C12.7021 17.3052 12.7331 17.3903 12.7617 17.4688C12.7804 17.5201 12.8001 17.5743 12.8171 17.6227C12.3253 17.6823 11.4413 17.8341 10.8632 18.6849C10.8425 18.7154 10.8318 18.752 10.8326 18.7893C10.8335 18.8266 10.8458 18.8626 10.8679 18.892C10.8899 18.9214 10.9205 18.9427 10.9551 18.9527C10.9897 18.9626 11.0265 18.9608 11.06 18.9474C11.3333 18.8382 11.659 18.9034 12.004 18.9725C12.325 19.0368 12.6817 19.1081 13.0426 19.0427C13.0024 19.163 12.9557 19.2808 12.9029 19.3957C12.7077 19.8415 12.4405 20.4521 12.7653 21.0245C12.7835 21.0568 12.8113 21.082 12.8445 21.0965C12.8777 21.111 12.9145 21.114 12.9495 21.105C13.6242 20.9322 13.9714 20.2637 14.225 19.7754C14.3104 19.611 14.3923 19.4533 14.4663 19.3553C14.8105 19.5792 15.2829 19.7145 15.7878 19.731C16.4118 19.7513 16.7676 19.6 16.8926 19.4517C16.9093 19.4319 16.9215 19.4084 16.9282 19.3831C16.9348 19.3577 16.9359 19.3311 16.9312 19.3052C16.9266 19.2793 16.9163 19.2549 16.9012 19.2337C16.8861 19.2126 16.8666 19.1953 16.8442 19.1831C16.4464 18.9675 16.2224 18.745 16.0249 18.5487C15.8113 18.3365 15.6205 18.1469 15.2937 18.0403C15.3913 17.9238 15.4785 17.7983 15.5544 17.6655C16.6012 18.1077 17.6653 19.2337 17.6653 20.5506C17.6653 21.5655 17.2474 22.6105 16.5187 23.4176H16.5188Z" stroke="white" stroke-width="20" mask="url(#path-3-inside-2_95_7031)"/>
</svg>
