<svg width="36" height="36" viewBox="0 0 36 36" fill="none" xmlns="http://www.w3.org/2000/svg">
<rect width="36" height="36" rx="18" fill="#006633"/>
<path d="M26.7432 14.0711C27.0053 13.6961 27.4379 13.4593 27.9192 13.4593H28.213C28.4677 13.4593 28.6742 13.2528 28.6742 12.9981C28.6742 12.7435 28.4677 12.537 28.213 12.537H27.9192C26.9547 12.537 26.1074 13.1147 25.7454 13.9799H24.178V11.0326H24.7532C26.3015 11.0326 26.9359 9.05418 25.6843 8.14542C23.1901 6.3346 20.4069 4.96959 17.4119 4.08833C17.0079 3.96947 16.5834 3.97166 16.1872 4.08833C13.1923 4.96953 10.409 6.3346 7.91475 8.14548C6.66192 9.0551 7.29906 11.0327 8.84576 11.0327H9.42105V18.5543C9.42105 18.809 9.62753 19.0155 9.8822 19.0155C10.1369 19.0155 10.3433 18.809 10.3433 18.5543V11.0327H20.788C21.0427 11.0327 21.2492 10.8262 21.2492 10.5715C21.2492 10.3169 21.0427 10.1104 20.788 10.1104H20.0052C19.6442 8.91169 19.2076 7.72485 18.7036 6.57791C18.6011 6.34486 18.3292 6.23891 18.0958 6.34128C17.8627 6.44372 17.7567 6.71585 17.8592 6.94902C18.3109 7.97699 18.7069 9.03793 19.0408 10.1104H8.84582C8.19277 10.1104 7.9264 9.27692 8.45666 8.89186C10.6023 7.33403 12.9704 6.11878 15.5073 5.26991C15.041 6.21084 14.621 7.17626 14.2546 8.152C14.1412 8.45382 14.3653 8.77536 14.6862 8.77536C14.8728 8.77536 15.0485 8.66128 15.1179 8.47624C15.5722 7.26664 16.1118 6.07347 16.7214 4.9252C16.8656 4.91609 17.011 4.93189 17.1515 4.97322C20.0452 5.82468 22.7337 7.14311 25.1424 8.89186C25.6729 9.27703 25.4059 10.1104 24.7532 10.1104H23.7168C23.4621 10.1104 23.2557 10.3169 23.2557 10.5716V20.544H9.07524C8.31244 20.544 7.69179 21.1647 7.69179 21.9275V22.6192C7.69179 23.382 8.31244 24.0026 9.07524 24.0026H16.9725C17.2271 24.0026 17.4336 23.7962 17.4336 23.5415C17.4336 23.2868 17.2271 23.0803 16.9725 23.0803H9.07524C8.82097 23.0803 8.61409 22.8735 8.61409 22.6192V21.9275C8.61409 21.6732 8.82097 21.4663 9.07524 21.4663H24.5238C24.7781 21.4663 24.985 21.6732 24.985 21.9275V22.6192C24.985 22.8735 24.7781 23.0803 24.5238 23.0803C22.1928 23.0803 22.2986 23.0634 22.1706 23.1215L16.7995 25.5573L14.7533 24.6293C14.5213 24.5243 14.248 24.6268 14.1428 24.8588C14.0376 25.0907 14.1404 25.3641 14.3723 25.4693L15.6829 26.0637L9.44618 28.8921L9.83989 25.9079C9.87315 25.6554 9.69549 25.4237 9.44301 25.3903C9.1903 25.357 8.9588 25.5348 8.92542 25.7872L8.27105 30.7469H7.46115C7.20648 30.7469 7 30.9534 7 31.208C7 31.4627 7.20648 31.6692 7.46115 31.6692H9.8822C10.1369 31.6692 10.3433 31.4627 10.3433 31.208C10.3433 30.9534 10.1369 30.7469 9.8822 30.7469H9.20142L9.30403 29.9692L22.4607 24.0026H23.5077L24.1529 28.8921L20.8122 27.3771C20.5804 27.2719 20.3069 27.3746 20.2017 27.6066C20.0966 27.8385 20.1993 28.1119 20.4313 28.2171L24.295 29.9693L24.3976 30.7469H23.7168C23.4621 30.7469 23.2557 30.9534 23.2557 31.2081C23.2557 31.4628 23.4621 31.6692 23.7168 31.6692H26.1379C26.3925 31.6692 26.599 31.4628 26.599 31.2081C26.599 30.9534 26.3925 30.7469 26.1379 30.7469H25.328L24.438 24.0026H24.5238C25.2866 24.0026 25.9073 23.3819 25.9073 22.6191V21.9274C25.9073 21.1646 25.2866 20.5439 24.5238 20.5439H24.178V14.9023H25.8829C27.6446 14.9023 29.0777 16.3354 29.0777 18.0971C29.0777 18.4896 28.7584 18.8089 28.3659 18.8089C27.9734 18.8089 27.6541 18.4896 27.6541 18.0971C27.6541 17.1204 26.8596 16.3258 25.8828 16.3258H25.7194C25.4647 16.3258 25.2583 16.5323 25.2583 16.7869C25.2583 17.0416 25.4647 17.2481 25.7194 17.2481H25.8828C26.351 17.2481 26.7318 17.6289 26.7318 18.0971C26.7318 18.9981 27.4649 19.7312 28.3659 19.7312C29.2669 19.7312 30 18.9981 30 18.0971C30 16.122 28.6017 14.4679 26.7432 14.0711Z" fill="white"/>
<path d="M18.7074 18.352C19.6847 17.3746 19.7673 15.8264 18.8995 14.7505L17.7867 13.371C17.2785 12.741 16.3197 12.7424 15.8126 13.371L14.6998 14.7505C13.832 15.8263 13.9146 17.3746 14.892 18.352C15.9438 19.4038 17.6554 19.4039 18.7074 18.352ZM15.5442 17.6999C14.9009 17.0566 14.8465 16.0376 15.4177 15.3295L16.5305 13.95C16.6692 13.7782 16.9303 13.7782 17.0689 13.95L18.1817 15.3295C18.7529 16.0376 18.6985 17.0566 18.0553 17.6999C17.3628 18.3921 16.2364 18.392 15.5442 17.6999Z" fill="white"/>
</svg>
