<svg width="36" height="36" viewBox="0 0 36 36" fill="none" xmlns="http://www.w3.org/2000/svg">
<rect width="36" height="36" rx="18" fill="#006633"/>
<path d="M1 25.0074H34.9961" stroke="white" stroke-width="0.3" stroke-linecap="round"/>
<path d="M32.2361 25.0074L32.2361 15.4987" stroke="white" stroke-width="0.3"/>
<path d="M3.96509 18.0549L32.2866 18.0549" stroke="white" stroke-width="0.3"/>
<path d="M3.96484 24.9054V15.3967" stroke="white" stroke-width="0.3"/>
<path d="M2.63281 15.8055L15.235 11.9215C17.1818 11.3215 19.2654 11.3304 21.207 11.947L33.3571 15.8055" stroke="white" stroke-width="0.3" stroke-linecap="round"/>
<path d="M10.203 25.0074V19.684C10.203 19.5183 10.3374 19.384 10.503 19.384H25.4441C25.6098 19.384 25.7441 19.5183 25.7441 19.684V25.0074M6.41328 21.9401H7.55143C7.71711 21.9401 7.85143 21.8058 7.85143 21.6401V19.684C7.85143 19.5183 7.71711 19.384 7.55143 19.384H6.41328C6.2476 19.384 6.11328 19.5183 6.11328 19.684V21.6401C6.11328 21.8058 6.2476 21.9401 6.41328 21.9401Z" stroke="white" stroke-width="0.3" stroke-linecap="round"/>
<path d="M3.96484 17.1858H32.2353M28.3433 22.0424H29.6348C29.8005 22.0424 29.9348 21.9081 29.9348 21.7424V19.5818C29.9348 19.4161 29.8005 19.2818 29.6348 19.2818H28.3433C28.1776 19.2818 28.0433 19.4161 28.0433 19.5818V21.7424C28.0433 21.9081 28.1776 22.0424 28.3433 22.0424Z" stroke="white" stroke-width="0.3"/>
<path d="M12.1373 20.6016C12.3969 20.5213 12.6456 20.4096 12.878 20.2688C13.3727 20.0908 13.8981 20.0137 14.4232 20.042C14.98 20.0163 15.538 20.0565 16.0855 20.1616C16.2673 20.196 16.444 20.2535 16.6112 20.3329C16.863 20.4824 17.0866 20.675 17.2719 20.9017C17.4281 21.0251 17.6134 21.1062 17.81 21.1375C17.8145 21.1384 17.8187 21.1405 17.8221 21.1436C17.8254 21.1467 17.8279 21.1506 17.8293 21.155C17.8306 21.1594 17.8308 21.164 17.8297 21.1685C17.8286 21.1729 17.8263 21.177 17.8231 21.1803C17.7331 21.3058 17.6126 21.4064 17.4731 21.4727C17.1779 21.5495 16.8735 21.5846 16.5686 21.5772C15.9134 21.5611 15.1339 21.3706 14.4781 21.3864C13.8593 21.4012 13.2144 21.4802 12.6419 21.2448C12.3818 21.1302 12.1616 20.941 12.0091 20.7011C12.0041 20.6936 12.001 20.6849 12.0002 20.6759C11.9994 20.6669 12.0008 20.6579 12.0044 20.6495C12.008 20.6412 12.0136 20.6339 12.0207 20.6283C12.0278 20.6227 12.0361 20.619 12.0451 20.6174L12.1373 20.6016Z" stroke="white" stroke-width="0.1" stroke-miterlimit="10"/>
<path d="M13.8475 20.7678C13.8164 20.7712 13.7855 20.7746 13.7548 20.778C13.6175 20.7931 13.484 20.8078 13.3556 20.8171L14.5088 20.7354C14.4938 20.7352 14.4787 20.7349 14.4637 20.7346C14.4339 20.7339 14.404 20.7333 14.3746 20.734C14.3745 20.734 14.3743 20.734 14.3742 20.734C14.3739 20.734 14.3737 20.734 14.3735 20.734C14.198 20.7363 14.0228 20.7476 13.8485 20.7677C13.8484 20.7677 13.8482 20.7677 13.8481 20.7677C13.8479 20.7678 13.8477 20.7678 13.8475 20.7678ZM13.8475 20.7678L13.8437 20.7347L13.8445 20.7347C13.8443 20.7347 13.8441 20.7347 13.8439 20.7347L13.8475 20.7678Z" fill="#679A40" stroke="white" stroke-width="0.1"/>
<path d="M12.14 22.2061C12.3996 22.1258 12.6483 22.014 12.8807 21.8733C13.3754 21.6953 13.9008 21.6181 14.4259 21.6464C14.9827 21.6207 15.5407 21.6609 16.0881 21.7661C16.27 21.8004 16.4467 21.858 16.6139 21.9373C16.8657 22.0869 17.0893 22.2794 17.2745 22.5062C17.4308 22.6295 17.6161 22.7107 17.8127 22.742C17.8172 22.7429 17.8214 22.745 17.8247 22.7481C17.8281 22.7511 17.8306 22.7551 17.832 22.7594C17.8333 22.7638 17.8334 22.7685 17.8324 22.7729C17.8313 22.7773 17.829 22.7814 17.8258 22.7847C17.7357 22.9102 17.6153 23.0108 17.4758 23.0771C17.1806 23.1539 16.8762 23.1891 16.5713 23.1816C15.9161 23.1656 15.1366 22.975 14.4807 22.9908C13.862 23.0057 13.2171 23.0847 12.6446 22.8492C12.3845 22.7346 12.1643 22.5454 12.0118 22.3056C12.0068 22.298 12.0037 22.2894 12.0029 22.2804C12.0021 22.2713 12.0035 22.2623 12.0071 22.254C12.0107 22.2457 12.0163 22.2384 12.0234 22.2328C12.0305 22.2272 12.0388 22.2234 12.0478 22.2219L12.14 22.2061Z" stroke="white" stroke-width="0.1" stroke-miterlimit="10"/>
<path d="M12.0817 22.2583L12.081 22.2602C12.1214 22.2757 12.1809 22.2979 12.2581 22.321C12.2581 22.321 12.2581 22.321 12.2581 22.321C12.2582 22.321 12.2582 22.321 12.2583 22.321L12.0817 22.2583ZM12.0817 22.2583C12.1225 22.2726 12.1827 22.2924 12.26 22.3138C12.2602 22.3139 12.2603 22.3139 12.2604 22.3139C12.2604 22.3139 12.2604 22.3139 12.2604 22.3139C12.3533 22.3394 12.4475 22.3597 12.5426 22.3748C12.6656 22.3941 12.7899 22.4054 12.9144 22.4086C12.9145 22.4086 12.9145 22.4086 12.9146 22.4086C12.9146 22.4086 12.9146 22.4086 12.9146 22.4086C13.0617 22.4124 13.2089 22.4074 13.3554 22.3936C13.3554 22.3936 13.3555 22.3936 13.3556 22.3936C13.3556 22.3936 13.3556 22.3936 13.3557 22.3936L12.0817 22.2583Z" fill="#679A40" stroke="white" stroke-width="0.1"/>
<path d="M12.14 23.9047C12.3996 23.8244 12.6483 23.7127 12.8807 23.5719C13.3754 23.3939 13.9008 23.3168 14.4259 23.3451C14.9827 23.3194 15.5407 23.3595 16.0881 23.4647C16.27 23.4991 16.4467 23.5566 16.6139 23.636C16.8657 23.7855 17.0893 23.9781 17.2745 24.2048C17.4308 24.3281 17.6161 24.4093 17.8127 24.4406C17.8172 24.4415 17.8214 24.4436 17.8247 24.4467C17.8281 24.4498 17.8306 24.4537 17.832 24.4581C17.8333 24.4625 17.8334 24.4671 17.8324 24.4716C17.8313 24.476 17.829 24.4801 17.8258 24.4833C17.7358 24.6089 17.6153 24.7095 17.4758 24.7758C17.1806 24.8526 16.8762 24.8877 16.5713 24.8803C15.9161 24.8642 15.1366 24.6737 14.4807 24.6895C13.862 24.7043 13.2171 24.7833 12.6446 24.5479C12.3845 24.4333 12.1643 24.2441 12.0118 24.0042C12.0068 23.9967 12.0037 23.988 12.0029 23.979C12.0021 23.97 12.0035 23.961 12.0071 23.9526C12.0107 23.9443 12.0163 23.937 12.0234 23.9314C12.0305 23.9258 12.0388 23.9221 12.0478 23.9205L12.14 23.9047Z" stroke="white" stroke-width="0.1" stroke-miterlimit="10"/>
<path d="M14.3789 24.0371C14.2034 24.0394 14.0282 24.0507 13.8538 24.0708C13.8537 24.0708 13.8536 24.0708 13.8535 24.0708C13.8533 24.0708 13.8531 24.0709 13.8529 24.0709C13.8218 24.0742 13.7909 24.0777 13.7602 24.081C13.6228 24.0962 13.4893 24.1109 13.361 24.1201L14.5448 24.0401C14.535 24.0393 14.5256 24.0385 14.515 24.0385C14.5148 24.0385 14.5146 24.0385 14.5144 24.0385C14.5143 24.0385 14.5142 24.0385 14.5141 24.0385C14.4991 24.0383 14.4841 24.038 14.4691 24.0377C14.4392 24.037 14.4094 24.0363 14.38 24.0371C14.3798 24.0371 14.3797 24.0371 14.3795 24.0371C14.3793 24.0371 14.3791 24.0371 14.3789 24.0371ZM14.3789 24.0371L14.3784 24.0013L13.8499 24.0377C14.0252 24.0166 14.2014 24.0045 14.3779 24.0013L14.3789 24.0371ZM12.0844 23.957C12.1252 23.9713 12.1854 23.9911 12.2627 24.0125L12.0844 23.957L12.0837 23.9589L12.0844 23.957Z" fill="#679A40" stroke="white" stroke-width="0.1"/>
<path d="M18.2999 20.5671C18.5595 20.4869 18.8082 20.3751 19.0406 20.2343C19.5353 20.0563 20.0607 19.9792 20.5858 20.0075C21.1426 19.9818 21.7006 20.022 22.248 20.1272C22.4299 20.1615 22.6066 20.219 22.7738 20.2984C23.0256 20.448 23.2492 20.6405 23.4344 20.8672C23.5907 20.9906 23.776 21.0718 23.9726 21.103C23.9771 21.104 23.9813 21.1061 23.9847 21.1091C23.988 21.1122 23.9905 21.1161 23.9919 21.1205C23.9932 21.1249 23.9934 21.1295 23.9923 21.134C23.9912 21.1384 23.9889 21.1425 23.9857 21.1458C23.8957 21.2713 23.7752 21.3719 23.6357 21.4382C23.3405 21.515 23.0361 21.5501 22.7312 21.5427C22.076 21.5266 21.2965 21.3361 20.6407 21.3519C20.0219 21.3668 19.377 21.4458 18.8045 21.2103C18.5444 21.0957 18.3242 20.9065 18.1717 20.6666C18.1667 20.6591 18.1636 20.6504 18.1628 20.6414C18.162 20.6324 18.1634 20.6234 18.167 20.6151C18.1706 20.6068 18.1762 20.5995 18.1833 20.5939C18.1904 20.5882 18.1988 20.5845 18.2077 20.583L18.2999 20.5671Z" stroke="white" stroke-width="0.1" stroke-miterlimit="10"/>
<path d="M19.5183 20.7547L19.5207 20.7826C19.5205 20.7826 19.5203 20.7826 19.5202 20.7826C19.3726 20.7944 19.2244 20.7973 19.0764 20.7913C19.0764 20.7913 19.0764 20.7913 19.0764 20.7913C19.0764 20.7913 19.0764 20.7913 19.0763 20.7913L20.0128 20.7333C19.9816 20.7367 19.9506 20.7401 19.9198 20.7435C19.7826 20.7586 19.6491 20.7734 19.5209 20.7826L19.5183 20.7547ZM19.5183 20.7547C19.6185 20.746 19.722 20.7338 19.8283 20.7211C19.8877 20.7141 19.9479 20.7069 20.009 20.7003L18.7051 20.7359C18.8282 20.7552 18.9524 20.7665 19.077 20.7697C19.0771 20.7697 19.0771 20.7697 19.0772 20.7697C19.0772 20.7697 19.0772 20.7697 19.0772 20.7697C19.2243 20.7735 19.3715 20.7685 19.518 20.7547C19.518 20.7547 19.5181 20.7547 19.5182 20.7547C19.5182 20.7547 19.5182 20.7547 19.5183 20.7547ZM18.2443 20.6194L18.2436 20.6213C18.284 20.6367 18.3435 20.659 18.4207 20.6821C18.4207 20.6821 18.4207 20.6821 18.4207 20.6821C18.4208 20.6821 18.4208 20.6821 18.4209 20.6821L18.2443 20.6194ZM18.2443 20.6194C18.2851 20.6337 18.3453 20.6535 18.4226 20.6749L18.2443 20.6194ZM20.8061 20.7178C20.8064 20.7178 20.8067 20.7179 20.807 20.7179C20.8938 20.733 20.9809 20.75 21.068 20.7669L21.0754 20.7684L21.0828 20.7308L21.0756 20.7684L21.0766 20.7686L20.8061 20.7178ZM20.8061 20.7178L20.8122 20.6814L20.8061 20.7178C20.784 20.714 20.7619 20.7103 20.7399 20.7071C20.7396 20.707 20.7393 20.707 20.7391 20.707C20.739 20.7069 20.7389 20.7069 20.7389 20.7069C20.7321 20.7059 20.7254 20.7051 20.7187 20.7042C20.7147 20.7037 20.7108 20.7032 20.7068 20.7027L20.8061 20.7178Z" fill="#679A40" stroke="white" stroke-width="0.1"/>
<path d="M18.2999 22.1716C18.5595 22.0913 18.8082 21.9795 19.0406 21.8388C19.5353 21.6608 20.0607 21.5837 20.5858 21.612C21.1427 21.5863 21.7006 21.6264 22.2481 21.7316C22.4299 21.7659 22.6066 21.8235 22.7738 21.9028C23.0256 22.0524 23.2492 22.2449 23.4345 22.4717C23.5907 22.595 23.776 22.6762 23.9727 22.7075C23.9771 22.7084 23.9813 22.7105 23.9847 22.7136C23.9881 22.7166 23.9905 22.7206 23.9919 22.7249C23.9932 22.7293 23.9934 22.734 23.9923 22.7384C23.9912 22.7429 23.9889 22.7469 23.9857 22.7502C23.8957 22.8757 23.7752 22.9763 23.6357 23.0426C23.3406 23.1194 23.0361 23.1546 22.7312 23.1471C22.0761 23.131 21.2965 22.9405 20.6407 22.9563C20.0219 22.9712 19.377 23.0502 18.8045 22.8147C18.5444 22.7001 18.3242 22.5109 18.1717 22.2711C18.1667 22.2635 18.1636 22.2549 18.1628 22.2459C18.162 22.2369 18.1635 22.2278 18.167 22.2195C18.1706 22.2112 18.1762 22.2039 18.1833 22.1983C18.1904 22.1927 18.1988 22.1889 18.2077 22.1874L18.2999 22.1716Z" stroke="white" stroke-width="0.1" stroke-miterlimit="10"/>
<mask id="path-18-inside-1_337_2744" fill="white">
<path d="M23.9767 22.7018L23.9113 22.7091C23.8686 22.7135 23.806 22.7199 23.726 22.725C23.5051 22.7397 23.2835 22.7396 23.0626 22.7248C22.9254 22.7152 22.7772 22.6978 22.6214 22.6728C22.4657 22.6476 22.3023 22.6161 22.1337 22.582C21.7964 22.5149 21.4367 22.4424 21.0766 22.373C20.9867 22.3555 20.8967 22.3379 20.807 22.3224C20.7846 22.3185 20.7622 22.3148 20.7399 22.3115C20.7287 22.3098 20.7177 22.3086 20.7066 22.3071C20.6958 22.3062 20.6857 22.3053 20.674 22.3053C20.6288 22.3049 20.5834 22.3028 20.5388 22.304C20.363 22.3063 20.1874 22.3176 20.0128 22.3378C19.8424 22.3563 19.6774 22.3758 19.5202 22.3871C19.3725 22.3988 19.2243 22.4017 19.0763 22.3958C18.8541 22.387 18.6339 22.3504 18.4209 22.2866C18.3436 22.2635 18.2841 22.2412 18.2436 22.2258C18.2032 22.2102 18.1819 22.201 18.1819 22.201C18.1819 22.201 18.2034 22.2095 18.2442 22.2238C18.285 22.2381 18.3452 22.2579 18.4226 22.2794C18.5156 22.3049 18.6099 22.3252 18.7051 22.3404C18.8282 22.3596 18.9524 22.3709 19.077 22.3742C19.2243 22.3779 19.3716 22.3729 19.5183 22.3591C19.6746 22.3457 19.839 22.3233 20.0098 22.3046C20.1854 22.2835 20.3619 22.2713 20.5388 22.2681C20.5842 22.2667 20.6291 22.2686 20.6745 22.2689C20.6856 22.2687 20.6981 22.2696 20.7099 22.2706C20.7213 22.2721 20.7329 22.2733 20.7443 22.275C20.767 22.2783 20.7897 22.2819 20.8122 22.2857C20.9025 22.3009 20.9927 22.318 21.0828 22.3353C21.4428 22.4064 21.8022 22.4806 22.1393 22.5493C22.3079 22.5835 22.4704 22.618 22.6253 22.6452C22.7802 22.6723 22.9275 22.6918 23.064 22.7033C23.2005 22.7143 23.3261 22.7199 23.4374 22.7215C23.5487 22.723 23.6458 22.7209 23.7257 22.7176C23.8056 22.7141 23.8684 22.7103 23.9112 22.7071L23.9767 22.7018Z"/>
</mask>
<path d="M23.9767 22.7018L23.9113 22.7091C23.8686 22.7135 23.806 22.7199 23.726 22.725C23.5051 22.7397 23.2835 22.7396 23.0626 22.7248C22.9254 22.7152 22.7772 22.6978 22.6214 22.6728C22.4657 22.6476 22.3023 22.6161 22.1337 22.582C21.7964 22.5149 21.4367 22.4424 21.0766 22.373C20.9867 22.3555 20.8967 22.3379 20.807 22.3224C20.7846 22.3185 20.7622 22.3148 20.7399 22.3115C20.7287 22.3098 20.7177 22.3086 20.7066 22.3071C20.6958 22.3062 20.6857 22.3053 20.674 22.3053C20.6288 22.3049 20.5834 22.3028 20.5388 22.304C20.363 22.3063 20.1874 22.3176 20.0128 22.3378C19.8424 22.3563 19.6774 22.3758 19.5202 22.3871C19.3725 22.3988 19.2243 22.4017 19.0763 22.3958C18.8541 22.387 18.6339 22.3504 18.4209 22.2866C18.3436 22.2635 18.2841 22.2412 18.2436 22.2258C18.2032 22.2102 18.1819 22.201 18.1819 22.201C18.1819 22.201 18.2034 22.2095 18.2442 22.2238C18.285 22.2381 18.3452 22.2579 18.4226 22.2794C18.5156 22.3049 18.6099 22.3252 18.7051 22.3404C18.8282 22.3596 18.9524 22.3709 19.077 22.3742C19.2243 22.3779 19.3716 22.3729 19.5183 22.3591C19.6746 22.3457 19.839 22.3233 20.0098 22.3046C20.1854 22.2835 20.3619 22.2713 20.5388 22.2681C20.5842 22.2667 20.6291 22.2686 20.6745 22.2689C20.6856 22.2687 20.6981 22.2696 20.7099 22.2706C20.7213 22.2721 20.7329 22.2733 20.7443 22.275C20.767 22.2783 20.7897 22.2819 20.8122 22.2857C20.9025 22.3009 20.9927 22.318 21.0828 22.3353C21.4428 22.4064 21.8022 22.4806 22.1393 22.5493C22.3079 22.5835 22.4704 22.618 22.6253 22.6452C22.7802 22.6723 22.9275 22.6918 23.064 22.7033C23.2005 22.7143 23.3261 22.7199 23.4374 22.7215C23.5487 22.723 23.6458 22.7209 23.7257 22.7176C23.8056 22.7141 23.8684 22.7103 23.9112 22.7071L23.9767 22.7018Z" fill="#679A40"/>
<path d="M23.9767 22.7018L23.9878 22.8012L23.9687 22.6021L23.9767 22.7018ZM23.9113 22.7091L23.9216 22.8086L23.9224 22.8085L23.9113 22.7091ZM23.726 22.725L23.7196 22.6252L23.7194 22.6252L23.726 22.725ZM23.0626 22.7248L23.0556 22.8245L23.0559 22.8245L23.0626 22.7248ZM22.6214 22.6728L22.6055 22.7715L22.6056 22.7715L22.6214 22.6728ZM22.1337 22.582L22.1535 22.484L22.1532 22.4839L22.1337 22.582ZM21.0766 22.373L21.0575 22.4712L21.0577 22.4712L21.0766 22.373ZM20.807 22.3224L20.8241 22.2238L20.824 22.2238L20.807 22.3224ZM20.7399 22.3115L20.7247 22.4103L20.7253 22.4104L20.7399 22.3115ZM20.7066 22.3071L20.7199 22.2079L20.715 22.2075L20.7066 22.3071ZM20.674 22.3053L20.673 22.4053L20.6745 22.4053L20.674 22.3053ZM20.5388 22.304L20.5401 22.404L20.5414 22.4039L20.5388 22.304ZM20.0128 22.3378L20.0236 22.4372L20.0243 22.4371L20.0128 22.3378ZM19.5202 22.3871L19.513 22.2873L19.5123 22.2874L19.5202 22.3871ZM19.0763 22.3958L19.0803 22.2958L19.0802 22.2958L19.0763 22.3958ZM18.4209 22.2866L18.4496 22.1908L18.4495 22.1908L18.4209 22.2866ZM18.2436 22.2258L18.2076 22.319L18.2079 22.3192L18.2436 22.2258ZM18.1819 22.201L18.2183 22.1079L18.1426 22.293L18.1819 22.201ZM18.4226 22.2794L18.396 22.3757L18.3962 22.3758L18.4226 22.2794ZM18.7051 22.3404L18.6895 22.4391L18.6897 22.4392L18.7051 22.3404ZM19.077 22.3742L19.0744 22.4741L19.0744 22.4741L19.077 22.3742ZM19.5183 22.3591L19.5097 22.2595L19.5089 22.2596L19.5183 22.3591ZM20.0098 22.3046L20.0207 22.404L20.0217 22.4039L20.0098 22.3046ZM20.5388 22.2681L20.5406 22.3681L20.5418 22.3681L20.5388 22.2681ZM20.6745 22.2689L20.674 22.3689L20.6756 22.3688L20.6745 22.2689ZM20.7099 22.2706L20.7226 22.1714L20.7183 22.171L20.7099 22.2706ZM20.7443 22.275L20.7295 22.3739L20.7301 22.374L20.7443 22.275ZM20.8122 22.2857L20.8289 22.1871L20.8288 22.1871L20.8122 22.2857ZM21.0828 22.3353L21.1022 22.2371L21.1016 22.237L21.0828 22.3353ZM22.1393 22.5493L22.1193 22.6473L22.1194 22.6473L22.1393 22.5493ZM22.6253 22.6452L22.608 22.7437L22.6081 22.7437L22.6253 22.6452ZM23.064 22.7033L23.0556 22.8029L23.0559 22.8029L23.064 22.7033ZM23.4374 22.7215L23.436 22.8215L23.436 22.8215L23.4374 22.7215ZM23.7257 22.7176L23.7298 22.8175L23.7301 22.8175L23.7257 22.7176ZM23.9112 22.7071L23.9187 22.8068L23.9192 22.8068L23.9112 22.7071ZM23.9656 22.6024L23.9002 22.6097L23.9224 22.8085L23.9878 22.8012L23.9656 22.6024ZM23.901 22.6097C23.8588 22.614 23.7976 22.6202 23.7196 22.6252L23.7325 22.8248C23.8143 22.8195 23.8785 22.8131 23.9216 22.8086L23.901 22.6097ZM23.7194 22.6252C23.5029 22.6396 23.2858 22.6395 23.0693 22.625L23.0559 22.8245C23.2812 22.8397 23.5073 22.8398 23.7327 22.8248L23.7194 22.6252ZM23.0696 22.625C22.9357 22.6157 22.7905 22.5986 22.6373 22.5741L22.6056 22.7715C22.7639 22.7969 22.9151 22.8147 23.0556 22.8245L23.0696 22.625ZM22.6374 22.5741C22.4836 22.5492 22.3217 22.518 22.1535 22.484L22.1139 22.68C22.2829 22.7142 22.4478 22.746 22.6055 22.7715L22.6374 22.5741ZM22.1532 22.4839C21.8162 22.4169 21.456 22.3443 21.0955 22.2748L21.0577 22.4712C21.4173 22.5405 21.7765 22.6129 22.1142 22.6801L22.1532 22.4839ZM21.0957 22.2749C21.006 22.2574 20.9149 22.2396 20.8241 22.2238L20.7899 22.4209C20.8784 22.4362 20.9673 22.4536 21.0575 22.4712L21.0957 22.2749ZM20.824 22.2238C20.8011 22.2199 20.7779 22.216 20.7545 22.2126L20.7253 22.4104C20.7465 22.4136 20.768 22.4171 20.7899 22.4209L20.824 22.2238ZM20.7551 22.2127C20.7431 22.2108 20.7271 22.209 20.7199 22.208L20.6933 22.4062C20.7083 22.4082 20.7143 22.4088 20.7247 22.4103L20.7551 22.2127ZM20.715 22.2075C20.7051 22.2066 20.6905 22.2053 20.6736 22.2053L20.6745 22.4053C20.6809 22.4053 20.6864 22.4058 20.6983 22.4068L20.715 22.2075ZM20.6751 22.2053C20.6349 22.2049 20.5829 22.2028 20.5362 22.204L20.5414 22.4039C20.5838 22.4028 20.6227 22.4048 20.673 22.4053L20.6751 22.2053ZM20.5374 22.204C20.3583 22.2064 20.1793 22.2179 20.0013 22.2384L20.0243 22.4371C20.1956 22.4173 20.3677 22.4062 20.5401 22.4039L20.5374 22.204ZM20.002 22.2384C19.8302 22.257 19.6679 22.2762 19.513 22.2873L19.5273 22.4868C19.6869 22.4754 19.8547 22.4555 20.0236 22.4372L20.002 22.2384ZM19.5123 22.2874C19.3686 22.2988 19.2243 22.3016 19.0803 22.2958L19.0723 22.4957C19.2243 22.5018 19.3765 22.4988 19.5281 22.4868L19.5123 22.2874ZM19.0802 22.2958C18.8664 22.2874 18.6545 22.2521 18.4496 22.1908L18.3922 22.3824C18.6133 22.4486 18.8418 22.4866 19.0724 22.4957L19.0802 22.2958ZM18.4495 22.1908C18.3757 22.1687 18.3188 22.1475 18.2793 22.1323L18.2079 22.3192C18.2493 22.335 18.3115 22.3583 18.3923 22.3824L18.4495 22.1908ZM18.2796 22.1325C18.26 22.1249 18.2451 22.1189 18.2353 22.1149C18.2304 22.1129 18.2267 22.1114 18.2244 22.1104C18.2232 22.1099 18.2223 22.1096 18.2218 22.1094C18.2215 22.1092 18.2213 22.1092 18.2212 22.1091C18.2212 22.1091 18.2212 22.1091 18.2212 22.1091C18.2212 22.1091 18.2212 22.1091 18.2212 22.1091C18.2212 22.1091 18.2212 22.1091 18.2212 22.1091C18.2212 22.1091 18.2212 22.1091 18.2212 22.1091C18.2212 22.1091 18.2212 22.1091 18.2212 22.1091C18.2212 22.1091 18.2212 22.1091 18.1819 22.201C18.1426 22.293 18.1426 22.293 18.1426 22.293C18.1426 22.293 18.1426 22.293 18.1426 22.293C18.1426 22.293 18.1426 22.293 18.1426 22.293C18.1426 22.293 18.1426 22.293 18.1426 22.293C18.1427 22.293 18.1427 22.2931 18.1427 22.2931C18.1428 22.2931 18.1429 22.2931 18.143 22.2932C18.1432 22.2933 18.1436 22.2934 18.144 22.2936C18.1447 22.2939 18.1459 22.2944 18.1473 22.295C18.1502 22.2962 18.1544 22.2979 18.1599 22.3002C18.1708 22.3046 18.1868 22.311 18.2076 22.319L18.2796 22.1325ZM18.1819 22.201C18.1455 22.2942 18.1455 22.2942 18.1455 22.2942C18.1455 22.2942 18.1455 22.2942 18.1455 22.2942C18.1455 22.2942 18.1455 22.2942 18.1455 22.2942C18.1455 22.2942 18.1455 22.2942 18.1455 22.2942C18.1456 22.2942 18.1456 22.2942 18.1456 22.2942C18.1457 22.2943 18.1458 22.2943 18.1459 22.2944C18.1461 22.2944 18.1465 22.2946 18.1469 22.2947C18.1477 22.295 18.1488 22.2955 18.1503 22.296C18.1532 22.2971 18.1574 22.2987 18.1629 22.3008C18.174 22.3049 18.1901 22.3108 18.2111 22.3181L18.2773 22.1294C18.2575 22.1225 18.2425 22.117 18.2326 22.1133C18.2276 22.1115 18.2239 22.1101 18.2215 22.1092C18.2203 22.1087 18.2195 22.1084 18.2189 22.1082C18.2186 22.1081 18.2185 22.108 18.2184 22.1079C18.2183 22.1079 18.2183 22.1079 18.2183 22.1079C18.2183 22.1079 18.2183 22.1079 18.2183 22.1079C18.2183 22.1079 18.2183 22.1079 18.2183 22.1079C18.2183 22.1079 18.2183 22.1079 18.2183 22.1079C18.2183 22.1079 18.2183 22.1079 18.2183 22.1079C18.2183 22.1079 18.2183 22.1079 18.1819 22.201ZM18.2111 22.3181C18.2537 22.3331 18.3161 22.3536 18.396 22.3757L18.4493 22.183C18.3743 22.1622 18.3163 22.1431 18.2773 22.1294L18.2111 22.3181ZM18.3962 22.3758C18.4927 22.4023 18.5906 22.4234 18.6895 22.4391L18.7208 22.2416C18.6292 22.2271 18.5385 22.2075 18.4491 22.1829L18.3962 22.3758ZM18.6897 22.4392C18.817 22.4591 18.9455 22.4708 19.0744 22.4741L19.0796 22.2742C18.9594 22.271 18.8394 22.2602 18.7206 22.2416L18.6897 22.4392ZM19.0744 22.4741C19.2257 22.478 19.377 22.4729 19.5276 22.4587L19.5089 22.2596C19.3662 22.273 19.2228 22.2779 19.0796 22.2742L19.0744 22.4741ZM19.5269 22.4588C19.6844 22.4452 19.8538 22.4223 20.0207 22.404L19.9989 22.2052C19.8242 22.2243 19.6649 22.2461 19.5097 22.2595L19.5269 22.4588ZM20.0217 22.4039C20.194 22.3832 20.3671 22.3712 20.5406 22.3681L20.537 22.1681C20.3568 22.1714 20.1768 22.1838 19.9978 22.2053L20.0217 22.4039ZM20.5418 22.3681C20.5851 22.3668 20.6236 22.3686 20.674 22.3689L20.6751 22.1689C20.6346 22.1686 20.5833 22.1667 20.5358 22.1682L20.5418 22.3681ZM20.6756 22.3688C20.6814 22.3688 20.6898 22.3693 20.7015 22.3703L20.7183 22.171C20.7064 22.17 20.6897 22.1687 20.6734 22.1689L20.6756 22.3688ZM20.6972 22.3698C20.7118 22.3717 20.7193 22.3724 20.7295 22.3739L20.759 22.1761C20.7466 22.1743 20.7308 22.1725 20.7226 22.1714L20.6972 22.3698ZM20.7301 22.374C20.7518 22.3771 20.7736 22.3806 20.7957 22.3843L20.8288 22.1871C20.8057 22.1832 20.7822 22.1794 20.7584 22.176L20.7301 22.374ZM20.7956 22.3843C20.8847 22.3993 20.9739 22.4162 21.0639 22.4335L21.1016 22.237C21.0114 22.2197 20.9204 22.2025 20.8289 22.1871L20.7956 22.3843ZM21.0634 22.4334C21.4231 22.5044 21.7819 22.5785 22.1193 22.6473L22.1593 22.4513C21.8225 22.3827 21.4626 22.3084 21.1022 22.2371L21.0634 22.4334ZM22.1194 22.6473C22.2867 22.6812 22.4514 22.7162 22.608 22.7437L22.6426 22.5467C22.4894 22.5198 22.3291 22.4857 22.1592 22.4513L22.1194 22.6473ZM22.6081 22.7437C22.7656 22.7713 22.9158 22.7911 23.0556 22.8029L23.0724 22.6036C22.9392 22.5924 22.7949 22.5734 22.6426 22.5467L22.6081 22.7437ZM23.0559 22.8029C23.1946 22.8142 23.3225 22.8199 23.436 22.8215L23.4388 22.6215C23.3298 22.62 23.2064 22.6145 23.0721 22.6036L23.0559 22.8029ZM23.436 22.8215C23.5494 22.8231 23.6484 22.8208 23.7298 22.8175L23.7216 22.6177C23.6432 22.6209 23.548 22.623 23.4387 22.6215L23.436 22.8215ZM23.7301 22.8175C23.8107 22.8139 23.8746 22.8101 23.9187 22.8068L23.9036 22.6074C23.8622 22.6105 23.8005 22.6142 23.7213 22.6177L23.7301 22.8175ZM23.9192 22.8068L23.9847 22.8015L23.9687 22.6021L23.9032 22.6074L23.9192 22.8068Z" fill="white" mask="url(#path-18-inside-1_337_2744)"/>
<path d="M18.3029 23.8703C18.5624 23.79 18.8111 23.6783 19.0435 23.5375C19.5383 23.3595 20.0637 23.2824 20.5887 23.3107C21.1456 23.285 21.7035 23.3251 22.251 23.4303C22.4328 23.4646 22.6096 23.5222 22.7768 23.6016C23.0285 23.7511 23.2521 23.9436 23.4374 24.1704C23.5937 24.2937 23.779 24.3749 23.9756 24.4062C23.9801 24.4071 23.9842 24.4092 23.9876 24.4123C23.991 24.4154 23.9935 24.4193 23.9948 24.4237C23.9962 24.4281 23.9963 24.4327 23.9952 24.4372C23.9941 24.4416 23.9919 24.4457 23.9887 24.4489C23.8986 24.5745 23.7782 24.6751 23.6386 24.7414C23.3435 24.8182 23.0391 24.8533 22.7342 24.8459C22.079 24.8298 21.2994 24.6393 20.6436 24.6551C20.0248 24.6699 19.38 24.7489 18.8075 24.5135C18.5474 24.3989 18.3271 24.2097 18.1746 23.9698C18.1696 23.9623 18.1666 23.9536 18.1658 23.9446C18.1649 23.9356 18.1664 23.9266 18.17 23.9182C18.1735 23.9099 18.1791 23.9026 18.1862 23.897C18.1933 23.8914 18.2017 23.8877 18.2106 23.8861L18.3029 23.8703Z" stroke="white" stroke-width="0.1" stroke-miterlimit="10"/>
<path d="M20.0157 24.0363C19.9847 24.0397 19.9538 24.0431 19.9231 24.0465C19.7857 24.0616 19.6522 24.0763 19.5238 24.0856L20.677 24.0039C20.662 24.0037 20.6469 24.0034 20.6319 24.0031C20.6021 24.0024 20.5723 24.0017 20.5428 24.0025C20.5427 24.0025 20.5425 24.0025 20.5424 24.0025C20.5422 24.0025 20.5419 24.0025 20.5417 24.0025C20.3662 24.0048 20.191 24.0161 20.0167 24.0362C20.0166 24.0362 20.0165 24.0362 20.0163 24.0362C20.0161 24.0362 20.0159 24.0363 20.0157 24.0363ZM20.0157 24.0363L20.0119 24.0032L20.0127 24.0031C20.0125 24.0031 20.0123 24.0032 20.0122 24.0032L20.0157 24.0363Z" fill="#679A40" stroke="white" stroke-width="0.1"/>
<path d="M17.9985 15.5154C18.8332 15.5154 19.5122 14.8363 19.5122 14.0014C19.5122 13.1666 18.8332 12.4874 17.9985 12.4874C17.1639 12.4874 16.4849 13.1666 16.4849 14.0014C16.4849 14.8363 17.1639 15.5154 17.9985 15.5154ZM17.9985 12.5875C18.778 12.5875 19.4121 13.2218 19.4121 14.0014C19.4121 14.7811 18.778 15.4153 17.9985 15.4153C17.2191 15.4153 16.5849 14.7811 16.5849 14.0014C16.5849 13.2218 17.2191 12.5875 17.9985 12.5875Z" fill="white" stroke="white" stroke-width="0.08"/>
<path d="M17.447 13.2313H17.6741H17.8804C18.0732 13.2313 18.2329 13.3742 18.2602 13.5595H17.6741C17.6465 13.5595 17.6241 13.5819 17.6241 13.6096C17.6241 13.6372 17.6465 13.6596 17.6741 13.6596H18.262C18.2401 13.8509 18.0775 14 17.8804 14H17.447C17.4265 14 17.4081 14.0125 17.4005 14.0315C17.3929 14.0505 17.3977 14.0723 17.4126 14.0864L18.3314 14.9563C18.3411 14.9655 18.3534 14.97 18.3658 14.97C18.3791 14.97 18.3923 14.9647 18.4021 14.9544C18.4211 14.9343 18.4203 14.9026 18.4002 14.8836L17.5727 14.1001H17.8804C18.1327 14.1001 18.3403 13.9062 18.3626 13.6596H18.5738C18.6014 13.6596 18.6239 13.6372 18.6239 13.6096C18.6239 13.5819 18.6014 13.5595 18.5738 13.5595H18.3613C18.3458 13.426 18.2757 13.3092 18.1741 13.2313H18.5738C18.6014 13.2313 18.6239 13.2089 18.6239 13.1813C18.6239 13.1536 18.6014 13.1312 18.5738 13.1312H17.8804H17.6741H17.447C17.4194 13.1312 17.397 13.1536 17.397 13.1813C17.397 13.2089 17.4194 13.2313 17.447 13.2313Z" fill="white" stroke="white" stroke-width="0.08"/>
<path d="M18.053 16.0017C18.1528 15.9991 18.2529 15.9891 18.3505 15.9719C18.3777 15.9671 18.3959 15.9412 18.3911 15.9139C18.3863 15.8867 18.3604 15.8685 18.3331 15.8733C18.2404 15.8897 18.1453 15.8992 18.0504 15.9016C18.0228 15.9023 18.001 15.9253 18.0017 15.9529C18.0024 15.9801 18.0247 16.0017 18.0517 16.0017C18.0522 16.0017 18.0526 16.0017 18.053 16.0017Z" fill="white" stroke="white" stroke-width="0.08"/>
<path d="M17.6534 15.9722C17.6563 15.9727 17.6592 15.973 17.6621 15.973C17.686 15.973 17.7071 15.9558 17.7113 15.9315C17.716 15.9043 17.6978 15.8784 17.6706 15.8736C17.5773 15.8574 17.4847 15.834 17.3953 15.8041C17.369 15.7954 17.3407 15.8095 17.3319 15.8357C17.3232 15.8619 17.3373 15.8902 17.3635 15.899C17.4577 15.9305 17.5553 15.9551 17.6534 15.9722Z" fill="white" stroke="white" stroke-width="0.08"/>
<path d="M18.719 15.8674C18.7251 15.8674 18.7313 15.8663 18.7373 15.8639C18.8297 15.8276 18.9202 15.7838 19.0064 15.7339C19.0303 15.72 19.0384 15.6894 19.0246 15.6655C19.0107 15.6416 18.9801 15.6335 18.9562 15.6473C18.8744 15.6947 18.7884 15.7363 18.7007 15.7708C18.675 15.7809 18.6623 15.8099 18.6724 15.8357C18.6802 15.8554 18.699 15.8674 18.719 15.8674Z" fill="white" stroke="white" stroke-width="0.08"/>
<path d="M17.0261 15.7425C17.0434 15.7425 17.0603 15.7335 17.0695 15.7175C17.0833 15.6935 17.0751 15.6629 17.0512 15.6491C16.9693 15.6019 16.8903 15.5481 16.8163 15.4892C16.7948 15.4721 16.7632 15.4755 16.746 15.4972C16.7288 15.5188 16.7324 15.5503 16.754 15.5675C16.8318 15.6295 16.915 15.6861 17.0012 15.7358C17.0091 15.7404 17.0177 15.7425 17.0261 15.7425Z" fill="white" stroke="white" stroke-width="0.08"/>
<path d="M19.8571 14.6212C19.8312 14.6118 19.8025 14.6251 19.793 14.6511C19.7607 14.7398 19.7214 14.827 19.676 14.9101C19.6628 14.9343 19.6717 14.9647 19.696 14.9779C19.7036 14.9821 19.7118 14.9841 19.7199 14.9841C19.7376 14.9841 19.7548 14.9746 19.7639 14.958C19.8116 14.8705 19.8531 14.7787 19.887 14.6853C19.8965 14.6593 19.8831 14.6306 19.8571 14.6212Z" fill="white" stroke="white" stroke-width="0.08"/>
<path d="M19.3205 15.501C19.395 15.4351 19.4652 15.3631 19.5292 15.2869C19.5469 15.2657 19.5442 15.2341 19.523 15.2164C19.5019 15.1986 19.4703 15.2014 19.4525 15.2225C19.3917 15.2949 19.325 15.3634 19.2542 15.426C19.2335 15.4443 19.2315 15.4759 19.2499 15.4966C19.2597 15.5078 19.2735 15.5135 19.2874 15.5135C19.2991 15.5135 19.311 15.5094 19.3205 15.501Z" fill="white" stroke="white" stroke-width="0.08"/>
<path d="M16.05 14.053C16.0777 14.053 16.1001 14.0285 16.1001 14.0009C16.1001 13.9074 16.1069 13.8134 16.1204 13.7216C16.1245 13.6942 16.1056 13.6688 16.0782 13.6648C16.051 13.6608 16.0254 13.6796 16.0214 13.707C16.0072 13.8037 16 13.9025 16 14.0009V14.0051C16 14.0327 16.0224 14.053 16.05 14.053Z" fill="white" stroke="white" stroke-width="0.08"/>
<path d="M16.1424 13.3846C16.148 13.3866 16.1538 13.3876 16.1594 13.3876C16.1799 13.3876 16.1991 13.3749 16.2065 13.3545C16.2386 13.2657 16.2777 13.1785 16.3229 13.0953C16.3361 13.071 16.3271 13.0407 16.3028 13.0275C16.2785 13.0143 16.2481 13.0233 16.2349 13.0476C16.1874 13.1352 16.1462 13.227 16.1124 13.3205C16.103 13.3465 16.1164 13.3752 16.1424 13.3846Z" fill="white" stroke="white" stroke-width="0.08"/>
<path d="M18.3417 12.0281C18.3143 12.0232 18.2886 12.0417 18.2839 12.069C18.2792 12.0962 18.2975 12.1221 18.3248 12.1268C18.418 12.1428 18.5107 12.166 18.6002 12.1957C18.6055 12.1974 18.6108 12.1983 18.616 12.1983C18.637 12.1983 18.6565 12.185 18.6635 12.164C18.6722 12.1377 18.658 12.1094 18.6318 12.1007C18.5375 12.0694 18.4399 12.045 18.3417 12.0281Z" fill="white" stroke="white" stroke-width="0.08"/>
<path d="M17.6467 12.0304C17.6195 12.0353 17.6014 12.0612 17.6063 12.0885C17.6106 12.1127 17.6317 12.1297 17.6555 12.1297C17.6584 12.1297 17.6613 12.1295 17.6643 12.1289C17.757 12.1124 17.852 12.1027 17.9469 12.1C17.9745 12.0993 17.9963 12.0763 17.9955 12.0486C17.9947 12.021 17.9731 11.9995 17.9441 12C17.8443 12.0028 17.7443 12.013 17.6467 12.0304Z" fill="white" stroke="white" stroke-width="0.08"/>
<path d="M17.2631 12.1391C17.1707 12.1757 17.0803 12.2196 16.9943 12.2697C16.9705 12.2836 16.9624 12.3142 16.9763 12.3381C16.9856 12.3541 17.0024 12.363 17.0196 12.363C17.0281 12.363 17.0368 12.3608 17.0447 12.3562C17.1264 12.3087 17.2123 12.2669 17.3 12.2322C17.3257 12.222 17.3383 12.1929 17.3281 12.1672C17.3179 12.1415 17.2888 12.1289 17.2631 12.1391Z" fill="white" stroke="white" stroke-width="0.08"/>
<path d="M18.9258 12.2819C18.9121 12.3059 18.9204 12.3364 18.9443 12.3502C19.0263 12.3972 19.1055 12.4509 19.1795 12.5096C19.1887 12.5169 19.1997 12.5204 19.2106 12.5204C19.2253 12.5204 19.2399 12.5139 19.2498 12.5015C19.267 12.4798 19.2634 12.4483 19.2417 12.4312C19.1637 12.3694 19.0804 12.3129 18.9941 12.2634C18.9702 12.2496 18.9395 12.2579 18.9258 12.2819Z" fill="white" stroke="white" stroke-width="0.08"/>
<path d="M19.9142 13.6549C19.9413 13.6493 19.9588 13.6229 19.9532 13.5958C19.9332 13.4984 19.9056 13.4017 19.8712 13.3083C19.8616 13.2823 19.8328 13.2691 19.8069 13.2786C19.781 13.2882 19.7677 13.3169 19.7773 13.3429C19.81 13.4316 19.8362 13.5234 19.8552 13.6159C19.86 13.6396 19.8809 13.6559 19.9041 13.6559C19.9074 13.6559 19.9108 13.6556 19.9142 13.6549Z" fill="white" stroke="white" stroke-width="0.08"/>
<path d="M16.4653 12.7178C16.4475 12.739 16.4504 12.7706 16.4716 12.7883C16.4809 12.7961 16.4923 12.7999 16.5036 12.7999C16.5179 12.7999 16.5321 12.7938 16.542 12.782C16.6028 12.7094 16.6693 12.6408 16.7399 12.5781C16.7606 12.5598 16.7625 12.5282 16.7441 12.5075C16.7258 12.4869 16.6942 12.4849 16.6735 12.5033C16.5992 12.5692 16.5291 12.6414 16.4653 12.7178Z" fill="white" stroke="white" stroke-width="0.08"/>
<path d="M19.4581 12.7026C19.4371 12.7204 19.4344 12.752 19.4523 12.7731C19.5133 12.8453 19.5695 12.9226 19.6191 13.003C19.6286 13.0183 19.645 13.0267 19.6617 13.0267C19.6707 13.0267 19.6798 13.0243 19.688 13.0192C19.7115 13.0047 19.7188 12.9739 19.7043 12.9503C19.652 12.8658 19.5929 12.7844 19.5287 12.7085C19.5108 12.6874 19.4793 12.6847 19.4581 12.7026Z" fill="white" stroke="white" stroke-width="0.08"/>
<path d="M16.3053 14.9788C16.2818 14.9933 16.2744 15.0241 16.2889 15.0476C16.341 15.1323 16.3999 15.2138 16.464 15.2899C16.4739 15.3017 16.488 15.3077 16.5023 15.3077C16.5137 15.3077 16.5251 15.3038 16.5345 15.2959C16.5556 15.2781 16.5583 15.2465 16.5405 15.2254C16.4796 15.1531 16.4236 15.0757 16.3742 14.9952C16.3597 14.9717 16.3288 14.9643 16.3053 14.9788Z" fill="white" stroke="white" stroke-width="0.08"/>
<path d="M20 13.9922C20 13.9645 19.9776 13.9421 19.95 13.9421C19.9223 13.9421 19.8999 13.9645 19.8999 13.9922L19.8999 14.0006C19.8999 14.0955 19.8929 14.1908 19.879 14.2839C19.8749 14.3112 19.8938 14.3367 19.9211 14.3408C19.9236 14.3411 19.9261 14.3413 19.9285 14.3413C19.9529 14.3413 19.9743 14.3235 19.978 14.2987C19.9926 14.2007 20 14.1004 20 14.0001L20 13.9922Z" fill="white" stroke="white" stroke-width="0.08"/>
<path d="M16.0818 14.3423C16.0548 14.3478 16.0373 14.3742 16.0428 14.4013C16.0626 14.4989 16.09 14.5957 16.1242 14.689C16.1316 14.7093 16.1508 14.7219 16.1712 14.7219C16.1769 14.7219 16.1827 14.7209 16.1884 14.7188C16.2143 14.7093 16.2276 14.6806 16.2181 14.6546C16.1857 14.5659 16.1597 14.474 16.1408 14.3813C16.1353 14.3543 16.109 14.3367 16.0818 14.3423Z" fill="white" stroke="white" stroke-width="0.08"/>
<path d="M8.75 15H7.1C7.04477 15 7 15.0448 7 15.1V15.9C7 15.9552 7.04477 16 7.1 16H8.75M8.75 15H10.4C10.4552 15 10.5 15.0448 10.5 15.1V15.9C10.5 15.9552 10.4552 16 10.4 16H8.75M8.75 15V16" stroke="white" stroke-width="0.2"/>
<path d="M27.75 15H26.1C26.0448 15 26 15.0448 26 15.1V15.9C26 15.9552 26.0448 16 26.1 16H27.75M27.75 15H29.4C29.4552 15 29.5 15.0448 29.5 15.1V15.9C29.5 15.9552 29.4552 16 29.4 16H27.75M27.75 15V16" stroke="white" stroke-width="0.2"/>
</svg>
