<svg width="140" height="140" viewBox="0 0 140 140" fill="none" xmlns="http://www.w3.org/2000/svg">
<rect width="140" height="140" rx="12" fill="#D0F19E"/>
<circle opacity="0.6" cx="67" cy="67" r="40" fill="white"/>
<path d="M85 98L84 95.5L83 96L82 96.5L83 98L84 98.5L85 98Z" fill="#ECF9D8"/>
<path d="M101.93 70.9649C98.8889 77.1637 91.9883 81.6082 85.4386 82.7778C85.6725 96.5789 85.6725 100.088 87.5439 114.942C80.7602 112.485 80.5263 116.813 75.0292 114.123C78.3041 110.263 75.848 102.895 77.8363 96.1111C79.2398 91.5497 81.5789 79.0351 72.924 75.4094L71.4035 75.5263C71.7544 76.2281 71.9883 77.2807 71.9883 78.4503C72.5731 78.5673 72.1053 78.6842 74.4444 77.5146L73.6257 79.0351C73.7427 79.0351 73.8596 79.0351 73.8596 79.152L75.4971 78.2164L74.7953 79.7368L74.9123 79.8538L76.9006 79.5029L75.731 80.7895C75.731 80.9064 75.848 81.0234 75.848 81.0234L77.8363 81.3743L76.4328 82.076L76.5497 82.3099L78.4211 82.6608L76.9006 83.3626V83.5965L78.538 84.4152L77.1345 84.6491C77.1345 84.7661 77.1345 84.883 77.1345 85L78.7719 85.9357L77.0175 86.1696V86.4035L78.3041 87.807L76.7836 87.5731C76.7836 87.6901 76.7836 87.807 76.6667 87.924L77.6023 89.3275L76.3158 88.8596L76.1988 89.0936L76.9006 90.614L75.731 89.9123L75.614 90.0292L75.848 91.6667L74.9123 90.731L74.5614 92.8363L73.8596 91.5497L73.7427 91.6667L73.5088 93.4211L72.6901 92.0175C72.5731 92.0175 72.4561 92.1345 72.3392 92.1345L72.2222 93.655L71.2865 92.2515C71.1696 92.2515 71.0526 92.2515 70.9357 92.2515L70.117 93.655L70 92.0175C69.7661 91.9006 69.6491 91.9006 69.4152 91.7836L68.8304 92.7193L68.7135 91.4327C68.4795 91.1988 68.1287 90.9649 67.8947 90.731L67.076 91.6667L67.3099 90.0292L67.193 89.9123L65.9064 90.614L66.6082 89.0936C66.6082 88.9766 66.6082 88.9766 66.4912 88.8596L65.2047 89.3275L66.1404 87.924C66.1404 87.807 66.0234 87.6901 66.0234 87.5731L64.5029 87.807L65.7895 86.4035V86.1696L64.0351 85.9357L65.6725 85.117C65.6725 84.883 65.6725 84.7661 65.7895 84.6491L64.269 84.4152L65.9064 83.5965V83.3626L64.5029 82.6608L66.2573 82.3099L66.3743 82.076L64.9708 81.3743L66.9591 81.0234C66.9591 81.0234 67.076 80.9064 67.193 80.7895L65.9064 79.5029L67.8947 79.8538L68.1287 79.7368L67.3099 78.2164L68.9474 79.152C69.0643 79.0351 69.0643 79.0351 69.1813 79.0351L68.4795 77.5146C70.8187 78.8012 70.117 78.5673 70.9357 78.4503C70.9357 77.2807 70.4678 76.345 70 75.6433C64.9708 75.9942 59.7076 76.1111 54.9123 74.9415C54.3275 75.7602 53.6257 76.9298 53.5088 78.4503C54.4444 78.5673 53.7427 78.8012 56.3158 77.3977L55.4971 79.0351C55.614 79.0351 55.614 79.152 55.731 79.152L57.4854 78.2164L56.6667 79.8538L56.9006 79.9708L59.0058 79.6199L57.7193 81.0234C57.8363 81.1404 57.8363 81.1404 57.9532 81.2573L60.0585 81.6082L58.538 82.4269L58.655 82.6608L60.6433 83.0117L59.0058 83.8304L59.1228 84.0643L60.8772 85L59.2398 85.2339C59.2398 85.3509 59.2398 85.4678 59.3567 85.7018L61.1111 86.6374L59.2398 86.8713V87.2222L60.6433 88.6257L59.0058 88.3918C58.8889 88.5088 58.8889 88.7427 58.8889 88.8596L59.8246 90.3801L58.4211 89.7953C58.4211 89.9123 58.3041 90.0292 58.3041 90.1462L59.0058 91.7836L57.7193 90.9649L57.6023 91.1988L57.8363 92.9532L56.9006 91.9006C56.6667 92.1345 56.3158 92.3684 55.9649 92.6023L55.848 94.1228L55.2632 93.0702C55.1462 93.0702 54.7953 93.1871 54.6784 93.3041C54.6784 92.9532 54.7953 92.6023 54.9123 92.1345C58.8889 89.7953 59.1228 82.193 55.2632 79.7368C57.1345 83.4795 57.0175 88.5088 54.7953 92.0175C54.4444 93.3041 54.5614 94.3567 54.4444 95.0585L53.5088 93.538C53.3918 93.538 53.2749 93.538 53.1579 93.538L52.2222 95.1754L51.9883 93.4211C51.8713 93.4211 51.7544 93.3041 51.6374 93.3041L50.7018 94.8246L50.4678 92.8363H50.3509L49.6491 94.1228L49.1813 91.9006L48.2456 92.9532L48.4795 91.0819L48.3626 90.9649L47.076 91.7836L47.7778 90.0292L47.6608 89.7953L46.2573 90.3801L47.3099 88.7427C47.193 88.6257 47.193 88.5088 47.076 88.3918L45.4386 88.6257L46.8421 87.1053V86.8713L44.9708 86.6374L46.8421 85.7018C46.8421 85.4678 46.8421 85.3509 46.8421 85.2339L45.2047 85L46.9591 84.0643L47.076 83.8304L45.4386 83.0117L47.4269 82.6608L47.5439 82.4269L46.0234 81.6082L48.1287 81.2573C48.2456 81.1404 48.2456 81.1404 48.3626 81.0234L47.076 79.6199L49.2982 79.9708L49.4152 79.8538L48.5965 78.2164L50.3509 79.152C50.4678 79.152 50.4678 79.0351 50.5848 79.0351L49.7661 77.3977C52.2222 78.6842 51.7544 78.5673 52.3392 78.4503C52.4561 76.8129 52.924 75.5263 53.3918 74.5906C47.4269 72.8363 42.5146 68.9766 41.2281 60.7895C41.1111 59.7368 42.0468 59.6199 42.5146 60.7895C44.6199 73.7719 59.3567 72.7193 69.5322 72.0175C64.152 68.8596 59.4737 64.883 60.1754 58.0994C57.1345 56.1111 54.7953 54.0058 53.1579 51.5497C53.3918 51.9006 53.5088 52.3684 53.6257 52.7193C49.7661 55.2924 44.386 53.4211 43.0994 48.8596C46.2573 46.7544 50.3509 47.6901 52.5731 50.4971C50.3509 46.6374 49.7661 42.4269 50.8187 37.7485C51.1696 36.9298 51.8713 36.9298 51.9883 37.9825C50.5848 44.6491 54.3275 52.3684 60.5263 55.4094C61.5789 49.7953 63.8012 43.9474 66.3743 38.8012C67.193 38.2164 67.5439 38.4503 67.5439 39.269C65.2047 44.0643 61.9298 55.4094 62.7485 60.5556C75.3801 57.1637 80.8772 70.3801 90.3509 55.1754C91.0526 54.3567 91.5205 54.8246 91.1696 55.6433C80.6433 71.9006 75.848 59.8538 63.4503 63.0117C67.076 70.614 79.9415 71.9006 84.5029 80.3216C90.3509 79.386 97.0175 78.2164 100.994 70.614C101.696 69.5614 102.164 69.9123 101.93 70.9649ZM109.181 75.1754C106.842 78.5673 101.93 78.6842 99.4737 75.5263C101.696 72.1345 106.608 72.0175 109.181 75.1754ZM110 67.4561C109.532 71.0819 105.673 73.3041 102.398 71.7836C102.749 68.1579 106.608 65.9357 110 67.4561ZM102.281 60.6725C105.088 63.1287 104.854 67.5731 101.696 69.4444C98.8889 67.1053 99.2398 62.6608 102.281 60.6725ZM97.2515 66.1696C100.058 68.5088 99.8246 72.9532 96.6667 74.9415C93.8596 72.6023 94.2105 68.1579 97.2515 66.1696ZM98.4211 63.8304C95.0292 67.6901 88.8304 67.1053 86.2573 62.6608C89.6491 58.9181 95.848 59.5029 98.4211 63.8304ZM101.813 56.462C99.5906 60.4386 94.0936 61.2573 90.8187 57.9825C93.0409 53.8889 98.538 53.1871 101.813 56.462ZM86.4912 46.5205C90.4678 48.9766 90.8187 54.4737 87.3099 57.5146C83.4503 55.0585 82.9825 49.4444 86.4912 46.5205ZM58.1871 34.3567C59.3567 37.8655 56.7836 41.6082 53.0409 41.7251C51.7544 38.2164 54.3275 34.4737 58.1871 34.3567ZM61.1111 30.3801C65.2047 31.5497 67.193 36.345 64.8538 39.9708C60.7602 38.9181 58.7719 34.0058 61.1111 30.3801ZM30.3509 57.9825C34.4444 55.7602 39.7076 58.2164 40.5263 62.8947C36.4327 65.117 31.1696 62.6608 30.3509 57.9825ZM61.5789 40.6725C62.6316 45.117 59.1228 49.3275 54.6784 48.9766C53.5088 44.6491 57.0175 40.4386 61.5789 40.6725ZM54.0936 25C57.3684 28.6257 56.1988 34.4737 51.6374 36.462C48.3626 32.8363 49.6491 26.9883 54.0936 25ZM98.538 43.4795C100.526 48.6257 96.9006 54.3567 91.2865 54.7076C89.2982 49.4444 92.924 43.8304 98.538 43.4795ZM78.4211 37.8655C77.3684 43.1287 71.5205 45.9357 66.8421 43.3626C67.8947 38.0994 73.7427 35.2924 78.4211 37.8655ZM72.2222 28.2749C74.4444 32.3684 71.9883 37.3977 67.4269 38.2164C65.3216 34.1228 67.7778 29.0936 72.2222 28.2749ZM40.6433 48.0409C44.7368 50.4971 45.2047 56.345 41.5789 59.5029C37.3684 57.0468 36.9006 51.0819 40.6433 48.0409ZM49.883 55.6433C52.4561 59.6199 50.3509 65 45.7895 66.1696C43.2164 62.193 45.3216 56.8129 49.883 55.6433ZM54.5614 58.3333C58.655 61.4912 58.4211 67.807 54.2105 70.731C50.117 67.5731 50.3509 61.2573 54.5614 58.3333ZM90 66.6374C93.9766 69.0936 94.3275 74.7076 90.8187 77.6316C86.9591 75.2924 86.4912 69.6784 90 66.6374ZM75.848 48.0409C73.6257 52.1345 68.1287 52.8363 64.8538 49.5614C67.076 45.5848 72.5731 44.7661 75.848 48.0409ZM81.5789 48.8596C84.269 53.538 81.5789 59.6199 76.3158 60.6725C73.6257 55.9942 76.3158 50.0292 81.5789 48.8596ZM37.0175 40.0877C41.6959 36.9298 48.1287 39.269 49.6491 44.7661C44.9708 47.807 38.538 45.4678 37.0175 40.0877ZM40.7602 30.0292C45.9064 29.2105 50.4678 33.655 49.6491 38.8012C44.5029 39.6199 40.0585 35.1754 40.7602 30.0292ZM104.854 82.3099C101.462 85.117 96.3158 83.8304 94.5614 79.7368C97.9532 76.9298 103.216 78.2164 104.854 82.3099ZM37.0175 74.3567C40.4094 70.1462 46.8421 70.3801 49.883 74.8246C46.6082 79.0351 40.0585 78.8012 37.0175 74.3567ZM30 67.924C33.2749 63.7135 39.8246 63.8304 42.8655 68.2749C39.5906 72.4854 33.0409 72.2515 30 67.924Z" fill="#1A5C4B"/>
</svg>
