<svg width="36" height="36" viewBox="0 0 36 36" fill="none" xmlns="http://www.w3.org/2000/svg">
<rect width="36" height="36" rx="18" fill="#006633"/>
<path d="M30.507 27.5079H26.7686C26.5392 27.5079 26.3533 27.6938 26.3533 27.9232C26.3533 28.1526 26.5392 28.3386 26.7686 28.3386H30.507C30.7364 28.3386 30.9223 28.1526 30.9223 27.9232C30.9223 27.6938 30.7364 27.5079 30.507 27.5079Z" fill="white"/>
<path d="M6 27.9232C6 28.1526 6.18597 28.3386 6.41537 28.3386H25.107C25.3364 28.3386 25.5223 28.1526 25.5223 27.9232C25.5223 27.6938 25.3364 27.5079 25.107 27.5079H6.41537C6.18597 27.5079 6 27.6938 6 27.9232Z" fill="white"/>
<path d="M10.1537 29.1693H6.41537C6.18597 29.1693 6 29.3553 6 29.5847C6 29.8141 6.18597 30 6.41537 30H10.1537C10.3831 30 10.5691 29.8141 10.5691 29.5847C10.5691 29.3553 10.3831 29.1693 10.1537 29.1693Z" fill="white"/>
<path d="M30.5066 29.1693H11.815C11.5856 29.1693 11.3997 29.3553 11.3997 29.5847C11.3997 29.8141 11.5856 30 11.815 30H30.5066C30.736 30 30.922 29.8141 30.922 29.5847C30.922 29.3553 30.736 29.1693 30.5066 29.1693Z" fill="white"/>
<path d="M18.8433 13.2192C18.5629 13.593 18.4786 14.4187 18.4624 14.9849C18.9429 14.9267 19.3914 14.7134 19.7397 14.3772C20.0022 14.0258 20.1052 13.237 20.1222 12.6144C19.6412 12.6705 19.1919 12.883 18.8433 13.2192Z" fill="white"/>
<path d="M24.276 11.6631C24.2585 11.0401 24.1555 10.2509 23.8934 9.9007C23.5446 9.56431 23.0956 9.35082 22.6145 9.2926C22.6319 9.91566 22.7345 10.7078 22.9971 11.0587C23.3466 11.3935 23.7954 11.6056 24.276 11.6631Z" fill="white"/>
<path d="M22.9969 13.2192C22.7165 13.593 22.6322 14.4187 22.616 14.9849C23.0965 14.9267 23.545 14.7134 23.8932 14.3772C24.1557 14.0258 24.2587 13.237 24.2758 12.6144C23.7948 12.6705 23.3455 12.883 22.9969 13.2192Z" fill="white"/>
<path d="M20.1224 11.6631C20.105 11.0401 20.002 10.2509 19.7399 9.9007C19.391 9.56431 18.942 9.35082 18.4609 9.2926C18.4784 9.91566 18.581 10.7078 18.8435 11.0587C19.193 11.3935 19.6419 11.6056 20.1224 11.6631Z" fill="white"/>
<path d="M28.8455 18.0291L30.0916 18.2783V6L28.8455 6.24922V18.0291Z" fill="white"/>
<path d="M28.0146 17.9543V6.32399H15.1381V14.6314C15.1381 14.8608 14.9522 15.0467 14.7228 15.0467C14.4934 15.0467 14.3074 14.8608 14.3074 14.6314V6.24922L13.0613 6V18.2783L14.3074 18.0291V16.2928C14.3074 16.0634 14.4934 15.8775 14.7228 15.8775C14.9522 15.8775 15.1381 16.0634 15.1381 16.2928V17.9543H28.0146ZM16.3842 11.7238H18.3244C18.272 11.6717 18.2232 11.6162 18.1782 11.5576C17.5581 10.7269 17.6249 8.99232 17.6349 8.79751C17.6397 8.68555 17.6895 8.58027 17.773 8.50558C17.8566 8.43088 17.9667 8.39311 18.0785 8.40083C18.2488 8.41288 19.7616 8.54164 20.4046 9.4027C20.8615 10.0125 20.9446 11.1057 20.9537 11.7229H22.4773C22.4249 11.6709 22.3761 11.6154 22.3311 11.5568C21.7109 10.7261 21.7778 8.99149 21.7878 8.79668C21.7927 8.68471 21.8428 8.57951 21.9265 8.50497C22.0101 8.43043 22.1204 8.39287 22.2322 8.40083C22.4025 8.41288 23.9153 8.54164 24.5583 9.4027C25.0152 10.0125 25.0982 11.1057 25.1074 11.7229H26.7689C26.9983 11.7229 27.1842 11.9089 27.1842 12.1383C27.1842 12.3677 26.9983 12.5537 26.7689 12.5537H25.107C25.0978 13.1697 25.0135 14.2642 24.5579 14.8739C23.914 15.735 22.4013 15.8638 22.2318 15.8758H22.2031C21.9814 15.8761 21.7986 15.7022 21.7878 15.4808C21.7778 15.286 21.7109 13.5502 22.3311 12.7207C22.3761 12.6621 22.4249 12.6066 22.4773 12.5545H20.9533C20.9441 13.1705 20.8598 14.265 20.4042 14.8748C19.7603 15.7358 18.2476 15.8646 18.0781 15.8766H18.0494C17.8278 15.8769 17.6449 15.703 17.6341 15.4816C17.6241 15.2868 17.5572 13.551 18.1774 12.7215C18.2224 12.6629 18.2712 12.6074 18.3236 12.5553H16.3842C16.1548 12.5553 15.9689 12.3694 15.9689 12.14C15.9689 11.9106 16.1548 11.7246 16.3842 11.7246V11.7238Z" fill="white"/>
<path d="M8.5 17C8.1 17 7.72083 17.1542 7.4375 17.4375C7.15417 17.7208 7 18.1 7 18.5C7 18.9 7.15417 19.2792 7.4375 19.5625C7.72083 19.8458 8.1 20 8.5 20C8.9 20 9.27917 19.8458 9.5625 19.5625C9.84583 19.2792 10 18.9 10 18.5C10 18.1 9.84583 17.7208 9.5625 17.4375C9.27917 17.1542 8.9 17 8.5 17ZM9.5 19.5C9.23333 19.7667 8.875 19.9167 8.5 19.9167C8.125 19.9167 7.76667 19.7708 7.5 19.5C7.23333 19.2292 7.08333 18.875 7.08333 18.5C7.08333 18.125 7.22917 17.7667 7.5 17.5C7.77083 17.2333 8.125 17.0833 8.5 17.0833C8.875 17.0833 9.23333 17.2292 9.5 17.5C9.76667 17.7708 9.91667 18.125 9.91667 18.5C9.91667 18.875 9.77083 19.2333 9.5 19.5Z" fill="white" stroke="white" stroke-width="0.05"/>
<path d="M8.06672 18.0459H8.41255C8.48338 18.0459 8.54588 18.0917 8.57088 18.1584H8.06672V18.3084H8.57088C8.54588 18.375 8.48338 18.4209 8.41255 18.4209H7.98755L8.65005 19.125L8.75422 19.0167L8.33755 18.575H8.42088C8.57088 18.5709 8.69588 18.4584 8.72922 18.3125H8.93755V18.1625H8.72922C8.72088 18.1209 8.70422 18.0834 8.68338 18.05H8.93755V17.9H8.06672V18.0459Z" fill="white" stroke="white" stroke-width="0.05"/>
<path d="M6.5 22C6.1 22 5.72083 22.1542 5.4375 22.4375C5.15417 22.7208 5 23.1 5 23.5C5 23.9 5.15417 24.2792 5.4375 24.5625C5.72083 24.8458 6.1 25 6.5 25C6.9 25 7.27917 24.8458 7.5625 24.5625C7.84583 24.2792 8 23.9 8 23.5C8 23.1 7.84583 22.7208 7.5625 22.4375C7.27917 22.1542 6.9 22 6.5 22ZM7.5 24.5C7.23333 24.7667 6.875 24.9167 6.5 24.9167C6.125 24.9167 5.76667 24.7708 5.5 24.5C5.23333 24.2292 5.08333 23.875 5.08333 23.5C5.08333 23.125 5.22917 22.7667 5.5 22.5C5.77083 22.2333 6.125 22.0833 6.5 22.0833C6.875 22.0833 7.23333 22.2292 7.5 22.5C7.76667 22.7708 7.91667 23.125 7.91667 23.5C7.91667 23.875 7.77083 24.2333 7.5 24.5Z" fill="white" stroke="white" stroke-width="0.05"/>
<path d="M6.06672 23.0459H6.41255C6.48338 23.0459 6.54588 23.0917 6.57088 23.1584H6.06672V23.3084H6.57088C6.54588 23.375 6.48338 23.4209 6.41255 23.4209H5.98755L6.65005 24.125L6.75422 24.0167L6.33755 23.575H6.42088C6.57088 23.5709 6.69588 23.4584 6.72922 23.3125H6.93755V23.1625H6.72922C6.72088 23.1209 6.70422 23.0834 6.68338 23.05H6.93755V22.9H6.06672V23.0459Z" fill="white" stroke="white" stroke-width="0.05"/>
<path d="M10.5 25C10.1 25 9.72083 25.1542 9.4375 25.4375C9.15417 25.7208 9 26.1 9 26.5C9 26.9 9.15417 27.2792 9.4375 27.5625C9.72083 27.8458 10.1 28 10.5 28C10.9 28 11.2792 27.8458 11.5625 27.5625C11.8458 27.2792 12 26.9 12 26.5C12 26.1 11.8458 25.7208 11.5625 25.4375C11.2792 25.1542 10.9 25 10.5 25ZM11.5 27.5C11.2333 27.7667 10.875 27.9167 10.5 27.9167C10.125 27.9167 9.76667 27.7708 9.5 27.5C9.23333 27.2292 9.08333 26.875 9.08333 26.5C9.08333 26.125 9.22917 25.7667 9.5 25.5C9.77083 25.2333 10.125 25.0833 10.5 25.0833C10.875 25.0833 11.2333 25.2292 11.5 25.5C11.7667 25.7708 11.9167 26.125 11.9167 26.5C11.9167 26.875 11.7708 27.2333 11.5 27.5Z" fill="white" stroke="white" stroke-width="0.05"/>
<path d="M10.0667 26.0459H10.4125C10.4834 26.0459 10.5459 26.0917 10.5709 26.1584H10.0667V26.3084H10.5709C10.5459 26.375 10.4834 26.4209 10.4125 26.4209H9.98755L10.65 27.125L10.7542 27.0167L10.3375 26.575H10.4209C10.5709 26.5709 10.6959 26.4584 10.7292 26.3125H10.9375V26.1625H10.7292C10.7209 26.1209 10.7042 26.0834 10.6834 26.05H10.9375V25.9H10.0667V26.0459Z" fill="white" stroke="white" stroke-width="0.05"/>
</svg>
