<svg width="96" height="96" viewBox="0 0 96 96" fill="none" xmlns="http://www.w3.org/2000/svg">
<rect width="96" height="96" fill="#F5F5F5"/>
<g clip-path="url(#clip0_730_6116)">
<path d="M92.16 0.5H3.84C1.99537 0.5 0.5 1.99537 0.5 3.84V92.16C0.5 94.0046 1.99537 95.5 3.84 95.5H92.16C94.0046 95.5 95.5 94.0046 95.5 92.16V3.84C95.5 1.99537 94.0046 0.5 92.16 0.5Z" fill="white"/>
<path d="M96 24H0V96H96V24Z" fill="url(#paint0_linear_730_6116)"/>
<path d="M32.9644 60.5422C32.9909 60.5297 33.009 60.5185 33.0216 60.5115C33.0034 60.5227 32.9839 60.5325 32.9644 60.5422Z" fill="url(#paint1_linear_730_6116)"/>
<path d="M49.1799 68.3333L51.375 66.1658L49.2597 63.9583L47 66.3845L49.1799 68.3333Z" fill="url(#paint2_linear_730_6116)"/>
<path d="M52.8714 68.8897L52.2737 68.3333L49.9165 70.4108L54.4688 80H61.5832C59.2965 78.7529 57.342 77.122 55.8427 75.2099C54.3434 73.2978 53.3317 71.146 52.8714 68.8897Z" fill="url(#paint3_linear_730_6116)"/>
<path d="M78.353 79.9002H83.4067C83.3398 78.1807 83.2504 76.2784 83.1723 75.2205C81.8842 77.0779 80.2474 78.6672 78.353 79.9002Z" fill="url(#paint4_linear_730_6116)"/>
<path d="M36.8572 58.0137C36.3728 58.3731 35.8624 58.7126 35.3335 59.0357L43.9207 66.875L48.4585 62.2696L39.7876 55.2083C38.9518 56.2523 37.9667 57.1953 36.8572 58.0137Z" fill="url(#paint5_linear_730_6116)"/>
<path d="M34.5222 28.2889C34.666 27.2532 34.9042 26.2329 35.234 25.2407C36.8599 20.4047 40.1007 20.6434 41.8885 21.2156C44.5696 22.0753 52.43 21.8353 54.8501 21.1961C57.0385 20.6169 59.9583 20.8499 61.4349 25.2435C61.5033 25.4487 61.5661 25.6538 61.6261 25.859C61.9262 23.6552 61.9806 21.03 61.4489 17.6245C60.9827 14.649 60.2835 12.1814 58.5012 10C56.5235 11.2449 54.3282 11.0063 52.5208 10.8109C52.3156 10.7886 52.1132 10.7662 51.9123 10.7467C45.5452 10.1214 40.9814 11.6497 37.5494 15.552C37.22 15.9246 36.913 16.2624 36.6157 16.589C34.6492 18.7509 33.7518 19.7362 33.8886 23.1012C33.9782 24.8431 34.1899 26.5766 34.5222 28.2889Z" fill="url(#paint6_linear_730_6116)"/>
<path d="M36.12 43.0028C36.6546 45.0489 38.3615 46.5869 40.1675 48.2157L40.6922 48.6902C40.7013 48.7007 40.7111 48.7105 40.7215 48.7195L40.7578 48.7572C40.7785 48.7776 40.798 48.799 40.8164 48.8214L40.8458 48.8577C40.8639 48.8814 40.8834 48.9051 40.9002 48.9303C40.9169 48.9554 40.9155 48.9554 40.9239 48.9665L40.9714 49.0447L40.9923 49.0866C41.0063 49.1119 41.0188 49.138 41.03 49.1647C41.0378 49.1806 41.0448 49.1969 41.0509 49.2136C41.0607 49.2387 41.0705 49.2638 41.0788 49.2889C41.0872 49.3141 41.09 49.3266 41.0942 49.3462C41.0984 49.3657 41.1081 49.395 41.1137 49.4201C41.1193 49.4453 41.1221 49.4592 41.1249 49.4802C41.1277 49.5011 41.1333 49.5304 41.1375 49.5555C41.1416 49.5806 41.1375 49.5946 41.1375 49.6141V49.6951V49.7244C41.1403 50.8898 40.9444 52.0471 40.5582 53.1466L47.6915 59.6881L54.8248 53.148C54.4382 52.0481 54.2428 50.8902 54.247 49.7244C54.247 49.7132 54.247 49.7035 54.247 49.6937V49.6169C54.247 49.596 54.247 49.5751 54.247 49.5541C54.247 49.5332 54.254 49.5067 54.2581 49.4829L54.2707 49.4187C54.2707 49.395 54.2819 49.3713 54.2889 49.349C54.2958 49.3266 54.3 49.3085 54.307 49.2876C54.314 49.2666 54.3237 49.2401 54.3321 49.2164C54.3405 49.1926 54.3461 49.1801 54.3545 49.1633C54.3628 49.1466 54.3782 49.1131 54.3907 49.088L54.4131 49.0433L54.4591 48.9693L54.4856 48.9289C54.501 48.9051 54.5191 48.8828 54.5373 48.8591L54.5694 48.8214C54.5869 48.7995 54.6055 48.7785 54.6252 48.7586L54.6643 48.7195L54.6922 48.6902L55.217 48.2157C57.023 46.5869 58.7299 45.0489 59.2644 43.0028C59.794 40.8841 60.812 38.9187 62.2372 37.2638C63.6873 35.5346 63.7013 34.7251 63.6398 34.4586C63.5491 34.0608 63.0481 33.7398 62.6015 33.5262C62.4619 33.6393 62.2135 34.0231 62.0432 34.2827C61.8967 34.5074 61.7292 34.7614 61.5394 35.0168L61.517 35.0489C61.5059 35.0643 61.4919 35.0796 61.4807 35.0936C61.4696 35.1075 61.464 35.1159 61.4542 35.1257C61.4008 35.188 61.3414 35.245 61.277 35.296L61.2546 35.3141L61.1793 35.3685L61.1458 35.3895L61.0746 35.4327L61.0369 35.4523C61.0115 35.4658 60.9855 35.4779 60.9588 35.4886L60.9253 35.5039C60.889 35.5193 60.8513 35.5318 60.8136 35.5444L60.7773 35.5542L60.6936 35.5751L60.6503 35.5835C60.621 35.5835 60.5931 35.5932 60.5638 35.596H60.5275C60.481 35.5986 60.4344 35.5986 60.3879 35.596H60.3405C60.307 35.596 60.2735 35.5932 60.24 35.5876H60.2037C60.1702 35.5876 60.1367 35.5765 60.1032 35.5695L60.0697 35.5625C60.0348 35.5542 60.0013 35.5444 59.9678 35.5332H59.9609L59.9064 35.5123L59.8436 35.4872L59.792 35.4634L59.7292 35.4299L59.6845 35.4048L59.6091 35.356L59.5826 35.3378C59.5505 35.3141 59.5184 35.2876 59.4877 35.2611L59.4654 35.2401C59.4417 35.2192 59.4193 35.1983 59.3984 35.1759L59.3705 35.1452L59.3161 35.081L59.2895 35.0475C59.2714 35.0238 59.2546 34.9987 59.2393 34.9749L59.2198 34.9456C59.1988 34.9121 59.1793 34.8773 59.1611 34.8424C59.1543 34.8293 59.1482 34.8157 59.143 34.8019C59.1318 34.7782 59.1207 34.7544 59.1109 34.7307C59.1011 34.707 59.0983 34.6986 59.0928 34.6819L59.069 34.6121C59.069 34.5953 59.0593 34.5786 59.0551 34.5618C59.0509 34.5451 59.0411 34.5032 59.0355 34.4725C59.0324 34.462 59.0301 34.4513 59.0285 34.4404C59.0218 34.3993 59.0171 34.3578 59.0146 34.3162C59.0146 34.3036 59.0146 34.2911 59.0146 34.2785C59.0146 34.2659 59.0146 34.238 59.0146 34.2171C59.0146 33.8333 59.0146 33.4551 59.0146 33.0796C59.0146 29.9826 59.0034 27.3085 58.1507 24.7768C57.3537 22.4041 56.3656 22.1599 54.9267 22.5437C52.0921 23.296 43.6818 23.5751 40.4047 22.5214C39.3105 22.1711 38.1647 22.0566 37.2505 24.7768C36.3978 27.3071 36.3936 29.9784 36.3866 33.0713V34.1962V34.2115C36.3873 34.501 36.298 34.7836 36.1309 35.0201C35.9639 35.2566 35.7275 35.4353 35.4544 35.5314C35.1813 35.6276 34.8851 35.6364 34.6067 35.5567C34.3284 35.477 34.0817 35.3127 33.9009 35.0866L33.8534 35.0238L33.8339 34.9987C33.6511 34.7516 33.4906 34.5046 33.3482 34.2869C33.1779 34.0273 32.9295 33.6449 32.7899 33.5318C32.6881 33.5807 32.596 33.6295 32.5108 33.6714L32.4634 33.6979C32.0321 33.9533 31.7879 34.2213 31.7404 34.4948C31.693 34.7684 31.7404 35.5779 33.1514 37.2666C34.5741 38.9215 35.5906 40.8857 36.12 43.0028Z" fill="url(#paint7_linear_730_6116)"/>
<path d="M55.7499 55.2083L49.9165 60.2478L53.4609 63.9583C53.727 60.9458 54.4996 57.9923 55.7499 55.2083Z" fill="url(#paint8_linear_730_6116)"/>
<path d="M83.4581 65.3741C83.4581 62.5011 82.6061 59.6926 81.01 57.3038C79.4138 54.915 77.1452 53.0531 74.4909 51.9537C71.8366 50.8542 68.9158 50.5665 66.098 51.127C63.2802 51.6875 60.6919 53.071 58.6604 55.1025C56.6289 57.134 55.2454 59.7224 54.6849 62.5402C54.1244 65.3579 54.4121 68.2787 55.5115 70.933C56.611 73.5873 58.4729 75.856 60.8617 77.4521C63.2505 79.0483 66.059 79.9002 68.932 79.9002C72.7832 79.8958 76.4754 78.3639 79.1986 75.6407C81.9218 72.9175 83.4537 69.2253 83.4581 65.3741ZM77.2962 58.5813C77.2194 60.0133 76.7142 67.2736 74.3555 69.6323C73.1922 70.7932 71.6467 71.4919 70.0067 71.5984C68.3666 71.705 66.7437 71.2121 65.44 70.2115C64.2481 70.6874 63.4358 71.5778 63.3549 72.5604C63.3264 72.9106 63.1669 73.2372 62.9082 73.475C62.6494 73.7127 62.3106 73.8441 61.9592 73.843C61.9201 73.8451 61.881 73.8451 61.8419 73.843C61.6591 73.828 61.4809 73.7772 61.3177 73.6933C61.1545 73.6094 61.0095 73.4942 60.8909 73.3542C60.7722 73.2141 60.6824 73.0521 60.6265 72.8774C60.5705 72.7026 60.5496 72.5185 60.5649 72.3357C60.7115 70.5632 61.8573 68.9763 63.5712 68.0175C62.8966 66.7368 62.6492 65.274 62.8652 63.8427C63.0811 62.4115 63.7491 61.0868 64.7715 60.0621C69.052 55.7802 75.8824 57.088 76.1699 57.1452C76.4988 57.2095 76.7935 57.39 77.0003 57.6536C77.2071 57.9173 77.3122 58.2466 77.2962 58.5813Z" fill="url(#paint9_linear_730_6116)"/>
<path d="M46.3475 67.4699L45.7322 68.1556C45.596 68.3075 45.429 68.4303 45.2416 68.5162C45.0543 68.6021 44.8507 68.6492 44.6438 68.6545H44.6049C44.4048 68.6552 44.2066 68.6169 44.0219 68.5417C43.8373 68.4665 43.67 68.3561 43.53 68.2168L34.9173 59.5833C34.7915 59.6388 34.6673 59.6957 34.54 59.7482L34.4741 59.7759H34.4607L33.263 60.3303C32.251 60.7971 31.203 61.2814 30.179 61.7614C28.1864 62.7024 25.7566 63.4318 23.4062 64.1495C21.2519 64.8031 19.0243 65.4742 17.2892 66.2693C16.0691 66.8251 15.0855 67.6916 14.283 68.9185C13.3713 70.3117 12.768 71.9821 12.3368 74.3309C12.2335 74.8517 12.0958 77.5958 12 80H44.1348L48.4583 69.4262L46.3475 67.4699Z" fill="url(#paint10_linear_730_6116)"/>
<path d="M45.5415 80H51.3749L48.459 72.7083L45.5415 80Z" fill="url(#paint11_linear_730_6116)"/>
<path d="M66.7522 62.0286C66.0059 62.7751 65.5868 63.7873 65.5869 64.8428C65.587 65.8983 66.0064 66.9104 66.7529 67.6567C67.4993 68.4029 68.5116 68.8221 69.567 68.8219C70.6225 68.8218 71.6347 68.4024 72.3809 67.656C73.4095 66.6274 74.1283 62.7711 74.4102 59.7355C74.1227 59.7174 73.7933 59.7034 73.4332 59.7034C71.4975 59.7034 68.6894 60.0914 66.7522 62.0286Z" fill="url(#paint12_linear_730_6116)"/>
<path d="M92.16 0.5H3.84C1.99537 0.5 0.5 1.99537 0.5 3.84V92.16C0.5 94.0046 1.99537 95.5 3.84 95.5H92.16C94.0046 95.5 95.5 94.0046 95.5 92.16V3.84C95.5 1.99537 94.0046 0.5 92.16 0.5Z" stroke="#1A5C4B"/>
</g>
<defs>
<linearGradient id="paint0_linear_730_6116" x1="48" y1="24" x2="48" y2="96" gradientUnits="userSpaceOnUse">
<stop stop-color="white"/>
<stop offset="1" stop-color="#DBEFBC" stop-opacity="0.5"/>
</linearGradient>
<linearGradient id="paint1_linear_730_6116" x1="32.993" y1="60.5115" x2="32.993" y2="60.5422" gradientUnits="userSpaceOnUse">
<stop stop-color="#1A5C4B"/>
<stop offset="1" stop-color="#91C543"/>
</linearGradient>
<linearGradient id="paint2_linear_730_6116" x1="49.1875" y1="63.9583" x2="49.1875" y2="68.3333" gradientUnits="userSpaceOnUse">
<stop stop-color="#1A5C4B"/>
<stop offset="1" stop-color="#91C543"/>
</linearGradient>
<linearGradient id="paint3_linear_730_6116" x1="55.7499" y1="68.3333" x2="55.7499" y2="80" gradientUnits="userSpaceOnUse">
<stop stop-color="#1A5C4B"/>
<stop offset="1" stop-color="#91C543"/>
</linearGradient>
<linearGradient id="paint4_linear_730_6116" x1="80.8799" y1="75.2205" x2="80.8799" y2="79.9002" gradientUnits="userSpaceOnUse">
<stop stop-color="#1A5C4B"/>
<stop offset="1" stop-color="#91C543"/>
</linearGradient>
<linearGradient id="paint5_linear_730_6116" x1="41.896" y1="55.2083" x2="41.896" y2="66.875" gradientUnits="userSpaceOnUse">
<stop stop-color="#1A5C4B"/>
<stop offset="1" stop-color="#91C543"/>
</linearGradient>
<linearGradient id="paint6_linear_730_6116" x1="47.8631" y1="10" x2="47.8631" y2="28.2889" gradientUnits="userSpaceOnUse">
<stop stop-color="#1A5C4B"/>
<stop offset="1" stop-color="#91C543"/>
</linearGradient>
<linearGradient id="paint7_linear_730_6116" x1="47.6937" y1="22.3395" x2="47.6937" y2="59.6881" gradientUnits="userSpaceOnUse">
<stop stop-color="#1A5C4B"/>
<stop offset="1" stop-color="#91C543"/>
</linearGradient>
<linearGradient id="paint8_linear_730_6116" x1="52.8332" y1="55.2083" x2="52.8332" y2="63.9583" gradientUnits="userSpaceOnUse">
<stop stop-color="#1A5C4B"/>
<stop offset="1" stop-color="#91C543"/>
</linearGradient>
<linearGradient id="paint9_linear_730_6116" x1="68.9319" y1="50.8479" x2="68.9319" y2="79.9002" gradientUnits="userSpaceOnUse">
<stop stop-color="#1A5C4B"/>
<stop offset="1" stop-color="#91C543"/>
</linearGradient>
<linearGradient id="paint10_linear_730_6116" x1="30.2292" y1="59.5833" x2="30.2292" y2="80" gradientUnits="userSpaceOnUse">
<stop stop-color="#1A5C4B"/>
<stop offset="1" stop-color="#91C543"/>
</linearGradient>
<linearGradient id="paint11_linear_730_6116" x1="48.4582" y1="72.7083" x2="48.4582" y2="80" gradientUnits="userSpaceOnUse">
<stop stop-color="#1A5C4B"/>
<stop offset="1" stop-color="#91C543"/>
</linearGradient>
<linearGradient id="paint12_linear_730_6116" x1="69.9986" y1="59.7034" x2="69.9986" y2="68.8219" gradientUnits="userSpaceOnUse">
<stop stop-color="#1A5C4B"/>
<stop offset="1" stop-color="#91C543"/>
</linearGradient>
<clipPath id="clip0_730_6116">
<rect width="96" height="96" fill="white"/>
</clipPath>
</defs>
</svg>
