<svg width="45" height="45" viewBox="0 0 45 45" fill="none" xmlns="http://www.w3.org/2000/svg">
<g id="ri:parent-fill">
<g id="Group 1000002866">
<path id="Vector" d="M29.586 17.8645C30.0764 17.3741 30.0764 16.5789 29.586 16.0885C29.0955 15.5981 28.3005 15.5981 27.8101 16.0885L18.6515 25.247L16.1907 22.7862C15.7003 22.2958 14.9051 22.2958 14.4147 22.7862C13.9243 23.2767 13.9243 24.0717 14.4147 24.5621L17.7635 27.911C18.2539 28.4014 19.049 28.4014 19.5395 27.911L29.586 17.8645Z" fill="#1A5C4B"/>
<path id="Vector_2" fill-rule="evenodd" clip-rule="evenodd" d="M22 4C20.5501 4 19.2561 4.67163 18.414 5.71591C18.1515 6.04155 17.9292 6.18548 17.7698 6.22813C17.6142 6.26976 17.3582 6.25715 16.9638 6.10476C15.7124 5.62124 14.2558 5.68651 12.9999 6.41156C11.7412 7.1383 10.9557 8.37109 10.7509 9.70011C10.6872 10.1133 10.5694 10.3428 10.456 10.4561C10.3427 10.5694 10.1133 10.6873 9.70002 10.751C8.371 10.9558 7.13823 11.7413 6.41151 13.0001C5.68646 14.2559 5.62119 15.7125 6.10474 16.964C6.25712 17.3583 6.26974 17.6143 6.2281 17.7699C6.18547 17.9292 6.04153 18.1515 5.71593 18.4141C4.67164 19.2561 4 20.5501 4 22C4 23.45 4.67166 24.744 5.71598 25.5861C6.04157 25.8486 6.18548 26.0708 6.22813 26.2302C6.26976 26.3858 6.25715 26.6417 6.10478 27.0361C5.62121 28.2876 5.68647 29.7442 6.41155 31C7.13828 32.2588 8.3711 33.0443 9.70016 33.2491C10.1134 33.3127 10.3428 33.4306 10.4561 33.5439C10.5694 33.6573 10.6873 33.8867 10.7509 34.2999C10.9557 35.6289 11.7413 36.8618 13 37.5885C14.2558 38.3135 15.7125 38.3788 16.964 37.8953C17.3583 37.7429 17.6142 37.7303 17.7698 37.7719C17.9292 37.8145 18.1515 37.9584 18.414 38.2841C19.256 39.3284 20.55 40 22 40C23.4499 40 24.7439 39.3284 25.5859 38.2841C25.8485 37.9584 26.0708 37.8145 26.2302 37.7719C26.3858 37.7302 26.6418 37.7429 27.0361 37.8953C28.2876 38.3788 29.7442 38.3135 31 37.5885C32.2588 36.8616 33.0443 35.6289 33.2491 34.2999C33.3127 33.8867 33.4306 33.6573 33.5439 33.5439C33.6573 33.4306 33.8867 33.3127 34.2999 33.2491C35.6289 33.0443 36.8618 32.2587 37.5885 31C38.3135 29.7442 38.3788 28.2874 37.8953 27.036C37.7429 26.6417 37.7303 26.3858 37.7719 26.2302C37.8145 26.0708 37.9584 25.8485 38.2841 25.5859C39.3284 24.744 40 23.45 40 22C40 20.5501 39.3284 19.2561 38.2841 18.414C37.9584 18.1515 37.8145 17.9292 37.7719 17.7698C37.7303 17.6142 37.7429 17.3583 37.8953 16.9639C38.3788 15.7125 38.3135 14.2558 37.5885 13C36.8618 11.7413 35.6289 10.9557 34.2999 10.7509C33.8867 10.6873 33.6573 10.5694 33.5439 10.4561C33.4306 10.3427 33.3127 10.1133 33.2491 9.70006C33.0443 8.37105 32.2587 7.13826 31 6.41155C29.7442 5.68649 28.2876 5.62122 27.0361 6.10476C26.6417 6.25713 26.3858 6.26976 26.2302 6.22812C26.0708 6.18548 25.8485 6.04155 25.5859 5.71593C24.744 4.67164 23.45 4 22 4ZM20.3693 7.29243C20.7549 6.81406 21.3418 6.51163 22 6.51163C22.6582 6.51163 23.2451 6.81406 23.6307 7.29244C24.051 7.81364 24.6895 8.41584 25.5809 8.65438C26.4744 8.89347 27.3226 8.68661 27.9413 8.44759C28.5147 8.22608 29.174 8.25751 29.7442 8.58668C30.3157 8.91661 30.6728 9.47377 30.7668 10.0826C30.8681 10.7402 31.115 11.5792 31.7679 12.2321C32.4207 12.8849 33.2598 13.1319 33.9173 13.2333C34.5262 13.3271 35.0834 13.6844 35.4133 14.2558C35.7425 14.826 35.7739 15.4854 35.5524 16.0587C35.3135 16.6773 35.1065 17.5256 35.3456 18.419C35.5842 19.3105 36.1863 19.949 36.7076 20.3693C37.186 20.7549 37.4884 21.3418 37.4884 22C37.4884 22.6582 37.186 23.2451 36.7076 23.6307C36.1863 24.051 35.5842 24.6895 35.3456 25.5809C35.1065 26.4744 35.3135 27.3226 35.5524 27.9413C35.7739 28.5145 35.7425 29.174 35.4133 29.7442C35.0834 30.3157 34.5262 30.6728 33.9173 30.7668C33.2598 30.8681 32.4207 31.115 31.7679 31.7679C31.1152 32.4207 30.8681 33.2598 30.7668 33.9173C30.673 34.5262 30.3157 35.0834 29.7442 35.4133C29.174 35.7425 28.5147 35.7739 27.9413 35.5524C27.3228 35.3135 26.4744 35.1065 25.5809 35.3456C24.6895 35.5842 24.051 36.1863 23.6307 36.7076C23.2451 37.186 22.6582 37.4884 22 37.4884C21.3418 37.4884 20.7549 37.186 20.3693 36.7076C19.949 36.1863 19.3105 35.5842 18.4191 35.3456C17.5256 35.1065 16.6773 35.3135 16.0587 35.5524C15.4854 35.7739 14.826 35.7425 14.2558 35.4133C13.6844 35.0834 13.3271 34.5262 13.2333 33.9173C13.1319 33.2598 12.8849 32.4207 12.2321 31.7679C11.5793 31.1152 10.7403 30.8681 10.0826 30.7668C9.47379 30.673 8.91661 30.3157 8.58668 29.7442C8.25749 29.174 8.22608 28.5147 8.44759 27.9413C8.68661 27.3228 8.89349 26.4744 8.6544 25.5809C8.41584 24.6896 7.81366 24.051 7.29246 23.6309C6.81408 23.2451 6.51163 22.6584 6.51163 22C6.51163 21.3418 6.81406 20.7551 7.29243 20.3693C7.81364 19.949 8.41583 19.3105 8.65436 18.4191C8.89345 17.5256 8.68658 16.6773 8.44756 16.0587C8.22605 15.4855 8.25748 14.826 8.58665 14.2559C8.91658 13.6844 9.47374 13.3271 10.0826 13.2333C10.7402 13.132 11.5792 12.8849 12.232 12.2321C12.8848 11.5793 13.1319 10.7403 13.2332 10.0826C13.327 9.47381 13.6843 8.91663 14.2558 8.5867C14.8259 8.25753 15.4854 8.2261 16.0586 8.44759C16.6772 8.68661 17.5255 8.89349 18.419 8.6544C19.3105 8.41584 19.949 7.81362 20.3693 7.29243Z" fill="#1A5C4B"/>
</g>
</g>
</svg>
