<svg width="81" height="80" viewBox="0 0 81 80" fill="none" xmlns="http://www.w3.org/2000/svg">
<rect width="81" height="80" fill="#F5F5F5"/>
<g clip-path="url(#clip0_730_6116)">
<rect width="1920" height="2274" transform="translate(-765 -399)" fill="white"/>
<g filter="url(#filter0_d_730_6116)">
<path d="M-100 -4C-100 -10.6274 -94.6274 -16 -88 -16H169C175.627 -16 181 -10.6274 181 -4V236C181 242.627 175.627 248 169 248H-88C-94.6274 248 -100 242.627 -100 236V-4Z" fill="white"/>
<path d="M-99.5 -4C-99.5 -10.3513 -94.3513 -15.5 -88 -15.5H169C175.351 -15.5 180.5 -10.3513 180.5 -4V236C180.5 242.351 175.351 247.5 169 247.5H-88C-94.3513 247.5 -99.5 242.351 -99.5 236V-4Z" stroke="#D7DEDA"/>
</g>
<rect x="0.5" width="80" height="80" rx="40" fill="#D0F19E"/>
<circle opacity="0.6" cx="41" cy="41" r="29" fill="white"/>
<path d="M27.7139 35.1444C28.1819 32.5076 29.4487 30.0782 31.343 28.1851C38.745 20.698 51.7457 24.9089 53.4773 35.1444C54.7747 35.178 57.3539 34.9922 58.5686 35.443C55.5349 14.0767 25.7347 14.0978 22.6455 35.3817C23.7827 35.0085 26.5362 35.1786 27.7139 35.1444Z" fill="#1A5C4B"/>
<path d="M28.4873 36.6757H24.4219C24.3066 36.6719 24.1911 36.6796 24.0773 36.6987C23.5479 36.722 23.0256 36.8306 22.5308 37.0203C21.5118 37.405 20.6341 38.091 20.0146 38.9868C19.395 39.8827 19.0629 40.9459 19.0625 42.0351V46.6978C19.0641 48.1187 19.6292 49.481 20.6339 50.4857C21.6387 51.4904 23.001 52.0556 24.4219 52.0572H28.4873C28.588 52.0575 28.6877 52.0379 28.7807 51.9996C28.8738 51.9612 28.9583 51.9049 29.0295 51.8337C29.1007 51.7625 29.157 51.678 29.1954 51.5849C29.2338 51.4919 29.2533 51.3922 29.253 51.2915V37.4414C29.2524 37.2385 29.1715 37.0441 29.0281 36.9007C28.8846 36.7572 28.6902 36.6764 28.4873 36.6757Z" fill="#1A5C4B"/>
<path d="M58.6761 37.1044C58.184 36.8933 57.6624 36.759 57.1295 36.7063C56.9466 36.6845 56.7625 36.6742 56.5782 36.6757H52.7195C52.5166 36.6763 52.3222 36.7571 52.1788 36.9006C52.0353 37.044 51.9544 37.2384 51.9539 37.4413V51.2915C51.9535 51.3921 51.9731 51.4918 52.0114 51.5849C52.0498 51.6779 52.1062 51.7625 52.1773 51.8336C52.2485 51.9048 52.333 51.9612 52.4261 51.9995C52.5191 52.0379 52.6188 52.0574 52.7195 52.0571H56.5782C56.7036 52.0571 56.8289 52.0494 56.9534 52.0341C58.3057 51.9416 59.5725 51.3392 60.4977 50.3486C61.4229 49.3581 61.9375 48.0532 61.9376 46.6977V42.035C61.9362 40.9842 61.6265 39.9568 61.0467 39.0803C60.4669 38.2038 59.6426 37.5168 58.6761 37.1044Z" fill="#1A5C4B"/>
<path d="M55.4219 53.5883C55.4585 54.1941 55.3711 54.8009 55.1651 55.3718C54.9592 55.9426 54.6389 56.4655 54.224 56.9083C53.8091 57.3512 53.3082 57.7048 52.752 57.9475C52.1958 58.1902 51.5959 58.3169 50.989 58.3199H46.4872C46.3634 57.825 46.0775 57.3858 45.6752 57.0722C45.2728 56.7586 44.777 56.5887 44.2668 56.5896H36.9398C33.8625 56.6103 33.8684 61.557 36.9398 61.5815H44.2668C44.7764 61.5801 45.271 61.4093 45.6729 61.0961C46.0749 60.7829 46.3613 60.3449 46.4871 59.8512L50.989 59.8511C51.7982 59.8484 52.5985 59.6817 53.3416 59.3612C54.0846 59.0407 54.7551 58.573 55.3124 57.9863C55.8698 57.3996 56.3025 56.7061 56.5845 55.9476C56.8665 55.1891 56.9919 54.3813 56.9532 53.573C56.7207 53.5933 55.6521 53.5926 55.4219 53.5883Z" fill="#1A5C4B"/>
<path d="M40.5996 51.6055C42.8058 51.6063 44.9467 50.8566 46.6703 49.4794C48.394 48.1022 49.5978 46.1796 50.0839 44.0276C50.57 41.8756 50.3095 39.6222 49.3452 37.6379C48.381 35.6535 46.7702 34.0563 44.7779 33.1087C42.7855 32.1611 40.53 31.9195 38.3821 32.4237C36.2343 32.9279 34.3219 34.1478 32.9592 35.8829C31.5966 37.6181 30.8648 39.7652 30.8842 41.9714C30.9035 44.1775 31.6729 46.3114 33.0658 48.0224L32.3461 51.9271C32.3224 52.0666 32.3374 52.21 32.3897 52.3416C32.4419 52.4732 32.5292 52.5879 32.6422 52.6733C32.7552 52.7586 32.8894 52.8112 33.0303 52.8255C33.1712 52.8397 33.3132 52.815 33.441 52.7539L37.0777 50.9394C38.1998 51.3793 39.3943 51.6052 40.5996 51.6055ZM45.2316 41.0093H45.2392C45.4423 41.0093 45.637 41.0899 45.7806 41.2335C45.9242 41.3771 46.0049 41.5718 46.0049 41.7749C46.0049 41.9779 45.9242 42.1727 45.7806 42.3163C45.637 42.4598 45.4423 42.5405 45.2392 42.5405C45.0356 42.5402 44.8402 42.4597 44.6955 42.3164C44.5508 42.1731 44.4683 41.9785 44.466 41.7749C44.465 41.6741 44.4841 41.5741 44.5222 41.4807C44.5603 41.3874 44.6167 41.3026 44.688 41.2313C44.7593 41.16 44.8441 41.1036 44.9374 41.0655C45.0308 41.0274 45.1308 41.0083 45.2316 41.0093ZM40.6072 41.0093H40.6149C40.8179 41.0093 41.0127 41.0899 41.1562 41.2335C41.2998 41.3771 41.3805 41.5718 41.3805 41.7749C41.3805 41.9779 41.2998 42.1727 41.1562 42.3163C41.0127 42.4598 40.8179 42.5405 40.6149 42.5405C40.412 42.5399 40.2176 42.4591 40.0741 42.3156C39.9307 42.1721 39.8498 41.9778 39.8492 41.7749C39.848 41.6746 39.8668 41.5752 39.9043 41.4822C39.9419 41.3893 39.9976 41.3048 40.0681 41.2335C40.1386 41.1623 40.2226 41.1058 40.3151 41.0673C40.4077 41.0288 40.507 41.0091 40.6072 41.0093ZM35.9982 42.5405C35.7945 42.5402 35.5991 42.4597 35.4544 42.3164C35.3097 42.1731 35.2272 41.9785 35.2249 41.7749C35.2245 41.6742 35.2441 41.5745 35.2824 41.4815C35.3208 41.3884 35.3772 41.3039 35.4483 41.2327C35.5195 41.1616 35.604 41.1052 35.6971 41.0668C35.7901 41.0285 35.8899 41.0089 35.9905 41.0093H35.9982C36.2012 41.0093 36.3959 41.0899 36.5395 41.2335C36.6831 41.3771 36.7638 41.5718 36.7638 41.7749C36.7638 41.9779 36.6831 42.1727 36.5395 42.3163C36.3959 42.4598 36.2012 42.5405 35.9982 42.5405Z" fill="#1A5C4B"/>
</g>
<defs>
<filter id="filter0_d_730_6116" x="-120" y="-32" width="321" height="304" filterUnits="userSpaceOnUse" color-interpolation-filters="sRGB">
<feFlood flood-opacity="0" result="BackgroundImageFix"/>
<feColorMatrix in="SourceAlpha" type="matrix" values="0 0 0 0 0 0 0 0 0 0 0 0 0 0 0 0 0 0 127 0" result="hardAlpha"/>
<feOffset dy="4"/>
<feGaussianBlur stdDeviation="10"/>
<feColorMatrix type="matrix" values="0 0 0 0 0 0 0 0 0 0 0 0 0 0 0 0 0 0 0.1 0"/>
<feBlend mode="normal" in2="BackgroundImageFix" result="effect1_dropShadow_730_6116"/>
<feBlend mode="normal" in="SourceGraphic" in2="effect1_dropShadow_730_6116" result="shape"/>
</filter>
<clipPath id="clip0_730_6116">
<rect width="1920" height="2274" fill="white" transform="translate(-765 -399)"/>
</clipPath>
</defs>
</svg>
