<svg width="81" height="80" viewBox="0 0 81 80" fill="none" xmlns="http://www.w3.org/2000/svg">
<rect width="81" height="80" fill="#F5F5F5"/>
<g clip-path="url(#clip0_730_6116)">
<rect width="1920" height="2274" transform="translate(-765 -703)" fill="white"/>
<g filter="url(#filter0_d_730_6116)">
<path d="M-100 -4C-100 -10.6274 -94.6274 -16 -88 -16H169C175.627 -16 181 -10.6274 181 -4V236C181 242.627 175.627 248 169 248H-88C-94.6274 248 -100 242.627 -100 236V-4Z" fill="white"/>
<path d="M-99.5 -4C-99.5 -10.3513 -94.3513 -15.5 -88 -15.5H169C175.351 -15.5 180.5 -10.3513 180.5 -4V236C180.5 242.351 175.351 247.5 169 247.5H-88C-94.3513 247.5 -99.5 242.351 -99.5 236V-4Z" stroke="#D7DEDA"/>
<rect x="0.5" width="80" height="80" rx="40" fill="#D0F19E"/>
<circle opacity="0.6" cx="40" cy="40" r="29" fill="white"/>
</g>
<path d="M51.3543 60.4249C50.4475 61.7704 50.6974 64.3927 50.6609 66.0095L58.2795 58.6497L54.1096 58.659C53.5309 58.6652 52.9657 58.8341 52.4784 59.1464C51.9912 59.4587 51.6017 59.9017 51.3543 60.4249Z" fill="#1A5C4B"/>
<path d="M36.977 56.8098C44.4328 56.863 48.1632 47.4916 42.9127 42.2753C42.1345 41.4918 41.2089 40.8701 40.1894 40.4458C39.1699 40.0215 38.0766 39.8031 36.9723 39.8031C35.868 39.8031 34.7747 40.0216 33.7552 40.4459C32.7357 40.8702 31.8102 41.4919 31.0319 42.2754C25.781 47.5054 29.5108 56.864 36.977 56.8098ZM33.9167 45.1138C38.2263 41.0199 43.9193 47.2929 40.028 51.4843C35.721 55.5768 30.0244 49.3087 33.9167 45.1138Z" fill="#1A5C4B"/>
<path d="M29.2104 58.9271L31.4109 56.7081C30.3196 55.9723 29.386 55.0262 28.6649 53.9251L26.4736 56.1534L29.2104 58.9271Z" fill="#1A5C4B"/>
<path d="M29.7652 61.7656C28.3262 60.2964 25.0934 57.0405 23.6537 55.5709C22.8246 56.4054 21.1516 58.0691 20.3252 58.8993L15.8502 63.3744C11.8769 67.6068 17.7893 73.7236 22.0635 69.6707C23.7476 67.9722 28.0264 63.6363 29.7652 61.8765C29.7738 61.87 29.7808 61.8617 29.7856 61.8521C29.7904 61.8424 29.7929 61.8318 29.7929 61.8211C29.7929 61.8103 29.7904 61.7997 29.7856 61.7901C29.7808 61.7804 29.7738 61.7721 29.7652 61.7656ZM26.6493 62.3851C25.699 63.3459 21.6022 67.4962 20.732 68.3672C18.3069 70.7036 14.8658 67.0923 17.1169 64.7427C17.2676 64.5968 17.4694 64.5158 17.679 64.5171C17.8887 64.5184 18.0895 64.6018 18.2384 64.7494C18.3872 64.8971 18.4722 65.0972 18.4752 65.3069C18.4781 65.5165 18.3988 65.719 18.2541 65.8708C17.4111 66.7322 18.749 68.0848 19.5948 67.2483L25.5121 61.2571C25.6631 61.1128 25.8643 61.0332 26.0731 61.0351C26.2819 61.037 26.4817 61.1204 26.6299 61.2674C26.7781 61.4144 26.8631 61.6135 26.8668 61.8223C26.8704 62.031 26.7924 62.233 26.6493 62.3851Z" fill="#1A5C4B"/>
<path d="M56.042 15H25.355C24.9045 14.9998 24.4584 15.0885 24.0422 15.2608C23.6259 15.4331 23.2477 15.6858 22.9292 16.0043C22.6106 16.3229 22.3579 16.7011 22.1856 17.1174C22.0133 17.5336 21.9246 17.9797 21.9248 18.4302V54.9606L22.4241 54.4521C22.7416 54.1452 23.166 53.9736 23.6076 53.9736C24.0492 53.9736 24.4735 54.1452 24.7911 54.4521L25.3458 55.0161L27.8607 52.4642C24.8428 46.069 29.7084 38.0742 36.9771 38.1886C45.8521 38.135 50.296 49.2277 44.05 55.4506C42.6174 56.8963 40.7766 57.8688 38.775 58.2374C36.7734 58.606 34.7069 58.353 32.8534 57.5123L30.3386 60.0643L30.9026 60.6375C31.2136 60.9529 31.3881 61.3781 31.3881 61.821C31.3881 62.264 31.2136 62.6892 30.9026 63.0045L26.8528 67.1004H49.0615C49.1053 64.9404 48.7594 61.4675 49.9583 59.6391C50.3426 58.8661 50.9345 58.2154 51.6677 57.7597C52.4009 57.3041 53.2464 57.0616 54.1097 57.0594L59.4631 57.0502V18.4302C59.4639 17.5218 59.104 16.6502 58.4625 16.007C57.8211 15.3638 56.9505 15.0016 56.042 15ZM31.4665 33.7414C29.474 33.7159 27.5728 32.9017 26.1795 31.4772C24.7861 30.0526 24.0142 28.1338 24.0329 26.1412C24.0149 25.1536 24.1939 24.1723 24.5594 23.2547C24.9249 22.337 25.4696 21.5014 26.1616 20.7966C26.8537 20.0918 27.6792 19.532 28.5901 19.1498C29.5009 18.7677 30.4788 18.5709 31.4666 18.5709C32.4543 18.5709 33.4322 18.7677 34.3431 19.1499C35.2539 19.532 36.0795 20.0919 36.7715 20.7967C37.4636 21.5014 38.0083 22.3371 38.3738 23.2547C38.7392 24.1724 38.9182 25.1537 38.9002 26.1413C38.9188 28.1339 38.1469 30.0526 36.7536 31.4772C35.3602 32.9017 33.4591 33.7159 31.4665 33.7414ZM42.4321 29.6177C42.2211 29.616 42.0193 29.531 41.8707 29.3812C41.7221 29.2314 41.6387 29.0289 41.6387 28.8179C41.6387 28.6069 41.7221 28.4044 41.8707 28.2546C42.0194 28.1048 42.2212 28.0199 42.4322 28.0182H53.7676C53.873 28.0175 53.9775 28.0378 54.0751 28.0777C54.1727 28.1176 54.2615 28.1764 54.3363 28.2507C54.411 28.325 54.4704 28.4134 54.5109 28.5107C54.5514 28.6081 54.5722 28.7125 54.5722 28.8179C54.5722 28.9234 54.5514 29.0278 54.5109 29.1251C54.4704 29.2225 54.411 29.3109 54.3363 29.3852C54.2615 29.4595 54.1727 29.5183 54.0751 29.5582C53.9775 29.5981 53.873 29.6183 53.7676 29.6177H42.4321ZM56.5228 36.8572H45.1781C45.0727 36.8579 44.9681 36.8377 44.8705 36.7978C44.7729 36.7579 44.6842 36.6991 44.6094 36.6247C44.5346 36.5504 44.4753 36.462 44.4348 36.3647C44.3943 36.2673 44.3734 36.1629 44.3734 36.0575C44.3734 35.952 44.3943 35.8476 44.4348 35.7503C44.4753 35.6529 44.5346 35.5645 44.6094 35.4902C44.6842 35.4159 44.7729 35.3571 44.8705 35.3172C44.9681 35.2773 45.0727 35.257 45.1781 35.2577H56.5228C56.7317 35.2626 56.9303 35.3491 57.0762 35.4985C57.2221 35.648 57.3039 35.8486 57.3039 36.0575C57.3039 36.2664 57.2221 36.467 57.0762 36.6164C56.9303 36.7658 56.7316 36.8523 56.5228 36.8572ZM56.5506 24.2643H42.4321C42.2213 24.2624 42.0198 24.1772 41.8714 24.0274C41.723 23.8777 41.6398 23.6754 41.6398 23.4645C41.6398 23.2537 41.7231 23.0514 41.8715 22.9016C42.0198 22.7519 42.2214 22.6668 42.4322 22.6648H56.5506C56.7614 22.6668 56.9629 22.7519 57.1113 22.9017C57.2597 23.0514 57.3429 23.2537 57.3429 23.4646C57.3429 23.6754 57.2597 23.8777 57.1113 24.0275C56.9629 24.1772 56.7614 24.2624 56.5506 24.2643Z" fill="#1A5C4B"/>
<path d="M31.4665 20.1314C29.8968 20.1574 28.4013 20.8045 27.3078 21.9309C26.2142 23.0574 25.6118 24.5714 25.6324 26.1412C25.6162 26.9176 25.7552 27.6894 26.0412 28.4113C26.3271 29.1333 26.7543 29.7909 27.2976 30.3456C27.841 30.9004 28.4896 31.3411 29.2054 31.642C29.9213 31.9429 30.69 32.0979 31.4665 32.0979C32.2431 32.0979 33.0118 31.9429 33.7276 31.642C34.4435 31.3411 35.0921 30.9004 35.6354 30.3456C36.1788 29.7908 36.6059 29.1332 36.8919 28.4112C37.1778 27.6893 37.3168 26.9175 37.3006 26.1412C37.3213 24.5714 36.7188 23.0574 35.6253 21.9309C34.5317 20.8045 33.0363 20.1574 31.4665 20.1314ZM34.8228 24.9116L31.4388 28.7393C31.3637 28.8244 31.2711 28.8924 31.1674 28.9387C31.0638 28.9849 30.9514 29.0084 30.8378 29.0075C30.7107 29.0108 30.5848 28.982 30.4717 28.9238C30.3586 28.8656 30.2619 28.7799 30.1906 28.6746L28.4894 26.3077C28.371 26.1346 28.3251 25.922 28.3616 25.7155C28.398 25.509 28.5139 25.325 28.6844 25.2029C28.8549 25.0808 29.0664 25.0303 29.2736 25.0623C29.4809 25.0943 29.6673 25.2061 29.7931 25.3739L30.9025 26.9272L33.6301 23.8483C33.7723 23.6948 33.9691 23.6033 34.1781 23.5933C34.3871 23.5833 34.5917 23.6558 34.7479 23.795C34.9041 23.9342 34.9994 24.1292 35.0134 24.338C35.0274 24.5468 34.959 24.7527 34.8228 24.9116Z" fill="#1A5C4B"/>
<rect x="41.7212" y="31.9836" width="16.7869" height="6.29508" fill="#1A5C4B"/>
</g>
<defs>
<filter id="filter0_d_730_6116" x="-120" y="-32" width="321" height="304" filterUnits="userSpaceOnUse" color-interpolation-filters="sRGB">
<feFlood flood-opacity="0" result="BackgroundImageFix"/>
<feColorMatrix in="SourceAlpha" type="matrix" values="0 0 0 0 0 0 0 0 0 0 0 0 0 0 0 0 0 0 127 0" result="hardAlpha"/>
<feOffset dy="4"/>
<feGaussianBlur stdDeviation="10"/>
<feColorMatrix type="matrix" values="0 0 0 0 0 0 0 0 0 0 0 0 0 0 0 0 0 0 0.1 0"/>
<feBlend mode="normal" in2="BackgroundImageFix" result="effect1_dropShadow_730_6116"/>
<feBlend mode="normal" in="SourceGraphic" in2="effect1_dropShadow_730_6116" result="shape"/>
</filter>
<clipPath id="clip0_730_6116">
<rect width="1920" height="2274" fill="white" transform="translate(-765 -703)"/>
</clipPath>
</defs>
</svg>
