<svg width="96" height="96" viewBox="0 0 96 96" fill="none" xmlns="http://www.w3.org/2000/svg">
<rect width="96" height="96" fill="#F5F5F5"/>
<g clip-path="url(#clip0_730_6116)">
<path d="M92.16 0.5H3.84C1.99537 0.5 0.5 1.99537 0.5 3.84V92.16C0.5 94.0046 1.99537 95.5 3.84 95.5H92.16C94.0046 95.5 95.5 94.0046 95.5 92.16V3.84C95.5 1.99537 94.0046 0.5 92.16 0.5Z" fill="white"/>
<path d="M96 24H0V96H96V24Z" fill="url(#paint0_linear_730_6116)"/>
<path d="M48.0502 65.2623C57.3699 65.3289 62.033 53.6146 55.4698 47.0941C54.497 46.1148 53.3401 45.3376 52.0657 44.8073C50.7913 44.2769 49.4246 44.0039 48.0443 44.0039C46.6639 44.0039 45.2972 44.277 44.0228 44.8074C42.7485 45.3377 41.5916 46.115 40.6188 47.0943C34.0551 53.6318 38.7173 65.3301 48.0502 65.2623ZM44.2247 50.6423C49.6118 45.5249 56.7281 53.3662 51.864 58.6054C46.4802 63.7211 39.3594 55.8859 44.2247 50.6423Z" fill="url(#paint1_linear_730_6116)"/>
<path d="M38.3418 67.909L41.0925 65.1352C39.7283 64.2155 38.5613 63.0328 37.66 61.6564L34.9209 64.4418L38.3418 67.909Z" fill="url(#paint2_linear_730_6116)"/>
<path d="M39.0351 71.4571C37.2364 69.6206 33.1954 65.5507 31.3957 63.7136C30.3593 64.7568 28.2681 66.8364 27.2351 67.8743L21.6413 73.468C16.6747 78.7585 24.0652 86.4046 29.408 81.3384C31.5131 79.2154 36.8616 73.7955 39.0351 71.5957C39.0459 71.5876 39.0546 71.5772 39.0606 71.5651C39.0667 71.5531 39.0698 71.5399 39.0698 71.5264C39.0698 71.513 39.0667 71.4997 39.0607 71.4877C39.0546 71.4756 39.0459 71.4652 39.0351 71.4571ZM35.1403 72.2314C33.9523 73.4324 28.8313 78.6204 27.7437 79.7091C24.7123 82.6296 20.4109 78.1154 23.2248 75.1784C23.4131 74.9961 23.6653 74.8949 23.9274 74.8965C24.1895 74.898 24.4405 75.0023 24.6266 75.1869C24.8126 75.3715 24.9189 75.6216 24.9226 75.8837C24.9263 76.1458 24.8271 76.3988 24.6463 76.5886C23.5925 77.6654 25.2648 79.3561 26.3221 78.3105L33.7188 70.8214C33.9075 70.6411 34.1591 70.5415 34.42 70.5439C34.681 70.5464 34.9307 70.6506 35.116 70.8343C35.3013 71.0181 35.4075 71.267 35.4121 71.5279C35.4166 71.7889 35.3191 72.0413 35.1403 72.2314Z" fill="url(#paint3_linear_730_6116)"/>
<path d="M71.881 13H33.5222C32.9591 12.9998 32.4014 13.1106 31.8811 13.326C31.3608 13.5414 30.8881 13.8572 30.4899 14.2554C30.0917 14.6536 29.7758 15.1264 29.5604 15.6467C29.345 16.167 29.2342 16.7247 29.2344 17.2878V62.9508L29.8585 62.3152C30.2554 61.9316 30.7859 61.7171 31.3379 61.7171C31.8899 61.7171 32.4203 61.9316 32.8173 62.3152L33.5106 63.0202L36.6542 59.8303C32.882 51.8362 38.964 41.8428 48.0498 41.9858C59.1436 41.9188 64.6984 55.7847 56.8909 63.5634C55.1002 65.3705 52.7992 66.5861 50.2972 67.0468C47.7952 67.5075 45.2121 67.1913 42.8952 66.1405L39.7516 69.3304L40.4566 70.047C40.8455 70.4412 41.0635 70.9726 41.0635 71.5264C41.0635 72.0801 40.8455 72.6115 40.4566 73.0057L35.3945 78.1256H63.1553C63.2101 75.4256 62.7777 71.0844 64.2763 68.7989C64.7567 67.8327 65.4965 67.0193 66.413 66.4497C67.3295 65.8802 68.3865 65.5771 69.4656 65.5744L76.1573 65.5628V17.2878C76.1583 16.1523 75.7085 15.0628 74.9067 14.2588C74.1048 13.4548 73.0165 13.002 71.881 13ZM41.1616 36.4268C38.671 36.3949 36.2945 35.3772 34.5528 33.5965C32.8111 31.8158 31.8462 29.4173 31.8695 26.9266C31.847 25.6921 32.0708 24.4654 32.5276 23.3184C32.9845 22.1713 33.6654 21.1268 34.5304 20.2458C35.3955 19.3648 36.4275 18.665 37.566 18.1873C38.7046 17.7096 39.9269 17.4636 41.1617 17.4636C42.3964 17.4636 43.6187 17.7096 44.7573 18.1873C45.8958 18.665 46.9278 19.3648 47.7928 20.2458C48.6579 21.1268 49.3388 22.1714 49.7956 23.3184C50.2525 24.4655 50.4762 25.6921 50.4537 26.9266C50.477 29.4174 49.5121 31.8158 47.7704 33.5965C46.0287 35.3772 43.6523 36.3949 41.1616 36.4268ZM54.8686 31.2721C54.6048 31.27 54.3526 31.1638 54.1668 30.9765C53.981 30.7893 53.8768 30.5362 53.8768 30.2724C53.8768 30.0086 53.9811 29.7556 54.1669 29.5683C54.3526 29.3811 54.6049 29.2748 54.8687 29.2728H69.0379C69.1697 29.272 69.3004 29.2972 69.4224 29.3471C69.5444 29.397 69.6553 29.4705 69.7488 29.5634C69.8423 29.6563 69.9164 29.7668 69.9671 29.8885C70.0177 30.0101 70.0438 30.1406 70.0438 30.2724C70.0438 30.4042 70.0177 30.5347 69.9671 30.6564C69.9164 30.7781 69.8423 30.8886 69.7488 30.9815C69.6553 31.0744 69.5444 31.1479 69.4224 31.1978C69.3004 31.2477 69.1697 31.2729 69.0379 31.2721H54.8686ZM72.482 40.3216H58.3011C58.1693 40.3224 58.0386 40.2971 57.9166 40.2472C57.7946 40.1974 57.6837 40.1239 57.5902 40.0309C57.4967 39.938 57.4225 39.8276 57.3719 39.7059C57.3213 39.5842 57.2952 39.4537 57.2952 39.3219C57.2952 39.1901 57.3213 39.0596 57.3719 38.9379C57.4225 38.8162 57.4967 38.7057 57.5902 38.6128C57.6837 38.5199 57.7946 38.4464 57.9166 38.3965C58.0386 38.3466 58.1693 38.3213 58.3011 38.3221H72.482C72.743 38.3283 72.9913 38.4364 73.1737 38.6232C73.3562 38.81 73.4583 39.0608 73.4583 39.3219C73.4583 39.583 73.3562 39.8337 73.1737 40.0205C72.9913 40.2073 72.743 40.3154 72.482 40.3216ZM72.5167 24.5804H54.8686C54.6051 24.578 54.3532 24.4715 54.1677 24.2843C53.9822 24.0971 53.8782 23.8442 53.8782 23.5807C53.8782 23.3171 53.9823 23.0643 54.1678 22.8771C54.3532 22.6899 54.6051 22.5835 54.8687 22.581H72.5167C72.7802 22.5835 73.0321 22.6899 73.2176 22.8771C73.4031 23.0643 73.5071 23.3172 73.5071 23.5807C73.5071 23.8443 73.4031 24.0971 73.2176 24.2843C73.0321 24.4716 72.7802 24.578 72.5167 24.5804Z" fill="url(#paint4_linear_730_6116)"/>
<path d="M41.1615 19.4143C39.1993 19.4467 37.33 20.2556 35.9631 21.6637C34.5961 23.0718 33.843 24.9643 33.8688 26.9266C33.8486 27.897 34.0224 28.8617 34.3798 29.7642C34.7372 30.6666 35.2712 31.4886 35.9504 32.1821C36.6296 32.8755 37.4403 33.4264 38.3352 33.8025C39.23 34.1786 40.1909 34.3724 41.1615 34.3724C42.1322 34.3724 43.0931 34.1786 43.9879 33.8025C44.8827 33.4264 45.6935 32.8755 46.3727 32.182C47.0518 31.4886 47.5858 30.6665 47.9432 29.7641C48.3006 28.8616 48.4744 27.8969 48.4542 26.9265C48.4799 24.9642 47.7269 23.0717 46.3599 21.6637C44.993 20.2556 43.1237 19.4467 41.1615 19.4143ZM45.3569 25.3895L41.1269 30.1742C41.0329 30.2806 40.9173 30.3655 40.7877 30.4234C40.6581 30.4812 40.5176 30.5105 40.3757 30.5094C40.2167 30.5135 40.0593 30.4775 39.918 30.4048C39.7766 30.3321 39.6558 30.225 39.5666 30.0933L37.4401 27.1346C37.2921 26.9183 37.2348 26.6526 37.2803 26.3944C37.3259 26.1363 37.4707 25.9063 37.6838 25.7537C37.8969 25.6011 38.1613 25.538 38.4204 25.5779C38.6794 25.6179 38.9125 25.7577 39.0697 25.9674L40.4565 27.909L43.866 24.0604C44.0438 23.8685 44.2898 23.7541 44.551 23.7416C44.8123 23.7292 45.068 23.8197 45.2632 23.9938C45.4585 24.1678 45.5777 24.4115 45.5952 24.6725C45.6127 24.9335 45.5271 25.1909 45.3569 25.3895Z" fill="url(#paint5_linear_730_6116)"/>
<path d="M74.9636 34.2295H53.98V42.0984H74.9636V34.2295Z" fill="url(#paint6_linear_730_6116)"/>
<path d="M92.16 0.5H3.84C1.99537 0.5 0.5 1.99537 0.5 3.84V92.16C0.5 94.0046 1.99537 95.5 3.84 95.5H92.16C94.0046 95.5 95.5 94.0046 95.5 92.16V3.84C95.5 1.99537 94.0046 0.5 92.16 0.5Z" stroke="#1A5C4B"/>
</g>
<defs>
<linearGradient id="paint0_linear_730_6116" x1="48" y1="24" x2="48" y2="96" gradientUnits="userSpaceOnUse">
<stop stop-color="white"/>
<stop offset="1" stop-color="#DBEFBC" stop-opacity="0.5"/>
</linearGradient>
<linearGradient id="paint1_linear_730_6116" x1="48.0442" y1="44.0039" x2="48.0442" y2="65.2626" gradientUnits="userSpaceOnUse">
<stop stop-color="#1A5C4B"/>
<stop offset="1" stop-color="#91C543"/>
</linearGradient>
<linearGradient id="paint2_linear_730_6116" x1="38.0067" y1="61.6564" x2="38.0067" y2="67.909" gradientUnits="userSpaceOnUse">
<stop stop-color="#1A5C4B"/>
<stop offset="1" stop-color="#91C543"/>
</linearGradient>
<linearGradient id="paint3_linear_730_6116" x1="29.5349" y1="63.7136" x2="29.5349" y2="83" gradientUnits="userSpaceOnUse">
<stop stop-color="#1A5C4B"/>
<stop offset="1" stop-color="#91C543"/>
</linearGradient>
<linearGradient id="paint4_linear_730_6116" x1="52.6959" y1="13" x2="52.6959" y2="78.1256" gradientUnits="userSpaceOnUse">
<stop stop-color="#1A5C4B"/>
<stop offset="1" stop-color="#91C543"/>
</linearGradient>
<linearGradient id="paint5_linear_730_6116" x1="41.1615" y1="19.4143" x2="41.1615" y2="34.3724" gradientUnits="userSpaceOnUse">
<stop stop-color="#1A5C4B"/>
<stop offset="1" stop-color="#91C543"/>
</linearGradient>
<linearGradient id="paint6_linear_730_6116" x1="64.4718" y1="34.2295" x2="64.4718" y2="42.0984" gradientUnits="userSpaceOnUse">
<stop stop-color="#1A5C4B"/>
<stop offset="1" stop-color="#91C543"/>
</linearGradient>
<clipPath id="clip0_730_6116">
<rect width="96" height="96" fill="white"/>
</clipPath>
</defs>
</svg>
