<svg width="45" height="41" viewBox="0 0 45 41" fill="none" xmlns="http://www.w3.org/2000/svg">
<path d="M13.387 3V7.25H8.88141V11.5H17.8927V3H13.387ZM30.8689 3.1275C30.0579 3.17 29.2469 3.255 28.4809 3.51C27.2644 3.935 26.0929 4.5725 25.1017 5.5075L23.1192 7.3775C22.834 7.54804 22.5931 7.77688 22.4143 8.04708C22.2355 8.31729 22.1234 8.62196 22.0862 8.93855C22.0491 9.25515 22.0879 9.57556 22.1997 9.87611C22.3116 10.1767 22.4936 10.4496 22.7324 10.6749C22.9712 10.9001 23.2606 11.0718 23.5792 11.1773C23.8978 11.2828 24.2375 11.3194 24.5731 11.2844C24.9088 11.2493 25.2318 11.1436 25.5182 10.9749C25.8047 10.8063 26.0473 10.579 26.2281 10.31L28.2106 8.44C28.7062 7.9725 29.2919 7.7175 29.9227 7.505C31.4997 6.995 33.4371 7.2075 34.6987 8.44C36.4559 10.0975 36.4559 12.86 34.6987 14.56L27.9402 20.935C27.655 21.1055 27.4141 21.3344 27.2353 21.6046C27.0565 21.8748 26.9444 22.1795 26.9073 22.4961C26.8701 22.8126 26.9089 23.1331 27.0207 23.4336C27.1326 23.7342 27.3146 24.0071 27.5534 24.2324C27.7922 24.4576 28.0816 24.6293 28.4002 24.7348C28.7188 24.8403 29.0585 24.8769 29.3942 24.8419C29.7298 24.8068 30.0528 24.7011 30.3393 24.5324C30.6257 24.3638 30.8683 24.1365 31.0491 23.8675L37.8076 17.4925C41.322 14.1775 41.322 8.8225 37.8076 5.55C36.546 4.36 35.0591 3.6375 33.4371 3.2975C32.6261 3.1275 31.725 3.1275 30.9139 3.17L30.8689 3.1275ZM14.6937 15.495C14.3522 15.6501 14.0578 15.884 13.8376 16.175L7.07915 22.55C3.56476 25.865 3.56476 31.22 7.07915 34.4925C9.60231 36.8725 13.2068 37.5525 16.3608 36.49C17.5773 36.065 18.7487 35.4275 19.74 34.4925L21.7225 32.6225C22.0077 32.452 22.2486 32.2231 22.4274 31.9529C22.6062 31.6827 22.7183 31.378 22.7554 31.0614C22.7926 30.7449 22.7538 30.4244 22.6419 30.1239C22.5301 29.8233 22.3481 29.5504 22.1093 29.3251C21.8705 29.0999 21.5811 28.9282 21.2625 28.8227C20.9438 28.7172 20.6042 28.6806 20.2685 28.7156C19.9329 28.7507 19.6099 28.8564 19.3234 29.0251C19.037 29.1937 18.7944 29.421 18.6136 29.69L16.6311 31.56C16.1355 32.0275 15.5497 32.2825 14.919 32.495C13.342 33.005 11.4046 32.7925 10.143 31.56C8.38579 29.9025 8.38579 27.14 10.143 25.44L16.9014 19.065C17.2286 18.7437 17.4404 18.3335 17.507 17.8924C17.5735 17.4513 17.4914 17.0017 17.2722 16.607C17.0531 16.2124 16.7079 15.8927 16.2857 15.6931C15.8634 15.4936 15.3853 15.4243 14.919 15.495C14.8289 15.4899 14.7386 15.4899 14.6486 15.495H14.6937ZM26.949 28.5V37H31.4546V32.75H35.9603V28.5H26.949Z" fill="#85BC31"/>
</svg>
