<svg width="81" height="80" viewBox="0 0 81 80" fill="none" xmlns="http://www.w3.org/2000/svg">
<rect width="81" height="80" fill="#F5F5F5"/>
<g clip-path="url(#clip0_730_6116)">
<rect width="1920" height="2274" transform="translate(-460 -399)" fill="white"/>
<g filter="url(#filter0_d_730_6116)">
<path d="M-100 -4C-100 -10.6274 -94.6274 -16 -88 -16H169C175.627 -16 181 -10.6274 181 -4V236C181 242.627 175.627 248 169 248H-88C-94.6274 248 -100 242.627 -100 236V-4Z" fill="white"/>
<path d="M-99.5 -4C-99.5 -10.3513 -94.3513 -15.5 -88 -15.5H169C175.351 -15.5 180.5 -10.3513 180.5 -4V236C180.5 242.351 175.351 247.5 169 247.5H-88C-94.3513 247.5 -99.5 242.351 -99.5 236V-4Z" stroke="#D7DEDA"/>
</g>
<rect x="0.5" width="80" height="80" rx="40" fill="#D0F19E"/>
<circle opacity="0.6" cx="40.5" cy="40.5" r="30.5" fill="white"/>
<path fill-rule="evenodd" clip-rule="evenodd" d="M60.1327 58.0265L59.816 58.3386C50.6282 67.3941 36.6599 57.6565 29.5334 50.6327C22.4069 43.6088 12.5271 29.8418 21.7149 20.7862L22.0316 20.4741L32.2834 30.5784L31.0128 31.8307C29.7257 33.0992 29.5318 35.0392 30.5429 36.5308C32.1812 38.9475 34.2028 41.3833 36.5604 43.7069C38.918 46.0305 41.3895 48.023 43.8414 49.6376C45.3548 50.6342 47.3231 50.4432 48.6102 49.1747L49.8808 47.9223L60.1327 58.0265ZM43.4648 20.6679C42.3805 20.6679 41.4934 21.398 41.4934 22.2905V37.1814C41.4934 37.3567 41.5914 37.5067 41.7534 37.5792C41.9153 37.6517 42.0944 37.6258 42.2284 37.5106L46.4531 33.8748H60.0287C61.1128 33.8748 62 33.1445 62 32.2521V22.2905C62 21.3982 61.1129 20.6679 60.0287 20.6679H43.4648ZM47.0705 26.0512C46.3868 26.0512 45.8326 26.5975 45.8326 27.2713C45.8326 27.9451 46.3868 28.4914 47.0705 28.4914C47.7542 28.4914 48.3084 27.9451 48.3084 27.2713C48.3084 26.5975 47.7542 26.0512 47.0705 26.0512ZM56.423 26.0512C55.7393 26.0512 55.1851 26.5975 55.1851 27.2713C55.1851 27.9451 55.7393 28.4914 56.423 28.4914C57.1067 28.4914 57.6609 27.9451 57.6609 27.2713C57.6609 26.5975 57.1067 26.0512 56.423 26.0512ZM51.7467 26.0512C51.063 26.0512 50.5088 26.5975 50.5088 27.2713C50.5088 27.9451 51.063 28.4914 51.7467 28.4914C52.4304 28.4914 52.9846 27.9451 52.9846 27.2713C52.9847 26.5975 52.4304 26.0512 51.7467 26.0512ZM23.4287 19.3791L33.3945 29.2014C34.0851 27.8116 33.8457 26.0801 32.676 24.9272L27.7654 20.0873C26.5956 18.9344 24.8389 18.6984 23.4287 19.3791ZM51.278 46.8272L61.2437 56.6495C61.9343 55.2596 61.6949 53.5282 60.5252 52.3753L55.6146 47.5354C54.4449 46.3826 52.6881 46.1466 51.278 46.8272Z" fill="#1A5C4B"/>
</g>
<defs>
<filter id="filter0_d_730_6116" x="-120" y="-32" width="321" height="304" filterUnits="userSpaceOnUse" color-interpolation-filters="sRGB">
<feFlood flood-opacity="0" result="BackgroundImageFix"/>
<feColorMatrix in="SourceAlpha" type="matrix" values="0 0 0 0 0 0 0 0 0 0 0 0 0 0 0 0 0 0 127 0" result="hardAlpha"/>
<feOffset dy="4"/>
<feGaussianBlur stdDeviation="10"/>
<feColorMatrix type="matrix" values="0 0 0 0 0 0 0 0 0 0 0 0 0 0 0 0 0 0 0.1 0"/>
<feBlend mode="normal" in2="BackgroundImageFix" result="effect1_dropShadow_730_6116"/>
<feBlend mode="normal" in="SourceGraphic" in2="effect1_dropShadow_730_6116" result="shape"/>
</filter>
<clipPath id="clip0_730_6116">
<rect width="1920" height="2274" fill="white" transform="translate(-460 -399)"/>
</clipPath>
</defs>
</svg>
