<svg width="96" height="96" viewBox="0 0 96 96" fill="none" xmlns="http://www.w3.org/2000/svg">
<rect width="96" height="96" fill="#F5F5F5"/>
<g clip-path="url(#clip0_730_6116)">
<path d="M92.16 0.5H3.84C1.99537 0.5 0.5 1.99537 0.5 3.84V92.16C0.5 94.0046 1.99537 95.5 3.84 95.5H92.16C94.0046 95.5 95.5 94.0046 95.5 92.16V3.84C95.5 1.99537 94.0046 0.5 92.16 0.5Z" fill="white"/>
<path d="M96 24H0V96H96V24Z" fill="url(#paint0_linear_730_6116)"/>
<path d="M80.3748 26H15.6252C10.3156 26 6 30.1786 6 35.3197V77.6804C6 82.8214 10.3156 87 15.6252 87H80.3748C85.6844 87 90 82.8214 90 77.6804V35.3197C90 30.1786 85.6844 26 80.3748 26ZM32.25 39.5553C37.0732 39.5553 40.9998 43.3579 40.9998 48.028C40.9998 52.6974 37.0732 56.5 32.25 56.5C27.4268 56.5 23.5002 52.6974 23.5002 48.028C23.5002 43.3579 27.4268 39.5553 32.25 39.5553ZM48 70.903C48 72.306 46.824 73.4447 45.375 73.4447H19.125C17.676 73.4447 16.5 72.306 16.5 70.903V69.2083C16.5 64.0673 20.8156 59.8887 26.1252 59.8887H38.3748C43.6844 59.8887 48 64.0673 48 69.2083V70.903ZM76.875 73.4447H57.6252C56.1762 73.4447 55.0002 72.306 55.0002 70.903C55.0002 69.5 56.1762 68.3613 57.6252 68.3613H76.875C78.324 68.3613 79.5 69.5 79.5 70.903C79.5 72.306 78.324 73.4447 76.875 73.4447ZM76.875 59.8887H57.6252C56.1762 59.8887 55.0002 58.75 55.0002 57.347C55.0002 55.944 56.1762 54.8053 57.6252 54.8053H76.875C78.324 54.8053 79.5 55.944 79.5 57.347C79.5 58.75 78.324 59.8887 76.875 59.8887ZM76.875 46.3333H57.6252C56.1762 46.3333 55.0002 45.1947 55.0002 43.7917C55.0002 42.3887 56.1762 41.25 57.6252 41.25H76.875C78.324 41.25 79.5 42.3887 79.5 43.7917C79.5 45.1947 78.324 46.3333 76.875 46.3333Z" fill="url(#paint1_linear_730_6116)"/>
<path d="M92.16 0.5H3.84C1.99537 0.5 0.5 1.99537 0.5 3.84V92.16C0.5 94.0046 1.99537 95.5 3.84 95.5H92.16C94.0046 95.5 95.5 94.0046 95.5 92.16V3.84C95.5 1.99537 94.0046 0.5 92.16 0.5Z" stroke="#1A5C4B"/>
</g>
<defs>
<linearGradient id="paint0_linear_730_6116" x1="48" y1="24" x2="48" y2="96" gradientUnits="userSpaceOnUse">
<stop stop-color="white"/>
<stop offset="1" stop-color="#DBEFBC" stop-opacity="0.5"/>
</linearGradient>
<linearGradient id="paint1_linear_730_6116" x1="48" y1="26" x2="48" y2="87" gradientUnits="userSpaceOnUse">
<stop stop-color="#1A5C4B"/>
<stop offset="1" stop-color="#91C543"/>
</linearGradient>
<clipPath id="clip0_730_6116">
<rect width="96" height="96" fill="white"/>
</clipPath>
</defs>
</svg>
