<svg width="81" height="80" viewBox="0 0 81 80" fill="none" xmlns="http://www.w3.org/2000/svg">
<rect width="81" height="80" fill="#F5F5F5"/>
<g clip-path="url(#clip0_730_6116)">
<rect width="1920" height="2274" transform="translate(-1066 -399)" fill="white"/>
<g filter="url(#filter0_d_730_6116)">
<path d="M-100 -4C-100 -10.6274 -94.6274 -16 -88 -16H169C175.627 -16 181 -10.6274 181 -4V236C181 242.627 175.627 248 169 248H-88C-94.6274 248 -100 242.627 -100 236V-4Z" fill="white"/>
<path d="M-99.5 -4C-99.5 -10.3513 -94.3513 -15.5 -88 -15.5H169C175.351 -15.5 180.5 -10.3513 180.5 -4V236C180.5 242.351 175.351 247.5 169 247.5H-88C-94.3513 247.5 -99.5 242.351 -99.5 236V-4Z" stroke="#D7DEDA"/>
</g>
<rect x="0.5" width="80" height="80" rx="40" fill="#D0F19E"/>
<circle opacity="0.6" cx="40" cy="40" r="27" fill="white"/>
<path d="M56.9582 24H23.0418C20.2606 24 18 26.1921 18 28.889V51.111C18 53.8079 20.2606 56 23.0418 56H56.9582C59.7394 56 62 53.8079 62 51.111V28.889C62 26.1921 59.7394 24 56.9582 24ZM31.75 31.111C34.2764 31.111 36.3332 33.1058 36.3332 35.5557C36.3332 38.0052 34.2764 40 31.75 40C29.2236 40 27.1668 38.0052 27.1668 35.5557C27.1668 33.1058 29.2236 31.111 31.75 31.111ZM40 47.5557C40 48.2917 39.384 48.889 38.625 48.889H24.875C24.116 48.889 23.5 48.2917 23.5 47.5557V46.6667C23.5 43.9697 25.7606 41.7777 28.5418 41.7777H34.9582C37.7394 41.7777 40 43.9697 40 46.6667V47.5557ZM55.125 48.889H45.0418C44.2828 48.889 43.6668 48.2917 43.6668 47.5557C43.6668 46.8197 44.2828 46.2223 45.0418 46.2223H55.125C55.884 46.2223 56.5 46.8197 56.5 47.5557C56.5 48.2917 55.884 48.889 55.125 48.889ZM55.125 41.7777H45.0418C44.2828 41.7777 43.6668 41.1803 43.6668 40.4443C43.6668 39.7083 44.2828 39.111 45.0418 39.111H55.125C55.884 39.111 56.5 39.7083 56.5 40.4443C56.5 41.1803 55.884 41.7777 55.125 41.7777ZM55.125 34.6667H45.0418C44.2828 34.6667 43.6668 34.0693 43.6668 33.3333C43.6668 32.5973 44.2828 32 45.0418 32H55.125C55.884 32 56.5 32.5973 56.5 33.3333C56.5 34.0693 55.884 34.6667 55.125 34.6667Z" fill="#1A5C4B"/>
</g>
<defs>
<filter id="filter0_d_730_6116" x="-120" y="-32" width="321" height="304" filterUnits="userSpaceOnUse" color-interpolation-filters="sRGB">
<feFlood flood-opacity="0" result="BackgroundImageFix"/>
<feColorMatrix in="SourceAlpha" type="matrix" values="0 0 0 0 0 0 0 0 0 0 0 0 0 0 0 0 0 0 127 0" result="hardAlpha"/>
<feOffset dy="4"/>
<feGaussianBlur stdDeviation="10"/>
<feColorMatrix type="matrix" values="0 0 0 0 0 0 0 0 0 0 0 0 0 0 0 0 0 0 0.1 0"/>
<feBlend mode="normal" in2="BackgroundImageFix" result="effect1_dropShadow_730_6116"/>
<feBlend mode="normal" in="SourceGraphic" in2="effect1_dropShadow_730_6116" result="shape"/>
</filter>
<clipPath id="clip0_730_6116">
<rect width="1920" height="2274" fill="white" transform="translate(-1066 -399)"/>
</clipPath>
</defs>
</svg>
