<svg width="81" height="80" viewBox="0 0 81 80" fill="none" xmlns="http://www.w3.org/2000/svg">
<rect width="81" height="80" fill="#F5F5F5"/>
<g clip-path="url(#clip0_730_6116)">
<rect width="1920" height="2274" transform="translate(-1375 -1007)" fill="white"/>
<g filter="url(#filter0_d_730_6116)">
<path d="M-100 -4C-100 -10.6274 -94.6274 -16 -88 -16H169C175.627 -16 181 -10.6274 181 -4V236C181 242.627 175.627 248 169 248H-88C-94.6274 248 -100 242.627 -100 236V-4Z" fill="white"/>
<path d="M-99.5 -4C-99.5 -10.3513 -94.3513 -15.5 -88 -15.5H169C175.351 -15.5 180.5 -10.3513 180.5 -4V236C180.5 242.351 175.351 247.5 169 247.5H-88C-94.3513 247.5 -99.5 242.351 -99.5 236V-4Z" stroke="#D7DEDA"/>
<rect x="0.5" width="80" height="80" rx="40" fill="#D0F19E"/>
<circle opacity="0.6" cx="40.0332" cy="40.0332" r="28.0332" fill="white"/>
</g>
<path d="M40.6215 52.127V45.6308C40.6215 45.1301 40.2156 44.7242 39.7149 44.7242C39.2142 44.7242 38.8084 45.1301 38.8084 45.6308V52.1598C36.5756 50.4669 35.1296 47.7596 35.1296 44.7088C35.1296 41.6393 36.5934 38.9177 38.8494 37.227C39.3521 36.8502 40.0348 36.8502 40.5375 37.227C42.7935 38.9177 44.2573 41.6393 44.2573 44.7088C44.2573 47.7401 42.8298 50.4321 40.6215 52.127Z" fill="#1A5C4B"/>
<path fill-rule="evenodd" clip-rule="evenodd" d="M39.3838 17C41.213 17 42.965 17.737 44.2442 19.0446L56.7926 31.8718C58.0357 33.1424 58.7315 34.8491 58.7315 36.6265V55.5289C58.7315 59.2839 55.6874 62.3281 51.9323 62.3281H27.9083C24.1532 62.3281 21.1091 59.2839 21.1091 55.5289V23.7992C21.1091 20.0441 24.1532 17 27.9083 17H39.3838ZM40.1469 22.8927C42.1497 22.8927 43.7732 24.5162 43.7732 26.5189C43.7732 28.5216 42.1497 30.1452 40.1469 30.1452H30.1748C28.172 30.1452 26.5485 28.5216 26.5485 26.5189C26.5485 24.5162 28.172 22.8927 30.1748 22.8927H40.1469ZM37.7927 35.7671C38.924 34.9193 40.4633 34.9193 41.5946 35.7671C44.287 37.7848 46.0396 41.0388 46.0396 44.7088C46.0396 48.3789 44.287 51.6328 41.5946 53.6506C41.294 53.8758 40.9646 54.0412 40.6217 54.1468V57.1893C40.6217 57.6902 40.2158 58.0958 39.7151 58.0958C39.2145 58.0958 38.8086 57.6902 38.8086 57.1893V54.1597C38.4502 54.0549 38.1059 53.8852 37.7927 53.6506C35.1003 51.6328 33.3477 48.3789 33.3477 44.7088C33.3477 41.0388 35.1003 37.7848 37.7927 35.7671Z" fill="#1A5C4B"/>
<path d="M60.824 28.8445L58.5517 31.1168C58.4048 30.9404 58.2507 30.7692 58.0889 30.6039L47.9938 20.2845L50.129 18.1493C51.0141 17.2642 52.4491 17.2642 53.3342 18.1493L60.824 25.6393C61.7092 26.5243 61.7092 27.9593 60.824 28.8445Z" fill="#1A5C4B"/>
</g>
<defs>
<filter id="filter0_d_730_6116" x="-120" y="-32" width="321" height="304" filterUnits="userSpaceOnUse" color-interpolation-filters="sRGB">
<feFlood flood-opacity="0" result="BackgroundImageFix"/>
<feColorMatrix in="SourceAlpha" type="matrix" values="0 0 0 0 0 0 0 0 0 0 0 0 0 0 0 0 0 0 127 0" result="hardAlpha"/>
<feOffset dy="4"/>
<feGaussianBlur stdDeviation="10"/>
<feColorMatrix type="matrix" values="0 0 0 0 0 0 0 0 0 0 0 0 0 0 0 0 0 0 0.1 0"/>
<feBlend mode="normal" in2="BackgroundImageFix" result="effect1_dropShadow_730_6116"/>
<feBlend mode="normal" in="SourceGraphic" in2="effect1_dropShadow_730_6116" result="shape"/>
</filter>
<clipPath id="clip0_730_6116">
<rect width="1920" height="2274" fill="white" transform="translate(-1375 -1007)"/>
</clipPath>
</defs>
</svg>
