<svg width="45" height="41" viewBox="0 0 45 41" fill="none" xmlns="http://www.w3.org/2000/svg">
<path d="M22.4965 3C12.8446 3 5 10.8435 5 20.4958C5 30.1481 12.846 38 22.4965 38C32.1484 38 40 30.1481 40 20.4958C40 10.8435 32.1484 3 22.4965 3ZM22.4965 5.1875C30.9658 5.1875 37.8112 12.0261 37.8112 20.4958C37.8112 28.9654 30.9658 35.8125 22.4965 35.8125C14.0272 35.8125 7.18881 28.9658 7.18881 20.4958C7.18881 12.0258 14.0272 5.1875 22.4965 5.1875ZM18.1203 15.0285C17.8318 15.0326 17.5556 15.1488 17.3533 15.3538C16.9282 15.7804 16.9282 16.4695 17.3533 16.896L20.9543 20.5L17.3533 24.1067C16.9282 24.5333 16.9282 25.2223 17.3533 25.6489C17.7799 26.0727 18.4689 26.0727 18.8954 25.6489L22.4964 22.0463L26.096 25.6489C26.3011 25.8553 26.58 25.9702 26.8712 25.9702C27.1624 25.9702 27.4413 25.8553 27.6463 25.6489C28.0715 25.2223 28.0715 24.5333 27.6463 24.1067L24.0411 20.5L27.6463 16.896C28.0715 16.4694 28.0715 15.7804 27.6463 15.3538C27.4413 15.146 27.1624 15.0298 26.8712 15.0285C26.58 15.0298 26.3011 15.146 26.096 15.3538L22.4964 18.955L18.8954 15.3538C18.6904 15.146 18.4115 15.0298 18.1203 15.0285Z" fill="#E2292A"/>
</svg>
