<svg width="81" height="80" viewBox="0 0 81 80" fill="none" xmlns="http://www.w3.org/2000/svg">
<rect x="0.5" width="80" height="80" rx="40" fill="#D0F19E"/>
<circle opacity="0.6" cx="39.5" cy="38.5" r="28.5" fill="white"/>
<g clip-path="url(#clip0_780_7939)">
<path d="M50.0686 30.8368L53.9473 33.4226V46.9941C54.2747 46.8303 56.9356 45.4998 56.9356 45.4998V31.8234L50.8462 27.7637C50.7294 28.8425 50.489 29.8812 50.0686 30.8368Z" fill="#1A5C4B"/>
<path d="M27.0527 33.4226L30.9314 30.8369C30.511 29.8811 30.2706 28.8424 30.1539 27.7638L24.0645 31.8235V45.4999C24.0645 45.4999 26.7253 46.8304 27.0527 46.9942C27.0527 42.7463 27.0527 33.4226 27.0527 33.4226Z" fill="#1A5C4B"/>
<path d="M40.5 19.1758C36.3809 19.1758 33.0293 22.5273 33.0293 26.6465C33.0293 30.7656 36.3809 34.1172 40.5 34.1172C44.6191 34.1172 47.9707 30.7656 47.9707 26.6465C47.9707 22.5273 44.6191 19.1758 40.5 19.1758ZM41.9941 28.1406H39.0059V25.1523H41.9941V28.1406Z" fill="#1A5C4B"/>
<path d="M40.4999 37.1055C37.2946 37.1055 34.577 39.1455 33.5189 41.9869C33.8681 41.9459 34.2135 41.8855 34.5686 41.8855C35.5812 41.8855 36.5706 42.0548 37.4941 42.3787C38.4513 42.0285 39.4683 41.8461 40.4999 41.8461C41.533 41.8461 42.55 42.0285 43.5072 42.3787C44.4293 42.0548 45.4186 41.8869 46.4312 41.8869C46.7863 41.8869 47.1321 41.9475 47.4812 41.9885C46.4234 39.1465 43.7058 37.1055 40.4999 37.1055Z" fill="#1A5C4B"/>
<path d="M40.5 16.1875C44.8453 16.1875 48.5757 18.8546 50.153 22.6352L50.959 21.023V13H30.041V21.023L30.847 22.6352C32.4243 18.8546 36.1547 16.1875 40.5 16.1875Z" fill="#1A5C4B"/>
<path d="M32.4504 55.0352H48.5496C48.9531 53.8251 50.5546 49.0211 51.1749 47.1602L50.5212 46.508C48.6171 44.6039 45.6929 44.3223 43.4883 45.6749C41.6615 44.5543 39.3386 44.5543 37.5117 45.6749C35.31 44.3223 32.3814 44.6039 30.4788 46.508L29.8251 47.1602C29.8303 47.1759 32.4448 55.0184 32.4504 55.0352Z" fill="#1A5C4B"/>
<path d="M35.3545 64C34.8399 63.1175 34.5234 62.1051 34.5234 61.0117C34.5234 59.9183 34.8399 58.906 35.3545 58.0234H23.1337C23.6483 58.906 23.9648 59.9183 23.9648 61.0117C23.9648 62.1051 23.6483 63.1175 23.1337 64H35.3545Z" fill="#1A5C4B"/>
<path d="M45.6454 58.0234C46.1601 58.906 46.4765 59.9183 46.4765 61.0117C46.4765 62.1051 46.1601 63.1175 45.6454 64H57.8663C57.3516 63.1175 57.0351 62.1051 57.0351 61.0117C57.0351 59.9183 57.3516 58.906 57.8663 58.0234H45.6454Z" fill="#1A5C4B"/>
<path d="M63.0117 64C64.6621 64 66 62.6621 66 61.0117C66 59.3613 64.6621 58.0234 63.0117 58.0234C61.3613 58.0234 60.0234 59.3613 60.0234 61.0117C60.0234 62.6621 61.3613 64 63.0117 64Z" fill="#1A5C4B"/>
<path d="M17.9883 64C19.6387 64 20.9766 62.6621 20.9766 61.0117C20.9766 59.3613 19.6387 58.0234 17.9883 58.0234C16.3379 58.0234 15 59.3613 15 61.0117C15 62.6621 16.3379 64 17.9883 64Z" fill="#1A5C4B"/>
<path d="M40.5 64C42.1504 64 43.4883 62.6621 43.4883 61.0117C43.4883 59.3613 42.1504 58.0234 40.5 58.0234C38.8496 58.0234 37.5117 59.3613 37.5117 61.0117C37.5117 62.6621 38.8496 64 40.5 64Z" fill="#1A5C4B"/>
</g>
<defs>
<clipPath id="clip0_780_7939">
<rect width="51" height="51" fill="white" transform="translate(15 13)"/>
</clipPath>
</defs>
</svg>
