<svg width="96" height="96" viewBox="0 0 96 96" fill="none" xmlns="http://www.w3.org/2000/svg">
<rect width="96" height="96" fill="#F5F5F5"/>
<g clip-path="url(#clip0_730_6116)">
<path d="M92.16 0.5H3.84C1.99537 0.5 0.5 1.99537 0.5 3.84V92.16C0.5 94.0046 1.99537 95.5 3.84 95.5H92.16C94.0046 95.5 95.5 94.0046 95.5 92.16V3.84C95.5 1.99537 94.0046 0.5 92.16 0.5Z" fill="white"/>
<path d="M96 24H0V96H96V24Z" fill="url(#paint0_linear_730_6116)"/>
<mask id="mask0_730_6116" style="mask-type:luminance" maskUnits="userSpaceOnUse" x="10" y="20" width="76" height="76">
<path d="M86 20H10V96H86V20Z" fill="white"/>
</mask>
<g mask="url(#mask0_730_6116)">
<path d="M62.2588 46.5804L68.0388 50.4337V70.6578C68.5268 70.4138 72.492 68.431 72.492 68.431V48.0505L63.4175 42.0008C63.2436 43.6084 62.8852 45.1563 62.2588 46.5804Z" fill="url(#paint1_linear_730_6116)"/>
<path d="M27.9609 50.4337L33.7409 46.5804C33.1144 45.1562 32.7562 43.6083 32.5822 42.001L23.5078 48.0507V68.4312C23.5078 68.4312 27.473 70.414 27.9609 70.658C27.9609 64.3278 27.9609 50.4337 27.9609 50.4337Z" fill="url(#paint2_linear_730_6116)"/>
<path d="M48 29.2031C41.8617 29.2031 36.8672 34.1976 36.8672 40.3359C36.8672 46.4743 41.8617 51.4688 48 51.4688C54.1383 51.4688 59.1328 46.4743 59.1328 40.3359C59.1328 34.1976 54.1383 29.2031 48 29.2031ZM50.2266 42.5625H45.7734V38.1094H50.2266V42.5625Z" fill="url(#paint3_linear_730_6116)"/>
<path d="M47.9998 55.9219C43.2232 55.9219 39.1734 58.9619 37.5967 63.1962C38.117 63.135 38.6318 63.0451 39.161 63.0451C40.67 63.0451 42.1443 63.2973 43.5206 63.78C44.9469 63.2581 46.4625 62.9863 47.9998 62.9863C49.5393 62.9863 51.0548 63.2581 52.4811 63.78C53.8554 63.2973 55.3295 63.0472 56.8385 63.0472C57.3677 63.0472 57.8831 63.1374 58.4032 63.1986C56.827 58.9634 52.7771 55.9219 47.9998 55.9219Z" fill="url(#paint4_linear_730_6116)"/>
<path d="M48 24.75C54.4753 24.75 60.0344 28.7246 62.3849 34.3584L63.5859 31.9559V20H32.4141V31.9559L33.6151 34.3584C35.9656 28.7246 41.5247 24.75 48 24.75Z" fill="url(#paint5_linear_730_6116)"/>
<path d="M36.0045 82.6406H59.9956C60.5967 80.8374 62.9833 73.6786 63.9078 70.9055L62.9336 69.9335C60.0961 67.096 55.7385 66.6763 52.4532 68.692C49.7308 67.0221 46.2693 67.0221 43.5469 68.692C40.2658 66.6763 35.9018 67.096 33.0665 69.9335L32.0923 70.9055C32.1 70.9288 35.9962 82.6157 36.0045 82.6406Z" fill="url(#paint6_linear_730_6116)"/>
<path d="M40.3321 96C39.5652 94.6848 39.0936 93.1763 39.0936 91.5469C39.0936 89.9175 39.5652 88.4089 40.3321 87.0938H22.1206C22.8876 88.4089 23.3592 89.9175 23.3592 91.5469C23.3592 93.1763 22.8876 94.6848 22.1206 96H40.3321Z" fill="url(#paint7_linear_730_6116)"/>
<path d="M55.6675 87.0938C56.4345 88.4089 56.9061 89.9175 56.9061 91.5469C56.9061 93.1763 56.4345 94.6848 55.6675 96H73.879C73.112 94.6848 72.6405 93.1763 72.6405 91.5469C72.6405 89.9175 73.112 88.4089 73.879 87.0938H55.6675Z" fill="url(#paint8_linear_730_6116)"/>
<path d="M81.5468 96C84.0062 96 85.9999 94.0063 85.9999 91.5469C85.9999 89.0875 84.0062 87.0938 81.5468 87.0938C79.0874 87.0938 77.0938 89.0875 77.0938 91.5469C77.0938 94.0063 79.0874 96 81.5468 96Z" fill="url(#paint9_linear_730_6116)"/>
<path d="M14.4531 96C16.9125 96 18.9062 94.0063 18.9062 91.5469C18.9062 89.0875 16.9125 87.0938 14.4531 87.0938C11.9937 87.0938 10 89.0875 10 91.5469C10 94.0063 11.9937 96 14.4531 96Z" fill="url(#paint10_linear_730_6116)"/>
<path d="M48 96C50.4594 96 52.4531 94.0063 52.4531 91.5469C52.4531 89.0875 50.4594 87.0938 48 87.0938C45.5406 87.0938 43.5469 89.0875 43.5469 91.5469C43.5469 94.0063 45.5406 96 48 96Z" fill="url(#paint11_linear_730_6116)"/>
</g>
<path d="M92.16 0.5H3.84C1.99537 0.5 0.5 1.99537 0.5 3.84V92.16C0.5 94.0046 1.99537 95.5 3.84 95.5H92.16C94.0046 95.5 95.5 94.0046 95.5 92.16V3.84C95.5 1.99537 94.0046 0.5 92.16 0.5Z" stroke="#1A5C4B"/>
</g>
<defs>
<linearGradient id="paint0_linear_730_6116" x1="48" y1="24" x2="48" y2="96" gradientUnits="userSpaceOnUse">
<stop stop-color="white"/>
<stop offset="1" stop-color="#DBEFBC" stop-opacity="0.5"/>
</linearGradient>
<linearGradient id="paint1_linear_730_6116" x1="67.3754" y1="42.0008" x2="67.3754" y2="70.6578" gradientUnits="userSpaceOnUse">
<stop stop-color="#1A5C4B"/>
<stop offset="1" stop-color="#91C543"/>
</linearGradient>
<linearGradient id="paint2_linear_730_6116" x1="28.6244" y1="42.001" x2="28.6244" y2="70.658" gradientUnits="userSpaceOnUse">
<stop stop-color="#1A5C4B"/>
<stop offset="1" stop-color="#91C543"/>
</linearGradient>
<linearGradient id="paint3_linear_730_6116" x1="48" y1="29.2031" x2="48" y2="51.4688" gradientUnits="userSpaceOnUse">
<stop stop-color="#1A5C4B"/>
<stop offset="1" stop-color="#91C543"/>
</linearGradient>
<linearGradient id="paint4_linear_730_6116" x1="48" y1="55.9219" x2="48" y2="63.78" gradientUnits="userSpaceOnUse">
<stop stop-color="#1A5C4B"/>
<stop offset="1" stop-color="#91C543"/>
</linearGradient>
<linearGradient id="paint5_linear_730_6116" x1="48" y1="20" x2="48" y2="34.3584" gradientUnits="userSpaceOnUse">
<stop stop-color="#1A5C4B"/>
<stop offset="1" stop-color="#91C543"/>
</linearGradient>
<linearGradient id="paint6_linear_730_6116" x1="48" y1="67.4395" x2="48" y2="82.6406" gradientUnits="userSpaceOnUse">
<stop stop-color="#1A5C4B"/>
<stop offset="1" stop-color="#91C543"/>
</linearGradient>
<linearGradient id="paint7_linear_730_6116" x1="31.2264" y1="87.0938" x2="31.2264" y2="96" gradientUnits="userSpaceOnUse">
<stop stop-color="#1A5C4B"/>
<stop offset="1" stop-color="#91C543"/>
</linearGradient>
<linearGradient id="paint8_linear_730_6116" x1="64.7733" y1="87.0938" x2="64.7733" y2="96" gradientUnits="userSpaceOnUse">
<stop stop-color="#1A5C4B"/>
<stop offset="1" stop-color="#91C543"/>
</linearGradient>
<linearGradient id="paint9_linear_730_6116" x1="81.5468" y1="87.0938" x2="81.5468" y2="96" gradientUnits="userSpaceOnUse">
<stop stop-color="#1A5C4B"/>
<stop offset="1" stop-color="#91C543"/>
</linearGradient>
<linearGradient id="paint10_linear_730_6116" x1="14.4531" y1="87.0938" x2="14.4531" y2="96" gradientUnits="userSpaceOnUse">
<stop stop-color="#1A5C4B"/>
<stop offset="1" stop-color="#91C543"/>
</linearGradient>
<linearGradient id="paint11_linear_730_6116" x1="48" y1="87.0938" x2="48" y2="96" gradientUnits="userSpaceOnUse">
<stop stop-color="#1A5C4B"/>
<stop offset="1" stop-color="#91C543"/>
</linearGradient>
<clipPath id="clip0_730_6116">
<rect width="96" height="96" fill="white"/>
</clipPath>
</defs>
</svg>
