<svg width="81" height="80" viewBox="0 0 81 80" fill="none" xmlns="http://www.w3.org/2000/svg">
<rect x="0.5" width="80" height="80" rx="40" fill="#D0F19E"/>
<circle opacity="0.6" cx="40" cy="40" r="29" fill="white"/>
<path fill-rule="evenodd" clip-rule="evenodd" d="M40.5 15.6562C54.2208 15.6562 65.3438 26.7792 65.3438 40.5C65.3438 54.2208 54.2208 65.3438 40.5 65.3438C26.7792 65.3438 15.6562 54.2208 15.6562 40.5C15.6562 26.7792 26.7792 15.6562 40.5 15.6562ZM29.5925 55.6133L29.3866 53.9761C32.5894 56.6193 36.6291 58.0351 40.7813 57.9694C44.9334 57.9037 48.9264 56.3609 52.044 53.6176C55.1616 50.8743 57.1998 47.1101 57.7932 43.0001C58.3866 38.89 57.4963 34.703 55.282 31.1899C55.2165 31.0859 55.1124 31.0121 54.9925 30.9849C54.8726 30.9576 54.7468 30.9791 54.6428 31.0446C54.5387 31.1101 54.465 31.2143 54.4377 31.3342C54.4105 31.4541 54.432 31.5798 54.4975 31.6839C56.6042 35.0233 57.4467 39.0062 56.8728 42.9127C56.2988 46.8191 54.3462 50.3914 51.3679 52.9836C48.3896 55.5759 44.5822 57.0172 40.6339 57.0469C36.6856 57.0766 32.857 55.6927 29.8401 53.1456L31.6877 52.9133C31.7481 52.9059 31.8064 52.8867 31.8593 52.8568C31.9122 52.8268 31.9587 52.7868 31.9961 52.7389C32.0336 52.691 32.0612 52.6362 32.0775 52.5776C32.0937 52.519 32.0983 52.4578 32.0909 52.3975C32.0835 52.3371 32.0643 52.2788 32.0344 52.2259C32.0045 52.173 31.9644 52.1265 31.9165 52.089C31.8686 52.0516 31.8138 52.024 31.7552 52.0077C31.6966 51.9914 31.6354 51.9869 31.5751 51.9943L28.7441 52.3503C28.6787 52.3546 28.6149 52.3728 28.557 52.4036C28.4991 52.4344 28.4484 52.4771 28.4082 52.529C28.368 52.5808 28.3393 52.6406 28.3239 52.7044C28.3085 52.7681 28.3068 52.8344 28.3189 52.8989L28.6745 55.7264C28.6943 55.844 28.7587 55.9493 28.8543 56.0205C28.9499 56.0918 29.0693 56.1234 29.1876 56.1088C29.3059 56.0942 29.414 56.0346 29.4894 55.9423C29.5648 55.85 29.6017 55.7321 29.5925 55.6133ZM51.4075 25.3867L51.6134 27.0239C48.4106 24.3811 44.371 22.9657 40.219 23.0315C36.0671 23.0974 32.0744 24.6403 28.957 27.3834C25.8396 30.1265 23.8014 33.8905 23.2079 38.0004C22.6144 42.1102 23.5045 46.2971 25.7185 49.8101C25.7849 49.9122 25.8888 49.9841 26.0077 50.0102C26.1267 50.0363 26.2511 50.0146 26.3542 49.9497C26.4573 49.8848 26.5306 49.782 26.5585 49.6634C26.5864 49.5449 26.5665 49.4201 26.5031 49.3161C24.3962 45.9767 23.5536 41.9937 24.1275 38.0872C24.7014 34.1806 26.654 30.6082 29.6323 28.0159C32.6107 25.4236 36.4182 23.9824 40.3666 23.9527C44.315 23.9231 48.1437 25.3071 51.1606 27.8544L49.3129 28.0867C49.191 28.1017 49.0801 28.1644 49.0045 28.2611C48.9289 28.3579 48.8948 28.4807 48.9097 28.6025C48.9246 28.7244 48.9874 28.8353 49.0841 28.911C49.1809 28.9866 49.3037 29.0207 49.4255 29.0057L52.2566 28.6497C52.322 28.6454 52.3857 28.6272 52.4436 28.5964C52.5014 28.5656 52.5521 28.523 52.5923 28.4712C52.6324 28.4194 52.6612 28.3597 52.6766 28.296C52.692 28.2323 52.6938 28.166 52.6817 28.1016L52.3261 25.2741C52.3081 25.1549 52.2443 25.0475 52.1483 24.9746C52.0523 24.9018 51.9317 24.8692 51.8121 24.8839C51.6925 24.8985 51.5833 24.9593 51.5077 25.0532C51.4322 25.1471 51.3963 25.2667 51.4075 25.3867ZM36.8563 39.5044C36.8228 38.2451 36.6502 37.1546 36.2313 36.2606C35.5181 34.7389 34.0401 33.742 31.2161 33.3811C30.8862 33.3274 30.5622 33.2423 30.2485 33.127C29.922 33.0192 29.6065 32.8804 29.3065 32.7123C29.1001 32.588 28.9266 32.4157 28.8011 32.21C28.7519 32.292 28.7109 32.3787 28.6786 32.4687C28.4716 33.0342 28.4673 33.8709 28.6871 34.827C28.9595 35.9536 29.4439 37.0181 30.1144 37.9636C31.3834 39.7776 33.4483 41.4288 36.4421 42.0803C35.5006 40.1144 33.9009 38.9644 32.5323 37.9816C31.9141 37.5375 31.3401 37.1252 30.8732 36.6817C30.7852 36.5967 30.7343 36.4803 30.7317 36.358C30.7292 36.2357 30.775 36.1173 30.8594 36.0286C30.9437 35.9399 31.0597 35.8882 31.182 35.8847C31.3043 35.8811 31.423 35.9261 31.5124 36.0097C31.9384 36.4143 32.4854 36.8068 33.0736 37.2297C33.9038 37.8261 34.8126 38.4792 35.6304 39.3185C37.0713 40.8907 38.182 43.2612 38.3064 46.5942C36.6502 48.4837 35.5418 50.7898 35.1009 53.2635C35.0878 53.3337 35.091 53.4059 35.1104 53.4747C35.1298 53.5434 35.1648 53.6068 35.2126 53.6597C35.2605 53.7127 35.32 53.754 35.3864 53.7802C35.4528 53.8065 35.5244 53.817 35.5955 53.8111L37.9814 53.6993C38.0945 53.6944 38.2019 53.6483 38.2834 53.5696C38.3648 53.491 38.4147 53.3853 38.4236 53.2724H38.4245C38.5934 51.176 39.2876 49.1559 40.4431 47.3985C41.2623 46.1582 42.2454 45.0343 43.3657 44.0574C45.5555 43.6299 47.5879 42.6152 49.2454 41.1218C50.3125 40.1727 51.1872 39.0273 51.8219 37.7479C52.3451 36.6594 52.5589 35.6525 52.4467 34.922C52.4252 34.769 52.382 34.6199 52.3183 34.4791C52.1108 34.7408 51.8287 34.9331 51.5094 35.0308C51.1133 35.1423 50.7074 35.2155 50.2972 35.2495C49.9003 35.2963 49.4998 35.3053 49.1012 35.2765C45.7266 34.9086 43.6855 35.6181 42.3788 37.1337C41.2241 38.4729 40.5983 40.4669 40.1222 42.9169C41.3968 41.9788 42.723 41.2112 43.9577 40.5301C44.2191 40.3748 44.5064 40.2299 44.7743 40.0834C46.0595 39.383 47.194 38.7648 47.96 38.1334C48.0069 38.0948 48.0611 38.0658 48.1193 38.0481C48.1775 38.0303 48.2386 38.0243 48.2991 38.0302C48.3597 38.0361 48.4185 38.0538 48.4722 38.0825C48.5258 38.1111 48.5734 38.15 48.612 38.197C48.6506 38.244 48.6796 38.2981 48.6974 38.3563C48.7151 38.4145 48.7212 38.4756 48.7153 38.5362C48.7094 38.5967 48.6916 38.6555 48.663 38.7092C48.6343 38.7629 48.5954 38.8104 48.5484 38.849C47.7147 39.5361 46.5439 40.174 45.2174 40.897C44.9636 41.035 44.7044 41.1768 44.4398 41.3224C43.1735 42.1878 42.0062 43.1899 40.9592 44.3106H40.9715C40.3463 44.7783 39.7381 45.2457 39.1665 45.6832C38.8635 42.9607 38.0003 40.9674 36.8563 39.5044Z" fill="#1A5C4B"/>
</svg>
