<svg width="96" height="96" viewBox="0 0 96 96" fill="none" xmlns="http://www.w3.org/2000/svg">
<rect width="96" height="96" fill="#F5F5F5"/>
<g clip-path="url(#clip0_730_6116)">
<path d="M92.16 0.5H3.84C1.99537 0.5 0.5 1.99537 0.5 3.84V92.16C0.5 94.0046 1.99537 95.5 3.84 95.5H92.16C94.0046 95.5 95.5 94.0046 95.5 92.16V3.84C95.5 1.99537 94.0046 0.5 92.16 0.5Z" fill="white"/>
<path d="M96 24H0V96H96V24Z" fill="url(#paint0_linear_730_6116)"/>
<path d="M29.2303 43.0485C26.1212 43.0485 23.2425 45.4666 22.3212 49.1515C20.3637 50.7636 20.7091 55.3697 23.0121 56.2909C23.9334 58.1333 26.0061 62.0485 29.2303 62.0485C31.8788 62.0485 34.1818 59.1697 35.4485 56.2909C37.7515 55.3697 37.9818 50.7636 36.1394 49.1515C35.2182 45.5818 32.4546 43.0485 29.2303 43.0485Z" fill="url(#paint1_linear_730_6116)"/>
<path d="M66.7698 43.0485C63.6607 43.0485 60.8971 45.4666 59.8607 49.1515C57.9032 50.7636 58.2486 55.3697 60.5517 56.2909C61.4729 58.1333 63.5456 62.0485 66.7698 62.0485C69.4183 62.0485 71.7214 59.1697 72.988 56.2909C75.2911 55.3697 75.5214 50.7636 73.6789 49.1515C72.6426 45.5818 69.8789 43.0485 66.7698 43.0485Z" fill="url(#paint2_linear_730_6116)"/>
<path d="M83.6971 67.806V67.6909C83.3516 65.503 81.6243 63.7757 79.3213 63.0848C77.0183 62.3939 74.485 61.9333 71.8365 61.703C71.491 61.703 71.0304 61.8181 70.8001 62.1636C70.5698 62.509 70.4546 62.8545 70.5698 63.2C70.9153 64.2363 71.0304 65.2727 71.1456 66.1939C71.2607 68.2666 70.8001 70.4545 69.994 72.5272L69.7637 68.7272L70.4546 67.1151C70.4546 66.9999 70.5698 66.7696 70.5698 66.6545V64.2363C70.5698 63.6606 69.994 63.0848 69.4183 63.0848H64.1213C63.5456 63.0848 62.9698 63.6606 62.9698 64.2363V66.6545C62.9698 66.7696 62.9698 66.9999 63.0849 67.1151L63.7759 68.7272L63.5456 72.4121C62.1637 69.303 61.9334 66.0787 62.9698 63.0848C63.0849 62.7393 62.9698 62.2787 62.7395 62.0484C62.5092 61.703 62.1637 61.5878 61.7031 61.5878C58.9395 61.8181 56.4062 62.2787 54.2183 62.9696C51.9153 63.6606 50.3031 65.3878 49.9577 67.5757V67.6909L49.4971 83.6969C49.4971 84.0424 49.6122 84.2727 49.8425 84.503C50.0728 84.7333 50.3031 84.8484 50.6486 84.8484H82.891C83.2365 84.8484 83.4668 84.7333 83.6971 84.503C83.9274 84.2727 84.0425 84.0424 84.0425 83.6969L83.6971 67.806Z" fill="url(#paint3_linear_730_6116)"/>
<path d="M46.1576 67.6909C45.8122 65.503 44.0849 63.7757 41.7818 63.0848C39.4788 62.3939 36.9455 61.9333 34.297 61.703C33.9515 61.703 33.4909 61.8181 33.2606 62.1636C33.0303 62.509 32.9152 62.8545 33.0303 63.2C33.3758 64.2363 33.4909 65.2727 33.6061 66.1939C33.7212 68.2666 33.2606 70.4545 32.4546 72.5272L32.3394 68.7272L33.0303 67.1151C33.0303 66.9999 33.1455 66.7696 33.1455 66.6545V64.2363C33.1455 63.6606 32.5697 63.0848 31.994 63.0848H26.8121C26.1212 63.0848 25.6606 63.6606 25.6606 64.2363V66.6545C25.6606 66.7696 25.6606 66.9999 25.7758 67.1151L26.4667 68.7272L26.2364 72.5272C24.8546 69.4181 24.6243 66.1939 25.5455 63.0848C25.6606 62.7393 25.5455 62.2787 25.3152 62.0484C25.0849 61.703 24.6243 61.5878 24.2788 61.5878C21.5152 61.8181 18.9818 62.2787 16.794 62.9696C14.4909 63.6606 12.8788 65.3878 12.5334 67.5757V67.6909L12.0728 83.6969C12.0728 84.0424 12.1879 84.2727 12.4182 84.503C12.5334 84.7333 12.8788 84.8484 13.2243 84.8484H45.4667C45.8122 84.8484 46.0425 84.7333 46.2728 84.503C46.5031 84.2727 46.6182 84.0424 46.6182 83.6969L46.2728 67.806L46.1576 67.6909Z" fill="url(#paint4_linear_730_6116)"/>
<path d="M77.0182 44.5454C77.3637 44.7757 77.9394 44.8909 78.2849 44.5454C78.6304 44.3151 78.8607 43.8545 78.8607 43.3939L77.9395 37.9818H80.5879C81.1637 37.9818 81.7394 37.406 81.7394 36.8303V15.7575C81.7394 15.0666 81.1637 14.606 80.5879 14.606H47.194C46.5031 14.606 46.0425 15.0666 46.0425 15.7575V36.8303C46.0425 37.406 46.5031 37.9818 47.194 37.9818H68.2667L77.0182 44.5454ZM52.0304 21.4H75.7516C76.4425 21.4 76.9031 21.8606 76.9031 22.5515C76.9031 23.2424 76.4425 23.703 75.7516 23.703H52.0304C51.3395 23.703 50.8788 23.2424 50.8788 22.5515C50.8788 21.9757 51.3395 21.4 52.0304 21.4ZM50.8788 30.0363C50.8788 29.3454 51.3395 28.8848 52.0304 28.8848H75.7516C76.4425 28.8848 76.9031 29.3454 76.9031 30.0363C76.9031 30.7272 76.4425 31.1878 75.7516 31.1878H52.0304C51.3395 31.1878 50.8788 30.6121 50.8788 30.0363Z" fill="url(#paint5_linear_730_6116)"/>
<path d="M17.7154 34.5272H20.3638L19.4426 39.9394C19.3275 40.4 19.5578 40.8606 19.9032 41.0909C20.2487 41.3212 20.8244 41.3212 21.1699 40.9757L29.9214 34.5272H43.6244V15.7575C43.6244 13.9151 45.2366 12.303 47.079 12.303H52.1456C52.1456 11.7272 51.5699 11.1515 50.9941 11.1515H17.6002C17.0244 11.1515 16.4487 11.6121 16.4487 12.303V33.3757C16.5638 34.0666 17.1396 34.5272 17.7154 34.5272ZM22.5517 17.9454H39.3638C40.0547 17.9454 40.5153 18.406 40.5153 19.0969C40.5153 19.7879 40.0547 20.2485 39.3638 20.2485H22.5517C21.8608 20.2485 21.4002 19.7879 21.4002 19.0969C21.4002 18.5212 21.976 17.9454 22.5517 17.9454ZM22.5517 25.4303H39.3638C40.0547 25.4303 40.5153 25.8909 40.5153 26.5818C40.5153 27.1575 40.0547 27.7333 39.3638 27.7333H22.5517C21.8608 27.7333 21.4002 27.1575 21.4002 26.5818C21.4002 25.8909 21.976 25.4303 22.5517 25.4303Z" fill="url(#paint6_linear_730_6116)"/>
<path d="M92.16 0.5H3.84C1.99537 0.5 0.5 1.99537 0.5 3.84V92.16C0.5 94.0046 1.99537 95.5 3.84 95.5H92.16C94.0046 95.5 95.5 94.0046 95.5 92.16V3.84C95.5 1.99537 94.0046 0.5 92.16 0.5Z" stroke="#1A5C4B"/>
</g>
<defs>
<linearGradient id="paint0_linear_730_6116" x1="48" y1="24" x2="48" y2="96" gradientUnits="userSpaceOnUse">
<stop stop-color="white"/>
<stop offset="1" stop-color="#DBEFBC" stop-opacity="0.5"/>
</linearGradient>
<linearGradient id="paint1_linear_730_6116" x1="29.2066" y1="43.0485" x2="29.2066" y2="62.0485" gradientUnits="userSpaceOnUse">
<stop stop-color="#1A5C4B"/>
<stop offset="1" stop-color="#91C543"/>
</linearGradient>
<linearGradient id="paint2_linear_730_6116" x1="66.7461" y1="43.0485" x2="66.7461" y2="62.0485" gradientUnits="userSpaceOnUse">
<stop stop-color="#1A5C4B"/>
<stop offset="1" stop-color="#91C543"/>
</linearGradient>
<linearGradient id="paint3_linear_730_6116" x1="66.7698" y1="61.5878" x2="66.7698" y2="84.8484" gradientUnits="userSpaceOnUse">
<stop stop-color="#1A5C4B"/>
<stop offset="1" stop-color="#91C543"/>
</linearGradient>
<linearGradient id="paint4_linear_730_6116" x1="29.3455" y1="61.5878" x2="29.3455" y2="84.8484" gradientUnits="userSpaceOnUse">
<stop stop-color="#1A5C4B"/>
<stop offset="1" stop-color="#91C543"/>
</linearGradient>
<linearGradient id="paint5_linear_730_6116" x1="63.891" y1="14.606" x2="63.891" y2="44.7634" gradientUnits="userSpaceOnUse">
<stop stop-color="#1A5C4B"/>
<stop offset="1" stop-color="#91C543"/>
</linearGradient>
<linearGradient id="paint6_linear_730_6116" x1="34.2972" y1="11.1515" x2="34.2972" y2="41.2514" gradientUnits="userSpaceOnUse">
<stop stop-color="#1A5C4B"/>
<stop offset="1" stop-color="#91C543"/>
</linearGradient>
<clipPath id="clip0_730_6116">
<rect width="96" height="96" fill="white"/>
</clipPath>
</defs>
</svg>
