<svg width="64" height="64" viewBox="0 0 64 64" fill="none" xmlns="http://www.w3.org/2000/svg">
<rect x="0.333252" y="0.333374" width="63.3333" height="63.3333" rx="31.6667" fill="#D0F19E"/>
<mask id="mask0_1563_35727" style="mask-type:alpha" maskUnits="userSpaceOnUse" x="11" y="11" width="42" height="42">
<rect x="11" y="11.0001" width="42" height="42" fill="#D9D9D9"/>
</mask>
<g mask="url(#mask0_1563_35727)">
<path d="M32 49.5001C28.9083 49.5001 26.3854 49.0115 24.4313 48.0344C22.4771 47.0574 21.5 45.7959 21.5 44.2501C21.5 43.5501 21.7115 42.9011 22.1344 42.3032C22.5573 41.7053 23.1479 41.1876 23.9062 40.7501L26.6625 43.3313C26.4 43.448 26.1156 43.5792 25.8094 43.7251C25.5031 43.8709 25.2625 44.0459 25.0875 44.2501C25.4667 44.7167 26.3417 45.1251 27.7125 45.4751C29.0833 45.8251 30.5125 46.0001 32 46.0001C33.4875 46.0001 34.924 45.8251 36.3094 45.4751C37.6948 45.1251 38.5771 44.7167 38.9563 44.2501C38.7521 44.0167 38.4896 43.8271 38.1688 43.6813C37.8479 43.5355 37.5417 43.4042 37.25 43.2876L39.9625 40.6626C40.7792 41.1292 41.4062 41.6615 41.8438 42.2594C42.2812 42.8574 42.5 43.5209 42.5 44.2501C42.5 45.7959 41.5229 47.0574 39.5688 48.0344C37.6146 49.0115 35.0917 49.5001 32 49.5001ZM32 44.2501C27.8875 41.2167 24.8177 38.2709 22.7906 35.4126C20.7635 32.5542 19.75 29.7542 19.75 27.0126C19.75 24.9417 20.1219 23.1261 20.8656 21.5657C21.6094 20.0053 22.5646 18.7001 23.7313 17.6501C24.8979 16.6001 26.2104 15.8126 27.6688 15.2876C29.1271 14.7626 30.5708 14.5001 32 14.5001C33.4292 14.5001 34.8729 14.7626 36.3313 15.2876C37.7896 15.8126 39.1021 16.6001 40.2688 17.6501C41.4354 18.7001 42.3906 20.0053 43.1344 21.5657C43.8781 23.1261 44.25 24.9417 44.25 27.0126C44.25 29.7542 43.2365 32.5542 41.2094 35.4126C39.1823 38.2709 36.1125 41.2167 32 44.2501ZM32 30.2501C32.9625 30.2501 33.7865 29.9074 34.4719 29.2219C35.1573 28.5365 35.5 27.7126 35.5 26.7501C35.5 25.7876 35.1573 24.9636 34.4719 24.2782C33.7865 23.5928 32.9625 23.2501 32 23.2501C31.0375 23.2501 30.2135 23.5928 29.5281 24.2782C28.8427 24.9636 28.5 25.7876 28.5 26.7501C28.5 27.7126 28.8427 28.5365 29.5281 29.2219C30.2135 29.9074 31.0375 30.2501 32 30.2501Z" fill="#1A5C4B"/>
</g>
</svg>
