<svg width="49" height="48" viewBox="0 0 49 48" fill="none" xmlns="http://www.w3.org/2000/svg">
<g id="logos:telegram" clip-path="url(#clip0_3295_63318)">
<path id="Vector" d="M24.2617 0C17.898 0 11.7892 2.53013 7.29297 7.02938C2.79211 11.5304 0.263007 17.6347 0.261719 24C0.261719 30.3626 2.79297 36.4714 7.29297 40.9706C11.7892 45.4699 17.898 48 24.2617 48C30.6255 48 36.7342 45.4699 41.2305 40.9706C45.7305 36.4714 48.2617 30.3626 48.2617 24C48.2617 17.6374 45.7305 11.5286 41.2305 7.02938C36.7342 2.53013 30.6255 0 24.2617 0Z" fill="url(#paint0_linear_3295_63318)"/>
<path id="Vector_2" d="M11.1254 23.7466C18.1229 20.6986 22.7879 18.6891 25.1204 17.7181C31.7879 14.9457 33.1717 14.4642 34.0754 14.4479C34.2742 14.4447 34.7167 14.4938 35.0054 14.7273C35.2454 14.9241 35.3129 15.1904 35.3467 15.3773C35.3767 15.5641 35.4179 15.9897 35.3842 16.322C35.0242 20.117 33.4604 29.3262 32.6654 33.5768C32.3317 35.3753 31.6679 35.9783 31.0267 36.0372C29.6317 36.1655 28.5742 35.1162 27.2242 34.2316C25.1129 32.8467 23.9204 31.985 21.8692 30.6338C19.4992 29.0723 21.0367 28.214 22.3867 26.8115C22.7392 26.4443 28.8817 20.8587 28.9979 20.3521C29.0129 20.2887 29.0279 20.0525 28.8854 19.928C28.7467 19.8031 28.5404 19.8458 28.3904 19.8796C28.1767 19.9276 24.8054 22.1581 18.2654 26.5707C17.3092 27.2285 16.4429 27.5491 15.6629 27.5322C14.8079 27.5138 13.1579 27.0477 11.9317 26.6495C10.4317 26.1608 9.23541 25.9025 9.34041 25.0726C9.39291 24.6406 9.98916 24.1985 11.1254 23.7466Z" fill="white"/>
</g>
<defs>
<linearGradient id="paint0_linear_3295_63318" x1="2400.26" y1="0" x2="2400.26" y2="4800" gradientUnits="userSpaceOnUse">
<stop stop-color="#2AABEE"/>
<stop offset="1" stop-color="#229ED9"/>
</linearGradient>
<clipPath id="clip0_3295_63318">
<rect width="48" height="48" fill="white" transform="translate(0.261719)"/>
</clipPath>
</defs>
</svg>
