<svg width="49" height="48" viewBox="0 0 49 48" fill="none" xmlns="http://www.w3.org/2000/svg">
<g id="tabler:message">
<path id="Vector" d="M16.2617 18H32.2617M16.2617 26H28.2617M36.2617 8C37.853 8 39.3791 8.63214 40.5044 9.75736C41.6296 10.8826 42.2617 12.4087 42.2617 14V30C42.2617 31.5913 41.6296 33.1174 40.5044 34.2426C39.3791 35.3679 37.853 36 36.2617 36H26.2617L16.2617 42V36H12.2617C10.6704 36 9.1443 35.3679 8.01908 34.2426C6.89386 33.1174 6.26172 31.5913 6.26172 30V14C6.26172 12.4087 6.89386 10.8826 8.01908 9.75736C9.1443 8.63214 10.6704 8 12.2617 8H36.2617Z" stroke="black" stroke-width="2" stroke-linecap="round" stroke-linejoin="round"/>
</g>
</svg>
