<svg width="96" height="96" viewBox="0 0 96 96" fill="none" xmlns="http://www.w3.org/2000/svg">
<rect width="96" height="96" fill="#F5F5F5"/>
<g clip-path="url(#clip0_730_6116)">
<path d="M92.16 0.5H3.84C1.99537 0.5 0.5 1.99537 0.5 3.84V92.16C0.5 94.0046 1.99537 95.5 3.84 95.5H92.16C94.0046 95.5 95.5 94.0046 95.5 92.16V3.84C95.5 1.99537 94.0046 0.5 92.16 0.5Z" fill="white"/>
<path d="M96 24H0V96H96V24Z" fill="url(#paint0_linear_730_6116)"/>
<path d="M45.7444 48.8139C55.6341 48.8139 63.6513 40.7967 63.6513 30.907C63.6513 21.0172 55.6341 13 45.7444 13C35.8546 13 27.8374 21.0172 27.8374 30.907C27.8374 40.7967 35.8546 48.8139 45.7444 48.8139Z" fill="url(#paint1_linear_730_6116)"/>
<path fill-rule="evenodd" clip-rule="evenodd" d="M48.1864 69.1628V54.5116C48.1864 53.1637 47.0925 52.0698 45.7445 52.0698C44.3966 52.0698 43.3027 53.1637 43.3027 54.5116V69.1628C43.3027 70.5107 44.3966 71.6046 45.7445 71.6046C47.0925 71.6046 48.1864 70.5107 48.1864 69.1628Z" fill="url(#paint2_linear_730_6116)"/>
<path fill-rule="evenodd" clip-rule="evenodd" d="M77.4883 70.7908C77.4883 59.3596 69.886 49.7061 59.4642 46.6034C58.367 46.2778 57.1883 46.7564 56.6316 47.7592L45.7442 67.3852L34.8567 47.7592C34.3 46.7564 33.1214 46.2778 32.0242 46.6034C21.6023 49.7061 14 59.3596 14 70.7908V77.3024C14 78.8131 14.5991 80.2619 15.6702 81.3299C16.7381 82.401 18.187 83.0001 19.6977 83.0001H71.7907C73.3014 83.0001 74.7502 82.401 75.8181 81.3299C76.8893 80.2619 77.4883 78.8131 77.4883 77.3024V70.7908ZM58.7674 69.9768H65.279C66.6269 69.9768 67.7209 68.8829 67.7209 67.535C67.7209 66.1871 66.6269 65.0931 65.279 65.0931H58.7674C57.4195 65.0931 56.3256 66.1871 56.3256 67.535C56.3256 68.8829 57.4195 69.9768 58.7674 69.9768Z" fill="url(#paint3_linear_730_6116)"/>
<path d="M69.9677 75.9636C76.9225 75.9636 82.5604 70.3257 82.5604 63.3709C82.5604 56.4161 76.9225 50.7782 69.9677 50.7782C63.0129 50.7782 57.375 56.4161 57.375 63.3709C57.375 70.3257 63.0129 75.9636 69.9677 75.9636Z" fill="#ECF9D8"/>
<path fill-rule="evenodd" clip-rule="evenodd" d="M79.275 57.1521C80.505 58.9929 81.1614 61.157 81.1614 63.3709C81.158 66.3386 79.9776 69.1837 77.8792 71.2822C75.7807 73.3806 72.9356 74.561 69.9679 74.5644C67.754 74.5644 65.5899 73.908 63.7491 72.678C61.9083 71.448 60.4736 69.6998 59.6264 67.6545C58.7792 65.6091 58.5576 63.3585 58.9895 61.1872C59.4214 59.0158 60.4874 57.0213 62.0529 55.4559C63.6183 53.8904 65.6128 52.8244 67.7842 52.3925C69.9555 51.9605 72.2061 52.1822 74.2515 53.0294C76.2968 53.8766 78.045 55.3113 79.275 57.1521ZM74.1472 66.6522C75.9648 64.8346 76.3541 59.24 76.4132 58.1366C76.4255 57.8786 76.3446 57.6249 76.1852 57.4217C76.0259 57.2185 75.7987 57.0795 75.5453 57.0299C75.3238 56.9858 70.0604 55.9781 66.7619 59.2777C65.9741 60.0672 65.4594 61.088 65.293 62.1909C65.1266 63.2938 65.3172 64.421 65.837 65.4079C64.5163 66.1467 63.6334 67.3695 63.5204 68.7354C63.5087 68.8763 63.5248 69.0181 63.5679 69.1528C63.611 69.2875 63.6802 69.4123 63.7716 69.5202C63.863 69.6281 63.9748 69.7169 64.1005 69.7815C64.2263 69.8462 64.3636 69.8854 64.5045 69.8969C64.5346 69.8985 64.5647 69.8985 64.5948 69.8969C64.8656 69.8978 65.1267 69.7965 65.3261 69.6133C65.5255 69.4301 65.6484 69.1784 65.6703 68.9085C65.7327 68.1514 66.3586 67.4652 67.2771 67.0985C68.2817 67.8696 69.5323 68.2494 70.7961 68.1673C72.0598 68.0852 73.2508 67.5468 74.1472 66.6522ZM67.3903 62.9616C67.3902 62.1483 67.7132 61.3683 68.2882 60.7931C69.781 59.3003 71.9448 59.0014 73.4365 59.0014C73.714 59.0014 73.9678 59.0121 74.1893 59.0261C73.9721 61.3653 73.4182 64.3368 72.6256 65.1294C72.0506 65.7046 71.2706 66.0278 70.4573 66.0279C69.644 66.028 68.8639 65.705 68.2887 65.13C67.7136 64.5549 67.3904 63.775 67.3903 62.9616Z" fill="url(#paint4_linear_730_6116)"/>
<path d="M92.16 0.5H3.84C1.99537 0.5 0.5 1.99537 0.5 3.84V92.16C0.5 94.0046 1.99537 95.5 3.84 95.5H92.16C94.0046 95.5 95.5 94.0046 95.5 92.16V3.84C95.5 1.99537 94.0046 0.5 92.16 0.5Z" stroke="#1A5C4B"/>
</g>
<defs>
<linearGradient id="paint0_linear_730_6116" x1="48" y1="24" x2="48" y2="96" gradientUnits="userSpaceOnUse">
<stop stop-color="white"/>
<stop offset="1" stop-color="#DBEFBC" stop-opacity="0.5"/>
</linearGradient>
<linearGradient id="paint1_linear_730_6116" x1="45.7444" y1="13" x2="45.7444" y2="48.8139" gradientUnits="userSpaceOnUse">
<stop stop-color="#1A5C4B"/>
<stop offset="1" stop-color="#91C543"/>
</linearGradient>
<linearGradient id="paint2_linear_730_6116" x1="45.7445" y1="52.0698" x2="45.7445" y2="71.6046" gradientUnits="userSpaceOnUse">
<stop stop-color="#1A5C4B"/>
<stop offset="1" stop-color="#91C543"/>
</linearGradient>
<linearGradient id="paint3_linear_730_6116" x1="45.7442" y1="46.502" x2="45.7442" y2="83.0001" gradientUnits="userSpaceOnUse">
<stop stop-color="#1A5C4B"/>
<stop offset="1" stop-color="#91C543"/>
</linearGradient>
<linearGradient id="paint4_linear_730_6116" x1="69.9679" y1="52.1774" x2="69.9679" y2="74.5644" gradientUnits="userSpaceOnUse">
<stop stop-color="#1A5C4B"/>
<stop offset="1" stop-color="#91C543"/>
</linearGradient>
<clipPath id="clip0_730_6116">
<rect width="96" height="96" fill="white"/>
</clipPath>
</defs>
</svg>
