<svg width="81" height="80" viewBox="0 0 81 80" fill="none" xmlns="http://www.w3.org/2000/svg">
<g clip-path="url(#clip0_780_7883)">
<rect x="0.5" width="80" height="80" rx="40" fill="#D0F19E"/>
<circle opacity="0.6" cx="40" cy="40" r="29" fill="white"/>
<g clip-path="url(#clip1_780_7883)">
<path d="M40.1506 38.1185C47.363 38.1185 53.2098 32.2717 53.2098 25.0593C53.2098 17.8468 47.363 12 40.1506 12C32.9381 12 27.0913 17.8468 27.0913 25.0593C27.0913 32.2717 32.9381 38.1185 40.1506 38.1185Z" fill="#1A5C4B"/>
<path fill-rule="evenodd" clip-rule="evenodd" d="M41.9315 52.9586V42.2738C41.9315 41.2908 41.1337 40.493 40.1507 40.493C39.1677 40.493 38.3699 41.2908 38.3699 42.2738V52.9586C38.3699 53.9416 39.1677 54.7394 40.1507 54.7394C41.1337 54.7394 41.9315 53.9416 41.9315 52.9586Z" fill="#1A5C4B"/>
<path fill-rule="evenodd" clip-rule="evenodd" d="M63.301 54.1459C63.301 45.8093 57.7568 38.7692 50.1563 36.5064C49.3561 36.2689 48.4966 36.618 48.0905 37.3493L40.1505 51.6623L32.2105 37.3493C31.8045 36.618 30.9449 36.2689 30.1447 36.5064C22.5443 38.7692 17 45.8093 17 54.1459V58.8947C17 59.9964 17.4369 61.053 18.2181 61.8319C18.9969 62.613 20.0535 63.0499 21.1552 63.0499H59.1458C60.2475 63.0499 61.3041 62.613 62.0829 61.8319C62.8641 61.053 63.301 59.9964 63.301 58.8947V54.1459ZM49.6482 53.5523H54.397C55.38 53.5523 56.1778 52.7545 56.1778 51.7715C56.1778 50.7885 55.38 49.9907 54.397 49.9907H49.6482C48.6651 49.9907 47.8673 50.7885 47.8673 51.7715C47.8673 52.7545 48.6651 53.5523 49.6482 53.5523Z" fill="#1A5C4B"/>
<circle cx="57.8162" cy="48.7347" r="9.18367" fill="#ECF9D8"/>
<path fill-rule="evenodd" clip-rule="evenodd" d="M64.6038 44.1994C65.5008 45.5419 65.9796 47.1202 65.9796 48.7347C65.9771 50.899 65.1163 52.9739 63.5859 54.5042C62.0555 56.0346 59.9806 56.8955 57.8163 56.898C56.2018 56.898 54.6235 56.4192 53.2811 55.5222C51.9386 54.6252 50.8923 53.3503 50.2745 51.8586C49.6566 50.367 49.495 48.7256 49.8099 47.1421C50.1249 45.5586 50.9024 44.104 52.044 42.9624C53.1857 41.8207 54.6403 41.0433 56.2238 40.7283C57.8073 40.4133 59.4486 40.575 60.9403 41.1928C62.4319 41.8107 63.7069 42.857 64.6038 44.1994ZM60.8642 51.1277C62.1897 49.8022 62.4737 45.7221 62.5168 44.9174C62.5258 44.7293 62.4668 44.5442 62.3505 44.396C62.2343 44.2479 62.0687 44.1464 61.8839 44.1103C61.7223 44.0782 57.8838 43.3432 55.4783 45.7495C54.9037 46.3254 54.5284 47.0698 54.407 47.8741C54.2856 48.6785 54.4247 49.5005 54.8037 50.2202C53.8406 50.759 53.1967 51.6508 53.1143 52.6469C53.1057 52.7497 53.1175 52.8531 53.1489 52.9513C53.1803 53.0495 53.2308 53.1406 53.2975 53.2193C53.3641 53.2979 53.4457 53.3627 53.5374 53.4098C53.6291 53.457 53.7292 53.4856 53.832 53.494C53.8539 53.4952 53.8759 53.4952 53.8979 53.494C54.0953 53.4946 54.2858 53.4208 54.4311 53.2872C54.5765 53.1535 54.6662 52.97 54.6822 52.7732C54.7277 52.221 55.1841 51.7206 55.854 51.4532C56.5866 52.0155 57.4987 52.2925 58.4203 52.2326C59.342 52.1727 60.2105 51.7801 60.8642 51.1277ZM55.9364 48.4362C55.9364 47.8431 56.1719 47.2742 56.5913 46.8547C57.6799 45.7661 59.258 45.5481 60.3459 45.5481C60.5482 45.5481 60.7333 45.5559 60.8949 45.5661C60.7364 47.272 60.3325 49.4391 59.7545 50.0171C59.3351 50.4366 58.7663 50.6723 58.1732 50.6724C57.58 50.6724 57.0111 50.4369 56.5917 50.0175C56.1722 49.5982 55.9365 49.0294 55.9364 48.4362Z" fill="#1A5C4B"/>
</g>
</g>
<defs>
<clipPath id="clip0_780_7883">
<rect x="0.5" width="80" height="80" rx="40" fill="white"/>
</clipPath>
<clipPath id="clip1_780_7883">
<rect width="57" height="57" fill="white" transform="translate(15 9)"/>
</clipPath>
</defs>
</svg>
