<svg width="45" height="41" viewBox="0 0 45 41" fill="none" xmlns="http://www.w3.org/2000/svg">
<g id="game-icons:teacher">
<g id="Group">
<path id="Vector" d="M22.0003 21.6347C21.7849 21.636 21.5714 21.5947 21.3721 21.5132C21.1727 21.4318 20.9914 21.3118 20.8385 21.1602L15.9294 16.2511C15.6212 15.9429 15.4481 15.525 15.4481 15.0893C15.4481 14.6535 15.6212 14.2356 15.9294 13.9274C16.2375 13.6193 16.6554 13.4462 17.0912 13.4462C17.5269 13.4462 17.9449 13.6193 18.253 13.9274L22.0003 17.6911L25.7475 13.9274C26.0557 13.6193 26.4736 13.4462 26.9094 13.4462C27.3451 13.4462 27.763 13.6193 28.0712 13.9274C28.3793 14.2356 28.5524 14.6535 28.5524 15.0893C28.5524 15.525 28.3793 15.9429 28.0712 16.2511L23.1621 21.1602C23.0092 21.3118 22.8279 21.4318 22.6285 21.5132C22.4291 21.5947 22.2156 21.636 22.0003 21.6347Z" fill="#097B1D"/>
</g>
<g id="Group 1597881942">
<path id="Vector_2" d="M39.9997 8.38514C39.9997 6.69118 39.3268 5.0666 38.1289 3.86878C36.9311 2.67097 35.3066 1.99805 33.6126 1.99805H12.7094C11.0154 1.99805 9.39082 2.67097 8.193 3.86878C6.99519 5.0666 6.32227 6.69118 6.32227 8.38514V19.998C6.32227 20.46 6.50579 20.9031 6.83247 21.2298C7.15914 21.5565 7.60221 21.74 8.0642 21.74C8.52619 21.74 8.96926 21.5565 9.29594 21.2298C9.62261 20.9031 9.80614 20.46 9.80614 19.998V8.38514C9.80614 7.61516 10.112 6.87671 10.6565 6.33225C11.2009 5.78779 11.9394 5.48192 12.7094 5.48192H21.419V10.7077C21.419 11.1697 21.6026 11.6128 21.9292 11.9395C22.2559 12.2661 22.699 12.4497 23.161 12.4497C23.623 12.4497 24.066 12.2661 24.3927 11.9395C24.7194 11.6128 24.9029 11.1697 24.9029 10.7077V5.48192H33.6126C34.3826 5.48192 35.121 5.78779 35.6655 6.33225C36.2099 6.87671 36.5158 7.61516 36.5158 8.38514V29.2884C36.5158 30.0584 36.2099 30.7968 35.6655 31.3413C35.121 31.8857 34.3826 32.1916 33.6126 32.1916H29.5481C29.0861 32.1916 28.643 32.3751 28.3163 32.7018C27.9897 33.0285 27.8061 33.4715 27.8061 33.9335C27.8061 34.3955 27.9897 34.8386 28.3163 35.1653C28.643 35.4919 29.0861 35.6755 29.5481 35.6755H33.6126C35.3066 35.6755 36.9311 35.0025 38.1289 33.8047C39.3268 32.6069 39.9997 30.9823 39.9997 29.2884V8.38514Z" fill="#097B1D"/>
<path id="Vector_3" d="M17.4187 37.4989L22.1974 32.7725C22.5029 32.4677 22.7453 32.1057 22.9106 31.7072C23.076 31.3086 23.1611 30.8814 23.1611 30.4499C23.1611 30.0184 23.076 29.5911 22.9106 29.1926C22.7453 28.794 22.5029 28.432 22.1974 28.1273L17.4187 23.4125C17.2606 23.2476 17.0702 23.1172 16.8594 23.0292C16.6486 22.9413 16.4219 22.8978 16.1935 22.9015C15.8488 22.9041 15.5126 23.0089 15.2275 23.2026C14.9424 23.3964 14.7211 23.6704 14.5918 23.9899C14.4625 24.3095 14.4309 24.6602 14.501 24.9978C14.5712 25.3353 14.7399 25.6444 14.9858 25.886L17.8368 28.7079H5.74194C5.27995 28.7079 4.83688 28.8915 4.5102 29.2181C4.18352 29.5448 4 29.9879 4 30.4499C4 30.9119 4.18352 31.3549 4.5102 31.6816C4.83688 32.0083 5.27995 32.1918 5.74194 32.1918H17.8368L14.9742 35.0137C14.648 35.3404 14.4648 35.7831 14.4648 36.2447C14.4648 36.7063 14.648 37.1491 14.9742 37.4757C15.3019 37.7904 15.7375 37.968 16.1918 37.9723C16.6462 37.9767 17.085 37.8073 17.4187 37.4989Z" fill="#097B1D"/>
</g>
</g>
</svg>
