<svg width="45" height="41" viewBox="0 0 45 41" fill="none" xmlns="http://www.w3.org/2000/svg">
<path d="M34.7289 32.7288C34.6896 32.7665 34.6472 32.8009 34.6023 32.8316H36.9761C37.2384 32.8316 37.49 32.9359 37.6754 33.1213C37.8609 33.3068 37.9651 33.5584 37.9651 33.8207C37.9651 34.083 37.8609 34.3346 37.6754 34.5201C37.49 34.7056 37.2384 34.8098 36.9761 34.8098H32.2285C31.9661 34.8098 31.7146 34.7056 31.5291 34.5201C31.3436 34.3346 31.2394 34.083 31.2394 33.8207V29.0731C31.2394 28.8108 31.3436 28.5592 31.5291 28.3738C31.7146 28.1883 31.9661 28.0841 32.2285 28.0841C32.4908 28.0841 32.7424 28.1883 32.9279 28.3738C33.1133 28.5592 33.2175 28.8108 33.2175 29.0731V31.4469L33.3204 31.3362C35.5623 29.0962 37.0896 26.2417 37.7091 23.1338C38.3287 20.0258 38.0127 16.8039 36.8011 13.8755C35.5895 10.9471 33.5368 8.44379 30.9024 6.68207C28.2681 4.92035 25.1705 3.97939 22.0014 3.97816C21.739 3.97816 21.4875 3.87396 21.302 3.68847C21.1165 3.50298 21.0123 3.2514 21.0123 2.98908C21.0123 2.72676 21.1165 2.47518 21.302 2.2897C21.4875 2.10421 21.739 2 22.0014 2C25.5613 2.00053 29.0411 3.05657 32.001 5.03461C34.9608 7.01265 37.2676 9.82387 38.6299 13.1129C39.9921 16.4018 40.3486 20.0209 39.6542 23.5124C38.9599 27.004 37.2459 30.2113 34.7289 32.7288ZM4.00008 20.0013C4.00008 24.7755 5.89664 29.3542 9.27254 32.7301C12.6484 36.106 17.2271 38.0026 22.0014 38.0026C22.2637 38.0026 22.5153 37.8984 22.7008 37.7129C22.8862 37.5274 22.9904 37.2758 22.9904 37.0135C22.9904 36.7512 22.8862 36.4996 22.7008 36.3141C22.5153 36.1286 22.2637 36.0244 22.0014 36.0244C18.832 36.0247 15.7338 35.0852 13.0985 33.3246C10.4632 31.5639 8.4092 29.0614 7.19631 26.1333C5.98341 23.2052 5.6661 19.9833 6.2845 16.8749C6.9029 13.7664 8.42923 10.9112 10.6704 8.67037C10.7021 8.63872 10.7377 8.59915 10.7733 8.55563V10.9294C10.7733 11.1917 10.8775 11.4433 11.063 11.6288C11.2485 11.8143 11.5001 11.9185 11.7624 11.9185C12.0247 11.9185 12.2763 11.8143 12.4618 11.6288C12.6473 11.4433 12.7515 11.1917 12.7515 10.9294V6.18184C12.7515 5.91952 12.6473 5.66794 12.4618 5.48245C12.2763 5.29696 12.0247 5.19275 11.7624 5.19275H7.0148C6.75248 5.19275 6.50091 5.29696 6.31542 5.48245C6.12993 5.66794 6.02572 5.91952 6.02572 6.18184C6.02572 6.44416 6.12993 6.69573 6.31542 6.88122C6.50091 7.06671 6.75248 7.17092 7.0148 7.17092H9.3886C9.34588 7.20296 9.30494 7.23729 9.26595 7.27378C7.59045 8.94182 6.26234 10.9256 5.35846 13.1102C4.45459 15.2948 3.99289 17.637 4.00008 20.0013ZM25.4157 16.587C26.0909 17.2619 26.5508 18.122 26.7372 19.0583C26.9236 19.9946 26.8281 20.9652 26.4628 21.8473C26.0976 22.7294 25.4789 23.4833 24.6851 24.0138C23.8913 24.5442 22.9581 24.8274 22.0033 24.8274C21.0486 24.8274 20.1154 24.5442 19.3216 24.0138C18.5278 23.4833 17.9091 22.7294 17.5439 21.8473C17.1786 20.9652 17.0831 19.9946 17.2695 19.0583C17.4559 18.122 17.9158 17.2619 18.591 16.587C19.4967 15.6832 20.7239 15.1756 22.0033 15.1756C23.2828 15.1756 24.51 15.6832 25.4157 16.587ZM24.0151 17.9875C23.6168 17.589 23.1092 17.3176 22.5566 17.2076C22.004 17.0975 21.4312 17.1539 20.9106 17.3694C20.3901 17.585 19.9451 17.9501 19.632 18.4186C19.319 18.887 19.1519 19.4378 19.1519 20.0013C19.1519 20.5647 19.319 21.1155 19.632 21.584C19.9451 22.0525 20.3901 22.4176 20.9106 22.6331C21.4312 22.8487 22.004 22.905 22.5566 22.795C23.1092 22.685 23.6168 22.4136 24.0151 22.0151C24.5481 21.4804 24.8474 20.7562 24.8474 20.0013C24.8474 19.2463 24.5481 18.5222 24.0151 17.9875ZM28.8458 26.8497C28.5253 27.1698 28.1829 27.4673 27.8211 27.7399L27.9359 29.0375C27.9897 29.6386 27.8295 30.2394 27.4835 30.7338C27.1375 31.2282 26.6279 31.5845 26.0447 31.7397L24.3752 32.1907C23.792 32.3475 23.1722 32.2934 22.625 32.0379C22.0778 31.7824 21.6384 31.3419 21.3842 30.7941L20.8342 29.6072C19.9338 29.4987 19.0533 29.2629 18.2191 28.907L17.1509 29.6547C16.6571 30.0019 16.0566 30.1637 15.4551 30.1116C14.8537 30.0595 14.29 29.7968 13.8632 29.3699L12.6328 28.1394C12.2051 27.7131 11.942 27.1493 11.8898 26.5476C11.8377 25.946 12 25.3453 12.3479 24.8517L13.0957 23.7835C12.7402 22.9558 12.5031 22.0821 12.3914 21.1882L11.2046 20.6383C10.6533 20.3828 10.2107 19.9399 9.95566 19.3885C9.7006 18.837 9.64966 18.213 9.81193 17.6275L10.2629 15.946C10.4198 15.3647 10.7769 14.8574 11.2713 14.5135C11.7656 14.1697 12.3655 14.0115 12.9651 14.0668L14.2628 14.1815C14.8092 13.4575 15.4537 12.8131 16.1777 12.2667L16.0669 10.965C16.0138 10.3641 16.1743 9.76372 16.5202 9.26947C16.8661 8.77522 17.3752 8.41879 17.958 8.26286L19.6276 7.81184C20.2108 7.65508 20.8306 7.70922 21.3777 7.96471C21.9249 8.2202 22.3643 8.66065 22.6186 9.20843L23.1685 10.3953C24.0689 10.5039 24.9494 10.7397 25.7836 11.0956L26.8518 10.3478C27.3454 9.99989 27.9461 9.83763 28.5477 9.88976C29.1493 9.94188 29.7132 10.205 30.1395 10.6327L31.3699 11.8631C31.7969 12.2899 32.0596 12.8536 32.1117 13.455C32.1638 14.0565 32.002 14.657 31.6548 15.1508L30.9071 16.219C31.2627 17.0467 31.4998 17.9205 31.6113 18.8144L32.7982 19.3643C33.3494 19.6198 33.792 20.0627 34.0471 20.6141C34.3021 21.1655 34.3531 21.7896 34.1908 22.3751L33.7398 24.0565C33.5829 24.6379 33.2258 25.1452 32.7315 25.489C32.2371 25.8328 31.6372 25.991 31.0376 25.9358L29.7399 25.821C29.4662 26.1843 29.1674 26.528 28.8458 26.8497ZM29.3443 23.8033L31.2077 23.9695C31.3449 23.9816 31.482 23.9451 31.5948 23.8662C31.7077 23.7873 31.7892 23.6712 31.8249 23.5382L32.2878 21.8568C32.3192 21.7246 32.3036 21.5855 32.2437 21.4635C32.1837 21.3415 32.0833 21.2442 31.9594 21.1882L30.2582 20.3969C30.0964 20.3215 29.958 20.2038 29.8577 20.0561C29.7574 19.9084 29.6989 19.7364 29.6885 19.5582C29.631 18.519 29.3617 17.5025 28.8972 16.5711C28.817 16.4113 28.7817 16.2327 28.7949 16.0544C28.8081 15.876 28.8695 15.7046 28.9724 15.5583L30.0485 14.0233C30.1278 13.9102 30.1645 13.7727 30.1522 13.6351C30.1399 13.4976 30.0793 13.3688 29.9813 13.2716L28.7271 12.0253C28.6299 11.9273 28.5011 11.8667 28.3636 11.8544C28.226 11.8421 28.0885 11.8788 27.9754 11.9581L26.4601 13.0381C26.3143 13.1403 26.1436 13.2012 25.9661 13.2145C25.7885 13.2277 25.6106 13.1928 25.4513 13.1133C24.5198 12.6491 23.5034 12.3798 22.4643 12.3221C22.2813 12.3141 22.1042 12.2555 21.9527 12.1528C21.8011 12.0501 21.681 11.9074 21.6057 11.7405L20.8145 10.0393C20.7578 9.91616 20.6602 9.81653 20.5382 9.75738C20.4163 9.69822 20.2776 9.68318 20.1458 9.71484L18.4644 10.1659C18.3322 10.2041 18.2177 10.2878 18.141 10.4021C18.0643 10.5164 18.0303 10.6541 18.045 10.791L18.2112 12.6544C18.2273 12.8322 18.195 13.011 18.1176 13.1719C18.0403 13.3328 17.9209 13.4698 17.7721 13.5683C17.3446 13.8563 16.947 14.1863 16.5852 14.5534C16.218 14.9152 15.888 15.3128 15.6 15.7403C15.5015 15.8892 15.3645 16.0086 15.2036 16.0859C15.0427 16.1632 14.8639 16.1956 14.6861 16.1795L12.791 16.045C12.6539 16.0328 12.5168 16.0694 12.4039 16.1482C12.2911 16.2271 12.2096 16.3432 12.1739 16.4762L11.7149 18.1458C11.6836 18.278 11.6992 18.417 11.7591 18.539C11.819 18.661 11.9195 18.7584 12.0433 18.8144L13.7445 19.6056C13.9063 19.681 14.0447 19.7988 14.145 19.9465C14.2453 20.0941 14.3038 20.2662 14.3142 20.4444C14.372 21.4835 14.6412 22.5 15.1055 23.4314C15.1849 23.5908 15.2199 23.7686 15.2066 23.9462C15.1934 24.1238 15.1325 24.2945 15.0303 24.4403L13.9542 25.9753C13.875 26.0884 13.8383 26.2259 13.8506 26.3635C13.8629 26.501 13.9234 26.6298 14.0215 26.727L15.2756 27.9772C15.3729 28.0753 15.5016 28.1358 15.6392 28.1481C15.7767 28.1604 15.9142 28.1237 16.0273 28.0445L17.5624 26.9684C17.7082 26.8662 17.8789 26.8053 18.0565 26.792C18.234 26.7788 18.4119 26.8138 18.5712 26.8932C19.5027 27.3575 20.5191 27.6267 21.5583 27.6845C21.7373 27.6956 21.9099 27.7553 22.0577 27.857C22.2054 27.9588 22.3227 28.0988 22.397 28.2621L23.1883 29.9633C23.2461 30.089 23.3466 30.1901 23.4719 30.2488C23.5971 30.3074 23.7392 30.3198 23.8727 30.2838L25.5541 29.8328C25.6827 29.7916 25.7931 29.7073 25.8666 29.5941C25.9402 29.4809 25.9723 29.3458 25.9577 29.2116L25.7915 27.3482C25.7754 27.1704 25.8078 26.9916 25.8851 26.8307C25.9624 26.6698 26.0818 26.5328 26.2307 26.4343C27.1009 25.858 27.8462 25.1126 28.4225 24.2425C28.522 24.0917 28.6609 23.9711 28.8241 23.8937C28.9873 23.8162 29.1686 23.785 29.3483 23.8033H29.3443Z" fill="#F7D508"/>
</svg>
