<svg width="24" height="24" viewBox="0 0 24 24" fill="none" xmlns="http://www.w3.org/2000/svg">
<mask id="mask0_358_26422" style="mask-type:alpha" maskUnits="userSpaceOnUse" x="0" y="0" width="24" height="24">
<rect width="24" height="24" fill="#D9D9D9"/>
</mask>
<g mask="url(#mask0_358_26422)">
<path d="M6 22C5.45 22 4.97917 21.8042 4.5875 21.4125C4.19583 21.0208 4 20.55 4 20V4C4 3.45 4.19583 2.97917 4.5875 2.5875C4.97917 2.19583 5.45 2 6 2H18C18.55 2 19.0208 2.19583 19.4125 2.5875C19.8042 2.97917 20 3.45 20 4V20C20 20.55 19.8042 21.0208 19.4125 21.4125C19.0208 21.8042 18.55 22 18 22H6ZM6 20H18V4H6V20ZM8 18H16V16H8V18ZM12 14C13.1 14 14.0417 13.6083 14.825 12.825C15.6083 12.0417 16 11.1 16 10C16 8.9 15.6083 7.95833 14.825 7.175C14.0417 6.39167 13.1 6 12 6C10.9 6 9.95833 6.39167 9.175 7.175C8.39167 7.95833 8 8.9 8 10C8 11.1 8.39167 12.0417 9.175 12.825C9.95833 13.6083 10.9 14 12 14ZM12 11C11.7167 11 11.4792 10.9042 11.2875 10.7125C11.0958 10.5208 11 10.2833 11 10C11 9.71667 11.0958 9.47917 11.2875 9.2875C11.4792 9.09583 11.7167 9 12 9C12.2833 9 12.5208 9.09583 12.7125 9.2875C12.9042 9.47917 13 9.71667 13 10C13 10.2833 12.9042 10.5208 12.7125 10.7125C12.5208 10.9042 12.2833 11 12 11Z" fill="#1C1B1F"/>
</g>
</svg>
