<svg width="45" height="45" viewBox="0 0 45 45" fill="none" xmlns="http://www.w3.org/2000/svg">
<g id="ri:parent-fill">
<g id="Group 1597881941">
<path id="Vector" d="M39.0556 4.3935C38.5979 4.09719 38.0511 3.96991 37.5096 4.03362C36.9681 4.09733 36.4657 4.34803 36.0893 4.74248L30.5393 10.2981C30.382 10.4589 30.1942 10.5867 29.9869 10.674C29.7795 10.7612 29.5569 10.8062 29.3319 10.8062C29.107 10.8062 28.8843 10.7612 28.677 10.674C28.4696 10.5867 28.2818 10.4589 28.1245 10.2981L26.4359 8.60946C26.0703 8.23374 25.5867 7.99513 25.0661 7.93364C24.5455 7.87215 24.0195 7.99152 23.5765 8.27173C23.2945 8.45433 23.057 8.69771 22.8813 8.98403C22.7056 9.27034 22.5962 9.59235 22.5611 9.92643C22.5261 10.2605 22.5662 10.5982 22.6786 10.9148C22.7909 11.2314 22.9727 11.5188 23.2106 11.7559L24.8373 13.3827C25.4238 13.9693 26.1201 14.4347 26.8865 14.7522C27.6528 15.0697 28.4742 15.2331 29.3038 15.2331C30.1333 15.2331 30.9547 15.0697 31.7211 14.7522C32.4874 14.4347 33.1837 13.9693 33.7702 13.3827L39.3427 7.8158C39.5734 7.58434 39.7509 7.30545 39.863 6.99847C39.9751 6.6915 40.019 6.36382 39.9917 6.03817C39.9643 5.71253 39.8665 5.39674 39.7048 5.11272C39.5432 4.82871 39.3217 4.58329 39.0556 4.3935Z" fill="#FFA500"/>
<path id="Vector_2" d="M4 11.2048V28.2038C4 29.9952 4.71164 31.7132 5.97836 32.98C7.24508 34.2467 8.96313 34.9583 10.7545 34.9583H14.0136L17.0869 38.1667C18.19 39.311 19.6973 39.9778 21.286 40.0242H21.6181C23.2068 39.9778 24.7141 39.311 25.8172 38.1667L28.8849 34.9583H32.1439C33.9353 34.9583 35.6534 34.2467 36.9201 32.98C38.1868 31.7132 38.8985 29.9952 38.8985 28.2038V20.3235C38.8985 19.7263 38.6613 19.1537 38.239 18.7314C37.8168 18.3092 37.2441 18.072 36.647 18.072C36.0498 18.072 35.4771 18.3092 35.0549 18.7314C34.6327 19.1537 34.3954 19.7263 34.3954 20.3235V28.2038C34.3954 28.8009 34.1582 29.3736 33.736 29.7958C33.3137 30.2181 32.7411 30.4553 32.1439 30.4553H28.8849C28.2768 30.4554 27.675 30.5786 27.1159 30.8175C26.5567 31.0565 26.0518 31.4062 25.6314 31.8456L22.575 35.0484C22.4316 35.1979 22.2594 35.3168 22.0689 35.3981C21.8783 35.4793 21.6733 35.5212 21.4661 35.5212C21.259 35.5212 21.0539 35.4793 20.8634 35.3981C20.6728 35.3168 20.5007 35.1979 20.3573 35.0484L17.2839 31.8456C16.8616 31.4041 16.3539 31.0532 15.7917 30.8142C15.2295 30.5752 14.6245 30.4531 14.0136 30.4553H10.7545C10.1574 30.4553 9.58472 30.2181 9.16248 29.7958C8.74024 29.3736 8.50303 28.8009 8.50303 28.2038V10.7545C8.50303 10.1574 8.74024 9.58472 9.16248 9.16248C9.58472 8.74024 10.1574 8.50303 10.7545 8.50303H16.3833C16.9805 8.50303 17.5531 8.26582 17.9754 7.84358C18.3976 7.42133 18.6348 6.84865 18.6348 6.25151C18.6348 5.65438 18.3976 5.08169 17.9754 4.65945C17.5531 4.23721 16.9805 4 16.3833 4H10.7545C8.96313 4 7.24508 4.71164 5.97836 5.97836C4.71164 7.24508 4 8.96313 4 10.7545V11.2048Z" fill="#FFA500"/>
</g>
</g>
</svg>
