<svg width="96" height="96" viewBox="0 0 96 96" fill="none" xmlns="http://www.w3.org/2000/svg">
<rect width="96" height="96" fill="#F5F5F5"/>
<g clip-path="url(#clip0_730_6116)">
<path d="M92.16 0.5H3.84C1.99537 0.5 0.5 1.99537 0.5 3.84V92.16C0.5 94.0046 1.99537 95.5 3.84 95.5H92.16C94.0046 95.5 95.5 94.0046 95.5 92.16V3.84C95.5 1.99537 94.0046 0.5 92.16 0.5Z" fill="white"/>
<path d="M96 24H0V96H96V24Z" fill="url(#paint0_linear_730_6116)"/>
<path d="M73.5668 87.7626C80.7202 87.7626 86.5193 81.9636 86.5193 74.8101C86.5193 67.6566 80.7202 61.8576 73.5668 61.8576C66.4133 61.8576 60.6143 67.6566 60.6143 74.8101C60.6143 81.9636 66.4133 87.7626 73.5668 87.7626Z" fill="#ECF9D8"/>
<mask id="mask0_730_6116" style="mask-type:luminance" maskUnits="userSpaceOnUse" x="12" y="25" width="72" height="70">
<path d="M83.2963 25H12V95H83.2963V25Z" fill="white"/>
</mask>
<g mask="url(#mask0_730_6116)">
<path d="M83.2006 95L81.8858 81.4325C81.3456 75.6488 76.3935 71.2292 70.4785 71.25H65.596C63.8653 71.2476 62.2105 70.5536 61.0126 69.3274L55.4631 76.9525L54.2434 75.7111L52.8223 77.804L55.1597 95H57.8651V87.5H60.4114C60.4114 85.4291 62.1216 83.75 64.2309 83.75H66.7772C68.8864 83.75 70.5966 85.4291 70.5966 87.5H73.1429V95H83.2006Z" fill="url(#paint1_linear_730_6116)"/>
<path d="M60.4116 90H70.5968V95H60.4116V90Z" fill="url(#paint2_linear_730_6116)"/>
<path d="M66.777 86.25H64.2307C63.5276 86.25 62.9575 86.8097 62.9575 87.5H68.0501C68.0501 86.8097 67.4801 86.25 66.777 86.25Z" fill="url(#paint3_linear_730_6116)"/>
<path d="M46.2471 68.1067L44.9534 67.7321C41.9753 66.864 39.177 65.4359 36.7016 63.5215L34.1553 67.6327L40.0831 75.3299L46.2471 68.1067Z" fill="url(#paint4_linear_730_6116)"/>
<path d="M24.882 71.25C18.9663 71.2292 14.0148 75.6488 13.4746 81.4325L12.1592 95H40.2001L42.5351 77.8015L41.1146 75.7086L39.8949 76.9501L34.3448 69.325C33.1481 70.5511 31.4945 71.2463 29.7644 71.25H24.882Z" fill="url(#paint5_linear_730_6116)"/>
<path d="M51.1993 71.2891H44.2962L41.4814 94.9609H54.014L51.1993 71.2891Z" fill="url(#paint6_linear_730_6116)"/>
<path d="M61.6526 66.9561L58.7467 63.0859C56.2266 65.0543 53.3388 66.5658 50.2311 67.5427L48.8813 67.9646L55.7711 74.6875L61.6526 66.9561Z" fill="url(#paint7_linear_730_6116)"/>
<path d="M75.2594 81.7188H56.4009V94.961H75.2594V81.7188Z" fill="url(#paint8_linear_730_6116)"/>
<path d="M49.7413 44.2334L48.286 45.1257C46.4652 46.2439 44.3609 46.8366 42.2131 46.8359H33.6753V50.4736C33.6654 57.4695 38.2258 63.6835 44.9888 65.8875L46.4783 66.3745C47.2585 66.6284 48.1014 66.6284 48.8822 66.3745L50.3717 65.8875C57.1341 63.6835 61.6951 57.4695 61.6846 50.4736V46.1725L60.1696 44.9323C57.2142 42.5073 53.005 42.2254 49.7413 44.2334Z" fill="url(#paint9_linear_730_6116)"/>
<path d="M48.3414 27.1094C47.9597 27.1094 47.5674 27.1234 47.1789 27.1485C38.4036 27.9138 31.7084 35.185 31.8147 43.8342V44.3146C31.8153 44.7876 32.0876 45.2204 32.5191 45.4321L33.3888 45.8594H42.8988C44.5692 45.86 46.206 45.3992 47.6221 44.5307L49.0774 43.6383C53.2724 41.0535 58.6851 41.4148 62.4853 44.5331L63.8193 45.6256L64.2129 45.4321C64.6437 45.2204 64.9166 44.7876 64.9166 44.3146V43.3594C64.9166 39.0454 63.1697 34.9085 60.0602 31.8604C56.9513 28.8123 52.7353 27.1033 48.3414 27.1094Z" fill="url(#paint10_linear_730_6116)"/>
</g>
<path d="M92.16 0.5H3.84C1.99537 0.5 0.5 1.99537 0.5 3.84V92.16C0.5 94.0046 1.99537 95.5 3.84 95.5H92.16C94.0046 95.5 95.5 94.0046 95.5 92.16V3.84C95.5 1.99537 94.0046 0.5 92.16 0.5Z" stroke="#1A5C4B"/>
</g>
<defs>
<linearGradient id="paint0_linear_730_6116" x1="48" y1="24" x2="48" y2="96" gradientUnits="userSpaceOnUse">
<stop stop-color="white"/>
<stop offset="1" stop-color="#DBEFBC" stop-opacity="0.5"/>
</linearGradient>
<linearGradient id="paint1_linear_730_6116" x1="68.0115" y1="69.3274" x2="68.0115" y2="95" gradientUnits="userSpaceOnUse">
<stop stop-color="#1A5C4B"/>
<stop offset="1" stop-color="#91C543"/>
</linearGradient>
<linearGradient id="paint2_linear_730_6116" x1="65.5042" y1="90" x2="65.5042" y2="95" gradientUnits="userSpaceOnUse">
<stop stop-color="#1A5C4B"/>
<stop offset="1" stop-color="#91C543"/>
</linearGradient>
<linearGradient id="paint3_linear_730_6116" x1="65.5038" y1="86.25" x2="65.5038" y2="87.5" gradientUnits="userSpaceOnUse">
<stop stop-color="#1A5C4B"/>
<stop offset="1" stop-color="#91C543"/>
</linearGradient>
<linearGradient id="paint4_linear_730_6116" x1="39.9825" y1="63.3678" x2="40.5417" y2="75.3084" gradientUnits="userSpaceOnUse">
<stop stop-color="#1A5C4B"/>
<stop offset="1" stop-color="#91C543"/>
</linearGradient>
<linearGradient id="paint5_linear_730_6116" x1="27.3471" y1="69.325" x2="27.3471" y2="95" gradientUnits="userSpaceOnUse">
<stop stop-color="#1A5C4B"/>
<stop offset="1" stop-color="#91C543"/>
</linearGradient>
<linearGradient id="paint6_linear_730_6116" x1="47.7477" y1="71.2891" x2="47.7477" y2="94.9609" gradientUnits="userSpaceOnUse">
<stop stop-color="#1A5C4B"/>
<stop offset="1" stop-color="#91C543"/>
</linearGradient>
<linearGradient id="paint7_linear_730_6116" x1="55.2669" y1="63.0859" x2="55.2669" y2="74.6875" gradientUnits="userSpaceOnUse">
<stop stop-color="#1A5C4B"/>
<stop offset="1" stop-color="#91C543"/>
</linearGradient>
<linearGradient id="paint8_linear_730_6116" x1="65.8302" y1="81.7188" x2="65.8302" y2="94.9609" gradientUnits="userSpaceOnUse">
<stop stop-color="#1A5C4B"/>
<stop offset="1" stop-color="#91C543"/>
</linearGradient>
<linearGradient id="paint9_linear_730_6116" x1="47.6799" y1="42.9001" x2="47.6799" y2="66.5649" gradientUnits="userSpaceOnUse">
<stop stop-color="#1A5C4B"/>
<stop offset="1" stop-color="#91C543"/>
</linearGradient>
<linearGradient id="paint10_linear_730_6116" x1="48.365" y1="27.1094" x2="48.365" y2="45.8594" gradientUnits="userSpaceOnUse">
<stop stop-color="#1A5C4B"/>
<stop offset="1" stop-color="#91C543"/>
</linearGradient>
<clipPath id="clip0_730_6116">
<rect width="96" height="96" fill="white"/>
</clipPath>
</defs>
</svg>
