<svg width="64" height="64" viewBox="0 0 64 64" fill="none" xmlns="http://www.w3.org/2000/svg">
<rect x="0.333496" y="0.333374" width="63.3333" height="63.3333" rx="31.6667" fill="#D0F19E"/>
<mask id="mask0_1563_35731" style="mask-type:alpha" maskUnits="userSpaceOnUse" x="11" y="11" width="42" height="42">
<rect x="11" y="11.0001" width="42" height="42" fill="#D9D9D9"/>
</mask>
<g mask="url(#mask0_1563_35731)">
<path d="M27.1876 49.5001L26.4876 43.9001C26.1084 43.7542 25.7511 43.5792 25.4157 43.3751C25.0803 43.1709 24.7522 42.9521 24.4313 42.7188L19.2251 44.9063L14.4126 36.5938L18.9188 33.1813C18.8897 32.9771 18.8751 32.7803 18.8751 32.5907V31.4094C18.8751 31.2199 18.8897 31.023 18.9188 30.8188L14.4126 27.4063L19.2251 19.0938L24.4313 21.2813C24.7522 21.048 25.0876 20.8292 25.4376 20.6251C25.7876 20.4209 26.1376 20.2459 26.4876 20.1001L27.1876 14.5001H36.8126L37.5126 20.1001C37.8918 20.2459 38.2491 20.4209 38.5845 20.6251C38.9199 20.8292 39.248 21.048 39.5688 21.2813L44.7751 19.0938L49.5876 27.4063L45.0813 30.8188C45.1105 31.023 45.1251 31.2199 45.1251 31.4094V32.5907C45.1251 32.7803 45.0959 32.9771 45.0376 33.1813L49.5438 36.5938L44.7313 44.9063L39.5688 42.7188C39.248 42.9521 38.9126 43.1709 38.5626 43.3751C38.2126 43.5792 37.8626 43.7542 37.5126 43.9001L36.8126 49.5001H27.1876ZM32.0876 38.1251C33.7793 38.1251 35.223 37.5271 36.4188 36.3313C37.6147 35.1355 38.2126 33.6917 38.2126 32.0001C38.2126 30.3084 37.6147 28.8646 36.4188 27.6688C35.223 26.473 33.7793 25.8751 32.0876 25.8751C30.3668 25.8751 28.9157 26.473 27.7345 27.6688C26.5532 28.8646 25.9626 30.3084 25.9626 32.0001C25.9626 33.6917 26.5532 35.1355 27.7345 36.3313C28.9157 37.5271 30.3668 38.1251 32.0876 38.1251Z" fill="#1A5C4B"/>
</g>
</svg>
