<svg width="64" height="64" viewBox="0 0 64 64" fill="none" xmlns="http://www.w3.org/2000/svg">
<rect x="0.333496" y="0.333374" width="63.3333" height="63.3333" rx="31.6667" fill="#D0F19E"/>
<mask id="mask0_1563_35735" style="mask-type:alpha" maskUnits="userSpaceOnUse" x="11" y="11" width="42" height="42">
<rect x="11" y="11.0001" width="42" height="42" fill="#D9D9D9"/>
</mask>
<g mask="url(#mask0_1563_35735)">
<path d="M36.3751 51.2501C35.6459 51.2501 35.0261 50.9949 34.5157 50.4844C34.0053 49.974 33.7501 49.3542 33.7501 48.6251V36.3751C33.7501 35.6459 34.0053 35.0261 34.5157 34.5157C35.0261 34.0053 35.6459 33.7501 36.3751 33.7501H48.6251C49.3543 33.7501 49.9741 34.0053 50.4845 34.5157C50.9949 35.0261 51.2501 35.6459 51.2501 36.3751V48.6251C51.2501 49.3542 50.9949 49.974 50.4845 50.4844C49.9741 50.9949 49.3543 51.2501 48.6251 51.2501H36.3751ZM27.1876 49.5001L26.4876 43.9001C26.1084 43.7542 25.7511 43.5792 25.4157 43.3751C25.0803 43.1709 24.7522 42.9521 24.4313 42.7188L19.2251 44.9063L14.4126 36.5938L18.9188 33.1813C18.8897 32.9771 18.8751 32.7803 18.8751 32.5907V31.4094C18.8751 31.2199 18.8897 31.023 18.9188 30.8188L14.4126 27.4063L19.2251 19.0938L24.4313 21.2813C24.7522 21.048 25.0876 20.8292 25.4376 20.6251C25.7876 20.4209 26.1376 20.2459 26.4876 20.1001L27.1876 14.5001H36.8126L37.5126 20.1001C37.8918 20.2459 38.2491 20.4209 38.5845 20.6251C38.9199 20.8292 39.248 21.048 39.5688 21.2813L44.7751 19.0938L49.5876 27.4063L45.8689 30.2501H37.9501C37.5418 28.9959 36.8126 27.9532 35.7626 27.1219C34.7126 26.2907 33.4876 25.8751 32.0876 25.8751C30.3959 25.8751 28.9522 26.473 27.7563 27.6688C26.5605 28.8646 25.9626 30.3084 25.9626 32.0001C25.9626 33.4001 26.3563 34.6251 27.1438 35.6751C27.9313 36.7251 28.9668 37.4542 30.2501 37.8626V49.5001H27.1876ZM37.2501 47.7501H47.7501V46.3063C47.0209 45.6355 46.2043 45.1251 45.3001 44.7751C44.3959 44.4251 43.4626 44.2501 42.5001 44.2501C41.5376 44.2501 40.6043 44.4251 39.7001 44.7751C38.7959 45.1251 37.9793 45.6355 37.2501 46.3063V47.7501ZM42.5001 42.5001C43.2293 42.5001 43.8491 42.2449 44.3595 41.7344C44.8699 41.224 45.1251 40.6042 45.1251 39.8751C45.1251 39.1459 44.8699 38.5261 44.3595 38.0157C43.8491 37.5053 43.2293 37.2501 42.5001 37.2501C41.7709 37.2501 41.1511 37.5053 40.6407 38.0157C40.1303 38.5261 39.8751 39.1459 39.8751 39.8751C39.8751 40.6042 40.1303 41.224 40.6407 41.7344C41.1511 42.2449 41.7709 42.5001 42.5001 42.5001Z" fill="#1A5C4B"/>
</g>
</svg>
