<svg width="45" height="41" viewBox="0 0 45 41" fill="none" xmlns="http://www.w3.org/2000/svg">
<path d="M20.6667 3C16.2464 3 12.0072 4.75595 8.88155 7.88155C5.75595 11.0072 4 15.2464 4 19.6667C4 24.0869 5.75595 28.3262 8.88155 31.4518C12.0072 34.5774 16.2464 36.3333 20.6667 36.3333V33C18.0296 33 15.4517 32.218 13.2591 30.7529C11.0664 29.2878 9.35744 27.2055 8.34827 24.7691C7.3391 22.3328 7.07506 19.6519 7.58953 17.0655C8.104 14.479 9.37388 12.1033 11.2386 10.2386C13.1033 8.37388 15.479 7.104 18.0655 6.58953C20.6519 6.07506 23.3328 6.3391 25.7691 7.34827C28.2055 8.35744 30.2878 10.0664 31.7529 12.2591C33.218 14.4517 34 17.0296 34 19.6667V23H37.3333V19.6667C37.3333 17.478 36.9022 15.3107 36.0647 13.2886C35.2271 11.2665 33.9994 9.4292 32.4518 7.88155C30.9041 6.33391 29.0668 5.10625 27.0447 4.26867C25.0226 3.4311 22.8554 3 20.6667 3ZM29 18H12.3333V14.6667H29V18ZM20.6667 24.6667H12.3333V21.3333H20.6667V24.6667ZM40 29.8L32.9167 36.8833L31.75 38.05C31.5951 38.2062 31.4107 38.3302 31.2076 38.4148C31.0045 38.4994 30.7867 38.543 30.5667 38.543C30.3466 38.543 30.1288 38.4994 29.9257 38.4148C29.7226 38.3302 29.5383 38.2062 29.3833 38.05L24.6667 33.35L27.0333 30.9833L30.5667 34.5167L37.6333 27.45L40 29.8Z" fill="#1A5C4B"/>
</svg>
