<svg width="80" height="80" viewBox="0 0 80 80" fill="none" xmlns="http://www.w3.org/2000/svg">
<rect width="80" height="80" rx="40" fill="#D0F19E"/>
<circle opacity="0.6" cx="40" cy="40" r="29" fill="white"/>
<g clip-path="url(#clip0_780_7932)">
<path d="M40 30.1176C34.5509 30.1176 30.1177 34.5509 30.1177 40C30.1177 45.4491 34.5509 49.8824 40 49.8824C45.4492 49.8824 49.8824 45.4491 49.8824 40C49.8824 34.5509 45.4492 30.1176 40 30.1176ZM41.4118 47.0588H38.5883V44.2353H41.4118V47.0588ZM41.4118 41.4118H38.5883V32.9412H41.4118V41.4118Z" fill="#1A5C4B"/>
<path d="M64 43.8885V36.1116L57.428 34.234C57.1473 33.3858 56.8032 32.5567 56.3997 31.7557L59.7201 25.779L54.221 20.2799L48.2443 23.6003C47.4434 23.1968 46.6143 22.8528 45.766 22.572L43.8885 16H36.1116L34.2339 22.572C33.3857 22.8528 32.5566 23.1969 31.7557 23.6003L25.779 20.2799L20.2799 25.779L23.6003 31.7557C23.1968 32.5566 22.8528 33.3858 22.572 34.234L16 36.1116V43.8885L22.572 45.7661C22.8527 46.6144 23.1968 47.4434 23.6002 48.2444L20.2799 54.2211L25.779 59.7202L31.7557 56.3998C32.5566 56.8033 33.3857 57.1473 34.2339 57.4281L36.1116 64H43.8885L45.7661 57.428C46.6144 57.1473 47.4434 56.8032 48.2444 56.3997L54.2211 59.7201L59.7202 54.221L56.3998 48.2443C56.8033 47.4433 57.1473 46.6143 57.4281 45.766L64 43.8885ZM40 52.7059C32.994 52.7059 27.2941 47.0061 27.2941 40C27.2941 32.9939 32.994 27.2941 40 27.2941C47.006 27.2941 52.7059 32.994 52.7059 40C52.7059 47.006 47.0061 52.7059 40 52.7059Z" fill="#1A5C4B"/>
</g>
<defs>
<clipPath id="clip0_780_7932">
<rect width="48" height="48" fill="white" transform="translate(16 16)"/>
</clipPath>
</defs>
</svg>
