<svg width="64" height="64" viewBox="0 0 64 64" fill="none" xmlns="http://www.w3.org/2000/svg">
<rect width="64" height="64" rx="32" fill="#D7DEDA"/>
<mask id="mask0_19_67809" style="mask-type:alpha" maskUnits="userSpaceOnUse" x="16" y="16" width="32" height="32">
<rect x="16" y="16" width="32" height="32" fill="#D9D9D9"/>
</mask>
<g mask="url(#mask0_19_67809)">
<path d="M30.6666 37.3334V26.4667L27.1999 29.9334L25.3333 28L31.9999 21.3334L38.6666 28L36.7999 29.9334L33.3333 26.4667V37.3334H30.6666ZM23.9999 42.6667C23.2666 42.6667 22.6388 42.4056 22.1166 41.8834C21.5944 41.3612 21.3333 40.7334 21.3333 40V36H23.9999V40H39.9999V36H42.6666V40C42.6666 40.7334 42.4055 41.3612 41.8833 41.8834C41.361 42.4056 40.7333 42.6667 39.9999 42.6667H23.9999Z" fill="#5C6460"/>
</g>
</svg>
