<svg width="44" height="41" viewBox="0 0 44 41" fill="none" xmlns="http://www.w3.org/2000/svg">
<g id="hugeicons:user-id-verification">
<path id="Vector" d="M16.7456 2.58334C11.8579 2.69334 9.00342 3.16084 7.05275 5.10418C5.34409 6.80551 4.77392 9.19801 4.58325 13.0333M27.2543 2.58334C32.1419 2.69334 34.9964 3.16084 36.9471 5.10418C38.6558 6.80551 39.2259 9.19801 39.4166 13.0333M27.2543 37.4167C32.1419 37.3067 34.9964 36.8392 36.9471 34.8958C38.6558 33.1945 39.2259 30.802 39.4166 26.9667M16.7456 37.4167C11.8579 37.3067 9.00342 36.8392 7.05275 34.8958C5.34409 33.1945 4.77392 30.802 4.58325 26.9667M13.7499 29.1667C18.0253 24.6897 25.9288 24.4788 30.2499 29.1667M26.5741 15.4167C26.5741 17.9467 24.5208 20 21.9853 20C21.3827 20.001 20.786 19.8831 20.229 19.6532C19.6721 19.4233 19.166 19.0859 18.7396 18.6602C18.3132 18.2345 17.975 17.7289 17.7442 17.1723C17.5134 16.6158 17.3946 16.0192 17.3946 15.4167C17.3946 12.8867 19.4479 10.8333 21.9853 10.8333C22.5876 10.8326 23.1842 10.9506 23.7409 11.1806C24.2976 11.4107 24.8035 11.7482 25.2297 12.1738C25.6559 12.5995 25.994 13.105 26.2247 13.6614C26.4554 14.2179 26.5741 14.8143 26.5741 15.4167Z" stroke="#E2292A" stroke-width="3" stroke-linecap="round" stroke-linejoin="round"/>
</g>
</svg>
