<svg width="81" height="80" viewBox="0 0 81 80" fill="none" xmlns="http://www.w3.org/2000/svg">
<rect width="81" height="80" fill="#F5F5F5"/>
<g clip-path="url(#clip0_730_6116)">
<rect width="1920" height="2274" transform="translate(-1375 -703)" fill="white"/>
<g filter="url(#filter0_d_730_6116)">
<path d="M-100 -4C-100 -10.6274 -94.6274 -16 -88 -16H169C175.627 -16 181 -10.6274 181 -4V236C181 242.627 175.627 248 169 248H-88C-94.6274 248 -100 242.627 -100 236V-4Z" fill="white"/>
<path d="M-99.5 -4C-99.5 -10.3513 -94.3513 -15.5 -88 -15.5H169C175.351 -15.5 180.5 -10.3513 180.5 -4V236C180.5 242.351 175.351 247.5 169 247.5H-88C-94.3513 247.5 -99.5 242.351 -99.5 236V-4Z" stroke="#D7DEDA"/>
<rect x="0.5" width="80" height="80" rx="40" fill="#D0F19E"/>
<circle opacity="0.6" cx="40" cy="40" r="29" fill="white"/>
</g>
<g clip-path="url(#clip1_730_6116)">
<path d="M30.3756 46.6575C30.3938 46.6489 30.4062 46.6413 30.4148 46.6365C30.4024 46.6441 30.389 46.6508 30.3756 46.6575Z" fill="#1A5C4B"/>
<path d="M33.0448 44.9237C32.7127 45.1701 32.3627 45.4029 32 45.6245L37.8884 51L41 47.842L35.0543 43C34.4812 43.7159 33.8057 44.3625 33.0448 44.9237Z" fill="#1A5C4B"/>
<path d="M41.4948 52L43 50.5137L41.5495 49L40 50.6636L41.4948 52Z" fill="#1A5C4B"/>
<path d="M31.4438 24.5409C31.5424 23.8308 31.7058 23.1312 31.9319 22.4508C33.0468 19.1347 35.269 19.2983 36.495 19.6907C38.3335 20.2802 43.7235 20.1156 45.3829 19.6773C46.8836 19.2801 48.8857 19.44 49.8982 22.4527C49.9451 22.5934 49.9882 22.7341 50.0293 22.8747C50.2351 21.3636 50.2724 19.5634 49.9078 17.2283C49.5881 15.1879 49.1087 13.4958 47.8865 12C46.5304 12.8537 45.025 12.69 43.7857 12.556C43.645 12.5407 43.5062 12.5254 43.3684 12.512C39.0024 12.0833 35.8729 13.1312 33.5196 15.8071C33.2937 16.0626 33.0832 16.2942 32.8793 16.5181C31.5309 18.0006 30.9155 18.6762 31.0093 20.9837C31.0708 22.1781 31.2159 23.3668 31.4438 24.5409Z" fill="#1A5C4B"/>
<path d="M32.5395 34.6305C32.906 36.0335 34.0764 37.0882 35.3148 38.205L35.6747 38.5304C35.6809 38.5376 35.6876 38.5443 35.6948 38.5505L35.7197 38.5764C35.7338 38.5903 35.7472 38.605 35.7599 38.6204L35.78 38.6453C35.7924 38.6615 35.8058 38.6778 35.8173 38.695C35.8288 38.7123 35.8278 38.7123 35.8336 38.7199L35.8661 38.7735L35.8805 38.8022C35.89 38.8196 35.8986 38.8375 35.9063 38.8558C35.9117 38.8667 35.9164 38.8779 35.9206 38.8893C35.9273 38.9065 35.934 38.9238 35.9398 38.941C35.9455 38.9582 35.9474 38.9668 35.9503 38.9802C35.9532 38.9936 35.9599 39.0137 35.9637 39.031C35.9675 39.0482 35.9695 39.0578 35.9714 39.0721C35.9733 39.0865 35.9771 39.1066 35.98 39.1238C35.9829 39.141 35.98 39.1506 35.98 39.164V39.2195V39.2396C35.9819 40.0387 35.8476 40.8323 35.5828 41.5862L40.4742 46.0718L45.3656 41.5872C45.1005 40.833 44.9665 40.039 44.9694 39.2396C44.9694 39.2319 44.9694 39.2252 44.9694 39.2185V39.1659C44.9694 39.1515 44.9694 39.1372 44.9694 39.1228C44.9694 39.1085 44.9742 39.0903 44.977 39.074L44.9856 39.03C44.9856 39.0137 44.9933 38.9975 44.9981 38.9822C45.0029 38.9668 45.0057 38.9544 45.0105 38.94C45.0153 38.9257 45.022 38.9075 45.0278 38.8912C45.0335 38.875 45.0373 38.8664 45.0431 38.8549C45.0488 38.8434 45.0593 38.8204 45.068 38.8032L45.0833 38.7726L45.1148 38.7218L45.133 38.6941C45.1436 38.6778 45.156 38.6625 45.1684 38.6462L45.1905 38.6204C45.2024 38.6054 45.2152 38.591 45.2287 38.5773L45.2555 38.5505L45.2747 38.5304L45.6345 38.205C46.8729 37.0882 48.0434 36.0335 48.4099 34.6305C48.773 33.1777 49.4711 31.83 50.4484 30.6952C51.4427 29.5095 51.4523 28.9544 51.4102 28.7716C51.348 28.4988 51.0044 28.2787 50.6982 28.1323C50.6025 28.2098 50.4321 28.473 50.3154 28.651C50.2149 28.8051 50.1 28.9793 49.9699 29.1544L49.9546 29.1764C49.9469 29.1869 49.9373 29.1975 49.9297 29.207C49.922 29.2166 49.9182 29.2223 49.9115 29.229C49.8748 29.2718 49.8341 29.3109 49.7899 29.3458L49.7746 29.3582L49.7229 29.3956L49.7 29.4099L49.6512 29.4396L49.6253 29.453C49.6079 29.4623 49.59 29.4706 49.5717 29.4779L49.5488 29.4884C49.5239 29.4989 49.498 29.5075 49.4722 29.5162L49.4473 29.5229L49.3899 29.5372L49.3602 29.543C49.3401 29.543 49.321 29.5497 49.3009 29.5516H49.276C49.2441 29.5533 49.2122 29.5533 49.1803 29.5516H49.1478C49.1248 29.5516 49.1018 29.5497 49.0789 29.5458H49.054C49.031 29.5458 49.008 29.5382 48.9851 29.5334L48.9621 29.5286C48.9382 29.5229 48.9152 29.5162 48.8922 29.5085H48.8875L48.8501 29.4941L48.8071 29.4769L48.7717 29.4606L48.7286 29.4377L48.698 29.4205L48.6463 29.387L48.6281 29.3745C48.6061 29.3582 48.5841 29.3401 48.563 29.3219L48.5477 29.3075C48.5314 29.2932 48.5161 29.2788 48.5018 29.2635L48.4826 29.2424L48.4453 29.1984L48.4271 29.1755C48.4147 29.1592 48.4032 29.142 48.3927 29.1257L48.3793 29.1056C48.3649 29.0826 48.3515 29.0587 48.3391 29.0348C48.3344 29.0258 48.3302 29.0165 48.3266 29.007C48.319 28.9907 48.3113 28.9745 48.3046 28.9582C48.2979 28.9419 48.296 28.9362 48.2922 28.9247L48.2759 28.8769C48.2759 28.8654 48.2692 28.8539 48.2663 28.8424C48.2635 28.8309 48.2568 28.8022 48.253 28.7812C48.2508 28.774 48.2492 28.7666 48.2482 28.7591C48.2435 28.7309 48.2403 28.7025 48.2386 28.674C48.2386 28.6654 48.2386 28.6567 48.2386 28.6481C48.2386 28.6395 48.2386 28.6204 48.2386 28.606C48.2386 28.3428 48.2386 28.0835 48.2386 27.826C48.2386 25.7024 48.2309 23.8687 47.6462 22.1327C47.0997 20.5057 46.4221 20.3382 45.4355 20.6014C43.4917 21.1172 37.7247 21.3087 35.4775 20.5861C34.7272 20.3459 33.9415 20.2674 33.3147 22.1327C32.7299 23.8678 32.727 25.6995 32.7222 27.8203V28.5917V28.6022C32.7227 28.8007 32.6615 28.9945 32.5469 29.1567C32.4324 29.3188 32.2703 29.4414 32.083 29.5073C31.8958 29.5732 31.6926 29.5793 31.5018 29.5246C31.3109 29.47 31.1418 29.3573 31.0178 29.2022L30.9852 29.1592L30.9718 29.142C30.8465 28.9726 30.7364 28.8032 30.6388 28.6539C30.522 28.4759 30.3517 28.2136 30.256 28.1361C30.1861 28.1696 30.123 28.2031 30.0646 28.2318L30.032 28.25C29.7363 28.4251 29.5688 28.6089 29.5363 28.7965C29.5038 28.984 29.5363 29.5391 30.5039 30.6971C31.4794 31.8319 32.1764 33.1788 32.5395 34.6305Z" fill="#1A5C4B"/>
<path d="M46 43L42 46.4556L44.4304 49C44.6129 46.9343 45.1427 44.909 46 43Z" fill="#1A5C4B"/>
<path d="M44.0262 52.3815L43.6163 52L42 53.4245L45.1215 60H50C48.432 59.1448 47.0917 58.0265 46.0636 56.7154C45.0355 55.4042 44.3418 53.9287 44.0262 52.3815Z" fill="#1A5C4B"/>
<path d="M61.4991 59.9316H64.9646C64.9186 58.7525 64.8574 57.4481 64.8038 56.7226C63.9205 57.9962 62.7982 59.0861 61.4991 59.9316Z" fill="#1A5C4B"/>
<path d="M65.0001 49.9708C65.0001 48.0007 64.4159 46.0749 63.3214 44.4369C62.2269 42.7988 60.6712 41.5221 58.8511 40.7682C57.031 40.0143 55.0282 39.8171 53.096 40.2014C51.1638 40.5857 49.389 41.5344 47.9959 42.9275C46.6029 44.3205 45.6542 46.0953 45.2699 48.0275C44.8856 49.9597 45.0828 51.9625 45.8367 53.7826C46.5906 55.6027 47.8673 57.1584 49.5054 58.2529C51.1434 59.3474 53.0692 59.9316 55.0393 59.9316C57.6801 59.9285 60.2119 58.8781 62.0793 57.0108C63.9466 55.1434 64.997 52.6116 65.0001 49.9708ZM60.7748 45.3129C60.7221 46.2948 60.3757 51.2733 58.7583 52.8907C57.9606 53.6868 56.9008 54.1659 55.7762 54.2389C54.6516 54.312 53.5388 53.974 52.6448 53.2879C51.8275 53.6142 51.2705 54.2248 51.215 54.8986C51.1955 55.1387 51.0861 55.3627 50.9087 55.5257C50.7313 55.6887 50.4989 55.7789 50.2579 55.7781C50.2312 55.7795 50.2043 55.7795 50.1776 55.7781C50.0522 55.7678 49.93 55.7329 49.8181 55.6754C49.7062 55.6179 49.6067 55.5389 49.5254 55.4429C49.444 55.3469 49.3824 55.2358 49.3441 55.1159C49.3057 54.9961 49.2914 54.8699 49.3019 54.7445C49.4024 53.529 50.1881 52.4409 51.3633 51.7834C50.9008 50.9052 50.7311 49.9022 50.8792 48.9207C51.0273 47.9393 51.4853 47.0309 52.1864 46.3283C55.1216 43.3922 59.8053 44.2889 60.0024 44.3281C60.228 44.3722 60.4301 44.496 60.5719 44.6768C60.7137 44.8576 60.7857 45.0834 60.7748 45.3129Z" fill="#1A5C4B"/>
<path d="M39.5525 51.4079L39.1306 51.8781C39.0373 51.9823 38.9227 52.0665 38.7943 52.1254C38.6658 52.1843 38.5262 52.2166 38.3843 52.2202H38.3576C38.2204 52.2207 38.0845 52.1944 37.9579 52.1429C37.8313 52.0914 37.7166 52.0156 37.6205 51.9201L31.7147 46C31.6285 46.038 31.5433 46.077 31.456 46.113L31.4108 46.132H31.4016L30.5803 46.5122C29.8864 46.8323 29.1678 47.1644 28.4656 47.4935C27.0992 48.1388 25.4331 48.6389 23.8214 49.1311C22.3442 49.5793 20.8167 50.0394 19.6269 50.5846C18.7902 50.9658 18.1158 51.56 17.5655 52.4013C16.9403 53.3566 16.5266 54.502 16.231 56.1126C16.1601 56.4697 16.0657 58.3514 16 60H38.0353L41 52.7494L39.5525 51.4079Z" fill="#1A5C4B"/>
<path d="M39 60H43L41.0005 55L39 60Z" fill="#1A5C4B"/>
<path d="M53.5444 47.6768C53.0327 48.1886 52.7453 48.8827 52.7454 49.6065C52.7455 50.3302 53.033 51.0243 53.5449 51.536C54.0567 52.0477 54.7508 52.3351 55.4746 52.335C56.1983 52.335 56.8924 52.0474 57.4041 51.5355C58.1094 50.8302 58.6023 48.1859 58.7956 46.1044C58.5985 46.0919 58.3726 46.0824 58.1257 46.0824C56.7983 46.0824 54.8728 46.3484 53.5444 47.6768Z" fill="#1A5C4B"/>
</g>
</g>
<defs>
<filter id="filter0_d_730_6116" x="-120" y="-32" width="321" height="304" filterUnits="userSpaceOnUse" color-interpolation-filters="sRGB">
<feFlood flood-opacity="0" result="BackgroundImageFix"/>
<feColorMatrix in="SourceAlpha" type="matrix" values="0 0 0 0 0 0 0 0 0 0 0 0 0 0 0 0 0 0 127 0" result="hardAlpha"/>
<feOffset dy="4"/>
<feGaussianBlur stdDeviation="10"/>
<feColorMatrix type="matrix" values="0 0 0 0 0 0 0 0 0 0 0 0 0 0 0 0 0 0 0.1 0"/>
<feBlend mode="normal" in2="BackgroundImageFix" result="effect1_dropShadow_730_6116"/>
<feBlend mode="normal" in="SourceGraphic" in2="effect1_dropShadow_730_6116" result="shape"/>
</filter>
<clipPath id="clip0_730_6116">
<rect width="1920" height="2274" fill="white" transform="translate(-1375 -703)"/>
</clipPath>
<clipPath id="clip1_730_6116">
<rect width="49" height="49" fill="white" transform="translate(16 11)"/>
</clipPath>
</defs>
</svg>
