<svg width="64" height="64" viewBox="0 0 64 64" fill="none" xmlns="http://www.w3.org/2000/svg">
<rect x="0.333496" width="63.3333" height="63.3333" rx="31.6667" fill="#D0F19E"/>
<mask id="mask0_1563_35715" style="mask-type:alpha" maskUnits="userSpaceOnUse" x="11" y="10" width="42" height="43">
<rect x="11" y="10.6667" width="42" height="42" fill="#D9D9D9"/>
</mask>
<g mask="url(#mask0_1563_35715)">
<path d="M39 29.9167L32 36.9167L25 29.9167L27.45 27.4667L30.25 30.1792V22.9167H33.75V30.1792L36.55 27.4667L39 29.9167ZM28.5 45.6667H35.5V43.9167H28.5V45.6667ZM23.25 50.9167C22.2875 50.9167 21.4635 50.5739 20.7781 49.8885C20.0927 49.2031 19.75 48.3792 19.75 47.4167V15.9167C19.75 14.9542 20.0927 14.1302 20.7781 13.4448C21.4635 12.7594 22.2875 12.4167 23.25 12.4167H40.75C41.7125 12.4167 42.5365 12.7594 43.2219 13.4448C43.9073 14.1302 44.25 14.9542 44.25 15.9167V47.4167C44.25 48.3792 43.9073 49.2031 43.2219 49.8885C42.5365 50.5739 41.7125 50.9167 40.75 50.9167H23.25ZM23.25 38.6667H40.75V21.1667H23.25V38.6667Z" fill="#1A5C4B"/>
</g>
</svg>
