<svg width="96" height="96" viewBox="0 0 96 96" fill="none" xmlns="http://www.w3.org/2000/svg">
<rect width="96" height="96" fill="#F5F5F5"/>
<g clip-path="url(#clip0_730_6116)">
<path d="M92.16 0.5H3.84C1.99537 0.5 0.5 1.99537 0.5 3.84V92.16C0.5 94.0046 1.99537 95.5 3.84 95.5H92.16C94.0046 95.5 95.5 94.0046 95.5 92.16V3.84C95.5 1.99537 94.0046 0.5 92.16 0.5Z" fill="white"/>
<path d="M96 24H0V96H96V24Z" fill="url(#paint0_linear_730_6116)"/>
<path d="M47.7292 13L12 28.2271C12.1641 39.038 15.1541 49.6204 20.6761 58.9339C26.1981 68.2475 34.0619 75.9716 43.4946 81.347L46.4059 83V57.6311H49.0525V83L51.9637 81.3496C61.3959 75.973 69.2593 68.2483 74.7812 58.9344C80.303 49.6206 83.2934 39.0382 83.4583 28.2271L47.7292 13ZM46.4059 55.7702L38.0796 47.4867L36.2058 49.3503L44.5347 57.6311H42.436C38.5769 57.6262 34.8773 56.0994 32.1485 53.3855C29.4197 50.6716 27.8845 46.9922 27.8796 43.1542V39.2059H31.8495C35.7086 39.2108 39.4082 40.7376 42.137 43.4515C44.8658 46.1654 46.401 49.8448 46.4059 53.6829V55.7702ZM47.7292 45.5863L46.3397 44.0991C44.6776 42.2745 43.7571 39.9004 43.7571 37.4384C43.7571 34.9764 44.6776 32.6023 46.3397 30.7777L47.7292 29.2905L49.1186 30.7777C50.7807 32.6023 51.7012 34.9764 51.7012 37.4384C51.7012 39.9004 50.7807 42.2745 49.1186 44.0991L47.7292 45.5863ZM53.0224 57.6311H50.9236L59.2525 49.3503L57.3787 47.4867L49.0525 55.7702V53.6829C49.0574 49.8448 50.5926 46.1654 53.3213 43.4515C56.0501 40.7376 59.7497 39.2108 63.6088 39.2059H67.5787V43.1542C67.5738 46.9922 66.0386 50.6716 63.3098 53.3855C60.5811 56.0994 56.8815 57.6262 53.0224 57.6311Z" fill="url(#paint1_linear_730_6116)"/>
<path d="M92.16 0.5H3.84C1.99537 0.5 0.5 1.99537 0.5 3.84V92.16C0.5 94.0046 1.99537 95.5 3.84 95.5H92.16C94.0046 95.5 95.5 94.0046 95.5 92.16V3.84C95.5 1.99537 94.0046 0.5 92.16 0.5Z" stroke="#1A5C4B"/>
</g>
<defs>
<linearGradient id="paint0_linear_730_6116" x1="48" y1="24" x2="48" y2="96" gradientUnits="userSpaceOnUse">
<stop stop-color="white"/>
<stop offset="1" stop-color="#DBEFBC" stop-opacity="0.5"/>
</linearGradient>
<linearGradient id="paint1_linear_730_6116" x1="47.7292" y1="13" x2="47.7292" y2="83" gradientUnits="userSpaceOnUse">
<stop stop-color="#1A5C4B"/>
<stop offset="1" stop-color="#91C543"/>
</linearGradient>
<clipPath id="clip0_730_6116">
<rect width="96" height="96" fill="white"/>
</clipPath>
</defs>
</svg>
