<svg width="96" height="96" viewBox="0 0 96 96" fill="none" xmlns="http://www.w3.org/2000/svg">
<rect width="96" height="96" fill="#F5F5F5"/>
<g clip-path="url(#clip0_730_6116)">
<path d="M92.16 0.5H3.84C1.99537 0.5 0.5 1.99537 0.5 3.84V92.16C0.5 94.0046 1.99537 95.5 3.84 95.5H92.16C94.0046 95.5 95.5 94.0046 95.5 92.16V3.84C95.5 1.99537 94.0046 0.5 92.16 0.5Z" fill="white"/>
<path d="M96 24H0V96H96V24Z" fill="url(#paint0_linear_730_6116)"/>
<path d="M28.1689 39.6934C28.8947 35.6036 30.8596 31.8356 33.7975 28.8994C45.2783 17.2867 65.4426 23.8179 68.1283 39.6934C70.1407 39.7455 74.1411 39.4572 76.0251 40.1565C71.3197 7.01693 25.0991 7.04961 20.3076 40.0614C22.0714 39.4826 26.3421 39.7464 28.1689 39.6934Z" fill="url(#paint1_linear_730_6116)"/>
<path d="M29.3681 42.0685H23.0625C22.8836 42.0626 22.7046 42.0745 22.5281 42.1041C21.7069 42.1402 20.8969 42.3087 20.1294 42.6029C18.5489 43.1996 17.1876 44.2635 16.2267 45.653C15.2657 47.0425 14.7507 48.6916 14.75 50.381V57.6129C14.7524 59.8167 15.629 61.9296 17.1873 63.488C18.7457 65.0464 20.8586 65.9229 23.0625 65.9254H29.3681C29.5242 65.9259 29.6789 65.8956 29.8232 65.8361C29.9675 65.7766 30.0986 65.6891 30.209 65.5788C30.3194 65.4684 30.4069 65.3373 30.4663 65.1929C30.5258 65.0486 30.5562 64.894 30.5556 64.7379V43.256C30.5547 42.9413 30.4293 42.6398 30.2068 42.4173C29.9843 42.1948 29.6828 42.0694 29.3681 42.0685Z" fill="url(#paint2_linear_730_6116)"/>
<path d="M76.1919 42.7334C75.4286 42.4059 74.6196 42.1976 73.7931 42.1159C73.5094 42.082 73.2239 42.0661 72.9381 42.0684H66.9531C66.6385 42.0693 66.337 42.1947 66.1145 42.4172C65.892 42.6397 65.7665 42.9412 65.7656 43.2559V64.7378C65.7651 64.8939 65.7954 65.0485 65.8549 65.1928C65.9144 65.3372 66.0018 65.4683 66.1122 65.5787C66.2226 65.6891 66.3537 65.7765 66.498 65.836C66.6424 65.8955 66.797 65.9258 66.9531 65.9253H72.9381C73.1326 65.9252 73.327 65.9133 73.52 65.8896C75.6175 65.7462 77.5823 64.8119 79.0173 63.2755C80.4523 61.739 81.2505 59.7151 81.2506 57.6128V50.3809C81.2485 48.751 80.768 47.1575 79.8688 45.798C78.9695 44.4386 77.6911 43.373 76.1919 42.7334Z" fill="url(#paint3_linear_730_6116)"/>
<path d="M71.1438 68.3002C71.2005 69.2398 71.065 70.181 70.7455 71.0664C70.4261 71.9518 69.9294 72.7628 69.2858 73.4497C68.6423 74.1366 67.8654 74.685 67.0027 75.0615C66.14 75.4379 65.2096 75.6344 64.2683 75.6391H57.2858C57.0939 74.8714 56.6505 74.1902 56.0264 73.7038C55.4023 73.2174 54.6333 72.9539 53.8421 72.9553H42.4777C37.7047 72.9874 37.7138 80.6598 42.4776 80.6978H53.842C54.6323 80.6956 55.3995 80.4308 56.0229 79.945C56.6463 79.4592 57.0905 78.7799 57.2857 78.0141L64.2682 78.014C65.5234 78.0097 66.7646 77.7513 67.9171 77.2542C69.0697 76.7571 70.1095 76.0316 70.974 75.1217C71.8385 74.2117 72.5097 73.136 72.947 71.9595C73.3844 70.7831 73.5789 69.5302 73.5189 68.2765C73.1582 68.3081 71.5008 68.3069 71.1438 68.3002Z" fill="url(#paint4_linear_730_6116)"/>
<path d="M48.1543 65.2249C51.5762 65.2262 54.8968 64.0633 57.5702 61.9272C60.2436 59.7912 62.1107 56.8092 62.8647 53.4714C63.6187 50.1336 63.2147 46.6385 61.7191 43.5608C60.2234 40.483 57.7252 38.0057 54.635 36.5359C51.5447 35.0662 48.0464 34.6915 44.7151 35.4735C41.3837 36.2555 38.4175 38.1476 36.304 40.8389C34.1905 43.5301 33.0555 46.8603 33.0855 50.2821C33.1156 53.7039 34.3089 57.0137 36.4693 59.6674L35.3531 65.7236C35.3163 65.9401 35.3396 66.1625 35.4206 66.3666C35.5016 66.5707 35.6371 66.7487 35.8123 66.881C35.9875 67.0133 36.1958 67.095 36.4142 67.1171C36.6327 67.1391 36.853 67.1007 37.0512 67.0061L42.6918 64.1917C44.4322 64.874 46.285 65.2244 48.1543 65.2249ZM55.3387 48.7899H55.3506C55.6655 48.7899 55.9676 48.915 56.1903 49.1377C56.413 49.3604 56.5381 49.6624 56.5381 49.9774C56.5381 50.2923 56.413 50.5944 56.1903 50.8171C55.9676 51.0398 55.6655 51.1649 55.3506 51.1649C55.0347 51.1644 54.7317 51.0395 54.5072 50.8172C54.2827 50.595 54.1548 50.2932 54.1512 49.9774C54.1497 49.821 54.1793 49.6659 54.2384 49.5211C54.2976 49.3763 54.385 49.2448 54.4956 49.1342C54.6061 49.0237 54.7377 48.9363 54.8824 48.8771C55.0272 48.818 55.1823 48.7883 55.3387 48.7899ZM48.1662 48.7899H48.1781C48.493 48.7899 48.7951 48.915 49.0178 49.1377C49.2405 49.3604 49.3656 49.6624 49.3656 49.9774C49.3656 50.2923 49.2405 50.5944 49.0178 50.8171C48.7951 51.0398 48.493 51.1649 48.1781 51.1649C47.8634 51.164 47.5619 51.0385 47.3394 50.816C47.1169 50.5935 46.9915 50.292 46.9906 49.9774C46.9887 49.8219 47.0177 49.6676 47.076 49.5235C47.1343 49.3793 47.2206 49.2482 47.33 49.1377C47.4394 49.0272 47.5696 48.9396 47.7132 48.8799C47.8567 48.8202 48.0107 48.7896 48.1662 48.7899ZM41.0174 51.1649C40.7015 51.1644 40.3985 51.0395 40.1741 50.8172C39.9496 50.595 39.8217 50.2932 39.8181 49.9774C39.8175 49.8213 39.8479 49.6666 39.9074 49.5223C39.9668 49.378 40.0543 49.2468 40.1647 49.1365C40.275 49.0261 40.4062 48.9386 40.5505 48.8792C40.6948 48.8197 40.8495 48.7893 41.0056 48.7899H41.0174C41.3324 48.7899 41.6344 48.915 41.8571 49.1377C42.0798 49.3604 42.2049 49.6624 42.2049 49.9774C42.2049 50.2923 42.0798 50.5944 41.8571 50.8171C41.6344 51.0398 41.3324 51.1649 41.0174 51.1649Z" fill="url(#paint5_linear_730_6116)"/>
<path d="M92.16 0.5H3.84C1.99537 0.5 0.5 1.99537 0.5 3.84V92.16C0.5 94.0046 1.99537 95.5 3.84 95.5H92.16C94.0046 95.5 95.5 94.0046 95.5 92.16V3.84C95.5 1.99537 94.0046 0.5 92.16 0.5Z" stroke="#1A5C4B"/>
</g>
<defs>
<linearGradient id="paint0_linear_730_6116" x1="48" y1="24" x2="48" y2="96" gradientUnits="userSpaceOnUse">
<stop stop-color="white"/>
<stop offset="1" stop-color="#DBEFBC" stop-opacity="0.5"/>
</linearGradient>
<linearGradient id="paint1_linear_730_6116" x1="48.1664" y1="15.3022" x2="48.1664" y2="40.1565" gradientUnits="userSpaceOnUse">
<stop stop-color="#1A5C4B"/>
<stop offset="1" stop-color="#91C543"/>
</linearGradient>
<linearGradient id="paint2_linear_730_6116" x1="22.6528" y1="42.067" x2="22.6528" y2="65.9254" gradientUnits="userSpaceOnUse">
<stop stop-color="#1A5C4B"/>
<stop offset="1" stop-color="#91C543"/>
</linearGradient>
<linearGradient id="paint3_linear_730_6116" x1="73.5081" y1="42.0682" x2="73.5081" y2="65.9253" gradientUnits="userSpaceOnUse">
<stop stop-color="#1A5C4B"/>
<stop offset="1" stop-color="#91C543"/>
</linearGradient>
<linearGradient id="paint4_linear_730_6116" x1="56.2154" y1="68.2765" x2="56.2154" y2="80.6978" gradientUnits="userSpaceOnUse">
<stop stop-color="#1A5C4B"/>
<stop offset="1" stop-color="#91C543"/>
</linearGradient>
<linearGradient id="paint5_linear_730_6116" x1="48.1601" y1="35.0746" x2="48.1601" y2="67.1231" gradientUnits="userSpaceOnUse">
<stop stop-color="#1A5C4B"/>
<stop offset="1" stop-color="#91C543"/>
</linearGradient>
<clipPath id="clip0_730_6116">
<rect width="96" height="96" fill="white"/>
</clipPath>
</defs>
</svg>
