<svg width="45" height="45" viewBox="0 0 45 45" fill="none" xmlns="http://www.w3.org/2000/svg">
<path d="M30.3548 19.9744C29.8449 18.829 29.1303 17.7508 28.1904 16.8109C27.2497 15.8717 26.1723 15.1563 25.0268 14.6465L23.6078 16.0655L22.6218 17.0508L21.5985 18.0741C21.4083 18.2635 21.2466 18.4698 21.1055 18.6856C22.4638 18.7741 23.7351 19.322 24.7064 20.2941C25.7056 21.2925 26.2249 22.5784 26.3113 23.887C26.3603 24.614 26.2703 25.3426 26.037 26.0411C25.778 26.8179 25.3611 27.5501 24.7555 28.1748C24.7364 28.1931 24.7255 28.2157 24.7079 28.234L23.5456 29.3949L21.9335 31.007L20.4296 32.5116L16.5097 36.4315C15.4491 37.4921 14.0403 38.0751 12.5394 38.0751C11.0414 38.0751 9.62965 37.4906 8.56903 36.43C7.50988 35.3709 6.92618 33.9606 6.92618 32.4611C6.92618 30.9616 7.50915 29.5507 8.56977 28.4908L12.4955 24.5643C12.2709 23.868 12.1107 23.1555 12.012 22.4365C11.9389 21.9003 11.8891 21.3613 11.8869 20.8207C11.8796 19.8274 12.0025 18.8348 12.2322 17.8627L5.08583 25.0083C0.971388 29.1242 0.971388 35.798 5.08583 39.9139C7.14416 41.9708 9.84104 43.0007 12.5379 43.0007C15.2363 43.0007 17.9331 41.9715 19.9907 39.9139L27.1261 32.7786L28.1889 31.7172C28.7967 31.1087 29.3044 30.4386 29.7323 29.735C30.406 28.6305 30.8638 27.4338 31.0928 26.1991C31.2106 25.5642 31.2735 24.9213 31.2735 24.2768C31.2749 23.4905 31.1784 22.7057 31.0043 21.9347C30.8551 21.2654 30.6386 20.6093 30.3548 19.9744Z" fill="#1A5C4B"/>
<path d="M39.9149 5.08675C37.8566 3.02916 35.159 2 32.4628 2C29.7645 2.00073 27.0676 3.02916 25.01 5.08748L17.8754 12.2221L16.8126 13.2849C16.204 13.8935 15.6971 14.5635 15.2685 15.2664C14.5955 16.3709 14.1369 17.5676 13.9072 18.8023C13.7895 19.4372 13.7266 20.0809 13.7266 20.7246C13.7258 21.5109 13.8217 22.2957 13.9957 23.0674C14.1472 23.736 14.3637 24.3921 14.6475 25.0277C15.1573 26.1725 15.8712 27.2499 16.8119 28.1898C17.7525 29.1297 18.8292 29.8444 19.9754 30.3549L21.3937 28.9366L22.3797 27.9514L23.4023 26.9288C23.5925 26.7386 23.7548 26.5323 23.896 26.3158C22.537 26.2273 21.2657 25.6802 20.2936 24.7074C19.293 23.7075 18.7736 22.4186 18.6873 21.1071C18.6405 20.3822 18.7319 19.6574 18.9638 18.9603C19.2213 18.1835 19.6382 17.4506 20.2453 16.8266C20.2636 16.8083 20.2753 16.7864 20.2936 16.7674L21.4551 15.6058L23.068 13.9937L24.5726 12.4891L28.4918 8.57068C29.5524 7.51007 30.9619 6.92563 32.4628 6.92563C33.9623 6.92563 35.3726 7.51007 36.4317 8.56995C38.6217 10.7592 38.6217 14.3214 36.4332 16.5099L32.506 20.4364C32.7313 21.1335 32.8907 21.8452 32.9895 22.5649C33.0634 23.1011 33.1124 23.6402 33.1146 24.18C33.1219 25.174 32.9997 26.1659 32.7679 27.138L39.9149 19.9924C44.0294 15.8765 44.0294 9.20266 39.9149 5.08675Z" fill="#1A5C4B"/>
</svg>
