<svg width="96" height="96" viewBox="0 0 96 96" fill="none" xmlns="http://www.w3.org/2000/svg">
<rect width="96" height="96" fill="#F5F5F5"/>
<g clip-path="url(#clip0_730_6116)">
<path d="M92.16 0.5H3.84C1.99537 0.5 0.5 1.99537 0.5 3.84V92.16C0.5 94.0046 1.99537 95.5 3.84 95.5H92.16C94.0046 95.5 95.5 94.0046 95.5 92.16V3.84C95.5 1.99537 94.0046 0.5 92.16 0.5Z" fill="white"/>
<path d="M96 24H0V96H96V24Z" fill="url(#paint0_linear_730_6116)"/>
<path fill-rule="evenodd" clip-rule="evenodd" d="M82.7746 78.4094L82.2277 78.9485C66.3577 94.5898 42.2307 77.7704 29.9213 65.6382C17.6119 53.5061 0.546768 29.7267 16.4167 14.0853L16.9637 13.5462L34.6713 30.999L32.4766 33.1621C30.2535 35.3532 29.9185 38.7041 31.6651 41.2805C34.4949 45.4547 37.9866 49.662 42.0588 53.6755C46.1311 57.6891 50.4 61.1307 54.6351 63.9195C57.2492 65.6409 60.649 65.3109 62.8721 63.1199L65.0668 60.9568L82.7746 78.4094ZM53.9846 13.8809C52.1118 13.8809 50.5795 15.142 50.5795 16.6837V42.4043C50.5795 42.7071 50.7488 42.9661 51.0286 43.0913C51.3083 43.2166 51.6175 43.1719 51.8491 42.9728L59.1463 36.6928H82.5951C84.4676 36.6928 86 35.4314 86 33.8901V16.6837C86 15.1424 84.4677 13.8809 82.5951 13.8809H53.9846ZM60.2127 23.1794C59.0317 23.1794 58.0744 24.1229 58.0744 25.2868C58.0744 26.4507 59.0317 27.3942 60.2127 27.3942C61.3936 27.3942 62.3509 26.4507 62.3509 25.2868C62.3509 24.1229 61.3936 23.1794 60.2127 23.1794ZM76.367 23.1794C75.1861 23.1794 74.2288 24.1229 74.2288 25.2868C74.2288 26.4507 75.1861 27.3942 76.367 27.3942C77.5479 27.3942 78.5052 26.4507 78.5052 25.2868C78.5052 24.1229 77.5479 23.1794 76.367 23.1794ZM68.2898 23.1794C67.1088 23.1794 66.1516 24.1229 66.1516 25.2868C66.1516 26.4507 67.1088 27.3942 68.2898 27.3942C69.4707 27.3942 70.428 26.4507 70.428 25.2868C70.4281 24.1229 69.4707 23.1794 68.2898 23.1794ZM19.3768 11.6548L36.5905 28.6206C37.7833 26.22 37.3698 23.2292 35.3494 21.2379L26.8674 12.8781C24.847 10.8866 21.8126 10.479 19.3768 11.6548ZM67.4801 59.0652L84.6936 76.031C85.8865 73.6303 85.473 70.6396 83.4525 68.6482L74.9706 60.2885C72.9503 58.2971 69.9158 57.8895 67.4801 59.0652Z" fill="url(#paint1_linear_730_6116)"/>
<path d="M92.16 0.5H3.84C1.99537 0.5 0.5 1.99537 0.5 3.84V92.16C0.5 94.0046 1.99537 95.5 3.84 95.5H92.16C94.0046 95.5 95.5 94.0046 95.5 92.16V3.84C95.5 1.99537 94.0046 0.5 92.16 0.5Z" stroke="#1A5C4B"/>
</g>
<defs>
<linearGradient id="paint0_linear_730_6116" x1="48" y1="24" x2="48" y2="96" gradientUnits="userSpaceOnUse">
<stop stop-color="white"/>
<stop offset="1" stop-color="#DBEFBC" stop-opacity="0.5"/>
</linearGradient>
<linearGradient id="paint1_linear_730_6116" x1="48" y1="11" x2="48" y2="85.2727" gradientUnits="userSpaceOnUse">
<stop stop-color="#1A5C4B"/>
<stop offset="1" stop-color="#91C543"/>
</linearGradient>
<clipPath id="clip0_730_6116">
<rect width="96" height="96" fill="white"/>
</clipPath>
</defs>
</svg>
