<svg width="48" height="48" viewBox="0 0 48 48" fill="none" xmlns="http://www.w3.org/2000/svg">
<rect width="48" height="48" rx="24" fill="#D0F19E"/>
<mask id="mask0_716_3712" style="mask-type:alpha" maskUnits="userSpaceOnUse" x="8" y="8" width="32" height="32">
<rect x="8" y="8" width="32" height="32" fill="#D9D9D9"/>
</mask>
<g mask="url(#mask0_716_3712)">
<path d="M18.6668 32H29.3335V29.3334H18.6668V32ZM18.6668 26.6667H29.3335V24H18.6668V26.6667ZM16.0002 37.3334C15.2668 37.3334 14.6391 37.0722 14.1168 36.55C13.5946 36.0278 13.3335 35.4 13.3335 34.6667V13.3334C13.3335 12.6 13.5946 11.9722 14.1168 11.45C14.6391 10.9278 15.2668 10.6667 16.0002 10.6667H26.6668L34.6668 18.6667V34.6667C34.6668 35.4 34.4057 36.0278 33.8835 36.55C33.3613 37.0722 32.7335 37.3334 32.0002 37.3334H16.0002ZM25.3335 20V13.3334H16.0002V34.6667H32.0002V20H25.3335Z" fill="#1A5C4B"/>
</g>
</svg>
