<svg width="48" height="48" viewBox="0 0 48 48" fill="none" xmlns="http://www.w3.org/2000/svg">
<rect width="48" height="48" rx="24" fill="#D0F19E"/>
<mask id="mask0_716_3712" style="mask-type:alpha" maskUnits="userSpaceOnUse" x="8" y="8" width="32" height="32">
<rect x="8" y="8" width="32" height="32" fill="#D9D9D9"/>
</mask>
<g mask="url(#mask0_716_3712)">
<path d="M16.0002 37.3334C15.2668 37.3334 14.6391 37.0722 14.1168 36.55C13.5946 36.0278 13.3335 35.4 13.3335 34.6667V13.3334C13.3335 12.6 13.5946 11.9722 14.1168 11.45C14.6391 10.9278 15.2668 10.6667 16.0002 10.6667H32.0002C32.7335 10.6667 33.3613 10.9278 33.8835 11.45C34.4057 11.9722 34.6668 12.6 34.6668 13.3334V34.6667C34.6668 35.4 34.4057 36.0278 33.8835 36.55C33.3613 37.0722 32.7335 37.3334 32.0002 37.3334H16.0002ZM16.0002 34.6667H32.0002V13.3334H16.0002V34.6667ZM18.6668 32H29.3335V29.3334H18.6668V32ZM24.0002 26.6667C25.4668 26.6667 26.7224 26.1445 27.7668 25.1C28.8113 24.0556 29.3335 22.8 29.3335 21.3334C29.3335 19.8667 28.8113 18.6111 27.7668 17.5667C26.7224 16.5222 25.4668 16 24.0002 16C22.5335 16 21.2779 16.5222 20.2335 17.5667C19.1891 18.6111 18.6668 19.8667 18.6668 21.3334C18.6668 22.8 19.1891 24.0556 20.2335 25.1C21.2779 26.1445 22.5335 26.6667 24.0002 26.6667ZM24.0002 22.6667C23.6224 22.6667 23.3057 22.5389 23.0502 22.2834C22.7946 22.0278 22.6668 21.7111 22.6668 21.3334C22.6668 20.9556 22.7946 20.6389 23.0502 20.3834C23.3057 20.1278 23.6224 20 24.0002 20C24.3779 20 24.6946 20.1278 24.9502 20.3834C25.2057 20.6389 25.3335 20.9556 25.3335 21.3334C25.3335 21.7111 25.2057 22.0278 24.9502 22.2834C24.6946 22.5389 24.3779 22.6667 24.0002 22.6667Z" fill="#1A5C4B"/>
</g>
</svg>
