<svg width="32" height="32" viewBox="0 0 32 32" fill="none" xmlns="http://www.w3.org/2000/svg">
<rect width="32" height="32" rx="16" fill="#D0F19E"/>
<mask id="mask0_817_71" style="mask-type:alpha" maskUnits="userSpaceOnUse" x="6" y="6" width="20" height="20">
<rect x="6" y="6" width="20" height="20" fill="#D9D9D9"/>
</mask>
<g mask="url(#mask0_817_71)">
<path d="M10.9999 24.3333C10.5416 24.3333 10.1492 24.1701 9.82284 23.8437C9.49645 23.5173 9.33325 23.125 9.33325 22.6666V9.33329C9.33325 8.87496 9.49645 8.4826 9.82284 8.15621C10.1492 7.82982 10.5416 7.66663 10.9999 7.66663H17.6666L22.6666 12.6666V22.6666C22.6666 23.125 22.5034 23.5173 22.177 23.8437C21.8506 24.1701 21.4583 24.3333 20.9999 24.3333H10.9999ZM16.8333 13.5V9.33329H10.9999V22.6666H20.9999V13.5H16.8333Z" fill="#1A5C4B"/>
</g>
</svg>
