<svg width="96" height="96" viewBox="0 0 96 96" fill="none" xmlns="http://www.w3.org/2000/svg">
<rect width="96" height="96" fill="#F5F5F5"/>
<g clip-path="url(#clip0_730_6116)">
<path d="M92.16 0.5H3.84C1.99537 0.5 0.5 1.99537 0.5 3.84V92.16C0.5 94.0046 1.99537 95.5 3.84 95.5H92.16C94.0046 95.5 95.5 94.0046 95.5 92.16V3.84C95.5 1.99537 94.0046 0.5 92.16 0.5Z" fill="white"/>
<path d="M96 24H0V96H96V24Z" fill="url(#paint0_linear_730_6116)"/>
<path d="M47.1325 67.2465V57.2143C47.1325 56.4411 46.5056 55.8143 45.7325 55.8143C44.9593 55.8143 44.3325 56.4411 44.3325 57.2143V67.2971C40.8844 64.6827 38.6514 60.502 38.6514 55.7906C38.6514 51.0504 40.9119 46.8474 44.3959 44.2364C45.1722 43.6546 46.2264 43.6546 47.0027 44.2364C50.4867 46.8474 52.7472 51.0504 52.7472 55.7906C52.7472 60.4717 50.5427 64.6289 47.1325 67.2465Z" fill="url(#paint1_linear_730_6116)"/>
<path fill-rule="evenodd" clip-rule="evenodd" d="M45.2216 13C48.0463 13 50.752 14.1381 52.7273 16.1574L72.1058 35.9665C74.0255 37.9286 75.1 40.5642 75.1 43.3091V72.5C75.1 78.2988 70.399 83 64.6 83H27.5C21.701 83 17 78.2988 17 72.5V23.5C17 17.701 21.701 13 27.5 13H45.2216ZM46.4 22.1C49.4928 22.1 52 24.6072 52 27.7C52 30.7928 49.4928 33.3 46.4 33.3H31C27.9072 33.3 25.4 30.7928 25.4 27.7C25.4 24.6072 27.9072 22.1 31 22.1H46.4ZM42.7644 41.982C44.5114 40.6727 46.8886 40.6727 48.6356 41.982C52.7935 45.0979 55.5 50.123 55.5 55.7906C55.5 61.4583 52.7935 66.4832 48.6356 69.5993C48.1714 69.9472 47.6627 70.2026 47.1332 70.3656V75.0641C47.1332 75.8376 46.5063 76.4641 45.7332 76.4641C44.96 76.4641 44.3332 75.8376 44.3332 75.0641V70.3855C43.7798 70.2237 43.248 69.9617 42.7644 69.5993C38.6065 66.4832 35.9 61.4583 35.9 55.7906C35.9 50.123 38.6065 45.0979 42.7644 41.982Z" fill="url(#paint2_linear_730_6116)"/>
<path d="M78.3313 31.2913L74.8222 34.8005C74.5954 34.528 74.3574 34.2637 74.1075 34.0084L58.5176 18.0723L61.815 14.7748C63.1819 13.408 65.398 13.408 66.7648 14.7748L78.3313 26.3416C79.6984 27.7084 79.6984 29.9245 78.3313 31.2913Z" fill="url(#paint3_linear_730_6116)"/>
<path d="M92.16 0.5H3.84C1.99537 0.5 0.5 1.99537 0.5 3.84V92.16C0.5 94.0046 1.99537 95.5 3.84 95.5H92.16C94.0046 95.5 95.5 94.0046 95.5 92.16V3.84C95.5 1.99537 94.0046 0.5 92.16 0.5Z" stroke="#1A5C4B"/>
</g>
<defs>
<linearGradient id="paint0_linear_730_6116" x1="48" y1="24" x2="48" y2="96" gradientUnits="userSpaceOnUse">
<stop stop-color="white"/>
<stop offset="1" stop-color="#DBEFBC" stop-opacity="0.5"/>
</linearGradient>
<linearGradient id="paint1_linear_730_6116" x1="45.6993" y1="43.8" x2="45.6993" y2="67.2971" gradientUnits="userSpaceOnUse">
<stop stop-color="#1A5C4B"/>
<stop offset="1" stop-color="#91C543"/>
</linearGradient>
<linearGradient id="paint2_linear_730_6116" x1="46.05" y1="13" x2="46.05" y2="83" gradientUnits="userSpaceOnUse">
<stop stop-color="#1A5C4B"/>
<stop offset="1" stop-color="#91C543"/>
</linearGradient>
<linearGradient id="paint3_linear_730_6116" x1="68.9371" y1="13.7497" x2="68.9371" y2="34.8005" gradientUnits="userSpaceOnUse">
<stop stop-color="#1A5C4B"/>
<stop offset="1" stop-color="#91C543"/>
</linearGradient>
<clipPath id="clip0_730_6116">
<rect width="96" height="96" fill="white"/>
</clipPath>
</defs>
</svg>
