<svg width="96" height="96" viewBox="0 0 96 96" fill="none" xmlns="http://www.w3.org/2000/svg">
<rect width="96" height="96" fill="#F5F5F5"/>
<g clip-path="url(#clip0_730_6116)">
<path d="M92.16 0.5H3.84C1.99537 0.5 0.5 1.99537 0.5 3.84V92.16C0.5 94.0046 1.99537 95.5 3.84 95.5H92.16C94.0046 95.5 95.5 94.0046 95.5 92.16V3.84C95.5 1.99537 94.0046 0.5 92.16 0.5Z" fill="white"/>
<path d="M96 24H0V96H96V24Z" fill="url(#paint0_linear_730_6116)"/>
<path fill-rule="evenodd" clip-rule="evenodd" d="M48 13C67.3299 13 83 28.6701 83 48C83 67.3299 67.3299 83 48 83C28.6701 83 13 67.3299 13 48C13 28.6701 28.6701 13 48 13ZM32.6334 69.2917L32.3433 66.9852C36.8555 70.709 42.5467 72.7035 48.3963 72.6109C54.2459 72.5184 59.8711 70.3448 64.2632 66.4801C68.6553 62.6154 71.5268 57.3124 72.3628 51.5221C73.1988 45.7318 71.9445 39.8331 68.825 34.8839C68.7327 34.7373 68.586 34.6334 68.4171 34.595C68.2482 34.5567 68.071 34.5869 67.9244 34.6792C67.7778 34.7715 67.6739 34.9182 67.6355 35.0871C67.5972 35.256 67.6274 35.4332 67.7197 35.5798C70.6877 40.2844 71.8746 45.8955 71.066 51.399C70.2574 56.9024 67.5066 61.935 63.3108 65.587C59.115 69.239 53.7511 71.2695 48.1887 71.3113C42.6263 71.3531 37.2325 69.4036 32.9822 65.8151L35.5852 65.4879C35.6702 65.4775 35.7523 65.4504 35.8269 65.4083C35.9015 65.3661 35.967 65.3097 36.0197 65.2422C36.0725 65.1747 36.1114 65.0975 36.1343 65.015C36.1572 64.9324 36.1636 64.8462 36.1532 64.7612C36.1428 64.6762 36.1157 64.5941 36.0736 64.5195C36.0314 64.445 35.975 64.3794 35.9075 64.3267C35.84 64.2739 35.7628 64.235 35.6803 64.2121C35.5978 64.1892 35.5116 64.1828 35.4265 64.1932L31.4383 64.6947C31.3461 64.7008 31.2562 64.7264 31.1746 64.7698C31.093 64.8132 31.0216 64.8734 30.965 64.9465C30.9084 65.0195 30.8679 65.1037 30.8462 65.1936C30.8245 65.2834 30.8221 65.3768 30.8392 65.4676L31.3401 69.4511C31.3681 69.6166 31.4589 69.7651 31.5935 69.8654C31.7281 69.9658 31.8963 70.0103 32.063 69.9898C32.2297 69.9692 32.382 69.8852 32.4882 69.7551C32.5945 69.6251 32.6465 69.4591 32.6334 69.2917ZM63.3666 26.7083L63.6567 29.0148C59.1445 25.2916 53.4534 23.2975 47.6041 23.3903C41.7549 23.4831 36.1299 25.6567 31.7381 29.5213C27.3463 33.3858 24.4749 38.6886 23.6388 44.4785C22.8027 50.2685 24.0567 56.1669 27.1757 61.1161C27.2693 61.2599 27.4156 61.3612 27.5832 61.398C27.7508 61.4348 27.9261 61.4042 28.0713 61.3128C28.2165 61.2214 28.3199 61.0765 28.3592 60.9095C28.3984 60.7425 28.3704 60.5667 28.2811 60.4202C25.3129 55.7156 24.1258 50.1044 24.9343 44.6008C25.7428 39.0972 28.4937 34.0644 32.6896 30.4124C36.8855 26.7603 42.2495 24.7299 47.812 24.6881C53.3745 24.6464 58.7684 26.5961 63.0186 30.1849L60.4157 30.5121C60.244 30.5331 60.0877 30.6215 59.9812 30.7578C59.8746 30.8941 59.8266 31.0671 59.8476 31.2388C59.8687 31.4105 59.9571 31.5668 60.0933 31.6733C60.2296 31.7798 60.4026 31.8279 60.5743 31.8068L64.5627 31.3053C64.6549 31.2991 64.7446 31.2735 64.8261 31.2302C64.9076 31.1868 64.979 31.1267 65.0356 31.0537C65.0922 30.9808 65.1327 30.8967 65.1544 30.8069C65.1762 30.7172 65.1786 30.6239 65.1617 30.5331L64.6607 26.5497C64.6353 26.3818 64.5455 26.2304 64.4102 26.1278C64.275 26.0251 64.1051 25.9793 63.9365 25.9999C63.768 26.0206 63.6142 26.1061 63.5078 26.2384C63.4013 26.3707 63.3507 26.5393 63.3666 26.7083ZM42.8667 46.5974C42.8196 44.8233 42.5763 43.287 41.9863 42.0275C40.9815 39.8838 38.8993 38.4793 34.9208 37.9709C34.4561 37.8952 33.9996 37.7753 33.5577 37.6129C33.0976 37.4611 32.6532 37.2654 32.2306 37.0287C31.9397 36.8536 31.6954 36.6108 31.5185 36.3209C31.4492 36.4365 31.3914 36.5586 31.346 36.6855C31.0543 37.4822 31.0483 38.6608 31.3579 40.0079C31.7417 41.5951 32.4241 43.0947 33.3687 44.4266C35.1565 46.9822 38.0655 49.3086 42.2832 50.2263C40.9568 47.4568 38.7031 45.8367 36.7751 44.452C35.9041 43.8264 35.0955 43.2455 34.4376 42.6208C34.3137 42.501 34.2421 42.3371 34.2384 42.1647C34.2348 41.9924 34.2994 41.8256 34.4182 41.7007C34.537 41.5758 34.7004 41.5029 34.8727 41.4979C35.045 41.4929 35.2123 41.5562 35.3382 41.674C35.9384 42.2441 36.709 42.797 37.5376 43.3928C38.7072 44.233 39.9876 45.153 41.1397 46.3355C43.1696 48.5504 44.7344 51.89 44.9096 56.5855C42.5763 59.2474 41.0148 62.4963 40.3938 65.9812C40.3753 66.0801 40.3798 66.182 40.4071 66.2788C40.4344 66.3756 40.4837 66.4649 40.5511 66.5395C40.6186 66.6142 40.7023 66.6723 40.7959 66.7092C40.8895 66.7462 40.9903 66.7611 41.0906 66.7527L44.4517 66.5952C44.6111 66.5883 44.7624 66.5234 44.8772 66.4126C44.992 66.3018 45.0622 66.1528 45.0747 65.9938H45.076C45.314 63.0404 46.292 60.1944 47.9198 57.7186C49.0739 55.9713 50.4589 54.388 52.0372 53.0117C55.1222 52.4095 57.9854 50.9799 60.3206 48.876C61.8239 47.5388 63.0562 45.9252 63.9504 44.1229C64.6874 42.5893 64.9887 41.1708 64.8306 40.1416C64.8003 39.9261 64.7394 39.716 64.6496 39.5177C64.3574 39.8863 63.96 40.1574 63.5101 40.2949C62.952 40.452 62.3802 40.5552 61.8024 40.603C61.2432 40.669 60.679 40.6817 60.1174 40.6411C55.3633 40.1228 52.4877 41.1224 50.6469 43.2575C49.0201 45.1441 48.1385 47.9533 47.4677 51.4049C49.2634 50.0834 51.1318 49.0019 52.8713 48.0424C53.2395 47.8237 53.6442 47.6195 54.0216 47.413C55.8323 46.4263 57.4306 45.5554 58.5096 44.666C58.5758 44.6115 58.6521 44.5707 58.7341 44.5457C58.8161 44.5207 58.9022 44.5122 58.9875 44.5205C59.0728 44.5288 59.1556 44.5538 59.2312 44.5942C59.3068 44.6345 59.3738 44.6893 59.4282 44.7555C59.4827 44.8217 59.5235 44.898 59.5485 44.98C59.5735 45.0619 59.582 45.148 59.5737 45.2333C59.5654 45.3186 59.5404 45.4015 59.5 45.4771C59.4597 45.5527 59.4049 45.6197 59.3387 45.6741C58.1641 46.642 56.5146 47.5408 54.6459 48.5593C54.2883 48.7537 53.9232 48.9535 53.5504 49.1586C51.7664 50.3777 50.122 51.7895 48.6469 53.3684H48.6643C47.7834 54.0273 46.9267 54.6857 46.1214 55.3022C45.6945 51.4666 44.4784 48.6584 42.8667 46.5974Z" fill="url(#paint1_linear_730_6116)"/>
<path d="M92.16 0.5H3.84C1.99537 0.5 0.5 1.99537 0.5 3.84V92.16C0.5 94.0046 1.99537 95.5 3.84 95.5H92.16C94.0046 95.5 95.5 94.0046 95.5 92.16V3.84C95.5 1.99537 94.0046 0.5 92.16 0.5Z" stroke="#1A5C4B"/>
</g>
<defs>
<linearGradient id="paint0_linear_730_6116" x1="48" y1="24" x2="48" y2="96" gradientUnits="userSpaceOnUse">
<stop stop-color="white"/>
<stop offset="1" stop-color="#DBEFBC" stop-opacity="0.5"/>
</linearGradient>
<linearGradient id="paint1_linear_730_6116" x1="48" y1="13" x2="48" y2="83" gradientUnits="userSpaceOnUse">
<stop stop-color="#1A5C4B"/>
<stop offset="1" stop-color="#91C543"/>
</linearGradient>
<clipPath id="clip0_730_6116">
<rect width="96" height="96" fill="white"/>
</clipPath>
</defs>
</svg>
