<svg width="80" height="80" viewBox="0 0 80 80" fill="none" xmlns="http://www.w3.org/2000/svg">
<rect width="80" height="80" fill="#F5F5F5"/>
<g clip-path="url(#clip0_730_6116)">
<rect width="1920" height="2274" transform="translate(-460 -1016)" fill="white"/>
<g filter="url(#filter0_d_730_6116)">
<path d="M-100 -13C-100 -19.6274 -94.6274 -25 -88 -25H169C175.627 -25 181 -19.6274 181 -13V227C181 233.627 175.627 239 169 239H-88C-94.6274 239 -100 233.627 -100 227V-13Z" fill="white"/>
<path d="M-99.5 -13C-99.5 -19.3513 -94.3513 -24.5 -88 -24.5H169C175.351 -24.5 180.5 -19.3513 180.5 -13V227C180.5 233.351 175.351 238.5 169 238.5H-88C-94.3513 238.5 -99.5 233.351 -99.5 227V-13Z" stroke="#D7DEDA"/>
<rect width="80" height="80" rx="40" fill="#D0F19E"/>
<circle opacity="0.6" cx="39" cy="40" r="29" fill="white"/>
</g>
<path d="M27.1455 34.8727C25.1819 34.8727 23.3637 36.4 22.7819 38.7273C21.5455 39.7455 21.7637 42.6545 23.2182 43.2364C23.8 44.4 25.1091 46.8727 27.1455 46.8727C28.8182 46.8727 30.2728 45.0545 31.0728 43.2364C32.5273 42.6545 32.6728 39.7455 31.5091 38.7273C30.9273 36.4727 29.1819 34.8727 27.1455 34.8727Z" fill="#1A5C4B"/>
<path d="M50.8545 34.8727C48.8908 34.8727 47.1454 36.4 46.4908 38.7273C45.2545 39.7455 45.4727 42.6545 46.9272 43.2364C47.509 44.4 48.8181 46.8727 50.8545 46.8727C52.5272 46.8727 53.9818 45.0545 54.7818 43.2364C56.2363 42.6545 56.3818 39.7455 55.2181 38.7273C54.5636 36.4727 52.8181 34.8727 50.8545 34.8727Z" fill="#1A5C4B"/>
<path d="M61.5456 50.5091V50.4364C61.3274 49.0545 60.2365 47.9636 58.7819 47.5273C57.3274 47.0909 55.7274 46.8 54.0546 46.6545C53.8365 46.6545 53.5456 46.7273 53.4001 46.9455C53.2546 47.1636 53.1819 47.3818 53.2546 47.6C53.4728 48.2545 53.5456 48.9091 53.6183 49.4909C53.691 50.8 53.4001 52.1818 52.891 53.4909L52.7456 51.0909L53.1819 50.0727C53.1819 50 53.2546 49.8545 53.2546 49.7818V48.2545C53.2546 47.8909 52.891 47.5273 52.5274 47.5273H49.1819C48.8183 47.5273 48.4546 47.8909 48.4546 48.2545V49.7818C48.4546 49.8545 48.4546 50 48.5274 50.0727L48.9637 51.0909L48.8183 53.4182C47.9456 51.4545 47.8001 49.4182 48.4546 47.5273C48.5274 47.3091 48.4546 47.0182 48.3092 46.8727C48.1637 46.6545 47.9456 46.5818 47.6546 46.5818C45.9092 46.7273 44.3092 47.0182 42.9274 47.4545C41.4728 47.8909 40.4546 48.9818 40.2365 50.3636V50.4364L39.9456 60.5455C39.9456 60.7636 40.0183 60.9091 40.1637 61.0545C40.3092 61.2 40.4546 61.2727 40.6728 61.2727H61.0365C61.2546 61.2727 61.4001 61.2 61.5456 61.0545C61.691 60.9091 61.7637 60.7636 61.7637 60.5455L61.5456 50.5091Z" fill="#1A5C4B"/>
<path d="M37.8364 50.4364C37.6182 49.0545 36.5273 47.9636 35.0727 47.5273C33.6182 47.0909 32.0182 46.8 30.3454 46.6545C30.1273 46.6545 29.8364 46.7273 29.6909 46.9455C29.5454 47.1636 29.4727 47.3818 29.5454 47.6C29.7636 48.2545 29.8364 48.9091 29.9091 49.4909C29.9818 50.8 29.6909 52.1818 29.1818 53.4909L29.1091 51.0909L29.5454 50.0727C29.5454 50 29.6182 49.8545 29.6182 49.7818V48.2545C29.6182 47.8909 29.2545 47.5273 28.8909 47.5273H25.6182C25.1818 47.5273 24.8909 47.8909 24.8909 48.2545V49.7818C24.8909 49.8545 24.8909 50 24.9636 50.0727L25.4 51.0909L25.2545 53.4909C24.3818 51.5273 24.2364 49.4909 24.8182 47.5273C24.8909 47.3091 24.8182 47.0182 24.6727 46.8727C24.5273 46.6545 24.2364 46.5818 24.0182 46.5818C22.2727 46.7273 20.6727 47.0182 19.2909 47.4545C17.8364 47.8909 16.8182 48.9818 16.6 50.3636V50.4364L16.3091 60.5455C16.3091 60.7636 16.3818 60.9091 16.5273 61.0545C16.6 61.2 16.8182 61.2727 17.0364 61.2727H37.4C37.6182 61.2727 37.7636 61.2 37.9091 61.0545C38.0545 60.9091 38.1273 60.7636 38.1273 60.5455L37.9091 50.5091L37.8364 50.4364Z" fill="#1A5C4B"/>
<path d="M57.3273 35.8182C57.5455 35.9636 57.9091 36.0364 58.1273 35.8182C58.3455 35.6727 58.4909 35.3818 58.4909 35.0909L57.9091 31.6727H59.5819C59.9455 31.6727 60.3091 31.3091 60.3091 30.9455V17.6364C60.3091 17.2 59.9455 16.9091 59.5819 16.9091H38.4909C38.0546 16.9091 37.7637 17.2 37.7637 17.6364V30.9455C37.7637 31.3091 38.0546 31.6727 38.4909 31.6727H51.8L57.3273 35.8182ZM41.5455 21.2H56.5273C56.9637 21.2 57.2546 21.4909 57.2546 21.9273C57.2546 22.3636 56.9637 22.6545 56.5273 22.6545H41.5455C41.1091 22.6545 40.8182 22.3636 40.8182 21.9273C40.8182 21.5636 41.1091 21.2 41.5455 21.2ZM40.8182 26.6545C40.8182 26.2182 41.1091 25.9273 41.5455 25.9273H56.5273C56.9637 25.9273 57.2546 26.2182 57.2546 26.6545C57.2546 27.0909 56.9637 27.3818 56.5273 27.3818H41.5455C41.1091 27.3818 40.8182 27.0182 40.8182 26.6545Z" fill="#1A5C4B"/>
<path d="M19.8728 29.4909H21.5455L20.9637 32.9091C20.8909 33.2 21.0364 33.4909 21.2546 33.6364C21.4728 33.7818 21.8364 33.7818 22.0546 33.5636L27.5818 29.4909H36.2364V17.6364C36.2364 16.4727 37.2546 15.4545 38.4182 15.4545H41.6182C41.6182 15.0909 41.2546 14.7273 40.8909 14.7273H19.8C19.4364 14.7273 19.0728 15.0182 19.0728 15.4545V28.7636C19.1455 29.2 19.5091 29.4909 19.8728 29.4909ZM22.9273 19.0182H33.5455C33.9818 19.0182 34.2728 19.3091 34.2728 19.7455C34.2728 20.1818 33.9818 20.4727 33.5455 20.4727H22.9273C22.4909 20.4727 22.2 20.1818 22.2 19.7455C22.2 19.3818 22.5637 19.0182 22.9273 19.0182ZM22.9273 23.7455H33.5455C33.9818 23.7455 34.2728 24.0364 34.2728 24.4727C34.2728 24.8364 33.9818 25.2 33.5455 25.2H22.9273C22.4909 25.2 22.2 24.8364 22.2 24.4727C22.2 24.0364 22.5637 23.7455 22.9273 23.7455Z" fill="#1A5C4B"/>
</g>
<defs>
<filter id="filter0_d_730_6116" x="-120" y="-41" width="321" height="304" filterUnits="userSpaceOnUse" color-interpolation-filters="sRGB">
<feFlood flood-opacity="0" result="BackgroundImageFix"/>
<feColorMatrix in="SourceAlpha" type="matrix" values="0 0 0 0 0 0 0 0 0 0 0 0 0 0 0 0 0 0 127 0" result="hardAlpha"/>
<feOffset dy="4"/>
<feGaussianBlur stdDeviation="10"/>
<feColorMatrix type="matrix" values="0 0 0 0 0 0 0 0 0 0 0 0 0 0 0 0 0 0 0.1 0"/>
<feBlend mode="normal" in2="BackgroundImageFix" result="effect1_dropShadow_730_6116"/>
<feBlend mode="normal" in="SourceGraphic" in2="effect1_dropShadow_730_6116" result="shape"/>
</filter>
<clipPath id="clip0_730_6116">
<rect width="1920" height="2274" fill="white" transform="translate(-460 -1016)"/>
</clipPath>
</defs>
</svg>
