<svg width="96" height="96" viewBox="0 0 96 96" fill="none" xmlns="http://www.w3.org/2000/svg">
<rect width="96" height="96" fill="#F5F5F5"/>
<g clip-path="url(#clip0_730_6116)">
<path d="M92.16 0.5H3.84C1.99537 0.5 0.5 1.99537 0.5 3.84V92.16C0.5 94.0046 1.99537 95.5 3.84 95.5H92.16C94.0046 95.5 95.5 94.0046 95.5 92.16V3.84C95.5 1.99537 94.0046 0.5 92.16 0.5Z" fill="white"/>
<path d="M96 24H0V96H96V24Z" fill="url(#paint0_linear_730_6116)"/>
<mask id="mask0_730_6116" style="mask-type:luminance" maskUnits="userSpaceOnUse" x="14" y="13" width="62" height="62">
<path d="M75.7647 13H14V74.7647H75.7647V13Z" fill="white"/>
</mask>
<g mask="url(#mask0_730_6116)">
<path d="M37.7579 31.0744C39.1378 32.3246 40.7702 32.9842 42.4414 32.9842C42.7805 32.9842 43.1214 32.9569 43.4619 32.902C43.9509 32.8233 44.426 32.6877 44.8827 32.4971C45.3395 32.6877 45.8145 32.8232 46.3035 32.902C48.3214 33.2276 50.3474 32.5786 52.0074 31.0744C53.5545 29.6726 54.6048 27.6703 54.9651 25.4364C55.3254 23.2024 54.9574 20.9714 53.9295 19.1542C52.8264 17.2047 51.1073 15.952 49.089 15.6265C48.3266 15.5034 47.5574 15.5234 46.8054 15.6767V13H43.1721V15.7236C42.3528 15.5281 41.5104 15.4919 40.6764 15.6265C38.6579 15.952 36.9389 17.2047 35.8358 19.1542C34.8079 20.9714 34.4401 23.2024 34.8001 25.4363C35.1604 27.6703 36.2108 29.6726 37.7579 31.0744Z" fill="url(#paint1_linear_730_6116)"/>
<path d="M35.7588 63.8651H54.0057V74.7647H35.7588V63.8651Z" fill="url(#paint2_linear_730_6116)"/>
<path d="M59.7786 52.7837C59.6511 52.6882 59.5107 52.6681 59.4153 52.6681C59.3199 52.6681 59.1795 52.6882 59.0519 52.7839C57.0822 54.261 54.6306 55.0747 52.1489 55.0747C49.6671 55.0747 47.2156 54.261 45.2458 52.7837C45.1184 52.6882 44.9779 52.6682 44.8824 52.6682C44.7871 52.6682 44.6465 52.6882 44.5189 52.7839C42.5492 54.261 40.0977 55.0745 37.616 55.0745C35.1343 55.0745 32.6828 54.261 30.713 52.7839C30.5854 52.6882 30.4449 52.6681 30.3496 52.6681C30.2543 52.6681 30.1136 52.6882 29.9862 52.7837C28.0163 54.261 25.5649 55.0745 23.0831 55.0745C21.1807 55.0745 19.2968 54.5949 17.6333 53.7062V74.7647H32.1257V60.2318H57.639V74.7647H72.1316V53.7063C70.4682 54.5949 68.5842 55.0746 66.6818 55.0746C64.1999 55.0746 61.7483 54.261 59.7786 52.7837Z" fill="url(#paint3_linear_730_6116)"/>
<path d="M65.7158 25.7162H58.4875C58.4736 25.8158 58.4616 25.9153 58.4455 26.0148C57.9544 29.0601 56.4965 31.8132 54.3405 33.7669C52.312 35.605 49.7822 36.6174 47.2177 36.6174C46.6852 36.6174 46.1471 36.5742 45.6186 36.4889C45.3357 36.4432 45.0546 36.3853 44.7764 36.3152C44.4981 36.3852 44.217 36.4432 43.9338 36.4889C43.4059 36.5741 42.8677 36.6174 42.335 36.6174C39.7705 36.6175 37.2407 35.6051 35.2121 33.7669C33.0557 31.813 31.598 29.06 31.107 26.0147C31.0909 25.9152 31.079 25.8157 31.0651 25.7162H24.0489L14 37.7748V40.2491H75.7647V37.7748L65.7158 25.7162Z" fill="url(#paint4_linear_730_6116)"/>
<path d="M27.8062 49.8772C28.0356 49.7052 28.28 49.5628 28.5329 49.4435V43.8824H14V46.6073L18.3599 49.8772C21.1408 51.9628 25.0252 51.9628 27.8062 49.8772Z" fill="url(#paint5_linear_730_6116)"/>
<path d="M42.339 49.8772C42.5684 49.7052 42.8128 49.5628 43.0657 49.4436V43.8824H32.166V49.4435C32.4189 49.5628 32.6633 49.7052 32.8927 49.8772C35.6736 51.9628 39.558 51.9628 42.339 49.8772Z" fill="url(#paint6_linear_730_6116)"/>
<path d="M61.2319 49.4435C61.4848 49.5628 61.7292 49.7052 61.9586 49.8772C63.349 50.92 65.0153 51.4414 66.6818 51.4414C68.3482 51.4414 70.0145 50.92 71.4049 49.8772L75.7648 46.6073V43.8824H61.2319V49.4435Z" fill="url(#paint7_linear_730_6116)"/>
<path d="M56.8722 49.8772C57.1016 49.7052 57.346 49.5628 57.5988 49.4435V43.8824H46.6992V49.4436C46.952 49.5628 47.1964 49.7052 47.4258 49.8772C50.2068 51.963 54.0912 51.963 56.8722 49.8772Z" fill="url(#paint8_linear_730_6116)"/>
</g>
<path d="M66.1567 78.8824C72.221 78.8824 77.1371 73.9663 77.1371 67.902C77.1371 61.8377 72.221 56.9216 66.1567 56.9216C60.0924 56.9216 55.1763 61.8377 55.1763 67.902C55.1763 73.9663 60.0924 78.8824 66.1567 78.8824Z" fill="#ECF9D8"/>
<path d="M79.9436 76.6942L76.436 73.8251C78.5614 69.8262 77.9371 64.7421 74.5781 61.3825C70.461 57.2647 63.7578 57.2647 59.6408 61.3825C57.5897 63.4339 56.5493 66.1395 56.5493 68.8451C56.5493 71.5506 57.5897 74.2562 59.6408 76.3225C61.6919 78.374 64.3969 79.3997 67.102 79.3997C68.8112 79.3997 70.5205 78.9983 72.0662 78.1659L74.9497 81.689C75.5739 82.462 76.5103 82.9378 77.521 82.9972C78.5168 83.0359 79.5007 82.6731 80.2112 81.9566C80.9246 81.2431 81.2961 80.2619 81.2516 79.2659C81.1921 78.2551 80.7165 77.3185 79.9436 76.6942ZM61.7365 74.2116C58.7787 71.2533 58.7787 66.4368 61.7365 63.4785C64.6942 60.5203 69.5098 60.5203 72.4675 63.4785C75.4253 66.4368 75.4253 71.2533 72.4675 74.2116C69.5098 77.1699 64.6942 77.1699 61.7365 74.2116Z" fill="url(#paint9_linear_730_6116)"/>
<path d="M92.16 0.5H3.84C1.99537 0.5 0.5 1.99537 0.5 3.84V92.16C0.5 94.0046 1.99537 95.5 3.84 95.5H92.16C94.0046 95.5 95.5 94.0046 95.5 92.16V3.84C95.5 1.99537 94.0046 0.5 92.16 0.5Z" stroke="#1A5C4B"/>
</g>
<defs>
<linearGradient id="paint0_linear_730_6116" x1="48" y1="24" x2="48" y2="96" gradientUnits="userSpaceOnUse">
<stop stop-color="white"/>
<stop offset="1" stop-color="#DBEFBC" stop-opacity="0.5"/>
</linearGradient>
<linearGradient id="paint1_linear_730_6116" x1="44.8827" y1="13" x2="44.8827" y2="32.9842" gradientUnits="userSpaceOnUse">
<stop stop-color="#1A5C4B"/>
<stop offset="1" stop-color="#91C543"/>
</linearGradient>
<linearGradient id="paint2_linear_730_6116" x1="44.8822" y1="63.8651" x2="44.8822" y2="74.7647" gradientUnits="userSpaceOnUse">
<stop stop-color="#1A5C4B"/>
<stop offset="1" stop-color="#91C543"/>
</linearGradient>
<linearGradient id="paint3_linear_730_6116" x1="44.8824" y1="52.6681" x2="44.8824" y2="74.7647" gradientUnits="userSpaceOnUse">
<stop stop-color="#1A5C4B"/>
<stop offset="1" stop-color="#91C543"/>
</linearGradient>
<linearGradient id="paint4_linear_730_6116" x1="44.8824" y1="25.7162" x2="44.8824" y2="40.2491" gradientUnits="userSpaceOnUse">
<stop stop-color="#1A5C4B"/>
<stop offset="1" stop-color="#91C543"/>
</linearGradient>
<linearGradient id="paint5_linear_730_6116" x1="21.2664" y1="43.8824" x2="21.2664" y2="51.4414" gradientUnits="userSpaceOnUse">
<stop stop-color="#1A5C4B"/>
<stop offset="1" stop-color="#91C543"/>
</linearGradient>
<linearGradient id="paint6_linear_730_6116" x1="37.6158" y1="43.8824" x2="37.6158" y2="51.4414" gradientUnits="userSpaceOnUse">
<stop stop-color="#1A5C4B"/>
<stop offset="1" stop-color="#91C543"/>
</linearGradient>
<linearGradient id="paint7_linear_730_6116" x1="68.4984" y1="43.8824" x2="68.4984" y2="51.4414" gradientUnits="userSpaceOnUse">
<stop stop-color="#1A5C4B"/>
<stop offset="1" stop-color="#91C543"/>
</linearGradient>
<linearGradient id="paint8_linear_730_6116" x1="52.149" y1="43.8824" x2="52.149" y2="51.4415" gradientUnits="userSpaceOnUse">
<stop stop-color="#1A5C4B"/>
<stop offset="1" stop-color="#91C543"/>
</linearGradient>
<linearGradient id="paint9_linear_730_6116" x1="68.9022" y1="58.2941" x2="68.9022" y2="83" gradientUnits="userSpaceOnUse">
<stop stop-color="#1A5C4B"/>
<stop offset="1" stop-color="#91C543"/>
</linearGradient>
<clipPath id="clip0_730_6116">
<rect width="96" height="96" fill="white"/>
</clipPath>
</defs>
</svg>
