<svg width="80" height="80" viewBox="0 0 80 80" fill="none" xmlns="http://www.w3.org/2000/svg">
<rect width="80" height="80" fill="#F5F5F5"/>
<g clip-path="url(#clip0_730_6116)">
<rect width="1920" height="2274" transform="translate(-460 -703)" fill="white"/>
<g filter="url(#filter0_d_730_6116)">
<path d="M-100 -4C-100 -10.6274 -94.6274 -16 -88 -16H169C175.627 -16 181 -10.6274 181 -4V236C181 242.627 175.627 248 169 248H-88C-94.6274 248 -100 242.627 -100 236V-4Z" fill="white"/>
<path d="M-99.5 -4C-99.5 -10.3513 -94.3513 -15.5 -88 -15.5H169C175.351 -15.5 180.5 -10.3513 180.5 -4V236C180.5 242.351 175.351 247.5 169 247.5H-88C-94.3513 247.5 -99.5 242.351 -99.5 236V-4Z" stroke="#D7DEDA"/>
<rect width="80" height="80" rx="40" fill="#D0F19E"/>
<circle opacity="0.6" cx="40" cy="40" r="29" fill="white"/>
</g>
<g clip-path="url(#clip1_730_6116)">
<path d="M35.3092 26.1685C36.3146 27.0794 37.5039 27.5599 38.7214 27.5599C38.9685 27.5599 39.2169 27.54 39.465 27.5001C39.8212 27.4427 40.1674 27.3439 40.5001 27.205C40.8329 27.3439 41.179 27.4426 41.5353 27.5001C43.0054 27.7372 44.4815 27.2644 45.691 26.1685C46.8182 25.1472 47.5834 23.6884 47.8459 22.0608C48.1084 20.4332 47.8403 18.8077 47.0914 17.4838C46.2877 16.0634 45.0352 15.1507 43.5647 14.9136C43.0092 14.8239 42.4489 14.8385 41.9009 14.9502V13H39.2539V14.9843C38.6569 14.8419 38.0432 14.8155 37.4355 14.9136C35.9649 15.1507 34.7125 16.0634 33.9088 17.4838C33.1599 18.8077 32.8919 20.4332 33.1542 22.0607C33.4167 23.6884 34.182 25.1472 35.3092 26.1685Z" fill="#1A5C4B"/>
<path d="M33.8528 50.0588H47.1469V58H33.8528V50.0588Z" fill="#1A5C4B"/>
<path d="M51.3529 41.9853C51.2599 41.9157 51.1577 41.901 51.0882 41.901C51.0186 41.901 50.9164 41.9157 50.8234 41.9854C49.3883 43.0616 47.6022 43.6544 45.794 43.6544C43.9859 43.6544 42.1998 43.0616 40.7646 41.9853C40.6718 41.9157 40.5694 41.9011 40.4999 41.9011C40.4305 41.9011 40.328 41.9157 40.235 41.9854C38.8 43.0616 37.0139 43.6543 35.2058 43.6543C33.3977 43.6543 31.6116 43.0616 30.1765 41.9854C30.0835 41.9157 29.9811 41.901 29.9117 41.901C29.8422 41.901 29.7398 41.9157 29.647 41.9853C28.2117 43.0616 26.4257 43.6543 24.6176 43.6543C23.2315 43.6543 21.859 43.3049 20.647 42.6574V58H31.2057V47.4118H49.794V58H60.3529V42.6575C59.1409 43.3049 57.7684 43.6544 56.3823 43.6544C54.5741 43.6544 52.7879 43.0616 51.3529 41.9853Z" fill="#1A5C4B"/>
<path d="M55.6787 22.2647H50.4124C50.4022 22.3372 50.3935 22.4098 50.3817 22.4822C50.0239 24.701 48.9618 26.7067 47.3909 28.1302C45.9131 29.4694 44.0699 30.2069 42.2014 30.2069C41.8135 30.2069 41.4214 30.1755 41.0364 30.1133C40.8303 30.0801 40.6255 30.0379 40.4228 29.9868C40.22 30.0378 40.0152 30.0801 39.8089 30.1133C39.4243 30.1754 39.0322 30.2069 38.6441 30.2069C36.7757 30.207 34.9325 29.4695 33.4545 28.1302C31.8835 26.7067 30.8214 24.7009 30.4637 22.4821C30.4519 22.4097 30.4433 22.3372 30.4331 22.2647H25.3213L18 31.0502V32.8529H63V31.0502L55.6787 22.2647Z" fill="#1A5C4B"/>
<path d="M28.0588 39.8676C28.2259 39.7424 28.404 39.6386 28.5882 39.5517V35.5H18V37.4853L21.1765 39.8676C23.2026 41.3871 26.0327 41.3871 28.0588 39.8676Z" fill="#1A5C4B"/>
<path d="M38.6471 39.8676C38.8142 39.7424 38.9923 39.6386 39.1765 39.5518V35.5H31.2354V39.5517C31.4196 39.6386 31.5976 39.7424 31.7648 39.8676C33.7909 41.3871 36.621 41.3871 38.6471 39.8676Z" fill="#1A5C4B"/>
<path d="M52.4119 39.5517C52.5961 39.6386 52.7742 39.7424 52.9413 39.8676C53.9543 40.6274 55.1683 41.0073 56.3825 41.0073C57.5966 41.0073 58.8106 40.6274 59.8236 39.8676L63.0001 37.4853V35.5H52.4119V39.5517Z" fill="#1A5C4B"/>
<path d="M49.2353 39.8676C49.4024 39.7424 49.5804 39.6386 49.7647 39.5517V35.5H41.8235V39.5518C42.0077 39.6386 42.1858 39.7424 42.3529 39.8676C44.379 41.3873 47.2091 41.3873 49.2353 39.8676Z" fill="#1A5C4B"/>
</g>
<circle cx="56" cy="53" r="8" fill="#ECF9D8"/>
<path d="M66.0445 59.4057L63.4889 57.3154C65.0374 54.4019 64.5826 50.6978 62.1353 48.2501C59.1357 45.25 54.2519 45.25 51.2524 48.2501C49.758 49.7447 49 51.7159 49 53.6871C49 55.6583 49.758 57.6295 51.2524 59.135C52.7467 60.6296 54.7176 61.3769 56.6884 61.3769C57.9337 61.3769 59.179 61.0845 60.3052 60.478L62.406 63.0449C62.8608 63.6081 63.543 63.9546 64.2794 63.998C65.0049 64.0261 65.7218 63.7619 66.2394 63.2398C66.7591 62.7199 67.0299 62.0051 66.9974 61.2794C66.9541 60.543 66.6075 59.8606 66.0445 59.4057ZM52.7792 57.597C50.6243 55.4417 50.6243 51.9325 52.7792 49.7772C54.9342 47.6219 58.4427 47.6219 60.5976 49.7772C62.7525 51.9325 62.7525 55.4417 60.5976 57.597C58.4427 59.7523 54.9342 59.7523 52.7792 57.597Z" fill="#1A5C4B"/>
</g>
<defs>
<filter id="filter0_d_730_6116" x="-120" y="-32" width="321" height="304" filterUnits="userSpaceOnUse" color-interpolation-filters="sRGB">
<feFlood flood-opacity="0" result="BackgroundImageFix"/>
<feColorMatrix in="SourceAlpha" type="matrix" values="0 0 0 0 0 0 0 0 0 0 0 0 0 0 0 0 0 0 127 0" result="hardAlpha"/>
<feOffset dy="4"/>
<feGaussianBlur stdDeviation="10"/>
<feColorMatrix type="matrix" values="0 0 0 0 0 0 0 0 0 0 0 0 0 0 0 0 0 0 0.1 0"/>
<feBlend mode="normal" in2="BackgroundImageFix" result="effect1_dropShadow_730_6116"/>
<feBlend mode="normal" in="SourceGraphic" in2="effect1_dropShadow_730_6116" result="shape"/>
</filter>
<clipPath id="clip0_730_6116">
<rect width="1920" height="2274" fill="white" transform="translate(-460 -703)"/>
</clipPath>
<clipPath id="clip1_730_6116">
<rect width="45" height="45" fill="white" transform="translate(18 13)"/>
</clipPath>
</defs>
</svg>
