<svg width="96" height="96" viewBox="0 0 96 96" fill="none" xmlns="http://www.w3.org/2000/svg">
<rect width="96" height="96" fill="#F5F5F5"/>
<g clip-path="url(#clip0_730_6116)">
<path d="M92.16 0.5H3.84C1.99537 0.5 0.5 1.99537 0.5 3.84V92.16C0.5 94.0046 1.99537 95.5 3.84 95.5H92.16C94.0046 95.5 95.5 94.0046 95.5 92.16V3.84C95.5 1.99537 94.0046 0.5 92.16 0.5Z" fill="white"/>
<path d="M96 24H0V96H96V24Z" fill="url(#paint0_linear_730_6116)"/>
<path d="M26.3843 70.7319C25.5686 70.7319 24.8129 70.9635 24.1465 71.3374C18.4497 65.2591 15.3163 57.3572 15.3163 48.9666C15.3163 30.9711 29.8632 16.3311 47.7443 16.3311C52.4855 16.3311 57.0542 17.3373 61.3243 19.3224L62.2958 17.2053C57.7186 15.079 52.8231 14 47.7443 14C28.5863 14 13 29.686 13 48.9666C13 57.9577 16.3581 66.4259 22.4636 72.9378C22.0196 73.653 21.7517 74.4903 21.7517 75.3942C21.7517 77.9654 23.8299 80.0564 26.3843 80.0564C28.9386 80.0564 31.0168 77.9654 31.0168 75.3942C31.0168 72.8229 28.9386 70.7319 26.3843 70.7319Z" fill="url(#paint1_linear_730_6116)"/>
<path d="M73.5363 25.0622C73.9803 24.347 74.2482 23.5097 74.2482 22.6058C74.2482 20.0346 72.17 17.9436 69.6156 17.9436C67.0613 17.9436 64.9831 20.0346 64.9831 22.6058C64.9831 25.1771 67.0613 27.2681 69.6156 27.2681C70.4313 27.2681 71.187 27.0365 71.8534 26.6626C77.5502 32.7409 80.6836 40.6428 80.6836 49.0334C80.6836 67.0289 66.1367 81.6689 48.2556 81.6689C43.5144 81.6689 38.9457 80.6627 34.6756 78.6776L33.7041 80.7947C38.2813 82.921 43.1768 84 48.2556 84C67.4136 84 82.9999 68.314 82.9999 49.0334C82.9999 40.0423 79.6418 31.5742 73.5363 25.0622Z" fill="url(#paint2_linear_730_6116)"/>
<path d="M51.6814 73.1549V58.5575L52.3546 58.2482C55.9977 56.5714 58.3517 52.9311 58.3517 48.9714C58.3517 44.9048 55.8953 41.2577 52.2198 39.6337V52.3463H43.7794V39.6337C40.1039 41.2577 37.6475 44.9048 37.6475 48.9714C37.6475 52.9311 40.0015 56.5714 43.6446 58.2482L44.3179 58.5575V73.1549H51.6814Z" fill="url(#paint3_linear_730_6116)"/>
<path d="M60.8824 27.7168L57.0262 31.565C56.04 31.0548 55.006 30.6287 53.9372 30.2912V24.8452H42.063V30.2912C40.9942 30.6287 39.9603 31.0548 38.974 31.565L35.1178 27.7168L26.7219 36.0983L30.5775 39.9476C30.0664 40.9321 29.639 41.9637 29.3009 43.0311H23.8452V54.883H29.3009C29.639 55.9505 30.0664 56.982 30.5775 57.9665L26.7219 61.8158L35.1178 70.1973L38.9735 66.3491C39.9603 66.8593 40.9942 67.2854 42.063 67.6229V59.9545C38.0372 57.7849 35.4744 53.5465 35.4744 48.9571C35.4744 43.3518 39.2588 38.3981 44.6769 36.9124L46.1321 36.5132V50.0257H49.8681V36.5132L51.3233 36.9124C56.7415 38.3981 60.5258 43.3519 60.5258 48.9571C60.5258 53.5465 57.963 57.7849 53.9372 59.9545V67.6229C55.006 67.2854 56.04 66.8593 57.0268 66.3491L60.8824 70.1973L69.2783 61.8158L65.4227 57.9665C65.9338 56.982 66.3612 55.9505 66.6993 54.883H72.1551V43.0311H66.6993C66.3612 41.9637 65.9338 40.9321 65.4227 39.9476L69.2783 36.0983L60.8824 27.7168Z" fill="url(#paint4_linear_730_6116)"/>
<path d="M92.16 0.5H3.84C1.99537 0.5 0.5 1.99537 0.5 3.84V92.16C0.5 94.0046 1.99537 95.5 3.84 95.5H92.16C94.0046 95.5 95.5 94.0046 95.5 92.16V3.84C95.5 1.99537 94.0046 0.5 92.16 0.5Z" stroke="#1A5C4B"/>
</g>
<defs>
<linearGradient id="paint0_linear_730_6116" x1="48" y1="24" x2="48" y2="96" gradientUnits="userSpaceOnUse">
<stop stop-color="white"/>
<stop offset="1" stop-color="#DBEFBC" stop-opacity="0.5"/>
</linearGradient>
<linearGradient id="paint1_linear_730_6116" x1="37.6479" y1="14" x2="37.6479" y2="80.0564" gradientUnits="userSpaceOnUse">
<stop stop-color="#1A5C4B"/>
<stop offset="1" stop-color="#91C543"/>
</linearGradient>
<linearGradient id="paint2_linear_730_6116" x1="58.352" y1="17.9436" x2="58.352" y2="84" gradientUnits="userSpaceOnUse">
<stop stop-color="#1A5C4B"/>
<stop offset="1" stop-color="#91C543"/>
</linearGradient>
<linearGradient id="paint3_linear_730_6116" x1="47.9996" y1="39.6337" x2="47.9996" y2="73.1549" gradientUnits="userSpaceOnUse">
<stop stop-color="#1A5C4B"/>
<stop offset="1" stop-color="#91C543"/>
</linearGradient>
<linearGradient id="paint4_linear_730_6116" x1="48.0001" y1="24.8452" x2="48.0001" y2="70.1973" gradientUnits="userSpaceOnUse">
<stop stop-color="#1A5C4B"/>
<stop offset="1" stop-color="#91C543"/>
</linearGradient>
<clipPath id="clip0_730_6116">
<rect width="96" height="96" fill="white"/>
</clipPath>
</defs>
</svg>
