<svg width="81" height="80" viewBox="0 0 81 80" fill="none" xmlns="http://www.w3.org/2000/svg">
<rect width="81" height="80" fill="#F5F5F5"/>
<g clip-path="url(#clip0_730_6116)">
<rect width="1920" height="2274" transform="translate(-1375 -399)" fill="white"/>
<g filter="url(#filter0_d_730_6116)">
<path d="M-100 -4C-100 -10.6274 -94.6274 -16 -88 -16H169C175.627 -16 181 -10.6274 181 -4V236C181 242.627 175.627 248 169 248H-88C-94.6274 248 -100 242.627 -100 236V-4Z" fill="white"/>
<path d="M-99.5 -4C-99.5 -10.3513 -94.3513 -15.5 -88 -15.5H169C175.351 -15.5 180.5 -10.3513 180.5 -4V236C180.5 242.351 175.351 247.5 169 247.5H-88C-94.3513 247.5 -99.5 242.351 -99.5 236V-4Z" stroke="#D7DEDA"/>
</g>
<rect x="0.5" width="80" height="80" rx="40" fill="#D0F19E"/>
<circle opacity="0.6" cx="40" cy="40" r="29" fill="white"/>
<path d="M26.2642 53.0297C25.7606 53.0297 25.294 53.1726 24.8825 53.4035C21.365 49.6504 19.4302 44.7713 19.4302 39.5905C19.4302 28.479 28.4124 19.4394 39.4532 19.4394C42.3807 19.4394 45.2017 20.0607 47.8383 21.2864L48.4381 19.9791C45.6119 18.6663 42.5891 18 39.4532 18C27.6239 18 18 27.6855 18 39.5905C18 45.1421 20.0735 50.3708 23.8434 54.3917C23.5692 54.8333 23.4038 55.3503 23.4038 55.9084C23.4038 57.496 24.687 58.7871 26.2642 58.7871C27.8415 58.7871 29.1247 57.496 29.1247 55.9084C29.1247 54.3207 27.8415 53.0297 26.2642 53.0297Z" fill="#1A5C4B"/>
<path d="M55.3787 24.8305C55.6529 24.3889 55.8183 23.8719 55.8183 23.3138C55.8183 21.7261 54.5351 20.4351 52.9579 20.4351C51.3806 20.4351 50.0974 21.7261 50.0974 23.3138C50.0974 24.9014 51.3806 26.1925 52.9579 26.1925C53.4615 26.1925 53.9281 26.0495 54.3396 25.8187C57.8571 29.5718 59.7919 34.4509 59.7919 39.6317C59.7919 50.7432 50.8097 59.7828 39.7689 59.7828C36.8414 59.7828 34.0204 59.1615 31.3838 57.9358L30.7839 59.243C33.6101 60.5559 36.6329 61.2222 39.7689 61.2222C51.5982 61.2222 61.2221 51.5367 61.2221 39.6317C61.2221 34.0801 59.1486 28.8513 55.3787 24.8305Z" fill="#1A5C4B"/>
<path d="M41.8843 54.5258V45.5125L42.3 45.3215C44.5495 44.2862 46.003 42.0384 46.003 39.5934C46.003 37.0825 44.4863 34.8305 42.2168 33.8278V41.6773H37.0052V33.8278C34.7357 34.8305 33.219 37.0825 33.219 39.5934C33.219 42.0384 34.6725 44.2862 36.922 45.3215L37.3377 45.5125V54.5258H41.8843Z" fill="#1A5C4B"/>
<path d="M47.5653 26.4696L45.1842 28.8457C44.5753 28.5307 43.9368 28.2676 43.2769 28.0592V24.6965H35.9451V28.0592C35.2851 28.2676 34.6467 28.5307 34.0377 28.8457L31.6567 26.4696L26.4725 31.6448L28.8532 34.0216C28.5377 34.6295 28.2738 35.2664 28.065 35.9255H24.6963V43.2436H28.065C28.2738 43.9027 28.5377 44.5396 28.8532 45.1475L26.4725 47.5243L31.6567 52.6996L34.0374 50.3235C34.6467 50.6385 35.2851 50.9016 35.9451 51.11V46.375C33.4593 45.0354 31.8769 42.4183 31.8769 39.5846C31.8769 36.1236 34.2136 33.0648 37.559 32.1475L38.4576 31.901V40.2444H40.7644V31.901L41.6629 32.1475C45.0084 33.0648 47.3451 36.1236 47.3451 39.5846C47.3451 42.4183 45.7627 45.0354 43.2769 46.375V51.11C43.9368 50.9016 44.5753 50.6385 45.1846 50.3235L47.5653 52.6996L52.7494 47.5243L50.3687 45.1475C50.6843 44.5396 50.9482 43.9027 51.157 43.2436H54.5257V35.9255H51.157C50.9482 35.2664 50.6843 34.6295 50.3687 34.0216L52.7494 31.6448L47.5653 26.4696Z" fill="#1A5C4B"/>
</g>
<defs>
<filter id="filter0_d_730_6116" x="-120" y="-32" width="321" height="304" filterUnits="userSpaceOnUse" color-interpolation-filters="sRGB">
<feFlood flood-opacity="0" result="BackgroundImageFix"/>
<feColorMatrix in="SourceAlpha" type="matrix" values="0 0 0 0 0 0 0 0 0 0 0 0 0 0 0 0 0 0 127 0" result="hardAlpha"/>
<feOffset dy="4"/>
<feGaussianBlur stdDeviation="10"/>
<feColorMatrix type="matrix" values="0 0 0 0 0 0 0 0 0 0 0 0 0 0 0 0 0 0 0.1 0"/>
<feBlend mode="normal" in2="BackgroundImageFix" result="effect1_dropShadow_730_6116"/>
<feBlend mode="normal" in="SourceGraphic" in2="effect1_dropShadow_730_6116" result="shape"/>
</filter>
<clipPath id="clip0_730_6116">
<rect width="1920" height="2274" fill="white" transform="translate(-1375 -399)"/>
</clipPath>
</defs>
</svg>
