<svg width="45" height="41" viewBox="0 0 45 41" fill="none" xmlns="http://www.w3.org/2000/svg">
<g id="game-icons:teacher">
<g id="Group 1597881775">
<g id="Group 1597881776">
<path id="Vector" d="M23 39C32.9225 39 41 30.9225 41 21C41 11.0775 32.9225 3 23 3C13.0775 3 5 11.0775 5 21C5 30.9225 13.0775 39 23 39ZM23 7.5C30.4419 7.5 36.5 13.5581 36.5 21C36.5 28.4419 30.4419 34.5 23 34.5C15.5581 34.5 9.5 28.4419 9.5 21C9.5 13.5581 15.5581 7.5 23 7.5Z" fill="#6A7C6F"/>
<path id="Vector_2" d="M18.5 27.75C18.8937 27.75 19.2931 27.6488 19.6531 27.4294L23.0956 25.365C25.115 24.15 26.375 21.9338 26.375 19.5769V14.25C26.375 13.0069 25.3681 12 24.125 12C22.8819 12 21.875 13.0069 21.875 14.25V19.5769C21.875 20.3644 21.4587 21.1013 20.7837 21.5063L17.3412 23.5706C16.2781 24.2119 15.9293 25.59 16.5706 26.6588C16.9925 27.3619 17.735 27.75 18.5 27.75Z" fill="#6A7C6F"/>
</g>
</g>
</g>
</svg>
