<svg width="16" height="16" viewBox="0 0 16 16" fill="none" xmlns="http://www.w3.org/2000/svg">
<mask id="mask0_875_3306" style="mask-type:alpha" maskUnits="userSpaceOnUse" x="0" y="0" width="16" height="16">
<rect width="16" height="16" fill="#D9D9D9"/>
</mask>
<g mask="url(#mask0_875_3306)">
<path d="M7.99984 10.6667C8.83317 10.6667 9.5415 10.375 10.1248 9.79169C10.7082 9.20835 10.9998 8.50002 10.9998 7.66669C10.9998 6.83335 10.7082 6.12502 10.1248 5.54169C9.5415 4.95835 8.83317 4.66669 7.99984 4.66669C7.1665 4.66669 6.45817 4.95835 5.87484 5.54169C5.2915 6.12502 4.99984 6.83335 4.99984 7.66669C4.99984 8.50002 5.2915 9.20835 5.87484 9.79169C6.45817 10.375 7.1665 10.6667 7.99984 10.6667ZM7.99984 9.46669C7.49984 9.46669 7.07484 9.29169 6.72484 8.94169C6.37484 8.59169 6.19984 8.16669 6.19984 7.66669C6.19984 7.16669 6.37484 6.74169 6.72484 6.39169C7.07484 6.04169 7.49984 5.86669 7.99984 5.86669C8.49984 5.86669 8.92484 6.04169 9.27484 6.39169C9.62484 6.74169 9.79984 7.16669 9.79984 7.66669C9.79984 8.16669 9.62484 8.59169 9.27484 8.94169C8.92484 9.29169 8.49984 9.46669 7.99984 9.46669ZM7.99984 12.6667C6.37761 12.6667 4.89984 12.2139 3.5665 11.3084C2.23317 10.4028 1.2665 9.18891 0.666504 7.66669C1.2665 6.14446 2.23317 4.93058 3.5665 4.02502C4.89984 3.11946 6.37761 2.66669 7.99984 2.66669C9.62206 2.66669 11.0998 3.11946 12.4332 4.02502C13.7665 4.93058 14.7332 6.14446 15.3332 7.66669C14.7332 9.18891 13.7665 10.4028 12.4332 11.3084C11.0998 12.2139 9.62206 12.6667 7.99984 12.6667ZM7.99984 11.3334C9.25539 11.3334 10.4082 11.0028 11.4582 10.3417C12.5082 9.68058 13.3109 8.78891 13.8665 7.66669C13.3109 6.54446 12.5082 5.6528 11.4582 4.99169C10.4082 4.33058 9.25539 4.00002 7.99984 4.00002C6.74428 4.00002 5.5915 4.33058 4.5415 4.99169C3.4915 5.6528 2.68873 6.54446 2.13317 7.66669C2.68873 8.78891 3.4915 9.68058 4.5415 10.3417C5.5915 11.0028 6.74428 11.3334 7.99984 11.3334Z" fill="#5C6460"/>
</g>
</svg>
