<svg width="45" height="41" viewBox="0 0 45 41" fill="none" xmlns="http://www.w3.org/2000/svg">
<g id="game-icons:teacher">
<path id="Vector" fill-rule="evenodd" clip-rule="evenodd" d="M22 2C31.9411 2 40 10.0589 40 20C40 29.9411 31.9411 38 22 38C12.0589 38 4 29.9411 4 20C4 10.0589 12.0589 2 22 2ZM33.6149 10.5064L12.5064 31.6149C18.3984 36.4426 27.1067 36.1065 32.6066 30.6066C38.1065 25.1067 38.4426 16.3985 33.6149 10.5064ZM10.3851 29.4936L31.4936 8.38512C25.6015 3.55742 16.8933 3.89349 11.3934 9.39339C5.89351 14.8933 5.55741 23.6015 10.3851 29.4936Z" fill="#948005"/>
</g>
</svg>
