<svg width="81" height="80" viewBox="0 0 81 80" fill="none" xmlns="http://www.w3.org/2000/svg">
<rect width="81" height="80" fill="#F5F5F5"/>
<g clip-path="url(#clip0_730_6116)">
<rect width="1920" height="2274" transform="translate(-1070 -703)" fill="white"/>
<g filter="url(#filter0_d_730_6116)">
<path d="M-100 -4C-100 -10.6274 -94.6274 -16 -88 -16H169C175.627 -16 181 -10.6274 181 -4V236C181 242.627 175.627 248 169 248H-88C-94.6274 248 -100 242.627 -100 236V-4Z" fill="white"/>
<path d="M-99.5 -4C-99.5 -10.3513 -94.3513 -15.5 -88 -15.5H169C175.351 -15.5 180.5 -10.3513 180.5 -4V236C180.5 242.351 175.351 247.5 169 247.5H-88C-94.3513 247.5 -99.5 242.351 -99.5 236V-4Z" stroke="#D7DEDA"/>
<rect x="0.5" width="80" height="80" rx="40" fill="#D0F19E"/>
<circle opacity="0.6" cx="40" cy="40" r="29" fill="white"/>
</g>
<g clip-path="url(#clip1_730_6116)">
<path d="M65.8575 61L64.9184 51.3089C64.5325 47.1777 60.9953 44.0209 56.7703 44.0357H53.2828C52.0466 44.034 50.8646 43.5383 50.0089 42.6624L46.045 48.1089L45.1738 47.2222L44.1587 48.7171L45.8283 61H47.7607V55.6428H49.5795C49.5795 54.1636 50.8011 52.9643 52.3077 52.9643H54.1265C55.6331 52.9643 56.8546 54.1636 56.8546 55.6428H58.6734V61H65.8575Z" fill="#1A5C4B"/>
<path d="M49.5795 57.4286H56.8546V61H49.5795V57.4286Z" fill="#1A5C4B"/>
<path d="M54.1265 54.75H52.3077C51.8055 54.75 51.3983 55.1498 51.3983 55.6429H55.0359C55.0359 55.1498 54.6287 54.75 54.1265 54.75Z" fill="#1A5C4B"/>
<path d="M39.4622 41.7905L38.5381 41.523C36.4109 40.9028 34.4122 39.8828 32.644 38.5154L30.8252 41.4519L35.0594 46.9499L39.4622 41.7905Z" fill="#1A5C4B"/>
<path d="M24.2013 44.0357C19.9759 44.0209 16.4391 47.1777 16.0532 51.3089L15.1136 61H35.1429L36.8107 48.7154L35.7961 47.2204L34.9249 48.1072L30.9605 42.6607C30.1057 43.5365 28.9246 44.0331 27.6888 44.0357H24.2013Z" fill="#1A5C4B"/>
<path d="M42.9994 44.0636H38.0686L36.0581 60.9721H45.0099L42.9994 44.0636Z" fill="#1A5C4B"/>
<path d="M50.4663 40.9687L48.3907 38.2043C46.5906 39.6102 44.5279 40.6899 42.3082 41.3877L41.344 41.689L46.2653 46.4911L50.4663 40.9687Z" fill="#1A5C4B"/>
<rect x="46.7151" y="51.5134" width="13.4704" height="9.4587" fill="#1A5C4B"/>
<path d="M41.958 24.7381L40.9186 25.3755C39.618 26.1742 38.1149 26.5975 36.5807 26.5971H30.4823V29.1954C30.4752 34.1925 33.7327 38.631 38.5634 40.2053L39.6273 40.5532C40.1846 40.7346 40.7867 40.7346 41.3444 40.5532L42.4083 40.2053C47.2386 38.631 50.4965 34.1925 50.4889 29.1954V26.1232L49.4068 25.2373C47.2958 23.5052 44.2893 23.3038 41.958 24.7381Z" fill="#1A5C4B"/>
<path d="M40.9581 12.5067C40.6855 12.5067 40.4053 12.5167 40.1278 12.5346C33.8597 13.0813 29.0774 18.275 29.1534 24.453V24.7961C29.1538 25.134 29.3483 25.4431 29.6565 25.5944L30.2777 25.8995H37.0706C38.2637 25.9 39.4329 25.5708 40.4444 24.9505L41.4839 24.3131C44.4802 22.4668 48.3465 22.7249 51.0609 24.9522L52.0138 25.7326L52.2949 25.5944C52.6026 25.4431 52.7975 25.134 52.7975 24.7961V24.1138C52.7975 21.0324 51.5498 18.0775 49.3287 15.9002C47.1081 13.723 44.0966 12.5023 40.9581 12.5067Z" fill="#1A5C4B"/>
</g>
</g>
<defs>
<filter id="filter0_d_730_6116" x="-120" y="-32" width="321" height="304" filterUnits="userSpaceOnUse" color-interpolation-filters="sRGB">
<feFlood flood-opacity="0" result="BackgroundImageFix"/>
<feColorMatrix in="SourceAlpha" type="matrix" values="0 0 0 0 0 0 0 0 0 0 0 0 0 0 0 0 0 0 127 0" result="hardAlpha"/>
<feOffset dy="4"/>
<feGaussianBlur stdDeviation="10"/>
<feColorMatrix type="matrix" values="0 0 0 0 0 0 0 0 0 0 0 0 0 0 0 0 0 0 0.1 0"/>
<feBlend mode="normal" in2="BackgroundImageFix" result="effect1_dropShadow_730_6116"/>
<feBlend mode="normal" in="SourceGraphic" in2="effect1_dropShadow_730_6116" result="shape"/>
</filter>
<clipPath id="clip0_730_6116">
<rect width="1920" height="2274" fill="white" transform="translate(-1070 -703)"/>
</clipPath>
<clipPath id="clip1_730_6116">
<rect width="50.9259" height="50" fill="white" transform="translate(15 11)"/>
</clipPath>
</defs>
</svg>
