<svg width="96" height="96" viewBox="0 0 96 96" fill="none" xmlns="http://www.w3.org/2000/svg">
<rect width="96" height="96" fill="#F5F5F5"/>
<g clip-path="url(#clip0_730_6116)">
<path d="M92.16 0.5H3.84C1.99537 0.5 0.5 1.99537 0.5 3.84V92.16C0.5 94.0046 1.99537 95.5 3.84 95.5H92.16C94.0046 95.5 95.5 94.0046 95.5 92.16V3.84C95.5 1.99537 94.0046 0.5 92.16 0.5Z" fill="white"/>
<path d="M96 24H0V96H96V24Z" fill="url(#paint0_linear_730_6116)"/>
<mask id="mask0_730_6116" style="mask-type:luminance" maskUnits="userSpaceOnUse" x="13" y="13" width="70" height="70">
<path d="M83 13H13V83H83V13Z" fill="white"/>
</mask>
<g mask="url(#mask0_730_6116)">
<path d="M47.9997 33.5882C40.0531 33.5882 33.5879 40.0533 33.5879 48C33.5879 55.9466 40.0531 62.4118 47.9997 62.4118C55.9463 62.4118 62.4115 55.9466 62.4115 48C62.4115 40.0533 55.9463 33.5882 47.9997 33.5882ZM50.0585 58.2941H45.9409V54.1765H50.0585V58.2941ZM50.0585 50.0588H45.9409V37.7059H50.0585V50.0588Z" fill="url(#paint1_linear_730_6116)"/>
<path d="M83 53.6707V42.3295L73.4159 39.5912C73.0065 38.3543 72.5047 37.1452 71.9163 35.977L76.7585 27.2611L68.7389 19.2415L60.023 24.0837C58.8549 23.4953 57.6459 22.9937 56.4088 22.5842L53.6707 13H42.3295L39.5911 22.5842C38.3541 22.9937 37.1451 23.4955 35.977 24.0837L27.2611 19.2415L19.2415 27.2611L24.0837 35.977C23.4953 37.1451 22.9937 38.3543 22.5841 39.5912L13 42.3295V53.6707L22.5841 56.4089C22.9935 57.646 23.4953 58.8549 24.0836 60.0231L19.2415 68.7391L27.2611 76.7586L35.977 71.9164C37.1451 72.5048 38.3541 73.0065 39.5911 73.416L42.3295 83H53.6707L56.4089 73.4159C57.646 73.0065 58.8549 72.5047 60.0231 71.9163L68.7391 76.7585L76.7586 68.7389L71.9164 60.023C72.5048 58.8548 73.0065 57.6459 73.416 56.4088L83 53.6707ZM48 66.5294C37.7829 66.5294 29.4706 58.2173 29.4706 48C29.4706 37.7827 37.7829 29.4706 48 29.4706C58.2171 29.4706 66.5294 37.7829 66.5294 48C66.5294 58.2171 58.2173 66.5294 48 66.5294Z" fill="url(#paint2_linear_730_6116)"/>
</g>
<path d="M92.16 0.5H3.84C1.99537 0.5 0.5 1.99537 0.5 3.84V92.16C0.5 94.0046 1.99537 95.5 3.84 95.5H92.16C94.0046 95.5 95.5 94.0046 95.5 92.16V3.84C95.5 1.99537 94.0046 0.5 92.16 0.5Z" stroke="#1A5C4B"/>
</g>
<defs>
<linearGradient id="paint0_linear_730_6116" x1="48" y1="24" x2="48" y2="96" gradientUnits="userSpaceOnUse">
<stop stop-color="white"/>
<stop offset="1" stop-color="#DBEFBC" stop-opacity="0.5"/>
</linearGradient>
<linearGradient id="paint1_linear_730_6116" x1="47.9997" y1="33.5882" x2="47.9997" y2="62.4118" gradientUnits="userSpaceOnUse">
<stop stop-color="#1A5C4B"/>
<stop offset="1" stop-color="#91C543"/>
</linearGradient>
<linearGradient id="paint2_linear_730_6116" x1="48" y1="13" x2="48" y2="83" gradientUnits="userSpaceOnUse">
<stop stop-color="#1A5C4B"/>
<stop offset="1" stop-color="#91C543"/>
</linearGradient>
<clipPath id="clip0_730_6116">
<rect width="96" height="96" fill="white"/>
</clipPath>
</defs>
</svg>
