<svg width="48" height="48" viewBox="0 0 48 48" fill="none" xmlns="http://www.w3.org/2000/svg">
<rect width="48" height="48" rx="24" fill="#D0F19E"/>
<mask id="mask0_19_66804" style="mask-type:alpha" maskUnits="userSpaceOnUse" x="8" y="8" width="32" height="32">
<rect x="8" y="8" width="32" height="32" fill="#D9D9D9"/>
</mask>
<g mask="url(#mask0_19_66804)">
<path d="M19.4668 38L16.9335 33.7333L12.1335 32.6667L12.6002 27.7333L9.3335 24L12.6002 20.2667L12.1335 15.3333L16.9335 14.2667L19.4668 10L24.0002 11.9333L28.5335 10L31.0668 14.2667L35.8668 15.3333L35.4002 20.2667L38.6668 24L35.4002 27.7333L35.8668 32.6667L31.0668 33.7333L28.5335 38L24.0002 36.0667L19.4668 38ZM20.6002 34.6L24.0002 33.1333L27.4668 34.6L29.3335 31.4L33.0002 30.5333L32.6668 26.8L35.1335 24L32.6668 21.1333L33.0002 17.4L29.3335 16.6L27.4002 13.4L24.0002 14.8667L20.5335 13.4L18.6668 16.6L15.0002 17.4L15.3335 21.1333L12.8668 24L15.3335 26.8L15.0002 30.6L18.6668 31.4L20.6002 34.6ZM22.6002 28.7333L30.1335 21.2L28.2668 19.2667L22.6002 24.9333L19.7335 22.1333L17.8668 24L22.6002 28.7333Z" fill="#1A5C4B"/>
</g>
</svg>
