<svg width="48" height="48" viewBox="0 0 48 48" fill="none" xmlns="http://www.w3.org/2000/svg">
<g id="logos:whatsapp-icon" clip-path="url(#clip0_3295_63308)">
<path id="Vector" d="M1.00851 23.7128C1.00741 27.7458 2.05307 31.6836 4.04137 35.1545L0.818359 47.0135L12.8612 43.8313C16.1921 45.6587 19.9241 46.6162 23.7166 46.6165H23.7265C36.2462 46.6165 46.4376 36.3499 46.4429 23.7309C46.4453 17.6161 44.0845 11.8661 39.7951 7.54018C35.5065 3.2146 29.8028 0.83116 23.7256 0.828369C11.2045 0.828369 1.01387 11.0944 1.0087 23.7128" fill="url(#paint0_linear_3295_63308)"/>
<path id="Vector_2" d="M0.197538 23.7053C0.196246 27.8833 1.27938 31.962 3.33858 35.5572L0 47.8413L12.4746 44.5451C15.9118 46.4337 19.7817 47.4294 23.7196 47.4309H23.7297C36.6986 47.4309 47.256 36.795 47.2615 23.7243C47.2638 17.3898 44.818 11.4331 40.3754 6.95219C35.9322 2.47181 30.0246 0.00260465 23.7297 0C10.7586 0 0.202708 10.6344 0.197538 23.7053ZM7.62665 34.938L7.16086 34.1929C5.20283 31.0554 4.16935 27.4298 4.17083 23.7068C4.17489 12.8426 12.9486 4.00372 23.7371 4.00372C28.9617 4.00595 33.8718 6.05842 37.5648 9.78233C41.2577 13.5066 43.2897 18.4573 43.2884 23.7228C43.2836 34.587 34.5098 43.427 23.7297 43.427H23.722C20.2119 43.4251 16.7694 42.4752 13.7671 40.68L13.0527 40.253L5.64997 42.2089L7.62665 34.938Z" fill="url(#paint1_linear_3295_63308)"/>
<path id="Vector_3" d="M17.8482 13.7949C17.4077 12.8083 16.9441 12.7884 16.5252 12.7711C16.1822 12.7562 15.7901 12.7573 15.3983 12.7573C15.0062 12.7573 14.3691 12.906 13.8306 13.4986C13.2915 14.0917 11.7725 15.525 11.7725 18.4401C11.7725 21.3553 13.8795 24.1728 14.1732 24.5685C14.4673 24.9635 18.2408 31.1372 24.2172 33.5123C29.1841 35.4861 30.1949 35.0935 31.2728 34.9946C32.351 34.8959 34.7517 33.5616 35.2415 32.178C35.7317 30.7946 35.7317 29.6087 35.5847 29.3609C35.4378 29.114 35.0456 28.9657 34.4576 28.6695C33.8696 28.3733 30.9787 26.9397 30.4398 26.7419C29.9008 26.5443 29.5088 26.4457 29.1167 27.039C28.7246 27.6314 27.5986 28.9657 27.2554 29.3609C26.9126 29.757 26.5694 29.8063 25.9816 29.5099C25.3932 29.2126 23.4996 28.5877 21.253 26.5692C19.5051 24.9986 18.325 23.0591 17.982 22.4658C17.639 21.8734 17.9453 21.5523 18.2401 21.2571C18.5043 20.9916 18.8283 20.5652 19.1226 20.2193C19.4157 19.8733 19.5136 19.6264 19.7096 19.2312C19.9059 18.8357 19.8077 18.4896 19.6609 18.1933C19.5136 17.8969 18.371 14.9665 17.8482 13.7949Z" fill="white"/>
</g>
<defs>
<linearGradient id="paint0_linear_3295_63308" x1="2282.05" y1="4619.34" x2="2282.05" y2="0.828369" gradientUnits="userSpaceOnUse">
<stop stop-color="#1FAF38"/>
<stop offset="1" stop-color="#60D669"/>
</linearGradient>
<linearGradient id="paint1_linear_3295_63308" x1="2363.08" y1="4784.13" x2="2363.08" y2="0" gradientUnits="userSpaceOnUse">
<stop stop-color="#F9F9F9"/>
<stop offset="1" stop-color="white"/>
</linearGradient>
<clipPath id="clip0_3295_63308">
<rect width="47.2615" height="48" fill="white"/>
</clipPath>
</defs>
</svg>
