<svg width="102" height="200" viewBox="0 0 102 200" fill="none" xmlns="http://www.w3.org/2000/svg">
<path d="M23.9432 32.3763C22.8278 30.7029 21.5833 29.0975 20.2342 27.5817C20.078 25.9314 20.0264 24.258 20.131 22.6078C20.5712 15.8016 23.0099 9.22093 27.2107 3.5C31.5432 9.22093 34.058 15.8234 34.5254 22.6526C34.6286 24.3029 34.6028 25.9545 34.4479 27.6048C33.0472 29.0975 31.7756 30.6567 30.6343 32.3084C29.2866 34.252 28.1454 36.3098 27.2107 38.4354C26.3289 36.3328 25.2393 34.2982 23.969 32.3532L23.9432 32.3763Z" fill="white"/>
<path d="M31.9911 52.2537C31.8363 52.4805 31.7058 52.706 31.5768 52.9328C31.4722 48.9531 30.5646 45.0183 28.8799 41.3103C29.7617 39.2295 30.8241 37.1948 32.0957 35.2729C35.9338 29.5289 41.6399 24.9163 48.4873 22.0001C49.1625 28.2399 48.1503 34.5259 45.5568 40.3595C39.9539 43.2322 35.2857 47.3246 32.0169 52.2537H31.9911Z" fill="white"/>
<path d="M31.7802 92.5016C31.624 92.7271 31.4949 92.9539 31.3645 93.1794C31.2612 89.1997 30.3537 85.2663 28.6677 81.5569C29.5494 79.4774 30.6118 77.4414 31.8835 75.5195C35.7215 69.7768 41.4276 65.1643 48.275 62.2467C48.9502 68.4879 47.9381 74.7738 45.3445 80.6075C39.743 83.5019 35.0734 87.5943 31.806 92.5016H31.7802Z" fill="white"/>
<path d="M31.7802 112.579C31.624 112.806 31.4949 113.031 31.3645 113.258C31.2612 109.278 30.3537 105.343 28.6677 101.635C29.5494 99.5546 30.6118 97.52 31.8835 95.598C35.7215 89.8554 41.4276 85.2414 48.275 82.3253C48.9502 88.5664 47.9381 94.8524 45.3445 100.686C39.743 103.557 35.0734 107.673 31.806 112.579H31.7802Z" fill="white"/>
<path d="M31.7802 133.428C31.624 133.654 31.4949 133.88 31.3645 134.106C31.2612 130.126 30.3537 126.191 28.6677 122.483C29.5494 120.404 30.6118 118.368 31.8835 116.446C35.7215 110.703 41.4276 106.089 48.275 103.173C48.9502 109.414 47.9381 115.7 45.3445 121.534C39.743 124.405 35.0734 128.498 31.806 133.428H31.7802Z" fill="white"/>
<path d="M31.5272 153.278C31.371 153.505 31.242 153.73 31.1115 153.957C31.0083 149.977 30.1007 146.042 28.4147 142.334C29.2964 140.254 30.3602 138.219 31.6305 136.297C35.4699 130.553 41.1761 125.94 48.0234 123.023C48.6973 129.264 47.6865 135.55 45.0929 141.384C39.49 144.256 34.8205 148.372 31.5531 153.278H31.5272Z" fill="white"/>
<path d="M39.8262 31.2921C40.1904 31.2921 40.4756 31.0205 40.4498 30.704V9.85632C40.4756 9.56158 40.2161 9.28992 39.8792 9.26819C39.5423 9.2451 39.2298 9.47193 39.204 9.76531C39.204 9.76531 39.204 9.81014 39.204 9.85632V30.704C39.204 31.0205 39.4635 31.2921 39.8262 31.2921Z" fill="white"/>
<path d="M45.1877 30.0264C45.5504 30.0033 45.8357 29.7548 45.8099 29.4383V16.8664C45.8357 16.5717 45.5763 16.3 45.2393 16.2783C44.9024 16.2552 44.5913 16.482 44.5655 16.7754C44.5655 16.8202 44.5655 16.8664 44.5655 16.8664V29.4383C44.5655 29.7548 44.8236 30.0033 45.1877 30.0264Z" fill="white"/>
<path d="M42.1024 94.309C42.3348 94.309 42.5426 94.1963 42.6459 94.0157L55.1477 72.1955C55.3298 71.9007 55.1994 71.5625 54.9141 71.3819C54.6287 71.223 54.266 71.3139 54.0853 71.5625L54.0581 71.6073L41.5576 93.4275C41.3756 93.6992 41.506 94.0605 41.7913 94.2194C41.8688 94.2642 41.972 94.2873 42.0753 94.2873L42.1024 94.309Z" fill="white"/>
<path d="M42.2874 133.383C42.5211 133.383 42.729 133.269 42.8322 133.089L55.3341 111.268C55.5148 110.997 55.3857 110.635 55.1004 110.478C54.8151 110.319 54.4523 110.41 54.2703 110.658L54.2445 110.703L41.7426 132.523C41.5619 132.795 41.691 133.156 41.9763 133.315C42.0538 133.36 42.1584 133.383 42.2616 133.383H42.2874Z" fill="white"/>
<path d="M42.5263 114.001C42.7599 114.001 42.9664 113.888 43.0711 113.708L55.5729 91.9092C55.7536 91.6159 55.6245 91.2763 55.3392 91.0956C55.0539 90.9367 54.6912 91.0277 54.5091 91.2763L54.4833 91.3211L41.9814 113.141C41.7994 113.413 41.9298 113.776 42.2151 113.933C42.2926 113.978 42.3958 114.001 42.5004 114.001H42.5263Z" fill="white"/>
<path d="M42.1024 72.7827C42.3348 72.7827 42.5426 72.67 42.6459 72.4663L55.1477 50.646C55.3298 50.3744 55.1994 50.0118 54.9141 49.8542C54.6287 49.6953 54.266 49.7863 54.0853 50.0349L54.0581 50.0797L41.5576 71.8999C41.3756 72.1715 41.506 72.5342 41.7913 72.6917C41.8688 72.7365 41.972 72.7597 42.0753 72.7597L42.1024 72.7827Z" fill="white"/>
<path d="M26.9299 53.9464C26.1256 54.2629 25.1923 54.2398 24.4138 53.8554C23.9206 52.9291 23.3758 52.0014 22.8052 51.1199C19.9521 46.8238 15.932 43.1823 11.1076 40.5378C8.04808 34.6811 6.80227 28.2362 7.52913 21.8144C13.9091 24.5282 19.2266 28.8243 22.8052 34.184C27.7858 41.7127 29.9134 52.3179 26.9299 53.9464Z" fill="white"/>
<path d="M15.8523 30.1825C16.1893 30.1825 16.4487 29.9122 16.4487 29.6175V9.81016C16.4746 9.51542 16.2151 9.26687 15.9039 9.24514C15.567 9.22205 15.2817 9.42578 15.2559 9.71916C15.2559 9.71916 15.2559 9.76534 15.2559 9.81016V29.6175C15.2559 29.9122 15.5154 30.1825 15.8523 30.1825Z" fill="white"/>
<path d="M10.1737 28.9827C10.5106 28.9827 10.7702 28.7111 10.7702 28.4177V16.4787C10.796 16.2071 10.5365 15.9585 10.2254 15.9137C9.88849 15.8906 9.60309 16.0943 9.57727 16.3877C9.57727 16.3877 9.57727 16.4325 9.57727 16.4787V28.4177C9.57727 28.7111 9.83676 28.9827 10.1737 28.9827Z" fill="white"/>
<path d="M32.0447 72.3535C31.8899 72.5789 31.7594 72.8058 31.6303 73.0312C31.5257 69.0516 30.6182 65.1167 28.9321 61.4087C29.8139 59.3292 30.8777 57.2932 32.1493 55.3713C35.9874 49.6287 41.6935 45.0161 48.5409 42.0986C49.2147 48.3397 48.2039 54.6257 45.6103 60.4593C40.0075 63.3307 35.3393 67.4244 32.0705 72.3535H32.0447Z" fill="white"/>
<path d="M42.1024 53.6096C42.3348 53.6096 42.5426 53.4969 42.6459 53.3162L55.1477 31.496C55.3298 31.2244 55.1994 30.8617 54.9141 30.7042C54.6287 30.5452 54.266 30.6362 54.0853 30.8848L54.0581 30.9296L41.5576 52.7498C41.3756 53.0215 41.506 53.3841 41.7913 53.5417C41.8688 53.5865 41.972 53.6096 42.0753 53.6096H42.1024Z" fill="white"/>
<path d="M13.5733 53.0198C13.6779 53.0198 13.7812 52.9981 13.8587 52.9519C14.1698 52.7943 14.2743 52.4317 14.0923 52.1614L1.59049 30.3412C1.46142 30.0913 1.09736 29.9568 0.812054 30.0913L0.760326 30.1144C0.449207 30.2733 0.346004 30.6346 0.526699 30.9062L13.0285 52.7264C13.1331 52.9071 13.3396 53.0429 13.5733 53.0429V53.0198Z" fill="white"/>
<path d="M27.1951 74.3433C26.3909 74.6598 25.4575 74.6367 24.679 74.2523C24.1858 73.3246 23.641 72.3983 23.0704 71.5168C20.2174 67.2206 16.1972 63.5792 11.3728 60.9333C8.31325 55.0779 7.06745 48.6331 7.76849 42.2113C14.1485 44.9251 19.4661 49.2212 23.0446 54.5795C28.0253 62.1096 30.1515 72.7148 27.1693 74.3433H27.1951Z" fill="white"/>
<path d="M13.4193 73.1653C13.5239 73.1653 13.6272 73.1422 13.7047 73.0974C14.0158 72.9385 14.1203 72.5772 13.9641 72.3055L1.46229 50.4853C1.33323 50.2368 0.970406 50.1009 0.685101 50.2368L0.633488 50.2599C0.322369 50.4174 0.2178 50.7801 0.399853 51.0504L12.9017 72.8706C13.0049 73.0526 13.2128 73.187 13.4451 73.187L13.4193 73.1653Z" fill="white"/>
<path d="M27.0353 94.4915C26.231 94.808 25.2976 94.7849 24.5192 94.4005C24.0274 93.4728 23.4825 92.5465 22.9119 91.665C20.0589 87.3675 16.0388 83.7274 11.2144 81.0815C8.15344 75.2262 6.90901 68.7582 7.60869 62.3595C13.9887 65.0733 19.3062 69.3694 22.8861 74.7277C27.8654 82.2578 29.993 92.863 27.0095 94.4915H27.0353Z" fill="white"/>
<path d="M13.2957 92.9985C13.3989 92.9985 13.5022 92.9754 13.581 92.9305C13.8922 92.7716 13.9954 92.4103 13.8133 92.1387L1.31286 70.3185C1.18244 70.0699 0.819633 69.9341 0.534328 70.0699C0.534328 70.0699 0.482719 70.0917 0.455547 70.0917C0.144428 70.2506 0.0412102 70.6119 0.223263 70.8835L12.7237 92.7037C12.8283 92.8844 13.0362 92.9985 13.2685 92.9985H13.2957Z" fill="white"/>
<path d="M26.9033 114.32C26.099 114.636 25.1656 114.615 24.3871 114.23C23.894 113.303 23.3492 112.375 22.7785 111.493C19.9255 107.197 15.9054 103.557 11.081 100.911C8.02141 95.0546 6.77562 88.6111 7.47666 82.1893C13.8566 84.9017 19.1742 89.1992 22.7527 94.5575C27.7334 102.088 29.8596 112.693 26.8775 114.32H26.9033Z" fill="white"/>
<path d="M13.4193 113.621C13.5239 113.621 13.6272 113.598 13.7047 113.553C14.0158 113.394 14.1203 113.033 13.9641 112.761L1.46229 90.9409C1.33323 90.6923 0.970406 90.5565 0.685101 90.6923L0.633488 90.7154C0.322369 90.873 0.2178 91.2342 0.399853 91.5059L12.9017 113.326C13.0049 113.508 13.2128 113.643 13.4451 113.643L13.4193 113.621Z" fill="white"/>
<path d="M27.0353 134.942C26.231 135.259 25.2976 135.236 24.5192 134.851C24.0274 133.925 23.4825 132.997 22.9119 132.116C20.0589 127.82 16.0388 124.18 11.2144 121.534C8.15344 115.677 6.90901 109.233 7.60869 102.812C13.9887 105.524 19.3062 109.82 22.8861 115.18C27.8654 122.71 29.993 133.314 27.0095 134.942H27.0353Z" fill="white"/>
<path d="M13.1361 133.721C13.2393 133.721 13.3425 133.699 13.4213 133.653C13.7325 133.496 13.8358 133.133 13.6551 132.863L1.15318 111.043C1.02275 110.794 0.660049 110.658 0.374744 110.794L0.323124 110.816C0.0120049 110.975 -0.0926628 111.336 0.0893898 111.608L12.5913 133.428C12.6945 133.609 12.9024 133.721 13.1361 133.721Z" fill="white"/>
<path d="M26.6725 154.931C26.4918 155.112 26.3355 155.293 26.2064 155.496C26.1032 155.655 25.9986 155.813 25.9469 155.904C24.0014 152.534 21.4853 149.436 18.4257 146.768C16.1949 144.778 13.653 143.06 10.929 141.635C7.86943 135.779 6.64935 129.312 7.35038 122.913C13.7046 125.649 19.0221 129.945 22.6265 135.282C23.2759 136.254 31.5226 148.622 26.6996 154.953L26.6725 154.931Z" fill="white"/>
<path d="M25.8116 149.322L24.5671 200.132H29.6252L28.3536 149.322H25.8116Z" fill="white"/>
<path d="M78.1655 73.6844C77.3354 72.4185 76.402 71.2205 75.3641 70.0891C75.235 68.8463 75.2092 67.6021 75.2866 66.3594C75.6236 61.2483 77.4645 56.2961 80.6029 52C83.8458 56.2961 85.7655 61.2714 86.1283 66.4042C86.2057 67.6483 86.1799 68.8911 86.0495 70.1353C84.987 71.2436 84.0265 72.4416 83.1706 73.6626C82.1598 75.1323 81.3039 76.6698 80.577 78.2522C79.9032 76.6698 79.0989 75.1554 78.1397 73.6844H78.1655Z" fill="white"/>
<path d="M84.2039 88.6322C84.1007 88.7911 83.9974 88.9718 83.8928 89.1524C83.8154 86.1683 83.1415 83.206 81.8699 80.4243C82.5179 78.8651 83.3222 77.3262 84.2828 75.8797C87.1616 71.5604 91.467 68.101 96.6025 65.9074C97.1215 70.5879 96.3431 75.3146 94.3975 79.7004C90.1696 81.8722 86.6684 84.9473 84.2039 88.6322Z" fill="white"/>
<path d="M84.0448 118.886C83.9415 119.045 83.8383 119.226 83.7337 119.407C83.6562 116.422 82.9824 113.46 81.7107 110.678C82.3601 109.119 83.163 107.582 84.1235 106.134C87.0024 101.815 91.3078 98.3551 96.4433 96.1629C96.9623 100.843 96.1839 105.569 94.2384 109.956C90.0104 112.126 86.5093 115.201 84.0448 118.886Z" fill="white"/>
<path d="M84.0448 133.966C83.9415 134.125 83.8383 134.305 83.7337 134.486C83.6562 131.5 82.9824 128.539 81.7107 125.758C82.3601 124.197 83.163 122.66 84.1235 121.213C87.0024 116.894 91.3078 113.434 96.4433 111.241C96.9623 115.921 96.1839 120.647 94.2384 125.034C90.0104 127.204 86.5093 130.279 84.0448 133.966Z" fill="white"/>
<path d="M84.0448 149.637C83.9415 149.795 83.8383 149.977 83.7337 150.157C83.6562 147.172 82.9824 144.21 81.7107 141.429C82.3601 139.869 83.163 138.331 84.1235 136.885C87.0024 132.565 91.3078 129.106 96.4433 126.912C96.9623 131.593 96.1839 136.318 94.2384 140.705C90.0104 142.876 86.5093 145.951 84.0448 149.637Z" fill="white"/>
<path d="M83.871 164.586C83.7664 164.743 83.6632 164.924 83.5586 165.105C83.4811 162.121 82.8073 159.158 81.5356 156.377C82.185 154.817 82.9893 153.28 83.9485 151.832C86.8274 147.513 91.1328 144.053 96.2683 141.861C96.7873 146.542 96.0346 151.267 94.0633 155.654C89.8367 157.824 86.3342 160.9 83.8968 164.586H83.871Z" fill="white"/>
<path d="M90.0949 72.8709C90.3544 72.8709 90.5609 72.6672 90.5609 72.4186V56.7485C90.5881 56.5231 90.3802 56.3193 90.1465 56.2962C89.887 56.2731 89.6534 56.4551 89.6275 56.6575V72.3955C89.6275 72.6223 89.8354 72.8261 90.0949 72.8478V72.8709Z" fill="white"/>
<path d="M94.1139 71.924C94.3734 71.924 94.5812 71.7216 94.5812 71.4717V62.021C94.6071 61.7942 94.3992 61.5905 94.1669 61.5687C93.9074 61.5456 93.6737 61.7263 93.6479 61.9531V71.4717C93.6479 71.6985 93.8544 71.9023 94.1139 71.924Z" fill="white"/>
<path d="M91.8016 120.239C91.9836 120.239 92.1385 120.15 92.2159 120.014L101.605 103.62C101.736 103.416 101.658 103.146 101.425 103.01C101.191 102.896 100.931 102.964 100.802 103.146L100.776 103.191L91.3614 119.583C91.2309 119.787 91.3084 120.059 91.5421 120.195C91.6195 120.239 91.6983 120.239 91.7758 120.239H91.8016Z" fill="white"/>
<path d="M91.9611 149.613C92.1418 149.613 92.298 149.523 92.3755 149.387L101.765 132.993C101.895 132.79 101.816 132.519 101.583 132.383C101.376 132.269 101.091 132.337 100.96 132.519L100.935 132.564L91.5196 148.957C91.4163 149.16 91.468 149.432 91.7016 149.568C91.7533 149.613 91.8565 149.613 91.9353 149.613H91.9611Z" fill="white"/>
<path d="M92.1336 135.052C92.3156 135.052 92.4705 134.962 92.5479 134.826L101.937 118.433C102.068 118.229 101.989 117.958 101.757 117.822C101.523 117.709 101.263 117.777 101.133 117.958L91.692 134.396C91.5887 134.6 91.6404 134.872 91.8741 135.006C91.9257 135.052 92.0303 135.052 92.1077 135.052H92.1336Z" fill="white"/>
<path d="M91.8016 104.05C91.9836 104.05 92.1385 103.961 92.2159 103.825L101.605 87.431C101.736 87.2273 101.658 86.957 101.425 86.8212C101.191 86.7071 100.931 86.775 100.802 86.957L100.776 87.0018L91.3614 103.396C91.2309 103.598 91.3084 103.87 91.5421 104.006C91.6195 104.051 91.6983 104.05 91.7758 104.05H91.8016Z" fill="white"/>
<path d="M80.3899 89.8978C79.7934 90.1464 79.0937 90.1233 78.4973 89.8299C78.1332 89.1291 77.7188 88.4282 77.2773 87.7722C75.1252 84.5382 72.0902 81.8027 68.4844 79.8129C66.202 75.404 65.2686 70.5646 65.7876 65.7482C70.5862 67.7829 74.5804 71.0169 77.2773 75.0414C81.0121 80.6944 82.6207 88.6768 80.3899 89.8978Z" fill="white"/>
<path d="M72.0889 72.031C72.3484 72.031 72.5563 71.8273 72.5305 71.6018V56.7236C72.5563 56.5199 72.3484 56.3161 72.1148 56.3161C71.8811 56.293 71.6487 56.475 71.6487 56.6774V71.6018C71.6487 71.8273 71.8295 72.0079 72.0889 72.031Z" fill="white"/>
<path d="M67.8049 71.1312C68.0644 71.1312 68.2709 70.9274 68.2451 70.7006V61.724C68.2709 61.4985 68.0644 61.3165 67.8307 61.3165C67.597 61.2948 67.3633 61.4754 67.3633 61.6791V70.7237C67.3633 70.9492 67.5454 71.1312 67.8049 71.1529V71.1312Z" fill="white"/>
<path d="M84.257 103.737C84.1537 103.894 84.0505 104.076 83.9459 104.257C83.8685 101.271 83.1946 98.3092 81.9229 95.5288C82.571 93.9682 83.3753 92.4307 84.3358 90.9841C87.2147 86.6649 91.5201 83.2055 96.6556 81.0119C97.1746 85.6924 96.3961 90.4178 94.4506 94.8049C90.2226 96.9754 86.7215 100.05 84.2842 103.737H84.257Z" fill="white"/>
<path d="M91.8016 89.6494C91.9836 89.6494 92.1385 89.5584 92.2159 89.424L101.605 73.03C101.736 72.8262 101.658 72.5546 101.425 72.4188C101.191 72.306 100.931 72.3739 100.802 72.5546L100.776 72.6007L91.3614 88.9934C91.2309 89.1971 91.3084 89.4688 91.5421 89.6046C91.6195 89.6494 91.6983 89.6494 91.7758 89.6494H91.8016Z" fill="white"/>
<path d="M70.3835 89.1998C70.461 89.1998 70.5398 89.1767 70.6172 89.1319C70.8509 88.996 70.9283 88.7475 70.7979 88.522L61.3828 72.128C61.2796 71.9242 61.02 71.8346 60.7864 71.9242C60.7864 71.9242 60.7606 71.9242 60.7347 71.9473C60.5011 72.0832 60.4236 72.3317 60.5541 72.5572L69.942 88.9512C70.0208 89.087 70.1757 89.1767 70.3577 89.1767L70.3835 89.1998Z" fill="white"/>
<path d="M80.5889 105.228C79.9924 105.476 79.2914 105.453 78.695 105.16C78.3322 104.459 77.9179 103.757 77.4763 103.102C75.3243 99.8682 72.2892 97.1544 68.6835 95.1429C66.401 90.7326 65.4676 85.8946 65.9866 81.0782C70.7852 83.1129 74.7795 86.3469 77.4763 90.3714C81.2111 96.0244 82.8197 104.007 80.5889 105.228Z" fill="white"/>
<path d="M70.2504 104.348C70.3292 104.348 70.4067 104.325 70.4841 104.28C70.7178 104.144 70.7952 103.896 70.6662 103.669L61.251 87.2762C61.1478 87.0724 60.8883 86.9814 60.6546 87.0724C60.6546 87.0724 60.6288 87.0724 60.603 87.0942C60.3693 87.23 60.2905 87.4786 60.4209 87.7054L69.8103 104.099C69.8877 104.234 70.0439 104.325 70.2246 104.325L70.2504 104.348Z" fill="white"/>
<path d="M80.4966 120.377C79.9002 120.626 79.1992 120.604 78.6027 120.309C78.24 119.609 77.8242 118.908 77.384 118.252C75.2307 115.019 72.1969 112.305 68.5912 110.292C66.3088 105.884 65.3754 101.046 65.893 96.2292C70.6916 98.2638 74.6859 101.498 77.384 105.522C81.1188 111.175 82.7261 119.156 80.4966 120.377Z" fill="white"/>
<path d="M70.1443 119.27C70.2231 119.27 70.3006 119.248 70.378 119.225C70.6117 119.089 70.6891 118.84 70.56 118.615L61.1449 102.221C61.0417 102.017 60.7822 101.928 60.5485 102.017C60.5485 102.017 60.5227 102.017 60.4969 102.04C60.2632 102.176 60.1858 102.425 60.3148 102.65L69.7041 119.044C69.7815 119.18 69.9378 119.27 70.1185 119.27H70.1443Z" fill="white"/>
<path d="M80.3899 135.278C79.7934 135.526 79.0937 135.503 78.4973 135.21C78.1332 134.509 77.7188 133.808 77.2773 133.152C75.1252 129.918 72.0902 127.206 68.4844 125.193C66.202 120.784 65.2686 115.944 65.7876 111.128C70.5862 113.163 74.5804 116.397 77.2773 120.421C81.0121 126.074 82.6207 134.057 80.3899 135.278Z" fill="white"/>
<path d="M70.2504 134.759C70.3292 134.759 70.4067 134.736 70.4841 134.715C70.7178 134.579 70.7952 134.33 70.6662 134.103L61.251 117.711C61.1478 117.507 60.8883 117.416 60.6546 117.507C60.6546 117.507 60.6288 117.507 60.603 117.529C60.3693 117.664 60.2905 117.913 60.4209 118.14L69.8103 134.534C69.8877 134.668 70.0439 134.759 70.2246 134.759H70.2504Z" fill="white"/>
<path d="M80.4966 150.793C79.9002 151.042 79.1992 151.019 78.6027 150.725C78.24 150.025 77.8242 149.324 77.384 148.668C75.2307 145.434 72.1969 142.72 68.5912 140.708C66.3088 136.3 65.3754 131.46 65.893 126.644C70.6916 128.678 74.6859 131.912 77.384 135.937C81.1188 141.59 82.7261 149.572 80.4966 150.793Z" fill="white"/>
<path d="M70.012 149.864C70.0894 149.864 70.1669 149.841 70.2457 149.819C70.4794 149.683 70.5568 149.435 70.4264 149.208L61.0113 132.814C60.908 132.611 60.6486 132.52 60.4149 132.611C60.4149 132.611 60.3891 132.611 60.3633 132.633C60.1296 132.769 60.0521 133.018 60.1812 133.244L69.5705 149.637C69.6493 149.773 69.8041 149.864 69.9862 149.864H70.012Z" fill="white"/>
<path d="M80.2071 165.828C80.0781 165.963 79.9477 166.098 79.8444 166.257C79.767 166.37 79.6882 166.483 79.6623 166.551C78.21 164.019 76.2903 161.69 74.0079 159.677C72.3218 158.185 70.4293 156.896 68.3547 155.833C66.0723 151.424 65.1375 146.585 65.6565 141.768C70.4293 143.826 74.4236 147.06 77.1476 151.063C77.6394 151.785 83.8387 161.101 80.2071 165.85V165.828Z" fill="white"/>
<path d="M79.5647 161.598L78.6313 199.789H82.4436L81.4844 161.598H79.5647Z" fill="white"/>
</svg>
