<svg width="199" height="100" viewBox="0 0 199 100" fill="none" xmlns="http://www.w3.org/2000/svg">
<g clip-path="url(#clip0_213_1596)">
<path fill-rule="evenodd" clip-rule="evenodd" d="M93.128 73.6945V65.8H95.6297C96.287 65.7679 96.932 65.9863 97.4347 66.4111C97.6587 66.6196 97.8348 66.8743 97.9507 67.1575C98.0666 67.4407 98.1196 67.7457 98.106 68.0515C98.1126 68.4839 97.9926 68.9087 97.7608 69.2738C97.5316 69.6233 97.1997 69.8932 96.8108 70.0465C96.2579 70.2294 95.6763 70.3099 95.0945 70.284H94.249V73.704L93.128 73.6945ZM95.4333 66.8006H94.2585V69.2833H95.4998C95.8802 69.3109 96.2576 69.1982 96.5607 68.9666C96.6917 68.8475 96.7938 68.6999 96.8591 68.5353C96.9244 68.3706 96.9512 68.1932 96.9375 68.0166C96.9375 67.2091 96.434 66.8038 95.4333 66.8038V66.8006ZM101.133 68.479C101.498 68.4668 101.861 68.5284 102.201 68.6601C102.541 68.7918 102.851 68.9909 103.112 69.2453C103.369 69.4952 103.572 69.7955 103.707 70.1274C103.842 70.4593 103.907 70.8156 103.898 71.1738C103.908 71.5265 103.841 71.8772 103.703 72.2018C103.564 72.5265 103.358 72.8174 103.097 73.0548C102.553 73.5586 101.833 73.8272 101.092 73.8021C100.732 73.8117 100.373 73.7498 100.036 73.6199C99.6999 73.49 99.3925 73.2947 99.132 73.0453C98.6311 72.5436 98.3499 71.8637 98.3499 71.1548C98.3499 70.4459 98.6311 69.766 99.132 69.2643C99.3975 69.0089 99.7112 68.8091 100.055 68.6764C100.398 68.5437 100.765 68.4809 101.133 68.4916V68.479ZM101.083 69.429C100.859 69.4191 100.635 69.4556 100.426 69.5363C100.216 69.6169 100.026 69.74 99.8667 69.8976C99.7094 70.0627 99.5866 70.2576 99.5056 70.4707C99.4245 70.6839 99.3869 70.9111 99.3948 71.139C99.3838 71.3634 99.4201 71.5877 99.5014 71.7972C99.5827 72.0066 99.7071 72.1967 99.8667 72.355C100.032 72.5129 100.228 72.6358 100.443 72.7164C100.657 72.7969 100.886 72.8334 101.114 72.8236C101.342 72.8344 101.57 72.7983 101.783 72.7177C101.997 72.6371 102.192 72.5137 102.356 72.355C102.607 72.1153 102.779 71.8043 102.848 71.464C102.917 71.1237 102.88 70.7705 102.741 70.4519C102.603 70.1333 102.371 69.8647 102.075 69.6824C101.78 69.5 101.436 69.4127 101.089 69.4321L101.083 69.429ZM111.419 68.517H112.533L110.244 73.8116H109.905L108.372 70.1826L106.849 73.8116H106.517L104.214 68.517H105.32L106.678 71.6836L108.002 68.517H108.771L110.082 71.6836L111.441 68.517H111.419ZM117.473 71.1833H113.8C113.806 71.6314 113.984 72.0601 114.297 72.3803C114.454 72.5352 114.641 72.6568 114.846 72.7379C115.051 72.8189 115.27 72.8578 115.491 72.8521C116.17 72.851 116.83 72.6287 117.372 72.2188V73.2258C117.079 73.4201 116.759 73.5705 116.422 73.6723C116.065 73.7697 115.696 73.8155 115.326 73.8085C114.831 73.8341 114.34 73.7093 113.917 73.4506C113.56 73.2098 113.27 72.8831 113.072 72.5006C112.849 72.0652 112.74 71.5804 112.755 71.0915C112.725 70.3841 112.966 69.6919 113.429 69.1566C113.648 68.9114 113.918 68.7174 114.22 68.5882C114.522 68.4591 114.849 68.398 115.177 68.4093C115.49 68.3966 115.802 68.4553 116.089 68.581C116.376 68.7066 116.631 68.8959 116.834 69.1345C117.267 69.6847 117.485 70.3734 117.448 71.0725V71.1991L117.473 71.1833ZM113.838 70.5721H116.482C116.476 70.222 116.346 69.8855 116.115 69.6221C115.998 69.5091 115.86 69.4213 115.708 69.3641C115.556 69.3069 115.394 69.2815 115.231 69.2896C114.897 69.2767 114.572 69.3962 114.326 69.6221C114.071 69.8799 113.907 70.2132 113.857 70.5721H113.838ZM119.687 68.5106V69.6886L119.744 69.5936C120.242 68.7935 120.739 68.3935 121.235 68.3935C121.701 68.4287 122.136 68.6378 122.454 68.9793L121.913 69.885C121.655 69.5965 121.298 69.4156 120.912 69.3783C120.741 69.3812 120.573 69.4256 120.423 69.5078C120.273 69.59 120.146 69.7075 120.051 69.8501C119.806 70.174 119.677 70.5714 119.687 70.9775V73.7166H118.658V68.4916L119.687 68.5106ZM124.411 65.8H131.014V66.8101H128.256V73.7166H127.122V66.8006H124.411V65.8ZM132.689 68.4853C133.054 68.4739 133.417 68.5358 133.757 68.6675C134.097 68.7991 134.407 68.9978 134.668 69.2516C134.925 69.5021 135.128 69.803 135.263 70.1354C135.398 70.4678 135.463 70.8246 135.454 71.1833C135.463 71.5353 135.397 71.8852 135.259 72.2092C135.122 72.5332 134.916 72.8238 134.656 73.0611C134.111 73.5648 133.389 73.8333 132.648 73.8085C132.288 73.8177 131.929 73.7556 131.592 73.6257C131.256 73.4958 130.949 73.3007 130.688 73.0516C130.44 72.8037 130.243 72.5093 130.108 72.1851C129.974 71.861 129.905 71.5136 129.905 71.1627C129.905 70.8118 129.974 70.4644 130.108 70.1403C130.243 69.8162 130.44 69.5217 130.688 69.2738C130.954 69.0216 131.267 68.8246 131.609 68.6942C131.952 68.5638 132.317 68.5024 132.683 68.5138L132.689 68.4853ZM132.638 69.4353C132.415 69.4262 132.191 69.4631 131.982 69.5437C131.773 69.6243 131.582 69.7469 131.422 69.904C131.265 70.0691 131.143 70.264 131.063 70.4772C130.982 70.6904 130.945 70.9176 130.954 71.1453C130.943 71.3694 130.979 71.5934 131.06 71.8028C131.14 72.0122 131.264 72.2024 131.422 72.3613C131.591 72.5207 131.79 72.6446 132.008 72.7256C132.226 72.8067 132.457 72.8432 132.689 72.8331C132.917 72.8421 133.145 72.805 133.358 72.7239C133.571 72.6428 133.766 72.5195 133.93 72.3613C134.181 72.1214 134.351 71.8107 134.419 71.471C134.488 71.1313 134.45 70.7788 134.313 70.461C134.175 70.1431 133.943 69.875 133.648 69.6928C133.353 69.5106 133.01 69.4229 132.664 69.4416L132.638 69.4353ZM139.972 65.8H144.46V66.8101H141.109V69.22H144.342V70.2333H141.109V72.7001H144.564V73.7103H139.972V65.8ZM149.9 69.9166V73.6755H148.871V70.7716C148.907 70.3555 148.826 69.9375 148.636 69.5651C148.543 69.4428 148.42 69.3465 148.278 69.2855C148.137 69.2245 147.982 69.2009 147.829 69.2168C147.621 69.2137 147.416 69.2674 147.237 69.372C147.004 69.5131 146.797 69.6918 146.622 69.9008V73.6596H145.593V68.4916H146.622V69.1725C146.812 68.9429 147.046 68.7539 147.311 68.6168C147.575 68.4797 147.865 68.3973 148.161 68.3745C148.481 68.3721 148.794 68.46 149.065 68.6281C149.336 68.7962 149.554 69.0376 149.694 69.3245C149.894 69.049 150.151 68.821 150.449 68.6568C150.747 68.4926 151.077 68.3962 151.417 68.3745C151.653 68.3686 151.888 68.4152 152.104 68.511C152.321 68.6069 152.513 68.7495 152.668 68.9286C153.023 69.4174 153.189 70.0179 153.136 70.6196V73.6945H152.107V70.5975C152.132 70.2446 152.039 69.8934 151.841 69.6C151.75 69.4854 151.633 69.3943 151.5 69.3342C151.367 69.2742 151.221 69.2469 151.075 69.2548C150.839 69.2677 150.609 69.334 150.402 69.4486C150.195 69.5633 150.017 69.7233 149.881 69.9166H149.9ZM154.501 76.3576V68.4916H156.303C157.081 68.445 157.849 68.69 158.456 69.1788C158.717 69.4254 158.922 69.726 159.055 70.0596C159.187 70.3932 159.246 70.7519 159.226 71.1105C159.24 71.4628 159.183 71.8144 159.059 72.1445C158.935 72.4746 158.746 72.7766 158.504 73.0326C158.266 73.2803 157.979 73.4753 157.661 73.6051C157.343 73.735 157.001 73.7967 156.658 73.7863C156.279 73.7777 155.906 73.7038 155.552 73.5678V76.3576H154.501ZM156.281 69.4511H155.552V72.6495C155.859 72.8077 156.199 72.8902 156.544 72.8901C156.765 72.897 156.985 72.8555 157.188 72.7686C157.392 72.6816 157.574 72.5512 157.722 72.3866C157.975 72.0864 158.135 71.7182 158.18 71.328C158.226 70.9377 158.156 70.5427 157.978 70.1921C157.843 69.9477 157.636 69.7501 157.386 69.6253C157.037 69.4897 156.664 69.4283 156.29 69.4448L156.281 69.4511ZM162.858 68.479C163.222 68.467 163.584 68.5287 163.923 68.6604C164.262 68.7921 164.571 68.991 164.831 69.2453C165.09 69.4939 165.293 69.794 165.429 70.1261C165.565 70.4582 165.63 70.8151 165.619 71.1738C165.631 71.5264 165.565 71.8773 165.427 72.202C165.289 72.5268 165.083 72.8178 164.821 73.0548C164.278 73.5586 163.557 73.8272 162.817 73.8021C162.456 73.8117 162.097 73.7498 161.761 73.6199C161.425 73.49 161.117 73.2947 160.857 73.0453C160.608 72.7971 160.411 72.5024 160.277 72.178C160.142 71.8536 160.073 71.5059 160.073 71.1548C160.073 70.8037 160.142 70.456 160.277 70.1316C160.411 69.8072 160.608 69.5125 160.857 69.2643C161.121 69.0112 161.434 68.8134 161.776 68.6824C162.118 68.5513 162.482 68.4897 162.848 68.5011L162.858 68.479ZM162.807 69.429C162.583 69.4181 162.359 69.4542 162.15 69.5349C161.94 69.6156 161.75 69.7392 161.591 69.8976C161.433 70.0619 161.309 70.2566 161.228 70.4699C161.147 70.6833 161.11 70.9109 161.119 71.139C161.109 71.3634 161.145 71.5876 161.226 71.797C161.308 72.0065 161.432 72.1966 161.591 72.355C161.758 72.5123 161.954 72.6349 162.168 72.7154C162.382 72.7958 162.61 72.8327 162.839 72.8236C163.067 72.8335 163.295 72.7971 163.509 72.7165C163.723 72.636 163.918 72.513 164.083 72.355C164.241 72.1933 164.364 72.0013 164.445 71.7907C164.526 71.58 164.564 71.3551 164.555 71.1295C164.562 70.9003 164.52 70.6724 164.432 70.4607C164.344 70.2489 164.212 70.0581 164.045 69.9008C163.876 69.742 163.677 69.6187 163.46 69.5382C163.242 69.4577 163.011 69.4216 162.779 69.4321L162.807 69.429ZM173.143 68.517H174.245L171.93 73.7958H171.592L170.053 70.17L168.533 73.7958H168.191L165.888 68.5011H167L168.355 71.6678L169.682 68.5011H170.448L171.763 71.6678L173.121 68.5011L173.143 68.517ZM179.176 71.1833H175.512C175.517 71.6321 175.697 72.0612 176.012 72.3803C176.169 72.5354 176.355 72.6572 176.559 72.7383C176.764 72.8194 176.983 72.8581 177.203 72.8521C177.881 72.851 178.54 72.6286 179.081 72.2188V73.2258C178.788 73.4213 178.468 73.5719 178.131 73.6723C177.775 73.7697 177.407 73.8156 177.038 73.8085C176.543 73.8349 176.052 73.7101 175.629 73.4506C175.27 73.2101 174.978 72.8835 174.777 72.5006C174.556 72.0647 174.447 71.5802 174.461 71.0915C174.432 70.3849 174.672 69.6938 175.132 69.1566C175.352 68.9113 175.623 68.7172 175.926 68.5881C176.229 68.4589 176.557 68.3979 176.886 68.4093C177.199 68.3966 177.51 68.4554 177.797 68.581C178.083 68.7067 178.337 68.8959 178.539 69.1345C178.974 69.684 179.192 70.3732 179.154 71.0725V71.1991L179.176 71.1833ZM175.55 70.569H178.172C178.164 70.2191 178.034 69.883 177.805 69.619C177.688 69.5067 177.549 69.4194 177.397 69.3622C177.245 69.3051 177.083 69.2793 176.921 69.2865C176.585 69.2745 176.258 69.3938 176.009 69.619C175.757 69.8784 175.593 70.2109 175.54 70.569H175.55ZM181.399 68.5075V69.6855L181.459 69.5905C181.959 68.7904 182.458 68.3903 182.954 68.3903C183.418 68.4275 183.851 68.6364 184.17 68.9761L183.625 69.8818C183.369 69.5935 183.014 69.4125 182.631 69.3751C182.459 69.3778 182.291 69.4221 182.14 69.5043C181.99 69.5865 181.861 69.7041 181.766 69.847C181.521 70.1712 181.392 70.5681 181.399 70.9743V73.7166H180.37V68.4916L181.399 68.5075Z" fill="#4D4E4B"/>
<path fill-rule="evenodd" clip-rule="evenodd" d="M65.8155 70.9269L63.64 74.6857C59.5962 81.361 52.9525 88.676 45.7864 92.0675C45.039 92.4222 44.4912 92.685 43.7439 92.9859C43.0161 93.2432 42.3026 93.5392 41.6064 93.8725C56.2965 90.8705 67.1772 84.306 76.2592 73.3304C83.7769 64.2262 91.5447 49.4474 90.4522 32.7305C89.4009 16.742 80.3189 4.6517 66.8415 1.26653C52.4205 -2.36247 41.5367 4.11653 33.7024 14.5159C33.1387 15.26 31.397 17.8029 31.15 18.5977C41.7584 13.2872 54.444 10.9344 65.1379 18.7022C74.4447 25.4662 77.2504 39.0734 74.8247 50.9452C73.4155 57.8359 70.6542 63.0894 67.1804 68.84C66.6946 69.5123 66.2432 70.2088 65.8282 70.9269H65.8155Z" fill="#E15A11"/>
<path fill-rule="evenodd" clip-rule="evenodd" d="M28.6167 93.2676C27.6223 93.977 23.7527 92.7578 22.752 92.5836C24.652 93.9485 28.6578 95.041 31.5363 95.2025C35.9348 95.4527 37.8697 94.6863 41.6063 93.9042C42.306 93.5758 43.0227 93.2851 43.7533 93.0333C44.5007 92.7325 45.0485 92.4697 45.7958 92.1181C52.9715 88.7171 59.6152 81.399 63.6495 74.7332L65.825 70.9743C66.0688 70.2238 66.6325 69.1978 66.9808 68.3903C69.8657 61.7403 71.9842 54.2132 71.335 46.8127C70.9455 42.3793 69.853 38.4305 67.934 35.1973C61.664 24.589 48.4527 20.6623 37.0812 25.6973C30.8713 28.4302 26.9478 32.8952 23.702 38.4748C23.2333 39.2222 22.9167 40.1183 22.4987 40.7833C22.9958 40.6978 24.462 39.7795 25.1397 39.4597C28.0821 38 31.2216 36.977 34.4592 36.4228C43.3575 34.963 52.7308 37.832 57.2877 45.4953C59.4252 49.099 60.0332 54.2638 59.5043 59.1817C58.5543 67.9438 54.1717 77.0828 49.8777 82.2603C48.6578 83.7635 47.3307 85.1764 45.9067 86.4878C44.4736 87.7688 42.9367 88.9286 41.3118 89.9553C38.2497 91.8363 32.0778 94.1828 28.6452 93.2455L28.6167 93.2676Z" fill="#069139"/>
<path fill-rule="evenodd" clip-rule="evenodd" d="M22.7425 92.5837C23.7432 92.7579 27.616 93.9961 28.6072 93.2677C27.8698 93.0796 27.1893 92.7146 26.6248 92.2042C26.0603 91.6938 25.6288 91.0534 25.3677 90.3386C23.569 86.1491 25.0922 78.4857 26.1119 74.3406C26.9289 71.0251 27.8219 67.9439 28.8542 64.7487L31.9892 55.6002L19.6392 55.6287C18.8824 56.8067 17.2294 63.2826 16.7892 65.1477C14.6834 73.7167 12.4445 88.5304 22.7425 92.5837Z" fill="#05559C"/>
<path fill-rule="evenodd" clip-rule="evenodd" d="M19.2528 47.4492L20.168 48.4467C20.8363 47.766 21.604 47.1905 22.4448 46.7399C23.7006 46.0996 25.111 45.8251 26.5153 45.9477C27.9195 46.0703 29.261 46.5851 30.3868 47.4334C30.8903 47.7975 31.0486 48.0984 31.5331 48.3834L32.4831 47.4334C32.0113 46.724 30.7953 45.85 29.8073 45.3655C28.5903 44.7733 27.2546 44.4656 25.9012 44.4656C24.5478 44.4656 23.2121 44.7733 21.9951 45.3655C21.1211 45.7645 19.7088 46.7747 19.2908 47.446L19.2528 47.4492Z" fill="#05559C"/>
<path fill-rule="evenodd" clip-rule="evenodd" d="M20.8647 49.1813L21.8147 50.2358C22.7647 49.7291 24.7375 47.4491 28.091 49.0008C28.7397 49.2689 29.3142 49.6893 29.7662 50.2263L30.8524 49.0166C29.516 48.0666 28.3887 46.9108 25.811 46.9298C24.8731 46.9312 23.9465 47.1344 23.0941 47.5256C22.2418 47.9168 21.4835 48.4869 20.871 49.1971L20.8647 49.1813Z" fill="#05559C"/>
<path fill-rule="evenodd" clip-rule="evenodd" d="M22.638 50.9737L23.6481 51.7749C23.7558 51.702 23.8191 51.645 23.9078 51.5849C24.451 51.1759 25.1062 50.9428 25.7856 50.9167C27.1948 50.885 27.483 51.493 28.376 51.9395L29.0568 50.9895C27.6096 49.194 24.0281 49.0389 22.6285 50.9895L22.638 50.9737Z" fill="#05559C"/>
<path fill-rule="evenodd" clip-rule="evenodd" d="M24.2087 52.5982L26.0073 54.4L27.4925 52.6805C26.3272 51.5817 25.4627 51.6767 24.2023 52.6013L24.2087 52.5982Z" fill="#05559C"/>
<path fill-rule="evenodd" clip-rule="evenodd" d="M98.5208 49.65C105.028 49.0167 102.903 56.0594 100.038 57.6395C98.7045 58.3647 97.327 58.1589 95.655 58.1684L98.5208 49.6659V49.65ZM92.52 60.2837C94.5593 60.347 98.942 60.5624 100.535 59.8847C105.177 57.9277 106.517 51.2017 104.192 48.7C102.669 47.0565 98.9768 47.5062 96.7412 47.4777L92.5105 60.2995L92.52 60.2837Z" fill="#4D4E4B"/>
<path fill-rule="evenodd" clip-rule="evenodd" d="M111.362 61.2431C112.993 60.7491 114.959 62.4844 112.673 62.9341C110.538 63.3521 108.866 61.9999 111.362 61.2431ZM113.955 53.5798C115.881 52.9464 115.155 55.9801 114.114 56.4298C113.072 56.8794 112.559 56.3316 112.765 55.2454C112.936 54.3556 113.236 53.8141 113.955 53.5798ZM111.469 57.4938C110.656 57.7059 110.108 57.9624 109.829 58.6211C109.649 58.9615 109.605 59.3577 109.706 59.7294C109.807 60.1011 110.046 60.4204 110.374 60.6224C108.233 61.4268 107.555 62.9056 108.534 63.8873C110.082 65.4516 116.989 64.7676 115.817 60.7206C115.276 58.8206 112.429 59.5838 111.935 58.6211C112.407 57.5318 113.487 58.8554 115.76 57.3544C116.789 56.6768 117.264 55.4228 117.264 53.6589H118.484L119.003 51.8286C116.109 51.4581 111.897 51.4106 110.858 54.5298C110.665 55.0861 110.621 55.6834 110.732 56.2619C110.766 56.4913 110.857 56.7087 110.994 56.8953L111.466 57.5286L111.469 57.4938Z" fill="#4D4E4B"/>
<path fill-rule="evenodd" clip-rule="evenodd" d="M166.094 58.3077C162.583 59.074 163.21 53.6843 167.608 53.8743C167.402 54.7167 166.474 57.7757 166.094 58.3077ZM168.378 51.6577C165.16 51.8667 162.586 52.3258 161.636 56.0752C160.518 60.5085 164.41 60.7745 167.823 60.1918L172.016 47.4745H169.755L168.378 51.664V51.6577Z" fill="#4D4E4B"/>
<path fill-rule="evenodd" clip-rule="evenodd" d="M135.093 53.7667C134.814 54.8718 134.377 55.9833 134.025 57.1075C133.763 57.9403 133.737 57.9847 133.015 58.3013C130.403 59.4477 131.008 56.4552 132.037 55.1188C132.727 54.2227 133.411 53.6337 135.093 53.7667ZM133.044 59.6535C133.078 59.7222 133.095 59.7984 133.091 59.8752C133.091 59.9638 133.063 60.138 133.056 60.3217H135.184L138.006 51.892C136.02 51.6007 134.523 51.4233 132.695 52.1232C127.372 54.1467 127.48 63.2635 133.028 59.663L133.044 59.6535Z" fill="#4D4E4B"/>
<path fill-rule="evenodd" clip-rule="evenodd" d="M181.218 53.7666C180.994 54.818 180.487 56.053 180.157 57.1138C179.651 58.7605 177.941 58.7256 177.564 58.3171C176.794 57.4558 177.748 53.5291 181.218 53.7666ZM179.169 59.6566L179.195 60.3248H181.304L184.122 51.9426C180.414 50.8913 177.136 52.4113 175.813 54.7008C173.932 57.9593 175.157 62.3768 179.157 59.6661L179.169 59.6566Z" fill="#4D4E4B"/>
<path fill-rule="evenodd" clip-rule="evenodd" d="M151.423 60.29H153.659L155.112 55.9833C155.172 55.7996 155.22 55.6476 155.261 55.5115C155.473 54.799 155.407 54.7673 156.148 54.2258C158.146 52.7786 158.44 53.6716 157.994 55.1758L156.426 60.3438H158.535L160.391 54.8845C160.445 54.7207 160.487 54.5536 160.518 54.3841C160.777 53.184 160.651 51.9268 159.495 51.6988C158.174 51.4391 157.104 52.1675 156.249 52.6488L156.468 51.8286L154.251 51.7843L151.433 60.3185L151.423 60.29Z" fill="#4D4E4B"/>
<path fill-rule="evenodd" clip-rule="evenodd" d="M125.238 51.7495H123.699L123.012 53.6273H124.507C124.253 54.9953 120.165 62.3198 127.021 59.929L127.442 57.7345C127.024 57.9272 126.584 58.0676 126.131 58.1525C124.63 58.0258 126.495 54.4791 126.78 53.6653L128.516 53.6305L129.124 51.7526H127.518L128.132 49.992L125.849 49.9445L125.238 51.7336V51.7495Z" fill="#4D4E4B"/>
<path fill-rule="evenodd" clip-rule="evenodd" d="M146.604 60.2646L148.979 60.309L153.279 47.4776L150.85 47.4713L146.604 60.2646Z" fill="#4D4E4B"/>
<path fill-rule="evenodd" clip-rule="evenodd" d="M137.35 60.271L139.573 60.3121L143.848 47.4713H141.584L137.35 60.271Z" fill="#4D4E4B"/>
<path fill-rule="evenodd" clip-rule="evenodd" d="M104.962 60.3786H107.232L109.953 51.7336H107.682L104.962 60.3786ZM109.934 48.2186C110.567 48.2186 110.928 48.8108 110.763 49.5391C110.698 49.8798 110.526 50.191 110.273 50.4282C110.02 50.6654 109.698 50.8164 109.354 50.8596C108.721 50.8596 108.353 50.2675 108.518 49.5391C108.586 49.1952 108.761 48.8817 109.019 48.6443C109.277 48.4069 109.604 48.2578 109.953 48.2186H109.934Z" fill="#4D4E4B"/>
<path fill-rule="evenodd" clip-rule="evenodd" d="M117.458 60.3786H119.728L122.448 51.7336H120.181L117.458 60.3786ZM122.429 48.2186C123.063 48.2186 123.43 48.8108 123.262 49.5391C123.197 49.8798 123.025 50.191 122.772 50.4282C122.519 50.6654 122.197 50.8164 121.853 50.8596C121.22 50.8596 120.852 50.2675 121.017 49.5391C121.084 49.1991 121.256 48.8887 121.509 48.6517C121.761 48.4147 122.082 48.2632 122.426 48.2186H122.429Z" fill="#4D4E4B"/>
<path fill-rule="evenodd" clip-rule="evenodd" d="M169.733 60.3786H172L174.72 51.7336H172.453L169.733 60.3786ZM174.701 48.2186C175.335 48.2186 175.699 48.8108 175.534 49.5391C175.467 49.8833 175.291 50.197 175.033 50.4345C174.775 50.672 174.448 50.821 174.1 50.8596C173.466 50.8596 173.105 50.2675 173.27 49.5391C173.338 49.1956 173.513 48.8826 173.77 48.6452C174.027 48.4078 174.354 48.2584 174.701 48.2186Z" fill="#4D4E4B"/>
<path fill-rule="evenodd" clip-rule="evenodd" d="M183.178 61.6422H117.378V62.5035H183.178V61.6422Z" fill="#4D4E4B"/>
<path fill-rule="evenodd" clip-rule="evenodd" d="M105.503 61.6422H92.0703V62.5035H105.503V61.6422Z" fill="#4D4E4B"/>
</g>
<defs>
<clipPath id="clip0_213_1596">
<rect width="169.154" height="95" fill="white" transform="translate(15 0.25)"/>
</clipPath>
</defs>
</svg>
