<svg width="36" height="37" viewBox="0 0 36 37" fill="none" xmlns="http://www.w3.org/2000/svg">
<path d="M18 28.957H6M30 7.95703H25.5M30 28.957H24M19.5 7.95703H6M10.5 18.457H6M30 18.457H16.5" stroke="black" stroke-linecap="round"/>
<path d="M24 28.957C24 27.3002 22.6569 25.957 21 25.957C19.3431 25.957 18 27.3002 18 28.957C18 30.6139 19.3431 31.957 21 31.957C22.6569 31.957 24 30.6139 24 28.957Z" stroke="black" stroke-linecap="round"/>
<path d="M16.5 18.457C16.5 16.8002 15.1569 15.457 13.5 15.457C11.8431 15.457 10.5 16.8002 10.5 18.457C10.5 20.1139 11.8431 21.457 13.5 21.457C15.1569 21.457 16.5 20.1139 16.5 18.457Z" stroke="black" stroke-linecap="round"/>
<path d="M25.5 7.95703C25.5 6.30018 24.1569 4.95703 22.5 4.95703C20.8431 4.95703 19.5 6.30018 19.5 7.95703C19.5 9.61389 20.8431 10.957 22.5 10.957C24.1569 10.957 25.5 9.61389 25.5 7.95703Z" stroke="black" stroke-linecap="round"/>
</svg>
