<svg width="26" height="20" viewBox="0 0 26 20" fill="none" xmlns="http://www.w3.org/2000/svg">
<path d="M25 3.21782H22.3333M25 9.87129H18.3333M25 16.5248H18.3333M6.33333 18.7426V11.6025C6.33333 11.3719 6.33333 11.2565 6.30611 11.1462C6.28196 11.0484 6.24201 10.9537 6.18736 10.8646C6.12575 10.7644 6.03912 10.6744 5.86585 10.4942L1.46748 5.92163C1.29421 5.74151 1.20759 5.65145 1.14597 5.55116C1.09132 5.46218 1.05137 5.36747 1.02723 5.26959C1 5.15928 1 5.04394 1 4.81327V2.77426C1 2.15321 1 1.84268 1.14532 1.60548C1.27316 1.39682 1.47713 1.22718 1.72801 1.12086C2.01323 1 2.3866 1 3.13333 1H14.8667C15.6135 1 15.9868 1 16.272 1.12086C16.5229 1.22718 16.7268 1.39682 16.8547 1.60548C17 1.84268 17 2.15321 17 2.77426V4.81327C17 5.04394 17 5.15928 16.9728 5.26959C16.9487 5.36747 16.9087 5.46218 16.854 5.55116C16.7924 5.65145 16.7057 5.74151 16.5325 5.92163L12.1341 10.4942C11.9609 10.6744 11.8743 10.7644 11.8127 10.8646C11.758 10.9537 11.718 11.0484 11.6939 11.1462C11.6667 11.2565 11.6667 11.3719 11.6667 11.6025V15.4158L6.33333 18.7426Z" stroke="black" stroke-width="2" stroke-linecap="round" stroke-linejoin="round"/>
</svg>
