<svg width="240" height="150" viewBox="0 0 240 150" fill="none" xmlns="http://www.w3.org/2000/svg">
<rect width="240" height="150" fill="url(#paint0_linear_19_61577)"/>
<path d="M155.807 51.9697C154.468 51.9697 153.12 52.5388 153.12 52.5388C150.362 54.1021 145.01 57.4196 142.051 56.9263C138.199 56.2855 129.33 56.2138 121.863 57.8415C121.385 57.5246 120.905 57.1988 120.432 56.9078C118.988 56.0242 117.573 55.2765 116.167 54.7131C114.804 54.1698 113.446 53.7962 112.027 53.7226V53.7151C109.891 53.5384 107.82 53.4648 105.922 53.4648C103.048 53.4702 100.598 53.6321 98.7783 53.9288V53.927L98.7487 53.9288C98.606 53.9417 97.8935 53.822 97.0502 53.5128C95.7633 53.0598 94.1191 52.2681 92.6018 51.4616C91.0737 50.6513 89.6745 49.8451 88.6636 49.2999C88.1693 49.033 87.6213 48.9097 87.0598 48.9428C78.5923 49.3993 71.8228 52.7026 67.2098 57.0974C62.6062 61.5071 60.0305 66.9425 60 72.0683C60 73.6316 60.2531 75.1689 60.813 76.6124C61.3343 77.9584 62.1434 79.2085 63.2055 80.2543C63.3961 80.4974 63.5702 80.6888 63.757 80.8838C64.2082 81.3423 64.7456 81.8303 65.3791 82.4085C67.2588 84.1117 69.9591 86.5513 71.7127 88.7535C73.4527 90.9278 74.5739 92.9108 75.5039 94.6782C75.9698 95.5583 76.3849 96.3906 76.826 97.1842C77.01 97.5139 77.2043 97.8343 77.4077 98.1545L77.0967 98.4639C75.993 99.5427 75.3762 100.986 75.3586 102.531C75.3429 104.072 75.9267 105.534 77.0074 106.639C78.1048 107.758 79.5722 108.377 81.1399 108.377C82.2391 108.377 83.2896 108.06 84.2046 107.482C83.5924 108.402 83.2526 109.478 83.2399 110.608C83.2233 112.147 83.8099 113.608 84.8888 114.71C85.9842 115.834 87.4535 116.448 89.0212 116.448C90.2548 116.448 91.4222 116.047 92.4063 115.329C90.6148 117.577 90.7134 120.854 92.772 122.963C93.8684 124.082 95.3341 124.697 96.9007 124.697H96.9026C98.4223 124.697 99.8597 124.112 100.953 123.04L102.022 121.979C101.574 122.801 101.307 123.71 101.296 124.668C101.281 126.212 101.864 127.671 102.945 128.773C104.042 129.893 105.509 130.512 107.078 130.512C108.596 130.512 110.033 129.926 111.136 128.849L111.808 128.168C112.138 128.438 112.441 128.685 112.687 128.88L113.169 129.247C113.331 129.359 113.424 129.44 113.728 129.617C114.951 130.287 116.12 130.578 117.05 130.78C117.514 130.878 117.911 130.944 118.205 130.985L118.564 131.031L118.675 131.042L118.719 131.045L118.745 131.051L118.774 131.053L118.812 131.055C118.847 131.055 118.831 131.06 119.016 131.064L119.235 131.055C121.271 130.906 123.199 130.206 124.782 128.996C125.411 128.514 125.963 127.93 126.456 127.293C127.43 127.61 128.463 127.798 129.538 127.798C133.946 127.794 137.653 124.959 139.035 121.022C139.72 121.169 140.42 121.267 141.145 121.267C145.476 121.262 149.14 118.529 150.58 114.703L150.939 114.736C156.525 114.736 161.045 110.212 161.047 104.63C161.051 103.081 160.835 101.365 160.244 99.583C164.08 96.1951 169.695 90.9643 170.71 88.1235C171.201 86.7573 172.378 83.675 173.177 82.5573C174.385 81.2373 177.548 78.2619 177.548 78.2619C184.625 71.6891 176.082 53.0856 155.807 51.9697ZM150.939 108.671C150.388 108.671 149.871 108.561 149.389 108.362C149.239 108.296 149.081 108.27 148.926 108.23L144.627 103.115C143.679 102.017 142.018 101.894 140.921 102.844C139.82 103.794 139.698 105.453 140.647 106.554L145.115 111.864C144.778 113.755 143.136 115.199 141.146 115.201C140.126 115.199 139.22 114.832 138.494 114.201C138.356 114.079 138.19 114.008 138.035 113.912L134.109 109.232C133.161 108.13 131.5 108.009 130.401 108.959C129.302 109.911 129.181 111.566 130.13 112.669L133.506 116.718C133.515 116.817 133.495 116.917 133.512 117.016C133.557 117.261 133.578 117.484 133.578 117.688C133.575 119.921 131.767 121.726 129.538 121.73C128.838 121.73 128.197 121.553 127.626 121.245L122.67 116.13C121.612 115.134 119.947 115.186 118.953 116.239C117.958 117.3 118.009 118.962 119.065 119.958L121.945 123.116C121.74 123.515 121.479 123.878 121.093 124.178C120.558 124.591 119.822 124.871 118.985 124.967C118.74 124.93 118.409 124.874 118.013 124.779C117.531 124.672 117.027 124.491 116.754 124.352C116.679 124.296 116.489 124.149 116.213 123.93C115.992 123.755 115.716 123.527 115.416 123.283C115.845 121.424 115.362 119.391 113.931 117.933C112.836 116.81 111.366 116.195 109.799 116.195C109.016 116.195 108.259 116.352 107.556 116.652L107.449 116.562C108.446 115.499 109.017 114.137 109.034 112.671C109.049 111.126 108.464 109.668 107.383 108.565C106.287 107.447 104.818 106.827 103.251 106.827C102.025 106.827 100.863 107.225 99.8836 107.935C100.676 106.934 101.137 105.722 101.15 104.426C101.168 102.883 100.582 101.425 99.5027 100.322C98.4061 99.1988 96.9377 98.5822 95.3693 98.5822C93.8501 98.5822 92.4141 99.1677 91.3214 100.239L90.3464 101.207C91.5487 99.0294 91.2708 96.2401 89.4452 94.3749C88.3479 93.2537 86.8795 92.6368 85.3109 92.6368C84.0607 92.6368 82.8806 93.0512 81.8862 93.7895C80.835 91.8249 79.3352 88.5622 76.4491 84.9627C74.748 82.8399 72.672 80.8642 70.9448 79.2732C70.0833 78.4799 69.3082 77.7875 68.7401 77.2609C68.4574 76.9974 68.2263 76.7748 68.0801 76.6311L67.9402 76.4802L67.9383 76.4783L67.9317 76.4839L67.5506 76.0381C67.0767 75.5963 66.7237 75.0716 66.469 74.4181C66.2149 73.7645 66.0668 72.9763 66.0668 72.0688C66.0382 69.0859 67.7864 64.8955 71.3916 61.4947C74.8467 58.2153 79.9181 55.6269 86.5852 55.0817C87.8208 55.7666 89.5891 56.7721 91.4653 57.6943C92.6299 58.2669 93.8313 58.8085 95.0264 59.2318C96.2323 59.6478 97.395 59.983 98.7492 59.9978C99.0834 59.9978 99.3973 59.9701 99.6855 59.9279L99.7305 59.9204C101.015 59.7013 103.288 59.5302 105.923 59.5337C107.665 59.5302 109.576 59.6 111.527 59.762L111.666 59.7692C112.145 59.7824 112.945 59.9535 113.916 60.3456L114.136 60.4468C105.952 64.1438 94.3526 71.2527 90.5412 72.5251C86.1886 73.9761 85.8239 79.7832 95.6173 80.8693C105.413 81.9594 114.119 75.7876 116.295 74.705C117.857 73.9227 127.78 74.878 133.277 75.4785C135.701 77.8719 137.826 80.0924 139.374 81.7714L151.447 96.5307L151.5 96.5914C153.049 98.383 153.889 99.8375 154.362 101.084C154.833 102.33 154.977 103.406 154.98 104.63C154.976 106.862 153.172 108.668 150.939 108.671Z" fill="url(#paint1_linear_19_61577)"/>
<defs>
<linearGradient id="paint0_linear_19_61577" x1="120" y1="0" x2="120" y2="150" gradientUnits="userSpaceOnUse">
<stop stop-color="white"/>
<stop offset="1" stop-color="#DBEFBC" stop-opacity="0.5"/>
</linearGradient>
<linearGradient id="paint1_linear_19_61577" x1="174.5" y1="118.5" x2="58.5" y2="69" gradientUnits="userSpaceOnUse">
<stop offset="0.0895682" stop-color="#1A5C4B"/>
<stop offset="1" stop-color="#85BC31"/>
</linearGradient>
</defs>
</svg>
