<svg width="26" height="26" viewBox="0 0 26 26" fill="none" xmlns="http://www.w3.org/2000/svg">
<path d="M25.4922 20.9053H24.9802V8.01998C24.9802 6.69043 23.8985 5.60879 22.569 5.60879H22.4308V2.90423C22.4308 1.30284 21.1279 0 19.5265 0H6.47344C4.87205 0 3.56921 1.30284 3.56921 2.90423V5.60874H3.43098C2.10143 5.60874 1.01974 6.69043 1.01974 8.01993V20.9053H0.507812C0.227348 20.9053 0 21.1327 0 21.4131C0 23.9423 2.05771 26 4.58692 26H21.4131C23.9423 26 26 23.9423 26 21.4131C26 21.1327 25.7727 20.9053 25.4922 20.9053ZM22.4308 6.62436H22.569C23.3386 6.62436 23.9646 7.25039 23.9646 8.01993V8.15811H22.4308V6.62436ZM4.58484 2.90423C4.58484 1.86286 5.43207 1.01562 6.47344 1.01562H19.5265C20.5679 1.01562 21.4152 1.86286 21.4152 2.90423V16.4672C21.4152 17.5086 20.5679 18.3558 19.5265 18.3558H6.47344C5.43202 18.3558 4.58478 17.5086 4.58478 16.4672L4.58484 2.90423ZM2.03541 8.01998C2.03541 7.25045 2.6615 6.62441 3.43104 6.62441H3.56926V8.15816H2.03541V8.01998ZM2.03541 9.17373H3.56921V16.4672C3.56921 18.0686 4.87205 19.3714 6.47349 19.3714H19.5266C21.128 19.3714 22.4308 18.0686 22.4308 16.4672V9.17373H23.9646V20.9053H16.3142C16.0338 20.9053 15.8064 21.1327 15.8064 21.4131V22.4349H10.1936V21.4131C10.1936 21.1327 9.96623 20.9053 9.68576 20.9053H2.03541V9.17373ZM21.4131 24.9844H4.58692C2.79007 24.9844 1.29888 23.6505 1.05163 21.9209H9.17795V22.9428C9.17795 23.2232 9.4053 23.4506 9.68576 23.4506H16.3142C16.5947 23.4506 16.8221 23.2232 16.8221 22.9428V21.9209H24.9484C24.7011 23.6505 23.21 24.9844 21.4131 24.9844Z" fill="#0E0E0E"/>
<path d="M8.72607 13.2925H17.2921C17.5165 13.2925 17.6984 13.1106 17.6984 12.8862C17.6984 12.6619 17.5165 12.48 17.2921 12.48H8.72607C8.5017 12.48 8.31982 12.6619 8.31982 12.8862C8.31982 13.1106 8.5017 13.2925 8.72607 13.2925Z" fill="#0E0E0E"/>
<path d="M14.846 14.5194H11.1748C10.9504 14.5194 10.7686 14.7013 10.7686 14.9256C10.7686 15.15 10.9504 15.3319 11.1748 15.3319H14.846C15.0703 15.3319 15.2522 15.15 15.2522 14.9256C15.2522 14.7013 15.0703 14.5194 14.846 14.5194Z" fill="#0E0E0E"/>
<path d="M13.2333 10.867C15.369 10.867 17.1068 9.12893 17.1068 6.99347C17.1068 4.85766 15.3692 3.12 13.2333 3.12C11.0975 3.12 9.35986 4.85762 9.35986 6.99347C9.35986 9.12954 11.0982 10.867 13.2333 10.867ZM14.6627 9.6991C13.7868 10.1638 12.715 10.1823 11.804 9.6991V9.44093C11.804 8.6528 12.4452 8.01158 13.2334 8.01158C14.0233 8.01158 14.6627 8.65081 14.6627 9.44093V9.6991H14.6627ZM12.4158 6.38166C12.4158 5.93089 12.7826 5.56417 13.2333 5.56417C13.6841 5.56417 14.0508 5.93089 14.0508 6.38166C14.0508 6.83244 13.6841 7.19912 13.2333 7.19912C12.7826 7.19912 12.4158 6.83244 12.4158 6.38166ZM13.2333 3.93254C14.9211 3.93254 16.2943 5.30571 16.2943 6.99351C16.2943 7.80996 15.9724 8.55209 15.4496 9.10151C15.3475 8.4253 14.9456 7.85785 14.3954 7.52314C14.6845 7.22886 14.8633 6.82582 14.8633 6.38166C14.8633 5.48287 14.1321 4.75167 13.2333 4.75167C12.3345 4.75167 11.6033 5.48287 11.6033 6.38166C11.6033 6.82622 11.7825 7.22959 12.072 7.52396C11.5167 7.86163 11.119 8.43363 11.0172 9.10163C10.4943 8.55226 10.1724 7.81 10.1724 6.99347C10.1724 5.30571 11.5455 3.93254 13.2333 3.93254Z" fill="#0E0E0E"/>
</svg>
