<svg width="200" height="150" viewBox="0 0 200 150" fill="none" xmlns="http://www.w3.org/2000/svg">
<rect width="200" height="150" fill="url(#paint0_linear_19_67305)"/>
<path d="M25 149.546V130.455C25 126.591 25.9943 123.04 27.983 119.802C29.9716 116.563 32.6136 114.091 35.9091 112.387C42.9545 108.864 50.1136 106.222 57.3864 104.461C64.6591 102.699 72.0455 101.819 79.5455 101.819C87.0455 101.819 94.4318 102.699 101.705 104.461C108.977 106.222 116.136 108.864 123.182 112.387C126.477 114.091 129.119 116.563 131.108 119.802C133.097 123.04 134.091 126.591 134.091 130.455V149.546H25ZM147.727 149.546V129.091C147.727 124.091 146.335 119.29 143.551 114.688C140.767 110.086 136.818 106.137 131.705 102.841C137.5 103.523 142.955 104.688 148.068 106.336C153.182 107.983 157.955 110.001 162.386 112.387C166.477 114.66 169.602 117.188 171.761 119.972C173.92 122.756 175 125.796 175 129.091V149.546H147.727ZM79.5455 95.0005C72.0455 95.0005 65.625 92.3301 60.2841 86.9892C54.9432 81.6483 52.2727 75.2278 52.2727 67.7278C52.2727 60.2278 54.9432 53.8074 60.2841 48.4664C65.625 43.1255 72.0455 40.4551 79.5455 40.4551C87.0455 40.4551 93.4659 43.1255 98.8068 48.4664C104.148 53.8074 106.818 60.2278 106.818 67.7278C106.818 75.2278 104.148 81.6483 98.8068 86.9892C93.4659 92.3301 87.0455 95.0005 79.5455 95.0005ZM147.727 67.7278C147.727 75.2278 145.057 81.6483 139.716 86.9892C134.375 92.3301 127.955 95.0005 120.455 95.0005C119.205 95.0005 117.614 94.8585 115.682 94.5744C113.75 94.2903 112.159 93.9778 110.909 93.6369C113.977 90.0005 116.335 85.9664 117.983 81.5346C119.631 77.1028 120.455 72.5005 120.455 67.7278C120.455 62.9551 119.631 58.3528 117.983 53.921C116.335 49.4892 113.977 45.4551 110.909 41.8187C112.5 41.2505 114.091 40.8812 115.682 40.7108C117.273 40.5403 118.864 40.4551 120.455 40.4551C127.955 40.4551 134.375 43.1255 139.716 48.4664C145.057 53.8074 147.727 60.2278 147.727 67.7278Z" fill="url(#paint1_linear_19_67305)"/>
<path d="M79 95C71.4375 95 64.9635 92.3073 59.5781 86.9219C54.1927 81.5365 51.5 75.0625 51.5 67.5C51.5 59.9375 54.1927 53.4635 59.5781 48.0781C64.9635 42.6927 71.4375 40 79 40C86.5625 40 93.0365 42.6927 98.4219 48.0781C103.807 53.4635 106.5 59.9375 106.5 67.5C106.5 75.0625 103.807 81.5365 98.4219 86.9219C93.0365 92.3073 86.5625 95 79 95ZM24 150V130.75C24 126.854 25.0026 123.273 27.0078 120.008C29.013 116.742 31.6771 114.25 35 112.531C42.1042 108.979 49.3229 106.315 56.6562 104.539C63.9896 102.763 71.4375 101.875 79 101.875C86.5625 101.875 94.0104 102.763 101.344 104.539C108.677 106.315 115.896 108.979 123 112.531C126.323 114.25 128.987 116.742 130.992 120.008C132.997 123.273 134 126.854 134 130.75V150H24Z" fill="url(#paint2_linear_19_67305)"/>
<defs>
<linearGradient id="paint0_linear_19_67305" x1="100" y1="0" x2="100" y2="150" gradientUnits="userSpaceOnUse">
<stop stop-color="white"/>
<stop offset="1" stop-color="#DBEFBC" stop-opacity="0.5"/>
</linearGradient>
<linearGradient id="paint1_linear_19_67305" x1="100" y1="40.4551" x2="100" y2="149.546" gradientUnits="userSpaceOnUse">
<stop stop-color="#1A5C4B"/>
<stop offset="1" stop-color="#85BC31"/>
</linearGradient>
<linearGradient id="paint2_linear_19_67305" x1="79" y1="40" x2="79" y2="150" gradientUnits="userSpaceOnUse">
<stop stop-color="#85BC31"/>
<stop offset="1" stop-color="#D0F19E"/>
</linearGradient>
</defs>
</svg>
