<svg width="24" height="28" viewBox="0 0 24 28" fill="none" xmlns="http://www.w3.org/2000/svg">
<path d="M23.3531 12.4388C23.3524 12.4383 23.3518 12.4376 23.3513 12.437L13.5612 2.64728C13.1439 2.2298 12.5891 2 11.9989 2C11.4088 2 10.854 2.2298 10.4365 2.64728L0.651514 12.4321C0.648218 12.4354 0.644739 12.4388 0.641626 12.4421C-0.215307 13.304 -0.213843 14.7024 0.645838 15.5621C1.0386 15.955 1.55715 16.1824 2.11178 16.2064C2.13449 16.2086 2.15719 16.2097 2.18008 16.2097H2.57009V23.4142C2.57009 24.84 3.73025 26 5.15609 26H8.98629C9.37466 26 9.68942 25.6851 9.68942 25.2969V19.6484C9.68942 18.9979 10.2188 18.4687 10.8693 18.4687H13.1285C13.7791 18.4687 14.3083 18.9979 14.3083 19.6484V25.2969C14.3083 25.6851 14.623 26 15.0114 26H18.8416C20.2676 26 21.4276 24.84 21.4276 23.4142V16.2097H21.7894C22.3794 16.2097 22.9342 15.9799 23.3518 15.5623C24.2124 14.7013 24.2128 13.3004 23.3531 12.4388ZM22.3574 14.568C22.2056 14.7198 22.0038 14.8035 21.7894 14.8035H20.7245C20.3361 14.8035 20.0213 15.1182 20.0213 15.5066V23.4142C20.0213 24.0646 19.4922 24.5938 18.8416 24.5938H15.7145V19.6484C15.7145 18.2226 14.5545 17.0624 13.1285 17.0624H10.8693C9.44332 17.0624 8.28317 18.2226 8.28317 19.6484V24.5938H5.15609C4.5057 24.5938 3.97634 24.0646 3.97634 23.4142V15.5066C3.97634 15.1182 3.66158 14.8035 3.27322 14.8035H2.22659C2.2156 14.8027 2.2048 14.8022 2.19363 14.802C1.98416 14.7983 1.78768 14.7152 1.64047 14.5678C1.32736 14.2547 1.32736 13.7451 1.64047 13.4318C1.64065 13.4318 1.64065 13.4316 1.64083 13.4315L1.64138 13.4309L11.4311 3.64154C11.5827 3.48975 11.7843 3.40625 11.9989 3.40625C12.2133 3.40625 12.4149 3.48975 12.5667 3.64154L22.3543 13.4289C22.3557 13.4304 22.3574 13.4318 22.3589 13.4333C22.6703 13.7469 22.6698 14.2554 22.3574 14.568Z" fill="black"/>
</svg>
