<svg width="56" height="56" viewBox="0 0 56 56" fill="none" xmlns="http://www.w3.org/2000/svg">
<rect width="56" height="56" rx="28" fill="#D0F19E"/>
<mask id="mask0_53_1815" style="mask-type:alpha" maskUnits="userSpaceOnUse" x="8" y="8" width="40" height="40">
<rect x="8" y="8" width="40" height="40" fill="#D9D9D9"/>
</mask>
<g mask="url(#mask0_53_1815)">
<path d="M32.1666 38C32.8611 38 33.4513 37.7569 33.9375 37.2708C34.4236 36.7847 34.6666 36.1944 34.6666 35.5C34.6666 34.8055 34.4236 34.2153 33.9375 33.7292C33.4513 33.243 32.8611 33 32.1666 33C31.4722 33 30.8819 33.243 30.3958 33.7292C29.9097 34.2153 29.6666 34.8055 29.6666 35.5C29.6666 36.1944 29.9097 36.7847 30.3958 37.2708C30.8819 37.7569 31.4722 38 32.1666 38ZM23.75 37.9167L34.5833 27.0833L32.25 24.75L21.4166 35.5833L23.75 37.9167ZM23.8333 29.6667C24.5277 29.6667 25.118 29.4236 25.6041 28.9375C26.0902 28.4514 26.3333 27.8611 26.3333 27.1667C26.3333 26.4722 26.0902 25.8819 25.6041 25.3958C25.118 24.9097 24.5277 24.6667 23.8333 24.6667C23.1388 24.6667 22.5486 24.9097 22.0625 25.3958C21.5763 25.8819 21.3333 26.4722 21.3333 27.1667C21.3333 27.8611 21.5763 28.4514 22.0625 28.9375C22.5486 29.4236 23.1388 29.6667 23.8333 29.6667ZM28 44.6667C24.1944 44.6667 21.0208 43.3611 18.4791 40.75C15.9375 38.1389 14.6666 34.8889 14.6666 31C14.6666 28.2222 15.7708 25.2014 17.9791 21.9375C20.1875 18.6736 23.5277 15.1389 28 11.3333C32.4722 15.1389 35.8125 18.6736 38.0208 21.9375C40.2291 25.2014 41.3333 28.2222 41.3333 31C41.3333 34.8889 40.0625 38.1389 37.5208 40.75C34.9791 43.3611 31.8055 44.6667 28 44.6667ZM28 41.3333C30.8888 41.3333 33.2777 40.3542 35.1666 38.3958C37.0555 36.4375 38 33.9722 38 31C38 28.9722 37.1597 26.6806 35.4791 24.125C33.7986 21.5694 31.3055 18.7778 28 15.75C24.6944 18.7778 22.2013 21.5694 20.5208 24.125C18.8402 26.6806 18 28.9722 18 31C18 33.9722 18.9444 36.4375 20.8333 38.3958C22.7222 40.3542 25.1111 41.3333 28 41.3333Z" fill="#1A5C4B"/>
</g>
</svg>
