<svg width="41" height="40" viewBox="0 0 41 40" fill="none" xmlns="http://www.w3.org/2000/svg">
<mask id="mask0_2805_97980" style="mask-type:alpha" maskUnits="userSpaceOnUse" x="0" y="0" width="41" height="40">
<rect x="0.666016" width="40" height="40" fill="#D9D9D9"/>
</mask>
<g mask="url(#mask0_2805_97980)">
<path d="M24.832 30.0002C25.5265 30.0002 26.1168 29.7571 26.6029 29.271C27.089 28.7849 27.332 28.1946 27.332 27.5002C27.332 26.8057 27.089 26.2154 26.6029 25.7293C26.1168 25.2432 25.5265 25.0002 24.832 25.0002C24.1376 25.0002 23.5473 25.2432 23.0612 25.7293C22.5751 26.2154 22.332 26.8057 22.332 27.5002C22.332 28.1946 22.5751 28.7849 23.0612 29.271C23.5473 29.7571 24.1376 30.0002 24.832 30.0002ZM16.4154 29.9168L27.2487 19.0835L24.9154 16.7502L14.082 27.5835L16.4154 29.9168ZM16.4987 21.6668C17.1931 21.6668 17.7834 21.4238 18.2695 20.9377C18.7556 20.4516 18.9987 19.8613 18.9987 19.1668C18.9987 18.4724 18.7556 17.8821 18.2695 17.396C17.7834 16.9099 17.1931 16.6668 16.4987 16.6668C15.8043 16.6668 15.214 16.9099 14.7279 17.396C14.2418 17.8821 13.9987 18.4724 13.9987 19.1668C13.9987 19.8613 14.2418 20.4516 14.7279 20.9377C15.214 21.4238 15.8043 21.6668 16.4987 21.6668ZM20.6654 36.6668C16.8598 36.6668 13.6862 35.3613 11.1445 32.7502C8.60286 30.1391 7.33203 26.8891 7.33203 23.0002C7.33203 20.2224 8.4362 17.2016 10.6445 13.9377C12.8529 10.6738 16.1931 7.13905 20.6654 3.3335C25.1376 7.13905 28.4779 10.6738 30.6862 13.9377C32.8945 17.2016 33.9987 20.2224 33.9987 23.0002C33.9987 26.8891 32.7279 30.1391 30.1862 32.7502C27.6445 35.3613 24.4709 36.6668 20.6654 36.6668ZM20.6654 33.3335C23.5543 33.3335 25.9431 32.3543 27.832 30.396C29.7209 28.4377 30.6654 25.9724 30.6654 23.0002C30.6654 20.9724 29.8251 18.6807 28.1445 16.1252C26.464 13.5696 23.9709 10.7779 20.6654 7.75016C17.3598 10.7779 14.8668 13.5696 13.1862 16.1252C11.5056 18.6807 10.6654 20.9724 10.6654 23.0002C10.6654 25.9724 11.6098 28.4377 13.4987 30.396C15.3876 32.3543 17.7765 33.3335 20.6654 33.3335Z" fill="#1A5C4B"/>
</g>
</svg>
