<svg width="40" height="40" viewBox="0 0 40 40" fill="none" xmlns="http://www.w3.org/2000/svg">
<mask id="mask0_925_18814" style="mask-type:alpha" maskUnits="userSpaceOnUse" x="0" y="0" width="40" height="40">
<rect width="40" height="40" fill="#D9D9D9"/>
</mask>
<g mask="url(#mask0_925_18814)">
<path d="M8.33333 34.9999C7.41667 34.9999 6.63194 34.6735 5.97917 34.0207C5.32639 33.3679 5 32.5832 5 31.6665V8.33321C5 7.41654 5.32639 6.63182 5.97917 5.97904C6.63194 5.32627 7.41667 4.99988 8.33333 4.99988H31.6667C32.5833 4.99988 33.3681 5.32627 34.0208 5.97904C34.6736 6.63182 35 7.41654 35 8.33321V31.6665C35 32.5832 34.6736 33.3679 34.0208 34.0207C33.3681 34.6735 32.5833 34.9999 31.6667 34.9999H8.33333ZM8.33333 31.6665H31.6667V8.33321H8.33333V31.6665ZM10 28.3332H30L23.75 19.9999L18.75 26.6665L15 21.6665L10 28.3332Z" fill="#1C1B1F"/>
</g>
</svg>
