<svg width="11" height="18" viewBox="0 0 11 18" fill="none" xmlns="http://www.w3.org/2000/svg">
<path fill-rule="evenodd" clip-rule="evenodd" d="M4.78001 10.0239C6.53139 11.425 8.67586 13.5583 10.1172 16.4411L7.88111 17.5591C6.65576 15.1083 4.80024 13.2417 3.21828 11.9761C2.43174 11.3469 1.72502 10.876 1.21904 10.5646C0.966409 10.4092 0.764853 10.2941 0.629698 10.2196C0.562151 10.1823 0.511288 10.1552 0.479032 10.1383L0.444881 10.1206L0.440157 10.1181L0.439562 10.1178C0.43959 10.1178 0.439619 10.1179 0.440157 10.1169L0.44013 7.88333C0.439591 7.88232 0.439562 7.88233 0.439535 7.88235L0.44013 7.88205L0.444854 7.87963L0.479006 7.8619C0.511263 7.84498 0.562126 7.81788 0.629674 7.78061C0.764829 7.70604 0.966386 7.59098 1.21902 7.43551C1.725 7.12413 2.43173 6.65323 3.21827 6.02398C4.80023 4.7584 6.65576 2.89169 7.88111 0.440918L10.1172 1.55893C8.67587 4.44165 6.5314 6.57502 4.78002 7.97614C4.28401 8.37296 3.81557 8.7142 3.39783 9.00006C3.81557 9.28591 4.284 9.62713 4.78001 10.0239Z" fill="black"/>
</svg>
