<svg width="11" height="18" viewBox="0 0 11 18" fill="none" xmlns="http://www.w3.org/2000/svg">
<path fill-rule="evenodd" clip-rule="evenodd" d="M6.21999 10.0239C4.46861 11.425 2.32414 13.5583 0.882813 16.4411L3.11889 17.5591C4.34424 15.1083 6.19976 13.2417 7.78172 11.9761C8.56826 11.3469 9.27498 10.876 9.78096 10.5646C10.0336 10.4092 10.2351 10.2941 10.3703 10.2196C10.4378 10.1823 10.4887 10.1552 10.521 10.1383L10.5551 10.1206L10.5598 10.1181L10.5604 10.1178C10.5604 10.1178 10.5604 10.1179 10.5598 10.1169L10.5599 7.88333C10.5604 7.88232 10.5604 7.88233 10.5605 7.88235L10.5599 7.88205L10.5551 7.87963L10.521 7.8619C10.4887 7.84498 10.4379 7.81788 10.3703 7.78061C10.2352 7.70604 10.0336 7.59098 9.78098 7.43551C9.275 7.12413 8.56827 6.65323 7.78173 6.02398C6.19977 4.7584 4.34424 2.89169 3.11889 0.440918L0.882813 1.55893C2.32413 4.44165 4.4686 6.57502 6.21998 7.97614C6.71599 8.37296 7.18443 8.7142 7.60217 9.00006C7.18443 9.28591 6.716 9.62713 6.21999 10.0239Z" fill="black"/>
</svg>
