<svg width="40" height="40" viewBox="0 0 40 40" fill="none" xmlns="http://www.w3.org/2000/svg">
<rect width="40" height="40" rx="20" fill="#D0F19E"/>
<mask id="mask0_19_67970" style="mask-type:alpha" maskUnits="userSpaceOnUse" x="8" y="8" width="24" height="24">
<rect x="8" y="8" width="24" height="24" fill="#D9D9D9"/>
</mask>
<g mask="url(#mask0_19_67970)">
<path d="M16 26H24V24H16V26ZM16 22H24V20H16V22ZM14 30C13.45 30 12.9792 29.8042 12.5875 29.4125C12.1958 29.0208 12 28.55 12 28V12C12 11.45 12.1958 10.9792 12.5875 10.5875C12.9792 10.1958 13.45 10 14 10H22L28 16V28C28 28.55 27.8042 29.0208 27.4125 29.4125C27.0208 29.8042 26.55 30 26 30H14ZM21 17V12H14V28H26V17H21Z" fill="#1A5C4B"/>
</g>
</svg>
