<svg width="40" height="40" viewBox="0 0 40 40" fill="none" xmlns="http://www.w3.org/2000/svg">
<mask id="mask0_2805_97975" style="mask-type:alpha" maskUnits="userSpaceOnUse" x="0" y="0" width="40" height="40">
<rect width="40" height="40" fill="#D9D9D9"/>
</mask>
<g mask="url(#mask0_2805_97975)">
<path d="M8.25092 19.8331C7.83425 20.0553 7.41064 20.0901 6.98008 19.9373C6.54953 19.7845 6.22314 19.4998 6.00092 19.0831L1.83425 10.7498C1.61203 10.3331 1.57731 9.9095 1.73008 9.47894C1.88286 9.04839 2.16758 8.722 2.58425 8.49978C3.00092 8.27755 3.42453 8.24283 3.85508 8.39561C4.28564 8.54839 4.61203 8.83311 4.83425 9.24978L9.00092 17.5831C9.22314 17.9998 9.25786 18.4234 9.10508 18.8539C8.95231 19.2845 8.66758 19.6109 8.25092 19.8331ZM14.0842 31.4998C13.6676 31.722 13.244 31.7567 12.8134 31.6039C12.3829 31.4512 12.0565 31.1664 11.8342 30.7498L8.50092 24.0831C8.27869 23.6664 8.24397 23.2428 8.39675 22.8123C8.54953 22.3817 8.83425 22.0553 9.25092 21.8331C9.66758 21.6109 10.0912 21.5762 10.5217 21.7289C10.9523 21.8817 11.2787 22.1664 11.5009 22.5831L14.8343 29.2498C15.0565 29.6664 15.0912 30.0901 14.9384 30.5206C14.7856 30.9512 14.5009 31.2776 14.0842 31.4998ZM17.5009 23.1664C17.0843 23.3887 16.6606 23.4234 16.2301 23.2706C15.7995 23.1178 15.4731 22.8331 15.2509 22.4164L9.41758 10.7498C9.19536 10.3331 9.16064 9.9095 9.31342 9.47894C9.46619 9.04839 9.75092 8.722 10.1676 8.49978C10.5842 8.27755 11.0079 8.24283 11.4384 8.39561C11.869 8.54839 12.1954 8.83311 12.4176 9.24978L18.2509 20.9164C18.4731 21.3331 18.5079 21.7567 18.3551 22.1873C18.2023 22.6178 17.9176 22.9442 17.5009 23.1664ZM21.0842 14.8331C20.6676 15.0553 20.244 15.0901 19.8134 14.9373C19.3829 14.7845 19.0565 14.4998 18.8342 14.0831L17.2093 10.7498C16.987 10.3331 16.9523 9.9095 17.1051 9.47894C17.2579 9.04839 17.5426 8.722 17.9593 8.49978C18.3759 8.27755 18.7926 8.24283 19.2093 8.39561C19.6259 8.54839 19.9454 8.83311 20.1676 9.24978L21.8342 12.5831C22.0565 12.9998 22.0912 13.4234 21.9384 13.8539C21.7856 14.2845 21.5009 14.6109 21.0842 14.8331ZM22.0843 31.4581C21.6676 31.6803 21.244 31.722 20.8134 31.5831C20.3829 31.4442 20.0565 31.1664 19.8343 30.7498L18.1676 27.4164C17.9454 26.9998 17.9106 26.5762 18.0634 26.1456C18.2162 25.7151 18.5009 25.3887 18.9176 25.1664C19.3342 24.9442 19.7579 24.9095 20.1884 25.0623C20.619 25.2151 20.9454 25.4998 21.1676 25.9164L22.8343 29.2498C23.0565 29.6664 23.0912 30.0831 22.9384 30.4998C22.7856 30.9164 22.5009 31.2359 22.0843 31.4581ZM29.8342 31.4581C29.4176 31.6803 28.994 31.722 28.5634 31.5831C28.1329 31.4442 27.8065 31.1664 27.5842 30.7498L21.7509 19.0831C21.5287 18.6664 21.494 18.2428 21.6467 17.8123C21.7995 17.3817 22.0843 17.0553 22.5009 16.8331C22.9176 16.6109 23.3412 16.5762 23.7717 16.7289C24.2023 16.8817 24.5287 17.1664 24.7509 17.5831L30.5842 29.2498C30.8065 29.6664 30.8412 30.0831 30.6884 30.4998C30.5356 30.9164 30.2509 31.2359 29.8342 31.4581ZM32.4176 21.4998C32.0009 21.722 31.5773 21.7567 31.1467 21.6039C30.7162 21.4512 30.3898 21.1664 30.1676 20.7498L25.1676 10.7498C24.9454 10.3331 24.9106 9.9095 25.0634 9.47894C25.2162 9.04839 25.5009 8.722 25.9176 8.49978C26.3342 8.27755 26.7579 8.24283 27.1884 8.39561C27.619 8.54839 27.9454 8.83311 28.1676 9.24978L33.1676 19.2498C33.3898 19.6664 33.4245 20.0901 33.2717 20.5206C33.119 20.9512 32.8343 21.2776 32.4176 21.4998ZM37.4176 31.4998C37.0009 31.722 36.5773 31.7567 36.1467 31.6039C35.7162 31.4512 35.3898 31.1664 35.1676 30.7498L32.6676 25.7498C32.4454 25.3331 32.4106 24.9095 32.5634 24.4789C32.7162 24.0484 33.0009 23.722 33.4176 23.4998C33.8342 23.2776 34.2579 23.2428 34.6884 23.3956C35.119 23.5484 35.4454 23.8331 35.6676 24.2498L38.1676 29.2498C38.3898 29.6664 38.4245 30.0901 38.2717 30.5206C38.119 30.9512 37.8342 31.2776 37.4176 31.4998Z" fill="#1A5C4B"/>
</g>
</svg>
