<svg width="57" height="56" viewBox="0 0 57 56" fill="none" xmlns="http://www.w3.org/2000/svg">
<rect x="0.800049" width="56" height="56" rx="28" fill="#D0F19E"/>
<mask id="mask0_53_1383" style="mask-type:alpha" maskUnits="userSpaceOnUse" x="8" y="8" width="41" height="40">
<rect x="8.80005" y="8" width="40" height="40" fill="#D9D9D9"/>
</mask>
<g mask="url(#mask0_53_1383)">
<path d="M17.05 27.8333C16.6333 28.0555 16.2097 28.0903 15.7792 27.9375C15.3486 27.7847 15.0222 27.5 14.8 27.0833L10.6333 18.75C10.4111 18.3333 10.3764 17.9097 10.5292 17.4792C10.6819 17.0486 10.9667 16.7222 11.3833 16.5C11.8 16.2778 12.2236 16.243 12.6542 16.3958C13.0847 16.5486 13.4111 16.8333 13.6333 17.25L17.8 25.5833C18.0222 26 18.0569 26.4236 17.9042 26.8542C17.7514 27.2847 17.4667 27.6111 17.05 27.8333ZM22.8833 39.5C22.4667 39.7222 22.043 39.7569 21.6125 39.6042C21.1819 39.4514 20.8555 39.1667 20.6333 38.75L17.3 32.0833C17.0778 31.6667 17.043 31.243 17.1958 30.8125C17.3486 30.3819 17.6333 30.0555 18.05 29.8333C18.4667 29.6111 18.8903 29.5764 19.3208 29.7292C19.7514 29.8819 20.0778 30.1667 20.3 30.5833L23.6333 37.25C23.8555 37.6667 23.8903 38.0903 23.7375 38.5208C23.5847 38.9514 23.3 39.2778 22.8833 39.5ZM26.3 31.1667C25.8833 31.3889 25.4597 31.4236 25.0292 31.2708C24.5986 31.118 24.2722 30.8333 24.05 30.4167L18.2167 18.75C17.9944 18.3333 17.9597 17.9097 18.1125 17.4792C18.2653 17.0486 18.55 16.7222 18.9667 16.5C19.3833 16.2778 19.8069 16.243 20.2375 16.3958C20.668 16.5486 20.9944 16.8333 21.2167 17.25L27.05 28.9167C27.2722 29.3333 27.3069 29.7569 27.1542 30.1875C27.0014 30.618 26.7167 30.9444 26.3 31.1667ZM29.8833 22.8333C29.4667 23.0555 29.043 23.0903 28.6125 22.9375C28.1819 22.7847 27.8555 22.5 27.6333 22.0833L26.0083 18.75C25.7861 18.3333 25.7514 17.9097 25.9042 17.4792C26.0569 17.0486 26.3417 16.7222 26.7583 16.5C27.175 16.2778 27.5917 16.243 28.0083 16.3958C28.425 16.5486 28.7444 16.8333 28.9667 17.25L30.6333 20.5833C30.8555 21 30.8903 21.4236 30.7375 21.8542C30.5847 22.2847 30.3 22.6111 29.8833 22.8333ZM30.8833 39.4583C30.4667 39.6805 30.043 39.7222 29.6125 39.5833C29.1819 39.4444 28.8555 39.1667 28.6333 38.75L26.9667 35.4167C26.7444 35 26.7097 34.5764 26.8625 34.1458C27.0153 33.7153 27.3 33.3889 27.7167 33.1667C28.1333 32.9444 28.5569 32.9097 28.9875 33.0625C29.418 33.2153 29.7444 33.5 29.9667 33.9167L31.6333 37.25C31.8555 37.6667 31.8903 38.0833 31.7375 38.5C31.5847 38.9167 31.3 39.2361 30.8833 39.4583ZM38.6333 39.4583C38.2167 39.6805 37.793 39.7222 37.3625 39.5833C36.9319 39.4444 36.6055 39.1667 36.3833 38.75L30.55 27.0833C30.3278 26.6667 30.293 26.243 30.4458 25.8125C30.5986 25.3819 30.8833 25.0555 31.3 24.8333C31.7167 24.6111 32.1403 24.5764 32.5708 24.7292C33.0014 24.8819 33.3278 25.1667 33.55 25.5833L39.3833 37.25C39.6055 37.6667 39.6403 38.0833 39.4875 38.5C39.3347 38.9167 39.05 39.2361 38.6333 39.4583ZM41.2167 29.5C40.8 29.7222 40.3764 29.7569 39.9458 29.6042C39.5153 29.4514 39.1889 29.1667 38.9667 28.75L33.9667 18.75C33.7444 18.3333 33.7097 17.9097 33.8625 17.4792C34.0153 17.0486 34.3 16.7222 34.7167 16.5C35.1333 16.2778 35.5569 16.243 35.9875 16.3958C36.418 16.5486 36.7444 16.8333 36.9667 17.25L41.9667 27.25C42.1889 27.6667 42.2236 28.0903 42.0708 28.5208C41.918 28.9514 41.6333 29.2778 41.2167 29.5ZM46.2167 39.5C45.8 39.7222 45.3764 39.7569 44.9458 39.6042C44.5153 39.4514 44.1889 39.1667 43.9667 38.75L41.4667 33.75C41.2444 33.3333 41.2097 32.9097 41.3625 32.4792C41.5153 32.0486 41.8 31.7222 42.2167 31.5C42.6333 31.2778 43.0569 31.243 43.4875 31.3958C43.918 31.5486 44.2444 31.8333 44.4667 32.25L46.9667 37.25C47.1889 37.6667 47.2236 38.0903 47.0708 38.5208C46.918 38.9514 46.6333 39.2778 46.2167 39.5Z" fill="#1A5C4B"/>
</g>
</svg>
