<svg width="36" height="35" viewBox="0 0 36 35" fill="none" xmlns="http://www.w3.org/2000/svg">
<g clip-path="url(#clip0_385_57616)">
<path d="M3.41667 8.75033H0.5V16.042H0.514583L0.5 29.167C0.5 30.7712 1.8125 32.0837 3.41667 32.0837H29.6667V29.167H3.41667V8.75033ZM10.7083 21.8753H31.125L26.0208 15.3128L22.375 19.7024L17.2708 13.1253L10.7083 21.8753ZM32.5833 5.83366H20.9167L18 2.91699H9.25C7.64583 2.91699 6.34792 4.22949 6.34792 5.83366L6.33333 23.3337C6.33333 24.9378 7.64583 26.2503 9.25 26.2503H32.5833C34.1875 26.2503 35.5 24.9378 35.5 23.3337V8.75033C35.5 7.14616 34.1875 5.83366 32.5833 5.83366ZM32.5833 23.3337H9.25V5.83366H16.7896L19.7063 8.75033H32.5833V23.3337Z" fill="black"/>
</g>
<defs>
<clipPath id="clip0_385_57616">
<rect width="35" height="35" fill="white" transform="translate(0.5)"/>
</clipPath>
</defs>
</svg>
