<svg width="20" height="20" viewBox="0 0 20 20" fill="none" xmlns="http://www.w3.org/2000/svg">
<g clip-path="url(#clip0_925_19714)">
<path d="M10.1292 8.94134L6.74147 4.20105H4.93457L9.13114 10.0726L9.6594 10.8113L13.2514 15.8414H15.0583L10.6552 9.67997L10.1292 8.94134Z" fill="white"/>
<path d="M17.6338 0.833374H2.36749C1.52053 0.833374 0.833984 1.51992 0.833984 2.36688V17.6332C0.833984 18.4802 1.52053 19.1667 2.36749 19.1667H17.6338C18.4808 19.1667 19.1673 18.4802 19.1673 17.6332V2.36688C19.1673 1.51992 18.4808 0.833374 17.6338 0.833374ZM12.6968 16.6667L9.06132 11.4892L4.51018 16.6667H3.33398L8.53972 10.7461L3.33398 3.33337H7.30452L10.7463 8.23501L15.0586 3.33337H16.2348L11.2706 8.97974L16.6673 16.6667H12.6968Z" fill="white"/>
</g>
<defs>
<clipPath id="clip0_925_19714">
<rect width="20" height="20" fill="white"/>
</clipPath>
</defs>
</svg>
