<svg width="57" height="56" viewBox="0 0 57 56" fill="none" xmlns="http://www.w3.org/2000/svg">
<rect x="0.399902" width="56" height="56" rx="28" fill="#D0F19E"/>
<mask id="mask0_53_1395" style="mask-type:alpha" maskUnits="userSpaceOnUse" x="8" y="8" width="41" height="40">
<rect x="8.3999" y="8" width="40" height="40" fill="#D9D9D9"/>
</mask>
<g mask="url(#mask0_53_1395)">
<path d="M27.5665 41.3333C26.1776 41.3333 24.997 40.8472 24.0248 39.875C23.0526 38.9028 22.5665 37.7222 22.5665 36.3333H25.8998C25.8998 36.8056 26.0595 37.2014 26.379 37.5208C26.6984 37.8403 27.0943 38 27.5665 38C28.0387 38 28.4345 37.8403 28.754 37.5208C29.0734 37.2014 29.2332 36.8056 29.2332 36.3333C29.2332 35.8611 29.0734 35.4653 28.754 35.1458C28.4345 34.8264 28.0387 34.6667 27.5665 34.6667H11.7332V31.3333H27.5665C28.9554 31.3333 30.1359 31.8194 31.1082 32.7917C32.0804 33.7639 32.5665 34.9444 32.5665 36.3333C32.5665 37.7222 32.0804 38.9028 31.1082 39.875C30.1359 40.8472 28.9554 41.3333 27.5665 41.3333ZM11.7332 24.6667V21.3333H34.2332C34.9554 21.3333 35.5526 21.0972 36.0248 20.625C36.497 20.1528 36.7332 19.5556 36.7332 18.8333C36.7332 18.1111 36.497 17.5139 36.0248 17.0417C35.5526 16.5694 34.9554 16.3333 34.2332 16.3333C33.5109 16.3333 32.9137 16.5694 32.4415 17.0417C31.9693 17.5139 31.7332 18.1111 31.7332 18.8333H28.3998C28.3998 17.1944 28.9623 15.8125 30.0873 14.6875C31.2123 13.5625 32.5943 13 34.2332 13C35.872 13 37.254 13.5625 38.379 14.6875C39.504 15.8125 40.0665 17.1944 40.0665 18.8333C40.0665 20.4722 39.504 21.8542 38.379 22.9792C37.254 24.1042 35.872 24.6667 34.2332 24.6667H11.7332ZM39.2332 38V34.6667C39.9554 34.6667 40.5526 34.4306 41.0248 33.9583C41.497 33.4861 41.7332 32.8889 41.7332 32.1667C41.7332 31.4444 41.497 30.8472 41.0248 30.375C40.5526 29.9028 39.9554 29.6667 39.2332 29.6667H11.7332V26.3333H39.2332C40.872 26.3333 42.254 26.8958 43.379 28.0208C44.504 29.1458 45.0665 30.5278 45.0665 32.1667C45.0665 33.8056 44.504 35.1875 43.379 36.3125C42.254 37.4375 40.872 38 39.2332 38Z" fill="#1A5C4B"/>
</g>
</svg>
