<svg width="97" height="96" viewBox="0 0 97 96" fill="none" xmlns="http://www.w3.org/2000/svg">
<rect x="0.5" width="96" height="96" rx="48" fill="#D0F19E"/>
<path d="M21.834 37.334V48.0033H24.5007V64.0006H21.834V72.0006H64.5006L72.5006 72.0033L75.1673 72.0006V64.0006H72.5006V48.0033H75.1673V37.334L48.5006 21.334L21.834 37.334ZM32.5007 64.0006V48.0033H37.834V64.0006H32.5007ZM45.834 64.0006V48.0033H51.1673V64.0006H45.834ZM64.5006 64.0006H59.1673V48.0033H64.5006V64.0006ZM53.834 37.334C53.8338 38.0345 53.6956 38.7282 53.4274 39.3754C53.1591 40.0225 52.766 40.6105 52.2706 41.1058C51.7751 41.601 51.1869 41.9938 50.5396 42.2618C49.8923 42.5297 49.1985 42.6675 48.498 42.6673C47.7974 42.6671 47.1038 42.529 46.4566 42.2607C45.8094 41.9925 45.2214 41.5994 44.7262 41.1039C44.2309 40.6084 43.8381 40.0202 43.5702 39.3729C43.3023 38.7256 43.1645 38.0319 43.1646 37.3313C43.165 35.9165 43.7274 34.5597 44.7281 33.5595C45.7288 32.5593 47.0858 31.9976 48.5006 31.998C49.9155 31.9983 51.2722 32.5607 52.2724 33.5614C53.2726 34.5621 53.8343 35.9191 53.834 37.334Z" fill="#1A5C4B"/>
</svg>
