<svg width="40" height="40" viewBox="0 0 40 40" fill="none" xmlns="http://www.w3.org/2000/svg">
<path fill-rule="evenodd" clip-rule="evenodd" d="M35.113 0C37.8102 0 40 2.18984 40 4.88703V35.113C40 37.8102 37.8102 40 35.113 40H4.88703C2.18984 40 0 37.8102 0 35.113V4.88703C0 2.18984 2.18977 0 4.88703 0L35.113 0ZM33.4749 13.7211C33.1516 12.511 32.1986 11.558 30.9885 11.2347C28.7949 10.6469 20 10.6469 20 10.6469C20 10.6469 11.2051 10.6469 9.01148 11.2347C7.80164 11.558 6.84852 12.511 6.52508 13.7211C5.9375 15.9145 5.9375 20.4908 5.9375 20.4908C5.9375 20.4908 5.9375 25.067 6.52508 27.2602C6.84852 28.4702 7.80164 29.4234 9.01148 29.7468C11.2051 30.3344 20 30.3344 20 30.3344C20 30.3344 28.7949 30.3344 30.9885 29.7468C32.1986 29.4234 33.1516 28.4702 33.4749 27.2602C34.0625 25.067 34.0625 20.4908 34.0625 20.4908C34.0625 20.4908 34.0625 15.9145 33.4749 13.7211ZM17.1873 24.7096V16.272L24.4944 20.4908L17.1873 24.7096Z" fill="#FF0000"/>
</svg>
