<svg width="96" height="96" viewBox="0 0 96 96" fill="none" xmlns="http://www.w3.org/2000/svg">
<rect width="96" height="96" rx="48" fill="#F8CACA"/>
<path d="M21.334 37.334V48.0033H24.0007V64.0006H21.334V72.0006H64.0006L72.0006 72.0033L74.6673 72.0006V64.0006H72.0006V48.0033H74.6673V37.334L48.0006 21.334L21.334 37.334ZM32.0007 64.0006V48.0033H37.334V64.0006H32.0007ZM45.334 64.0006V48.0033H50.6673V64.0006H45.334ZM64.0006 64.0006H58.6673V48.0033H64.0006V64.0006ZM53.334 37.334C53.3338 38.0345 53.1956 38.7282 52.9274 39.3754C52.6591 40.0225 52.266 40.6105 51.7706 41.1058C51.2751 41.601 50.6869 41.9938 50.0396 42.2618C49.3923 42.5297 48.6985 42.6675 47.998 42.6673C47.2974 42.6671 46.6038 42.529 45.9566 42.2607C45.3094 41.9925 44.7214 41.5994 44.2262 41.1039C43.7309 40.6084 43.3381 40.0202 43.0702 39.3729C42.8023 38.7256 42.6645 38.0319 42.6646 37.3313C42.665 35.9165 43.2274 34.5597 44.2281 33.5595C45.2288 32.5593 46.5858 31.9976 48.0006 31.998C49.4155 31.9983 50.7722 32.5607 51.7724 33.5614C52.7726 34.5621 53.3343 35.9191 53.334 37.334Z" fill="#E2292A"/>
</svg>
